G04 DipTrace 3.2.0.1*
G04 TopPaste.gbr*
%MOMM*%
G04 #@! TF.FileFunction,Paste,Top*
G04 #@! TF.Part,Single*
%AMOUTLINE2*
4,1,4,
-0.60118,0.03261,
-0.03812,0.60088,
0.60118,-0.03261,
0.03812,-0.60088,
-0.60118,0.03261,
0*%
%AMOUTLINE8*
4,1,4,
-0.40005,0.44992,
0.39988,0.45008,
0.40005,-0.44992,
-0.39988,-0.45008,
-0.40005,0.44992,
0*%
%AMOUTLINE11*
4,1,4,
-0.0416,-0.60065,
-0.60139,-0.0291,
0.0416,0.60065,
0.60139,0.0291,
-0.0416,-0.60065,
0*%
%AMOUTLINE14*
4,1,4,
0.44955,0.40049,
0.45045,-0.39951,
-0.44955,-0.40049,
-0.45045,0.39951,
0.44955,0.40049,
0*%
%AMOUTLINE23*
4,1,5,
-0.65,1.1,
0.65,1.1,
0.65,-0.90858,
0.45858,-1.1,
-0.65,-1.1,
-0.65,1.1,
0*%
%ADD38R,0.8X1.6*%
%ADD40R,0.6X0.2*%
%ADD50R,0.6X1.5*%
%ADD52R,1.5X0.6*%
%ADD59R,0.8X0.9*%
%ADD62OUTLINE2*%
%ADD68OUTLINE8*%
%ADD71OUTLINE11*%
%ADD74OUTLINE14*%
%ADD83OUTLINE23*%
%FSLAX35Y35*%
G04*
G71*
G90*
G75*
G01*
G04 TopPaste*
%LPD*%
D59*
X-145233Y-853577D3*
Y-683577D3*
X-717743Y-677980D3*
Y-847980D3*
D62*
X-1046963Y-977313D3*
X-926203Y-1096967D3*
D59*
X949603Y501213D3*
Y671213D3*
D68*
X54840Y-849670D3*
X54807Y-679670D3*
D71*
X-1085290Y-322670D3*
X-963837Y-203717D3*
D74*
X-354687Y-983080D3*
X-524687Y-983267D3*
D52*
X-680000Y60000D3*
Y187000D3*
Y314000D3*
Y441000D3*
Y568000D3*
Y695000D3*
Y822000D3*
Y949000D3*
X680000Y60000D3*
Y187000D3*
Y314000D3*
Y441000D3*
Y568000D3*
Y695000D3*
Y822000D3*
Y949000D3*
Y1076000D3*
Y1203000D3*
D50*
X-63500Y-230000D3*
X63500D3*
X-190500Y-229000D3*
X190500Y-230000D3*
X-317500D3*
X317500D3*
X-444500D3*
X444500D3*
D40*
X-149913Y-1493143D3*
Y-1393143D3*
Y-1293143D3*
X140087Y-1493143D3*
Y-1393143D3*
Y-1293143D3*
D83*
X-4913Y-1393143D3*
D38*
X-563530Y-641343D3*
X-313530D3*
M02*
