G04 DipTrace 3.2.0.1*
G04 BottomSilk.gbr*
%MOIN*%
G04 #@! TF.FileFunction,Legend,Bot*
G04 #@! TF.Part,Single*
%ADD10C,0.009843*%
%ADD13C,0.002625*%
%ADD14C,0.001969*%
%ADD59C,0.003088*%
%FSLAX26Y26*%
G04*
G70*
G90*
G75*
G01*
G04 BotSilk*
%LPD*%
X608953Y-370861D2*
D10*
X482858D1*
X608953Y-363349D2*
X482858D1*
X608953D2*
X608899Y-410685D1*
X482858Y-363349D2*
X482912Y-410685D1*
X596385Y504474D2*
X621181Y504452D1*
X621769Y504252D2*
X621726Y479471D1*
X485191Y-96270D2*
G02X348981Y-336452I-420630J79829D01*
G01*
X-480028Y106371D2*
G02X481676Y99780I480164J-103676D01*
G01*
X-496285Y-97605D2*
G03X-359636Y-340373I494959J118759D01*
G01*
X415087Y-376942D2*
D14*
X419024D1*
X441661D2*
X447567D1*
X415461Y-377927D2*
X419398D1*
X439924D2*
X449456D1*
X415884Y-378911D2*
X419821D1*
X438490D2*
X450971D1*
X416341Y-379895D2*
X420278D1*
X437416D2*
X452112D1*
X416819Y-380879D2*
X420752D1*
X436563D2*
X442843D1*
X446385D2*
X452949D1*
X417304Y-381864D2*
X421207D1*
X435845D2*
X441320D1*
X447911D2*
X453568D1*
X417795Y-382848D2*
X421603D1*
X435320D2*
X440158D1*
X449095D2*
X454005D1*
X418285Y-383832D2*
X421952D1*
X434999D2*
X439342D1*
X449965D2*
X454287D1*
X418778Y-384816D2*
X422333D1*
X434772D2*
X438709D1*
X450602D2*
X454534D1*
X419269Y-385801D2*
X422764D1*
X451043D2*
X454823D1*
X419762Y-386785D2*
X423226D1*
X451294D2*
X455096D1*
X420254Y-387769D2*
X423707D1*
X451417D2*
X455276D1*
X412134Y-388753D2*
X415087D1*
X420743D2*
X424193D1*
X451470D2*
X455370D1*
X412134Y-389738D2*
X415087D1*
X421203D2*
X424684D1*
X451492D2*
X455413D1*
X412134Y-390722D2*
X415087D1*
X421601D2*
X425175D1*
X451500D2*
X455430D1*
X412134Y-391706D2*
X415087D1*
X421952D2*
X425668D1*
X451502D2*
X455437D1*
X412134Y-392690D2*
X415087D1*
X422333D2*
X426159D1*
X451503D2*
X455440D1*
X412134Y-393675D2*
X415087D1*
X422764D2*
X426652D1*
X451504D2*
X455437D1*
X412134Y-394659D2*
X415087D1*
X423229D2*
X427143D1*
X451500D2*
X455402D1*
X412134Y-395643D2*
X415087D1*
X423735D2*
X427632D1*
X451465D2*
X455277D1*
X412134Y-396627D2*
X415087D1*
X424305D2*
X428089D1*
X451336D2*
X455041D1*
X412134Y-397612D2*
X415087D1*
X424929D2*
X428453D1*
X451062D2*
X454785D1*
X410165Y-398596D2*
X428674D1*
X434772D2*
X438709D1*
X450642D2*
X454579D1*
X410165Y-399580D2*
X428785D1*
X434961D2*
X439291D1*
X450021D2*
X454358D1*
X410165Y-400564D2*
X428836D1*
X435335D2*
X440067D1*
X449198D2*
X454042D1*
X410165Y-401549D2*
X428866D1*
X435868D2*
X441913D1*
X447333D2*
X453609D1*
X412134Y-402533D2*
X415087D1*
X436495D2*
X444508D1*
X444727D2*
X453023D1*
X412134Y-403517D2*
X415087D1*
X437322D2*
X452203D1*
X412134Y-404501D2*
X415087D1*
X438502D2*
X451032D1*
X412134Y-405486D2*
X415087D1*
X440009D2*
X449429D1*
X412134Y-406470D2*
X415087D1*
X441661D2*
X447567D1*
X429062Y437001D2*
X431030D1*
X446778D2*
X448747D1*
X427173Y436017D2*
X432919D1*
X446380D2*
X449353D1*
X425658Y435033D2*
X434430D1*
X446451D2*
X449880D1*
X424517Y434049D2*
X435541D1*
X446707D2*
X450282D1*
X423680Y433064D2*
X436287D1*
X447056D2*
X450552D1*
X423060Y432080D2*
X427249D1*
X432809D2*
X436796D1*
X447375D2*
X450795D1*
X422628Y431096D2*
X426547D1*
X433419D2*
X437212D1*
X447579D2*
X451082D1*
X422380Y430112D2*
X425982D1*
X433874D2*
X437541D1*
X447685D2*
X451355D1*
X422258Y429127D2*
X425570D1*
X434270D2*
X437746D1*
X447732D2*
X451535D1*
X422205Y428143D2*
X425329D1*
X434591D2*
X437883D1*
X447751D2*
X451629D1*
X422184Y427159D2*
X425210D1*
X434795D2*
X438054D1*
X447758D2*
X451668D1*
X422176Y426175D2*
X425162D1*
X434931D2*
X438312D1*
X447757D2*
X451651D1*
X422173Y425190D2*
X425175D1*
X435102D2*
X438606D1*
X447720D2*
X451532D1*
X422176Y424206D2*
X425297D1*
X435360D2*
X438925D1*
X447628D2*
X451295D1*
X422211Y423222D2*
X425568D1*
X435654D2*
X439310D1*
X447172D2*
X451009D1*
X422340Y422238D2*
X425983D1*
X435957D2*
X440218D1*
X445594D2*
X450708D1*
X422613Y421253D2*
X426551D1*
X436324D2*
X442315D1*
X443054D2*
X450343D1*
X423020Y420269D2*
X427277D1*
X436786D2*
X449877D1*
X423543Y419285D2*
X428077D1*
X437412D2*
X449214D1*
X424140Y418301D2*
X426109D1*
X438313D2*
X448160D1*
X439511Y417316D2*
X446625D1*
X440873Y416332D2*
X444810D1*
X422172Y412395D2*
X424140D1*
X422225Y411411D2*
X428414D1*
X422353Y410427D2*
X432644D1*
X423104Y409442D2*
X436764D1*
X425328Y408458D2*
X440747D1*
X428409Y407474D2*
X444448D1*
X432101Y406490D2*
X447512D1*
X436130Y405505D2*
X449952D1*
X440405Y404521D2*
X451004D1*
X444810Y403537D2*
X451319D1*
X441785Y402552D2*
X451473D1*
X438448Y401568D2*
X449959D1*
X434930Y400584D2*
X447758D1*
X431441Y399600D2*
X444897D1*
X428212Y398615D2*
X441620D1*
X425597Y397631D2*
X438169D1*
X423575Y396647D2*
X434628D1*
X422797Y395663D2*
X431030D1*
X422456Y394678D2*
X434021D1*
X424747Y393694D2*
X437267D1*
X427510Y392710D2*
X440666D1*
X430718Y391726D2*
X444070D1*
X434236Y390741D2*
X447129D1*
X437845Y389757D2*
X449701D1*
X441369Y388773D2*
X450894D1*
X444810Y387789D2*
X451291D1*
X440835Y386804D2*
X451526D1*
X436780Y385820D2*
X450169D1*
X432691Y384836D2*
X447998D1*
X428907Y383852D2*
X445024D1*
X425925Y382867D2*
X441507D1*
X423660Y381883D2*
X437637D1*
X422753Y380899D2*
X433531D1*
X422417Y379915D2*
X429330D1*
X422172Y378930D2*
X425125D1*
X422172Y373025D2*
X451699D1*
X422172Y372041D2*
X451699D1*
X422172Y371056D2*
X451699D1*
X422172Y370072D2*
X451699D1*
X422172Y369088D2*
X425125D1*
X447762D2*
X451699D1*
X422172Y368104D2*
X425125D1*
X447762D2*
X451699D1*
X422172Y367119D2*
X425125D1*
X447762D2*
X451699D1*
X422172Y366135D2*
X425125D1*
X447762D2*
X451699D1*
X422172Y365151D2*
X425125D1*
X447762D2*
X451699D1*
X422172Y364167D2*
X425129D1*
X447762D2*
X451696D1*
X422172Y363182D2*
X425163D1*
X447759D2*
X451661D1*
X422176Y362198D2*
X425292D1*
X447720D2*
X451536D1*
X422210Y361214D2*
X425567D1*
X447556D2*
X451296D1*
X422340Y360230D2*
X425983D1*
X447157D2*
X451009D1*
X422610Y359245D2*
X426554D1*
X446505D2*
X450708D1*
X422995Y358261D2*
X427296D1*
X445681D2*
X450343D1*
X423476Y357277D2*
X428156D1*
X444769D2*
X449881D1*
X424117Y356293D2*
X449250D1*
X425040Y355308D2*
X448299D1*
X426359Y354324D2*
X446883D1*
X428085Y353340D2*
X444986D1*
X430046Y352356D2*
X442841D1*
X-452598Y-343629D2*
X-423071D1*
X-452553Y-344613D2*
X-423071D1*
X-452448Y-345597D2*
X-423071D1*
X-451951Y-346581D2*
X-423071D1*
X-450772Y-347566D2*
X-442756D1*
X-449231Y-348550D2*
X-440784D1*
X-447359Y-349534D2*
X-438780D1*
X-445250Y-350518D2*
X-436687D1*
X-443063Y-351503D2*
X-434490D1*
X-440910Y-352487D2*
X-432346D1*
X-438804Y-353471D2*
X-430534D1*
X-436855Y-354455D2*
X-429068D1*
X-435250Y-355440D2*
X-428437D1*
X-433898Y-356424D2*
X-428315D1*
X-435904Y-357408D2*
X-428814D1*
X-437998Y-358392D2*
X-430231D1*
X-440203Y-359377D2*
X-432018D1*
X-442427Y-360361D2*
X-434057D1*
X-444598Y-361345D2*
X-436256D1*
X-446741Y-362329D2*
X-438481D1*
X-448785Y-363314D2*
X-440625D1*
X-450460Y-364298D2*
X-442691D1*
X-451747Y-365282D2*
X-423071D1*
X-452191Y-366266D2*
X-423071D1*
X-452439Y-367251D2*
X-423071D1*
X-452598Y-368235D2*
X-423071D1*
X-444724Y-376109D2*
X-430945D1*
X-446916Y-377093D2*
X-429174D1*
X-448633Y-378077D2*
X-427648D1*
X-449850Y-379062D2*
X-426464D1*
X-450767Y-380046D2*
X-425594D1*
X-451510Y-381030D2*
X-446655D1*
X-429964D2*
X-424953D1*
X-452041Y-382014D2*
X-447510D1*
X-429019D2*
X-424478D1*
X-452345Y-382999D2*
X-448220D1*
X-428198D2*
X-424101D1*
X-452493Y-383983D2*
X-448788D1*
X-427614D2*
X-423743D1*
X-452558Y-384967D2*
X-449201D1*
X-427281D2*
X-423437D1*
X-452584Y-385951D2*
X-449438D1*
X-427125D2*
X-423248D1*
X-452593Y-386936D2*
X-449518D1*
X-427090D2*
X-423183D1*
X-452593Y-387920D2*
X-449491D1*
X-427192D2*
X-423264D1*
X-452559Y-388904D2*
X-449045D1*
X-427463D2*
X-423485D1*
X-452431Y-389888D2*
X-448347D1*
X-427952D2*
X-423769D1*
X-452156Y-390873D2*
X-447358D1*
X-428644D2*
X-424102D1*
X-451740Y-391857D2*
X-446047D1*
X-430333D2*
X-424592D1*
X-451165Y-392841D2*
X-444462D1*
X-432489D2*
X-425289D1*
X-450384Y-393825D2*
X-426168D1*
X-449367Y-394810D2*
X-427241D1*
X-448100Y-395794D2*
X-428536D1*
X-446693Y-396778D2*
X-429961D1*
X-452598Y-404652D2*
X-423071D1*
X-452598Y-405636D2*
X-423071D1*
X-452598Y-406621D2*
X-423071D1*
X-452598Y-407605D2*
X-423071D1*
X-452598Y-408589D2*
X-449646D1*
X-427008D2*
X-423071D1*
X-452598Y-409573D2*
X-449646D1*
X-427008D2*
X-423071D1*
X-452598Y-410558D2*
X-449646D1*
X-427008D2*
X-423071D1*
X-452598Y-411542D2*
X-449646D1*
X-427008D2*
X-423071D1*
X-452598Y-412526D2*
X-449646D1*
X-427008D2*
X-423071D1*
X-452598Y-413510D2*
X-449642D1*
X-427008D2*
X-423075D1*
X-452598Y-414495D2*
X-449607D1*
X-427012D2*
X-423109D1*
X-452595Y-415479D2*
X-449478D1*
X-427050D2*
X-423235D1*
X-452560Y-416463D2*
X-449204D1*
X-427214D2*
X-423474D1*
X-452431Y-417448D2*
X-448788D1*
X-427614D2*
X-423761D1*
X-452160Y-418432D2*
X-448216D1*
X-428266D2*
X-424062D1*
X-451775Y-419416D2*
X-447474D1*
X-429089D2*
X-424428D1*
X-451294Y-420400D2*
X-446614D1*
X-430001D2*
X-424890D1*
X-450654Y-421385D2*
X-425520D1*
X-449730Y-422369D2*
X-426471D1*
X-448411Y-423353D2*
X-427887D1*
X-446685Y-424337D2*
X-429784D1*
X-444724Y-425322D2*
X-431929D1*
X-452598Y-433196D2*
X-423071D1*
X-452598Y-434180D2*
X-423071D1*
X-452598Y-435164D2*
X-423071D1*
X-452598Y-436148D2*
X-423071D1*
X-452598Y-437133D2*
X-449646D1*
X-439803D2*
X-435866D1*
X-427008D2*
X-423071D1*
X-452598Y-438117D2*
X-449646D1*
X-439803D2*
X-435866D1*
X-427008D2*
X-423071D1*
X-452598Y-439101D2*
X-449646D1*
X-439803D2*
X-435866D1*
X-427008D2*
X-423071D1*
X-452598Y-440085D2*
X-449646D1*
X-439803D2*
X-435866D1*
X-427008D2*
X-423071D1*
X-452598Y-441070D2*
X-449646D1*
X-439803D2*
X-435866D1*
X-427008D2*
X-423071D1*
X-452598Y-442054D2*
X-449646D1*
X-439803D2*
X-435866D1*
X-427008D2*
X-423071D1*
X-452598Y-443038D2*
X-449646D1*
X-439803D2*
X-435866D1*
X-427008D2*
X-423071D1*
X-452598Y-444022D2*
X-449646D1*
X-439803D2*
X-435866D1*
X-427008D2*
X-423071D1*
X-452598Y-445007D2*
X-449646D1*
X-439803D2*
X-435866D1*
X-427008D2*
X-423071D1*
X-452598Y-445991D2*
X-449646D1*
X-439799D2*
X-435866D1*
X-427008D2*
X-423071D1*
X-452598Y-446975D2*
X-449646D1*
X-439762D2*
X-435866D1*
X-427008D2*
X-423071D1*
X-452598Y-447959D2*
X-449646D1*
X-439610D2*
X-435866D1*
X-427008D2*
X-423071D1*
X-452598Y-448944D2*
X-449646D1*
X-439273D2*
X-435866D1*
X-427008D2*
X-423071D1*
X-452598Y-449928D2*
X-449646D1*
X-438819D2*
X-435866D1*
X-427008D2*
X-423071D1*
X-452598Y-450912D2*
X-449646D1*
X-427008D2*
X-423071D1*
X-452598Y-451896D2*
X-449646D1*
X-427008D2*
X-423071D1*
X-112311Y-367844D2*
X-108374D1*
X72728D2*
X76665D1*
X-112311Y-368828D2*
X-108374D1*
X72728D2*
X76665D1*
X-112311Y-369813D2*
X-108374D1*
X72728D2*
X76665D1*
X-112311Y-370797D2*
X-108374D1*
X72728D2*
X76665D1*
X-270776Y-371781D2*
X-255028D1*
X-249122D2*
X-233374D1*
X-222547D2*
X-218610D1*
X-197941D2*
X-191051D1*
X-173335D2*
X-158571D1*
X-144791D2*
X-138886D1*
X-112311D2*
X-108374D1*
X-83768D2*
X-77862D1*
X-64083D2*
X-49319D1*
X-37508D2*
X-33571D1*
X-12902D2*
X-6012D1*
X11705D2*
X26469D1*
X40248D2*
X46154D1*
X72728D2*
X76665D1*
X101272D2*
X107177D1*
X124894D2*
X130799D1*
X146547D2*
X150484D1*
X171154D2*
X178043D1*
X195760D2*
X210524D1*
X224303D2*
X230209D1*
X-270772Y-372765D2*
X-255028D1*
X-249118D2*
X-233374D1*
X-222173D2*
X-218236D1*
X-199224D2*
X-189650D1*
X-174769D2*
X-158571D1*
X-146529D2*
X-136997D1*
X-112311D2*
X-108374D1*
X-85202D2*
X-76427D1*
X-64083D2*
X-49319D1*
X-37134D2*
X-33197D1*
X-14184D2*
X-4611D1*
X10270D2*
X26469D1*
X38510D2*
X48043D1*
X72728D2*
X76665D1*
X99837D2*
X108612D1*
X123459D2*
X132200D1*
X146921D2*
X150858D1*
X169871D2*
X179444D1*
X194325D2*
X210524D1*
X222566D2*
X232098D1*
X-270737Y-373750D2*
X-255028D1*
X-249084D2*
X-233374D1*
X-221750D2*
X-217813D1*
X-200212D2*
X-188513D1*
X-175998D2*
X-158571D1*
X-147963D2*
X-135482D1*
X-112311D2*
X-108374D1*
X-86431D2*
X-75199D1*
X-64083D2*
X-49319D1*
X-36711D2*
X-32774D1*
X-15173D2*
X-3474D1*
X9041D2*
X26469D1*
X37077D2*
X49558D1*
X72728D2*
X76665D1*
X98608D2*
X109840D1*
X122230D2*
X133337D1*
X147344D2*
X151281D1*
X168883D2*
X180581D1*
X193097D2*
X210524D1*
X221132D2*
X233613D1*
X-270612Y-374734D2*
X-255028D1*
X-248958D2*
X-233374D1*
X-221293D2*
X-217356D1*
X-200955D2*
X-187660D1*
X-176965D2*
X-158571D1*
X-149037D2*
X-134341D1*
X-112311D2*
X-108374D1*
X-87394D2*
X-74236D1*
X-64083D2*
X-49319D1*
X-36254D2*
X-32317D1*
X-15916D2*
X-2621D1*
X8074D2*
X26469D1*
X36003D2*
X50699D1*
X72728D2*
X76665D1*
X97645D2*
X110804D1*
X121267D2*
X134190D1*
X147801D2*
X151738D1*
X168139D2*
X181434D1*
X192129D2*
X210524D1*
X220058D2*
X234754D1*
X-270372Y-375718D2*
X-266686D1*
X-257980D2*
X-255028D1*
X-248719D2*
X-245033D1*
X-236327D2*
X-233374D1*
X-220815D2*
X-216882D1*
X-201556D2*
X-195738D1*
X-192381D2*
X-187029D1*
X-177648D2*
X-172001D1*
X-162508D2*
X-158571D1*
X-149890D2*
X-143610D1*
X-140067D2*
X-133504D1*
X-112311D2*
X-108374D1*
X-88151D2*
X-82549D1*
X-79081D2*
X-73479D1*
X-53256D2*
X-49319D1*
X-35776D2*
X-31843D1*
X-16517D2*
X-10698D1*
X-7342D2*
X-1989D1*
X7392D2*
X13038D1*
X22531D2*
X26469D1*
X35149D2*
X41430D1*
X44972D2*
X51536D1*
X72728D2*
X76665D1*
X96889D2*
X102491D1*
X105958D2*
X111560D1*
X120511D2*
X126227D1*
X129815D2*
X134822D1*
X148279D2*
X152213D1*
X167538D2*
X173357D1*
X176713D2*
X182066D1*
X191447D2*
X197093D1*
X206587D2*
X210524D1*
X219204D2*
X225485D1*
X229027D2*
X235591D1*
X-270085Y-376702D2*
X-266439D1*
X-257980D2*
X-255028D1*
X-248432D2*
X-244785D1*
X-236327D2*
X-233374D1*
X-220330D2*
X-216427D1*
X-202055D2*
X-197133D1*
X-191070D2*
X-186587D1*
X-178131D2*
X-173278D1*
X-162508D2*
X-158571D1*
X-150608D2*
X-145132D1*
X-138542D2*
X-132884D1*
X-112311D2*
X-108374D1*
X-88427D2*
X-83944D1*
X-77686D2*
X-73165D1*
X-53256D2*
X-49319D1*
X-35290D2*
X-31388D1*
X-17015D2*
X-12094D1*
X-6031D2*
X-1548D1*
X6908D2*
X11761D1*
X22531D2*
X26469D1*
X34431D2*
X39907D1*
X46497D2*
X52155D1*
X72728D2*
X76665D1*
X96612D2*
X101095D1*
X107353D2*
X111874D1*
X120234D2*
X124950D1*
X130799D2*
X135263D1*
X148765D2*
X152667D1*
X167040D2*
X171962D1*
X178024D2*
X182507D1*
X190963D2*
X195816D1*
X206587D2*
X210524D1*
X218486D2*
X223962D1*
X230552D2*
X236210D1*
X-269788Y-377687D2*
X-266149D1*
X-257980D2*
X-255028D1*
X-248135D2*
X-244496D1*
X-236327D2*
X-233374D1*
X-219839D2*
X-216031D1*
X-202401D2*
X-198206D1*
X-190029D2*
X-186319D1*
X-178537D2*
X-174174D1*
X-162508D2*
X-158571D1*
X-151132D2*
X-146295D1*
X-137357D2*
X-132448D1*
X-112311D2*
X-108374D1*
X-88578D2*
X-85017D1*
X-76613D2*
X-72889D1*
X-53256D2*
X-49319D1*
X-34800D2*
X-30992D1*
X-17362D2*
X-13167D1*
X-4990D2*
X-1279D1*
X6502D2*
X10866D1*
X22531D2*
X26469D1*
X33907D2*
X38744D1*
X47682D2*
X52591D1*
X72728D2*
X76665D1*
X96462D2*
X100022D1*
X108426D2*
X112151D1*
X120084D2*
X124059D1*
X131783D2*
X135532D1*
X149256D2*
X153063D1*
X166694D2*
X170888D1*
X179065D2*
X182776D1*
X190557D2*
X194921D1*
X206587D2*
X210524D1*
X217962D2*
X222799D1*
X231737D2*
X236646D1*
X-269461Y-378671D2*
X-265851D1*
X-257980D2*
X-255028D1*
X-247808D2*
X-244198D1*
X-236327D2*
X-233374D1*
X-219348D2*
X-215682D1*
X-202592D2*
X-198628D1*
X-189083D2*
X-186130D1*
X-178859D2*
X-174844D1*
X-162508D2*
X-158571D1*
X-151454D2*
X-147110D1*
X-136488D2*
X-132165D1*
X-112311D2*
X-108374D1*
X-88645D2*
X-85390D1*
X-76240D2*
X-72585D1*
X-53260D2*
X-49319D1*
X-34309D2*
X-30642D1*
X-17552D2*
X-13588D1*
X-4043D2*
X-1091D1*
X6181D2*
X10195D1*
X22531D2*
X26469D1*
X33585D2*
X37929D1*
X48552D2*
X52874D1*
X72728D2*
X76665D1*
X96394D2*
X99649D1*
X108799D2*
X112454D1*
X120020D2*
X123399D1*
X132768D2*
X135720D1*
X149746D2*
X153413D1*
X166503D2*
X170467D1*
X180012D2*
X182965D1*
X190236D2*
X194250D1*
X206587D2*
X210524D1*
X217640D2*
X221984D1*
X232607D2*
X236929D1*
X-269163Y-379655D2*
X-265520D1*
X-257980D2*
X-255028D1*
X-247510D2*
X-243867D1*
X-236327D2*
X-233374D1*
X-218856D2*
X-215300D1*
X-202399D2*
X-198633D1*
X-179025D2*
X-175043D1*
X-162508D2*
X-158571D1*
X-151681D2*
X-147744D1*
X-135850D2*
X-131919D1*
X-112311D2*
X-108374D1*
X-88673D2*
X-85590D1*
X-76040D2*
X-72305D1*
X-53297D2*
X-49319D1*
X-33816D2*
X-30261D1*
X-17359D2*
X-13594D1*
X6015D2*
X9997D1*
X22531D2*
X26469D1*
X33358D2*
X37295D1*
X49189D2*
X53121D1*
X72728D2*
X76665D1*
X96366D2*
X99450D1*
X108999D2*
X112734D1*
X120027D2*
X123227D1*
X150239D2*
X153794D1*
X166696D2*
X170462D1*
X190070D2*
X194052D1*
X206587D2*
X210524D1*
X217413D2*
X221350D1*
X233244D2*
X237176D1*
X-268940Y-380639D2*
X-265192D1*
X-247286D2*
X-243538D1*
X-218365D2*
X-214870D1*
X-202145D2*
X-198436D1*
X-179001D2*
X-175117D1*
X-162508D2*
X-158571D1*
X-135410D2*
X-131630D1*
X-112311D2*
X-108374D1*
X-88683D2*
X-85679D1*
X-75951D2*
X-72123D1*
X-53449D2*
X-49319D1*
X-33325D2*
X-29830D1*
X-17106D2*
X-13396D1*
X6038D2*
X9922D1*
X22531D2*
X26469D1*
X49629D2*
X53409D1*
X72728D2*
X76665D1*
X96356D2*
X99360D1*
X109089D2*
X112916D1*
X120146D2*
X123485D1*
X150730D2*
X154225D1*
X166949D2*
X170659D1*
X190093D2*
X193978D1*
X206587D2*
X210524D1*
X233685D2*
X237464D1*
X-268716Y-381624D2*
X-264877D1*
X-247063D2*
X-243224D1*
X-217872D2*
X-214408D1*
X-201860D2*
X-198086D1*
X-178807D2*
X-174871D1*
X-162508D2*
X-158571D1*
X-135159D2*
X-131356D1*
X-112311D2*
X-108374D1*
X-88687D2*
X-85715D1*
X-75915D2*
X-72028D1*
X-60146D2*
X-55224D1*
X-53786D2*
X-49319D1*
X-32832D2*
X-29368D1*
X-16821D2*
X-13047D1*
X6232D2*
X10169D1*
X22531D2*
X26469D1*
X49881D2*
X53683D1*
X72728D2*
X76665D1*
X96352D2*
X99324D1*
X109125D2*
X113011D1*
X120420D2*
X123910D1*
X151223D2*
X154687D1*
X167234D2*
X171009D1*
X190287D2*
X194224D1*
X206587D2*
X210524D1*
X233936D2*
X237738D1*
X-268433Y-382608D2*
X-264544D1*
X-246779D2*
X-242890D1*
X-217380D2*
X-213927D1*
X-201502D2*
X-197653D1*
X-178535D2*
X-174211D1*
X-162508D2*
X-158571D1*
X-135036D2*
X-131177D1*
X-112311D2*
X-108374D1*
X-88688D2*
X-85729D1*
X-75901D2*
X-71985D1*
X-61547D2*
X-49319D1*
X-32341D2*
X-28888D1*
X-16462D2*
X-12613D1*
X6504D2*
X10829D1*
X22531D2*
X26469D1*
X50003D2*
X53863D1*
X72728D2*
X76665D1*
X96351D2*
X99310D1*
X109138D2*
X113054D1*
X120872D2*
X125017D1*
X151714D2*
X155167D1*
X167593D2*
X171442D1*
X190560D2*
X194884D1*
X206587D2*
X210524D1*
X234058D2*
X237918D1*
X-268127Y-383592D2*
X-264243D1*
X-246474D2*
X-242590D1*
X-225500D2*
X-222547D1*
X-216891D2*
X-213441D1*
X-201050D2*
X-197150D1*
X-178206D2*
X-171618D1*
X-162508D2*
X-158571D1*
X-134983D2*
X-131083D1*
X-112311D2*
X-108374D1*
X-88689D2*
X-85734D1*
X-75896D2*
X-71967D1*
X-62684D2*
X-49319D1*
X-40461D2*
X-37508D1*
X-31852D2*
X-28401D1*
X-16011D2*
X-12110D1*
X6833D2*
X13421D1*
X22531D2*
X26469D1*
X50057D2*
X53957D1*
X72728D2*
X76665D1*
X96351D2*
X99306D1*
X109143D2*
X113072D1*
X121593D2*
X126338D1*
X143594D2*
X146547D1*
X152203D2*
X155654D1*
X168045D2*
X171945D1*
X190888D2*
X197476D1*
X206587D2*
X210524D1*
X234112D2*
X238012D1*
X-267823Y-384576D2*
X-264019D1*
X-246170D2*
X-242365D1*
X-225500D2*
X-222547D1*
X-216431D2*
X-212949D1*
X-200497D2*
X-196542D1*
X-177714D2*
X-167171D1*
X-162508D2*
X-158571D1*
X-134961D2*
X-131040D1*
X-112311D2*
X-108374D1*
X-88689D2*
X-85735D1*
X-75895D2*
X-71960D1*
X-63537D2*
X-49319D1*
X-40461D2*
X-37508D1*
X-31391D2*
X-27910D1*
X-15457D2*
X-11503D1*
X7325D2*
X17868D1*
X22531D2*
X26469D1*
X50078D2*
X53999D1*
X72728D2*
X76665D1*
X96350D2*
X99304D1*
X109145D2*
X113079D1*
X122655D2*
X127632D1*
X143594D2*
X146547D1*
X152664D2*
X156145D1*
X168598D2*
X172552D1*
X191380D2*
X201924D1*
X206587D2*
X210524D1*
X234133D2*
X238055D1*
X-267490Y-385561D2*
X-263795D1*
X-245837D2*
X-242142D1*
X-225500D2*
X-222547D1*
X-216032D2*
X-212459D1*
X-199873D2*
X-195817D1*
X-176991D2*
X-158571D1*
X-134953D2*
X-131022D1*
X-112311D2*
X-108374D1*
X-88689D2*
X-85736D1*
X-75894D2*
X-71958D1*
X-64168D2*
X-59124D1*
X-55405D2*
X-49319D1*
X-40461D2*
X-37508D1*
X-30993D2*
X-27419D1*
X-14833D2*
X-10777D1*
X8049D2*
X26469D1*
X50086D2*
X54017D1*
X72728D2*
X76665D1*
X96350D2*
X99303D1*
X109145D2*
X113081D1*
X123909D2*
X128273D1*
X143594D2*
X146547D1*
X153062D2*
X156636D1*
X169222D2*
X173278D1*
X192104D2*
X210524D1*
X234141D2*
X238072D1*
X-267160Y-386545D2*
X-263511D1*
X-245507D2*
X-241858D1*
X-225500D2*
X-222547D1*
X-215682D2*
X-211966D1*
X-199241D2*
X-195070D1*
X-176067D2*
X-158571D1*
X-134950D2*
X-131016D1*
X-112311D2*
X-108374D1*
X-88689D2*
X-85736D1*
X-75894D2*
X-71957D1*
X-64607D2*
X-59978D1*
X-53782D2*
X-49319D1*
X-40461D2*
X-37508D1*
X-30643D2*
X-26927D1*
X-14201D2*
X-10031D1*
X8972D2*
X26469D1*
X50089D2*
X54024D1*
X72728D2*
X76665D1*
X96350D2*
X99303D1*
X109146D2*
X113082D1*
X122745D2*
X128477D1*
X143594D2*
X146547D1*
X153412D2*
X157128D1*
X169854D2*
X174024D1*
X193028D2*
X210524D1*
X234144D2*
X238079D1*
X-266846Y-387529D2*
X-263206D1*
X-245192D2*
X-241553D1*
X-225500D2*
X-222547D1*
X-215301D2*
X-211475D1*
X-198564D2*
X-194372D1*
X-175108D2*
X-158571D1*
X-134949D2*
X-131013D1*
X-112311D2*
X-108374D1*
X-88689D2*
X-85736D1*
X-75894D2*
X-71957D1*
X-64857D2*
X-60688D1*
X-52272D2*
X-49319D1*
X-40461D2*
X-37508D1*
X-30261D2*
X-26435D1*
X-13525D2*
X-9332D1*
X9931D2*
X26469D1*
X50090D2*
X54026D1*
X72728D2*
X76665D1*
X96350D2*
X99303D1*
X109146D2*
X113083D1*
X121746D2*
X127124D1*
X143594D2*
X146547D1*
X153794D2*
X157620D1*
X170531D2*
X174723D1*
X193986D2*
X210524D1*
X234145D2*
X238081D1*
X-266512Y-388513D2*
X-262902D1*
X-244859D2*
X-241249D1*
X-225500D2*
X-222547D1*
X-214870D2*
X-210982D1*
X-197807D2*
X-193660D1*
X-174266D2*
X-158571D1*
X-134949D2*
X-131016D1*
X-112311D2*
X-108374D1*
X-88689D2*
X-85736D1*
X-75894D2*
X-71957D1*
X-64980D2*
X-61256D1*
X-40461D2*
X-37508D1*
X-29830D2*
X-25943D1*
X-12767D2*
X-8620D1*
X10773D2*
X26469D1*
X50090D2*
X54023D1*
X72728D2*
X76665D1*
X96350D2*
X99303D1*
X109146D2*
X113083D1*
X120959D2*
X125682D1*
X143594D2*
X146547D1*
X154225D2*
X158113D1*
X171288D2*
X175435D1*
X194828D2*
X210524D1*
X234146D2*
X238078D1*
X-266212Y-389498D2*
X-262569D1*
X-244558D2*
X-240915D1*
X-225508D2*
X-222547D1*
X-214404D2*
X-210491D1*
X-197047D2*
X-192859D1*
X-174063D2*
X-169242D1*
X-162508D2*
X-158571D1*
X-134953D2*
X-131050D1*
X-112311D2*
X-108374D1*
X-88689D2*
X-85736D1*
X-75894D2*
X-71957D1*
X-65033D2*
X-61669D1*
X-40461D2*
X-37508D1*
X-29365D2*
X-25451D1*
X-12008D2*
X-7819D1*
X10977D2*
X15798D1*
X22531D2*
X26469D1*
X50087D2*
X53989D1*
X72728D2*
X76665D1*
X96350D2*
X99303D1*
X109146D2*
X113083D1*
X120325D2*
X124489D1*
X143587D2*
X146547D1*
X154690D2*
X158604D1*
X172048D2*
X176236D1*
X195032D2*
X199853D1*
X206587D2*
X210524D1*
X234142D2*
X238044D1*
X-265987Y-390482D2*
X-262239D1*
X-244334D2*
X-240586D1*
X-225577D2*
X-222547D1*
X-213898D2*
X-210001D1*
X-196343D2*
X-192003D1*
X-174334D2*
X-169947D1*
X-162508D2*
X-158571D1*
X-134987D2*
X-131176D1*
X-112311D2*
X-108374D1*
X-88689D2*
X-85736D1*
X-75894D2*
X-71961D1*
X-65055D2*
X-61906D1*
X-40461D2*
X-37508D1*
X-28859D2*
X-24962D1*
X-11304D2*
X-6964D1*
X10706D2*
X15092D1*
X22531D2*
X26469D1*
X50052D2*
X53864D1*
X72728D2*
X76665D1*
X96350D2*
X99303D1*
X109146D2*
X113079D1*
X119805D2*
X123560D1*
X143518D2*
X146547D1*
X155196D2*
X159093D1*
X172751D2*
X177091D1*
X194761D2*
X199147D1*
X206587D2*
X210524D1*
X234107D2*
X237919D1*
X-265764Y-391466D2*
X-261925D1*
X-244110D2*
X-240271D1*
X-225738D2*
X-222547D1*
X-213329D2*
X-209545D1*
X-195633D2*
X-191187D1*
X-174787D2*
X-170547D1*
X-162508D2*
X-158571D1*
X-135117D2*
X-131411D1*
X-112311D2*
X-108374D1*
X-88689D2*
X-85736D1*
X-75894D2*
X-71995D1*
X-65063D2*
X-61990D1*
X-40461D2*
X-37508D1*
X-28290D2*
X-24505D1*
X-10594D2*
X-6148D1*
X10252D2*
X14492D1*
X22531D2*
X26469D1*
X49923D2*
X53628D1*
X72728D2*
X76665D1*
X96350D2*
X99303D1*
X109146D2*
X113044D1*
X119416D2*
X123232D1*
X143356D2*
X146547D1*
X155765D2*
X159550D1*
X173461D2*
X177908D1*
X194307D2*
X198547D1*
X206587D2*
X210524D1*
X233978D2*
X237683D1*
X-265480Y-392450D2*
X-261591D1*
X-243826D2*
X-239937D1*
X-226277D2*
X-222547D1*
X-212705D2*
X-209181D1*
X-194862D2*
X-190456D1*
X-175363D2*
X-171089D1*
X-162508D2*
X-158571D1*
X-135391D2*
X-131668D1*
X-112311D2*
X-108374D1*
X-88689D2*
X-85732D1*
X-75898D2*
X-72121D1*
X-65065D2*
X-61913D1*
X-40461D2*
X-37508D1*
X-27665D2*
X-24142D1*
X-9823D2*
X-5417D1*
X9676D2*
X13950D1*
X22531D2*
X26469D1*
X49649D2*
X53372D1*
X72728D2*
X76665D1*
X96350D2*
X99307D1*
X109142D2*
X112919D1*
X119190D2*
X123059D1*
X142818D2*
X146547D1*
X156390D2*
X159913D1*
X174232D2*
X178638D1*
X193731D2*
X198005D1*
X206587D2*
X210524D1*
X233704D2*
X237427D1*
X-265175Y-393435D2*
X-261290D1*
X-243521D2*
X-239637D1*
X-226791D2*
X-208960D1*
X-194097D2*
X-189735D1*
X-175943D2*
X-171600D1*
X-162508D2*
X-158571D1*
X-151681D2*
X-147744D1*
X-135811D2*
X-131874D1*
X-112311D2*
X-108374D1*
X-88689D2*
X-85690D1*
X-75940D2*
X-72356D1*
X-65063D2*
X-61660D1*
X-42429D2*
X-23921D1*
X-9058D2*
X-4695D1*
X9096D2*
X13439D1*
X22531D2*
X26469D1*
X33358D2*
X37295D1*
X49229D2*
X53165D1*
X72728D2*
X76665D1*
X96350D2*
X99349D1*
X109100D2*
X112683D1*
X119110D2*
X123022D1*
X142304D2*
X160134D1*
X174997D2*
X179360D1*
X193151D2*
X197494D1*
X206587D2*
X210524D1*
X217413D2*
X221350D1*
X233284D2*
X237221D1*
X-264871Y-394419D2*
X-261066D1*
X-243217D2*
X-239412D1*
X-227177D2*
X-208849D1*
X-193391D2*
X-188959D1*
X-176488D2*
X-172101D1*
X-162508D2*
X-158571D1*
X-151492D2*
X-147161D1*
X-136432D2*
X-132094D1*
X-112311D2*
X-108374D1*
X-88685D2*
X-85586D1*
X-76044D2*
X-72613D1*
X-65028D2*
X-61240D1*
X-52272D2*
X-49319D1*
X-42429D2*
X-23809D1*
X-8352D2*
X-3920D1*
X8551D2*
X12939D1*
X22531D2*
X26469D1*
X33548D2*
X37878D1*
X48607D2*
X52945D1*
X72728D2*
X76665D1*
X96354D2*
X99453D1*
X108996D2*
X112427D1*
X119188D2*
X123085D1*
X132768D2*
X136705D1*
X141917D2*
X160246D1*
X175703D2*
X180135D1*
X192606D2*
X196994D1*
X206587D2*
X210524D1*
X217603D2*
X221933D1*
X232662D2*
X237000D1*
X-264537Y-395403D2*
X-260842D1*
X-242884D2*
X-239189D1*
X-227131D2*
X-208797D1*
X-192677D2*
X-188196D1*
X-177007D2*
X-172595D1*
X-162508D2*
X-158571D1*
X-151117D2*
X-146386D1*
X-137255D2*
X-132410D1*
X-112311D2*
X-108374D1*
X-88647D2*
X-85042D1*
X-76588D2*
X-72823D1*
X-64899D2*
X-60700D1*
X-52919D2*
X-49475D1*
X-42429D2*
X-23758D1*
X-7638D2*
X-3157D1*
X8032D2*
X12445D1*
X22531D2*
X26469D1*
X33922D2*
X38654D1*
X47785D2*
X52629D1*
X72728D2*
X76665D1*
X96393D2*
X99997D1*
X108452D2*
X112217D1*
X119438D2*
X123622D1*
X132120D2*
X136327D1*
X141964D2*
X160297D1*
X176418D2*
X180898D1*
X192087D2*
X196500D1*
X206587D2*
X210524D1*
X217977D2*
X222709D1*
X231840D2*
X236684D1*
X-264208Y-396387D2*
X-260559D1*
X-242554D2*
X-238905D1*
X-226646D2*
X-208768D1*
X-191872D2*
X-187528D1*
X-177510D2*
X-173089D1*
X-162508D2*
X-158571D1*
X-150584D2*
X-144540D1*
X-139120D2*
X-132844D1*
X-112311D2*
X-108374D1*
X-88483D2*
X-83358D1*
X-78272D2*
X-73078D1*
X-64625D2*
X-59397D1*
X-54631D2*
X-49757D1*
X-42429D2*
X-23728D1*
X-6832D2*
X-2489D1*
X7529D2*
X11951D1*
X22531D2*
X26469D1*
X34455D2*
X40499D1*
X45920D2*
X52196D1*
X72728D2*
X76665D1*
X96557D2*
X101682D1*
X106767D2*
X111962D1*
X119816D2*
X125305D1*
X130408D2*
X135869D1*
X142448D2*
X160327D1*
X177223D2*
X181566D1*
X191584D2*
X196006D1*
X206587D2*
X210524D1*
X218510D2*
X224554D1*
X229975D2*
X236251D1*
X-263893Y-397372D2*
X-260253D1*
X-242240D2*
X-238600D1*
X-226152D2*
X-222547D1*
X-190987D2*
X-186978D1*
X-178008D2*
X-173580D1*
X-162508D2*
X-158571D1*
X-149957D2*
X-141945D1*
X-141726D2*
X-133429D1*
X-112311D2*
X-108374D1*
X-88079D2*
X-80857D1*
X-80773D2*
X-73523D1*
X-64205D2*
X-57502D1*
X-57144D2*
X-50180D1*
X-40461D2*
X-37508D1*
X-5947D2*
X-1938D1*
X7032D2*
X11459D1*
X22531D2*
X26469D1*
X35082D2*
X43095D1*
X43314D2*
X51610D1*
X72728D2*
X76665D1*
X96960D2*
X104182D1*
X104267D2*
X111516D1*
X120297D2*
X127805D1*
X127896D2*
X135279D1*
X142943D2*
X146547D1*
X178108D2*
X182117D1*
X191087D2*
X195514D1*
X206587D2*
X210524D1*
X219137D2*
X227150D1*
X227369D2*
X235665D1*
X-263559Y-398356D2*
X-259949D1*
X-241906D2*
X-238295D1*
X-225816D2*
X-222547D1*
X-202862D2*
X-186571D1*
X-178504D2*
X-174070D1*
X-162508D2*
X-158571D1*
X-149131D2*
X-134250D1*
X-112311D2*
X-108374D1*
X-87390D2*
X-74230D1*
X-63596D2*
X-50789D1*
X-40461D2*
X-37508D1*
X-17823D2*
X-1532D1*
X6536D2*
X10969D1*
X22531D2*
X26469D1*
X35908D2*
X50789D1*
X72728D2*
X76665D1*
X97649D2*
X110810D1*
X120967D2*
X134493D1*
X143279D2*
X146547D1*
X166232D2*
X182523D1*
X190591D2*
X195024D1*
X206587D2*
X210524D1*
X219964D2*
X234844D1*
X-263260Y-399340D2*
X-259611D1*
X-241606D2*
X-237957D1*
X-225636D2*
X-222547D1*
X-202862D2*
X-186332D1*
X-179023D2*
X-174536D1*
X-162508D2*
X-158571D1*
X-147951D2*
X-135420D1*
X-112311D2*
X-108374D1*
X-86414D2*
X-75212D1*
X-62702D2*
X-51684D1*
X-40461D2*
X-37508D1*
X-17823D2*
X-1293D1*
X6017D2*
X10503D1*
X22531D2*
X26469D1*
X37089D2*
X49619D1*
X72728D2*
X76665D1*
X98625D2*
X109828D1*
X121974D2*
X133474D1*
X143458D2*
X146547D1*
X166232D2*
X182763D1*
X190072D2*
X194559D1*
X206587D2*
X210524D1*
X221144D2*
X233674D1*
X-263055Y-400324D2*
X-259273D1*
X-241401D2*
X-237620D1*
X-225551D2*
X-222547D1*
X-202862D2*
X-186208D1*
X-179597D2*
X-174946D1*
X-162508D2*
X-158571D1*
X-146444D2*
X-137024D1*
X-112311D2*
X-108374D1*
X-85166D2*
X-76463D1*
X-61506D2*
X-52880D1*
X-40461D2*
X-37508D1*
X-17823D2*
X-1169D1*
X5442D2*
X10093D1*
X22531D2*
X26469D1*
X38596D2*
X48016D1*
X72728D2*
X76665D1*
X99874D2*
X108576D1*
X123347D2*
X132207D1*
X143544D2*
X146547D1*
X166232D2*
X182886D1*
X189497D2*
X194149D1*
X206587D2*
X210524D1*
X222651D2*
X232071D1*
X-262902Y-401309D2*
X-258965D1*
X-241248D2*
X-237311D1*
X-225500D2*
X-222547D1*
X-202862D2*
X-186130D1*
X-180224D2*
X-175303D1*
X-162508D2*
X-158571D1*
X-144791D2*
X-138886D1*
X-112311D2*
X-108374D1*
X-83768D2*
X-77862D1*
X-60146D2*
X-54240D1*
X-40461D2*
X-37508D1*
X-17823D2*
X-1091D1*
X4815D2*
X9736D1*
X22531D2*
X26469D1*
X40248D2*
X46154D1*
X72728D2*
X76665D1*
X101272D2*
X107177D1*
X124894D2*
X130799D1*
X143594D2*
X146547D1*
X166232D2*
X182965D1*
X188870D2*
X193791D1*
X206587D2*
X210524D1*
X224303D2*
X230209D1*
X-112311Y-402293D2*
X-108374D1*
X72728D2*
X76665D1*
X-112311Y-403277D2*
X-108374D1*
X72728D2*
X76665D1*
X-112311Y-404261D2*
X-108374D1*
X72728D2*
X76665D1*
X-112311Y-405246D2*
X-108374D1*
X72728D2*
X76665D1*
X-452236Y431552D2*
X-422708D1*
X-452236Y430568D2*
X-422708D1*
X-452236Y429584D2*
X-422708D1*
X-452236Y428600D2*
X-422708D1*
X-452236Y427615D2*
X-449283D1*
X-439440D2*
X-435503D1*
X-452236Y426631D2*
X-449283D1*
X-439440D2*
X-435503D1*
X-452236Y425647D2*
X-449283D1*
X-439440D2*
X-435503D1*
X-452236Y424663D2*
X-449283D1*
X-439440D2*
X-435499D1*
X-452236Y423678D2*
X-449283D1*
X-439440D2*
X-435457D1*
X-452236Y422694D2*
X-449283D1*
X-439440D2*
X-435353D1*
X-452236Y421710D2*
X-449283D1*
X-439440D2*
X-434855D1*
X-452236Y420726D2*
X-449279D1*
X-439444D2*
X-433681D1*
X-452236Y419741D2*
X-449237D1*
X-439486D2*
X-432174D1*
X-452232Y418757D2*
X-449133D1*
X-439590D2*
X-430428D1*
X-452193Y417773D2*
X-448589D1*
X-440134D2*
X-428562D1*
X-452029Y416789D2*
X-446904D1*
X-441819D2*
X-426708D1*
X-451630Y415804D2*
X-444404D1*
X-444319D2*
X-436339D1*
X-433535D2*
X-425081D1*
X-450978Y414820D2*
X-437117D1*
X-431570D2*
X-423733D1*
X-450154Y413836D2*
X-437996D1*
X-429639D2*
X-423208D1*
X-449242Y412852D2*
X-439129D1*
X-427823D2*
X-422921D1*
X-448299Y411867D2*
X-440425D1*
X-426191D2*
X-422787D1*
X-424677Y410883D2*
X-422708D1*
X-452236Y403009D2*
X-422708D1*
X-452236Y402025D2*
X-422708D1*
X-452236Y401041D2*
X-422708D1*
X-452236Y400056D2*
X-422708D1*
X-452236Y399072D2*
X-449283D1*
X-439440D2*
X-435503D1*
X-426645D2*
X-422708D1*
X-452236Y398088D2*
X-449283D1*
X-439440D2*
X-435503D1*
X-426645D2*
X-422708D1*
X-452236Y397104D2*
X-449283D1*
X-439440D2*
X-435503D1*
X-426645D2*
X-422708D1*
X-452236Y396119D2*
X-449283D1*
X-439440D2*
X-435503D1*
X-426645D2*
X-422708D1*
X-452236Y395135D2*
X-449283D1*
X-439440D2*
X-435503D1*
X-426645D2*
X-422708D1*
X-452236Y394151D2*
X-449283D1*
X-439440D2*
X-435503D1*
X-426645D2*
X-422708D1*
X-452236Y393167D2*
X-449283D1*
X-439440D2*
X-435503D1*
X-426645D2*
X-422708D1*
X-452236Y392182D2*
X-449283D1*
X-439440D2*
X-435503D1*
X-426645D2*
X-422708D1*
X-452236Y391198D2*
X-449283D1*
X-439440D2*
X-435503D1*
X-426645D2*
X-422708D1*
X-452236Y390214D2*
X-449283D1*
X-439436D2*
X-435503D1*
X-426645D2*
X-422708D1*
X-452236Y389230D2*
X-449283D1*
X-439399D2*
X-435503D1*
X-426645D2*
X-422708D1*
X-452236Y388245D2*
X-449283D1*
X-439247D2*
X-435503D1*
X-426645D2*
X-422708D1*
X-452236Y387261D2*
X-449283D1*
X-438910D2*
X-435503D1*
X-426645D2*
X-422708D1*
X-452236Y386277D2*
X-449283D1*
X-438456D2*
X-435503D1*
X-426645D2*
X-422708D1*
X-452236Y385293D2*
X-449283D1*
X-426645D2*
X-422708D1*
X-452236Y384308D2*
X-449283D1*
X-426645D2*
X-422708D1*
X-445346Y378403D2*
X-443377D1*
X-427629D2*
X-425661D1*
X-447235Y377419D2*
X-441488D1*
X-428027D2*
X-425054D1*
X-448750Y376434D2*
X-439977D1*
X-427957D2*
X-424528D1*
X-449891Y375450D2*
X-438867D1*
X-427701D2*
X-424126D1*
X-450728Y374466D2*
X-438121D1*
X-427351D2*
X-423855D1*
X-451347Y373482D2*
X-447158D1*
X-441598D2*
X-437612D1*
X-427032D2*
X-423613D1*
X-451780Y372497D2*
X-447860D1*
X-440988D2*
X-437196D1*
X-426828D2*
X-423326D1*
X-452028Y371513D2*
X-448426D1*
X-440533D2*
X-436867D1*
X-426723D2*
X-423052D1*
X-452149Y370529D2*
X-448838D1*
X-440138D2*
X-436661D1*
X-426676D2*
X-422873D1*
X-452202Y369545D2*
X-449079D1*
X-439816D2*
X-436524D1*
X-426656D2*
X-422779D1*
X-452223Y368560D2*
X-449198D1*
X-439613D2*
X-436353D1*
X-426649D2*
X-422740D1*
X-452231Y367576D2*
X-449246D1*
X-439477D2*
X-436095D1*
X-426650D2*
X-422757D1*
X-452234Y366592D2*
X-449232D1*
X-439306D2*
X-435801D1*
X-426688D2*
X-422876D1*
X-452231Y365608D2*
X-449111D1*
X-439048D2*
X-435482D1*
X-426780D2*
X-423113D1*
X-452197Y364623D2*
X-448839D1*
X-438754D2*
X-435097D1*
X-427235D2*
X-423399D1*
X-452068Y363639D2*
X-448424D1*
X-438450D2*
X-434189D1*
X-428813D2*
X-423700D1*
X-451794Y362655D2*
X-447856D1*
X-438084D2*
X-432092D1*
X-431353D2*
X-424065D1*
X-451387Y361671D2*
X-447130D1*
X-437622D2*
X-424531D1*
X-450864Y360686D2*
X-446330D1*
X-436996D2*
X-425194D1*
X-450267Y359702D2*
X-448299D1*
X-436094D2*
X-426247D1*
X-434896Y358718D2*
X-427782D1*
X-433535Y357734D2*
X-429598D1*
X-452236Y350844D2*
X-422708D1*
X-452236Y349860D2*
X-422708D1*
X-452236Y348875D2*
X-422708D1*
X-452236Y347891D2*
X-422708D1*
X-452236Y346907D2*
X-449283D1*
X-439440D2*
X-435503D1*
X-426645D2*
X-422708D1*
X-452236Y345923D2*
X-449283D1*
X-439440D2*
X-435503D1*
X-426645D2*
X-422708D1*
X-452236Y344938D2*
X-449283D1*
X-439440D2*
X-435503D1*
X-426645D2*
X-422708D1*
X-452236Y343954D2*
X-449283D1*
X-439440D2*
X-435503D1*
X-426645D2*
X-422708D1*
X-452236Y342970D2*
X-449283D1*
X-439440D2*
X-435503D1*
X-426645D2*
X-422708D1*
X-452236Y341986D2*
X-449283D1*
X-439440D2*
X-435503D1*
X-426645D2*
X-422708D1*
X-452236Y341001D2*
X-449283D1*
X-439440D2*
X-435503D1*
X-426645D2*
X-422708D1*
X-452236Y340017D2*
X-449283D1*
X-439440D2*
X-435503D1*
X-426645D2*
X-422708D1*
X-452236Y339033D2*
X-449283D1*
X-439440D2*
X-435503D1*
X-426645D2*
X-422708D1*
X-452236Y338049D2*
X-449283D1*
X-439436D2*
X-435503D1*
X-426645D2*
X-422708D1*
X-452236Y337064D2*
X-449283D1*
X-439399D2*
X-435503D1*
X-426645D2*
X-422708D1*
X-452236Y336080D2*
X-449283D1*
X-439247D2*
X-435503D1*
X-426645D2*
X-422708D1*
X-452236Y335096D2*
X-449283D1*
X-438910D2*
X-435503D1*
X-426645D2*
X-422708D1*
X-452236Y334112D2*
X-449283D1*
X-438456D2*
X-435503D1*
X-426645D2*
X-422708D1*
X-452236Y333127D2*
X-449283D1*
X-426645D2*
X-422708D1*
X-452236Y332143D2*
X-449283D1*
X-426645D2*
X-422708D1*
X-452236Y329190D2*
X-449283D1*
X-452236Y328206D2*
X-449283D1*
X-452236Y327222D2*
X-449283D1*
X-452236Y326238D2*
X-449283D1*
X-452236Y325253D2*
X-449283D1*
X-452236Y324269D2*
X-449283D1*
X-452236Y323285D2*
X-449283D1*
X-452236Y322301D2*
X-449283D1*
X-452236Y321316D2*
X-422708D1*
X-452236Y320332D2*
X-422708D1*
X-452236Y319348D2*
X-422708D1*
X-452236Y318364D2*
X-422708D1*
X-452236Y317379D2*
X-422708D1*
X-452236Y316395D2*
X-449283D1*
X-452236Y315411D2*
X-449283D1*
X-452236Y314427D2*
X-449283D1*
X-452236Y313442D2*
X-449283D1*
X-452236Y312458D2*
X-449283D1*
X-452236Y311474D2*
X-449283D1*
X-452236Y310490D2*
X-449283D1*
X-452236Y309505D2*
X-449283D1*
X-267598Y395762D2*
X-261693D1*
X-244961D2*
X-243976D1*
X-223307D2*
X-217402D1*
X-198701D2*
X-191811D1*
X-161299D2*
X-155394D1*
X-139646D2*
X-133740D1*
X-66811D2*
X-60906D1*
X-29409D2*
X-28425D1*
X-14646D2*
X-10709D1*
X5039D2*
X8976D1*
X36535D2*
X39488D1*
X54252D2*
X57205D1*
X62126D2*
X85748D1*
X121181D2*
X122165D1*
X135945D2*
X159567D1*
X162520D2*
X166457D1*
X178268D2*
X182205D1*
X187126D2*
X204843D1*
X209764D2*
X228465D1*
X233386D2*
X251102D1*
X-269033Y394778D2*
X-260258D1*
X-244961D2*
X-242988D1*
X-224708D2*
X-215967D1*
X-200136D2*
X-190418D1*
X-162734D2*
X-153959D1*
X-141047D2*
X-132305D1*
X-101260D2*
X-99291D1*
X-68430D2*
X-59660D1*
X-29409D2*
X-27437D1*
X-14154D2*
X-10368D1*
X4887D2*
X8636D1*
X36535D2*
X39488D1*
X54252D2*
X57205D1*
X62126D2*
X85748D1*
X121025D2*
X122539D1*
X135945D2*
X159567D1*
X163352D2*
X167289D1*
X178268D2*
X182205D1*
X187126D2*
X204843D1*
X209764D2*
X228465D1*
X233386D2*
X251102D1*
X-270262Y393794D2*
X-259026D1*
X-244961D2*
X-241966D1*
X-225845D2*
X-214735D1*
X-201364D2*
X-189202D1*
X-163962D2*
X-152727D1*
X-142184D2*
X-131073D1*
X-101260D2*
X-99291D1*
X-69708D2*
X-58657D1*
X-29409D2*
X-26414D1*
X-13745D2*
X-10041D1*
X4639D2*
X8309D1*
X36535D2*
X39488D1*
X54252D2*
X57205D1*
X62126D2*
X85748D1*
X120747D2*
X122962D1*
X135945D2*
X159567D1*
X164088D2*
X168025D1*
X178268D2*
X182205D1*
X187126D2*
X204843D1*
X209764D2*
X228465D1*
X233386D2*
X251102D1*
X-271229Y392810D2*
X-258028D1*
X-244961D2*
X-240821D1*
X-226698D2*
X-213736D1*
X-202327D2*
X-188589D1*
X-164930D2*
X-151729D1*
X-143037D2*
X-130075D1*
X-101260D2*
X-99291D1*
X-70603D2*
X-58260D1*
X-29409D2*
X-25270D1*
X-13362D2*
X-9729D1*
X4350D2*
X7996D1*
X36535D2*
X39488D1*
X54252D2*
X57205D1*
X62126D2*
X85748D1*
X120366D2*
X123419D1*
X135945D2*
X159567D1*
X164783D2*
X168720D1*
X178268D2*
X182205D1*
X187126D2*
X204843D1*
X209764D2*
X228465D1*
X233386D2*
X251102D1*
X-271912Y391825D2*
X-267561D1*
X-261730D2*
X-257254D1*
X-244961D2*
X-239480D1*
X-227333D2*
X-221973D1*
X-217751D2*
X-212959D1*
X-203084D2*
X-198545D1*
X-192795D2*
X-188563D1*
X-165612D2*
X-161262D1*
X-155431D2*
X-150955D1*
X-143672D2*
X-138312D1*
X-134090D2*
X-129298D1*
X-101260D2*
X-99291D1*
X-71274D2*
X-66770D1*
X-59921D2*
X-57953D1*
X-29409D2*
X-23929D1*
X-13012D2*
X-9393D1*
X4048D2*
X7661D1*
X36535D2*
X39488D1*
X54252D2*
X57205D1*
X72953D2*
X75906D1*
X119954D2*
X123894D1*
X146772D2*
X149724D1*
X165469D2*
X169406D1*
X178268D2*
X182205D1*
X201890D2*
X204843D1*
X224528D2*
X228465D1*
X248150D2*
X251102D1*
X-272395Y390841D2*
X-268415D1*
X-260876D2*
X-256661D1*
X-244961D2*
X-238046D1*
X-227807D2*
X-223251D1*
X-216474D2*
X-212331D1*
X-203361D2*
X-199243D1*
X-190827D2*
X-188858D1*
X-166096D2*
X-162116D1*
X-154577D2*
X-150361D1*
X-144145D2*
X-139589D1*
X-132812D2*
X-128669D1*
X-101260D2*
X-99291D1*
X-71509D2*
X-67589D1*
X-29409D2*
X-22495D1*
X-12689D2*
X-9062D1*
X3686D2*
X7330D1*
X36535D2*
X39488D1*
X54252D2*
X57205D1*
X72953D2*
X75906D1*
X119576D2*
X124348D1*
X146772D2*
X149724D1*
X166123D2*
X170060D1*
X178268D2*
X182205D1*
X201890D2*
X204843D1*
X224528D2*
X228465D1*
X248150D2*
X251102D1*
X-272801Y389857D2*
X-269125D1*
X-260166D2*
X-256238D1*
X-244961D2*
X-236801D1*
X-228183D2*
X-224146D1*
X-215575D2*
X-211783D1*
X-203511D2*
X-199774D1*
X-166502D2*
X-162826D1*
X-153867D2*
X-149939D1*
X-144521D2*
X-140485D1*
X-131913D2*
X-128121D1*
X-101260D2*
X-99291D1*
X-71633D2*
X-68170D1*
X-29409D2*
X-21250D1*
X-12348D2*
X-8747D1*
X3267D2*
X7011D1*
X36535D2*
X39488D1*
X54252D2*
X57205D1*
X72953D2*
X75906D1*
X119237D2*
X124744D1*
X146772D2*
X149724D1*
X166778D2*
X170715D1*
X178268D2*
X182205D1*
X201890D2*
X204843D1*
X224528D2*
X228465D1*
X248150D2*
X251102D1*
X-273126Y388873D2*
X-269693D1*
X-259598D2*
X-255993D1*
X-244961D2*
X-235810D1*
X-228541D2*
X-224722D1*
X-214968D2*
X-211302D1*
X-203575D2*
X-200167D1*
X-166827D2*
X-163394D1*
X-153299D2*
X-149694D1*
X-144879D2*
X-141061D1*
X-131306D2*
X-127641D1*
X-101260D2*
X-99291D1*
X-71657D2*
X-68558D1*
X-29409D2*
X-20260D1*
X-12016D2*
X-8410D1*
X2838D2*
X6643D1*
X36535D2*
X39488D1*
X54252D2*
X57205D1*
X72953D2*
X75906D1*
X118889D2*
X125094D1*
X146772D2*
X149724D1*
X167448D2*
X171385D1*
X178268D2*
X182205D1*
X201890D2*
X204843D1*
X224528D2*
X228465D1*
X248150D2*
X251102D1*
X-273327Y387888D2*
X-270102D1*
X-259189D2*
X-255873D1*
X-244961D2*
X-242008D1*
X-239055D2*
X-235420D1*
X-228847D2*
X-225067D1*
X-214532D2*
X-210930D1*
X-203567D2*
X-200088D1*
X-167028D2*
X-163803D1*
X-152890D2*
X-149574D1*
X-145185D2*
X-141405D1*
X-130871D2*
X-127269D1*
X-101260D2*
X-99291D1*
X-71551D2*
X-68554D1*
X-29409D2*
X-26457D1*
X-23504D2*
X-19900D1*
X-11697D2*
X-8079D1*
X2453D2*
X6221D1*
X36535D2*
X39488D1*
X54252D2*
X57205D1*
X72953D2*
X75906D1*
X118553D2*
X125475D1*
X146772D2*
X149724D1*
X168095D2*
X172032D1*
X178268D2*
X182205D1*
X201890D2*
X204843D1*
X224528D2*
X228465D1*
X248150D2*
X251102D1*
X-273429Y386904D2*
X-270309D1*
X-258983D2*
X-255821D1*
X-244961D2*
X-242008D1*
X-237087D2*
X-235118D1*
X-229040D2*
X-225338D1*
X-214150D2*
X-210706D1*
X-203452D2*
X-199900D1*
X-167130D2*
X-164009D1*
X-152684D2*
X-149522D1*
X-145378D2*
X-141677D1*
X-130489D2*
X-127044D1*
X-101260D2*
X-99291D1*
X-71282D2*
X-68090D1*
X-29409D2*
X-26457D1*
X-21535D2*
X-19698D1*
X-11328D2*
X-7763D1*
X2112D2*
X5792D1*
X36535D2*
X39488D1*
X54252D2*
X57205D1*
X72953D2*
X75906D1*
X118233D2*
X121029D1*
X123302D2*
X125902D1*
X146772D2*
X149724D1*
X168748D2*
X172685D1*
X178268D2*
X182205D1*
X201890D2*
X204843D1*
X224528D2*
X228465D1*
X248150D2*
X251102D1*
X-273474Y385920D2*
X-270298D1*
X-258993D2*
X-255804D1*
X-244961D2*
X-242008D1*
X-229139D2*
X-225636D1*
X-213836D2*
X-210593D1*
X-203217D2*
X-199646D1*
X-167175D2*
X-163999D1*
X-152694D2*
X-149504D1*
X-145477D2*
X-141975D1*
X-130174D2*
X-126932D1*
X-101260D2*
X-99291D1*
X-70831D2*
X-66870D1*
X-29409D2*
X-26457D1*
X-19567D2*
D3*
X-10906D2*
X-7426D1*
X1763D2*
X5406D1*
X36535D2*
X39488D1*
X54252D2*
X57205D1*
X72953D2*
X75906D1*
X117864D2*
X120781D1*
X123550D2*
X126333D1*
X146772D2*
X149724D1*
X169416D2*
X173354D1*
X178268D2*
X182205D1*
X201890D2*
X204843D1*
X224528D2*
X228465D1*
X248150D2*
X251102D1*
X-273493Y384936D2*
X-270076D1*
X-259215D2*
X-255830D1*
X-244961D2*
X-242008D1*
X-229184D2*
X-225913D1*
X-213639D2*
X-210544D1*
X-202927D2*
X-199305D1*
X-167194D2*
X-163777D1*
X-152916D2*
X-149531D1*
X-145522D2*
X-142252D1*
X-129978D2*
X-126882D1*
X-101260D2*
X-99291D1*
X-70112D2*
X-65460D1*
X-29409D2*
X-26457D1*
X-10477D2*
X-7094D1*
X1428D2*
X5065D1*
X36535D2*
X39488D1*
X54252D2*
X57205D1*
X72953D2*
X75906D1*
X117442D2*
X120492D1*
X123839D2*
X126719D1*
X146772D2*
X149724D1*
X170058D2*
X174000D1*
X178268D2*
X182205D1*
X201890D2*
X204843D1*
X224528D2*
X228465D1*
X248150D2*
X251102D1*
X-273500Y383951D2*
X-269662D1*
X-259630D2*
X-255957D1*
X-244961D2*
X-242008D1*
X-229202D2*
X-226094D1*
X-213539D2*
X-210524D1*
X-202596D2*
X-198889D1*
X-167201D2*
X-163362D1*
X-153331D2*
X-149657D1*
X-145540D2*
X-142433D1*
X-129877D2*
X-126862D1*
X-101260D2*
X-99291D1*
X-69050D2*
X-64105D1*
X-29409D2*
X-26457D1*
X-10091D2*
X-6779D1*
X1111D2*
X4716D1*
X36535D2*
X57205D1*
X72953D2*
X75906D1*
X117012D2*
X120194D1*
X124137D2*
X127065D1*
X146772D2*
X149724D1*
X170703D2*
X174653D1*
X178264D2*
X182205D1*
X192047D2*
X204843D1*
X213701D2*
X228465D1*
X238307D2*
X251102D1*
X-273503Y382967D2*
X-269105D1*
X-260186D2*
X-256226D1*
X-244961D2*
X-242008D1*
X-229209D2*
X-226189D1*
X-213494D2*
X-210516D1*
X-202140D2*
X-198428D1*
X-167203D2*
X-162806D1*
X-153887D2*
X-149927D1*
X-145547D2*
X-142527D1*
X-129832D2*
X-126855D1*
X-101260D2*
X-99291D1*
X-67795D2*
X-63428D1*
X-29409D2*
X-26457D1*
X-9750D2*
X-6441D1*
X772D2*
X4380D1*
X36535D2*
X57205D1*
X72953D2*
X75906D1*
X116627D2*
X119863D1*
X124468D2*
X127445D1*
X146772D2*
X149724D1*
X171378D2*
X175322D1*
X178226D2*
X182205D1*
X192047D2*
X204843D1*
X213701D2*
X228465D1*
X238307D2*
X251102D1*
X-273500Y381983D2*
X-267459D1*
X-261832D2*
X-256611D1*
X-244961D2*
X-242008D1*
X-229211D2*
X-226232D1*
X-213475D2*
X-210513D1*
X-201572D2*
X-197919D1*
X-167200D2*
X-161160D1*
X-155533D2*
X-150312D1*
X-145550D2*
X-142570D1*
X-129814D2*
X-126852D1*
X-101260D2*
X-99291D1*
X-69230D2*
X-63168D1*
X-29409D2*
X-26457D1*
X-9401D2*
X-6110D1*
X441D2*
X4060D1*
X36535D2*
X57205D1*
X72953D2*
X75906D1*
X116282D2*
X119534D1*
X124797D2*
X127875D1*
X146772D2*
X149724D1*
X170768D2*
X175964D1*
X178074D2*
X182205D1*
X192047D2*
X204843D1*
X213701D2*
X228465D1*
X238307D2*
X251102D1*
X-273465Y380999D2*
X-264882D1*
X-264409D2*
X-257095D1*
X-244961D2*
X-242008D1*
X-229212D2*
X-226245D1*
X-213468D2*
X-210512D1*
X-200970D2*
X-197339D1*
X-167166D2*
X-158583D1*
X-158110D2*
X-150796D1*
X-145551D2*
X-142584D1*
X-129807D2*
X-126851D1*
X-101260D2*
X-99291D1*
X-70459D2*
X-64372D1*
X-29409D2*
X-26457D1*
X-9065D2*
X-5791D1*
X122D2*
X3691D1*
X36535D2*
X57205D1*
X72953D2*
X75906D1*
X115902D2*
X119220D1*
X125115D2*
X128337D1*
X146772D2*
X149724D1*
X170203D2*
X176609D1*
X177738D2*
X182205D1*
X192047D2*
X204843D1*
X213701D2*
X228465D1*
X238307D2*
X251102D1*
X-273340Y380014D2*
X-257766D1*
X-244961D2*
X-242008D1*
X-229212D2*
X-226218D1*
X-213466D2*
X-210512D1*
X-200336D2*
X-196703D1*
X-167041D2*
X-151467D1*
X-145551D2*
X-142556D1*
X-129804D2*
X-126851D1*
X-101260D2*
X-99291D1*
X-71422D2*
X-65817D1*
X-29409D2*
X-26457D1*
X-8745D2*
X-5423D1*
X-247D2*
X3268D1*
X36535D2*
X39488D1*
X54252D2*
X57205D1*
X72953D2*
X75906D1*
X115475D2*
X118882D1*
X125483D2*
X128813D1*
X146772D2*
X149724D1*
X169645D2*
X182205D1*
X201890D2*
X204843D1*
X224528D2*
X228465D1*
X248150D2*
X251102D1*
X-273100Y379030D2*
X-258773D1*
X-244961D2*
X-242008D1*
X-229213D2*
X-226095D1*
X-213469D2*
X-210512D1*
X-199674D2*
X-196070D1*
X-166801D2*
X-152473D1*
X-145551D2*
X-142433D1*
X-129807D2*
X-126850D1*
X-101260D2*
X-99291D1*
X-72178D2*
X-67210D1*
X-29409D2*
X-26457D1*
X-8376D2*
X-5000D1*
X-669D2*
X2839D1*
X36535D2*
X39488D1*
X54252D2*
X57205D1*
X72953D2*
X75906D1*
X115044D2*
X118548D1*
X125906D2*
X129269D1*
X146772D2*
X149724D1*
X169044D2*
X182205D1*
X201890D2*
X204843D1*
X224528D2*
X228465D1*
X248150D2*
X251102D1*
X-272810Y378046D2*
X-260146D1*
X-244961D2*
X-242008D1*
X-229209D2*
X-225860D1*
X-213503D2*
X-210512D1*
X-199030D2*
X-195422D1*
X-166510D2*
X-153846D1*
X-145547D2*
X-142198D1*
X-129842D2*
X-126850D1*
X-101260D2*
X-99291D1*
X-72492D2*
X-68318D1*
X-29409D2*
X-26457D1*
X-7953D2*
X-4571D1*
X-1098D2*
X2454D1*
X36535D2*
X39488D1*
X54252D2*
X57205D1*
X72953D2*
X75906D1*
X114659D2*
X118206D1*
X126340D2*
X129665D1*
X146772D2*
X149724D1*
X168404D2*
X172518D1*
X175277D2*
X182205D1*
X201890D2*
X204843D1*
X224528D2*
X228465D1*
X248150D2*
X251102D1*
X-272478Y377062D2*
X-269604D1*
X-266614D2*
X-261693D1*
X-244961D2*
X-242008D1*
X-229174D2*
X-225608D1*
X-213628D2*
X-210512D1*
X-198378D2*
X-194755D1*
X-166179D2*
X-163305D1*
X-160315D2*
X-155394D1*
X-145513D2*
X-141946D1*
X-129967D2*
X-126850D1*
X-101260D2*
X-99291D1*
X-72765D2*
X-69175D1*
X-29409D2*
X-26457D1*
X-7524D2*
X-4183D1*
X-1486D2*
X2112D1*
X36535D2*
X39488D1*
X54252D2*
X57205D1*
X72953D2*
X75906D1*
X114317D2*
X117766D1*
X126737D2*
X130015D1*
X146772D2*
X149724D1*
X167799D2*
X171813D1*
X176132D2*
X182205D1*
X201890D2*
X204843D1*
X224528D2*
X228465D1*
X248150D2*
X251102D1*
X-272022Y376077D2*
X-268746D1*
X-244961D2*
X-242008D1*
X-229049D2*
X-225432D1*
X-213868D2*
X-210516D1*
X-197713D2*
X-194109D1*
X-165722D2*
X-162447D1*
X-145387D2*
X-141771D1*
X-130207D2*
X-126854D1*
X-101260D2*
X-99291D1*
X-73034D2*
X-69475D1*
X-29409D2*
X-26457D1*
X-7139D2*
X-3814D1*
X-1855D2*
X1763D1*
X36535D2*
X39488D1*
X54252D2*
X57205D1*
X72953D2*
X75906D1*
X113968D2*
X117244D1*
X127087D2*
X130396D1*
X146772D2*
X149724D1*
X167241D2*
X171209D1*
X176842D2*
X182205D1*
X201890D2*
X204843D1*
X224528D2*
X228465D1*
X248150D2*
X251102D1*
X-271453Y375093D2*
X-267998D1*
X-244961D2*
X-242008D1*
X-228809D2*
X-225303D1*
X-214155D2*
X-210550D1*
X-197097D2*
X-193457D1*
X-165154D2*
X-161699D1*
X-145148D2*
X-141641D1*
X-130494D2*
X-126889D1*
X-101260D2*
X-99291D1*
X-73189D2*
X-69605D1*
X-29409D2*
X-26457D1*
X-6797D2*
X-3363D1*
X-2307D2*
X1428D1*
X36535D2*
X39488D1*
X54252D2*
X57205D1*
X72953D2*
X75906D1*
X113632D2*
X130823D1*
X146772D2*
X149724D1*
X166688D2*
X170636D1*
X177410D2*
X182205D1*
X201890D2*
X204843D1*
X224528D2*
X228465D1*
X248150D2*
X251102D1*
X-270852Y374109D2*
X-267266D1*
X-244961D2*
X-242008D1*
X-228522D2*
X-225097D1*
X-214460D2*
X-210676D1*
X-196535D2*
X-192788D1*
X-164553D2*
X-160967D1*
X-144861D2*
X-141436D1*
X-130798D2*
X-127014D1*
X-101260D2*
X-99291D1*
X-73131D2*
X-69545D1*
X-29409D2*
X-26457D1*
X-6448D2*
X1107D1*
X36535D2*
X39488D1*
X54252D2*
X57205D1*
X72953D2*
X75906D1*
X113312D2*
X131255D1*
X146772D2*
X149724D1*
X166089D2*
X170030D1*
X177823D2*
X182205D1*
X201890D2*
X204843D1*
X224528D2*
X228465D1*
X248150D2*
X251102D1*
X-270218Y373125D2*
X-266454D1*
X-244961D2*
X-242008D1*
X-228221D2*
X-224768D1*
X-214879D2*
X-210915D1*
X-195976D2*
X-192141D1*
X-163918D2*
X-160154D1*
X-144560D2*
X-141107D1*
X-131218D2*
X-127254D1*
X-101260D2*
X-99291D1*
X-72939D2*
X-69345D1*
X-29409D2*
X-26457D1*
X-6113D2*
X738D1*
X36535D2*
X39488D1*
X54252D2*
X57205D1*
X72953D2*
X75906D1*
X112943D2*
X131641D1*
X146772D2*
X149724D1*
X165451D2*
X169389D1*
X178064D2*
X182205D1*
X201890D2*
X204843D1*
X224528D2*
X228465D1*
X248150D2*
X251102D1*
X-269556Y372140D2*
X-265561D1*
X-244961D2*
X-242008D1*
X-227856D2*
X-223882D1*
X-215439D2*
X-211206D1*
X-195343D2*
X-191488D1*
X-163256D2*
X-159261D1*
X-144194D2*
X-140221D1*
X-131778D2*
X-127545D1*
X-101260D2*
X-99291D1*
X-72681D2*
X-68722D1*
X-29409D2*
X-26457D1*
X-5796D2*
X316D1*
X36535D2*
X39488D1*
X54252D2*
X57205D1*
X72953D2*
X75906D1*
X112520D2*
X131986D1*
X146772D2*
X149724D1*
X164846D2*
X168784D1*
X178182D2*
X182205D1*
X201890D2*
X204843D1*
X224528D2*
X228465D1*
X248150D2*
X251102D1*
X-268904Y371156D2*
X-264618D1*
X-244961D2*
X-242008D1*
X-227398D2*
X-222428D1*
X-217188D2*
X-211542D1*
X-194575D2*
X-190819D1*
X-179016D2*
X-176063D1*
X-162605D2*
X-158319D1*
X-143736D2*
X-138767D1*
X-133527D2*
X-127880D1*
X-101260D2*
X-99291D1*
X-72333D2*
X-66642D1*
X-47126D2*
X-44173D1*
X-29409D2*
X-26457D1*
X-5457D2*
X-114D1*
X36535D2*
X39488D1*
X54252D2*
X57205D1*
X72953D2*
X75906D1*
X112091D2*
X116449D1*
X129093D2*
X132366D1*
X146772D2*
X149724D1*
X164288D2*
X168225D1*
X178235D2*
X182205D1*
X201890D2*
X204843D1*
X224528D2*
X228465D1*
X248150D2*
X251102D1*
X-268179Y370172D2*
X-263651D1*
X-244961D2*
X-242008D1*
X-226805D2*
X-220164D1*
X-219936D2*
X-212036D1*
X-193706D2*
X-190173D1*
X-179466D2*
X-175612D1*
X-161880D2*
X-157352D1*
X-143144D2*
X-136503D1*
X-136274D2*
X-128375D1*
X-101260D2*
X-99291D1*
X-71875D2*
X-63217D1*
X-59921D2*
X-57953D1*
X-47576D2*
X-43723D1*
X-29409D2*
X-26457D1*
X-5126D2*
X-499D1*
X36535D2*
X39488D1*
X54252D2*
X57205D1*
X72953D2*
X75906D1*
X111706D2*
X115839D1*
X129223D2*
X132792D1*
X146772D2*
X149724D1*
X163735D2*
X167672D1*
X178255D2*
X182205D1*
X201890D2*
X204843D1*
X224528D2*
X228465D1*
X248150D2*
X251102D1*
X-267221Y369188D2*
X-262673D1*
X-244961D2*
X-242008D1*
X-226018D2*
X-212768D1*
X-205591D2*
X-189523D1*
X-179711D2*
X-175367D1*
X-160922D2*
X-156374D1*
X-142357D2*
X-129106D1*
X-101260D2*
X-99291D1*
X-71214D2*
X-57476D1*
X-47822D2*
X-43478D1*
X-29409D2*
X-26457D1*
X-4810D2*
X-841D1*
X36535D2*
X39488D1*
X54252D2*
X57205D1*
X72953D2*
X75906D1*
X111364D2*
X115383D1*
X129496D2*
X133220D1*
X146772D2*
X149724D1*
X163140D2*
X167077D1*
X178263D2*
X182205D1*
X187126D2*
X204843D1*
X224528D2*
X228465D1*
X233386D2*
X251102D1*
X-265939Y368203D2*
X-261692D1*
X-244961D2*
X-242008D1*
X-224998D2*
X-213760D1*
X-205591D2*
X-188881D1*
X-179797D2*
X-175282D1*
X-159640D2*
X-155392D1*
X-141337D2*
X-130099D1*
X-101260D2*
X-99291D1*
X-70161D2*
X-58128D1*
X-47907D2*
X-43392D1*
X-29409D2*
X-26457D1*
X-4468D2*
X-1195D1*
X36535D2*
X39488D1*
X54252D2*
X57205D1*
X72953D2*
X75906D1*
X111010D2*
X114979D1*
X129903D2*
X133573D1*
X146772D2*
X149724D1*
X162524D2*
X166461D1*
X178266D2*
X182205D1*
X187126D2*
X204843D1*
X224528D2*
X228465D1*
X233386D2*
X251102D1*
X-264371Y367219D2*
X-260709D1*
X-244961D2*
X-242008D1*
X-223731D2*
X-215016D1*
X-205591D2*
X-188337D1*
X-179456D2*
X-175623D1*
X-158072D2*
X-154409D1*
X-140069D2*
X-131355D1*
X-101260D2*
X-99291D1*
X-68627D2*
X-59447D1*
X-47566D2*
X-43733D1*
X-29409D2*
X-26457D1*
X-4129D2*
X-1538D1*
X36535D2*
X39488D1*
X54252D2*
X57205D1*
X72953D2*
X75906D1*
X110666D2*
X114615D1*
X130426D2*
X133806D1*
X146772D2*
X149724D1*
X161992D2*
X165929D1*
X178267D2*
X182205D1*
X187126D2*
X204843D1*
X224528D2*
X228465D1*
X233386D2*
X251102D1*
X-262677Y366235D2*
X-261693D1*
X-244961D2*
X-242008D1*
X-222323D2*
X-216417D1*
X-205591D2*
X-187874D1*
X-179016D2*
X-176063D1*
X-156378D2*
X-155394D1*
X-138661D2*
X-132756D1*
X-101260D2*
X-99291D1*
X-66811D2*
X-60906D1*
X-47126D2*
X-44173D1*
X-29409D2*
X-26457D1*
X-3819D2*
X-1850D1*
X36535D2*
X39488D1*
X54252D2*
X57205D1*
X72953D2*
X75906D1*
X110354D2*
X114291D1*
X131024D2*
X133976D1*
X146772D2*
X149724D1*
X161535D2*
X165472D1*
X178268D2*
X182205D1*
X187126D2*
X204843D1*
X224528D2*
X228465D1*
X233386D2*
X251102D1*
X-101260Y365251D2*
X-99291D1*
X-101260Y364266D2*
X-99291D1*
X-101260Y363282D2*
X-99291D1*
X-101260Y362298D2*
X-99291D1*
X10945D2*
X32598D1*
X87717D2*
X109370D1*
X-101260Y361314D2*
X-99291D1*
X10945D2*
X32598D1*
X87717D2*
X109370D1*
X-101260Y360329D2*
X-99291D1*
X10945D2*
X32598D1*
X87717D2*
X109370D1*
X-118264Y-550728D2*
D13*
X-109077D1*
X-68395D2*
X-59209D1*
X-13277D2*
X-4091D1*
X16907D2*
X26093D1*
X64151D2*
X68088D1*
X-118264Y-552041D2*
X-109077D1*
X-68395D2*
X-59209D1*
X-13277D2*
X-4091D1*
X16907D2*
X26093D1*
X64151D2*
X70159D1*
X-118264Y-553353D2*
X-109077D1*
X-68395D2*
X-59209D1*
X-13277D2*
X-4091D1*
X16907D2*
X26093D1*
X64151D2*
X72005D1*
X-118264Y-554665D2*
X-109077D1*
X-68395D2*
X-59209D1*
X-13277D2*
X-4091D1*
X16907D2*
X26093D1*
X64151D2*
X73528D1*
X-118264Y-555978D2*
X-109077D1*
X-68395D2*
X-59209D1*
X-13277D2*
X-4091D1*
X16907D2*
X26093D1*
X64161D2*
X74767D1*
X-118264Y-557290D2*
X-109077D1*
X-68395D2*
X-59209D1*
X-13277D2*
X-4091D1*
X16907D2*
X26093D1*
X64259D2*
X75789D1*
X-118264Y-558602D2*
X-109077D1*
X-68395D2*
X-59209D1*
X-13277D2*
X-4091D1*
X16907D2*
X26093D1*
X64489D2*
X76515D1*
X-118264Y-559915D2*
X-109077D1*
X-68395D2*
X-59209D1*
X-13277D2*
X-4091D1*
X16907D2*
X26093D1*
X65398D2*
X76930D1*
X-261308Y-561227D2*
X-254747D1*
X-244248D2*
X-237686D1*
X-215377D2*
X-206190D1*
X-181256D2*
X-173382D1*
X-127450D2*
X-120888D1*
X-118264D2*
X-109077D1*
X-93329D2*
X-84143D1*
X-68395D2*
X-59209D1*
X-42148D2*
X-32962D1*
X-18526D2*
X-4091D1*
X1159D2*
X11657D1*
X16907D2*
X26093D1*
X40529D2*
X49715D1*
X66413D2*
X77132D1*
X91710D2*
X100896D1*
X138954D2*
X148140D1*
X153390D2*
X162576D1*
X166513D2*
X175699D1*
X183573D2*
X192760D1*
X198009D2*
X207196D1*
X211133D2*
X220319D1*
X228193D2*
X237379D1*
X242629D2*
X251815D1*
X255752D2*
X264938D1*
X-263177Y-562539D2*
X-250277D1*
X-248718D2*
X-235773D1*
X-217295D2*
X-203829D1*
X-183780D2*
X-171020D1*
X-129767D2*
X-120888D1*
X-118264D2*
X-109077D1*
X-95646D2*
X-81781D1*
X-68395D2*
X-59209D1*
X-44465D2*
X-30600D1*
X-18526D2*
X-4091D1*
X1973D2*
X12156D1*
X16907D2*
X26093D1*
X38611D2*
X52077D1*
X67214D2*
X77219D1*
X89792D2*
X103258D1*
X138954D2*
X148140D1*
X153390D2*
X162576D1*
X166513D2*
X175699D1*
X183573D2*
X192760D1*
X198009D2*
X207196D1*
X211133D2*
X220319D1*
X228193D2*
X237379D1*
X242629D2*
X251815D1*
X255752D2*
X264938D1*
X-264692Y-563852D2*
X-234135D1*
X-218979D2*
X-201795D1*
X-185841D2*
X-168987D1*
X-131679D2*
X-120888D1*
X-118264D2*
X-109077D1*
X-97553D2*
X-79748D1*
X-68395D2*
X-59209D1*
X-46372D2*
X-28567D1*
X-18526D2*
X-4091D1*
X2721D2*
X12720D1*
X16902D2*
X26093D1*
X36927D2*
X54111D1*
X67688D2*
X77254D1*
X88108D2*
X105292D1*
X138954D2*
X148140D1*
X153390D2*
X162576D1*
X166513D2*
X175699D1*
X183573D2*
X192760D1*
X198009D2*
X207196D1*
X211133D2*
X220319D1*
X228193D2*
X237379D1*
X242629D2*
X251815D1*
X255752D2*
X264938D1*
X-265830Y-565164D2*
X-232851D1*
X-220436D2*
X-200215D1*
X-187483D2*
X-167407D1*
X-133111D2*
X-120888D1*
X-118264D2*
X-109077D1*
X-98944D2*
X-78168D1*
X-68395D2*
X-59209D1*
X-47763D2*
X-26987D1*
X-18526D2*
X-4091D1*
X3424D2*
X13334D1*
X16852D2*
X26093D1*
X35475D2*
X55690D1*
X67922D2*
X77267D1*
X86656D2*
X106871D1*
X138954D2*
X148140D1*
X153390D2*
X162576D1*
X166513D2*
X175699D1*
X183573D2*
X192760D1*
X198009D2*
X207196D1*
X211133D2*
X220319D1*
X228193D2*
X237379D1*
X242629D2*
X251815D1*
X255752D2*
X264938D1*
X-266672Y-566476D2*
X-231843D1*
X-221660D2*
X-199056D1*
X-188736D2*
X-166247D1*
X-134248D2*
X-120909D1*
X-118264D2*
X-109077D1*
X-99960D2*
X-77008D1*
X-68395D2*
X-59209D1*
X-48779D2*
X-25827D1*
X-18526D2*
X-4091D1*
X4103D2*
X14005D1*
X16649D2*
X26093D1*
X34291D2*
X56850D1*
X68028D2*
X77272D1*
X85472D2*
X108031D1*
X138954D2*
X148140D1*
X153390D2*
X162576D1*
X166513D2*
X175699D1*
X183573D2*
X192760D1*
X198009D2*
X207196D1*
X211133D2*
X220319D1*
X228193D2*
X237379D1*
X242629D2*
X251815D1*
X255752D2*
X264938D1*
X-267256Y-567789D2*
X-231473D1*
X-222641D2*
X-198201D1*
X-189694D2*
X-165398D1*
X-135205D2*
X-120970D1*
X-118264D2*
X-109077D1*
X-100770D2*
X-76159D1*
X-68395D2*
X-59209D1*
X-49589D2*
X-24978D1*
X-18526D2*
X-4091D1*
X4802D2*
X14763D1*
X16200D2*
X26093D1*
X33431D2*
X57705D1*
X64151D2*
X77273D1*
X84612D2*
X108886D1*
X138954D2*
X148140D1*
X153390D2*
X162576D1*
X166513D2*
X175699D1*
X183573D2*
X192760D1*
X198009D2*
X207196D1*
X211133D2*
X220319D1*
X228193D2*
X237379D1*
X242629D2*
X251815D1*
X255752D2*
X264938D1*
X-267591Y-569101D2*
X-231273D1*
X-223412D2*
X-197567D1*
X-190096D2*
X-164810D1*
X-135900D2*
X-121545D1*
X-118264D2*
X-109077D1*
X-101443D2*
X-75566D1*
X-68395D2*
X-59209D1*
X-50262D2*
X-24385D1*
X-18526D2*
X-4091D1*
X5571D2*
X26093D1*
X32808D2*
X41841D1*
X48145D2*
X58338D1*
X64151D2*
X77274D1*
X83989D2*
X93022D1*
X99326D2*
X109519D1*
X138954D2*
X148140D1*
X153390D2*
X162576D1*
X166513D2*
X175699D1*
X183573D2*
X192760D1*
X198009D2*
X207196D1*
X211133D2*
X220319D1*
X228193D2*
X237379D1*
X242629D2*
X251815D1*
X255752D2*
X264938D1*
X-267754Y-570413D2*
X-231183D1*
X-223967D2*
X-197065D1*
X-189058D2*
X-164475D1*
X-136301D2*
X-123171D1*
X-118269D2*
X-109077D1*
X-101952D2*
X-75181D1*
X-68395D2*
X-59209D1*
X-50770D2*
X-24000D1*
X-18526D2*
X-4091D1*
X6408D2*
X26093D1*
X32275D2*
X40529D1*
X48912D2*
X58840D1*
X64151D2*
X77274D1*
X83456D2*
X91710D1*
X100094D2*
X110022D1*
X138954D2*
X148140D1*
X153390D2*
X162576D1*
X166513D2*
X175699D1*
X183573D2*
X192760D1*
X198009D2*
X207196D1*
X211133D2*
X220319D1*
X228193D2*
X237379D1*
X242629D2*
X251815D1*
X255752D2*
X264938D1*
X-267825Y-571726D2*
X-258684D1*
X-255005D2*
X-244248D1*
X-240311D2*
X-231146D1*
X-224290D2*
X-213801D1*
X-207766D2*
X-196592D1*
X-187818D2*
X-181256D1*
X-174957D2*
X-164312D1*
X-136497D2*
X-124876D1*
X-118315D2*
X-109077D1*
X-102255D2*
X-91759D1*
X-85718D2*
X-74815D1*
X-68395D2*
X-59209D1*
X-51074D2*
X-40578D1*
X-34537D2*
X-23634D1*
X-13277D2*
X-4091D1*
X5752D2*
X26093D1*
X31844D2*
X47091D1*
X49352D2*
X59313D1*
X64151D2*
X77274D1*
X83025D2*
X98272D1*
X100533D2*
X110494D1*
X138954D2*
X148140D1*
X153385D2*
X162576D1*
X166513D2*
X175699D1*
X183573D2*
X192760D1*
X198004D2*
X207196D1*
X211133D2*
X220319D1*
X228193D2*
X237379D1*
X242623D2*
X251815D1*
X255752D2*
X264938D1*
X-267854Y-573038D2*
X-258684D1*
X-254237D2*
X-244248D1*
X-240311D2*
X-231132D1*
X-224449D2*
X-214673D1*
X-206894D2*
X-196231D1*
X-174085D2*
X-164241D1*
X-136583D2*
X-126154D1*
X-118503D2*
X-109083D1*
X-102406D2*
X-92527D1*
X-84847D2*
X-74292D1*
X-68395D2*
X-59209D1*
X-51225D2*
X-41346D1*
X-33666D2*
X-23111D1*
X-13585D2*
X-4091D1*
X5202D2*
X14232D1*
X16907D2*
X26093D1*
X31577D2*
X47091D1*
X49560D2*
X59675D1*
X64151D2*
X77274D1*
X82758D2*
X98272D1*
X100741D2*
X110856D1*
X138954D2*
X148151D1*
X153323D2*
X162586D1*
X166503D2*
X175699D1*
X183573D2*
X192770D1*
X197943D2*
X207206D1*
X211122D2*
X220319D1*
X228193D2*
X237390D1*
X242562D2*
X251825D1*
X255742D2*
X264938D1*
X-267864Y-574350D2*
X-258684D1*
X-253798D2*
X-244248D1*
X-240311D2*
X-231127D1*
X-224514D2*
X-214841D1*
X-206726D2*
X-196033D1*
X-173918D2*
X-164212D1*
X-136617D2*
X-127087D1*
X-118851D2*
X-109129D1*
X-102473D2*
X-92966D1*
X-84659D2*
X-73644D1*
X-68395D2*
X-59209D1*
X-51292D2*
X-41785D1*
X-33477D2*
X-22463D1*
X-14119D2*
X-4096D1*
X4651D2*
X14059D1*
X16907D2*
X26093D1*
X31434D2*
X47091D1*
X49580D2*
X59872D1*
X64151D2*
X77274D1*
X82615D2*
X98272D1*
X100762D2*
X111053D1*
X138954D2*
X148251D1*
X153169D2*
X162686D1*
X166403D2*
X175699D1*
X183573D2*
X192870D1*
X197789D2*
X207306D1*
X211022D2*
X220319D1*
X228193D2*
X237489D1*
X242408D2*
X251925D1*
X255642D2*
X264938D1*
X-267868Y-575663D2*
X-258684D1*
X-253584D2*
X-244248D1*
X-240311D2*
X-231126D1*
X-224495D2*
X-214459D1*
X-207108D2*
X-196301D1*
X-191755D2*
X-182568D1*
X-174299D2*
X-164207D1*
X-152385D2*
X-147135D1*
X-136624D2*
X-125994D1*
X-119865D2*
X-109296D1*
X-102500D2*
X-93179D1*
X-85385D2*
X-74255D1*
X-68395D2*
X-59209D1*
X-51319D2*
X-41998D1*
X-34204D2*
X-23074D1*
X-15385D2*
X-4142D1*
X4057D2*
X13698D1*
X16907D2*
X26093D1*
X31343D2*
X47091D1*
X49442D2*
X59605D1*
X64151D2*
X77274D1*
X82524D2*
X98272D1*
X100623D2*
X110786D1*
X121894D2*
X127143D1*
X138954D2*
X148489D1*
X152358D2*
X162925D1*
X166165D2*
X175699D1*
X183573D2*
X193108D1*
X196978D2*
X207544D1*
X210784D2*
X220319D1*
X228193D2*
X237728D1*
X241597D2*
X252164D1*
X255403D2*
X264938D1*
X-267869Y-576975D2*
X-258684D1*
X-253492D2*
X-244248D1*
X-240311D2*
X-231125D1*
X-224334D2*
X-211191D1*
X-210376D2*
X-196644D1*
X-191301D2*
X-178795D1*
X-177567D2*
X-164254D1*
X-153799D2*
X-146081D1*
X-136578D2*
X-123061D1*
X-122136D2*
X-109615D1*
X-102510D2*
X-93271D1*
X-87123D2*
X-74678D1*
X-68395D2*
X-59209D1*
X-51329D2*
X-42090D1*
X-35942D2*
X-23497D1*
X-16635D2*
X-4314D1*
X3434D2*
X13194D1*
X16907D2*
X26093D1*
X48391D2*
X59261D1*
X64151D2*
X77274D1*
X99573D2*
X110442D1*
X120479D2*
X128197D1*
X138959D2*
X149512D1*
X150406D2*
X163947D1*
X165142D2*
X175699D1*
X183579D2*
X194131D1*
X195026D2*
X208567D1*
X209761D2*
X220319D1*
X228198D2*
X238751D1*
X239645D2*
X253186D1*
X254381D2*
X264938D1*
X-267870Y-578287D2*
X-258684D1*
X-253456D2*
X-244248D1*
X-240311D2*
X-231125D1*
X-223972D2*
X-197026D1*
X-190859D2*
X-164466D1*
X-154878D2*
X-145313D1*
X-136366D2*
X-110003D1*
X-102514D2*
X-93308D1*
X-88720D2*
X-75041D1*
X-68395D2*
X-59209D1*
X-51333D2*
X-42127D1*
X-37539D2*
X-23860D1*
X-17703D2*
X-4680D1*
X2795D2*
X12646D1*
X16907D2*
X26093D1*
X45996D2*
X58879D1*
X68088D2*
X77274D1*
X97177D2*
X110060D1*
X119400D2*
X128965D1*
X139005D2*
X175694D1*
X183625D2*
X220314D1*
X228244D2*
X264933D1*
X-267870Y-579600D2*
X-258684D1*
X-253442D2*
X-244248D1*
X-240311D2*
X-231125D1*
X-223418D2*
X-197505D1*
X-190392D2*
X-164952D1*
X-155594D2*
X-144874D1*
X-135875D2*
X-110450D1*
X-102515D2*
X-93322D1*
X-89947D2*
X-75492D1*
X-68395D2*
X-59209D1*
X-51334D2*
X-42141D1*
X-38766D2*
X-24310D1*
X-18126D2*
X-5235D1*
X2187D2*
X12142D1*
X16907D2*
X26093D1*
X43490D2*
X58400D1*
X68088D2*
X77274D1*
X94671D2*
X109581D1*
X118684D2*
X129404D1*
X139178D2*
X175643D1*
X183797D2*
X220263D1*
X228417D2*
X264882D1*
X-267870Y-580912D2*
X-258684D1*
X-253437D2*
X-244248D1*
X-240311D2*
X-231125D1*
X-222657D2*
X-198118D1*
X-189730D2*
X-165659D1*
X-156060D2*
X-144666D1*
X-135127D2*
X-111105D1*
X-102516D2*
X-93327D1*
X-90347D2*
X-76086D1*
X-68395D2*
X-59209D1*
X-51334D2*
X-42146D1*
X-39166D2*
X-24905D1*
X-18355D2*
X-5996D1*
X1658D2*
X11690D1*
X16907D2*
X26093D1*
X41389D2*
X57787D1*
X68088D2*
X77274D1*
X92570D2*
X108969D1*
X118218D2*
X129612D1*
X139543D2*
X175425D1*
X184163D2*
X220044D1*
X228782D2*
X264663D1*
X-267870Y-582224D2*
X-258684D1*
X-253435D2*
X-244248D1*
X-240311D2*
X-231125D1*
X-221661D2*
X-198953D1*
X-188793D2*
X-166494D1*
X-155988D2*
X-144625D1*
X-134170D2*
X-112040D1*
X-102516D2*
X-93329D1*
X-90556D2*
X-76912D1*
X-68395D2*
X-59209D1*
X-51335D2*
X-42147D1*
X-39375D2*
X-25731D1*
X-18459D2*
X-6993D1*
X1191D2*
X11226D1*
X16907D2*
X26093D1*
X39852D2*
X56953D1*
X68088D2*
X77274D1*
X91033D2*
X108134D1*
X118290D2*
X129653D1*
X140103D2*
X174887D1*
X184723D2*
X219506D1*
X229342D2*
X264125D1*
X-267870Y-583537D2*
X-258684D1*
X-253435D2*
X-244248D1*
X-240311D2*
X-231125D1*
X-220457D2*
X-200171D1*
X-187571D2*
X-167596D1*
X-155634D2*
X-144806D1*
X-132923D2*
X-113261D1*
X-102516D2*
X-93329D1*
X-90648D2*
X-78126D1*
X-68395D2*
X-59209D1*
X-51335D2*
X-42148D1*
X-39467D2*
X-26945D1*
X-18501D2*
X-8196D1*
X679D2*
X10775D1*
X16907D2*
X26093D1*
X38720D2*
X55735D1*
X68088D2*
X77274D1*
X89901D2*
X106916D1*
X118644D2*
X129472D1*
X140915D2*
X173967D1*
X185534D2*
X218587D1*
X230154D2*
X263206D1*
X-267870Y-584849D2*
X-258684D1*
X-253434D2*
X-244248D1*
X-240311D2*
X-231125D1*
X-219012D2*
X-201855D1*
X-185937D2*
X-169170D1*
X-154916D2*
X-145321D1*
X-131334D2*
X-114896D1*
X-102516D2*
X-93329D1*
X-90684D2*
X-79809D1*
X-68395D2*
X-59209D1*
X-51335D2*
X-42148D1*
X-39503D2*
X-28628D1*
X-18518D2*
X-9642D1*
X70D2*
X10316D1*
X16907D2*
X26093D1*
X38261D2*
X54050D1*
X68088D2*
X77274D1*
X89443D2*
X105231D1*
X119362D2*
X128958D1*
X142108D2*
X172667D1*
X186727D2*
X217286D1*
X231347D2*
X261906D1*
X-267870Y-586161D2*
X-258684D1*
X-253434D2*
X-244248D1*
X-240311D2*
X-231125D1*
X-217279D2*
X-203936D1*
X-183761D2*
X-171179D1*
X-153781D2*
X-146155D1*
X-129467D2*
X-117071D1*
X-102516D2*
X-93329D1*
X-90698D2*
X-81889D1*
X-68395D2*
X-59209D1*
X-51335D2*
X-42148D1*
X-39517D2*
X-30708D1*
X-18523D2*
X-11374D1*
X-655D2*
X9728D1*
X16907D2*
X26093D1*
X39293D2*
X51969D1*
X68088D2*
X77274D1*
X90475D2*
X103151D1*
X120497D2*
X128123D1*
X143702D2*
X156014D1*
X159951D2*
X171002D1*
X188322D2*
X200634D1*
X204571D2*
X215621D1*
X232941D2*
X245253D1*
X249190D2*
X260240D1*
X-267870Y-587474D2*
X-258684D1*
X-253434D2*
X-244248D1*
X-240311D2*
X-231125D1*
X-215377D2*
X-206190D1*
X-181256D2*
X-173382D1*
X-152385D2*
X-147135D1*
X-127450D2*
X-119576D1*
X-102516D2*
X-93329D1*
X-90705D2*
X-84143D1*
X-68395D2*
X-59209D1*
X-51335D2*
X-42148D1*
X-39524D2*
X-32962D1*
X-18526D2*
X-13277D1*
X-1466D2*
X9033D1*
X16907D2*
X26093D1*
X40529D2*
X49715D1*
X68088D2*
X77274D1*
X91710D2*
X100896D1*
X121894D2*
X127143D1*
X145516D2*
X153390D1*
X162576D2*
X169138D1*
X190135D2*
X198009D1*
X207196D2*
X213757D1*
X234755D2*
X242629D1*
X251815D2*
X258377D1*
X415087Y-376942D2*
D14*
X415461Y-377927D1*
X415884Y-378911D1*
X416341Y-379895D1*
X416819Y-380879D1*
X417304Y-381864D1*
X417795Y-382848D1*
X418285Y-383832D1*
X418778Y-384816D1*
X419269Y-385801D1*
X419762Y-386785D1*
X420254Y-387769D1*
X420743Y-388753D1*
X421203Y-389738D1*
X421601Y-390722D1*
X421952Y-391706D1*
X422333Y-392690D1*
X422764Y-393675D1*
X423229Y-394659D1*
X423735Y-395643D1*
X424305Y-396627D1*
X424929Y-397612D1*
X417055Y-398596D1*
X419024Y-376942D2*
X419398Y-377927D1*
X419821Y-378911D1*
X420278Y-379895D1*
X420752Y-380879D1*
X421207Y-381864D1*
X421603Y-382848D1*
X421952Y-383832D1*
X422333Y-384816D1*
X422764Y-385801D1*
X423226Y-386785D1*
X423707Y-387769D1*
X424193Y-388753D1*
X424684Y-389738D1*
X425175Y-390722D1*
X425668Y-391706D1*
X426159Y-392690D1*
X426652Y-393675D1*
X427143Y-394659D1*
X427632Y-395643D1*
X428089Y-396627D1*
X428453Y-397612D1*
X428674Y-398596D1*
X428785Y-399580D1*
X428836Y-400564D1*
X428866Y-401549D1*
X441661Y-376942D2*
X439924Y-377927D1*
X438490Y-378911D1*
X437416Y-379895D1*
X436563Y-380879D1*
X435845Y-381864D1*
X435320Y-382848D1*
X434999Y-383832D1*
X434772Y-384816D1*
X447567Y-376942D2*
X449456Y-377927D1*
X450971Y-378911D1*
X452112Y-379895D1*
X452949Y-380879D1*
X453568Y-381864D1*
X454005Y-382848D1*
X454287Y-383832D1*
X454534Y-384816D1*
X454823Y-385801D1*
X455096Y-386785D1*
X455276Y-387769D1*
X455370Y-388753D1*
X455413Y-389738D1*
X455430Y-390722D1*
X455437Y-391706D1*
X455440Y-392690D1*
X455437Y-393675D1*
X455402Y-394659D1*
X455277Y-395643D1*
X455041Y-396627D1*
X454785Y-397612D1*
X454579Y-398596D1*
X454358Y-399580D1*
X454042Y-400564D1*
X453609Y-401549D1*
X453023Y-402533D1*
X452203Y-403517D1*
X451032Y-404501D1*
X449429Y-405486D1*
X447567Y-406470D1*
X444614Y-379895D2*
X442843Y-380879D1*
X441320Y-381864D1*
X440158Y-382848D1*
X439342Y-383832D1*
X438709Y-384816D1*
X444614Y-379895D2*
X446385Y-380879D1*
X447911Y-381864D1*
X449095Y-382848D1*
X449965Y-383832D1*
X450602Y-384816D1*
X451043Y-385801D1*
X451294Y-386785D1*
X451417Y-387769D1*
X451470Y-388753D1*
X451492Y-389738D1*
X451500Y-390722D1*
X451502Y-391706D1*
X451503Y-392690D1*
X451504Y-393675D1*
X451500Y-394659D1*
X451465Y-395643D1*
X451336Y-396627D1*
X451062Y-397612D1*
X450642Y-398596D1*
X450021Y-399580D1*
X449198Y-400564D1*
X447333Y-401549D1*
X444727Y-402533D1*
X441661Y-403517D1*
X412134Y-388753D2*
Y-389738D1*
Y-390722D1*
Y-391706D1*
Y-392690D1*
Y-393675D1*
Y-394659D1*
Y-395643D1*
Y-396627D1*
Y-397612D1*
Y-398596D1*
X410165D1*
Y-399580D1*
Y-400564D1*
Y-401549D1*
Y-402533D1*
X412134D1*
Y-403517D1*
Y-404501D1*
Y-405486D1*
Y-406470D1*
X415087Y-388753D2*
Y-389738D1*
Y-390722D1*
Y-391706D1*
Y-392690D1*
Y-393675D1*
Y-394659D1*
Y-395643D1*
Y-396627D1*
Y-397612D1*
X423945Y-398596D1*
X434772D2*
X434961Y-399580D1*
X435335Y-400564D1*
X435868Y-401549D1*
X436495Y-402533D1*
X437322Y-403517D1*
X438502Y-404501D1*
X440009Y-405486D1*
X441661Y-406470D1*
X438709Y-398596D2*
X439291Y-399580D1*
X440067Y-400564D1*
X441913Y-401549D1*
X444508Y-402533D1*
X447567Y-403517D1*
X415087Y-401549D2*
Y-402533D1*
Y-403517D1*
Y-404501D1*
Y-405486D1*
Y-406470D1*
X429062Y437001D2*
X427173Y436017D1*
X425658Y435033D1*
X424517Y434049D1*
X423680Y433064D1*
X423060Y432080D1*
X422628Y431096D1*
X422380Y430112D1*
X422258Y429127D1*
X422205Y428143D1*
X422184Y427159D1*
X422176Y426175D1*
X422173Y425190D1*
X422176Y424206D1*
X422211Y423222D1*
X422340Y422238D1*
X422613Y421253D1*
X423020Y420269D1*
X423543Y419285D1*
X424140Y418301D1*
X431030Y437001D2*
X432919Y436017D1*
X434430Y435033D1*
X435541Y434049D1*
X436287Y433064D1*
X436796Y432080D1*
X437212Y431096D1*
X437541Y430112D1*
X437746Y429127D1*
X437883Y428143D1*
X438054Y427159D1*
X438312Y426175D1*
X438606Y425190D1*
X438925Y424206D1*
X439310Y423222D1*
X440218Y422238D1*
X442315Y421253D1*
X444810Y420269D1*
X446778Y437001D2*
X446380Y436017D1*
X446451Y435033D1*
X446707Y434049D1*
X447056Y433064D1*
X447375Y432080D1*
X447579Y431096D1*
X447685Y430112D1*
X447732Y429127D1*
X447751Y428143D1*
X447758Y427159D1*
X447757Y426175D1*
X447720Y425190D1*
X447628Y424206D1*
X447172Y423222D1*
X445594Y422238D1*
X443054Y421253D1*
X439888Y420269D1*
X448747Y437001D2*
X449353Y436017D1*
X449880Y435033D1*
X450282Y434049D1*
X450552Y433064D1*
X450795Y432080D1*
X451082Y431096D1*
X451355Y430112D1*
X451535Y429127D1*
X451629Y428143D1*
X451668Y427159D1*
X451651Y426175D1*
X451532Y425190D1*
X451295Y424206D1*
X451009Y423222D1*
X450708Y422238D1*
X450343Y421253D1*
X449877Y420269D1*
X449214Y419285D1*
X448160Y418301D1*
X446625Y417316D1*
X444810Y416332D1*
X428077Y433064D2*
X427249Y432080D1*
X426547Y431096D1*
X425982Y430112D1*
X425570Y429127D1*
X425329Y428143D1*
X425210Y427159D1*
X425162Y426175D1*
X425175Y425190D1*
X425297Y424206D1*
X425568Y423222D1*
X425983Y422238D1*
X426551Y421253D1*
X427277Y420269D1*
X428077Y419285D1*
X426109Y418301D1*
X432014Y433064D2*
X432809Y432080D1*
X433419Y431096D1*
X433874Y430112D1*
X434270Y429127D1*
X434591Y428143D1*
X434795Y427159D1*
X434931Y426175D1*
X435102Y425190D1*
X435360Y424206D1*
X435654Y423222D1*
X435957Y422238D1*
X436324Y421253D1*
X436786Y420269D1*
X437412Y419285D1*
X438313Y418301D1*
X439511Y417316D1*
X440873Y416332D1*
X422172Y412395D2*
X422225Y411411D1*
X422353Y410427D1*
X423104Y409442D1*
X425328Y408458D1*
X428409Y407474D1*
X432101Y406490D1*
X436130Y405505D1*
X440405Y404521D1*
X444810Y403537D1*
X441785Y402552D1*
X438448Y401568D1*
X434930Y400584D1*
X431441Y399600D1*
X428212Y398615D1*
X425597Y397631D1*
X423575Y396647D1*
X422797Y395663D1*
X422456Y394678D1*
X424747Y393694D1*
X427510Y392710D1*
X430718Y391726D1*
X434236Y390741D1*
X437845Y389757D1*
X441369Y388773D1*
X444810Y387789D1*
X440835Y386804D1*
X436780Y385820D1*
X432691Y384836D1*
X428907Y383852D1*
X425925Y382867D1*
X423660Y381883D1*
X422753Y380899D1*
X422417Y379915D1*
X422172Y378930D1*
X424140Y412395D2*
X428414Y411411D1*
X432644Y410427D1*
X436764Y409442D1*
X440747Y408458D1*
X444448Y407474D1*
X447512Y406490D1*
X449952Y405505D1*
X451004Y404521D1*
X451319Y403537D1*
X451473Y402552D1*
X449959Y401568D1*
X447758Y400584D1*
X444897Y399600D1*
X441620Y398615D1*
X438169Y397631D1*
X434628Y396647D1*
X431030Y395663D1*
X434021Y394678D1*
X437267Y393694D1*
X440666Y392710D1*
X444070Y391726D1*
X447129Y390741D1*
X449701Y389757D1*
X450894Y388773D1*
X451291Y387789D1*
X451526Y386804D1*
X450169Y385820D1*
X447998Y384836D1*
X445024Y383852D1*
X441507Y382867D1*
X437637Y381883D1*
X433531Y380899D1*
X429330Y379915D1*
X425125Y378930D1*
X422172Y373025D2*
Y372041D1*
Y371056D1*
Y370072D1*
Y369088D1*
Y368104D1*
Y367119D1*
Y366135D1*
Y365151D1*
Y364167D1*
Y363182D1*
X422176Y362198D1*
X422210Y361214D1*
X422340Y360230D1*
X422610Y359245D1*
X422995Y358261D1*
X423476Y357277D1*
X424117Y356293D1*
X425040Y355308D1*
X426359Y354324D1*
X428085Y353340D1*
X430046Y352356D1*
X451699Y373025D2*
Y372041D1*
Y371056D1*
Y370072D1*
Y369088D1*
Y368104D1*
Y367119D1*
Y366135D1*
Y365151D1*
X451696Y364167D1*
X451661Y363182D1*
X451536Y362198D1*
X451296Y361214D1*
X451009Y360230D1*
X450708Y359245D1*
X450343Y358261D1*
X449881Y357277D1*
X449250Y356293D1*
X448299Y355308D1*
X446883Y354324D1*
X444986Y353340D1*
X442841Y352356D1*
X425125Y370072D2*
Y369088D1*
Y368104D1*
Y367119D1*
Y366135D1*
Y365151D1*
X425129Y364167D1*
X425163Y363182D1*
X425292Y362198D1*
X425567Y361214D1*
X425983Y360230D1*
X426554Y359245D1*
X427296Y358261D1*
X428156Y357277D1*
X429062Y356293D1*
X447762Y370072D2*
Y369088D1*
Y368104D1*
Y367119D1*
Y366135D1*
Y365151D1*
Y364167D1*
X447759Y363182D1*
X447720Y362198D1*
X447556Y361214D1*
X447157Y360230D1*
X446505Y359245D1*
X445681Y358261D1*
X444769Y357277D1*
X443825Y356293D1*
X-452598Y-343629D2*
X-452553Y-344613D1*
X-452448Y-345597D1*
X-451951Y-346581D1*
X-450772Y-347566D1*
X-449231Y-348550D1*
X-447359Y-349534D1*
X-445250Y-350518D1*
X-443063Y-351503D1*
X-440910Y-352487D1*
X-438804Y-353471D1*
X-436855Y-354455D1*
X-435250Y-355440D1*
X-433898Y-356424D1*
X-435904Y-357408D1*
X-437998Y-358392D1*
X-440203Y-359377D1*
X-442427Y-360361D1*
X-444598Y-361345D1*
X-446741Y-362329D1*
X-448785Y-363314D1*
X-450460Y-364298D1*
X-451747Y-365282D1*
X-452191Y-366266D1*
X-452439Y-367251D1*
X-452598Y-368235D1*
X-423071Y-343629D2*
Y-344613D1*
Y-345597D1*
Y-346581D1*
X-444724D2*
X-442756Y-347566D1*
X-440784Y-348550D1*
X-438780Y-349534D1*
X-436687Y-350518D1*
X-434490Y-351503D1*
X-432346Y-352487D1*
X-430534Y-353471D1*
X-429068Y-354455D1*
X-428437Y-355440D1*
X-428315Y-356424D1*
X-428814Y-357408D1*
X-430231Y-358392D1*
X-432018Y-359377D1*
X-434057Y-360361D1*
X-436256Y-361345D1*
X-438481Y-362329D1*
X-440625Y-363314D1*
X-442691Y-364298D1*
X-444724Y-365282D1*
X-423071D2*
Y-366266D1*
Y-367251D1*
Y-368235D1*
X-444724Y-376109D2*
X-446916Y-377093D1*
X-448633Y-378077D1*
X-449850Y-379062D1*
X-450767Y-380046D1*
X-451510Y-381030D1*
X-452041Y-382014D1*
X-452345Y-382999D1*
X-452493Y-383983D1*
X-452558Y-384967D1*
X-452584Y-385951D1*
X-452593Y-386936D1*
Y-387920D1*
X-452559Y-388904D1*
X-452431Y-389888D1*
X-452156Y-390873D1*
X-451740Y-391857D1*
X-451165Y-392841D1*
X-450384Y-393825D1*
X-449367Y-394810D1*
X-448100Y-395794D1*
X-446693Y-396778D1*
X-430945Y-376109D2*
X-429174Y-377093D1*
X-427648Y-378077D1*
X-426464Y-379062D1*
X-425594Y-380046D1*
X-424953Y-381030D1*
X-424478Y-382014D1*
X-424101Y-382999D1*
X-423743Y-383983D1*
X-423437Y-384967D1*
X-423248Y-385951D1*
X-423183Y-386936D1*
X-423264Y-387920D1*
X-423485Y-388904D1*
X-423769Y-389888D1*
X-424102Y-390873D1*
X-424592Y-391857D1*
X-425289Y-392841D1*
X-426168Y-393825D1*
X-427241Y-394810D1*
X-428536Y-395794D1*
X-429961Y-396778D1*
X-445709Y-380046D2*
X-446655Y-381030D1*
X-447510Y-382014D1*
X-448220Y-382999D1*
X-448788Y-383983D1*
X-449201Y-384967D1*
X-449438Y-385951D1*
X-449518Y-386936D1*
X-449491Y-387920D1*
X-449045Y-388904D1*
X-448347Y-389888D1*
X-447358Y-390873D1*
X-446047Y-391857D1*
X-444462Y-392841D1*
X-442756Y-393825D1*
X-430945Y-380046D2*
X-429964Y-381030D1*
X-429019Y-382014D1*
X-428198Y-382999D1*
X-427614Y-383983D1*
X-427281Y-384967D1*
X-427125Y-385951D1*
X-427090Y-386936D1*
X-427192Y-387920D1*
X-427463Y-388904D1*
X-427952Y-389888D1*
X-428644Y-390873D1*
X-430333Y-391857D1*
X-432489Y-392841D1*
X-434882Y-393825D1*
X-452598Y-404652D2*
Y-405636D1*
Y-406621D1*
Y-407605D1*
Y-408589D1*
Y-409573D1*
Y-410558D1*
Y-411542D1*
Y-412526D1*
Y-413510D1*
Y-414495D1*
X-452595Y-415479D1*
X-452560Y-416463D1*
X-452431Y-417448D1*
X-452160Y-418432D1*
X-451775Y-419416D1*
X-451294Y-420400D1*
X-450654Y-421385D1*
X-449730Y-422369D1*
X-448411Y-423353D1*
X-446685Y-424337D1*
X-444724Y-425322D1*
X-423071Y-404652D2*
Y-405636D1*
Y-406621D1*
Y-407605D1*
Y-408589D1*
Y-409573D1*
Y-410558D1*
Y-411542D1*
Y-412526D1*
X-423075Y-413510D1*
X-423109Y-414495D1*
X-423235Y-415479D1*
X-423474Y-416463D1*
X-423761Y-417448D1*
X-424062Y-418432D1*
X-424428Y-419416D1*
X-424890Y-420400D1*
X-425520Y-421385D1*
X-426471Y-422369D1*
X-427887Y-423353D1*
X-429784Y-424337D1*
X-431929Y-425322D1*
X-449646Y-407605D2*
Y-408589D1*
Y-409573D1*
Y-410558D1*
Y-411542D1*
Y-412526D1*
X-449642Y-413510D1*
X-449607Y-414495D1*
X-449478Y-415479D1*
X-449204Y-416463D1*
X-448788Y-417448D1*
X-448216Y-418432D1*
X-447474Y-419416D1*
X-446614Y-420400D1*
X-445709Y-421385D1*
X-427008Y-407605D2*
Y-408589D1*
Y-409573D1*
Y-410558D1*
Y-411542D1*
Y-412526D1*
Y-413510D1*
X-427012Y-414495D1*
X-427050Y-415479D1*
X-427214Y-416463D1*
X-427614Y-417448D1*
X-428266Y-418432D1*
X-429089Y-419416D1*
X-430001Y-420400D1*
X-430945Y-421385D1*
X-452598Y-433196D2*
Y-434180D1*
Y-435164D1*
Y-436148D1*
Y-437133D1*
Y-438117D1*
Y-439101D1*
Y-440085D1*
Y-441070D1*
Y-442054D1*
Y-443038D1*
Y-444022D1*
Y-445007D1*
Y-445991D1*
Y-446975D1*
Y-447959D1*
Y-448944D1*
Y-449928D1*
Y-450912D1*
Y-451896D1*
X-423071Y-433196D2*
Y-434180D1*
Y-435164D1*
Y-436148D1*
Y-437133D1*
Y-438117D1*
Y-439101D1*
Y-440085D1*
Y-441070D1*
Y-442054D1*
Y-443038D1*
Y-444022D1*
Y-445007D1*
Y-445991D1*
Y-446975D1*
Y-447959D1*
Y-448944D1*
Y-449928D1*
Y-450912D1*
Y-451896D1*
X-449646Y-436148D2*
Y-437133D1*
Y-438117D1*
Y-439101D1*
Y-440085D1*
Y-441070D1*
Y-442054D1*
Y-443038D1*
Y-444022D1*
Y-445007D1*
Y-445991D1*
Y-446975D1*
Y-447959D1*
Y-448944D1*
Y-449928D1*
Y-450912D1*
Y-451896D1*
X-439803Y-436148D2*
Y-437133D1*
Y-438117D1*
Y-439101D1*
Y-440085D1*
Y-441070D1*
Y-442054D1*
Y-443038D1*
Y-444022D1*
Y-445007D1*
X-439799Y-445991D1*
X-439762Y-446975D1*
X-439610Y-447959D1*
X-439273Y-448944D1*
X-438819Y-449928D1*
X-435866Y-436148D2*
Y-437133D1*
Y-438117D1*
Y-439101D1*
Y-440085D1*
Y-441070D1*
Y-442054D1*
Y-443038D1*
Y-444022D1*
Y-445007D1*
Y-445991D1*
Y-446975D1*
Y-447959D1*
Y-448944D1*
Y-449928D1*
X-427008Y-436148D2*
Y-437133D1*
Y-438117D1*
Y-439101D1*
Y-440085D1*
Y-441070D1*
Y-442054D1*
Y-443038D1*
Y-444022D1*
Y-445007D1*
Y-445991D1*
Y-446975D1*
Y-447959D1*
Y-448944D1*
Y-449928D1*
Y-450912D1*
Y-451896D1*
X-112311Y-367844D2*
Y-368828D1*
Y-369813D1*
Y-370797D1*
Y-371781D1*
Y-372765D1*
Y-373750D1*
Y-374734D1*
Y-375718D1*
Y-376702D1*
Y-377687D1*
Y-378671D1*
Y-379655D1*
Y-380639D1*
Y-381624D1*
Y-382608D1*
Y-383592D1*
Y-384576D1*
Y-385561D1*
Y-386545D1*
Y-387529D1*
Y-388513D1*
Y-389498D1*
Y-390482D1*
Y-391466D1*
Y-392450D1*
Y-393435D1*
Y-394419D1*
Y-395403D1*
Y-396387D1*
Y-397372D1*
Y-398356D1*
Y-399340D1*
Y-400324D1*
Y-401309D1*
Y-402293D1*
Y-403277D1*
Y-404261D1*
Y-405246D1*
X-108374Y-367844D2*
Y-368828D1*
Y-369813D1*
Y-370797D1*
Y-371781D1*
Y-372765D1*
Y-373750D1*
Y-374734D1*
Y-375718D1*
Y-376702D1*
Y-377687D1*
Y-378671D1*
Y-379655D1*
Y-380639D1*
Y-381624D1*
Y-382608D1*
Y-383592D1*
Y-384576D1*
Y-385561D1*
Y-386545D1*
Y-387529D1*
Y-388513D1*
Y-389498D1*
Y-390482D1*
Y-391466D1*
Y-392450D1*
Y-393435D1*
Y-394419D1*
Y-395403D1*
Y-396387D1*
Y-397372D1*
Y-398356D1*
Y-399340D1*
Y-400324D1*
Y-401309D1*
Y-402293D1*
Y-403277D1*
Y-404261D1*
Y-405246D1*
X72728Y-367844D2*
Y-368828D1*
Y-369813D1*
Y-370797D1*
Y-371781D1*
Y-372765D1*
Y-373750D1*
Y-374734D1*
Y-375718D1*
Y-376702D1*
Y-377687D1*
Y-378671D1*
Y-379655D1*
Y-380639D1*
Y-381624D1*
Y-382608D1*
Y-383592D1*
Y-384576D1*
Y-385561D1*
Y-386545D1*
Y-387529D1*
Y-388513D1*
Y-389498D1*
Y-390482D1*
Y-391466D1*
Y-392450D1*
Y-393435D1*
Y-394419D1*
Y-395403D1*
Y-396387D1*
Y-397372D1*
Y-398356D1*
Y-399340D1*
Y-400324D1*
Y-401309D1*
Y-402293D1*
Y-403277D1*
Y-404261D1*
Y-405246D1*
X76665Y-367844D2*
Y-368828D1*
Y-369813D1*
Y-370797D1*
Y-371781D1*
Y-372765D1*
Y-373750D1*
Y-374734D1*
Y-375718D1*
Y-376702D1*
Y-377687D1*
Y-378671D1*
Y-379655D1*
Y-380639D1*
Y-381624D1*
Y-382608D1*
Y-383592D1*
Y-384576D1*
Y-385561D1*
Y-386545D1*
Y-387529D1*
Y-388513D1*
Y-389498D1*
Y-390482D1*
Y-391466D1*
Y-392450D1*
Y-393435D1*
Y-394419D1*
Y-395403D1*
Y-396387D1*
Y-397372D1*
Y-398356D1*
Y-399340D1*
Y-400324D1*
Y-401309D1*
Y-402293D1*
Y-403277D1*
Y-404261D1*
Y-405246D1*
X-270776Y-371781D2*
X-270772Y-372765D1*
X-270737Y-373750D1*
X-270612Y-374734D1*
X-270372Y-375718D1*
X-270085Y-376702D1*
X-269788Y-377687D1*
X-269461Y-378671D1*
X-269163Y-379655D1*
X-268940Y-380639D1*
X-268716Y-381624D1*
X-268433Y-382608D1*
X-268127Y-383592D1*
X-267823Y-384576D1*
X-267490Y-385561D1*
X-267160Y-386545D1*
X-266846Y-387529D1*
X-266512Y-388513D1*
X-266212Y-389498D1*
X-265987Y-390482D1*
X-265764Y-391466D1*
X-265480Y-392450D1*
X-265175Y-393435D1*
X-264871Y-394419D1*
X-264537Y-395403D1*
X-264208Y-396387D1*
X-263893Y-397372D1*
X-263559Y-398356D1*
X-263260Y-399340D1*
X-263055Y-400324D1*
X-262902Y-401309D1*
X-255028Y-371781D2*
Y-372765D1*
Y-373750D1*
Y-374734D1*
Y-375718D1*
Y-376702D1*
Y-377687D1*
Y-378671D1*
Y-379655D1*
X-249122Y-371781D2*
X-249118Y-372765D1*
X-249084Y-373750D1*
X-248958Y-374734D1*
X-248719Y-375718D1*
X-248432Y-376702D1*
X-248135Y-377687D1*
X-247808Y-378671D1*
X-247510Y-379655D1*
X-247286Y-380639D1*
X-247063Y-381624D1*
X-246779Y-382608D1*
X-246474Y-383592D1*
X-246170Y-384576D1*
X-245837Y-385561D1*
X-245507Y-386545D1*
X-245192Y-387529D1*
X-244859Y-388513D1*
X-244558Y-389498D1*
X-244334Y-390482D1*
X-244110Y-391466D1*
X-243826Y-392450D1*
X-243521Y-393435D1*
X-243217Y-394419D1*
X-242884Y-395403D1*
X-242554Y-396387D1*
X-242240Y-397372D1*
X-241906Y-398356D1*
X-241606Y-399340D1*
X-241401Y-400324D1*
X-241248Y-401309D1*
X-233374Y-371781D2*
Y-372765D1*
Y-373750D1*
Y-374734D1*
Y-375718D1*
Y-376702D1*
Y-377687D1*
Y-378671D1*
Y-379655D1*
X-222547Y-371781D2*
X-222173Y-372765D1*
X-221750Y-373750D1*
X-221293Y-374734D1*
X-220815Y-375718D1*
X-220330Y-376702D1*
X-219839Y-377687D1*
X-219348Y-378671D1*
X-218856Y-379655D1*
X-218365Y-380639D1*
X-217872Y-381624D1*
X-217380Y-382608D1*
X-216891Y-383592D1*
X-216431Y-384576D1*
X-216032Y-385561D1*
X-215682Y-386545D1*
X-215301Y-387529D1*
X-214870Y-388513D1*
X-214404Y-389498D1*
X-213898Y-390482D1*
X-213329Y-391466D1*
X-212705Y-392450D1*
X-220579Y-393435D1*
X-218610Y-371781D2*
X-218236Y-372765D1*
X-217813Y-373750D1*
X-217356Y-374734D1*
X-216882Y-375718D1*
X-216427Y-376702D1*
X-216031Y-377687D1*
X-215682Y-378671D1*
X-215300Y-379655D1*
X-214870Y-380639D1*
X-214408Y-381624D1*
X-213927Y-382608D1*
X-213441Y-383592D1*
X-212949Y-384576D1*
X-212459Y-385561D1*
X-211966Y-386545D1*
X-211475Y-387529D1*
X-210982Y-388513D1*
X-210491Y-389498D1*
X-210001Y-390482D1*
X-209545Y-391466D1*
X-209181Y-392450D1*
X-208960Y-393435D1*
X-208849Y-394419D1*
X-208797Y-395403D1*
X-208768Y-396387D1*
X-197941Y-371781D2*
X-199224Y-372765D1*
X-200212Y-373750D1*
X-200955Y-374734D1*
X-201556Y-375718D1*
X-202055Y-376702D1*
X-202401Y-377687D1*
X-202592Y-378671D1*
X-202399Y-379655D1*
X-202145Y-380639D1*
X-201860Y-381624D1*
X-201502Y-382608D1*
X-201050Y-383592D1*
X-200497Y-384576D1*
X-199873Y-385561D1*
X-199241Y-386545D1*
X-198564Y-387529D1*
X-197807Y-388513D1*
X-197047Y-389498D1*
X-196343Y-390482D1*
X-195633Y-391466D1*
X-194862Y-392450D1*
X-194097Y-393435D1*
X-193391Y-394419D1*
X-192677Y-395403D1*
X-191872Y-396387D1*
X-190987Y-397372D1*
X-190067Y-398356D1*
X-191051Y-371781D2*
X-189650Y-372765D1*
X-188513Y-373750D1*
X-187660Y-374734D1*
X-187029Y-375718D1*
X-186587Y-376702D1*
X-186319Y-377687D1*
X-186130Y-378671D1*
X-173335Y-371781D2*
X-174769Y-372765D1*
X-175998Y-373750D1*
X-176965Y-374734D1*
X-177648Y-375718D1*
X-178131Y-376702D1*
X-178537Y-377687D1*
X-178859Y-378671D1*
X-179025Y-379655D1*
X-179001Y-380639D1*
X-178807Y-381624D1*
X-178535Y-382608D1*
X-178206Y-383592D1*
X-177714Y-384576D1*
X-176991Y-385561D1*
X-176067Y-386545D1*
X-175108Y-387529D1*
X-174266Y-388513D1*
X-174063Y-389498D1*
X-174334Y-390482D1*
X-174787Y-391466D1*
X-175363Y-392450D1*
X-175943Y-393435D1*
X-176488Y-394419D1*
X-177007Y-395403D1*
X-177510Y-396387D1*
X-178008Y-397372D1*
X-178504Y-398356D1*
X-179023Y-399340D1*
X-179597Y-400324D1*
X-180224Y-401309D1*
X-158571Y-371781D2*
Y-372765D1*
Y-373750D1*
Y-374734D1*
Y-375718D1*
Y-376702D1*
Y-377687D1*
Y-378671D1*
Y-379655D1*
Y-380639D1*
Y-381624D1*
Y-382608D1*
Y-383592D1*
Y-384576D1*
Y-385561D1*
Y-386545D1*
Y-387529D1*
Y-388513D1*
Y-389498D1*
Y-390482D1*
Y-391466D1*
Y-392450D1*
Y-393435D1*
Y-394419D1*
Y-395403D1*
Y-396387D1*
Y-397372D1*
Y-398356D1*
Y-399340D1*
Y-400324D1*
Y-401309D1*
X-144791Y-371781D2*
X-146529Y-372765D1*
X-147963Y-373750D1*
X-149037Y-374734D1*
X-149890Y-375718D1*
X-150608Y-376702D1*
X-151132Y-377687D1*
X-151454Y-378671D1*
X-151681Y-379655D1*
X-138886Y-371781D2*
X-136997Y-372765D1*
X-135482Y-373750D1*
X-134341Y-374734D1*
X-133504Y-375718D1*
X-132884Y-376702D1*
X-132448Y-377687D1*
X-132165Y-378671D1*
X-131919Y-379655D1*
X-131630Y-380639D1*
X-131356Y-381624D1*
X-131177Y-382608D1*
X-131083Y-383592D1*
X-131040Y-384576D1*
X-131022Y-385561D1*
X-131016Y-386545D1*
X-131013Y-387529D1*
X-131016Y-388513D1*
X-131050Y-389498D1*
X-131176Y-390482D1*
X-131411Y-391466D1*
X-131668Y-392450D1*
X-131874Y-393435D1*
X-132094Y-394419D1*
X-132410Y-395403D1*
X-132844Y-396387D1*
X-133429Y-397372D1*
X-134250Y-398356D1*
X-135420Y-399340D1*
X-137024Y-400324D1*
X-138886Y-401309D1*
X-83768Y-371781D2*
X-85202Y-372765D1*
X-86431Y-373750D1*
X-87394Y-374734D1*
X-88151Y-375718D1*
X-88427Y-376702D1*
X-88578Y-377687D1*
X-88645Y-378671D1*
X-88673Y-379655D1*
X-88683Y-380639D1*
X-88687Y-381624D1*
X-88688Y-382608D1*
X-88689Y-383592D1*
Y-384576D1*
Y-385561D1*
Y-386545D1*
Y-387529D1*
Y-388513D1*
Y-389498D1*
Y-390482D1*
Y-391466D1*
Y-392450D1*
Y-393435D1*
X-88685Y-394419D1*
X-88647Y-395403D1*
X-88483Y-396387D1*
X-88079Y-397372D1*
X-87390Y-398356D1*
X-86414Y-399340D1*
X-85166Y-400324D1*
X-83768Y-401309D1*
X-77862Y-371781D2*
X-76427Y-372765D1*
X-75199Y-373750D1*
X-74236Y-374734D1*
X-73479Y-375718D1*
X-73165Y-376702D1*
X-72889Y-377687D1*
X-72585Y-378671D1*
X-72305Y-379655D1*
X-72123Y-380639D1*
X-72028Y-381624D1*
X-71985Y-382608D1*
X-71967Y-383592D1*
X-71960Y-384576D1*
X-71958Y-385561D1*
X-71957Y-386545D1*
Y-387529D1*
Y-388513D1*
Y-389498D1*
X-71961Y-390482D1*
X-71995Y-391466D1*
X-72121Y-392450D1*
X-72356Y-393435D1*
X-72613Y-394419D1*
X-72823Y-395403D1*
X-73078Y-396387D1*
X-73523Y-397372D1*
X-74230Y-398356D1*
X-75212Y-399340D1*
X-76463Y-400324D1*
X-77862Y-401309D1*
X-64083Y-371781D2*
Y-372765D1*
Y-373750D1*
Y-374734D1*
Y-375718D1*
X-53256D1*
Y-376702D1*
Y-377687D1*
X-53260Y-378671D1*
X-53297Y-379655D1*
X-53449Y-380639D1*
X-53786Y-381624D1*
X-54240Y-382608D1*
X-49319Y-371781D2*
Y-372765D1*
Y-373750D1*
Y-374734D1*
Y-375718D1*
Y-376702D1*
Y-377687D1*
Y-378671D1*
Y-379655D1*
Y-380639D1*
Y-381624D1*
Y-382608D1*
Y-383592D1*
Y-384576D1*
Y-385561D1*
Y-386545D1*
Y-387529D1*
X-37508Y-371781D2*
X-37134Y-372765D1*
X-36711Y-373750D1*
X-36254Y-374734D1*
X-35776Y-375718D1*
X-35290Y-376702D1*
X-34800Y-377687D1*
X-34309Y-378671D1*
X-33816Y-379655D1*
X-33325Y-380639D1*
X-32832Y-381624D1*
X-32341Y-382608D1*
X-31852Y-383592D1*
X-31391Y-384576D1*
X-30993Y-385561D1*
X-30643Y-386545D1*
X-30261Y-387529D1*
X-29830Y-388513D1*
X-29365Y-389498D1*
X-28859Y-390482D1*
X-28290Y-391466D1*
X-27665Y-392450D1*
X-35539Y-393435D1*
X-33571Y-371781D2*
X-33197Y-372765D1*
X-32774Y-373750D1*
X-32317Y-374734D1*
X-31843Y-375718D1*
X-31388Y-376702D1*
X-30992Y-377687D1*
X-30642Y-378671D1*
X-30261Y-379655D1*
X-29830Y-380639D1*
X-29368Y-381624D1*
X-28888Y-382608D1*
X-28401Y-383592D1*
X-27910Y-384576D1*
X-27419Y-385561D1*
X-26927Y-386545D1*
X-26435Y-387529D1*
X-25943Y-388513D1*
X-25451Y-389498D1*
X-24962Y-390482D1*
X-24505Y-391466D1*
X-24142Y-392450D1*
X-23921Y-393435D1*
X-23809Y-394419D1*
X-23758Y-395403D1*
X-23728Y-396387D1*
X-12902Y-371781D2*
X-14184Y-372765D1*
X-15173Y-373750D1*
X-15916Y-374734D1*
X-16517Y-375718D1*
X-17015Y-376702D1*
X-17362Y-377687D1*
X-17552Y-378671D1*
X-17359Y-379655D1*
X-17106Y-380639D1*
X-16821Y-381624D1*
X-16462Y-382608D1*
X-16011Y-383592D1*
X-15457Y-384576D1*
X-14833Y-385561D1*
X-14201Y-386545D1*
X-13525Y-387529D1*
X-12767Y-388513D1*
X-12008Y-389498D1*
X-11304Y-390482D1*
X-10594Y-391466D1*
X-9823Y-392450D1*
X-9058Y-393435D1*
X-8352Y-394419D1*
X-7638Y-395403D1*
X-6832Y-396387D1*
X-5947Y-397372D1*
X-5028Y-398356D1*
X-6012Y-371781D2*
X-4611Y-372765D1*
X-3474Y-373750D1*
X-2621Y-374734D1*
X-1989Y-375718D1*
X-1548Y-376702D1*
X-1279Y-377687D1*
X-1091Y-378671D1*
X11705Y-371781D2*
X10270Y-372765D1*
X9041Y-373750D1*
X8074Y-374734D1*
X7392Y-375718D1*
X6908Y-376702D1*
X6502Y-377687D1*
X6181Y-378671D1*
X6015Y-379655D1*
X6038Y-380639D1*
X6232Y-381624D1*
X6504Y-382608D1*
X6833Y-383592D1*
X7325Y-384576D1*
X8049Y-385561D1*
X8972Y-386545D1*
X9931Y-387529D1*
X10773Y-388513D1*
X10977Y-389498D1*
X10706Y-390482D1*
X10252Y-391466D1*
X9676Y-392450D1*
X9096Y-393435D1*
X8551Y-394419D1*
X8032Y-395403D1*
X7529Y-396387D1*
X7032Y-397372D1*
X6536Y-398356D1*
X6017Y-399340D1*
X5442Y-400324D1*
X4815Y-401309D1*
X26469Y-371781D2*
Y-372765D1*
Y-373750D1*
Y-374734D1*
Y-375718D1*
Y-376702D1*
Y-377687D1*
Y-378671D1*
Y-379655D1*
Y-380639D1*
Y-381624D1*
Y-382608D1*
Y-383592D1*
Y-384576D1*
Y-385561D1*
Y-386545D1*
Y-387529D1*
Y-388513D1*
Y-389498D1*
Y-390482D1*
Y-391466D1*
Y-392450D1*
Y-393435D1*
Y-394419D1*
Y-395403D1*
Y-396387D1*
Y-397372D1*
Y-398356D1*
Y-399340D1*
Y-400324D1*
Y-401309D1*
X40248Y-371781D2*
X38510Y-372765D1*
X37077Y-373750D1*
X36003Y-374734D1*
X35149Y-375718D1*
X34431Y-376702D1*
X33907Y-377687D1*
X33585Y-378671D1*
X33358Y-379655D1*
X46154Y-371781D2*
X48043Y-372765D1*
X49558Y-373750D1*
X50699Y-374734D1*
X51536Y-375718D1*
X52155Y-376702D1*
X52591Y-377687D1*
X52874Y-378671D1*
X53121Y-379655D1*
X53409Y-380639D1*
X53683Y-381624D1*
X53863Y-382608D1*
X53957Y-383592D1*
X53999Y-384576D1*
X54017Y-385561D1*
X54024Y-386545D1*
X54026Y-387529D1*
X54023Y-388513D1*
X53989Y-389498D1*
X53864Y-390482D1*
X53628Y-391466D1*
X53372Y-392450D1*
X53165Y-393435D1*
X52945Y-394419D1*
X52629Y-395403D1*
X52196Y-396387D1*
X51610Y-397372D1*
X50789Y-398356D1*
X49619Y-399340D1*
X48016Y-400324D1*
X46154Y-401309D1*
X101272Y-371781D2*
X99837Y-372765D1*
X98608Y-373750D1*
X97645Y-374734D1*
X96889Y-375718D1*
X96612Y-376702D1*
X96462Y-377687D1*
X96394Y-378671D1*
X96366Y-379655D1*
X96356Y-380639D1*
X96352Y-381624D1*
X96351Y-382608D1*
Y-383592D1*
X96350Y-384576D1*
Y-385561D1*
Y-386545D1*
Y-387529D1*
Y-388513D1*
Y-389498D1*
Y-390482D1*
Y-391466D1*
Y-392450D1*
Y-393435D1*
X96354Y-394419D1*
X96393Y-395403D1*
X96557Y-396387D1*
X96960Y-397372D1*
X97649Y-398356D1*
X98625Y-399340D1*
X99874Y-400324D1*
X101272Y-401309D1*
X107177Y-371781D2*
X108612Y-372765D1*
X109840Y-373750D1*
X110804Y-374734D1*
X111560Y-375718D1*
X111874Y-376702D1*
X112151Y-377687D1*
X112454Y-378671D1*
X112734Y-379655D1*
X112916Y-380639D1*
X113011Y-381624D1*
X113054Y-382608D1*
X113072Y-383592D1*
X113079Y-384576D1*
X113081Y-385561D1*
X113082Y-386545D1*
X113083Y-387529D1*
Y-388513D1*
Y-389498D1*
X113079Y-390482D1*
X113044Y-391466D1*
X112919Y-392450D1*
X112683Y-393435D1*
X112427Y-394419D1*
X112217Y-395403D1*
X111962Y-396387D1*
X111516Y-397372D1*
X110810Y-398356D1*
X109828Y-399340D1*
X108576Y-400324D1*
X107177Y-401309D1*
X124894Y-371781D2*
X123459Y-372765D1*
X122230Y-373750D1*
X121267Y-374734D1*
X120511Y-375718D1*
X120234Y-376702D1*
X120084Y-377687D1*
X120020Y-378671D1*
X120027Y-379655D1*
X120146Y-380639D1*
X120420Y-381624D1*
X120872Y-382608D1*
X121593Y-383592D1*
X122655Y-384576D1*
X123909Y-385561D1*
X122745Y-386545D1*
X121746Y-387529D1*
X120959Y-388513D1*
X120325Y-389498D1*
X119805Y-390482D1*
X119416Y-391466D1*
X119190Y-392450D1*
X119110Y-393435D1*
X119188Y-394419D1*
X119438Y-395403D1*
X119816Y-396387D1*
X120297Y-397372D1*
X120967Y-398356D1*
X121974Y-399340D1*
X123347Y-400324D1*
X124894Y-401309D1*
X130799Y-371781D2*
X132200Y-372765D1*
X133337Y-373750D1*
X134190Y-374734D1*
X134822Y-375718D1*
X135263Y-376702D1*
X135532Y-377687D1*
X135720Y-378671D1*
X146547Y-371781D2*
X146921Y-372765D1*
X147344Y-373750D1*
X147801Y-374734D1*
X148279Y-375718D1*
X148765Y-376702D1*
X149256Y-377687D1*
X149746Y-378671D1*
X150239Y-379655D1*
X150730Y-380639D1*
X151223Y-381624D1*
X151714Y-382608D1*
X152203Y-383592D1*
X152664Y-384576D1*
X153062Y-385561D1*
X153412Y-386545D1*
X153794Y-387529D1*
X154225Y-388513D1*
X154690Y-389498D1*
X155196Y-390482D1*
X155765Y-391466D1*
X156390Y-392450D1*
X148516Y-393435D1*
X150484Y-371781D2*
X150858Y-372765D1*
X151281Y-373750D1*
X151738Y-374734D1*
X152213Y-375718D1*
X152667Y-376702D1*
X153063Y-377687D1*
X153413Y-378671D1*
X153794Y-379655D1*
X154225Y-380639D1*
X154687Y-381624D1*
X155167Y-382608D1*
X155654Y-383592D1*
X156145Y-384576D1*
X156636Y-385561D1*
X157128Y-386545D1*
X157620Y-387529D1*
X158113Y-388513D1*
X158604Y-389498D1*
X159093Y-390482D1*
X159550Y-391466D1*
X159913Y-392450D1*
X160134Y-393435D1*
X160246Y-394419D1*
X160297Y-395403D1*
X160327Y-396387D1*
X171154Y-371781D2*
X169871Y-372765D1*
X168883Y-373750D1*
X168139Y-374734D1*
X167538Y-375718D1*
X167040Y-376702D1*
X166694Y-377687D1*
X166503Y-378671D1*
X166696Y-379655D1*
X166949Y-380639D1*
X167234Y-381624D1*
X167593Y-382608D1*
X168045Y-383592D1*
X168598Y-384576D1*
X169222Y-385561D1*
X169854Y-386545D1*
X170531Y-387529D1*
X171288Y-388513D1*
X172048Y-389498D1*
X172751Y-390482D1*
X173461Y-391466D1*
X174232Y-392450D1*
X174997Y-393435D1*
X175703Y-394419D1*
X176418Y-395403D1*
X177223Y-396387D1*
X178108Y-397372D1*
X179028Y-398356D1*
X178043Y-371781D2*
X179444Y-372765D1*
X180581Y-373750D1*
X181434Y-374734D1*
X182066Y-375718D1*
X182507Y-376702D1*
X182776Y-377687D1*
X182965Y-378671D1*
X195760Y-371781D2*
X194325Y-372765D1*
X193097Y-373750D1*
X192129Y-374734D1*
X191447Y-375718D1*
X190963Y-376702D1*
X190557Y-377687D1*
X190236Y-378671D1*
X190070Y-379655D1*
X190093Y-380639D1*
X190287Y-381624D1*
X190560Y-382608D1*
X190888Y-383592D1*
X191380Y-384576D1*
X192104Y-385561D1*
X193028Y-386545D1*
X193986Y-387529D1*
X194828Y-388513D1*
X195032Y-389498D1*
X194761Y-390482D1*
X194307Y-391466D1*
X193731Y-392450D1*
X193151Y-393435D1*
X192606Y-394419D1*
X192087Y-395403D1*
X191584Y-396387D1*
X191087Y-397372D1*
X190591Y-398356D1*
X190072Y-399340D1*
X189497Y-400324D1*
X188870Y-401309D1*
X210524Y-371781D2*
Y-372765D1*
Y-373750D1*
Y-374734D1*
Y-375718D1*
Y-376702D1*
Y-377687D1*
Y-378671D1*
Y-379655D1*
Y-380639D1*
Y-381624D1*
Y-382608D1*
Y-383592D1*
Y-384576D1*
Y-385561D1*
Y-386545D1*
Y-387529D1*
Y-388513D1*
Y-389498D1*
Y-390482D1*
Y-391466D1*
Y-392450D1*
Y-393435D1*
Y-394419D1*
Y-395403D1*
Y-396387D1*
Y-397372D1*
Y-398356D1*
Y-399340D1*
Y-400324D1*
Y-401309D1*
X224303Y-371781D2*
X222566Y-372765D1*
X221132Y-373750D1*
X220058Y-374734D1*
X219204Y-375718D1*
X218486Y-376702D1*
X217962Y-377687D1*
X217640Y-378671D1*
X217413Y-379655D1*
X230209Y-371781D2*
X232098Y-372765D1*
X233613Y-373750D1*
X234754Y-374734D1*
X235591Y-375718D1*
X236210Y-376702D1*
X236646Y-377687D1*
X236929Y-378671D1*
X237176Y-379655D1*
X237464Y-380639D1*
X237738Y-381624D1*
X237918Y-382608D1*
X238012Y-383592D1*
X238055Y-384576D1*
X238072Y-385561D1*
X238079Y-386545D1*
X238081Y-387529D1*
X238078Y-388513D1*
X238044Y-389498D1*
X237919Y-390482D1*
X237683Y-391466D1*
X237427Y-392450D1*
X237221Y-393435D1*
X237000Y-394419D1*
X236684Y-395403D1*
X236251Y-396387D1*
X235665Y-397372D1*
X234844Y-398356D1*
X233674Y-399340D1*
X232071Y-400324D1*
X230209Y-401309D1*
X-266839Y-374734D2*
X-266686Y-375718D1*
X-266439Y-376702D1*
X-266149Y-377687D1*
X-265851Y-378671D1*
X-265520Y-379655D1*
X-265192Y-380639D1*
X-264877Y-381624D1*
X-264544Y-382608D1*
X-264243Y-383592D1*
X-264019Y-384576D1*
X-263795Y-385561D1*
X-263511Y-386545D1*
X-263206Y-387529D1*
X-262902Y-388513D1*
X-262569Y-389498D1*
X-262239Y-390482D1*
X-261925Y-391466D1*
X-261591Y-392450D1*
X-261290Y-393435D1*
X-261066Y-394419D1*
X-260842Y-395403D1*
X-260559Y-396387D1*
X-260253Y-397372D1*
X-259949Y-398356D1*
X-259611Y-399340D1*
X-259273Y-400324D1*
X-258965Y-401309D1*
X-257980Y-374734D2*
Y-375718D1*
Y-376702D1*
Y-377687D1*
Y-378671D1*
Y-379655D1*
X-245185Y-374734D2*
X-245033Y-375718D1*
X-244785Y-376702D1*
X-244496Y-377687D1*
X-244198Y-378671D1*
X-243867Y-379655D1*
X-243538Y-380639D1*
X-243224Y-381624D1*
X-242890Y-382608D1*
X-242590Y-383592D1*
X-242365Y-384576D1*
X-242142Y-385561D1*
X-241858Y-386545D1*
X-241553Y-387529D1*
X-241249Y-388513D1*
X-240915Y-389498D1*
X-240586Y-390482D1*
X-240271Y-391466D1*
X-239937Y-392450D1*
X-239637Y-393435D1*
X-239412Y-394419D1*
X-239189Y-395403D1*
X-238905Y-396387D1*
X-238600Y-397372D1*
X-238295Y-398356D1*
X-237957Y-399340D1*
X-237620Y-400324D1*
X-237311Y-401309D1*
X-236327Y-374734D2*
Y-375718D1*
Y-376702D1*
Y-377687D1*
Y-378671D1*
Y-379655D1*
X-194004Y-374734D2*
X-195738Y-375718D1*
X-197133Y-376702D1*
X-198206Y-377687D1*
X-198628Y-378671D1*
X-198633Y-379655D1*
X-198436Y-380639D1*
X-198086Y-381624D1*
X-197653Y-382608D1*
X-197150Y-383592D1*
X-196542Y-384576D1*
X-195817Y-385561D1*
X-195070Y-386545D1*
X-194372Y-387529D1*
X-193660Y-388513D1*
X-192859Y-389498D1*
X-192003Y-390482D1*
X-191187Y-391466D1*
X-190456Y-392450D1*
X-189735Y-393435D1*
X-188959Y-394419D1*
X-188196Y-395403D1*
X-187528Y-396387D1*
X-186978Y-397372D1*
X-186571Y-398356D1*
X-186332Y-399340D1*
X-186208Y-400324D1*
X-186130Y-401309D1*
X-194004Y-374734D2*
X-192381Y-375718D1*
X-191070Y-376702D1*
X-190029Y-377687D1*
X-189083Y-378671D1*
X-170382Y-374734D2*
X-172001Y-375718D1*
X-173278Y-376702D1*
X-174174Y-377687D1*
X-174844Y-378671D1*
X-175043Y-379655D1*
X-175117Y-380639D1*
X-174871Y-381624D1*
X-174211Y-382608D1*
X-171618Y-383592D1*
X-167171Y-384576D1*
X-161524Y-385561D1*
X-162508Y-374734D2*
Y-375718D1*
Y-376702D1*
Y-377687D1*
Y-378671D1*
Y-379655D1*
Y-380639D1*
Y-381624D1*
Y-382608D1*
Y-383592D1*
Y-384576D1*
X-171366Y-385561D1*
X-141839Y-374734D2*
X-143610Y-375718D1*
X-145132Y-376702D1*
X-146295Y-377687D1*
X-147110Y-378671D1*
X-147744Y-379655D1*
X-141839Y-374734D2*
X-140067Y-375718D1*
X-138542Y-376702D1*
X-137357Y-377687D1*
X-136488Y-378671D1*
X-135850Y-379655D1*
X-135410Y-380639D1*
X-135159Y-381624D1*
X-135036Y-382608D1*
X-134983Y-383592D1*
X-134961Y-384576D1*
X-134953Y-385561D1*
X-134950Y-386545D1*
X-134949Y-387529D1*
Y-388513D1*
X-134953Y-389498D1*
X-134987Y-390482D1*
X-135117Y-391466D1*
X-135391Y-392450D1*
X-135811Y-393435D1*
X-136432Y-394419D1*
X-137255Y-395403D1*
X-139120Y-396387D1*
X-141726Y-397372D1*
X-144791Y-398356D1*
X-80815Y-374734D2*
X-82549Y-375718D1*
X-83944Y-376702D1*
X-85017Y-377687D1*
X-85390Y-378671D1*
X-85590Y-379655D1*
X-85679Y-380639D1*
X-85715Y-381624D1*
X-85729Y-382608D1*
X-85734Y-383592D1*
X-85735Y-384576D1*
X-85736Y-385561D1*
Y-386545D1*
Y-387529D1*
Y-388513D1*
Y-389498D1*
Y-390482D1*
Y-391466D1*
X-85732Y-392450D1*
X-85690Y-393435D1*
X-85586Y-394419D1*
X-85042Y-395403D1*
X-83358Y-396387D1*
X-80857Y-397372D1*
X-77862Y-398356D1*
X-80815Y-374734D2*
X-79081Y-375718D1*
X-77686Y-376702D1*
X-76613Y-377687D1*
X-76240Y-378671D1*
X-76040Y-379655D1*
X-75951Y-380639D1*
X-75915Y-381624D1*
X-75901Y-382608D1*
X-75896Y-383592D1*
X-75895Y-384576D1*
X-75894Y-385561D1*
Y-386545D1*
Y-387529D1*
Y-388513D1*
Y-389498D1*
Y-390482D1*
Y-391466D1*
X-75898Y-392450D1*
X-75940Y-393435D1*
X-76044Y-394419D1*
X-76588Y-395403D1*
X-78272Y-396387D1*
X-80773Y-397372D1*
X-83768Y-398356D1*
X-8965Y-374734D2*
X-10698Y-375718D1*
X-12094Y-376702D1*
X-13167Y-377687D1*
X-13588Y-378671D1*
X-13594Y-379655D1*
X-13396Y-380639D1*
X-13047Y-381624D1*
X-12613Y-382608D1*
X-12110Y-383592D1*
X-11503Y-384576D1*
X-10777Y-385561D1*
X-10031Y-386545D1*
X-9332Y-387529D1*
X-8620Y-388513D1*
X-7819Y-389498D1*
X-6964Y-390482D1*
X-6148Y-391466D1*
X-5417Y-392450D1*
X-4695Y-393435D1*
X-3920Y-394419D1*
X-3157Y-395403D1*
X-2489Y-396387D1*
X-1938Y-397372D1*
X-1532Y-398356D1*
X-1293Y-399340D1*
X-1169Y-400324D1*
X-1091Y-401309D1*
X-8965Y-374734D2*
X-7342Y-375718D1*
X-6031Y-376702D1*
X-4990Y-377687D1*
X-4043Y-378671D1*
X14657Y-374734D2*
X13038Y-375718D1*
X11761Y-376702D1*
X10866Y-377687D1*
X10195Y-378671D1*
X9997Y-379655D1*
X9922Y-380639D1*
X10169Y-381624D1*
X10829Y-382608D1*
X13421Y-383592D1*
X17868Y-384576D1*
X23516Y-385561D1*
X22531Y-374734D2*
Y-375718D1*
Y-376702D1*
Y-377687D1*
Y-378671D1*
Y-379655D1*
Y-380639D1*
Y-381624D1*
Y-382608D1*
Y-383592D1*
Y-384576D1*
X13673Y-385561D1*
X43201Y-374734D2*
X41430Y-375718D1*
X39907Y-376702D1*
X38744Y-377687D1*
X37929Y-378671D1*
X37295Y-379655D1*
X43201Y-374734D2*
X44972Y-375718D1*
X46497Y-376702D1*
X47682Y-377687D1*
X48552Y-378671D1*
X49189Y-379655D1*
X49629Y-380639D1*
X49881Y-381624D1*
X50003Y-382608D1*
X50057Y-383592D1*
X50078Y-384576D1*
X50086Y-385561D1*
X50089Y-386545D1*
X50090Y-387529D1*
Y-388513D1*
X50087Y-389498D1*
X50052Y-390482D1*
X49923Y-391466D1*
X49649Y-392450D1*
X49229Y-393435D1*
X48607Y-394419D1*
X47785Y-395403D1*
X45920Y-396387D1*
X43314Y-397372D1*
X40248Y-398356D1*
X104224Y-374734D2*
X102491Y-375718D1*
X101095Y-376702D1*
X100022Y-377687D1*
X99649Y-378671D1*
X99450Y-379655D1*
X99360Y-380639D1*
X99324Y-381624D1*
X99310Y-382608D1*
X99306Y-383592D1*
X99304Y-384576D1*
X99303Y-385561D1*
Y-386545D1*
Y-387529D1*
Y-388513D1*
Y-389498D1*
Y-390482D1*
Y-391466D1*
X99307Y-392450D1*
X99349Y-393435D1*
X99453Y-394419D1*
X99997Y-395403D1*
X101682Y-396387D1*
X104182Y-397372D1*
X107177Y-398356D1*
X104224Y-374734D2*
X105958Y-375718D1*
X107353Y-376702D1*
X108426Y-377687D1*
X108799Y-378671D1*
X108999Y-379655D1*
X109089Y-380639D1*
X109125Y-381624D1*
X109138Y-382608D1*
X109143Y-383592D1*
X109145Y-384576D1*
Y-385561D1*
X109146Y-386545D1*
Y-387529D1*
Y-388513D1*
Y-389498D1*
Y-390482D1*
Y-391466D1*
X109142Y-392450D1*
X109100Y-393435D1*
X108996Y-394419D1*
X108452Y-395403D1*
X106767Y-396387D1*
X104267Y-397372D1*
X101272Y-398356D1*
X127846Y-374734D2*
X126227Y-375718D1*
X124950Y-376702D1*
X124059Y-377687D1*
X123399Y-378671D1*
X123227Y-379655D1*
X123485Y-380639D1*
X123910Y-381624D1*
X125017Y-382608D1*
X126338Y-383592D1*
X127632Y-384576D1*
X128273Y-385561D1*
X128477Y-386545D1*
X127124Y-387529D1*
X125682Y-388513D1*
X124489Y-389498D1*
X123560Y-390482D1*
X123232Y-391466D1*
X123059Y-392450D1*
X123022Y-393435D1*
X123085Y-394419D1*
X123622Y-395403D1*
X125305Y-396387D1*
X127805Y-397372D1*
X130799Y-398356D1*
X128831Y-374734D2*
X129815Y-375718D1*
X130799Y-376702D1*
X131783Y-377687D1*
X132768Y-378671D1*
X175091Y-374734D2*
X173357Y-375718D1*
X171962Y-376702D1*
X170888Y-377687D1*
X170467Y-378671D1*
X170462Y-379655D1*
X170659Y-380639D1*
X171009Y-381624D1*
X171442Y-382608D1*
X171945Y-383592D1*
X172552Y-384576D1*
X173278Y-385561D1*
X174024Y-386545D1*
X174723Y-387529D1*
X175435Y-388513D1*
X176236Y-389498D1*
X177091Y-390482D1*
X177908Y-391466D1*
X178638Y-392450D1*
X179360Y-393435D1*
X180135Y-394419D1*
X180898Y-395403D1*
X181566Y-396387D1*
X182117Y-397372D1*
X182523Y-398356D1*
X182763Y-399340D1*
X182886Y-400324D1*
X182965Y-401309D1*
X175091Y-374734D2*
X176713Y-375718D1*
X178024Y-376702D1*
X179065Y-377687D1*
X180012Y-378671D1*
X198713Y-374734D2*
X197093Y-375718D1*
X195816Y-376702D1*
X194921Y-377687D1*
X194250Y-378671D1*
X194052Y-379655D1*
X193978Y-380639D1*
X194224Y-381624D1*
X194884Y-382608D1*
X197476Y-383592D1*
X201924Y-384576D1*
X207571Y-385561D1*
X206587Y-374734D2*
Y-375718D1*
Y-376702D1*
Y-377687D1*
Y-378671D1*
Y-379655D1*
Y-380639D1*
Y-381624D1*
Y-382608D1*
Y-383592D1*
Y-384576D1*
X197728Y-385561D1*
X227256Y-374734D2*
X225485Y-375718D1*
X223962Y-376702D1*
X222799Y-377687D1*
X221984Y-378671D1*
X221350Y-379655D1*
X227256Y-374734D2*
X229027Y-375718D1*
X230552Y-376702D1*
X231737Y-377687D1*
X232607Y-378671D1*
X233244Y-379655D1*
X233685Y-380639D1*
X233936Y-381624D1*
X234058Y-382608D1*
X234112Y-383592D1*
X234133Y-384576D1*
X234141Y-385561D1*
X234144Y-386545D1*
X234145Y-387529D1*
X234146Y-388513D1*
X234142Y-389498D1*
X234107Y-390482D1*
X233978Y-391466D1*
X233704Y-392450D1*
X233284Y-393435D1*
X232662Y-394419D1*
X231840Y-395403D1*
X229975Y-396387D1*
X227369Y-397372D1*
X224303Y-398356D1*
X-60146Y-381624D2*
X-61547Y-382608D1*
X-62684Y-383592D1*
X-63537Y-384576D1*
X-64168Y-385561D1*
X-64607Y-386545D1*
X-64857Y-387529D1*
X-64980Y-388513D1*
X-65033Y-389498D1*
X-65055Y-390482D1*
X-65063Y-391466D1*
X-65065Y-392450D1*
X-65063Y-393435D1*
X-65028Y-394419D1*
X-64899Y-395403D1*
X-64625Y-396387D1*
X-64205Y-397372D1*
X-63596Y-398356D1*
X-62702Y-399340D1*
X-61506Y-400324D1*
X-60146Y-401309D1*
X-55224Y-381624D2*
X-54240Y-382608D1*
X-225500Y-383592D2*
Y-384576D1*
Y-385561D1*
Y-386545D1*
Y-387529D1*
Y-388513D1*
X-225508Y-389498D1*
X-225577Y-390482D1*
X-225738Y-391466D1*
X-226277Y-392450D1*
X-226791Y-393435D1*
X-227177Y-394419D1*
X-227131Y-395403D1*
X-226646Y-396387D1*
X-226152Y-397372D1*
X-225816Y-398356D1*
X-225636Y-399340D1*
X-225551Y-400324D1*
X-225500Y-401309D1*
X-222547Y-383592D2*
Y-384576D1*
Y-385561D1*
Y-386545D1*
Y-387529D1*
Y-388513D1*
Y-389498D1*
Y-390482D1*
Y-391466D1*
Y-392450D1*
X-213689Y-393435D1*
X-40461Y-383592D2*
Y-384576D1*
Y-385561D1*
Y-386545D1*
Y-387529D1*
Y-388513D1*
Y-389498D1*
Y-390482D1*
Y-391466D1*
Y-392450D1*
Y-393435D1*
X-42429D1*
Y-394419D1*
Y-395403D1*
Y-396387D1*
Y-397372D1*
X-40461D1*
Y-398356D1*
Y-399340D1*
Y-400324D1*
Y-401309D1*
X-37508Y-383592D2*
Y-384576D1*
Y-385561D1*
Y-386545D1*
Y-387529D1*
Y-388513D1*
Y-389498D1*
Y-390482D1*
Y-391466D1*
Y-392450D1*
X-28650Y-393435D1*
X143594Y-383592D2*
Y-384576D1*
Y-385561D1*
Y-386545D1*
Y-387529D1*
Y-388513D1*
X143587Y-389498D1*
X143518Y-390482D1*
X143356Y-391466D1*
X142818Y-392450D1*
X142304Y-393435D1*
X141917Y-394419D1*
X141964Y-395403D1*
X142448Y-396387D1*
X142943Y-397372D1*
X143279Y-398356D1*
X143458Y-399340D1*
X143544Y-400324D1*
X143594Y-401309D1*
X146547Y-383592D2*
Y-384576D1*
Y-385561D1*
Y-386545D1*
Y-387529D1*
Y-388513D1*
Y-389498D1*
Y-390482D1*
Y-391466D1*
Y-392450D1*
X155406Y-393435D1*
X-58177Y-384576D2*
X-59124Y-385561D1*
X-59978Y-386545D1*
X-60688Y-387529D1*
X-61256Y-388513D1*
X-61669Y-389498D1*
X-61906Y-390482D1*
X-61990Y-391466D1*
X-61913Y-392450D1*
X-61660Y-393435D1*
X-61240Y-394419D1*
X-60700Y-395403D1*
X-59397Y-396387D1*
X-57502Y-397372D1*
X-55224Y-398356D1*
X-57193Y-384576D2*
X-55405Y-385561D1*
X-53782Y-386545D1*
X-52272Y-387529D1*
X-168413Y-388513D2*
X-169242Y-389498D1*
X-169947Y-390482D1*
X-170547Y-391466D1*
X-171089Y-392450D1*
X-171600Y-393435D1*
X-172101Y-394419D1*
X-172595Y-395403D1*
X-173089Y-396387D1*
X-173580Y-397372D1*
X-174070Y-398356D1*
X-174536Y-399340D1*
X-174946Y-400324D1*
X-175303Y-401309D1*
X-162508Y-388513D2*
Y-389498D1*
Y-390482D1*
Y-391466D1*
Y-392450D1*
Y-393435D1*
Y-394419D1*
Y-395403D1*
Y-396387D1*
Y-397372D1*
Y-398356D1*
Y-399340D1*
Y-400324D1*
Y-401309D1*
X16626Y-388513D2*
X15798Y-389498D1*
X15092Y-390482D1*
X14492Y-391466D1*
X13950Y-392450D1*
X13439Y-393435D1*
X12939Y-394419D1*
X12445Y-395403D1*
X11951Y-396387D1*
X11459Y-397372D1*
X10969Y-398356D1*
X10503Y-399340D1*
X10093Y-400324D1*
X9736Y-401309D1*
X22531Y-388513D2*
Y-389498D1*
Y-390482D1*
Y-391466D1*
Y-392450D1*
Y-393435D1*
Y-394419D1*
Y-395403D1*
Y-396387D1*
Y-397372D1*
Y-398356D1*
Y-399340D1*
Y-400324D1*
Y-401309D1*
X200681Y-388513D2*
X199853Y-389498D1*
X199147Y-390482D1*
X198547Y-391466D1*
X198005Y-392450D1*
X197494Y-393435D1*
X196994Y-394419D1*
X196500Y-395403D1*
X196006Y-396387D1*
X195514Y-397372D1*
X195024Y-398356D1*
X194559Y-399340D1*
X194149Y-400324D1*
X193791Y-401309D1*
X206587Y-388513D2*
Y-389498D1*
Y-390482D1*
Y-391466D1*
Y-392450D1*
Y-393435D1*
Y-394419D1*
Y-395403D1*
Y-396387D1*
Y-397372D1*
Y-398356D1*
Y-399340D1*
Y-400324D1*
Y-401309D1*
X-151681Y-393435D2*
X-151492Y-394419D1*
X-151117Y-395403D1*
X-150584Y-396387D1*
X-149957Y-397372D1*
X-149131Y-398356D1*
X-147951Y-399340D1*
X-146444Y-400324D1*
X-144791Y-401309D1*
X-147744Y-393435D2*
X-147161Y-394419D1*
X-146386Y-395403D1*
X-144540Y-396387D1*
X-141945Y-397372D1*
X-138886Y-398356D1*
X33358Y-393435D2*
X33548Y-394419D1*
X33922Y-395403D1*
X34455Y-396387D1*
X35082Y-397372D1*
X35908Y-398356D1*
X37089Y-399340D1*
X38596Y-400324D1*
X40248Y-401309D1*
X37295Y-393435D2*
X37878Y-394419D1*
X38654Y-395403D1*
X40499Y-396387D1*
X43095Y-397372D1*
X46154Y-398356D1*
X217413Y-393435D2*
X217603Y-394419D1*
X217977Y-395403D1*
X218510Y-396387D1*
X219137Y-397372D1*
X219964Y-398356D1*
X221144Y-399340D1*
X222651Y-400324D1*
X224303Y-401309D1*
X221350Y-393435D2*
X221933Y-394419D1*
X222709Y-395403D1*
X224554Y-396387D1*
X227150Y-397372D1*
X230209Y-398356D1*
X-52272Y-394419D2*
X-52919Y-395403D1*
X-54631Y-396387D1*
X-57144Y-397372D1*
X-60146Y-398356D1*
X-49319Y-394419D2*
X-49475Y-395403D1*
X-49757Y-396387D1*
X-50180Y-397372D1*
X-50789Y-398356D1*
X-51684Y-399340D1*
X-52880Y-400324D1*
X-54240Y-401309D1*
X132768Y-394419D2*
X132120Y-395403D1*
X130408Y-396387D1*
X127896Y-397372D1*
X124894Y-398356D1*
X136705Y-394419D2*
X136327Y-395403D1*
X135869Y-396387D1*
X135279Y-397372D1*
X134493Y-398356D1*
X133474Y-399340D1*
X132207Y-400324D1*
X130799Y-401309D1*
X-222547Y-396387D2*
Y-397372D1*
Y-398356D1*
Y-399340D1*
Y-400324D1*
Y-401309D1*
X-37508Y-396387D2*
Y-397372D1*
Y-398356D1*
Y-399340D1*
Y-400324D1*
Y-401309D1*
X146547Y-396387D2*
Y-397372D1*
Y-398356D1*
Y-399340D1*
Y-400324D1*
Y-401309D1*
X-202862Y-398356D2*
Y-399340D1*
Y-400324D1*
Y-401309D1*
X-17823Y-398356D2*
Y-399340D1*
Y-400324D1*
Y-401309D1*
X166232Y-398356D2*
Y-399340D1*
Y-400324D1*
Y-401309D1*
X-452236Y431552D2*
Y430568D1*
Y429584D1*
Y428600D1*
Y427615D1*
Y426631D1*
Y425647D1*
Y424663D1*
Y423678D1*
Y422694D1*
Y421710D1*
Y420726D1*
Y419741D1*
X-452232Y418757D1*
X-452193Y417773D1*
X-452029Y416789D1*
X-451630Y415804D1*
X-450978Y414820D1*
X-450154Y413836D1*
X-449242Y412852D1*
X-448299Y411867D1*
X-422708Y431552D2*
Y430568D1*
Y429584D1*
Y428600D1*
X-449283D2*
Y427615D1*
Y426631D1*
Y425647D1*
Y424663D1*
Y423678D1*
Y422694D1*
Y421710D1*
X-449279Y420726D1*
X-449237Y419741D1*
X-449133Y418757D1*
X-448589Y417773D1*
X-446904Y416789D1*
X-444404Y415804D1*
X-441409Y414820D1*
X-439440Y428600D2*
Y427615D1*
Y426631D1*
Y425647D1*
Y424663D1*
Y423678D1*
Y422694D1*
Y421710D1*
X-439444Y420726D1*
X-439486Y419741D1*
X-439590Y418757D1*
X-440134Y417773D1*
X-441819Y416789D1*
X-444319Y415804D1*
X-447314Y414820D1*
X-435503Y428600D2*
Y427615D1*
Y426631D1*
Y425647D1*
X-435499Y424663D1*
X-435457Y423678D1*
X-435353Y422694D1*
X-434855Y421710D1*
X-433681Y420726D1*
X-432174Y419741D1*
X-430428Y418757D1*
X-428562Y417773D1*
X-426708Y416789D1*
X-425081Y415804D1*
X-423733Y414820D1*
X-423208Y413836D1*
X-422921Y412852D1*
X-422787Y411867D1*
X-422708Y410883D1*
X-435503Y416789D2*
X-436339Y415804D1*
X-437117Y414820D1*
X-437996Y413836D1*
X-439129Y412852D1*
X-440425Y411867D1*
X-435503Y416789D2*
X-433535Y415804D1*
X-431570Y414820D1*
X-429639Y413836D1*
X-427823Y412852D1*
X-426191Y411867D1*
X-424677Y410883D1*
X-452236Y403009D2*
Y402025D1*
Y401041D1*
Y400056D1*
Y399072D1*
Y398088D1*
Y397104D1*
Y396119D1*
Y395135D1*
Y394151D1*
Y393167D1*
Y392182D1*
Y391198D1*
Y390214D1*
Y389230D1*
Y388245D1*
Y387261D1*
Y386277D1*
Y385293D1*
Y384308D1*
X-422708Y403009D2*
Y402025D1*
Y401041D1*
Y400056D1*
Y399072D1*
Y398088D1*
Y397104D1*
Y396119D1*
Y395135D1*
Y394151D1*
Y393167D1*
Y392182D1*
Y391198D1*
Y390214D1*
Y389230D1*
Y388245D1*
Y387261D1*
Y386277D1*
Y385293D1*
Y384308D1*
X-449283Y400056D2*
Y399072D1*
Y398088D1*
Y397104D1*
Y396119D1*
Y395135D1*
Y394151D1*
Y393167D1*
Y392182D1*
Y391198D1*
Y390214D1*
Y389230D1*
Y388245D1*
Y387261D1*
Y386277D1*
Y385293D1*
Y384308D1*
X-439440Y400056D2*
Y399072D1*
Y398088D1*
Y397104D1*
Y396119D1*
Y395135D1*
Y394151D1*
Y393167D1*
Y392182D1*
Y391198D1*
X-439436Y390214D1*
X-439399Y389230D1*
X-439247Y388245D1*
X-438910Y387261D1*
X-438456Y386277D1*
X-435503Y400056D2*
Y399072D1*
Y398088D1*
Y397104D1*
Y396119D1*
Y395135D1*
Y394151D1*
Y393167D1*
Y392182D1*
Y391198D1*
Y390214D1*
Y389230D1*
Y388245D1*
Y387261D1*
Y386277D1*
X-426645Y400056D2*
Y399072D1*
Y398088D1*
Y397104D1*
Y396119D1*
Y395135D1*
Y394151D1*
Y393167D1*
Y392182D1*
Y391198D1*
Y390214D1*
Y389230D1*
Y388245D1*
Y387261D1*
Y386277D1*
Y385293D1*
Y384308D1*
X-445346Y378403D2*
X-447235Y377419D1*
X-448750Y376434D1*
X-449891Y375450D1*
X-450728Y374466D1*
X-451347Y373482D1*
X-451780Y372497D1*
X-452028Y371513D1*
X-452149Y370529D1*
X-452202Y369545D1*
X-452223Y368560D1*
X-452231Y367576D1*
X-452234Y366592D1*
X-452231Y365608D1*
X-452197Y364623D1*
X-452068Y363639D1*
X-451794Y362655D1*
X-451387Y361671D1*
X-450864Y360686D1*
X-450267Y359702D1*
X-443377Y378403D2*
X-441488Y377419D1*
X-439977Y376434D1*
X-438867Y375450D1*
X-438121Y374466D1*
X-437612Y373482D1*
X-437196Y372497D1*
X-436867Y371513D1*
X-436661Y370529D1*
X-436524Y369545D1*
X-436353Y368560D1*
X-436095Y367576D1*
X-435801Y366592D1*
X-435482Y365608D1*
X-435097Y364623D1*
X-434189Y363639D1*
X-432092Y362655D1*
X-429598Y361671D1*
X-427629Y378403D2*
X-428027Y377419D1*
X-427957Y376434D1*
X-427701Y375450D1*
X-427351Y374466D1*
X-427032Y373482D1*
X-426828Y372497D1*
X-426723Y371513D1*
X-426676Y370529D1*
X-426656Y369545D1*
X-426649Y368560D1*
X-426650Y367576D1*
X-426688Y366592D1*
X-426780Y365608D1*
X-427235Y364623D1*
X-428813Y363639D1*
X-431353Y362655D1*
X-434519Y361671D1*
X-425661Y378403D2*
X-425054Y377419D1*
X-424528Y376434D1*
X-424126Y375450D1*
X-423855Y374466D1*
X-423613Y373482D1*
X-423326Y372497D1*
X-423052Y371513D1*
X-422873Y370529D1*
X-422779Y369545D1*
X-422740Y368560D1*
X-422757Y367576D1*
X-422876Y366592D1*
X-423113Y365608D1*
X-423399Y364623D1*
X-423700Y363639D1*
X-424065Y362655D1*
X-424531Y361671D1*
X-425194Y360686D1*
X-426247Y359702D1*
X-427782Y358718D1*
X-429598Y357734D1*
X-446330Y374466D2*
X-447158Y373482D1*
X-447860Y372497D1*
X-448426Y371513D1*
X-448838Y370529D1*
X-449079Y369545D1*
X-449198Y368560D1*
X-449246Y367576D1*
X-449232Y366592D1*
X-449111Y365608D1*
X-448839Y364623D1*
X-448424Y363639D1*
X-447856Y362655D1*
X-447130Y361671D1*
X-446330Y360686D1*
X-448299Y359702D1*
X-442393Y374466D2*
X-441598Y373482D1*
X-440988Y372497D1*
X-440533Y371513D1*
X-440138Y370529D1*
X-439816Y369545D1*
X-439613Y368560D1*
X-439477Y367576D1*
X-439306Y366592D1*
X-439048Y365608D1*
X-438754Y364623D1*
X-438450Y363639D1*
X-438084Y362655D1*
X-437622Y361671D1*
X-436996Y360686D1*
X-436094Y359702D1*
X-434896Y358718D1*
X-433535Y357734D1*
X-452236Y350844D2*
Y349860D1*
Y348875D1*
Y347891D1*
Y346907D1*
Y345923D1*
Y344938D1*
Y343954D1*
Y342970D1*
Y341986D1*
Y341001D1*
Y340017D1*
Y339033D1*
Y338049D1*
Y337064D1*
Y336080D1*
Y335096D1*
Y334112D1*
Y333127D1*
Y332143D1*
X-422708Y350844D2*
Y349860D1*
Y348875D1*
Y347891D1*
Y346907D1*
Y345923D1*
Y344938D1*
Y343954D1*
Y342970D1*
Y341986D1*
Y341001D1*
Y340017D1*
Y339033D1*
Y338049D1*
Y337064D1*
Y336080D1*
Y335096D1*
Y334112D1*
Y333127D1*
Y332143D1*
X-449283Y347891D2*
Y346907D1*
Y345923D1*
Y344938D1*
Y343954D1*
Y342970D1*
Y341986D1*
Y341001D1*
Y340017D1*
Y339033D1*
Y338049D1*
Y337064D1*
Y336080D1*
Y335096D1*
Y334112D1*
Y333127D1*
Y332143D1*
X-439440Y347891D2*
Y346907D1*
Y345923D1*
Y344938D1*
Y343954D1*
Y342970D1*
Y341986D1*
Y341001D1*
Y340017D1*
Y339033D1*
X-439436Y338049D1*
X-439399Y337064D1*
X-439247Y336080D1*
X-438910Y335096D1*
X-438456Y334112D1*
X-435503Y347891D2*
Y346907D1*
Y345923D1*
Y344938D1*
Y343954D1*
Y342970D1*
Y341986D1*
Y341001D1*
Y340017D1*
Y339033D1*
Y338049D1*
Y337064D1*
Y336080D1*
Y335096D1*
Y334112D1*
X-426645Y347891D2*
Y346907D1*
Y345923D1*
Y344938D1*
Y343954D1*
Y342970D1*
Y341986D1*
Y341001D1*
Y340017D1*
Y339033D1*
Y338049D1*
Y337064D1*
Y336080D1*
Y335096D1*
Y334112D1*
Y333127D1*
Y332143D1*
X-452236Y329190D2*
Y328206D1*
Y327222D1*
Y326238D1*
Y325253D1*
Y324269D1*
Y323285D1*
Y322301D1*
Y321316D1*
Y320332D1*
Y319348D1*
Y318364D1*
Y317379D1*
Y316395D1*
Y315411D1*
Y314427D1*
Y313442D1*
Y312458D1*
Y311474D1*
Y310490D1*
Y309505D1*
X-449283Y329190D2*
Y328206D1*
Y327222D1*
Y326238D1*
Y325253D1*
Y324269D1*
Y323285D1*
Y322301D1*
Y321316D1*
X-422708D2*
Y320332D1*
Y319348D1*
Y318364D1*
Y317379D1*
X-449283D2*
Y316395D1*
Y315411D1*
Y314427D1*
Y313442D1*
Y312458D1*
Y311474D1*
Y310490D1*
Y309505D1*
X-267598Y395762D2*
X-269033Y394778D1*
X-270262Y393794D1*
X-271229Y392810D1*
X-271912Y391825D1*
X-272395Y390841D1*
X-272801Y389857D1*
X-273126Y388873D1*
X-273327Y387888D1*
X-273429Y386904D1*
X-273474Y385920D1*
X-273493Y384936D1*
X-273500Y383951D1*
X-273503Y382967D1*
X-273500Y381983D1*
X-273465Y380999D1*
X-273340Y380014D1*
X-273100Y379030D1*
X-272810Y378046D1*
X-272478Y377062D1*
X-272022Y376077D1*
X-271453Y375093D1*
X-270852Y374109D1*
X-270218Y373125D1*
X-269556Y372140D1*
X-268904Y371156D1*
X-268179Y370172D1*
X-267221Y369188D1*
X-265939Y368203D1*
X-264371Y367219D1*
X-262677Y366235D1*
X-261693Y395762D2*
X-260258Y394778D1*
X-259026Y393794D1*
X-258028Y392810D1*
X-257254Y391825D1*
X-256661Y390841D1*
X-256238Y389857D1*
X-255993Y388873D1*
X-255873Y387888D1*
X-255821Y386904D1*
X-255804Y385920D1*
X-255830Y384936D1*
X-255957Y383951D1*
X-256226Y382967D1*
X-256611Y381983D1*
X-257095Y380999D1*
X-257766Y380014D1*
X-258773Y379030D1*
X-260146Y378046D1*
X-261693Y377062D1*
X-244961Y395762D2*
Y394778D1*
Y393794D1*
Y392810D1*
Y391825D1*
Y390841D1*
Y389857D1*
Y388873D1*
Y387888D1*
Y386904D1*
Y385920D1*
Y384936D1*
Y383951D1*
Y382967D1*
Y381983D1*
Y380999D1*
Y380014D1*
Y379030D1*
Y378046D1*
Y377062D1*
Y376077D1*
Y375093D1*
Y374109D1*
Y373125D1*
Y372140D1*
Y371156D1*
Y370172D1*
Y369188D1*
Y368203D1*
Y367219D1*
Y366235D1*
X-243976Y395762D2*
X-242988Y394778D1*
X-241966Y393794D1*
X-240821Y392810D1*
X-239480Y391825D1*
X-238046Y390841D1*
X-236801Y389857D1*
X-235810Y388873D1*
X-235420Y387888D1*
X-235118Y386904D1*
X-223307Y395762D2*
X-224708Y394778D1*
X-225845Y393794D1*
X-226698Y392810D1*
X-227333Y391825D1*
X-227807Y390841D1*
X-228183Y389857D1*
X-228541Y388873D1*
X-228847Y387888D1*
X-229040Y386904D1*
X-229139Y385920D1*
X-229184Y384936D1*
X-229202Y383951D1*
X-229209Y382967D1*
X-229211Y381983D1*
X-229212Y380999D1*
Y380014D1*
X-229213Y379030D1*
X-229209Y378046D1*
X-229174Y377062D1*
X-229049Y376077D1*
X-228809Y375093D1*
X-228522Y374109D1*
X-228221Y373125D1*
X-227856Y372140D1*
X-227398Y371156D1*
X-226805Y370172D1*
X-226018Y369188D1*
X-224998Y368203D1*
X-223731Y367219D1*
X-222323Y366235D1*
X-217402Y395762D2*
X-215967Y394778D1*
X-214735Y393794D1*
X-213736Y392810D1*
X-212959Y391825D1*
X-212331Y390841D1*
X-211783Y389857D1*
X-211302Y388873D1*
X-210930Y387888D1*
X-210706Y386904D1*
X-210593Y385920D1*
X-210544Y384936D1*
X-210524Y383951D1*
X-210516Y382967D1*
X-210513Y381983D1*
X-210512Y380999D1*
Y380014D1*
Y379030D1*
Y378046D1*
Y377062D1*
X-210516Y376077D1*
X-210550Y375093D1*
X-210676Y374109D1*
X-210915Y373125D1*
X-211206Y372140D1*
X-211542Y371156D1*
X-212036Y370172D1*
X-212768Y369188D1*
X-213760Y368203D1*
X-215016Y367219D1*
X-216417Y366235D1*
X-198701Y395762D2*
X-200136Y394778D1*
X-201364Y393794D1*
X-202327Y392810D1*
X-203084Y391825D1*
X-203361Y390841D1*
X-203511Y389857D1*
X-203575Y388873D1*
X-203567Y387888D1*
X-203452Y386904D1*
X-203217Y385920D1*
X-202927Y384936D1*
X-202596Y383951D1*
X-202140Y382967D1*
X-201572Y381983D1*
X-200970Y380999D1*
X-200336Y380014D1*
X-199674Y379030D1*
X-199030Y378046D1*
X-198378Y377062D1*
X-197713Y376077D1*
X-197097Y375093D1*
X-196535Y374109D1*
X-195976Y373125D1*
X-195343Y372140D1*
X-194575Y371156D1*
X-193706Y370172D1*
X-192795Y369188D1*
X-191811Y395762D2*
X-190418Y394778D1*
X-189202Y393794D1*
X-188589Y392810D1*
X-188563Y391825D1*
X-188858Y390841D1*
X-161299Y395762D2*
X-162734Y394778D1*
X-163962Y393794D1*
X-164930Y392810D1*
X-165612Y391825D1*
X-166096Y390841D1*
X-166502Y389857D1*
X-166827Y388873D1*
X-167028Y387888D1*
X-167130Y386904D1*
X-167175Y385920D1*
X-167194Y384936D1*
X-167201Y383951D1*
X-167203Y382967D1*
X-167200Y381983D1*
X-167166Y380999D1*
X-167041Y380014D1*
X-166801Y379030D1*
X-166510Y378046D1*
X-166179Y377062D1*
X-165722Y376077D1*
X-165154Y375093D1*
X-164553Y374109D1*
X-163918Y373125D1*
X-163256Y372140D1*
X-162605Y371156D1*
X-161880Y370172D1*
X-160922Y369188D1*
X-159640Y368203D1*
X-158072Y367219D1*
X-156378Y366235D1*
X-155394Y395762D2*
X-153959Y394778D1*
X-152727Y393794D1*
X-151729Y392810D1*
X-150955Y391825D1*
X-150361Y390841D1*
X-149939Y389857D1*
X-149694Y388873D1*
X-149574Y387888D1*
X-149522Y386904D1*
X-149504Y385920D1*
X-149531Y384936D1*
X-149657Y383951D1*
X-149927Y382967D1*
X-150312Y381983D1*
X-150796Y380999D1*
X-151467Y380014D1*
X-152473Y379030D1*
X-153846Y378046D1*
X-155394Y377062D1*
X-139646Y395762D2*
X-141047Y394778D1*
X-142184Y393794D1*
X-143037Y392810D1*
X-143672Y391825D1*
X-144145Y390841D1*
X-144521Y389857D1*
X-144879Y388873D1*
X-145185Y387888D1*
X-145378Y386904D1*
X-145477Y385920D1*
X-145522Y384936D1*
X-145540Y383951D1*
X-145547Y382967D1*
X-145550Y381983D1*
X-145551Y380999D1*
Y380014D1*
Y379030D1*
X-145547Y378046D1*
X-145513Y377062D1*
X-145387Y376077D1*
X-145148Y375093D1*
X-144861Y374109D1*
X-144560Y373125D1*
X-144194Y372140D1*
X-143736Y371156D1*
X-143144Y370172D1*
X-142357Y369188D1*
X-141337Y368203D1*
X-140069Y367219D1*
X-138661Y366235D1*
X-133740Y395762D2*
X-132305Y394778D1*
X-131073Y393794D1*
X-130075Y392810D1*
X-129298Y391825D1*
X-128669Y390841D1*
X-128121Y389857D1*
X-127641Y388873D1*
X-127269Y387888D1*
X-127044Y386904D1*
X-126932Y385920D1*
X-126882Y384936D1*
X-126862Y383951D1*
X-126855Y382967D1*
X-126852Y381983D1*
X-126851Y380999D1*
Y380014D1*
X-126850Y379030D1*
Y378046D1*
Y377062D1*
X-126854Y376077D1*
X-126889Y375093D1*
X-127014Y374109D1*
X-127254Y373125D1*
X-127545Y372140D1*
X-127880Y371156D1*
X-128375Y370172D1*
X-129106Y369188D1*
X-130099Y368203D1*
X-131355Y367219D1*
X-132756Y366235D1*
X-66811Y395762D2*
X-68430Y394778D1*
X-69708Y393794D1*
X-70603Y392810D1*
X-71274Y391825D1*
X-71509Y390841D1*
X-71633Y389857D1*
X-71657Y388873D1*
X-71551Y387888D1*
X-71282Y386904D1*
X-70831Y385920D1*
X-70112Y384936D1*
X-69050Y383951D1*
X-67795Y382967D1*
X-69230Y381983D1*
X-70459Y380999D1*
X-71422Y380014D1*
X-72178Y379030D1*
X-72492Y378046D1*
X-72765Y377062D1*
X-73034Y376077D1*
X-73189Y375093D1*
X-73131Y374109D1*
X-72939Y373125D1*
X-72681Y372140D1*
X-72333Y371156D1*
X-71875Y370172D1*
X-71214Y369188D1*
X-70161Y368203D1*
X-68627Y367219D1*
X-66811Y366235D1*
X-60906Y395762D2*
X-59660Y394778D1*
X-58657Y393794D1*
X-58260Y392810D1*
X-57953Y391825D1*
X-29409Y395762D2*
Y394778D1*
Y393794D1*
Y392810D1*
Y391825D1*
Y390841D1*
Y389857D1*
Y388873D1*
Y387888D1*
Y386904D1*
Y385920D1*
Y384936D1*
Y383951D1*
Y382967D1*
Y381983D1*
Y380999D1*
Y380014D1*
Y379030D1*
Y378046D1*
Y377062D1*
Y376077D1*
Y375093D1*
Y374109D1*
Y373125D1*
Y372140D1*
Y371156D1*
Y370172D1*
Y369188D1*
Y368203D1*
Y367219D1*
Y366235D1*
X-28425Y395762D2*
X-27437Y394778D1*
X-26414Y393794D1*
X-25270Y392810D1*
X-23929Y391825D1*
X-22495Y390841D1*
X-21250Y389857D1*
X-20260Y388873D1*
X-19900Y387888D1*
X-19698Y386904D1*
X-19567Y385920D1*
X-14646Y395762D2*
X-14154Y394778D1*
X-13745Y393794D1*
X-13362Y392810D1*
X-13012Y391825D1*
X-12689Y390841D1*
X-12348Y389857D1*
X-12016Y388873D1*
X-11697Y387888D1*
X-11328Y386904D1*
X-10906Y385920D1*
X-10477Y384936D1*
X-10091Y383951D1*
X-9750Y382967D1*
X-9401Y381983D1*
X-9065Y380999D1*
X-8745Y380014D1*
X-8376Y379030D1*
X-7953Y378046D1*
X-7524Y377062D1*
X-7139Y376077D1*
X-6797Y375093D1*
X-6448Y374109D1*
X-6113Y373125D1*
X-5796Y372140D1*
X-5457Y371156D1*
X-5126Y370172D1*
X-4810Y369188D1*
X-4468Y368203D1*
X-4129Y367219D1*
X-3819Y366235D1*
X-10709Y395762D2*
X-10368Y394778D1*
X-10041Y393794D1*
X-9729Y392810D1*
X-9393Y391825D1*
X-9062Y390841D1*
X-8747Y389857D1*
X-8410Y388873D1*
X-8079Y387888D1*
X-7763Y386904D1*
X-7426Y385920D1*
X-7094Y384936D1*
X-6779Y383951D1*
X-6441Y382967D1*
X-6110Y381983D1*
X-5791Y380999D1*
X-5423Y380014D1*
X-5000Y379030D1*
X-4571Y378046D1*
X-4183Y377062D1*
X-3814Y376077D1*
X-3363Y375093D1*
X-2835Y374109D1*
X5039Y395762D2*
X4887Y394778D1*
X4639Y393794D1*
X4350Y392810D1*
X4048Y391825D1*
X3686Y390841D1*
X3267Y389857D1*
X2838Y388873D1*
X2453Y387888D1*
X2112Y386904D1*
X1763Y385920D1*
X1428Y384936D1*
X1111Y383951D1*
X772Y382967D1*
X441Y381983D1*
X122Y380999D1*
X-247Y380014D1*
X-669Y379030D1*
X-1098Y378046D1*
X-1486Y377062D1*
X-1855Y376077D1*
X-2307Y375093D1*
X-2835Y374109D1*
X8976Y395762D2*
X8636Y394778D1*
X8309Y393794D1*
X7996Y392810D1*
X7661Y391825D1*
X7330Y390841D1*
X7011Y389857D1*
X6643Y388873D1*
X6221Y387888D1*
X5792Y386904D1*
X5406Y385920D1*
X5065Y384936D1*
X4716Y383951D1*
X4380Y382967D1*
X4060Y381983D1*
X3691Y380999D1*
X3268Y380014D1*
X2839Y379030D1*
X2454Y378046D1*
X2112Y377062D1*
X1763Y376077D1*
X1428Y375093D1*
X1107Y374109D1*
X738Y373125D1*
X316Y372140D1*
X-114Y371156D1*
X-499Y370172D1*
X-841Y369188D1*
X-1195Y368203D1*
X-1538Y367219D1*
X-1850Y366235D1*
X36535Y395762D2*
Y394778D1*
Y393794D1*
Y392810D1*
Y391825D1*
Y390841D1*
Y389857D1*
Y388873D1*
Y387888D1*
Y386904D1*
Y385920D1*
Y384936D1*
Y383951D1*
Y382967D1*
Y381983D1*
Y380999D1*
Y380014D1*
Y379030D1*
Y378046D1*
Y377062D1*
Y376077D1*
Y375093D1*
Y374109D1*
Y373125D1*
Y372140D1*
Y371156D1*
Y370172D1*
Y369188D1*
Y368203D1*
Y367219D1*
Y366235D1*
X39488Y395762D2*
Y394778D1*
Y393794D1*
Y392810D1*
Y391825D1*
Y390841D1*
Y389857D1*
Y388873D1*
Y387888D1*
Y386904D1*
Y385920D1*
Y384936D1*
Y383951D1*
X54252Y395762D2*
Y394778D1*
Y393794D1*
Y392810D1*
Y391825D1*
Y390841D1*
Y389857D1*
Y388873D1*
Y387888D1*
Y386904D1*
Y385920D1*
Y384936D1*
Y383951D1*
X57205Y395762D2*
Y394778D1*
Y393794D1*
Y392810D1*
Y391825D1*
Y390841D1*
Y389857D1*
Y388873D1*
Y387888D1*
Y386904D1*
Y385920D1*
Y384936D1*
Y383951D1*
Y382967D1*
Y381983D1*
Y380999D1*
Y380014D1*
Y379030D1*
Y378046D1*
Y377062D1*
Y376077D1*
Y375093D1*
Y374109D1*
Y373125D1*
Y372140D1*
Y371156D1*
Y370172D1*
Y369188D1*
Y368203D1*
Y367219D1*
Y366235D1*
X62126Y395762D2*
Y394778D1*
Y393794D1*
Y392810D1*
Y391825D1*
X72953D1*
Y390841D1*
Y389857D1*
Y388873D1*
Y387888D1*
Y386904D1*
Y385920D1*
Y384936D1*
Y383951D1*
Y382967D1*
Y381983D1*
Y380999D1*
Y380014D1*
Y379030D1*
Y378046D1*
Y377062D1*
Y376077D1*
Y375093D1*
Y374109D1*
Y373125D1*
Y372140D1*
Y371156D1*
Y370172D1*
Y369188D1*
Y368203D1*
Y367219D1*
Y366235D1*
X85748Y395762D2*
Y394778D1*
Y393794D1*
Y392810D1*
Y391825D1*
X75906D1*
Y390841D1*
Y389857D1*
Y388873D1*
Y387888D1*
Y386904D1*
Y385920D1*
Y384936D1*
Y383951D1*
Y382967D1*
Y381983D1*
Y380999D1*
Y380014D1*
Y379030D1*
Y378046D1*
Y377062D1*
Y376077D1*
Y375093D1*
Y374109D1*
Y373125D1*
Y372140D1*
Y371156D1*
Y370172D1*
Y369188D1*
Y368203D1*
Y367219D1*
Y366235D1*
X121181Y395762D2*
X121025Y394778D1*
X120747Y393794D1*
X120366Y392810D1*
X119954Y391825D1*
X119576Y390841D1*
X119237Y389857D1*
X118889Y388873D1*
X118553Y387888D1*
X118233Y386904D1*
X117864Y385920D1*
X117442Y384936D1*
X117012Y383951D1*
X116627Y382967D1*
X116282Y381983D1*
X115902Y380999D1*
X115475Y380014D1*
X115044Y379030D1*
X114659Y378046D1*
X114317Y377062D1*
X113968Y376077D1*
X113632Y375093D1*
X113312Y374109D1*
X112943Y373125D1*
X112520Y372140D1*
X112091Y371156D1*
X111706Y370172D1*
X111364Y369188D1*
X111010Y368203D1*
X110666Y367219D1*
X110354Y366235D1*
X122165Y395762D2*
X122539Y394778D1*
X122962Y393794D1*
X123419Y392810D1*
X123894Y391825D1*
X124348Y390841D1*
X124744Y389857D1*
X125094Y388873D1*
X125475Y387888D1*
X125902Y386904D1*
X126333Y385920D1*
X126719Y384936D1*
X127065Y383951D1*
X127445Y382967D1*
X127875Y381983D1*
X128337Y380999D1*
X128813Y380014D1*
X129269Y379030D1*
X129665Y378046D1*
X130015Y377062D1*
X130396Y376077D1*
X130823Y375093D1*
X131255Y374109D1*
X131641Y373125D1*
X131986Y372140D1*
X132366Y371156D1*
X132792Y370172D1*
X133220Y369188D1*
X133573Y368203D1*
X133806Y367219D1*
X133976Y366235D1*
X135945Y395762D2*
Y394778D1*
Y393794D1*
Y392810D1*
Y391825D1*
X146772D1*
Y390841D1*
Y389857D1*
Y388873D1*
Y387888D1*
Y386904D1*
Y385920D1*
Y384936D1*
Y383951D1*
Y382967D1*
Y381983D1*
Y380999D1*
Y380014D1*
Y379030D1*
Y378046D1*
Y377062D1*
Y376077D1*
Y375093D1*
Y374109D1*
Y373125D1*
Y372140D1*
Y371156D1*
Y370172D1*
Y369188D1*
Y368203D1*
Y367219D1*
Y366235D1*
X159567Y395762D2*
Y394778D1*
Y393794D1*
Y392810D1*
Y391825D1*
X149724D1*
Y390841D1*
Y389857D1*
Y388873D1*
Y387888D1*
Y386904D1*
Y385920D1*
Y384936D1*
Y383951D1*
Y382967D1*
Y381983D1*
Y380999D1*
Y380014D1*
Y379030D1*
Y378046D1*
Y377062D1*
Y376077D1*
Y375093D1*
Y374109D1*
Y373125D1*
Y372140D1*
Y371156D1*
Y370172D1*
Y369188D1*
Y368203D1*
Y367219D1*
Y366235D1*
X162520Y395762D2*
X163352Y394778D1*
X164088Y393794D1*
X164783Y392810D1*
X165469Y391825D1*
X166123Y390841D1*
X166778Y389857D1*
X167448Y388873D1*
X168095Y387888D1*
X168748Y386904D1*
X169416Y385920D1*
X170058Y384936D1*
X170703Y383951D1*
X171378Y382967D1*
X170768Y381983D1*
X170203Y380999D1*
X169645Y380014D1*
X169044Y379030D1*
X168404Y378046D1*
X167799Y377062D1*
X167241Y376077D1*
X166688Y375093D1*
X166089Y374109D1*
X165451Y373125D1*
X164846Y372140D1*
X164288Y371156D1*
X163735Y370172D1*
X163140Y369188D1*
X162524Y368203D1*
X161992Y367219D1*
X161535Y366235D1*
X166457Y395762D2*
X167289Y394778D1*
X168025Y393794D1*
X168720Y392810D1*
X169406Y391825D1*
X170060Y390841D1*
X170715Y389857D1*
X171385Y388873D1*
X172032Y387888D1*
X172685Y386904D1*
X173354Y385920D1*
X174000Y384936D1*
X174653Y383951D1*
X175322Y382967D1*
X175964Y381983D1*
X176609Y380999D1*
X177283Y380014D1*
X178268Y395762D2*
Y394778D1*
Y393794D1*
Y392810D1*
Y391825D1*
Y390841D1*
Y389857D1*
Y388873D1*
Y387888D1*
Y386904D1*
Y385920D1*
Y384936D1*
X178264Y383951D1*
X178226Y382967D1*
X178074Y381983D1*
X177738Y380999D1*
X177283Y380014D1*
X182205Y395762D2*
Y394778D1*
Y393794D1*
Y392810D1*
Y391825D1*
Y390841D1*
Y389857D1*
Y388873D1*
Y387888D1*
Y386904D1*
Y385920D1*
Y384936D1*
Y383951D1*
Y382967D1*
Y381983D1*
Y380999D1*
Y380014D1*
Y379030D1*
Y378046D1*
Y377062D1*
Y376077D1*
Y375093D1*
Y374109D1*
Y373125D1*
Y372140D1*
Y371156D1*
Y370172D1*
Y369188D1*
Y368203D1*
Y367219D1*
Y366235D1*
X187126Y395762D2*
Y394778D1*
Y393794D1*
Y392810D1*
X204843Y395762D2*
Y394778D1*
Y393794D1*
Y392810D1*
Y391825D1*
Y390841D1*
Y389857D1*
Y388873D1*
Y387888D1*
Y386904D1*
Y385920D1*
Y384936D1*
Y383951D1*
Y382967D1*
Y381983D1*
Y380999D1*
Y380014D1*
Y379030D1*
Y378046D1*
Y377062D1*
Y376077D1*
Y375093D1*
Y374109D1*
Y373125D1*
Y372140D1*
Y371156D1*
Y370172D1*
Y369188D1*
Y368203D1*
Y367219D1*
Y366235D1*
X209764Y395762D2*
Y394778D1*
Y393794D1*
Y392810D1*
X228465Y395762D2*
Y394778D1*
Y393794D1*
Y392810D1*
Y391825D1*
Y390841D1*
Y389857D1*
Y388873D1*
Y387888D1*
Y386904D1*
Y385920D1*
Y384936D1*
Y383951D1*
Y382967D1*
Y381983D1*
Y380999D1*
Y380014D1*
Y379030D1*
Y378046D1*
Y377062D1*
Y376077D1*
Y375093D1*
Y374109D1*
Y373125D1*
Y372140D1*
Y371156D1*
Y370172D1*
Y369188D1*
Y368203D1*
Y367219D1*
Y366235D1*
X233386Y395762D2*
Y394778D1*
Y393794D1*
Y392810D1*
X251102Y395762D2*
Y394778D1*
Y393794D1*
Y392810D1*
Y391825D1*
Y390841D1*
Y389857D1*
Y388873D1*
Y387888D1*
Y386904D1*
Y385920D1*
Y384936D1*
Y383951D1*
Y382967D1*
Y381983D1*
Y380999D1*
Y380014D1*
Y379030D1*
Y378046D1*
Y377062D1*
Y376077D1*
Y375093D1*
Y374109D1*
Y373125D1*
Y372140D1*
Y371156D1*
Y370172D1*
Y369188D1*
Y368203D1*
Y367219D1*
Y366235D1*
X-101260Y394778D2*
Y393794D1*
Y392810D1*
Y391825D1*
Y390841D1*
Y389857D1*
Y388873D1*
Y387888D1*
Y386904D1*
Y385920D1*
Y384936D1*
Y383951D1*
Y382967D1*
Y381983D1*
Y380999D1*
Y380014D1*
Y379030D1*
Y378046D1*
Y377062D1*
Y376077D1*
Y375093D1*
Y374109D1*
Y373125D1*
Y372140D1*
Y371156D1*
Y370172D1*
Y369188D1*
Y368203D1*
Y367219D1*
Y366235D1*
Y365251D1*
Y364266D1*
Y363282D1*
Y362298D1*
Y361314D1*
Y360329D1*
X-99291Y394778D2*
Y393794D1*
Y392810D1*
Y391825D1*
Y390841D1*
Y389857D1*
Y388873D1*
Y387888D1*
Y386904D1*
Y385920D1*
Y384936D1*
Y383951D1*
Y382967D1*
Y381983D1*
Y380999D1*
Y380014D1*
Y379030D1*
Y378046D1*
Y377062D1*
Y376077D1*
Y375093D1*
Y374109D1*
Y373125D1*
Y372140D1*
Y371156D1*
Y370172D1*
Y369188D1*
Y368203D1*
Y367219D1*
Y366235D1*
Y365251D1*
Y364266D1*
Y363282D1*
Y362298D1*
Y361314D1*
Y360329D1*
X-266614Y392810D2*
X-267561Y391825D1*
X-268415Y390841D1*
X-269125Y389857D1*
X-269693Y388873D1*
X-270102Y387888D1*
X-270309Y386904D1*
X-270298Y385920D1*
X-270076Y384936D1*
X-269662Y383951D1*
X-269105Y382967D1*
X-267459Y381983D1*
X-264882Y380999D1*
X-261693Y380014D1*
X-262677Y392810D2*
X-261730Y391825D1*
X-260876Y390841D1*
X-260166Y389857D1*
X-259598Y388873D1*
X-259189Y387888D1*
X-258983Y386904D1*
X-258993Y385920D1*
X-259215Y384936D1*
X-259630Y383951D1*
X-260186Y382967D1*
X-261832Y381983D1*
X-264409Y380999D1*
X-267598Y380014D1*
X-220354Y392810D2*
X-221973Y391825D1*
X-223251Y390841D1*
X-224146Y389857D1*
X-224722Y388873D1*
X-225067Y387888D1*
X-225338Y386904D1*
X-225636Y385920D1*
X-225913Y384936D1*
X-226094Y383951D1*
X-226189Y382967D1*
X-226232Y381983D1*
X-226245Y380999D1*
X-226218Y380014D1*
X-226095Y379030D1*
X-225860Y378046D1*
X-225608Y377062D1*
X-225432Y376077D1*
X-225303Y375093D1*
X-225097Y374109D1*
X-224768Y373125D1*
X-223882Y372140D1*
X-222428Y371156D1*
X-220164Y370172D1*
X-217402Y369188D1*
X-219370Y392810D2*
X-217751Y391825D1*
X-216474Y390841D1*
X-215575Y389857D1*
X-214968Y388873D1*
X-214532Y387888D1*
X-214150Y386904D1*
X-213836Y385920D1*
X-213639Y384936D1*
X-213539Y383951D1*
X-213494Y382967D1*
X-213475Y381983D1*
X-213468Y380999D1*
X-213466Y380014D1*
X-213469Y379030D1*
X-213503Y378046D1*
X-213628Y377062D1*
X-213868Y376077D1*
X-214155Y375093D1*
X-214460Y374109D1*
X-214879Y373125D1*
X-215439Y372140D1*
X-217188Y371156D1*
X-219936Y370172D1*
X-223307Y369188D1*
X-197717Y392810D2*
X-198545Y391825D1*
X-199243Y390841D1*
X-199774Y389857D1*
X-200167Y388873D1*
X-200088Y387888D1*
X-199900Y386904D1*
X-199646Y385920D1*
X-199305Y384936D1*
X-198889Y383951D1*
X-198428Y382967D1*
X-197919Y381983D1*
X-197339Y380999D1*
X-196703Y380014D1*
X-196070Y379030D1*
X-195422Y378046D1*
X-194755Y377062D1*
X-194109Y376077D1*
X-193457Y375093D1*
X-192788Y374109D1*
X-192141Y373125D1*
X-191488Y372140D1*
X-190819Y371156D1*
X-190173Y370172D1*
X-189523Y369188D1*
X-188881Y368203D1*
X-188337Y367219D1*
X-187874Y366235D1*
X-194764Y392810D2*
X-192795Y391825D1*
X-190827Y390841D1*
X-160315Y392810D2*
X-161262Y391825D1*
X-162116Y390841D1*
X-162826Y389857D1*
X-163394Y388873D1*
X-163803Y387888D1*
X-164009Y386904D1*
X-163999Y385920D1*
X-163777Y384936D1*
X-163362Y383951D1*
X-162806Y382967D1*
X-161160Y381983D1*
X-158583Y380999D1*
X-155394Y380014D1*
X-156378Y392810D2*
X-155431Y391825D1*
X-154577Y390841D1*
X-153867Y389857D1*
X-153299Y388873D1*
X-152890Y387888D1*
X-152684Y386904D1*
X-152694Y385920D1*
X-152916Y384936D1*
X-153331Y383951D1*
X-153887Y382967D1*
X-155533Y381983D1*
X-158110Y380999D1*
X-161299Y380014D1*
X-136693Y392810D2*
X-138312Y391825D1*
X-139589Y390841D1*
X-140485Y389857D1*
X-141061Y388873D1*
X-141405Y387888D1*
X-141677Y386904D1*
X-141975Y385920D1*
X-142252Y384936D1*
X-142433Y383951D1*
X-142527Y382967D1*
X-142570Y381983D1*
X-142584Y380999D1*
X-142556Y380014D1*
X-142433Y379030D1*
X-142198Y378046D1*
X-141946Y377062D1*
X-141771Y376077D1*
X-141641Y375093D1*
X-141436Y374109D1*
X-141107Y373125D1*
X-140221Y372140D1*
X-138767Y371156D1*
X-136503Y370172D1*
X-133740Y369188D1*
X-135709Y392810D2*
X-134090Y391825D1*
X-132812Y390841D1*
X-131913Y389857D1*
X-131306Y388873D1*
X-130871Y387888D1*
X-130489Y386904D1*
X-130174Y385920D1*
X-129978Y384936D1*
X-129877Y383951D1*
X-129832Y382967D1*
X-129814Y381983D1*
X-129807Y380999D1*
X-129804Y380014D1*
X-129807Y379030D1*
X-129842Y378046D1*
X-129967Y377062D1*
X-130207Y376077D1*
X-130494Y375093D1*
X-130798Y374109D1*
X-131218Y373125D1*
X-131778Y372140D1*
X-133527Y371156D1*
X-136274Y370172D1*
X-139646Y369188D1*
X-65827Y392810D2*
X-66770Y391825D1*
X-67589Y390841D1*
X-68170Y389857D1*
X-68558Y388873D1*
X-68554Y387888D1*
X-68090Y386904D1*
X-66870Y385920D1*
X-65460Y384936D1*
X-64105Y383951D1*
X-63428Y382967D1*
X-63168Y381983D1*
X-64372Y380999D1*
X-65817Y380014D1*
X-67210Y379030D1*
X-68318Y378046D1*
X-69175Y377062D1*
X-69475Y376077D1*
X-69605Y375093D1*
X-69545Y374109D1*
X-69345Y373125D1*
X-68722Y372140D1*
X-66642Y371156D1*
X-63217Y370172D1*
X-58937Y369188D1*
X-60906Y392810D2*
X-59921Y391825D1*
X201890Y392810D2*
Y391825D1*
Y390841D1*
Y389857D1*
Y388873D1*
Y387888D1*
Y386904D1*
Y385920D1*
Y384936D1*
Y383951D1*
X192047D1*
Y382967D1*
Y381983D1*
Y380999D1*
Y380014D1*
X201890D1*
Y379030D1*
Y378046D1*
Y377062D1*
Y376077D1*
Y375093D1*
Y374109D1*
Y373125D1*
Y372140D1*
Y371156D1*
Y370172D1*
Y369188D1*
X224528Y392810D2*
Y391825D1*
Y390841D1*
Y389857D1*
Y388873D1*
Y387888D1*
Y386904D1*
Y385920D1*
Y384936D1*
Y383951D1*
X213701D1*
Y382967D1*
Y381983D1*
Y380999D1*
Y380014D1*
X224528D1*
Y379030D1*
Y378046D1*
Y377062D1*
Y376077D1*
Y375093D1*
Y374109D1*
Y373125D1*
Y372140D1*
Y371156D1*
Y370172D1*
Y369188D1*
Y368203D1*
Y367219D1*
Y366235D1*
X248150Y392810D2*
Y391825D1*
Y390841D1*
Y389857D1*
Y388873D1*
Y387888D1*
Y386904D1*
Y385920D1*
Y384936D1*
Y383951D1*
X238307D1*
Y382967D1*
Y381983D1*
Y380999D1*
Y380014D1*
X248150D1*
Y379030D1*
Y378046D1*
Y377062D1*
Y376077D1*
Y375093D1*
Y374109D1*
Y373125D1*
Y372140D1*
Y371156D1*
Y370172D1*
Y369188D1*
X-242008Y388873D2*
Y387888D1*
Y386904D1*
Y385920D1*
Y384936D1*
Y383951D1*
Y382967D1*
Y381983D1*
Y380999D1*
Y380014D1*
Y379030D1*
Y378046D1*
Y377062D1*
Y376077D1*
Y375093D1*
Y374109D1*
Y373125D1*
Y372140D1*
Y371156D1*
Y370172D1*
Y369188D1*
Y368203D1*
Y367219D1*
Y366235D1*
X-241024Y388873D2*
X-239055Y387888D1*
X-237087Y386904D1*
X-26457Y388873D2*
Y387888D1*
Y386904D1*
Y385920D1*
Y384936D1*
Y383951D1*
Y382967D1*
Y381983D1*
Y380999D1*
Y380014D1*
Y379030D1*
Y378046D1*
Y377062D1*
Y376077D1*
Y375093D1*
Y374109D1*
Y373125D1*
Y372140D1*
Y371156D1*
Y370172D1*
Y369188D1*
Y368203D1*
Y367219D1*
Y366235D1*
X-25472Y388873D2*
X-23504Y387888D1*
X-21535Y386904D1*
X-19567Y385920D1*
X121181Y387888D2*
X121029Y386904D1*
X120781Y385920D1*
X120492Y384936D1*
X120194Y383951D1*
X119863Y382967D1*
X119534Y381983D1*
X119220Y380999D1*
X118882Y380014D1*
X118548Y379030D1*
X118206Y378046D1*
X117766Y377062D1*
X117244Y376077D1*
X125118Y375093D1*
X123150Y387888D2*
X123302Y386904D1*
X123550Y385920D1*
X123839Y384936D1*
X124137Y383951D1*
X124468Y382967D1*
X124797Y381983D1*
X125115Y380999D1*
X125483Y380014D1*
X125906Y379030D1*
X126340Y378046D1*
X126737Y377062D1*
X127087Y376077D1*
X118228Y375093D1*
X39488Y380999D2*
Y380014D1*
Y379030D1*
Y378046D1*
Y377062D1*
Y376077D1*
Y375093D1*
Y374109D1*
Y373125D1*
Y372140D1*
Y371156D1*
Y370172D1*
Y369188D1*
Y368203D1*
Y367219D1*
Y366235D1*
X54252Y380999D2*
Y380014D1*
Y379030D1*
Y378046D1*
Y377062D1*
Y376077D1*
Y375093D1*
Y374109D1*
Y373125D1*
Y372140D1*
Y371156D1*
Y370172D1*
Y369188D1*
Y368203D1*
Y367219D1*
Y366235D1*
X173346Y379030D2*
X172518Y378046D1*
X171813Y377062D1*
X171209Y376077D1*
X170636Y375093D1*
X170030Y374109D1*
X169389Y373125D1*
X168784Y372140D1*
X168225Y371156D1*
X167672Y370172D1*
X167077Y369188D1*
X166461Y368203D1*
X165929Y367219D1*
X165472Y366235D1*
X174331Y379030D2*
X175277Y378046D1*
X176132Y377062D1*
X176842Y376077D1*
X177410Y375093D1*
X177823Y374109D1*
X178064Y373125D1*
X178182Y372140D1*
X178235Y371156D1*
X178255Y370172D1*
X178263Y369188D1*
X178266Y368203D1*
X178267Y367219D1*
X178268Y366235D1*
X-270551Y378046D2*
X-269604Y377062D1*
X-268746Y376077D1*
X-267998Y375093D1*
X-267266Y374109D1*
X-266454Y373125D1*
X-265561Y372140D1*
X-264618Y371156D1*
X-263651Y370172D1*
X-262673Y369188D1*
X-261692Y368203D1*
X-260709Y367219D1*
X-261693Y366235D1*
X-267598Y378046D2*
X-266614Y377062D1*
X-164252Y378046D2*
X-163305Y377062D1*
X-162447Y376077D1*
X-161699Y375093D1*
X-160967Y374109D1*
X-160154Y373125D1*
X-159261Y372140D1*
X-158319Y371156D1*
X-157352Y370172D1*
X-156374Y369188D1*
X-155392Y368203D1*
X-154409Y367219D1*
X-155394Y366235D1*
X-161299Y378046D2*
X-160315Y377062D1*
X-179016Y371156D2*
X-179466Y370172D1*
X-179711Y369188D1*
X-179797Y368203D1*
X-179456Y367219D1*
X-179016Y366235D1*
X-176063Y371156D2*
X-175612Y370172D1*
X-175367Y369188D1*
X-175282Y368203D1*
X-175623Y367219D1*
X-176063Y366235D1*
X-47126Y371156D2*
X-47576Y370172D1*
X-47822Y369188D1*
X-47907Y368203D1*
X-47566Y367219D1*
X-47126Y366235D1*
X-44173Y371156D2*
X-43723Y370172D1*
X-43478Y369188D1*
X-43392Y368203D1*
X-43733Y367219D1*
X-44173Y366235D1*
X117244Y372140D2*
X116449Y371156D1*
X115839Y370172D1*
X115383Y369188D1*
X114979Y368203D1*
X114615Y367219D1*
X114291Y366235D1*
X129055Y372140D2*
X129093Y371156D1*
X129223Y370172D1*
X129496Y369188D1*
X129903Y368203D1*
X130426Y367219D1*
X131024Y366235D1*
X-59921Y370172D2*
X-60906Y369188D1*
X-57953Y370172D2*
X-57476Y369188D1*
X-58128Y368203D1*
X-59447Y367219D1*
X-60906Y366235D1*
X-205591Y369188D2*
Y368203D1*
Y367219D1*
Y366235D1*
X187126Y369188D2*
Y368203D1*
Y367219D1*
Y366235D1*
X233386Y369188D2*
Y368203D1*
Y367219D1*
Y366235D1*
X10945Y362298D2*
Y361314D1*
Y360329D1*
X32598Y362298D2*
Y361314D1*
Y360329D1*
X87717Y362298D2*
Y361314D1*
Y360329D1*
X109370Y362298D2*
Y361314D1*
Y360329D1*
X-118264Y-550728D2*
D13*
Y-552041D1*
Y-553353D1*
Y-554665D1*
Y-555978D1*
Y-557290D1*
Y-558602D1*
Y-559915D1*
Y-561227D1*
Y-562539D1*
Y-563852D1*
Y-565164D1*
Y-566476D1*
Y-567789D1*
Y-569101D1*
X-118269Y-570413D1*
X-118315Y-571726D1*
X-118503Y-573038D1*
X-118851Y-574350D1*
X-119865Y-575663D1*
X-122136Y-576975D1*
X-124825Y-578287D1*
X-109077Y-550728D2*
Y-552041D1*
Y-553353D1*
Y-554665D1*
Y-555978D1*
Y-557290D1*
Y-558602D1*
Y-559915D1*
Y-561227D1*
Y-562539D1*
Y-563852D1*
Y-565164D1*
Y-566476D1*
Y-567789D1*
Y-569101D1*
Y-570413D1*
Y-571726D1*
X-109083Y-573038D1*
X-109129Y-574350D1*
X-109296Y-575663D1*
X-109615Y-576975D1*
X-110003Y-578287D1*
X-110450Y-579600D1*
X-111105Y-580912D1*
X-112040Y-582224D1*
X-113261Y-583537D1*
X-114896Y-584849D1*
X-117071Y-586161D1*
X-119576Y-587474D1*
X-68395Y-550728D2*
Y-552041D1*
Y-553353D1*
Y-554665D1*
Y-555978D1*
Y-557290D1*
Y-558602D1*
Y-559915D1*
Y-561227D1*
Y-562539D1*
Y-563852D1*
Y-565164D1*
Y-566476D1*
Y-567789D1*
Y-569101D1*
Y-570413D1*
Y-571726D1*
Y-573038D1*
Y-574350D1*
Y-575663D1*
Y-576975D1*
Y-578287D1*
Y-579600D1*
Y-580912D1*
Y-582224D1*
Y-583537D1*
Y-584849D1*
Y-586161D1*
Y-587474D1*
X-59209Y-550728D2*
Y-552041D1*
Y-553353D1*
Y-554665D1*
Y-555978D1*
Y-557290D1*
Y-558602D1*
Y-559915D1*
Y-561227D1*
Y-562539D1*
Y-563852D1*
Y-565164D1*
Y-566476D1*
Y-567789D1*
Y-569101D1*
Y-570413D1*
Y-571726D1*
Y-573038D1*
Y-574350D1*
Y-575663D1*
Y-576975D1*
Y-578287D1*
Y-579600D1*
Y-580912D1*
Y-582224D1*
Y-583537D1*
Y-584849D1*
Y-586161D1*
Y-587474D1*
X-13277Y-550728D2*
Y-552041D1*
Y-553353D1*
Y-554665D1*
Y-555978D1*
Y-557290D1*
Y-558602D1*
Y-559915D1*
Y-561227D1*
X-18526D1*
Y-562539D1*
Y-563852D1*
Y-565164D1*
Y-566476D1*
Y-567789D1*
Y-569101D1*
Y-570413D1*
Y-571726D1*
X-13277D1*
X-13585Y-573038D1*
X-14119Y-574350D1*
X-15385Y-575663D1*
X-16635Y-576975D1*
X-17703Y-578287D1*
X-18126Y-579600D1*
X-18355Y-580912D1*
X-18459Y-582224D1*
X-18501Y-583537D1*
X-18518Y-584849D1*
X-18523Y-586161D1*
X-18526Y-587474D1*
X-4091Y-550728D2*
Y-552041D1*
Y-553353D1*
Y-554665D1*
Y-555978D1*
Y-557290D1*
Y-558602D1*
Y-559915D1*
Y-561227D1*
Y-562539D1*
Y-563852D1*
Y-565164D1*
Y-566476D1*
Y-567789D1*
Y-569101D1*
Y-570413D1*
Y-571726D1*
Y-573038D1*
X-4096Y-574350D1*
X-4142Y-575663D1*
X-4314Y-576975D1*
X-4680Y-578287D1*
X-5235Y-579600D1*
X-5996Y-580912D1*
X-6993Y-582224D1*
X-8196Y-583537D1*
X-9642Y-584849D1*
X-11374Y-586161D1*
X-13277Y-587474D1*
X16907Y-550728D2*
Y-552041D1*
Y-553353D1*
Y-554665D1*
Y-555978D1*
Y-557290D1*
Y-558602D1*
Y-559915D1*
Y-561227D1*
Y-562539D1*
X16902Y-563852D1*
X16852Y-565164D1*
X16649Y-566476D1*
X16200Y-567789D1*
X15594Y-569101D1*
X26093Y-550728D2*
Y-552041D1*
Y-553353D1*
Y-554665D1*
Y-555978D1*
Y-557290D1*
Y-558602D1*
Y-559915D1*
Y-561227D1*
Y-562539D1*
Y-563852D1*
Y-565164D1*
Y-566476D1*
Y-567789D1*
Y-569101D1*
Y-570413D1*
Y-571726D1*
Y-573038D1*
Y-574350D1*
Y-575663D1*
Y-576975D1*
Y-578287D1*
Y-579600D1*
Y-580912D1*
Y-582224D1*
Y-583537D1*
Y-584849D1*
Y-586161D1*
Y-587474D1*
X64151Y-550728D2*
Y-552041D1*
Y-553353D1*
Y-554665D1*
X64161Y-555978D1*
X64259Y-557290D1*
X64489Y-558602D1*
X65398Y-559915D1*
X66413Y-561227D1*
X67214Y-562539D1*
X67688Y-563852D1*
X67922Y-565164D1*
X68028Y-566476D1*
X68088Y-567789D1*
X64151D1*
Y-569101D1*
Y-570413D1*
Y-571726D1*
Y-573038D1*
Y-574350D1*
Y-575663D1*
Y-576975D1*
Y-578287D1*
X68088D1*
Y-579600D1*
Y-580912D1*
Y-582224D1*
Y-583537D1*
Y-584849D1*
Y-586161D1*
Y-587474D1*
Y-550728D2*
X70159Y-552041D1*
X72005Y-553353D1*
X73528Y-554665D1*
X74767Y-555978D1*
X75789Y-557290D1*
X76515Y-558602D1*
X76930Y-559915D1*
X77132Y-561227D1*
X77219Y-562539D1*
X77254Y-563852D1*
X77267Y-565164D1*
X77272Y-566476D1*
X77273Y-567789D1*
X77274Y-569101D1*
Y-570413D1*
Y-571726D1*
Y-573038D1*
Y-574350D1*
Y-575663D1*
Y-576975D1*
Y-578287D1*
Y-579600D1*
Y-580912D1*
Y-582224D1*
Y-583537D1*
Y-584849D1*
Y-586161D1*
Y-587474D1*
X-261308Y-561227D2*
X-263177Y-562539D1*
X-264692Y-563852D1*
X-265830Y-565164D1*
X-266672Y-566476D1*
X-267256Y-567789D1*
X-267591Y-569101D1*
X-267754Y-570413D1*
X-267825Y-571726D1*
X-267854Y-573038D1*
X-267864Y-574350D1*
X-267868Y-575663D1*
X-267869Y-576975D1*
X-267870Y-578287D1*
Y-579600D1*
Y-580912D1*
Y-582224D1*
Y-583537D1*
Y-584849D1*
Y-586161D1*
Y-587474D1*
X-254747Y-561227D2*
X-250277Y-562539D1*
X-245560Y-563852D1*
X-244248Y-561227D2*
X-248718Y-562539D1*
X-253434Y-563852D1*
X-237686Y-561227D2*
X-235773Y-562539D1*
X-234135Y-563852D1*
X-232851Y-565164D1*
X-231843Y-566476D1*
X-231473Y-567789D1*
X-231273Y-569101D1*
X-231183Y-570413D1*
X-231146Y-571726D1*
X-231132Y-573038D1*
X-231127Y-574350D1*
X-231126Y-575663D1*
X-231125Y-576975D1*
Y-578287D1*
Y-579600D1*
Y-580912D1*
Y-582224D1*
Y-583537D1*
Y-584849D1*
Y-586161D1*
Y-587474D1*
X-215377Y-561227D2*
X-217295Y-562539D1*
X-218979Y-563852D1*
X-220436Y-565164D1*
X-221660Y-566476D1*
X-222641Y-567789D1*
X-223412Y-569101D1*
X-223967Y-570413D1*
X-224290Y-571726D1*
X-224449Y-573038D1*
X-224514Y-574350D1*
X-224495Y-575663D1*
X-224334Y-576975D1*
X-223972Y-578287D1*
X-223418Y-579600D1*
X-222657Y-580912D1*
X-221661Y-582224D1*
X-220457Y-583537D1*
X-219012Y-584849D1*
X-217279Y-586161D1*
X-215377Y-587474D1*
X-206190Y-561227D2*
X-203829Y-562539D1*
X-201795Y-563852D1*
X-200215Y-565164D1*
X-199056Y-566476D1*
X-198201Y-567789D1*
X-197567Y-569101D1*
X-197065Y-570413D1*
X-196592Y-571726D1*
X-196231Y-573038D1*
X-196033Y-574350D1*
X-196301Y-575663D1*
X-196644Y-576975D1*
X-197026Y-578287D1*
X-197505Y-579600D1*
X-198118Y-580912D1*
X-198953Y-582224D1*
X-200171Y-583537D1*
X-201855Y-584849D1*
X-203936Y-586161D1*
X-206190Y-587474D1*
X-181256Y-561227D2*
X-183780Y-562539D1*
X-185841Y-563852D1*
X-187483Y-565164D1*
X-188736Y-566476D1*
X-189694Y-567789D1*
X-190096Y-569101D1*
X-189058Y-570413D1*
X-187818Y-571726D1*
X-173382Y-561227D2*
X-171020Y-562539D1*
X-168987Y-563852D1*
X-167407Y-565164D1*
X-166247Y-566476D1*
X-165398Y-567789D1*
X-164810Y-569101D1*
X-164475Y-570413D1*
X-164312Y-571726D1*
X-164241Y-573038D1*
X-164212Y-574350D1*
X-164207Y-575663D1*
X-164254Y-576975D1*
X-164466Y-578287D1*
X-164952Y-579600D1*
X-165659Y-580912D1*
X-166494Y-582224D1*
X-167596Y-583537D1*
X-169170Y-584849D1*
X-171179Y-586161D1*
X-173382Y-587474D1*
X-127450Y-561227D2*
X-129767Y-562539D1*
X-131679Y-563852D1*
X-133111Y-565164D1*
X-134248Y-566476D1*
X-135205Y-567789D1*
X-135900Y-569101D1*
X-136301Y-570413D1*
X-136497Y-571726D1*
X-136583Y-573038D1*
X-136617Y-574350D1*
X-136624Y-575663D1*
X-136578Y-576975D1*
X-136366Y-578287D1*
X-135875Y-579600D1*
X-135127Y-580912D1*
X-134170Y-582224D1*
X-132923Y-583537D1*
X-131334Y-584849D1*
X-129467Y-586161D1*
X-127450Y-587474D1*
X-120888Y-561227D2*
Y-562539D1*
Y-563852D1*
Y-565164D1*
X-120909Y-566476D1*
X-120970Y-567789D1*
X-121545Y-569101D1*
X-123171Y-570413D1*
X-124876Y-571726D1*
X-126154Y-573038D1*
X-127087Y-574350D1*
X-125994Y-575663D1*
X-123061Y-576975D1*
X-119576Y-578287D1*
X-93329Y-561227D2*
X-95646Y-562539D1*
X-97553Y-563852D1*
X-98944Y-565164D1*
X-99960Y-566476D1*
X-100770Y-567789D1*
X-101443Y-569101D1*
X-101952Y-570413D1*
X-102255Y-571726D1*
X-102406Y-573038D1*
X-102473Y-574350D1*
X-102500Y-575663D1*
X-102510Y-576975D1*
X-102514Y-578287D1*
X-102515Y-579600D1*
X-102516Y-580912D1*
Y-582224D1*
Y-583537D1*
Y-584849D1*
Y-586161D1*
Y-587474D1*
X-84143Y-561227D2*
X-81781Y-562539D1*
X-79748Y-563852D1*
X-78168Y-565164D1*
X-77008Y-566476D1*
X-76159Y-567789D1*
X-75566Y-569101D1*
X-75181Y-570413D1*
X-74815Y-571726D1*
X-74292Y-573038D1*
X-73644Y-574350D1*
X-74255Y-575663D1*
X-74678Y-576975D1*
X-75041Y-578287D1*
X-75492Y-579600D1*
X-76086Y-580912D1*
X-76912Y-582224D1*
X-78126Y-583537D1*
X-79809Y-584849D1*
X-81889Y-586161D1*
X-84143Y-587474D1*
X-42148Y-561227D2*
X-44465Y-562539D1*
X-46372Y-563852D1*
X-47763Y-565164D1*
X-48779Y-566476D1*
X-49589Y-567789D1*
X-50262Y-569101D1*
X-50770Y-570413D1*
X-51074Y-571726D1*
X-51225Y-573038D1*
X-51292Y-574350D1*
X-51319Y-575663D1*
X-51329Y-576975D1*
X-51333Y-578287D1*
X-51334Y-579600D1*
Y-580912D1*
X-51335Y-582224D1*
Y-583537D1*
Y-584849D1*
Y-586161D1*
Y-587474D1*
X-32962Y-561227D2*
X-30600Y-562539D1*
X-28567Y-563852D1*
X-26987Y-565164D1*
X-25827Y-566476D1*
X-24978Y-567789D1*
X-24385Y-569101D1*
X-24000Y-570413D1*
X-23634Y-571726D1*
X-23111Y-573038D1*
X-22463Y-574350D1*
X-23074Y-575663D1*
X-23497Y-576975D1*
X-23860Y-578287D1*
X-24310Y-579600D1*
X-24905Y-580912D1*
X-25731Y-582224D1*
X-26945Y-583537D1*
X-28628Y-584849D1*
X-30708Y-586161D1*
X-32962Y-587474D1*
X1159Y-561227D2*
X1973Y-562539D1*
X2721Y-563852D1*
X3424Y-565164D1*
X4103Y-566476D1*
X4802Y-567789D1*
X5571Y-569101D1*
X6408Y-570413D1*
X5752Y-571726D1*
X5202Y-573038D1*
X4651Y-574350D1*
X4057Y-575663D1*
X3434Y-576975D1*
X2795Y-578287D1*
X2187Y-579600D1*
X1658Y-580912D1*
X1191Y-582224D1*
X679Y-583537D1*
X70Y-584849D1*
X-655Y-586161D1*
X-1466Y-587474D1*
X11657Y-561227D2*
X12156Y-562539D1*
X12720Y-563852D1*
X13334Y-565164D1*
X14005Y-566476D1*
X14763Y-567789D1*
X15594Y-569101D1*
X40529Y-561227D2*
X38611Y-562539D1*
X36927Y-563852D1*
X35475Y-565164D1*
X34291Y-566476D1*
X33431Y-567789D1*
X32808Y-569101D1*
X32275Y-570413D1*
X31844Y-571726D1*
X31577Y-573038D1*
X31434Y-574350D1*
X31343Y-575663D1*
X49715Y-561227D2*
X52077Y-562539D1*
X54111Y-563852D1*
X55690Y-565164D1*
X56850Y-566476D1*
X57705Y-567789D1*
X58338Y-569101D1*
X58840Y-570413D1*
X59313Y-571726D1*
X59675Y-573038D1*
X59872Y-574350D1*
X59605Y-575663D1*
X59261Y-576975D1*
X58879Y-578287D1*
X58400Y-579600D1*
X57787Y-580912D1*
X56953Y-582224D1*
X55735Y-583537D1*
X54050Y-584849D1*
X51969Y-586161D1*
X49715Y-587474D1*
X91710Y-561227D2*
X89792Y-562539D1*
X88108Y-563852D1*
X86656Y-565164D1*
X85472Y-566476D1*
X84612Y-567789D1*
X83989Y-569101D1*
X83456Y-570413D1*
X83025Y-571726D1*
X82758Y-573038D1*
X82615Y-574350D1*
X82524Y-575663D1*
X100896Y-561227D2*
X103258Y-562539D1*
X105292Y-563852D1*
X106871Y-565164D1*
X108031Y-566476D1*
X108886Y-567789D1*
X109519Y-569101D1*
X110022Y-570413D1*
X110494Y-571726D1*
X110856Y-573038D1*
X111053Y-574350D1*
X110786Y-575663D1*
X110442Y-576975D1*
X110060Y-578287D1*
X109581Y-579600D1*
X108969Y-580912D1*
X108134Y-582224D1*
X106916Y-583537D1*
X105231Y-584849D1*
X103151Y-586161D1*
X100896Y-587474D1*
X138954Y-561227D2*
Y-562539D1*
Y-563852D1*
Y-565164D1*
Y-566476D1*
Y-567789D1*
Y-569101D1*
Y-570413D1*
Y-571726D1*
Y-573038D1*
Y-574350D1*
Y-575663D1*
X138959Y-576975D1*
X139005Y-578287D1*
X139178Y-579600D1*
X139543Y-580912D1*
X140103Y-582224D1*
X140915Y-583537D1*
X142108Y-584849D1*
X143702Y-586161D1*
X145516Y-587474D1*
X148140Y-561227D2*
Y-562539D1*
Y-563852D1*
Y-565164D1*
Y-566476D1*
Y-567789D1*
Y-569101D1*
Y-570413D1*
Y-571726D1*
X148151Y-573038D1*
X148251Y-574350D1*
X148489Y-575663D1*
X149512Y-576975D1*
X150765Y-578287D1*
X153390Y-561227D2*
Y-562539D1*
Y-563852D1*
Y-565164D1*
Y-566476D1*
Y-567789D1*
Y-569101D1*
Y-570413D1*
X153385Y-571726D1*
X153323Y-573038D1*
X153169Y-574350D1*
X152358Y-575663D1*
X150406Y-576975D1*
X148140Y-578287D1*
X162576Y-561227D2*
Y-562539D1*
Y-563852D1*
Y-565164D1*
Y-566476D1*
Y-567789D1*
Y-569101D1*
Y-570413D1*
Y-571726D1*
X162586Y-573038D1*
X162686Y-574350D1*
X162925Y-575663D1*
X163947Y-576975D1*
X165201Y-578287D1*
X166513Y-561227D2*
Y-562539D1*
Y-563852D1*
Y-565164D1*
Y-566476D1*
Y-567789D1*
Y-569101D1*
Y-570413D1*
Y-571726D1*
X166503Y-573038D1*
X166403Y-574350D1*
X166165Y-575663D1*
X165142Y-576975D1*
X163888Y-578287D1*
X175699Y-561227D2*
Y-562539D1*
Y-563852D1*
Y-565164D1*
Y-566476D1*
Y-567789D1*
Y-569101D1*
Y-570413D1*
Y-571726D1*
Y-573038D1*
Y-574350D1*
Y-575663D1*
Y-576975D1*
X175694Y-578287D1*
X175643Y-579600D1*
X175425Y-580912D1*
X174887Y-582224D1*
X173967Y-583537D1*
X172667Y-584849D1*
X171002Y-586161D1*
X169138Y-587474D1*
X183573Y-561227D2*
Y-562539D1*
Y-563852D1*
Y-565164D1*
Y-566476D1*
Y-567789D1*
Y-569101D1*
Y-570413D1*
Y-571726D1*
Y-573038D1*
Y-574350D1*
Y-575663D1*
X183579Y-576975D1*
X183625Y-578287D1*
X183797Y-579600D1*
X184163Y-580912D1*
X184723Y-582224D1*
X185534Y-583537D1*
X186727Y-584849D1*
X188322Y-586161D1*
X190135Y-587474D1*
X192760Y-561227D2*
Y-562539D1*
Y-563852D1*
Y-565164D1*
Y-566476D1*
Y-567789D1*
Y-569101D1*
Y-570413D1*
Y-571726D1*
X192770Y-573038D1*
X192870Y-574350D1*
X193108Y-575663D1*
X194131Y-576975D1*
X195385Y-578287D1*
X198009Y-561227D2*
Y-562539D1*
Y-563852D1*
Y-565164D1*
Y-566476D1*
Y-567789D1*
Y-569101D1*
Y-570413D1*
X198004Y-571726D1*
X197943Y-573038D1*
X197789Y-574350D1*
X196978Y-575663D1*
X195026Y-576975D1*
X192760Y-578287D1*
X207196Y-561227D2*
Y-562539D1*
Y-563852D1*
Y-565164D1*
Y-566476D1*
Y-567789D1*
Y-569101D1*
Y-570413D1*
Y-571726D1*
X207206Y-573038D1*
X207306Y-574350D1*
X207544Y-575663D1*
X208567Y-576975D1*
X209820Y-578287D1*
X211133Y-561227D2*
Y-562539D1*
Y-563852D1*
Y-565164D1*
Y-566476D1*
Y-567789D1*
Y-569101D1*
Y-570413D1*
Y-571726D1*
X211122Y-573038D1*
X211022Y-574350D1*
X210784Y-575663D1*
X209761Y-576975D1*
X208508Y-578287D1*
X220319Y-561227D2*
Y-562539D1*
Y-563852D1*
Y-565164D1*
Y-566476D1*
Y-567789D1*
Y-569101D1*
Y-570413D1*
Y-571726D1*
Y-573038D1*
Y-574350D1*
Y-575663D1*
Y-576975D1*
X220314Y-578287D1*
X220263Y-579600D1*
X220044Y-580912D1*
X219506Y-582224D1*
X218587Y-583537D1*
X217286Y-584849D1*
X215621Y-586161D1*
X213757Y-587474D1*
X228193Y-561227D2*
Y-562539D1*
Y-563852D1*
Y-565164D1*
Y-566476D1*
Y-567789D1*
Y-569101D1*
Y-570413D1*
Y-571726D1*
Y-573038D1*
Y-574350D1*
Y-575663D1*
X228198Y-576975D1*
X228244Y-578287D1*
X228417Y-579600D1*
X228782Y-580912D1*
X229342Y-582224D1*
X230154Y-583537D1*
X231347Y-584849D1*
X232941Y-586161D1*
X234755Y-587474D1*
X237379Y-561227D2*
Y-562539D1*
Y-563852D1*
Y-565164D1*
Y-566476D1*
Y-567789D1*
Y-569101D1*
Y-570413D1*
Y-571726D1*
X237390Y-573038D1*
X237489Y-574350D1*
X237728Y-575663D1*
X238751Y-576975D1*
X240004Y-578287D1*
X242629Y-561227D2*
Y-562539D1*
Y-563852D1*
Y-565164D1*
Y-566476D1*
Y-567789D1*
Y-569101D1*
Y-570413D1*
X242623Y-571726D1*
X242562Y-573038D1*
X242408Y-574350D1*
X241597Y-575663D1*
X239645Y-576975D1*
X237379Y-578287D1*
X251815Y-561227D2*
Y-562539D1*
Y-563852D1*
Y-565164D1*
Y-566476D1*
Y-567789D1*
Y-569101D1*
Y-570413D1*
Y-571726D1*
X251825Y-573038D1*
X251925Y-574350D1*
X252164Y-575663D1*
X253186Y-576975D1*
X254440Y-578287D1*
X255752Y-561227D2*
Y-562539D1*
Y-563852D1*
Y-565164D1*
Y-566476D1*
Y-567789D1*
Y-569101D1*
Y-570413D1*
Y-571726D1*
X255742Y-573038D1*
X255642Y-574350D1*
X255403Y-575663D1*
X254381Y-576975D1*
X253127Y-578287D1*
X264938Y-561227D2*
Y-562539D1*
Y-563852D1*
Y-565164D1*
Y-566476D1*
Y-567789D1*
Y-569101D1*
Y-570413D1*
Y-571726D1*
Y-573038D1*
Y-574350D1*
Y-575663D1*
Y-576975D1*
X264933Y-578287D1*
X264882Y-579600D1*
X264663Y-580912D1*
X264125Y-582224D1*
X263206Y-583537D1*
X261906Y-584849D1*
X260240Y-586161D1*
X258377Y-587474D1*
X43154Y-567789D2*
X41841Y-569101D1*
X40529Y-570413D1*
X47091Y-571726D1*
Y-573038D1*
Y-574350D1*
Y-575663D1*
Y-567789D2*
X48145Y-569101D1*
X48912Y-570413D1*
X49352Y-571726D1*
X49560Y-573038D1*
X49580Y-574350D1*
X49442Y-575663D1*
X48391Y-576975D1*
X45996Y-578287D1*
X43490Y-579600D1*
X41389Y-580912D1*
X39852Y-582224D1*
X38720Y-583537D1*
X38261Y-584849D1*
X39293Y-586161D1*
X40529Y-587474D1*
X94335Y-567789D2*
X93022Y-569101D1*
X91710Y-570413D1*
X98272Y-571726D1*
Y-573038D1*
Y-574350D1*
Y-575663D1*
Y-567789D2*
X99326Y-569101D1*
X100094Y-570413D1*
X100533Y-571726D1*
X100741Y-573038D1*
X100762Y-574350D1*
X100623Y-575663D1*
X99573Y-576975D1*
X97177Y-578287D1*
X94671Y-579600D1*
X92570Y-580912D1*
X91033Y-582224D1*
X89901Y-583537D1*
X89443Y-584849D1*
X90475Y-586161D1*
X91710Y-587474D1*
X-258684Y-570413D2*
Y-571726D1*
Y-573038D1*
Y-574350D1*
Y-575663D1*
Y-576975D1*
Y-578287D1*
Y-579600D1*
Y-580912D1*
Y-582224D1*
Y-583537D1*
Y-584849D1*
Y-586161D1*
Y-587474D1*
X-256059Y-570413D2*
X-255005Y-571726D1*
X-254237Y-573038D1*
X-253798Y-574350D1*
X-253584Y-575663D1*
X-253492Y-576975D1*
X-253456Y-578287D1*
X-253442Y-579600D1*
X-253437Y-580912D1*
X-253435Y-582224D1*
Y-583537D1*
X-253434Y-584849D1*
Y-586161D1*
Y-587474D1*
X-244248Y-570413D2*
Y-571726D1*
Y-573038D1*
Y-574350D1*
Y-575663D1*
Y-576975D1*
Y-578287D1*
Y-579600D1*
Y-580912D1*
Y-582224D1*
Y-583537D1*
Y-584849D1*
Y-586161D1*
Y-587474D1*
X-240311Y-570413D2*
Y-571726D1*
Y-573038D1*
Y-574350D1*
Y-575663D1*
Y-576975D1*
Y-578287D1*
Y-579600D1*
Y-580912D1*
Y-582224D1*
Y-583537D1*
Y-584849D1*
Y-586161D1*
Y-587474D1*
X-212752Y-570413D2*
X-213801Y-571726D1*
X-214673Y-573038D1*
X-214841Y-574350D1*
X-214459Y-575663D1*
X-211191Y-576975D1*
X-207503Y-578287D1*
X-208815Y-570413D2*
X-207766Y-571726D1*
X-206894Y-573038D1*
X-206726Y-574350D1*
X-207108Y-575663D1*
X-210376Y-576975D1*
X-214064Y-578287D1*
X-179944Y-570413D2*
X-181256Y-571726D1*
X-176007Y-570413D2*
X-174957Y-571726D1*
X-174085Y-573038D1*
X-173918Y-574350D1*
X-174299Y-575663D1*
X-177567Y-576975D1*
X-181256Y-578287D1*
X-90705Y-570413D2*
X-91759Y-571726D1*
X-92527Y-573038D1*
X-92966Y-574350D1*
X-93179Y-575663D1*
X-93271Y-576975D1*
X-93308Y-578287D1*
X-93322Y-579600D1*
X-93327Y-580912D1*
X-93329Y-582224D1*
Y-583537D1*
Y-584849D1*
Y-586161D1*
Y-587474D1*
X-86768Y-570413D2*
X-85718Y-571726D1*
X-84847Y-573038D1*
X-84659Y-574350D1*
X-85385Y-575663D1*
X-87123Y-576975D1*
X-88720Y-578287D1*
X-89947Y-579600D1*
X-90347Y-580912D1*
X-90556Y-582224D1*
X-90648Y-583537D1*
X-90684Y-584849D1*
X-90698Y-586161D1*
X-90705Y-587474D1*
X-39524Y-570413D2*
X-40578Y-571726D1*
X-41346Y-573038D1*
X-41785Y-574350D1*
X-41998Y-575663D1*
X-42090Y-576975D1*
X-42127Y-578287D1*
X-42141Y-579600D1*
X-42146Y-580912D1*
X-42147Y-582224D1*
X-42148Y-583537D1*
Y-584849D1*
Y-586161D1*
Y-587474D1*
X-35587Y-570413D2*
X-34537Y-571726D1*
X-33666Y-573038D1*
X-33477Y-574350D1*
X-34204Y-575663D1*
X-35942Y-576975D1*
X-37539Y-578287D1*
X-38766Y-579600D1*
X-39166Y-580912D1*
X-39375Y-582224D1*
X-39467Y-583537D1*
X-39503Y-584849D1*
X-39517Y-586161D1*
X-39524Y-587474D1*
X14282Y-571726D2*
X14232Y-573038D1*
X14059Y-574350D1*
X13698Y-575663D1*
X13194Y-576975D1*
X12646Y-578287D1*
X12142Y-579600D1*
X11690Y-580912D1*
X11226Y-582224D1*
X10775Y-583537D1*
X10316Y-584849D1*
X9728Y-586161D1*
X9033Y-587474D1*
X16907Y-571726D2*
Y-573038D1*
Y-574350D1*
Y-575663D1*
Y-576975D1*
Y-578287D1*
Y-579600D1*
Y-580912D1*
Y-582224D1*
Y-583537D1*
Y-584849D1*
Y-586161D1*
Y-587474D1*
X-191755Y-575663D2*
X-191301Y-576975D1*
X-190859Y-578287D1*
X-190392Y-579600D1*
X-189730Y-580912D1*
X-188793Y-582224D1*
X-187571Y-583537D1*
X-185937Y-584849D1*
X-183761Y-586161D1*
X-181256Y-587474D1*
X-182568Y-575663D2*
X-178795Y-576975D1*
X-174694Y-578287D1*
X-152385Y-575663D2*
X-153799Y-576975D1*
X-154878Y-578287D1*
X-155594Y-579600D1*
X-156060Y-580912D1*
X-155988Y-582224D1*
X-155634Y-583537D1*
X-154916Y-584849D1*
X-153781Y-586161D1*
X-152385Y-587474D1*
X-147135Y-575663D2*
X-146081Y-576975D1*
X-145313Y-578287D1*
X-144874Y-579600D1*
X-144666Y-580912D1*
X-144625Y-582224D1*
X-144806Y-583537D1*
X-145321Y-584849D1*
X-146155Y-586161D1*
X-147135Y-587474D1*
X121894Y-575663D2*
X120479Y-576975D1*
X119400Y-578287D1*
X118684Y-579600D1*
X118218Y-580912D1*
X118290Y-582224D1*
X118644Y-583537D1*
X119362Y-584849D1*
X120497Y-586161D1*
X121894Y-587474D1*
X127143Y-575663D2*
X128197Y-576975D1*
X128965Y-578287D1*
X129404Y-579600D1*
X129612Y-580912D1*
X129653Y-582224D1*
X129472Y-583537D1*
X128958Y-584849D1*
X128123Y-586161D1*
X127143Y-587474D1*
X158639Y-584849D2*
X156014Y-586161D1*
X153390Y-587474D1*
X157327Y-584849D2*
X159951Y-586161D1*
X162576Y-587474D1*
X203259Y-584849D2*
X200634Y-586161D1*
X198009Y-587474D1*
X201946Y-584849D2*
X204571Y-586161D1*
X207196Y-587474D1*
X247878Y-584849D2*
X245253Y-586161D1*
X242629Y-587474D1*
X246566Y-584849D2*
X249190Y-586161D1*
X251815Y-587474D1*
X-392902Y94749D2*
D59*
X-377603D1*
X-374729Y95699D1*
X-373778Y96672D1*
X-372806Y98573D1*
Y100497D1*
X-373778Y102398D1*
X-374729Y103349D1*
X-377603Y104321D1*
X-379504D1*
X-392902Y88573D2*
X-372806D1*
Y77099D1*
X-388126Y56575D2*
X-390028Y57526D1*
X-391951Y59449D1*
X-392902Y61351D1*
Y65175D1*
X-391951Y67099D1*
X-390028Y69000D1*
X-388126Y69973D1*
X-385252Y70923D1*
X-380455D1*
X-377603Y69973D1*
X-375680Y69000D1*
X-373778Y67099D1*
X-372806Y65175D1*
Y61351D1*
X-373778Y59449D1*
X-375680Y57526D1*
X-377603Y56575D1*
X-392902Y40827D2*
X-377603D1*
X-374729Y41778D1*
X-373778Y42750D1*
X-372806Y44652D1*
Y46575D1*
X-373778Y48476D1*
X-374729Y49427D1*
X-377603Y50400D1*
X-379504D1*
X-392902Y34651D2*
X-372806D1*
Y23177D1*
X-388126Y2654D2*
X-390028Y3604D1*
X-391951Y5528D1*
X-392902Y7429D1*
Y11254D1*
X-391951Y13177D1*
X-390028Y15078D1*
X-388126Y16051D1*
X-385252Y17002D1*
X-380455D1*
X-377603Y16051D1*
X-375680Y15078D1*
X-373778Y13177D1*
X-372806Y11254D1*
Y7429D1*
X-373778Y5528D1*
X-375680Y3604D1*
X-377603Y2654D1*
X-392902Y-13095D2*
X-377603D1*
X-374729Y-12144D1*
X-373778Y-11171D1*
X-372806Y-9270D1*
Y-7347D1*
X-373778Y-5445D1*
X-374729Y-4495D1*
X-377603Y-3522D1*
X-379504D1*
X-392902Y-19270D2*
X-372806D1*
Y-30744D1*
X-388126Y-51268D2*
X-390027Y-50317D1*
X-391951Y-48394D1*
X-392902Y-46493D1*
Y-42668D1*
X-391951Y-40745D1*
X-390028Y-38843D1*
X-388126Y-37871D1*
X-385252Y-36920D1*
X-380455D1*
X-377603Y-37871D1*
X-375680Y-38843D1*
X-373778Y-40745D1*
X-372806Y-42668D1*
Y-46493D1*
X-373778Y-48394D1*
X-375680Y-50317D1*
X-377603Y-51268D1*
X-392902Y-67016D2*
X-377603D1*
X-374729Y-66066D1*
X-373778Y-65093D1*
X-372806Y-63192D1*
Y-61268D1*
X-373778Y-59367D1*
X-374729Y-58416D1*
X-377603Y-57444D1*
X-379504D1*
X-392901Y-73192D2*
X-372806D1*
Y-84666D1*
X-388126Y-105190D2*
X-390028Y-104239D1*
X-391951Y-102316D1*
X-392902Y-100414D1*
Y-96590D1*
X-391951Y-94666D1*
X-390027Y-92765D1*
X-388126Y-91792D1*
X-385252Y-90842D1*
X-380455D1*
X-377603Y-91792D1*
X-375680Y-92765D1*
X-373778Y-94666D1*
X-372805Y-96590D1*
X-372806Y-100414D1*
X-373778Y-102316D1*
X-375680Y-104239D1*
X-377603Y-105190D1*
M02*
