G04 DipTrace 3.2.0.1*
G04 BottomSilk.gbr*
%MOMM*%
G04 #@! TF.FileFunction,Legend,Bot*
G04 #@! TF.Part,Single*
%ADD10C,0.25*%
%ADD13C,0.06667*%
%ADD14C,0.05*%
%FSLAX35Y35*%
G04*
G71*
G90*
G75*
G01*
G04 BotSilk*
%LPD*%
X1546740Y-941988D2*
D10*
X1226460D1*
X1546740Y-922906D2*
X1226460D1*
X1546740D2*
X1546604Y-1043140D1*
X1226460Y-922906D2*
X1226596Y-1043140D1*
X1514818Y1281365D2*
X1577801Y1281308D1*
X1579293Y1280800D2*
X1579184Y1217856D1*
X1232384Y-244744D2*
G02X886413Y-854591I-1067940J202792D01*
G01*
X-1219271Y269782D2*
G02X1223456Y253047I1219614J-263774D01*
G01*
X-1260564Y-248133D2*
G03X-913477Y-864547I1256624J301649D01*
G01*
X1054320Y-957433D2*
D14*
X1064320D1*
X1121820D2*
X1136820D1*
X1055270Y-959933D2*
X1065270D1*
X1117407D2*
X1141618D1*
X1056344Y-962433D2*
X1066344D1*
X1113765D2*
X1145466D1*
X1057505Y-964933D2*
X1067505D1*
X1111037D2*
X1148365D1*
X1058720Y-967433D2*
X1068710D1*
X1108869D2*
X1124821D1*
X1133819D2*
X1150491D1*
X1059953Y-969933D2*
X1069865D1*
X1107045D2*
X1120954D1*
X1137693D2*
X1152064D1*
X1061199Y-972433D2*
X1070871D1*
X1105714D2*
X1118001D1*
X1140702D2*
X1153172D1*
X1062445Y-974933D2*
X1071758D1*
X1104896D2*
X1115930D1*
X1142912D2*
X1153890D1*
X1063696Y-977433D2*
X1072727D1*
X1104320D2*
X1114320D1*
X1144530D2*
X1154517D1*
X1064944Y-979933D2*
X1073821D1*
X1145649D2*
X1155250D1*
X1066196Y-982433D2*
X1074995D1*
X1146287D2*
X1155945D1*
X1067444Y-984933D2*
X1076215D1*
X1146599D2*
X1156401D1*
X1046820Y-987433D2*
X1054320D1*
X1068686D2*
X1077451D1*
X1146734D2*
X1156640D1*
X1046820Y-989933D2*
X1054320D1*
X1069856D2*
X1078698D1*
X1146788D2*
X1156749D1*
X1046820Y-992433D2*
X1054320D1*
X1070868D2*
X1079945D1*
X1146809D2*
X1156793D1*
X1046820Y-994933D2*
X1054320D1*
X1071757D2*
X1081196D1*
X1146816D2*
X1156810D1*
X1046820Y-997433D2*
X1054320D1*
X1072727D2*
X1082444D1*
X1146819D2*
X1156817D1*
X1046820Y-999933D2*
X1054320D1*
X1073821D2*
X1083696D1*
X1146820D2*
X1156809D1*
X1046820Y-1002433D2*
X1054320D1*
X1075003D2*
X1084944D1*
X1146810D2*
X1156722D1*
X1046820Y-1004933D2*
X1054320D1*
X1076288D2*
X1086186D1*
X1146722D2*
X1156404D1*
X1046820Y-1007433D2*
X1054320D1*
X1077734D2*
X1087346D1*
X1146394D2*
X1155805D1*
X1046820Y-1009933D2*
X1054320D1*
X1079320D2*
X1088270D1*
X1145698D2*
X1155154D1*
X1041820Y-1012433D2*
X1088831D1*
X1104320D2*
X1114320D1*
X1144631D2*
X1154630D1*
X1041820Y-1014933D2*
X1089115D1*
X1104802D2*
X1115800D1*
X1143053D2*
X1154070D1*
X1041820Y-1017433D2*
X1089245D1*
X1105752D2*
X1117770D1*
X1140963D2*
X1153268D1*
X1041820Y-1019933D2*
X1089320D1*
X1107105D2*
X1122458D1*
X1136226D2*
X1152167D1*
X1046820Y-1022433D2*
X1054320D1*
X1108698D2*
X1129050D1*
X1129607D2*
X1150679D1*
X1046820Y-1024933D2*
X1054320D1*
X1110797D2*
X1148595D1*
X1046820Y-1027433D2*
X1054320D1*
X1113796D2*
X1145622D1*
X1046820Y-1029933D2*
X1054320D1*
X1117623D2*
X1141550D1*
X1046820Y-1032433D2*
X1054320D1*
X1121820D2*
X1136820D1*
X1089817Y1109983D2*
X1094817D1*
X1134817D2*
X1139817D1*
X1085018Y1107483D2*
X1099615D1*
X1133806D2*
X1141357D1*
X1081170Y1104983D2*
X1103453D1*
X1133985D2*
X1142695D1*
X1078272Y1102483D2*
X1106273D1*
X1134635D2*
X1143715D1*
X1076146Y1099983D2*
X1108169D1*
X1135523D2*
X1144402D1*
X1074573Y1097483D2*
X1085213D1*
X1099335D2*
X1109462D1*
X1136334D2*
X1145018D1*
X1073474Y1094983D2*
X1083430D1*
X1100885D2*
X1110518D1*
X1136852D2*
X1145748D1*
X1072844Y1092483D2*
X1081994D1*
X1102041D2*
X1111353D1*
X1137119D2*
X1146442D1*
X1072536Y1089983D2*
X1080947D1*
X1103046D2*
X1111875D1*
X1137239D2*
X1146898D1*
X1072402Y1087483D2*
X1080335D1*
X1103862D2*
X1112223D1*
X1137288D2*
X1147137D1*
X1072348Y1084983D2*
X1080033D1*
X1104378D2*
X1112658D1*
X1137306D2*
X1147236D1*
X1072328Y1082483D2*
X1079911D1*
X1104724D2*
X1113314D1*
X1137303D2*
X1147192D1*
X1072320Y1079983D2*
X1079945D1*
X1105158D2*
X1114060D1*
X1137208D2*
X1146891D1*
X1072328Y1077483D2*
X1080254D1*
X1105814D2*
X1114870D1*
X1136975D2*
X1146289D1*
X1072415Y1074983D2*
X1080943D1*
X1106560D2*
X1115847D1*
X1135818D2*
X1145562D1*
X1072743Y1072483D2*
X1081997D1*
X1107331D2*
X1118154D1*
X1131809D2*
X1144798D1*
X1073437Y1069983D2*
X1083440D1*
X1108262D2*
X1123480D1*
X1125357D2*
X1143870D1*
X1074471Y1067483D2*
X1085284D1*
X1109436D2*
X1142688D1*
X1075799Y1064983D2*
X1087317D1*
X1111026D2*
X1141002D1*
X1077317Y1062483D2*
X1082317D1*
X1113315D2*
X1138327D1*
X1116359Y1059983D2*
X1134428D1*
X1119817Y1057483D2*
X1129817D1*
X1072317Y1047483D2*
X1077317D1*
X1072451Y1044983D2*
X1088171D1*
X1072776Y1042483D2*
X1098915D1*
X1074685Y1039983D2*
X1109380D1*
X1080334Y1037483D2*
X1119497D1*
X1088160Y1034983D2*
X1128899D1*
X1097535Y1032483D2*
X1136680D1*
X1107770Y1029983D2*
X1142877D1*
X1118629Y1027483D2*
X1145551D1*
X1129817Y1024983D2*
X1146350D1*
X1122134Y1022483D2*
X1146741D1*
X1113658Y1019983D2*
X1142897D1*
X1104723Y1017483D2*
X1137305D1*
X1095859Y1014983D2*
X1130039D1*
X1087658Y1012483D2*
X1121714D1*
X1081016Y1009983D2*
X1112949D1*
X1075880Y1007483D2*
X1103955D1*
X1073903Y1004983D2*
X1094817D1*
X1073037Y1002483D2*
X1102413D1*
X1078856Y999983D2*
X1110657D1*
X1085875Y997483D2*
X1119292D1*
X1094024Y994983D2*
X1127938D1*
X1102961Y992483D2*
X1135706D1*
X1112127Y989983D2*
X1142242D1*
X1121078Y987483D2*
X1145271D1*
X1129817Y984983D2*
X1146279D1*
X1119721Y982483D2*
X1146877D1*
X1109421Y979983D2*
X1143429D1*
X1099036Y977483D2*
X1137914D1*
X1089423Y974983D2*
X1130360D1*
X1081849Y972483D2*
X1121428D1*
X1076097Y969983D2*
X1111597D1*
X1073793Y967483D2*
X1101170D1*
X1072940Y964983D2*
X1090498D1*
X1072317Y962483D2*
X1079817D1*
X1072317Y947483D2*
X1147317D1*
X1072317Y944983D2*
X1147317D1*
X1072317Y942483D2*
X1147317D1*
X1072317Y939983D2*
X1147317D1*
X1072317Y937483D2*
X1079817D1*
X1137317D2*
X1147317D1*
X1072317Y934983D2*
X1079817D1*
X1137317D2*
X1147317D1*
X1072317Y932483D2*
X1079817D1*
X1137317D2*
X1147317D1*
X1072317Y929983D2*
X1079817D1*
X1137317D2*
X1147317D1*
X1072317Y927483D2*
X1079817D1*
X1137317D2*
X1147317D1*
X1072317Y924983D2*
X1079826D1*
X1137317D2*
X1147307D1*
X1072317Y922483D2*
X1079914D1*
X1137307D2*
X1147219D1*
X1072326Y919983D2*
X1080243D1*
X1137209D2*
X1146900D1*
X1072414Y917483D2*
X1080939D1*
X1136793D2*
X1146292D1*
X1072743Y914983D2*
X1081996D1*
X1135778D2*
X1145563D1*
X1073429Y912483D2*
X1083447D1*
X1134122D2*
X1144799D1*
X1074408Y909983D2*
X1085333D1*
X1132031D2*
X1143870D1*
X1075629Y907483D2*
X1087516D1*
X1129713D2*
X1142697D1*
X1077256Y904983D2*
X1141095D1*
X1079603Y902483D2*
X1138679D1*
X1082952Y899983D2*
X1135083D1*
X1087336Y897483D2*
X1130265D1*
X1092317Y894983D2*
X1124817D1*
X-1149600Y-872817D2*
X-1074600D1*
X-1149485Y-875317D2*
X-1074600D1*
X-1149219Y-877817D2*
X-1074600D1*
X-1147954Y-880317D2*
X-1074600D1*
X-1144961Y-882817D2*
X-1124600D1*
X-1141047Y-885317D2*
X-1119590D1*
X-1136293Y-887817D2*
X-1114502D1*
X-1130936Y-890317D2*
X-1109184D1*
X-1125380Y-892817D2*
X-1103605D1*
X-1119911Y-895317D2*
X-1098159D1*
X-1114562Y-897817D2*
X-1093555D1*
X-1109613Y-900317D2*
X-1089833D1*
X-1105534Y-902817D2*
X-1088231D1*
X-1102100Y-905317D2*
X-1087920D1*
X-1107195Y-907817D2*
X-1089187D1*
X-1112516Y-910317D2*
X-1092787D1*
X-1118115Y-912817D2*
X-1097326D1*
X-1123766Y-915317D2*
X-1102506D1*
X-1129280Y-917817D2*
X-1108091D1*
X-1134723Y-920317D2*
X-1113741D1*
X-1139914Y-922817D2*
X-1119187D1*
X-1144167Y-925317D2*
X-1124436D1*
X-1147437Y-927817D2*
X-1074600D1*
X-1148565Y-930317D2*
X-1074600D1*
X-1149196Y-932817D2*
X-1074600D1*
X-1149600Y-935317D2*
X-1074600D1*
X-1129600Y-955317D2*
X-1094600D1*
X-1135167Y-957817D2*
X-1090101D1*
X-1139527Y-960317D2*
X-1086227D1*
X-1142619Y-962817D2*
X-1083218D1*
X-1144947Y-965317D2*
X-1081008D1*
X-1146836Y-967817D2*
X-1134505D1*
X-1092110D2*
X-1079380D1*
X-1148184Y-970317D2*
X-1136675D1*
X-1089707D2*
X-1078173D1*
X-1148957Y-972817D2*
X-1138478D1*
X-1087624D2*
X-1077216D1*
X-1149333Y-975317D2*
X-1139920D1*
X-1086139D2*
X-1076306D1*
X-1149497Y-977817D2*
X-1140969D1*
X-1085295D2*
X-1075530D1*
X-1149562Y-980317D2*
X-1141572D1*
X-1084896D2*
X-1075049D1*
X-1149587Y-982817D2*
X-1141776D1*
X-1084808D2*
X-1074885D1*
X-1149586Y-985317D2*
X-1141707D1*
X-1085066D2*
X-1075090D1*
X-1149501Y-987817D2*
X-1140574D1*
X-1085756D2*
X-1075652D1*
X-1149173Y-990317D2*
X-1138800D1*
X-1086999D2*
X-1076373D1*
X-1148477Y-992817D2*
X-1136290D1*
X-1088757D2*
X-1077219D1*
X-1147420Y-995317D2*
X-1132960D1*
X-1093045D2*
X-1078464D1*
X-1145960Y-997817D2*
X-1128934D1*
X-1098523D2*
X-1080235D1*
X-1143977Y-1000317D2*
X-1082466D1*
X-1141393Y-1002817D2*
X-1085192D1*
X-1138175Y-1005317D2*
X-1088481D1*
X-1134600Y-1007817D2*
X-1092100D1*
X-1149600Y-1027817D2*
X-1074600D1*
X-1149600Y-1030317D2*
X-1074600D1*
X-1149600Y-1032817D2*
X-1074600D1*
X-1149600Y-1035317D2*
X-1074600D1*
X-1149600Y-1037817D2*
X-1142100D1*
X-1084600D2*
X-1074600D1*
X-1149600Y-1040317D2*
X-1142100D1*
X-1084600D2*
X-1074600D1*
X-1149600Y-1042817D2*
X-1142100D1*
X-1084600D2*
X-1074600D1*
X-1149600Y-1045317D2*
X-1142100D1*
X-1084600D2*
X-1074600D1*
X-1149600Y-1047817D2*
X-1142100D1*
X-1084600D2*
X-1074600D1*
X-1149600Y-1050317D2*
X-1142090D1*
X-1084600D2*
X-1074610D1*
X-1149600Y-1052817D2*
X-1142002D1*
X-1084610D2*
X-1074698D1*
X-1149590Y-1055317D2*
X-1141674D1*
X-1084707D2*
X-1075016D1*
X-1149502Y-1057817D2*
X-1140978D1*
X-1085124D2*
X-1075625D1*
X-1149174Y-1060317D2*
X-1139920D1*
X-1086139D2*
X-1076354D1*
X-1148487Y-1062817D2*
X-1138469D1*
X-1087795D2*
X-1077118D1*
X-1147508Y-1065317D2*
X-1136584D1*
X-1089886D2*
X-1078046D1*
X-1146288Y-1067817D2*
X-1134401D1*
X-1092203D2*
X-1079219D1*
X-1144661Y-1070317D2*
X-1080822D1*
X-1142314Y-1072817D2*
X-1083237D1*
X-1138964Y-1075317D2*
X-1086833D1*
X-1134581Y-1077817D2*
X-1091652D1*
X-1129600Y-1080317D2*
X-1097100D1*
X-1149600Y-1100317D2*
X-1074600D1*
X-1149600Y-1102817D2*
X-1074600D1*
X-1149600Y-1105317D2*
X-1074600D1*
X-1149600Y-1107817D2*
X-1074600D1*
X-1149600Y-1110317D2*
X-1142100D1*
X-1117100D2*
X-1107100D1*
X-1084600D2*
X-1074600D1*
X-1149600Y-1112817D2*
X-1142100D1*
X-1117100D2*
X-1107100D1*
X-1084600D2*
X-1074600D1*
X-1149600Y-1115317D2*
X-1142100D1*
X-1117100D2*
X-1107100D1*
X-1084600D2*
X-1074600D1*
X-1149600Y-1117817D2*
X-1142100D1*
X-1117100D2*
X-1107100D1*
X-1084600D2*
X-1074600D1*
X-1149600Y-1120317D2*
X-1142100D1*
X-1117100D2*
X-1107100D1*
X-1084600D2*
X-1074600D1*
X-1149600Y-1122817D2*
X-1142100D1*
X-1117100D2*
X-1107100D1*
X-1084600D2*
X-1074600D1*
X-1149600Y-1125317D2*
X-1142100D1*
X-1117100D2*
X-1107100D1*
X-1084600D2*
X-1074600D1*
X-1149600Y-1127817D2*
X-1142100D1*
X-1117100D2*
X-1107100D1*
X-1084600D2*
X-1074600D1*
X-1149600Y-1130317D2*
X-1142100D1*
X-1117100D2*
X-1107100D1*
X-1084600D2*
X-1074600D1*
X-1149600Y-1132817D2*
X-1142100D1*
X-1117090D2*
X-1107100D1*
X-1084600D2*
X-1074600D1*
X-1149600Y-1135317D2*
X-1142100D1*
X-1116995D2*
X-1107100D1*
X-1084600D2*
X-1074600D1*
X-1149600Y-1137817D2*
X-1142100D1*
X-1116609D2*
X-1107100D1*
X-1084600D2*
X-1074600D1*
X-1149600Y-1140317D2*
X-1142100D1*
X-1115754D2*
X-1107100D1*
X-1084600D2*
X-1074600D1*
X-1149600Y-1142817D2*
X-1142100D1*
X-1114600D2*
X-1107100D1*
X-1084600D2*
X-1074600D1*
X-1149600Y-1145317D2*
X-1142100D1*
X-1084600D2*
X-1074600D1*
X-1149600Y-1147817D2*
X-1142100D1*
X-1084600D2*
X-1074600D1*
X-285270Y-935071D2*
X-275270D1*
X184730D2*
X194730D1*
X-285270Y-937571D2*
X-275270D1*
X184730D2*
X194730D1*
X-285270Y-940071D2*
X-275270D1*
X184730D2*
X194730D1*
X-285270Y-942571D2*
X-275270D1*
X184730D2*
X194730D1*
X-687770Y-945071D2*
X-647770D1*
X-632770D2*
X-592770D1*
X-565270D2*
X-555270D1*
X-502770D2*
X-485270D1*
X-440270D2*
X-402770D1*
X-367770D2*
X-352770D1*
X-285270D2*
X-275270D1*
X-212770D2*
X-197770D1*
X-162770D2*
X-125270D1*
X-95270D2*
X-85270D1*
X-32770D2*
X-15270D1*
X29730D2*
X67230D1*
X102230D2*
X117230D1*
X184730D2*
X194730D1*
X257230D2*
X272230D1*
X317230D2*
X332230D1*
X372230D2*
X382230D1*
X434730D2*
X452230D1*
X497230D2*
X534730D1*
X569730D2*
X584730D1*
X-687760Y-947571D2*
X-647770D1*
X-632760D2*
X-592770D1*
X-564320D2*
X-554320D1*
X-506028D2*
X-481711D1*
X-443914D2*
X-402770D1*
X-372183D2*
X-347972D1*
X-285270D2*
X-275270D1*
X-216414D2*
X-194126D1*
X-162770D2*
X-125270D1*
X-94320D2*
X-84320D1*
X-36028D2*
X-11711D1*
X26086D2*
X67230D1*
X97817D2*
X122028D1*
X184730D2*
X194730D1*
X253586D2*
X275874D1*
X313586D2*
X335789D1*
X373180D2*
X383180D1*
X431472D2*
X455789D1*
X493586D2*
X534730D1*
X565317D2*
X589528D1*
X-687672Y-950071D2*
X-647770D1*
X-632672D2*
X-592770D1*
X-563246D2*
X-553246D1*
X-508538D2*
X-478823D1*
X-447035D2*
X-402770D1*
X-375825D2*
X-344124D1*
X-285270D2*
X-275270D1*
X-219535D2*
X-191005D1*
X-162770D2*
X-125270D1*
X-93246D2*
X-83246D1*
X-38538D2*
X-8823D1*
X22965D2*
X67230D1*
X94175D2*
X125876D1*
X184730D2*
X194730D1*
X250465D2*
X278995D1*
X310465D2*
X338677D1*
X374254D2*
X384254D1*
X428962D2*
X458677D1*
X490465D2*
X534730D1*
X561675D2*
X593376D1*
X-687354Y-952571D2*
X-647770D1*
X-632354D2*
X-592770D1*
X-562085D2*
X-552085D1*
X-510426D2*
X-476657D1*
X-449491D2*
X-402770D1*
X-378553D2*
X-341225D1*
X-285270D2*
X-275270D1*
X-221982D2*
X-188558D1*
X-162770D2*
X-125270D1*
X-92085D2*
X-82085D1*
X-40426D2*
X-6657D1*
X20509D2*
X67230D1*
X91447D2*
X128775D1*
X184730D2*
X194730D1*
X248018D2*
X281442D1*
X308018D2*
X340843D1*
X375415D2*
X385415D1*
X427074D2*
X460843D1*
X488009D2*
X534730D1*
X558947D2*
X596275D1*
X-686745Y-955071D2*
X-677384D1*
X-655270D2*
X-647770D1*
X-631745D2*
X-622384D1*
X-600270D2*
X-592770D1*
X-560870D2*
X-550880D1*
X-511953D2*
X-497174D1*
X-488649D2*
X-475053D1*
X-451225D2*
X-436883D1*
X-412770D2*
X-402770D1*
X-380721D2*
X-364769D1*
X-355771D2*
X-339099D1*
X-285270D2*
X-275270D1*
X-223902D2*
X-209674D1*
X-200866D2*
X-186638D1*
X-135270D2*
X-125270D1*
X-90870D2*
X-80880D1*
X-41953D2*
X-27174D1*
X-18649D2*
X-5053D1*
X18775D2*
X33117D1*
X57230D2*
X67230D1*
X89279D2*
X105231D1*
X114229D2*
X130901D1*
X184730D2*
X194730D1*
X246098D2*
X260326D1*
X269134D2*
X283362D1*
X306098D2*
X320617D1*
X329730D2*
X342447D1*
X376630D2*
X386620D1*
X425547D2*
X440326D1*
X448851D2*
X462447D1*
X486275D2*
X500617D1*
X524730D2*
X534730D1*
X556779D2*
X572731D1*
X581729D2*
X598401D1*
X-686016Y-957571D2*
X-676754D1*
X-655270D2*
X-647770D1*
X-631016D2*
X-621754D1*
X-600270D2*
X-592770D1*
X-559637D2*
X-549725D1*
X-513219D2*
X-500718D1*
X-485319D2*
X-473931D1*
X-452453D2*
X-440127D1*
X-412770D2*
X-402770D1*
X-382545D2*
X-368636D1*
X-351897D2*
X-337526D1*
X-285270D2*
X-275270D1*
X-224606D2*
X-213218D1*
X-197322D2*
X-185839D1*
X-135270D2*
X-125270D1*
X-89637D2*
X-79725D1*
X-43219D2*
X-30718D1*
X-15319D2*
X-3931D1*
X17547D2*
X29873D1*
X57230D2*
X67230D1*
X87455D2*
X101364D1*
X118103D2*
X132474D1*
X184730D2*
X194730D1*
X245394D2*
X256782D1*
X272678D2*
X284161D1*
X305394D2*
X317373D1*
X332230D2*
X343569D1*
X377863D2*
X387775D1*
X424281D2*
X436782D1*
X452181D2*
X463569D1*
X485047D2*
X497373D1*
X524730D2*
X534730D1*
X554955D2*
X568864D1*
X585603D2*
X599974D1*
X-685262Y-960071D2*
X-676019D1*
X-655270D2*
X-647770D1*
X-630262D2*
X-621019D1*
X-600270D2*
X-592770D1*
X-558391D2*
X-548719D1*
X-514098D2*
X-503443D1*
X-482675D2*
X-473250D1*
X-453485D2*
X-442401D1*
X-412770D2*
X-402770D1*
X-383876D2*
X-371589D1*
X-348888D2*
X-336418D1*
X-285270D2*
X-275270D1*
X-224987D2*
X-215943D1*
X-194597D2*
X-185137D1*
X-135270D2*
X-125270D1*
X-88391D2*
X-78719D1*
X-44098D2*
X-33443D1*
X-12675D2*
X-3250D1*
X16515D2*
X27599D1*
X57230D2*
X67230D1*
X86124D2*
X98411D1*
X121112D2*
X133582D1*
X184730D2*
X194730D1*
X245013D2*
X254057D1*
X275403D2*
X284863D1*
X305013D2*
X315109D1*
X334730D2*
X344250D1*
X379109D2*
X388781D1*
X423402D2*
X434057D1*
X454825D2*
X464250D1*
X484015D2*
X495099D1*
X524730D2*
X534730D1*
X553624D2*
X565911D1*
X588612D2*
X601082D1*
X-684431Y-962571D2*
X-675262D1*
X-655270D2*
X-647770D1*
X-629431D2*
X-620262D1*
X-600270D2*
X-592770D1*
X-557145D2*
X-547832D1*
X-514582D2*
X-504515D1*
X-480270D2*
X-472770D1*
X-454301D2*
X-444105D1*
X-412770D2*
X-402770D1*
X-384694D2*
X-373660D1*
X-346678D2*
X-335700D1*
X-285270D2*
X-275270D1*
X-225159D2*
X-216890D1*
X-193650D2*
X-184366D1*
X-135280D2*
X-125270D1*
X-87145D2*
X-77832D1*
X-44582D2*
X-34515D1*
X-10270D2*
X-2770D1*
X15699D2*
X25895D1*
X57230D2*
X67230D1*
X85306D2*
X96340D1*
X123322D2*
X134300D1*
X184730D2*
X194730D1*
X244841D2*
X253110D1*
X276350D2*
X285634D1*
X304851D2*
X313434D1*
X337230D2*
X344730D1*
X380355D2*
X389668D1*
X422918D2*
X432985D1*
X457230D2*
X464730D1*
X483199D2*
X493395D1*
X524730D2*
X534730D1*
X552806D2*
X563840D1*
X590822D2*
X601800D1*
X-683674Y-965071D2*
X-674422D1*
X-655270D2*
X-647770D1*
X-628674D2*
X-619422D1*
X-600270D2*
X-592770D1*
X-555894D2*
X-546863D1*
X-514093D2*
X-504528D1*
X-454722D2*
X-444609D1*
X-412770D2*
X-402770D1*
X-385270D2*
X-375270D1*
X-345060D2*
X-335073D1*
X-285270D2*
X-275270D1*
X-225229D2*
X-217398D1*
X-193142D2*
X-183655D1*
X-135375D2*
X-125270D1*
X-85894D2*
X-76863D1*
X-44093D2*
X-34528D1*
X15278D2*
X25391D1*
X57230D2*
X67230D1*
X84730D2*
X94730D1*
X124940D2*
X134927D1*
X184730D2*
X194730D1*
X244771D2*
X252602D1*
X276858D2*
X286345D1*
X304869D2*
X312997D1*
X381606D2*
X390637D1*
X423407D2*
X432972D1*
X482778D2*
X492891D1*
X524730D2*
X534730D1*
X552230D2*
X562230D1*
X592440D2*
X602427D1*
X-683107Y-967571D2*
X-673587D1*
X-628107D2*
X-618587D1*
X-554646D2*
X-545769D1*
X-513449D2*
X-504027D1*
X-454663D2*
X-444797D1*
X-412770D2*
X-402770D1*
X-343941D2*
X-334340D1*
X-285270D2*
X-275270D1*
X-225256D2*
X-217625D1*
X-192915D2*
X-183192D1*
X-135761D2*
X-125270D1*
X-84646D2*
X-75769D1*
X-43449D2*
X-34027D1*
X15337D2*
X25203D1*
X57230D2*
X67230D1*
X126059D2*
X135660D1*
X184730D2*
X194730D1*
X244744D2*
X252375D1*
X277085D2*
X286808D1*
X305170D2*
X313652D1*
X382854D2*
X391731D1*
X424051D2*
X433473D1*
X482837D2*
X492703D1*
X524730D2*
X534730D1*
X593559D2*
X603160D1*
X-682539Y-970071D2*
X-672788D1*
X-627539D2*
X-617788D1*
X-553394D2*
X-544595D1*
X-512725D2*
X-503138D1*
X-454170D2*
X-444171D1*
X-412770D2*
X-402770D1*
X-343303D2*
X-333645D1*
X-285270D2*
X-275270D1*
X-225265D2*
X-217717D1*
X-192823D2*
X-182951D1*
X-152770D2*
X-140270D1*
X-136616D2*
X-125270D1*
X-83394D2*
X-74595D1*
X-42725D2*
X-33138D1*
X15830D2*
X25829D1*
X57230D2*
X67230D1*
X126697D2*
X136355D1*
X184730D2*
X194730D1*
X244735D2*
X252283D1*
X277177D2*
X287049D1*
X305867D2*
X314731D1*
X384106D2*
X392905D1*
X424775D2*
X434362D1*
X483330D2*
X493329D1*
X524730D2*
X534730D1*
X594197D2*
X603855D1*
X-681819Y-972571D2*
X-671941D1*
X-626819D2*
X-616941D1*
X-552146D2*
X-543375D1*
X-511814D2*
X-502038D1*
X-453479D2*
X-442495D1*
X-412770D2*
X-402770D1*
X-342991D2*
X-333189D1*
X-285270D2*
X-275270D1*
X-225268D2*
X-217751D1*
X-192789D2*
X-182842D1*
X-156329D2*
X-125270D1*
X-82146D2*
X-73375D1*
X-41814D2*
X-32038D1*
X16521D2*
X27505D1*
X57230D2*
X67230D1*
X127009D2*
X136811D1*
X184730D2*
X194730D1*
X244732D2*
X252249D1*
X277211D2*
X287158D1*
X307016D2*
X317542D1*
X385354D2*
X394125D1*
X425686D2*
X435462D1*
X484021D2*
X495005D1*
X524730D2*
X534730D1*
X594509D2*
X604311D1*
X-681044Y-975071D2*
X-671178D1*
X-626044D2*
X-616178D1*
X-572770D2*
X-565270D1*
X-550904D2*
X-542139D1*
X-510667D2*
X-500760D1*
X-452644D2*
X-435910D1*
X-412770D2*
X-402770D1*
X-342856D2*
X-332950D1*
X-285270D2*
X-275270D1*
X-225269D2*
X-217764D1*
X-192776D2*
X-182797D1*
X-159217D2*
X-125270D1*
X-102770D2*
X-95270D1*
X-80904D2*
X-72139D1*
X-40667D2*
X-30760D1*
X17356D2*
X34090D1*
X57230D2*
X67230D1*
X127144D2*
X137050D1*
X184730D2*
X194730D1*
X244731D2*
X252236D1*
X277224D2*
X287203D1*
X308845D2*
X320900D1*
X364730D2*
X372230D1*
X386596D2*
X395361D1*
X426833D2*
X436740D1*
X484856D2*
X501590D1*
X524730D2*
X534730D1*
X594644D2*
X604550D1*
X-680271Y-977571D2*
X-670608D1*
X-625271D2*
X-615608D1*
X-572770D2*
X-565270D1*
X-549734D2*
X-540892D1*
X-509262D2*
X-499217D1*
X-451394D2*
X-424614D1*
X-412770D2*
X-402770D1*
X-342802D2*
X-332841D1*
X-285270D2*
X-275270D1*
X-225270D2*
X-217768D1*
X-192772D2*
X-182780D1*
X-161383D2*
X-125270D1*
X-102770D2*
X-95270D1*
X-79734D2*
X-70892D1*
X-39262D2*
X-29217D1*
X18606D2*
X45386D1*
X57230D2*
X67230D1*
X127198D2*
X137159D1*
X184730D2*
X194730D1*
X244730D2*
X252232D1*
X277228D2*
X287220D1*
X311543D2*
X324185D1*
X364730D2*
X372230D1*
X387766D2*
X396608D1*
X428238D2*
X438283D1*
X486106D2*
X512886D1*
X524730D2*
X534730D1*
X594698D2*
X604659D1*
X-679425Y-980071D2*
X-670040D1*
X-624425D2*
X-615040D1*
X-572770D2*
X-565270D1*
X-548722D2*
X-539645D1*
X-507677D2*
X-497375D1*
X-449556D2*
X-402770D1*
X-342781D2*
X-332797D1*
X-285270D2*
X-275270D1*
X-225270D2*
X-217769D1*
X-192771D2*
X-182773D1*
X-162987D2*
X-150175D1*
X-140730D2*
X-125270D1*
X-102770D2*
X-95270D1*
X-78722D2*
X-69645D1*
X-37677D2*
X-27375D1*
X20444D2*
X67230D1*
X127219D2*
X137203D1*
X184730D2*
X194730D1*
X244730D2*
X252231D1*
X277229D2*
X287227D1*
X314730D2*
X325814D1*
X364730D2*
X372230D1*
X388778D2*
X397855D1*
X429823D2*
X440125D1*
X487944D2*
X534730D1*
X594719D2*
X604703D1*
X-678588Y-982571D2*
X-669319D1*
X-623588D2*
X-614319D1*
X-572770D2*
X-565270D1*
X-547833D2*
X-538394D1*
X-506072D2*
X-495479D1*
X-447210D2*
X-402770D1*
X-342774D2*
X-332780D1*
X-285270D2*
X-275270D1*
X-225270D2*
X-217770D1*
X-192770D2*
X-182771D1*
X-164101D2*
X-152345D1*
X-136607D2*
X-125270D1*
X-102770D2*
X-95270D1*
X-77833D2*
X-68394D1*
X-36072D2*
X-25479D1*
X22790D2*
X67230D1*
X127226D2*
X137220D1*
X184730D2*
X194730D1*
X244730D2*
X252230D1*
X277230D2*
X287229D1*
X311771D2*
X326332D1*
X364730D2*
X372230D1*
X389667D2*
X399106D1*
X431428D2*
X442021D1*
X490290D2*
X534730D1*
X594726D2*
X604720D1*
X-677788Y-985071D2*
X-668544D1*
X-622788D2*
X-613544D1*
X-572770D2*
X-565270D1*
X-546863D2*
X-537146D1*
X-504352D2*
X-493704D1*
X-444775D2*
X-402770D1*
X-342771D2*
X-332773D1*
X-285270D2*
X-275270D1*
X-225270D2*
X-217770D1*
X-192770D2*
X-182770D1*
X-164738D2*
X-154148D1*
X-132770D2*
X-125270D1*
X-102770D2*
X-95270D1*
X-76863D2*
X-67146D1*
X-34352D2*
X-23704D1*
X25225D2*
X67230D1*
X127229D2*
X137227D1*
X184730D2*
X194730D1*
X244730D2*
X252230D1*
X277230D2*
X287230D1*
X309235D2*
X322894D1*
X364730D2*
X372230D1*
X390637D2*
X400354D1*
X433148D2*
X443796D1*
X492725D2*
X534730D1*
X594729D2*
X604727D1*
X-676941Y-987571D2*
X-667771D1*
X-621941D2*
X-612771D1*
X-572770D2*
X-565270D1*
X-545769D2*
X-535894D1*
X-502429D2*
X-491896D1*
X-442636D2*
X-402770D1*
X-342770D2*
X-332781D1*
X-285270D2*
X-275270D1*
X-225270D2*
X-217770D1*
X-192770D2*
X-182770D1*
X-165049D2*
X-155590D1*
X-102770D2*
X-95270D1*
X-75769D2*
X-65894D1*
X-32429D2*
X-21896D1*
X27364D2*
X67230D1*
X127230D2*
X137219D1*
X184730D2*
X194730D1*
X244730D2*
X252230D1*
X277230D2*
X287230D1*
X307237D2*
X319231D1*
X364730D2*
X372230D1*
X391731D2*
X401606D1*
X435071D2*
X445604D1*
X494864D2*
X534730D1*
X594730D2*
X604719D1*
X-676178Y-990071D2*
X-666925D1*
X-621178D2*
X-611925D1*
X-572790D2*
X-565270D1*
X-544587D2*
X-534646D1*
X-500499D2*
X-489861D1*
X-442119D2*
X-429874D1*
X-412770D2*
X-402770D1*
X-342780D2*
X-332868D1*
X-285270D2*
X-275270D1*
X-225270D2*
X-217770D1*
X-192770D2*
X-182770D1*
X-165184D2*
X-156639D1*
X-102770D2*
X-95270D1*
X-74587D2*
X-64646D1*
X-30499D2*
X-19861D1*
X27881D2*
X40126D1*
X57230D2*
X67230D1*
X127220D2*
X137132D1*
X184730D2*
X194730D1*
X244730D2*
X252230D1*
X277230D2*
X287230D1*
X305626D2*
X316202D1*
X364710D2*
X372230D1*
X392913D2*
X402854D1*
X437001D2*
X447639D1*
X495381D2*
X507626D1*
X524730D2*
X534730D1*
X594720D2*
X604632D1*
X-675608Y-992571D2*
X-666088D1*
X-620608D2*
X-611088D1*
X-572965D2*
X-565270D1*
X-543302D2*
X-533404D1*
X-498711D2*
X-487688D1*
X-442808D2*
X-431666D1*
X-412770D2*
X-402770D1*
X-342868D2*
X-333186D1*
X-285270D2*
X-275270D1*
X-225270D2*
X-217770D1*
X-192770D2*
X-182780D1*
X-165238D2*
X-157242D1*
X-102770D2*
X-95270D1*
X-73302D2*
X-63404D1*
X-28711D2*
X-17688D1*
X27192D2*
X38334D1*
X57230D2*
X67230D1*
X127132D2*
X136814D1*
X184730D2*
X194730D1*
X244730D2*
X252230D1*
X277230D2*
X287220D1*
X304305D2*
X313843D1*
X364535D2*
X372230D1*
X394198D2*
X404096D1*
X438789D2*
X449812D1*
X494692D2*
X505834D1*
X524730D2*
X534730D1*
X594632D2*
X604314D1*
X-675040Y-995071D2*
X-665288D1*
X-620040D2*
X-610288D1*
X-573375D2*
X-565270D1*
X-541856D2*
X-532244D1*
X-496908D2*
X-485615D1*
X-443960D2*
X-433191D1*
X-412770D2*
X-402770D1*
X-343196D2*
X-333785D1*
X-285270D2*
X-275270D1*
X-225270D2*
X-217770D1*
X-192770D2*
X-182868D1*
X-165259D2*
X-157456D1*
X-102770D2*
X-95270D1*
X-71856D2*
X-62244D1*
X-26908D2*
X-15615D1*
X26040D2*
X36809D1*
X57230D2*
X67230D1*
X126804D2*
X136215D1*
X184730D2*
X194730D1*
X244730D2*
X252230D1*
X277230D2*
X287132D1*
X303317D2*
X313008D1*
X364125D2*
X372230D1*
X395644D2*
X405256D1*
X440592D2*
X451885D1*
X493540D2*
X504309D1*
X524730D2*
X534730D1*
X594304D2*
X603715D1*
X-674319Y-997571D2*
X-664441D1*
X-619319D2*
X-609441D1*
X-574743D2*
X-565270D1*
X-540270D2*
X-531320D1*
X-494950D2*
X-483758D1*
X-445423D2*
X-434566D1*
X-412770D2*
X-402770D1*
X-343892D2*
X-334436D1*
X-285270D2*
X-275270D1*
X-225270D2*
X-217760D1*
X-192780D2*
X-183186D1*
X-165266D2*
X-157260D1*
X-102770D2*
X-95270D1*
X-70270D2*
X-61320D1*
X-24950D2*
X-13758D1*
X24577D2*
X35434D1*
X57230D2*
X67230D1*
X126108D2*
X135564D1*
X184730D2*
X194730D1*
X244730D2*
X252240D1*
X277220D2*
X286814D1*
X302742D2*
X312569D1*
X362757D2*
X372230D1*
X397230D2*
X406180D1*
X442550D2*
X453742D1*
X492077D2*
X502934D1*
X524730D2*
X534730D1*
X593608D2*
X603064D1*
X-673544Y-1000071D2*
X-663678D1*
X-618544D2*
X-608678D1*
X-576048D2*
X-530759D1*
X-493007D2*
X-481926D1*
X-446896D2*
X-435864D1*
X-412770D2*
X-402770D1*
X-385270D2*
X-375270D1*
X-344959D2*
X-334960D1*
X-285270D2*
X-275270D1*
X-225270D2*
X-217653D1*
X-192887D2*
X-183785D1*
X-165259D2*
X-156616D1*
X-107770D2*
X-60759D1*
X-23007D2*
X-11926D1*
X23104D2*
X34136D1*
X57230D2*
X67230D1*
X84730D2*
X94730D1*
X125041D2*
X135040D1*
X184730D2*
X194730D1*
X244730D2*
X252347D1*
X277113D2*
X286215D1*
X302538D2*
X312476D1*
X361452D2*
X406741D1*
X444493D2*
X455574D1*
X490604D2*
X501636D1*
X524730D2*
X534730D1*
X552230D2*
X562230D1*
X592541D2*
X602540D1*
X-672771Y-1002571D2*
X-663108D1*
X-617771D2*
X-608108D1*
X-577030D2*
X-530475D1*
X-491214D2*
X-479956D1*
X-448280D2*
X-437135D1*
X-412770D2*
X-402770D1*
X-384788D2*
X-373790D1*
X-346537D2*
X-335520D1*
X-285270D2*
X-275270D1*
X-225260D2*
X-217389D1*
X-193151D2*
X-184436D1*
X-165172D2*
X-155550D1*
X-132770D2*
X-125270D1*
X-107770D2*
X-60475D1*
X-21214D2*
X-9956D1*
X21720D2*
X32865D1*
X57230D2*
X67230D1*
X85212D2*
X96210D1*
X123463D2*
X134480D1*
X184730D2*
X194730D1*
X244740D2*
X252611D1*
X276849D2*
X285564D1*
X302738D2*
X312637D1*
X337230D2*
X347230D1*
X360470D2*
X407025D1*
X446286D2*
X457544D1*
X489220D2*
X500365D1*
X524730D2*
X534730D1*
X552712D2*
X563710D1*
X590963D2*
X601980D1*
X-671925Y-1005071D2*
X-662540D1*
X-616925D2*
X-607540D1*
X-576913D2*
X-530345D1*
X-489399D2*
X-478019D1*
X-449599D2*
X-438390D1*
X-412770D2*
X-402770D1*
X-383838D2*
X-371820D1*
X-348627D2*
X-336322D1*
X-285270D2*
X-275270D1*
X-225163D2*
X-216007D1*
X-194533D2*
X-184969D1*
X-164844D2*
X-154178D1*
X-134416D2*
X-125666D1*
X-107770D2*
X-60345D1*
X-19399D2*
X-8019D1*
X20401D2*
X31610D1*
X57230D2*
X67230D1*
X86162D2*
X98180D1*
X121373D2*
X133678D1*
X184730D2*
X194730D1*
X244837D2*
X253993D1*
X275467D2*
X285031D1*
X303373D2*
X314001D1*
X335584D2*
X346270D1*
X360587D2*
X407155D1*
X448101D2*
X459481D1*
X487901D2*
X499110D1*
X524730D2*
X534730D1*
X553662D2*
X565680D1*
X588873D2*
X601178D1*
X-671088Y-1007571D2*
X-661819D1*
X-616088D2*
X-606819D1*
X-575682D2*
X-530270D1*
X-487354D2*
X-476322D1*
X-450876D2*
X-439645D1*
X-412770D2*
X-402770D1*
X-382485D2*
X-367132D1*
X-353364D2*
X-337423D1*
X-285270D2*
X-275270D1*
X-224746D2*
X-211728D1*
X-198812D2*
X-185618D1*
X-164148D2*
X-150868D1*
X-138763D2*
X-126384D1*
X-107770D2*
X-60270D1*
X-17354D2*
X-6322D1*
X19124D2*
X30355D1*
X57230D2*
X67230D1*
X87515D2*
X102868D1*
X116636D2*
X132577D1*
X184730D2*
X194730D1*
X245254D2*
X258272D1*
X271188D2*
X284382D1*
X304333D2*
X318275D1*
X331237D2*
X345108D1*
X361818D2*
X407230D1*
X450146D2*
X461178D1*
X486624D2*
X497855D1*
X524730D2*
X534730D1*
X555015D2*
X570368D1*
X584136D2*
X600077D1*
X-670288Y-1010071D2*
X-661044D1*
X-615288D2*
X-606044D1*
X-574426D2*
X-565270D1*
X-485106D2*
X-474923D1*
X-452139D2*
X-440894D1*
X-412770D2*
X-402770D1*
X-380892D2*
X-360540D1*
X-359983D2*
X-338911D1*
X-285270D2*
X-275270D1*
X-223722D2*
X-205378D1*
X-205162D2*
X-186748D1*
X-163081D2*
X-146055D1*
X-145145D2*
X-127457D1*
X-102770D2*
X-95270D1*
X-15106D2*
X-4923D1*
X17861D2*
X29106D1*
X57230D2*
X67230D1*
X89108D2*
X109460D1*
X110017D2*
X131089D1*
X184730D2*
X194730D1*
X246278D2*
X264622D1*
X264838D2*
X283252D1*
X305556D2*
X324623D1*
X324855D2*
X343609D1*
X363074D2*
X372230D1*
X452394D2*
X462577D1*
X485361D2*
X496606D1*
X524730D2*
X534730D1*
X556608D2*
X576960D1*
X577517D2*
X598589D1*
X-669440Y-1012571D2*
X-660270D1*
X-614440D2*
X-605270D1*
X-573572D2*
X-565270D1*
X-515270D2*
X-473891D1*
X-453400D2*
X-442138D1*
X-412770D2*
X-402770D1*
X-378793D2*
X-340995D1*
X-285270D2*
X-275270D1*
X-221970D2*
X-188543D1*
X-161534D2*
X-129005D1*
X-102770D2*
X-95270D1*
X-45270D2*
X-3891D1*
X16600D2*
X27862D1*
X57230D2*
X67230D1*
X91207D2*
X129005D1*
X184730D2*
X194730D1*
X248030D2*
X281457D1*
X307257D2*
X341613D1*
X363928D2*
X372230D1*
X422230D2*
X463609D1*
X484100D2*
X495362D1*
X524730D2*
X534730D1*
X558707D2*
X596505D1*
X-668680Y-1015071D2*
X-659411D1*
X-613680D2*
X-604411D1*
X-573116D2*
X-565270D1*
X-515270D2*
X-473283D1*
X-454718D2*
X-443321D1*
X-412770D2*
X-402770D1*
X-375794D2*
X-343968D1*
X-285270D2*
X-275270D1*
X-219493D2*
X-191038D1*
X-159262D2*
X-131278D1*
X-102770D2*
X-95270D1*
X-45270D2*
X-3283D1*
X15282D2*
X26679D1*
X57230D2*
X67230D1*
X94206D2*
X126032D1*
X184730D2*
X194730D1*
X250507D2*
X278962D1*
X309813D2*
X339025D1*
X364384D2*
X372230D1*
X422230D2*
X464217D1*
X482782D2*
X494179D1*
X524730D2*
X534730D1*
X561706D2*
X593532D1*
X-668159Y-1017571D2*
X-658554D1*
X-613159D2*
X-603554D1*
X-572899D2*
X-565270D1*
X-515270D2*
X-472968D1*
X-456177D2*
X-444363D1*
X-412770D2*
X-402770D1*
X-371967D2*
X-348040D1*
X-285270D2*
X-275270D1*
X-216321D2*
X-194216D1*
X-156225D2*
X-134315D1*
X-102770D2*
X-95270D1*
X-45270D2*
X-2968D1*
X13823D2*
X25637D1*
X57230D2*
X67230D1*
X98033D2*
X121960D1*
X184730D2*
X194730D1*
X253679D2*
X275784D1*
X313300D2*
X335806D1*
X364601D2*
X372230D1*
X422230D2*
X464532D1*
X481323D2*
X493137D1*
X524730D2*
X534730D1*
X565533D2*
X589460D1*
X-667770Y-1020071D2*
X-657770D1*
X-612770D2*
X-602770D1*
X-572770D2*
X-565270D1*
X-515270D2*
X-472770D1*
X-457770D2*
X-445270D1*
X-412770D2*
X-402770D1*
X-367770D2*
X-352770D1*
X-285270D2*
X-275270D1*
X-212770D2*
X-197770D1*
X-152770D2*
X-137770D1*
X-102770D2*
X-95270D1*
X-45270D2*
X-2770D1*
X12230D2*
X24730D1*
X57230D2*
X67230D1*
X102230D2*
X117230D1*
X184730D2*
X194730D1*
X257230D2*
X272230D1*
X317230D2*
X332230D1*
X364730D2*
X372230D1*
X422230D2*
X464730D1*
X479730D2*
X492230D1*
X524730D2*
X534730D1*
X569730D2*
X584730D1*
X-285270Y-1022571D2*
X-275270D1*
X184730D2*
X194730D1*
X-285270Y-1025071D2*
X-275270D1*
X184730D2*
X194730D1*
X-285270Y-1027571D2*
X-275270D1*
X184730D2*
X194730D1*
X-285270Y-1030071D2*
X-275270D1*
X184730D2*
X194730D1*
X-1148678Y1096143D2*
X-1073678D1*
X-1148678Y1093643D2*
X-1073678D1*
X-1148678Y1091143D2*
X-1073678D1*
X-1148678Y1088643D2*
X-1073678D1*
X-1148678Y1086143D2*
X-1141178D1*
X-1116178D2*
X-1106178D1*
X-1148678Y1083643D2*
X-1141178D1*
X-1116178D2*
X-1106178D1*
X-1148678Y1081143D2*
X-1141178D1*
X-1116178D2*
X-1106178D1*
X-1148678Y1078643D2*
X-1141178D1*
X-1116178D2*
X-1106169D1*
X-1148678Y1076143D2*
X-1141178D1*
X-1116178D2*
X-1106061D1*
X-1148678Y1073643D2*
X-1141178D1*
X-1116178D2*
X-1105797D1*
X-1148678Y1071143D2*
X-1141178D1*
X-1116178D2*
X-1104533D1*
X-1148678Y1068643D2*
X-1141169D1*
X-1116188D2*
X-1101549D1*
X-1148678Y1066143D2*
X-1141061D1*
X-1116296D2*
X-1097723D1*
X-1148669Y1063643D2*
X-1140797D1*
X-1116559D2*
X-1093288D1*
X-1148571Y1061143D2*
X-1139416D1*
X-1117941D2*
X-1088548D1*
X-1148155Y1058643D2*
X-1135137D1*
X-1122220D2*
X-1083839D1*
X-1147140Y1056143D2*
X-1128786D1*
X-1128571D2*
X-1108302D1*
X-1101178D2*
X-1079707D1*
X-1145484Y1053643D2*
X-1110277D1*
X-1096188D2*
X-1076283D1*
X-1143392Y1051143D2*
X-1112509D1*
X-1091283D2*
X-1074949D1*
X-1141075Y1048643D2*
X-1115388D1*
X-1086670D2*
X-1074220D1*
X-1138678Y1046143D2*
X-1118678D1*
X-1082524D2*
X-1073878D1*
X-1078678Y1043643D2*
X-1073678D1*
X-1148678Y1023643D2*
X-1073678D1*
X-1148678Y1021143D2*
X-1073678D1*
X-1148678Y1018643D2*
X-1073678D1*
X-1148678Y1016143D2*
X-1073678D1*
X-1148678Y1013643D2*
X-1141178D1*
X-1116178D2*
X-1106178D1*
X-1083678D2*
X-1073678D1*
X-1148678Y1011143D2*
X-1141178D1*
X-1116178D2*
X-1106178D1*
X-1083678D2*
X-1073678D1*
X-1148678Y1008643D2*
X-1141178D1*
X-1116178D2*
X-1106178D1*
X-1083678D2*
X-1073678D1*
X-1148678Y1006143D2*
X-1141178D1*
X-1116178D2*
X-1106178D1*
X-1083678D2*
X-1073678D1*
X-1148678Y1003643D2*
X-1141178D1*
X-1116178D2*
X-1106178D1*
X-1083678D2*
X-1073678D1*
X-1148678Y1001143D2*
X-1141178D1*
X-1116178D2*
X-1106178D1*
X-1083678D2*
X-1073678D1*
X-1148678Y998643D2*
X-1141178D1*
X-1116178D2*
X-1106178D1*
X-1083678D2*
X-1073678D1*
X-1148678Y996143D2*
X-1141178D1*
X-1116178D2*
X-1106178D1*
X-1083678D2*
X-1073678D1*
X-1148678Y993643D2*
X-1141178D1*
X-1116178D2*
X-1106178D1*
X-1083678D2*
X-1073678D1*
X-1148678Y991143D2*
X-1141178D1*
X-1116169D2*
X-1106178D1*
X-1083678D2*
X-1073678D1*
X-1148678Y988643D2*
X-1141178D1*
X-1116073D2*
X-1106178D1*
X-1083678D2*
X-1073678D1*
X-1148678Y986143D2*
X-1141178D1*
X-1115687D2*
X-1106178D1*
X-1083678D2*
X-1073678D1*
X-1148678Y983643D2*
X-1141178D1*
X-1114832D2*
X-1106178D1*
X-1083678D2*
X-1073678D1*
X-1148678Y981143D2*
X-1141178D1*
X-1113678D2*
X-1106178D1*
X-1083678D2*
X-1073678D1*
X-1148678Y978643D2*
X-1141178D1*
X-1083678D2*
X-1073678D1*
X-1148678Y976143D2*
X-1141178D1*
X-1083678D2*
X-1073678D1*
X-1131178Y961143D2*
X-1126178D1*
X-1086178D2*
X-1081178D1*
X-1135977Y958643D2*
X-1121380D1*
X-1087189D2*
X-1079638D1*
X-1139825Y956143D2*
X-1117542D1*
X-1087010D2*
X-1078300D1*
X-1142723Y953643D2*
X-1114722D1*
X-1086360D2*
X-1077280D1*
X-1144849Y951143D2*
X-1112826D1*
X-1085472D2*
X-1076593D1*
X-1146422Y948643D2*
X-1135782D1*
X-1121660D2*
X-1111533D1*
X-1084661D2*
X-1075977D1*
X-1147521Y946143D2*
X-1137565D1*
X-1120110D2*
X-1110477D1*
X-1084143D2*
X-1075247D1*
X-1148151Y943643D2*
X-1139001D1*
X-1118954D2*
X-1109642D1*
X-1083876D2*
X-1074553D1*
X-1148459Y941143D2*
X-1140048D1*
X-1117949D2*
X-1109120D1*
X-1083756D2*
X-1074097D1*
X-1148593Y938643D2*
X-1140660D1*
X-1117133D2*
X-1108772D1*
X-1083707D2*
X-1073858D1*
X-1148647Y936143D2*
X-1140962D1*
X-1116617D2*
X-1108337D1*
X-1083689D2*
X-1073759D1*
X-1148667Y933643D2*
X-1141084D1*
X-1116271D2*
X-1107681D1*
X-1083692D2*
X-1073803D1*
X-1148675Y931143D2*
X-1141050D1*
X-1115837D2*
X-1106935D1*
X-1083787D2*
X-1074104D1*
X-1148667Y928643D2*
X-1140741D1*
X-1115181D2*
X-1106125D1*
X-1084020D2*
X-1074706D1*
X-1148580Y926143D2*
X-1140052D1*
X-1114435D2*
X-1105148D1*
X-1085177D2*
X-1075433D1*
X-1148252Y923643D2*
X-1138998D1*
X-1113664D2*
X-1102841D1*
X-1089186D2*
X-1076197D1*
X-1147558Y921143D2*
X-1137555D1*
X-1112733D2*
X-1097515D1*
X-1095638D2*
X-1077125D1*
X-1146524Y918643D2*
X-1135711D1*
X-1111559D2*
X-1078307D1*
X-1145196Y916143D2*
X-1133678D1*
X-1109969D2*
X-1079993D1*
X-1143678Y913643D2*
X-1138678D1*
X-1107680D2*
X-1082668D1*
X-1104636Y911143D2*
X-1086567D1*
X-1101178Y908643D2*
X-1091178D1*
X-1148678Y891143D2*
X-1073678D1*
X-1148678Y888643D2*
X-1073678D1*
X-1148678Y886143D2*
X-1073678D1*
X-1148678Y883643D2*
X-1073678D1*
X-1148678Y881143D2*
X-1141178D1*
X-1116178D2*
X-1106178D1*
X-1083678D2*
X-1073678D1*
X-1148678Y878643D2*
X-1141178D1*
X-1116178D2*
X-1106178D1*
X-1083678D2*
X-1073678D1*
X-1148678Y876143D2*
X-1141178D1*
X-1116178D2*
X-1106178D1*
X-1083678D2*
X-1073678D1*
X-1148678Y873643D2*
X-1141178D1*
X-1116178D2*
X-1106178D1*
X-1083678D2*
X-1073678D1*
X-1148678Y871143D2*
X-1141178D1*
X-1116178D2*
X-1106178D1*
X-1083678D2*
X-1073678D1*
X-1148678Y868643D2*
X-1141178D1*
X-1116178D2*
X-1106178D1*
X-1083678D2*
X-1073678D1*
X-1148678Y866143D2*
X-1141178D1*
X-1116178D2*
X-1106178D1*
X-1083678D2*
X-1073678D1*
X-1148678Y863643D2*
X-1141178D1*
X-1116178D2*
X-1106178D1*
X-1083678D2*
X-1073678D1*
X-1148678Y861143D2*
X-1141178D1*
X-1116178D2*
X-1106178D1*
X-1083678D2*
X-1073678D1*
X-1148678Y858643D2*
X-1141178D1*
X-1116169D2*
X-1106178D1*
X-1083678D2*
X-1073678D1*
X-1148678Y856143D2*
X-1141178D1*
X-1116073D2*
X-1106178D1*
X-1083678D2*
X-1073678D1*
X-1148678Y853643D2*
X-1141178D1*
X-1115687D2*
X-1106178D1*
X-1083678D2*
X-1073678D1*
X-1148678Y851143D2*
X-1141178D1*
X-1114832D2*
X-1106178D1*
X-1083678D2*
X-1073678D1*
X-1148678Y848643D2*
X-1141178D1*
X-1113678D2*
X-1106178D1*
X-1083678D2*
X-1073678D1*
X-1148678Y846143D2*
X-1141178D1*
X-1083678D2*
X-1073678D1*
X-1148678Y843643D2*
X-1141178D1*
X-1083678D2*
X-1073678D1*
X-1148678Y836143D2*
X-1141178D1*
X-1148678Y833643D2*
X-1141178D1*
X-1148678Y831143D2*
X-1141178D1*
X-1148678Y828643D2*
X-1141178D1*
X-1148678Y826143D2*
X-1141178D1*
X-1148678Y823643D2*
X-1141178D1*
X-1148678Y821143D2*
X-1141178D1*
X-1148678Y818643D2*
X-1141178D1*
X-1148678Y816143D2*
X-1073678D1*
X-1148678Y813643D2*
X-1073678D1*
X-1148678Y811143D2*
X-1073678D1*
X-1148678Y808643D2*
X-1073678D1*
X-1148678Y806143D2*
X-1073678D1*
X-1148678Y803643D2*
X-1141178D1*
X-1148678Y801143D2*
X-1141178D1*
X-1148678Y798643D2*
X-1141178D1*
X-1148678Y796143D2*
X-1141178D1*
X-1148678Y793643D2*
X-1141178D1*
X-1148678Y791143D2*
X-1141178D1*
X-1148678Y788643D2*
X-1141178D1*
X-1148678Y786143D2*
X-1141178D1*
X-679700Y1005237D2*
X-664700D1*
X-622200D2*
X-619700D1*
X-567200D2*
X-552200D1*
X-504700D2*
X-487200D1*
X-409700D2*
X-394700D1*
X-354700D2*
X-339700D1*
X-172200D2*
X-169700D1*
X-74700D2*
X-72200D1*
X-37200D2*
X-27200D1*
X12800D2*
X22800D1*
X92800D2*
X100300D1*
X137800D2*
X145300D1*
X157800D2*
X217800D1*
X307800D2*
X310300D1*
X345300D2*
X405300D1*
X412800D2*
X422800D1*
X452800D2*
X462800D1*
X475300D2*
X520300D1*
X532800D2*
X580300D1*
X592800D2*
X637800D1*
X-683344Y1002737D2*
X-661056D1*
X-622200D2*
X-617190D1*
X-570759D2*
X-548556D1*
X-508344D2*
X-483661D1*
X-413344D2*
X-391056D1*
X-358259D2*
X-336056D1*
X-257200D2*
X-252200D1*
X-172200D2*
X-167190D1*
X-74700D2*
X-69690D1*
X-35951D2*
X-26336D1*
X12414D2*
X21936D1*
X92800D2*
X100300D1*
X137800D2*
X145300D1*
X157800D2*
X217800D1*
X307404D2*
X311250D1*
X345300D2*
X405300D1*
X414914D2*
X424914D1*
X452800D2*
X462800D1*
X475300D2*
X520300D1*
X532800D2*
X580300D1*
X592800D2*
X637800D1*
X-686465Y1000237D2*
X-657926D1*
X-622200D2*
X-614593D1*
X-573647D2*
X-545426D1*
X-511465D2*
X-480572D1*
X-416465D2*
X-387926D1*
X-361147D2*
X-332926D1*
X-257200D2*
X-252200D1*
X-172200D2*
X-164593D1*
X-74700D2*
X-67093D1*
X-34912D2*
X-25504D1*
X11784D2*
X21104D1*
X92800D2*
X100300D1*
X137800D2*
X145300D1*
X157800D2*
X217800D1*
X306696D2*
X312324D1*
X345300D2*
X405300D1*
X416784D2*
X426784D1*
X452800D2*
X462800D1*
X475300D2*
X520300D1*
X532800D2*
X580300D1*
X592800D2*
X637800D1*
X-688921Y997737D2*
X-655391D1*
X-622200D2*
X-611686D1*
X-575813D2*
X-542891D1*
X-513912D2*
X-479016D1*
X-418921D2*
X-385391D1*
X-363313D2*
X-330391D1*
X-257200D2*
X-252200D1*
X-172200D2*
X-161686D1*
X-74700D2*
X-64186D1*
X-33940D2*
X-24711D1*
X11049D2*
X20311D1*
X92800D2*
X100300D1*
X137800D2*
X145300D1*
X157800D2*
X217800D1*
X305730D2*
X313485D1*
X345300D2*
X405300D1*
X418549D2*
X428549D1*
X452800D2*
X462800D1*
X475300D2*
X520300D1*
X532800D2*
X580300D1*
X592800D2*
X637800D1*
X-690655Y995237D2*
X-679605D1*
X-664795D2*
X-653426D1*
X-622200D2*
X-608278D1*
X-577427D2*
X-563813D1*
X-553087D2*
X-540916D1*
X-515832D2*
X-504304D1*
X-489700D2*
X-478949D1*
X-420655D2*
X-409605D1*
X-394795D2*
X-383426D1*
X-364927D2*
X-351313D1*
X-340587D2*
X-328416D1*
X-257200D2*
X-252200D1*
X-172200D2*
X-158278D1*
X-74700D2*
X-60778D1*
X-33050D2*
X-23858D1*
X10283D2*
X19458D1*
X92800D2*
X100300D1*
X137800D2*
X145300D1*
X185300D2*
X192800D1*
X304684D2*
X314690D1*
X372800D2*
X380300D1*
X420292D2*
X430292D1*
X452800D2*
X462800D1*
X512800D2*
X520300D1*
X570300D2*
X580300D1*
X630300D2*
X637800D1*
X-691883Y992737D2*
X-681775D1*
X-662625D2*
X-651918D1*
X-622200D2*
X-604636D1*
X-578629D2*
X-567057D1*
X-549843D2*
X-539320D1*
X-516536D2*
X-506077D1*
X-484700D2*
X-479700D1*
X-421883D2*
X-411775D1*
X-392625D2*
X-381918D1*
X-366129D2*
X-354557D1*
X-337343D2*
X-326820D1*
X-257200D2*
X-252200D1*
X-172200D2*
X-154636D1*
X-74700D2*
X-57136D1*
X-32230D2*
X-23018D1*
X9364D2*
X18618D1*
X92800D2*
X100300D1*
X137800D2*
X145300D1*
X185300D2*
X192800D1*
X303723D2*
X315845D1*
X372800D2*
X380300D1*
X421952D2*
X431952D1*
X452800D2*
X462800D1*
X512800D2*
X520300D1*
X570300D2*
X580300D1*
X630300D2*
X637800D1*
X-692915Y990237D2*
X-683578D1*
X-660822D2*
X-650844D1*
X-622200D2*
X-601475D1*
X-579584D2*
X-569331D1*
X-547559D2*
X-537928D1*
X-516917D2*
X-507425D1*
X-422915D2*
X-413578D1*
X-390822D2*
X-380844D1*
X-367084D2*
X-356831D1*
X-335059D2*
X-325428D1*
X-257200D2*
X-252200D1*
X-172200D2*
X-151476D1*
X-74700D2*
X-53976D1*
X-31365D2*
X-22219D1*
X8298D2*
X17809D1*
X92800D2*
X100300D1*
X137800D2*
X145300D1*
X185300D2*
X192800D1*
X302862D2*
X316851D1*
X372800D2*
X380300D1*
X423617D2*
X433617D1*
X452800D2*
X462800D1*
X512800D2*
X520300D1*
X570300D2*
X580300D1*
X630300D2*
X637800D1*
X-693741Y987737D2*
X-685020D1*
X-659380D2*
X-650223D1*
X-622200D2*
X-598958D1*
X-580494D2*
X-570794D1*
X-546018D2*
X-536708D1*
X-517079D2*
X-508425D1*
X-423741D2*
X-415020D1*
X-389380D2*
X-380223D1*
X-367994D2*
X-358294D1*
X-333518D2*
X-324208D1*
X-257200D2*
X-252200D1*
X-172200D2*
X-148961D1*
X-74700D2*
X-51461D1*
X-30521D2*
X-21361D1*
X7209D2*
X16873D1*
X92800D2*
X100300D1*
X137800D2*
X145300D1*
X185300D2*
X192800D1*
X301978D2*
X317738D1*
X372800D2*
X380300D1*
X425318D2*
X435318D1*
X452800D2*
X462800D1*
X512800D2*
X520300D1*
X570300D2*
X580300D1*
X630300D2*
X637800D1*
X-694250Y985237D2*
X-686060D1*
X-658340D2*
X-649918D1*
X-622200D2*
X-614700D1*
X-607200D2*
X-597966D1*
X-581270D2*
X-571669D1*
X-544912D2*
X-535762D1*
X-517061D2*
X-508225D1*
X-424250D2*
X-416060D1*
X-388340D2*
X-379918D1*
X-368770D2*
X-359169D1*
X-332412D2*
X-323262D1*
X-257200D2*
X-252200D1*
X-172200D2*
X-164700D1*
X-157200D2*
X-148047D1*
X-74700D2*
X-67200D1*
X-59700D2*
X-50547D1*
X-29710D2*
X-20520D1*
X6232D2*
X15801D1*
X92800D2*
X100300D1*
X137800D2*
X145300D1*
X185300D2*
X192800D1*
X301126D2*
X318707D1*
X372800D2*
X380300D1*
X426961D2*
X436961D1*
X452800D2*
X462800D1*
X512800D2*
X520300D1*
X570300D2*
X580300D1*
X630300D2*
X637800D1*
X-694509Y982737D2*
X-686584D1*
X-657816D2*
X-649785D1*
X-622200D2*
X-614700D1*
X-602200D2*
X-597200D1*
X-581760D2*
X-572359D1*
X-543942D2*
X-535193D1*
X-516769D2*
X-507747D1*
X-424509D2*
X-416584D1*
X-387816D2*
X-379785D1*
X-369260D2*
X-359859D1*
X-331442D2*
X-322693D1*
X-257200D2*
X-252200D1*
X-172200D2*
X-164700D1*
X-152200D2*
X-147532D1*
X-74700D2*
X-67200D1*
X-54700D2*
X-50032D1*
X-28773D2*
X-19719D1*
X5365D2*
X14711D1*
X92800D2*
X100300D1*
X137800D2*
X145300D1*
X185300D2*
X192800D1*
X300311D2*
X307414D1*
X313186D2*
X319792D1*
X372800D2*
X380300D1*
X428620D2*
X438620D1*
X452800D2*
X462800D1*
X512800D2*
X520300D1*
X570300D2*
X580300D1*
X630300D2*
X637800D1*
X-694625Y980237D2*
X-686557D1*
X-657843D2*
X-649741D1*
X-622200D2*
X-614700D1*
X-582013D2*
X-573117D1*
X-543142D2*
X-534907D1*
X-516170D2*
X-507102D1*
X-424625D2*
X-416557D1*
X-387843D2*
X-379741D1*
X-369513D2*
X-360617D1*
X-330642D2*
X-322407D1*
X-257200D2*
X-252200D1*
X-172200D2*
X-164700D1*
X-147200D2*
D3*
X-74700D2*
X-67200D1*
X-49700D2*
D3*
X-27701D2*
X-18861D1*
X4479D2*
X13732D1*
X92800D2*
X100300D1*
X137800D2*
X145300D1*
X185300D2*
X192800D1*
X299374D2*
X306784D1*
X313816D2*
X320887D1*
X372800D2*
X380300D1*
X430317D2*
X440319D1*
X452800D2*
X462800D1*
X512800D2*
X520300D1*
X570300D2*
X580300D1*
X630300D2*
X637800D1*
X-694672Y977737D2*
X-685993D1*
X-658407D2*
X-649809D1*
X-622200D2*
X-614700D1*
X-582126D2*
X-573820D1*
X-542644D2*
X-534781D1*
X-515435D2*
X-506233D1*
X-424672D2*
X-415993D1*
X-388407D2*
X-379809D1*
X-369626D2*
X-361320D1*
X-330144D2*
X-322281D1*
X-257200D2*
X-252200D1*
X-172200D2*
X-164700D1*
X-74700D2*
X-67200D1*
X-26611D2*
X-18020D1*
X3626D2*
X12865D1*
X92800D2*
X100300D1*
X137800D2*
X145300D1*
X185300D2*
X192800D1*
X298301D2*
X306049D1*
X314551D2*
X321867D1*
X372800D2*
X380300D1*
X431947D2*
X441961D1*
X452800D2*
X462800D1*
X512800D2*
X520300D1*
X570300D2*
X580300D1*
X630300D2*
X637800D1*
X-694690Y975237D2*
X-684940D1*
X-659460D2*
X-650130D1*
X-622200D2*
X-614700D1*
X-582172D2*
X-574279D1*
X-542389D2*
X-534730D1*
X-514594D2*
X-505177D1*
X-424690D2*
X-414940D1*
X-389460D2*
X-380130D1*
X-369672D2*
X-361779D1*
X-329889D2*
X-322230D1*
X-257200D2*
X-252200D1*
X-172200D2*
X-164700D1*
X-74700D2*
X-67200D1*
X-25632D2*
X-17219D1*
X2821D2*
X11979D1*
X92800D2*
X145300D1*
X185300D2*
X192800D1*
X297211D2*
X305292D1*
X315308D2*
X322744D1*
X372800D2*
X380300D1*
X433586D2*
X443620D1*
X452790D2*
X462800D1*
X487800D2*
X520300D1*
X542800D2*
X580300D1*
X605300D2*
X637800D1*
X-694697Y972737D2*
X-683526D1*
X-660874D2*
X-650814D1*
X-622200D2*
X-614700D1*
X-582190D2*
X-574520D1*
X-542274D2*
X-534711D1*
X-513435D2*
X-504008D1*
X-424697D2*
X-413526D1*
X-390874D2*
X-380814D1*
X-369690D2*
X-362020D1*
X-329774D2*
X-322211D1*
X-257200D2*
X-252200D1*
X-172200D2*
X-164700D1*
X-74700D2*
X-67200D1*
X-24765D2*
X-16361D1*
X1962D2*
X11126D1*
X92800D2*
X145300D1*
X185300D2*
X192800D1*
X296232D2*
X304452D1*
X316148D2*
X323709D1*
X372800D2*
X380300D1*
X435300D2*
X445317D1*
X452695D2*
X462800D1*
X487800D2*
X520300D1*
X542800D2*
X580300D1*
X605300D2*
X637800D1*
X-694689Y970237D2*
X-679346D1*
X-665054D2*
X-651792D1*
X-622200D2*
X-614700D1*
X-582197D2*
X-574628D1*
X-542228D2*
X-534704D1*
X-511992D2*
X-502714D1*
X-424689D2*
X-409346D1*
X-395054D2*
X-381792D1*
X-369697D2*
X-362128D1*
X-329728D2*
X-322204D1*
X-257200D2*
X-252200D1*
X-172200D2*
X-164700D1*
X-74700D2*
X-67200D1*
X-23879D2*
X-15520D1*
X1120D2*
X10312D1*
X92800D2*
X145300D1*
X185300D2*
X192800D1*
X295355D2*
X303617D1*
X316983D2*
X324802D1*
X372800D2*
X380300D1*
X433750D2*
X446947D1*
X452309D2*
X462800D1*
X487800D2*
X520300D1*
X542800D2*
X580300D1*
X605300D2*
X637800D1*
X-694602Y967737D2*
X-672800D1*
X-671600D2*
X-653022D1*
X-622200D2*
X-614700D1*
X-582199D2*
X-574664D1*
X-542210D2*
X-534701D1*
X-510464D2*
X-501240D1*
X-424602D2*
X-402800D1*
X-401600D2*
X-383022D1*
X-369699D2*
X-362164D1*
X-329710D2*
X-322201D1*
X-257200D2*
X-252200D1*
X-172200D2*
X-164700D1*
X-74700D2*
X-67200D1*
X-23026D2*
X-14709D1*
X309D2*
X9374D1*
X92800D2*
X145300D1*
X185300D2*
X192800D1*
X294391D2*
X302818D1*
X317792D2*
X325975D1*
X372800D2*
X380300D1*
X432314D2*
X448586D1*
X451454D2*
X462800D1*
X487800D2*
X520300D1*
X542800D2*
X580300D1*
X605300D2*
X637800D1*
X-694284Y965237D2*
X-654726D1*
X-622200D2*
X-614700D1*
X-582200D2*
X-574593D1*
X-542203D2*
X-534700D1*
X-508852D2*
X-499625D1*
X-424284D2*
X-384726D1*
X-369700D2*
X-362093D1*
X-329703D2*
X-322200D1*
X-257200D2*
X-252200D1*
X-172200D2*
X-164700D1*
X-74700D2*
X-67200D1*
X-22212D2*
X-13773D1*
X-627D2*
X8301D1*
X92800D2*
X100300D1*
X137800D2*
X145300D1*
X185300D2*
X192800D1*
X293308D2*
X301961D1*
X318727D2*
X327186D1*
X372800D2*
X380300D1*
X430897D2*
X462800D1*
X512800D2*
X520300D1*
X570300D2*
X580300D1*
X630300D2*
X637800D1*
X-693675Y962737D2*
X-657282D1*
X-622200D2*
X-614700D1*
X-582200D2*
X-574280D1*
X-542211D2*
X-534700D1*
X-507171D2*
X-498018D1*
X-423675D2*
X-387282D1*
X-369700D2*
X-361780D1*
X-329711D2*
X-322200D1*
X-257200D2*
X-252200D1*
X-172200D2*
X-164700D1*
X-74700D2*
X-67200D1*
X-21274D2*
X-12701D1*
X-1699D2*
X7211D1*
X92800D2*
X100300D1*
X137800D2*
X145300D1*
X185300D2*
X192800D1*
X292213D2*
X301112D1*
X319801D2*
X328343D1*
X372800D2*
X380300D1*
X429371D2*
X462800D1*
X512800D2*
X520300D1*
X570300D2*
X580300D1*
X630300D2*
X637800D1*
X-692937Y960237D2*
X-660770D1*
X-622200D2*
X-614700D1*
X-582190D2*
X-573684D1*
X-542298D2*
X-534700D1*
X-505536D2*
X-496373D1*
X-422937D2*
X-390770D1*
X-369690D2*
X-361184D1*
X-329798D2*
X-322200D1*
X-257200D2*
X-252200D1*
X-172200D2*
X-164700D1*
X-74700D2*
X-67200D1*
X-20201D2*
X-11611D1*
X-2789D2*
X6232D1*
X92800D2*
X100300D1*
X137800D2*
X145300D1*
X185300D2*
X192800D1*
X291233D2*
X300242D1*
X320905D2*
X329350D1*
X372800D2*
X380300D1*
X427746D2*
X438196D1*
X445205D2*
X462800D1*
X512800D2*
X520300D1*
X570300D2*
X580300D1*
X630300D2*
X637800D1*
X-692094Y957737D2*
X-684795D1*
X-677200D2*
X-664700D1*
X-622200D2*
X-614700D1*
X-582102D2*
X-573044D1*
X-542616D2*
X-534700D1*
X-503879D2*
X-494678D1*
X-422094D2*
X-414795D1*
X-407200D2*
X-394700D1*
X-369602D2*
X-360544D1*
X-330116D2*
X-322200D1*
X-257200D2*
X-252200D1*
X-172200D2*
X-164700D1*
X-74700D2*
X-67200D1*
X-19111D2*
X-10625D1*
X-3775D2*
X5365D1*
X92800D2*
X100300D1*
X137800D2*
X145300D1*
X185300D2*
X192800D1*
X290365D2*
X299124D1*
X321912D2*
X330238D1*
X372800D2*
X380300D1*
X426210D2*
X436404D1*
X447375D2*
X462800D1*
X512800D2*
X520300D1*
X570300D2*
X580300D1*
X630300D2*
X637800D1*
X-690935Y955237D2*
X-682616D1*
X-622200D2*
X-614700D1*
X-581784D2*
X-572598D1*
X-543225D2*
X-534710D1*
X-502190D2*
X-493038D1*
X-420935D2*
X-412616D1*
X-369284D2*
X-360098D1*
X-330725D2*
X-322210D1*
X-257200D2*
X-252200D1*
X-172200D2*
X-164700D1*
X-74700D2*
X-67200D1*
X-18132D2*
X-9688D1*
X-4712D2*
X4479D1*
X92800D2*
X100300D1*
X137800D2*
X145300D1*
X185300D2*
X192800D1*
X289479D2*
X297800D1*
X322800D2*
X331207D1*
X372800D2*
X380300D1*
X424793D2*
X434870D1*
X449178D2*
X462800D1*
X512800D2*
X520300D1*
X570300D2*
X580300D1*
X630300D2*
X637800D1*
X-689492Y952737D2*
X-680715D1*
X-622200D2*
X-614700D1*
X-581175D2*
X-572269D1*
X-543954D2*
X-534798D1*
X-500627D2*
X-491380D1*
X-419492D2*
X-410715D1*
X-368675D2*
X-359769D1*
X-331454D2*
X-322298D1*
X-257200D2*
X-252200D1*
X-172200D2*
X-164700D1*
X-74700D2*
X-67200D1*
X-17265D2*
X-8541D1*
X-5859D2*
X3626D1*
X92800D2*
X100300D1*
X137800D2*
X145300D1*
X185300D2*
X192800D1*
X288626D2*
X332292D1*
X372800D2*
X380300D1*
X423387D2*
X433416D1*
X450620D2*
X462800D1*
X512800D2*
X520300D1*
X570300D2*
X580300D1*
X630300D2*
X637800D1*
X-687964Y950237D2*
X-678856D1*
X-622200D2*
X-614700D1*
X-580446D2*
X-571746D1*
X-544728D2*
X-535116D1*
X-499199D2*
X-489681D1*
X-417964D2*
X-408856D1*
X-367946D2*
X-359246D1*
X-332228D2*
X-322616D1*
X-257200D2*
X-252200D1*
X-172200D2*
X-164700D1*
X-74700D2*
X-67200D1*
X-16379D2*
X2812D1*
X92800D2*
X100300D1*
X137800D2*
X145300D1*
X185300D2*
X192800D1*
X287812D2*
X333387D1*
X372800D2*
X380300D1*
X421867D2*
X431877D1*
X451669D2*
X462800D1*
X512800D2*
X520300D1*
X570300D2*
X580300D1*
X630300D2*
X637800D1*
X-686352Y947737D2*
X-676792D1*
X-622200D2*
X-614700D1*
X-579682D2*
X-570911D1*
X-545793D2*
X-535725D1*
X-497780D2*
X-488039D1*
X-416352D2*
X-406792D1*
X-367182D2*
X-358411D1*
X-333293D2*
X-323225D1*
X-257200D2*
X-252200D1*
X-172200D2*
X-164700D1*
X-74700D2*
X-67200D1*
X-15526D2*
X1874D1*
X92800D2*
X100300D1*
X137800D2*
X145300D1*
X185300D2*
X192800D1*
X286874D2*
X334367D1*
X372800D2*
X380300D1*
X420244D2*
X430248D1*
X452281D2*
X462800D1*
X512800D2*
X520300D1*
X570300D2*
X580300D1*
X630300D2*
X637800D1*
X-684671Y945237D2*
X-674524D1*
X-622200D2*
X-614700D1*
X-578754D2*
X-568661D1*
X-547215D2*
X-536463D1*
X-496170D2*
X-486380D1*
X-414671D2*
X-404524D1*
X-366254D2*
X-356161D1*
X-334715D2*
X-323963D1*
X-257200D2*
X-252200D1*
X-172200D2*
X-164700D1*
X-74700D2*
X-67200D1*
X-14721D2*
X801D1*
X92800D2*
X100300D1*
X137800D2*
X145300D1*
X185300D2*
X192800D1*
X285801D2*
X335244D1*
X372800D2*
X380300D1*
X418709D2*
X428710D1*
X452583D2*
X462800D1*
X512800D2*
X520300D1*
X570300D2*
X580300D1*
X630300D2*
X637800D1*
X-683016Y942737D2*
X-672130D1*
X-622200D2*
X-614700D1*
X-577590D2*
X-564968D1*
X-551657D2*
X-537316D1*
X-494221D2*
X-484681D1*
X-454700D2*
X-447200D1*
X-413016D2*
X-402130D1*
X-365090D2*
X-352468D1*
X-339157D2*
X-324816D1*
X-257200D2*
X-252200D1*
X-172200D2*
X-164700D1*
X-119700D2*
X-112200D1*
X-74700D2*
X-67200D1*
X-13862D2*
X-289D1*
X92800D2*
X100300D1*
X137800D2*
X145300D1*
X185300D2*
X192800D1*
X284711D2*
X295782D1*
X327895D2*
X336209D1*
X372800D2*
X380300D1*
X417292D2*
X427293D1*
X452716D2*
X462800D1*
X512800D2*
X520300D1*
X570300D2*
X580300D1*
X630300D2*
X637800D1*
X-681174Y940237D2*
X-669674D1*
X-622200D2*
X-614700D1*
X-576086D2*
X-559218D1*
X-558636D2*
X-538572D1*
X-492013D2*
X-483039D1*
X-455844D2*
X-446056D1*
X-411174D2*
X-399674D1*
X-363586D2*
X-346718D1*
X-346136D2*
X-326072D1*
X-257200D2*
X-252200D1*
X-172200D2*
X-164700D1*
X-120844D2*
X-111056D1*
X-74700D2*
X-67200D1*
X-13020D2*
X-1268D1*
X92800D2*
X100300D1*
X137800D2*
X145300D1*
X185300D2*
X192800D1*
X283732D2*
X294232D1*
X328225D2*
X337292D1*
X372800D2*
X380300D1*
X415887D2*
X425887D1*
X452769D2*
X462800D1*
X512800D2*
X520300D1*
X570300D2*
X580300D1*
X630300D2*
X637800D1*
X-678741Y937737D2*
X-667191D1*
X-622200D2*
X-614700D1*
X-574086D2*
X-540430D1*
X-522200D2*
X-481388D1*
X-456467D2*
X-445433D1*
X-408741D2*
X-397191D1*
X-361586D2*
X-327930D1*
X-257200D2*
X-252200D1*
X-172200D2*
X-164700D1*
X-121467D2*
X-110433D1*
X-74700D2*
X-67200D1*
X-12217D2*
X-2137D1*
X92800D2*
X100300D1*
X137800D2*
X145300D1*
X185300D2*
X192800D1*
X282863D2*
X293074D1*
X328920D2*
X338378D1*
X372800D2*
X380300D1*
X414374D2*
X424374D1*
X452789D2*
X462800D1*
X475300D2*
X520300D1*
X570300D2*
X580300D1*
X592800D2*
X637800D1*
X-675485Y935237D2*
X-664697D1*
X-622200D2*
X-614700D1*
X-571496D2*
X-542951D1*
X-522200D2*
X-479758D1*
X-456685D2*
X-445215D1*
X-405485D2*
X-394697D1*
X-358996D2*
X-330451D1*
X-257200D2*
X-252200D1*
X-172200D2*
X-164700D1*
X-121685D2*
X-110215D1*
X-74700D2*
X-67200D1*
X-11347D2*
X-3035D1*
X92800D2*
X100300D1*
X137800D2*
X145300D1*
X185300D2*
X192800D1*
X281965D2*
X292047D1*
X329954D2*
X339277D1*
X372800D2*
X380300D1*
X412812D2*
X422812D1*
X452796D2*
X462800D1*
X475300D2*
X520300D1*
X570300D2*
X580300D1*
X592800D2*
X637800D1*
X-671504Y932737D2*
X-662200D1*
X-622200D2*
X-614700D1*
X-568276D2*
X-546141D1*
X-522200D2*
X-478376D1*
X-455817D2*
X-446083D1*
X-401504D2*
X-392200D1*
X-355776D2*
X-333641D1*
X-257200D2*
X-252200D1*
X-172200D2*
X-164700D1*
X-120817D2*
X-111083D1*
X-74700D2*
X-67200D1*
X-10486D2*
X-3907D1*
X92800D2*
X100300D1*
X137800D2*
X145300D1*
X185300D2*
X192800D1*
X281093D2*
X291121D1*
X331283D2*
X339868D1*
X372800D2*
X380300D1*
X411459D2*
X421459D1*
X452799D2*
X462800D1*
X475300D2*
X520300D1*
X570300D2*
X580300D1*
X592800D2*
X637800D1*
X-667200Y930237D2*
X-664700D1*
X-622200D2*
X-614700D1*
X-564700D2*
X-549700D1*
X-522200D2*
X-477200D1*
X-454700D2*
X-447200D1*
X-397200D2*
X-394700D1*
X-352200D2*
X-337200D1*
X-257200D2*
X-252200D1*
X-172200D2*
X-164700D1*
X-119700D2*
X-112200D1*
X-74700D2*
X-67200D1*
X-9700D2*
X-4700D1*
X92800D2*
X100300D1*
X137800D2*
X145300D1*
X185300D2*
X192800D1*
X280300D2*
X290300D1*
X332800D2*
X340300D1*
X372800D2*
X380300D1*
X410300D2*
X420300D1*
X452800D2*
X462800D1*
X475300D2*
X520300D1*
X570300D2*
X580300D1*
X592800D2*
X637800D1*
X-257200Y927737D2*
X-252200D1*
X-257200Y925237D2*
X-252200D1*
X-257200Y922737D2*
X-252200D1*
X-257200Y920237D2*
X-252200D1*
X27800D2*
X82800D1*
X222800D2*
X277800D1*
X-257200Y917737D2*
X-252200D1*
X27800D2*
X82800D1*
X222800D2*
X277800D1*
X-257200Y915237D2*
X-252200D1*
X27800D2*
X82800D1*
X222800D2*
X277800D1*
X-300390Y-1398850D2*
D13*
X-277057D1*
X-173723D2*
X-150390D1*
X-33723D2*
X-10390D1*
X42943D2*
X66277D1*
X162943D2*
X172943D1*
X-300390Y-1402183D2*
X-277057D1*
X-173723D2*
X-150390D1*
X-33723D2*
X-10390D1*
X42943D2*
X66277D1*
X162943D2*
X178204D1*
X-300390Y-1405517D2*
X-277057D1*
X-173723D2*
X-150390D1*
X-33723D2*
X-10390D1*
X42943D2*
X66277D1*
X162943D2*
X182893D1*
X-300390Y-1408850D2*
X-277057D1*
X-173723D2*
X-150390D1*
X-33723D2*
X-10390D1*
X42943D2*
X66277D1*
X162943D2*
X186762D1*
X-300390Y-1412183D2*
X-277057D1*
X-173723D2*
X-150390D1*
X-33723D2*
X-10390D1*
X42943D2*
X66277D1*
X162969D2*
X189909D1*
X-300390Y-1415517D2*
X-277057D1*
X-173723D2*
X-150390D1*
X-33723D2*
X-10390D1*
X42943D2*
X66277D1*
X163217D2*
X192503D1*
X-300390Y-1418850D2*
X-277057D1*
X-173723D2*
X-150390D1*
X-33723D2*
X-10390D1*
X42943D2*
X66277D1*
X163803D2*
X194348D1*
X-300390Y-1422183D2*
X-277057D1*
X-173723D2*
X-150390D1*
X-33723D2*
X-10390D1*
X42943D2*
X66277D1*
X166110D2*
X195403D1*
X-663723Y-1425517D2*
X-647057D1*
X-620390D2*
X-603723D1*
X-547057D2*
X-523723D1*
X-460390D2*
X-440390D1*
X-323723D2*
X-307057D1*
X-300390D2*
X-277057D1*
X-237057D2*
X-213723D1*
X-173723D2*
X-150390D1*
X-107057D2*
X-83723D1*
X-47057D2*
X-10390D1*
X2943D2*
X29610D1*
X42943D2*
X66277D1*
X102943D2*
X126277D1*
X168689D2*
X195915D1*
X232943D2*
X256277D1*
X352943D2*
X376277D1*
X389610D2*
X412943D1*
X422943D2*
X446277D1*
X466277D2*
X489610D1*
X502943D2*
X526277D1*
X536277D2*
X559610D1*
X579610D2*
X602943D1*
X616277D2*
X639610D1*
X649610D2*
X672943D1*
X-668468Y-1428850D2*
X-635702D1*
X-631744D2*
X-598864D1*
X-551929D2*
X-517725D1*
X-466801D2*
X-434391D1*
X-329608D2*
X-307057D1*
X-300390D2*
X-277057D1*
X-242941D2*
X-207725D1*
X-173723D2*
X-150390D1*
X-112941D2*
X-77725D1*
X-47057D2*
X-10390D1*
X5010D2*
X30876D1*
X42943D2*
X66277D1*
X98071D2*
X132275D1*
X170724D2*
X196137D1*
X228071D2*
X262275D1*
X352943D2*
X376277D1*
X389610D2*
X412943D1*
X422943D2*
X446277D1*
X466277D2*
X489610D1*
X502943D2*
X526277D1*
X536277D2*
X559610D1*
X579610D2*
X602943D1*
X616277D2*
X639610D1*
X649610D2*
X672943D1*
X-672319Y-1432183D2*
X-594704D1*
X-556206D2*
X-512559D1*
X-472036D2*
X-429226D1*
X-334463D2*
X-307057D1*
X-300390D2*
X-277057D1*
X-247784D2*
X-202559D1*
X-173723D2*
X-150390D1*
X-117784D2*
X-72559D1*
X-47057D2*
X-10390D1*
X6911D2*
X32309D1*
X42930D2*
X66277D1*
X93794D2*
X137441D1*
X171928D2*
X196225D1*
X223794D2*
X267441D1*
X352943D2*
X376277D1*
X389610D2*
X412943D1*
X422943D2*
X446277D1*
X466277D2*
X489610D1*
X502943D2*
X526277D1*
X536277D2*
X559610D1*
X579610D2*
X602943D1*
X616277D2*
X639610D1*
X649610D2*
X672943D1*
X-675207Y-1435517D2*
X-591441D1*
X-559907D2*
X-508547D1*
X-476208D2*
X-425214D1*
X-338101D2*
X-307057D1*
X-300390D2*
X-277057D1*
X-251317D2*
X-198547D1*
X-173723D2*
X-150390D1*
X-121317D2*
X-68547D1*
X-47057D2*
X-10390D1*
X8696D2*
X33867D1*
X42803D2*
X66277D1*
X90106D2*
X141453D1*
X172522D2*
X196259D1*
X220106D2*
X271453D1*
X352943D2*
X376277D1*
X389610D2*
X412943D1*
X422943D2*
X446277D1*
X466277D2*
X489610D1*
X502943D2*
X526277D1*
X536277D2*
X559610D1*
X579610D2*
X602943D1*
X616277D2*
X639610D1*
X649610D2*
X672943D1*
X-677346Y-1438850D2*
X-588880D1*
X-563017D2*
X-505601D1*
X-479390D2*
X-422268D1*
X-340991D2*
X-307109D1*
X-300390D2*
X-277057D1*
X-253899D2*
X-195601D1*
X-173723D2*
X-150390D1*
X-123899D2*
X-65601D1*
X-47057D2*
X-10390D1*
X10421D2*
X35573D1*
X42288D2*
X66277D1*
X87100D2*
X144399D1*
X172790D2*
X196271D1*
X217100D2*
X274399D1*
X352943D2*
X376277D1*
X389610D2*
X412943D1*
X422943D2*
X446277D1*
X466277D2*
X489610D1*
X502943D2*
X526277D1*
X536277D2*
X559610D1*
X579610D2*
X602943D1*
X616277D2*
X639610D1*
X649610D2*
X672943D1*
X-678831Y-1442183D2*
X-587942D1*
X-565509D2*
X-503430D1*
X-481824D2*
X-420110D1*
X-343422D2*
X-307265D1*
X-300390D2*
X-277057D1*
X-255957D2*
X-193443D1*
X-173723D2*
X-150390D1*
X-125957D2*
X-63443D1*
X-47057D2*
X-10390D1*
X12197D2*
X37497D1*
X41149D2*
X66277D1*
X84916D2*
X146570D1*
X162943D2*
X196275D1*
X214916D2*
X276570D1*
X352943D2*
X376277D1*
X389610D2*
X412943D1*
X422943D2*
X446277D1*
X466277D2*
X489610D1*
X502943D2*
X526277D1*
X536277D2*
X559610D1*
X579610D2*
X602943D1*
X616277D2*
X639610D1*
X649610D2*
X672943D1*
X-679681Y-1445517D2*
X-587434D1*
X-567466D2*
X-501821D1*
X-482844D2*
X-418618D1*
X-345186D2*
X-308723D1*
X-300390D2*
X-277057D1*
X-257665D2*
X-191938D1*
X-173723D2*
X-150390D1*
X-127665D2*
X-61938D1*
X-47057D2*
X-10390D1*
X14149D2*
X66277D1*
X83333D2*
X106277D1*
X122288D2*
X148179D1*
X162943D2*
X196276D1*
X213333D2*
X236277D1*
X252288D2*
X278179D1*
X352943D2*
X376277D1*
X389610D2*
X412943D1*
X422943D2*
X446277D1*
X466277D2*
X489610D1*
X502943D2*
X526277D1*
X536277D2*
X559610D1*
X579610D2*
X602943D1*
X616277D2*
X639610D1*
X649610D2*
X672943D1*
X-680095Y-1448850D2*
X-587205D1*
X-568876D2*
X-500545D1*
X-480207D2*
X-417767D1*
X-346205D2*
X-312854D1*
X-300403D2*
X-277057D1*
X-258957D2*
X-190960D1*
X-173723D2*
X-150390D1*
X-128957D2*
X-60960D1*
X-47057D2*
X-10390D1*
X16277D2*
X66277D1*
X81978D2*
X102943D1*
X124238D2*
X149455D1*
X162943D2*
X196276D1*
X211978D2*
X232943D1*
X254238D2*
X279455D1*
X352943D2*
X376277D1*
X389610D2*
X412943D1*
X422943D2*
X446277D1*
X466277D2*
X489610D1*
X502943D2*
X526277D1*
X536277D2*
X559610D1*
X579610D2*
X602943D1*
X616277D2*
X639610D1*
X649610D2*
X672943D1*
X-680276Y-1452183D2*
X-657057D1*
X-647712D2*
X-620390D1*
X-610390D2*
X-587111D1*
X-569697D2*
X-543055D1*
X-527725D2*
X-499345D1*
X-477057D2*
X-460390D1*
X-444391D2*
X-417352D1*
X-346703D2*
X-317186D1*
X-300520D2*
X-277057D1*
X-259727D2*
X-233068D1*
X-217725D2*
X-190029D1*
X-173723D2*
X-150390D1*
X-129727D2*
X-103068D1*
X-87725D2*
X-60029D1*
X-33723D2*
X-10390D1*
X14611D2*
X66277D1*
X80885D2*
X119610D1*
X125354D2*
X150655D1*
X162943D2*
X196277D1*
X210885D2*
X249610D1*
X255354D2*
X280655D1*
X352943D2*
X376277D1*
X389597D2*
X412943D1*
X422943D2*
X446277D1*
X466277D2*
X489610D1*
X502930D2*
X526277D1*
X536277D2*
X559610D1*
X579610D2*
X602943D1*
X616264D2*
X639610D1*
X649610D2*
X672943D1*
X-680348Y-1455517D2*
X-657057D1*
X-645762D2*
X-620390D1*
X-610390D2*
X-587076D1*
X-570101D2*
X-545270D1*
X-525510D2*
X-498427D1*
X-442177D2*
X-417171D1*
X-346920D2*
X-320430D1*
X-300997D2*
X-277070D1*
X-260112D2*
X-235018D1*
X-215510D2*
X-188702D1*
X-173723D2*
X-150390D1*
X-130112D2*
X-105018D1*
X-85510D2*
X-58702D1*
X-34505D2*
X-10390D1*
X13213D2*
X36150D1*
X42943D2*
X66277D1*
X80206D2*
X119610D1*
X125882D2*
X151573D1*
X162943D2*
X196277D1*
X210206D2*
X249610D1*
X255882D2*
X281573D1*
X352943D2*
X376303D1*
X389441D2*
X412969D1*
X422917D2*
X446277D1*
X466277D2*
X489636D1*
X502774D2*
X526303D1*
X536251D2*
X559610D1*
X579610D2*
X602969D1*
X616107D2*
X639636D1*
X649584D2*
X672943D1*
X-680375Y-1458850D2*
X-657057D1*
X-644646D2*
X-620390D1*
X-610390D2*
X-587063D1*
X-570264D2*
X-545695D1*
X-525085D2*
X-497925D1*
X-441751D2*
X-417099D1*
X-347006D2*
X-322802D1*
X-301881D2*
X-277187D1*
X-260281D2*
X-236134D1*
X-215033D2*
X-187057D1*
X-173723D2*
X-150390D1*
X-130281D2*
X-106134D1*
X-85033D2*
X-57057D1*
X-35862D2*
X-10403D1*
X11813D2*
X35709D1*
X42943D2*
X66277D1*
X79843D2*
X119610D1*
X125934D2*
X152075D1*
X162943D2*
X196277D1*
X209843D2*
X249610D1*
X255934D2*
X282075D1*
X352943D2*
X376557D1*
X389050D2*
X413223D1*
X422663D2*
X446277D1*
X466277D2*
X489890D1*
X502383D2*
X526557D1*
X535997D2*
X559610D1*
X579610D2*
X603223D1*
X615717D2*
X639890D1*
X649330D2*
X672943D1*
X-680385Y-1462183D2*
X-657057D1*
X-644105D2*
X-620390D1*
X-610390D2*
X-587059D1*
X-570218D2*
X-544726D1*
X-526054D2*
X-498605D1*
X-487057D2*
X-463723D1*
X-442721D2*
X-417085D1*
X-387057D2*
X-373723D1*
X-347026D2*
X-320026D1*
X-304457D2*
X-277612D1*
X-260350D2*
X-236675D1*
X-216877D2*
X-188608D1*
X-173723D2*
X-150390D1*
X-130350D2*
X-106675D1*
X-86877D2*
X-58608D1*
X-39079D2*
X-10520D1*
X10305D2*
X34793D1*
X42943D2*
X66277D1*
X79610D2*
X119610D1*
X125583D2*
X151395D1*
X162943D2*
X196277D1*
X209610D2*
X249610D1*
X255583D2*
X281395D1*
X309610D2*
X322943D1*
X352943D2*
X377162D1*
X386990D2*
X413829D1*
X422058D2*
X446277D1*
X466277D2*
X490495D1*
X500323D2*
X527162D1*
X535391D2*
X559610D1*
X579610D2*
X603829D1*
X613656D2*
X640495D1*
X648725D2*
X672943D1*
X-680388Y-1465517D2*
X-657057D1*
X-643870D2*
X-620390D1*
X-610390D2*
X-587057D1*
X-569807D2*
X-536426D1*
X-534354D2*
X-499476D1*
X-485904D2*
X-454140D1*
X-451021D2*
X-417205D1*
X-390649D2*
X-371045D1*
X-346907D2*
X-312574D1*
X-310225D2*
X-278423D1*
X-260376D2*
X-236910D1*
X-221292D2*
X-189683D1*
X-173723D2*
X-150390D1*
X-130376D2*
X-106910D1*
X-91292D2*
X-59683D1*
X-42253D2*
X-10958D1*
X8721D2*
X33514D1*
X42943D2*
X66277D1*
X122914D2*
X150524D1*
X162943D2*
X196277D1*
X252914D2*
X280524D1*
X306017D2*
X325622D1*
X352956D2*
X379760D1*
X382032D2*
X416426D1*
X419460D2*
X446277D1*
X466290D2*
X493093D1*
X495366D2*
X529760D1*
X532794D2*
X559610D1*
X579623D2*
X606426D1*
X608699D2*
X643093D1*
X646127D2*
X672943D1*
X-680389Y-1468850D2*
X-657057D1*
X-643777D2*
X-620390D1*
X-610390D2*
X-587057D1*
X-568888D2*
X-500446D1*
X-484782D2*
X-417744D1*
X-393390D2*
X-369096D1*
X-346369D2*
X-279408D1*
X-260385D2*
X-237003D1*
X-225348D2*
X-190605D1*
X-173723D2*
X-150390D1*
X-130385D2*
X-107003D1*
X-95348D2*
X-60605D1*
X-44966D2*
X-11887D1*
X7100D2*
X32121D1*
X42943D2*
X66277D1*
X116829D2*
X149554D1*
X172943D2*
X196277D1*
X246829D2*
X279554D1*
X303276D2*
X327571D1*
X353074D2*
X446264D1*
X466407D2*
X559597D1*
X579740D2*
X672930D1*
X-680390Y-1472183D2*
X-657057D1*
X-643742D2*
X-620390D1*
X-610390D2*
X-587057D1*
X-567482D2*
X-501664D1*
X-483595D2*
X-418979D1*
X-395209D2*
X-367979D1*
X-345122D2*
X-280544D1*
X-260388D2*
X-237038D1*
X-228466D2*
X-191749D1*
X-173723D2*
X-150390D1*
X-130388D2*
X-107038D1*
X-98466D2*
X-61749D1*
X-46039D2*
X-13296D1*
X5554D2*
X30840D1*
X42943D2*
X66277D1*
X110465D2*
X148336D1*
X172943D2*
X196277D1*
X240465D2*
X278336D1*
X301457D2*
X328687D1*
X353511D2*
X446133D1*
X466845D2*
X559467D1*
X580178D2*
X672800D1*
X-680390Y-1475517D2*
X-657057D1*
X-643730D2*
X-620390D1*
X-610390D2*
X-587057D1*
X-565549D2*
X-503220D1*
X-481915D2*
X-420774D1*
X-396392D2*
X-367451D1*
X-343222D2*
X-282207D1*
X-260389D2*
X-237050D1*
X-229480D2*
X-193258D1*
X-173723D2*
X-150390D1*
X-130389D2*
X-107050D1*
X-99480D2*
X-63258D1*
X-46622D2*
X-15231D1*
X4210D2*
X29692D1*
X42943D2*
X66277D1*
X105129D2*
X146780D1*
X172943D2*
X196277D1*
X235129D2*
X276780D1*
X300274D2*
X329216D1*
X354440D2*
X445578D1*
X467773D2*
X558912D1*
X581107D2*
X672245D1*
X-680390Y-1478850D2*
X-657057D1*
X-643725D2*
X-620390D1*
X-610390D2*
X-587057D1*
X-563019D2*
X-505341D1*
X-479534D2*
X-422896D1*
X-396210D2*
X-367347D1*
X-340793D2*
X-284582D1*
X-260390D2*
X-237055D1*
X-230012D2*
X-195356D1*
X-173723D2*
X-150390D1*
X-130390D2*
X-107055D1*
X-100012D2*
X-65356D1*
X-46886D2*
X-17761D1*
X3026D2*
X28514D1*
X42943D2*
X66277D1*
X101223D2*
X144659D1*
X172943D2*
X196277D1*
X231223D2*
X274659D1*
X300456D2*
X329320D1*
X355863D2*
X444212D1*
X469196D2*
X557545D1*
X582529D2*
X670879D1*
X-680390Y-1482183D2*
X-657057D1*
X-643724D2*
X-620390D1*
X-610390D2*
X-587057D1*
X-559961D2*
X-508433D1*
X-476430D2*
X-425693D1*
X-395311D2*
X-367808D1*
X-337623D2*
X-287684D1*
X-260390D2*
X-237056D1*
X-230245D2*
X-198439D1*
X-173723D2*
X-150390D1*
X-130390D2*
X-107056D1*
X-100245D2*
X-68439D1*
X-46994D2*
X-20819D1*
X1724D2*
X27368D1*
X42943D2*
X66277D1*
X98348D2*
X141567D1*
X172943D2*
X196277D1*
X228348D2*
X271567D1*
X301356D2*
X328859D1*
X357924D2*
X441877D1*
X471257D2*
X555210D1*
X584591D2*
X668544D1*
X-680390Y-1485517D2*
X-657057D1*
X-643724D2*
X-620390D1*
X-610390D2*
X-587057D1*
X-556289D2*
X-512713D1*
X-472279D2*
X-429691D1*
X-393487D2*
X-369115D1*
X-333589D2*
X-291835D1*
X-260390D2*
X-237056D1*
X-230338D2*
X-202715D1*
X-173723D2*
X-150390D1*
X-130390D2*
X-107056D1*
X-100338D2*
X-72715D1*
X-47034D2*
X-24491D1*
X178D2*
X26202D1*
X42943D2*
X66277D1*
X97184D2*
X137287D1*
X172943D2*
X196277D1*
X227184D2*
X267287D1*
X303180D2*
X327552D1*
X360954D2*
X438574D1*
X474287D2*
X551907D1*
X587620D2*
X665240D1*
X-680390Y-1488850D2*
X-657057D1*
X-643723D2*
X-620390D1*
X-610390D2*
X-587057D1*
X-551890D2*
X-517998D1*
X-466754D2*
X-434794D1*
X-390604D2*
X-371233D1*
X-328847D2*
X-297359D1*
X-260390D2*
X-237057D1*
X-230373D2*
X-207998D1*
X-173723D2*
X-150390D1*
X-130390D2*
X-107057D1*
X-100373D2*
X-77998D1*
X-47049D2*
X-28890D1*
X-1663D2*
X24710D1*
X42943D2*
X66277D1*
X99805D2*
X132002D1*
X172943D2*
X196277D1*
X229805D2*
X262002D1*
X306063D2*
X325433D1*
X365004D2*
X396277D1*
X406277D2*
X434344D1*
X478337D2*
X509610D1*
X519610D2*
X547677D1*
X591670D2*
X622943D1*
X632943D2*
X661011D1*
X-680390Y-1492183D2*
X-657057D1*
X-643723D2*
X-620390D1*
X-610390D2*
X-587057D1*
X-547057D2*
X-523723D1*
X-460390D2*
X-440390D1*
X-387057D2*
X-373723D1*
X-323723D2*
X-303723D1*
X-260390D2*
X-237057D1*
X-230390D2*
X-213723D1*
X-173723D2*
X-150390D1*
X-130390D2*
X-107057D1*
X-100390D2*
X-83723D1*
X-47057D2*
X-33723D1*
X-3723D2*
X22943D1*
X42943D2*
X66277D1*
X102943D2*
X126277D1*
X172943D2*
X196277D1*
X232943D2*
X256277D1*
X309610D2*
X322943D1*
X369610D2*
X389610D1*
X412943D2*
X429610D1*
X482943D2*
X502943D1*
X526277D2*
X542943D1*
X596277D2*
X616277D1*
X639610D2*
X656277D1*
X1054320Y-957433D2*
D14*
X1055270Y-959933D1*
X1056344Y-962433D1*
X1057505Y-964933D1*
X1058720Y-967433D1*
X1059953Y-969933D1*
X1061199Y-972433D1*
X1062445Y-974933D1*
X1063696Y-977433D1*
X1064944Y-979933D1*
X1066196Y-982433D1*
X1067444Y-984933D1*
X1068686Y-987433D1*
X1069856Y-989933D1*
X1070868Y-992433D1*
X1071757Y-994933D1*
X1072727Y-997433D1*
X1073821Y-999933D1*
X1075003Y-1002433D1*
X1076288Y-1004933D1*
X1077734Y-1007433D1*
X1079320Y-1009933D1*
X1059320Y-1012433D1*
X1064320Y-957433D2*
X1065270Y-959933D1*
X1066344Y-962433D1*
X1067505Y-964933D1*
X1068710Y-967433D1*
X1069865Y-969933D1*
X1070871Y-972433D1*
X1071758Y-974933D1*
X1072727Y-977433D1*
X1073821Y-979933D1*
X1074995Y-982433D1*
X1076215Y-984933D1*
X1077451Y-987433D1*
X1078698Y-989933D1*
X1079945Y-992433D1*
X1081196Y-994933D1*
X1082444Y-997433D1*
X1083696Y-999933D1*
X1084944Y-1002433D1*
X1086186Y-1004933D1*
X1087346Y-1007433D1*
X1088270Y-1009933D1*
X1088831Y-1012433D1*
X1089115Y-1014933D1*
X1089245Y-1017433D1*
X1089320Y-1019933D1*
X1121820Y-957433D2*
X1117407Y-959933D1*
X1113765Y-962433D1*
X1111037Y-964933D1*
X1108869Y-967433D1*
X1107045Y-969933D1*
X1105714Y-972433D1*
X1104896Y-974933D1*
X1104320Y-977433D1*
X1136820Y-957433D2*
X1141618Y-959933D1*
X1145466Y-962433D1*
X1148365Y-964933D1*
X1150491Y-967433D1*
X1152064Y-969933D1*
X1153172Y-972433D1*
X1153890Y-974933D1*
X1154517Y-977433D1*
X1155250Y-979933D1*
X1155945Y-982433D1*
X1156401Y-984933D1*
X1156640Y-987433D1*
X1156749Y-989933D1*
X1156793Y-992433D1*
X1156810Y-994933D1*
X1156817Y-997433D1*
X1156809Y-999933D1*
X1156722Y-1002433D1*
X1156404Y-1004933D1*
X1155805Y-1007433D1*
X1155154Y-1009933D1*
X1154630Y-1012433D1*
X1154070Y-1014933D1*
X1153268Y-1017433D1*
X1152167Y-1019933D1*
X1150679Y-1022433D1*
X1148595Y-1024933D1*
X1145622Y-1027433D1*
X1141550Y-1029933D1*
X1136820Y-1032433D1*
X1129320Y-964933D2*
X1124821Y-967433D1*
X1120954Y-969933D1*
X1118001Y-972433D1*
X1115930Y-974933D1*
X1114320Y-977433D1*
X1129320Y-964933D2*
X1133819Y-967433D1*
X1137693Y-969933D1*
X1140702Y-972433D1*
X1142912Y-974933D1*
X1144530Y-977433D1*
X1145649Y-979933D1*
X1146287Y-982433D1*
X1146599Y-984933D1*
X1146734Y-987433D1*
X1146788Y-989933D1*
X1146809Y-992433D1*
X1146816Y-994933D1*
X1146819Y-997433D1*
X1146820Y-999933D1*
X1146810Y-1002433D1*
X1146722Y-1004933D1*
X1146394Y-1007433D1*
X1145698Y-1009933D1*
X1144631Y-1012433D1*
X1143053Y-1014933D1*
X1140963Y-1017433D1*
X1136226Y-1019933D1*
X1129607Y-1022433D1*
X1121820Y-1024933D1*
X1046820Y-987433D2*
Y-989933D1*
Y-992433D1*
Y-994933D1*
Y-997433D1*
Y-999933D1*
Y-1002433D1*
Y-1004933D1*
Y-1007433D1*
Y-1009933D1*
Y-1012433D1*
X1041820D1*
Y-1014933D1*
Y-1017433D1*
Y-1019933D1*
Y-1022433D1*
X1046820D1*
Y-1024933D1*
Y-1027433D1*
Y-1029933D1*
Y-1032433D1*
X1054320Y-987433D2*
Y-989933D1*
Y-992433D1*
Y-994933D1*
Y-997433D1*
Y-999933D1*
Y-1002433D1*
Y-1004933D1*
Y-1007433D1*
Y-1009933D1*
X1076820Y-1012433D1*
X1104320D2*
X1104802Y-1014933D1*
X1105752Y-1017433D1*
X1107105Y-1019933D1*
X1108698Y-1022433D1*
X1110797Y-1024933D1*
X1113796Y-1027433D1*
X1117623Y-1029933D1*
X1121820Y-1032433D1*
X1114320Y-1012433D2*
X1115800Y-1014933D1*
X1117770Y-1017433D1*
X1122458Y-1019933D1*
X1129050Y-1022433D1*
X1136820Y-1024933D1*
X1054320Y-1019933D2*
Y-1022433D1*
Y-1024933D1*
Y-1027433D1*
Y-1029933D1*
Y-1032433D1*
X1089817Y1109983D2*
X1085018Y1107483D1*
X1081170Y1104983D1*
X1078272Y1102483D1*
X1076146Y1099983D1*
X1074573Y1097483D1*
X1073474Y1094983D1*
X1072844Y1092483D1*
X1072536Y1089983D1*
X1072402Y1087483D1*
X1072348Y1084983D1*
X1072328Y1082483D1*
X1072320Y1079983D1*
X1072328Y1077483D1*
X1072415Y1074983D1*
X1072743Y1072483D1*
X1073437Y1069983D1*
X1074471Y1067483D1*
X1075799Y1064983D1*
X1077317Y1062483D1*
X1094817Y1109983D2*
X1099615Y1107483D1*
X1103453Y1104983D1*
X1106273Y1102483D1*
X1108169Y1099983D1*
X1109462Y1097483D1*
X1110518Y1094983D1*
X1111353Y1092483D1*
X1111875Y1089983D1*
X1112223Y1087483D1*
X1112658Y1084983D1*
X1113314Y1082483D1*
X1114060Y1079983D1*
X1114870Y1077483D1*
X1115847Y1074983D1*
X1118154Y1072483D1*
X1123480Y1069983D1*
X1129817Y1067483D1*
X1134817Y1109983D2*
X1133806Y1107483D1*
X1133985Y1104983D1*
X1134635Y1102483D1*
X1135523Y1099983D1*
X1136334Y1097483D1*
X1136852Y1094983D1*
X1137119Y1092483D1*
X1137239Y1089983D1*
X1137288Y1087483D1*
X1137306Y1084983D1*
X1137303Y1082483D1*
X1137208Y1079983D1*
X1136975Y1077483D1*
X1135818Y1074983D1*
X1131809Y1072483D1*
X1125357Y1069983D1*
X1117317Y1067483D1*
X1139817Y1109983D2*
X1141357Y1107483D1*
X1142695Y1104983D1*
X1143715Y1102483D1*
X1144402Y1099983D1*
X1145018Y1097483D1*
X1145748Y1094983D1*
X1146442Y1092483D1*
X1146898Y1089983D1*
X1147137Y1087483D1*
X1147236Y1084983D1*
X1147192Y1082483D1*
X1146891Y1079983D1*
X1146289Y1077483D1*
X1145562Y1074983D1*
X1144798Y1072483D1*
X1143870Y1069983D1*
X1142688Y1067483D1*
X1141002Y1064983D1*
X1138327Y1062483D1*
X1134428Y1059983D1*
X1129817Y1057483D1*
X1087317Y1099983D2*
X1085213Y1097483D1*
X1083430Y1094983D1*
X1081994Y1092483D1*
X1080947Y1089983D1*
X1080335Y1087483D1*
X1080033Y1084983D1*
X1079911Y1082483D1*
X1079945Y1079983D1*
X1080254Y1077483D1*
X1080943Y1074983D1*
X1081997Y1072483D1*
X1083440Y1069983D1*
X1085284Y1067483D1*
X1087317Y1064983D1*
X1082317Y1062483D1*
X1097317Y1099983D2*
X1099335Y1097483D1*
X1100885Y1094983D1*
X1102041Y1092483D1*
X1103046Y1089983D1*
X1103862Y1087483D1*
X1104378Y1084983D1*
X1104724Y1082483D1*
X1105158Y1079983D1*
X1105814Y1077483D1*
X1106560Y1074983D1*
X1107331Y1072483D1*
X1108262Y1069983D1*
X1109436Y1067483D1*
X1111026Y1064983D1*
X1113315Y1062483D1*
X1116359Y1059983D1*
X1119817Y1057483D1*
X1072317Y1047483D2*
X1072451Y1044983D1*
X1072776Y1042483D1*
X1074685Y1039983D1*
X1080334Y1037483D1*
X1088160Y1034983D1*
X1097535Y1032483D1*
X1107770Y1029983D1*
X1118629Y1027483D1*
X1129817Y1024983D1*
X1122134Y1022483D1*
X1113658Y1019983D1*
X1104723Y1017483D1*
X1095859Y1014983D1*
X1087658Y1012483D1*
X1081016Y1009983D1*
X1075880Y1007483D1*
X1073903Y1004983D1*
X1073037Y1002483D1*
X1078856Y999983D1*
X1085875Y997483D1*
X1094024Y994983D1*
X1102961Y992483D1*
X1112127Y989983D1*
X1121078Y987483D1*
X1129817Y984983D1*
X1119721Y982483D1*
X1109421Y979983D1*
X1099036Y977483D1*
X1089423Y974983D1*
X1081849Y972483D1*
X1076097Y969983D1*
X1073793Y967483D1*
X1072940Y964983D1*
X1072317Y962483D1*
X1077317Y1047483D2*
X1088171Y1044983D1*
X1098915Y1042483D1*
X1109380Y1039983D1*
X1119497Y1037483D1*
X1128899Y1034983D1*
X1136680Y1032483D1*
X1142877Y1029983D1*
X1145551Y1027483D1*
X1146350Y1024983D1*
X1146741Y1022483D1*
X1142897Y1019983D1*
X1137305Y1017483D1*
X1130039Y1014983D1*
X1121714Y1012483D1*
X1112949Y1009983D1*
X1103955Y1007483D1*
X1094817Y1004983D1*
X1102413Y1002483D1*
X1110657Y999983D1*
X1119292Y997483D1*
X1127938Y994983D1*
X1135706Y992483D1*
X1142242Y989983D1*
X1145271Y987483D1*
X1146279Y984983D1*
X1146877Y982483D1*
X1143429Y979983D1*
X1137914Y977483D1*
X1130360Y974983D1*
X1121428Y972483D1*
X1111597Y969983D1*
X1101170Y967483D1*
X1090498Y964983D1*
X1079817Y962483D1*
X1072317Y947483D2*
Y944983D1*
Y942483D1*
Y939983D1*
Y937483D1*
Y934983D1*
Y932483D1*
Y929983D1*
Y927483D1*
Y924983D1*
Y922483D1*
X1072326Y919983D1*
X1072414Y917483D1*
X1072743Y914983D1*
X1073429Y912483D1*
X1074408Y909983D1*
X1075629Y907483D1*
X1077256Y904983D1*
X1079603Y902483D1*
X1082952Y899983D1*
X1087336Y897483D1*
X1092317Y894983D1*
X1147317Y947483D2*
Y944983D1*
Y942483D1*
Y939983D1*
Y937483D1*
Y934983D1*
Y932483D1*
Y929983D1*
Y927483D1*
X1147307Y924983D1*
X1147219Y922483D1*
X1146900Y919983D1*
X1146292Y917483D1*
X1145563Y914983D1*
X1144799Y912483D1*
X1143870Y909983D1*
X1142697Y907483D1*
X1141095Y904983D1*
X1138679Y902483D1*
X1135083Y899983D1*
X1130265Y897483D1*
X1124817Y894983D1*
X1079817Y939983D2*
Y937483D1*
Y934983D1*
Y932483D1*
Y929983D1*
Y927483D1*
X1079826Y924983D1*
X1079914Y922483D1*
X1080243Y919983D1*
X1080939Y917483D1*
X1081996Y914983D1*
X1083447Y912483D1*
X1085333Y909983D1*
X1087516Y907483D1*
X1089817Y904983D1*
X1137317Y939983D2*
Y937483D1*
Y934983D1*
Y932483D1*
Y929983D1*
Y927483D1*
Y924983D1*
X1137307Y922483D1*
X1137209Y919983D1*
X1136793Y917483D1*
X1135778Y914983D1*
X1134122Y912483D1*
X1132031Y909983D1*
X1129713Y907483D1*
X1127317Y904983D1*
X-1149600Y-872817D2*
X-1149485Y-875317D1*
X-1149219Y-877817D1*
X-1147954Y-880317D1*
X-1144961Y-882817D1*
X-1141047Y-885317D1*
X-1136293Y-887817D1*
X-1130936Y-890317D1*
X-1125380Y-892817D1*
X-1119911Y-895317D1*
X-1114562Y-897817D1*
X-1109613Y-900317D1*
X-1105534Y-902817D1*
X-1102100Y-905317D1*
X-1107195Y-907817D1*
X-1112516Y-910317D1*
X-1118115Y-912817D1*
X-1123766Y-915317D1*
X-1129280Y-917817D1*
X-1134723Y-920317D1*
X-1139914Y-922817D1*
X-1144167Y-925317D1*
X-1147437Y-927817D1*
X-1148565Y-930317D1*
X-1149196Y-932817D1*
X-1149600Y-935317D1*
X-1074600Y-872817D2*
Y-875317D1*
Y-877817D1*
Y-880317D1*
X-1129600D2*
X-1124600Y-882817D1*
X-1119590Y-885317D1*
X-1114502Y-887817D1*
X-1109184Y-890317D1*
X-1103605Y-892817D1*
X-1098159Y-895317D1*
X-1093555Y-897817D1*
X-1089833Y-900317D1*
X-1088231Y-902817D1*
X-1087920Y-905317D1*
X-1089187Y-907817D1*
X-1092787Y-910317D1*
X-1097326Y-912817D1*
X-1102506Y-915317D1*
X-1108091Y-917817D1*
X-1113741Y-920317D1*
X-1119187Y-922817D1*
X-1124436Y-925317D1*
X-1129600Y-927817D1*
X-1074600D2*
Y-930317D1*
Y-932817D1*
Y-935317D1*
X-1129600Y-955317D2*
X-1135167Y-957817D1*
X-1139527Y-960317D1*
X-1142619Y-962817D1*
X-1144947Y-965317D1*
X-1146836Y-967817D1*
X-1148184Y-970317D1*
X-1148957Y-972817D1*
X-1149333Y-975317D1*
X-1149497Y-977817D1*
X-1149562Y-980317D1*
X-1149587Y-982817D1*
X-1149586Y-985317D1*
X-1149501Y-987817D1*
X-1149173Y-990317D1*
X-1148477Y-992817D1*
X-1147420Y-995317D1*
X-1145960Y-997817D1*
X-1143977Y-1000317D1*
X-1141393Y-1002817D1*
X-1138175Y-1005317D1*
X-1134600Y-1007817D1*
X-1094600Y-955317D2*
X-1090101Y-957817D1*
X-1086227Y-960317D1*
X-1083218Y-962817D1*
X-1081008Y-965317D1*
X-1079380Y-967817D1*
X-1078173Y-970317D1*
X-1077216Y-972817D1*
X-1076306Y-975317D1*
X-1075530Y-977817D1*
X-1075049Y-980317D1*
X-1074885Y-982817D1*
X-1075090Y-985317D1*
X-1075652Y-987817D1*
X-1076373Y-990317D1*
X-1077219Y-992817D1*
X-1078464Y-995317D1*
X-1080235Y-997817D1*
X-1082466Y-1000317D1*
X-1085192Y-1002817D1*
X-1088481Y-1005317D1*
X-1092100Y-1007817D1*
X-1132100Y-965317D2*
X-1134505Y-967817D1*
X-1136675Y-970317D1*
X-1138478Y-972817D1*
X-1139920Y-975317D1*
X-1140969Y-977817D1*
X-1141572Y-980317D1*
X-1141776Y-982817D1*
X-1141707Y-985317D1*
X-1140574Y-987817D1*
X-1138800Y-990317D1*
X-1136290Y-992817D1*
X-1132960Y-995317D1*
X-1128934Y-997817D1*
X-1124600Y-1000317D1*
X-1094600Y-965317D2*
X-1092110Y-967817D1*
X-1089707Y-970317D1*
X-1087624Y-972817D1*
X-1086139Y-975317D1*
X-1085295Y-977817D1*
X-1084896Y-980317D1*
X-1084808Y-982817D1*
X-1085066Y-985317D1*
X-1085756Y-987817D1*
X-1086999Y-990317D1*
X-1088757Y-992817D1*
X-1093045Y-995317D1*
X-1098523Y-997817D1*
X-1104600Y-1000317D1*
X-1149600Y-1027817D2*
Y-1030317D1*
Y-1032817D1*
Y-1035317D1*
Y-1037817D1*
Y-1040317D1*
Y-1042817D1*
Y-1045317D1*
Y-1047817D1*
Y-1050317D1*
Y-1052817D1*
X-1149590Y-1055317D1*
X-1149502Y-1057817D1*
X-1149174Y-1060317D1*
X-1148487Y-1062817D1*
X-1147508Y-1065317D1*
X-1146288Y-1067817D1*
X-1144661Y-1070317D1*
X-1142314Y-1072817D1*
X-1138964Y-1075317D1*
X-1134581Y-1077817D1*
X-1129600Y-1080317D1*
X-1074600Y-1027817D2*
Y-1030317D1*
Y-1032817D1*
Y-1035317D1*
Y-1037817D1*
Y-1040317D1*
Y-1042817D1*
Y-1045317D1*
Y-1047817D1*
X-1074610Y-1050317D1*
X-1074698Y-1052817D1*
X-1075016Y-1055317D1*
X-1075625Y-1057817D1*
X-1076354Y-1060317D1*
X-1077118Y-1062817D1*
X-1078046Y-1065317D1*
X-1079219Y-1067817D1*
X-1080822Y-1070317D1*
X-1083237Y-1072817D1*
X-1086833Y-1075317D1*
X-1091652Y-1077817D1*
X-1097100Y-1080317D1*
X-1142100Y-1035317D2*
Y-1037817D1*
Y-1040317D1*
Y-1042817D1*
Y-1045317D1*
Y-1047817D1*
X-1142090Y-1050317D1*
X-1142002Y-1052817D1*
X-1141674Y-1055317D1*
X-1140978Y-1057817D1*
X-1139920Y-1060317D1*
X-1138469Y-1062817D1*
X-1136584Y-1065317D1*
X-1134401Y-1067817D1*
X-1132100Y-1070317D1*
X-1084600Y-1035317D2*
Y-1037817D1*
Y-1040317D1*
Y-1042817D1*
Y-1045317D1*
Y-1047817D1*
Y-1050317D1*
X-1084610Y-1052817D1*
X-1084707Y-1055317D1*
X-1085124Y-1057817D1*
X-1086139Y-1060317D1*
X-1087795Y-1062817D1*
X-1089886Y-1065317D1*
X-1092203Y-1067817D1*
X-1094600Y-1070317D1*
X-1149600Y-1100317D2*
Y-1102817D1*
Y-1105317D1*
Y-1107817D1*
Y-1110317D1*
Y-1112817D1*
Y-1115317D1*
Y-1117817D1*
Y-1120317D1*
Y-1122817D1*
Y-1125317D1*
Y-1127817D1*
Y-1130317D1*
Y-1132817D1*
Y-1135317D1*
Y-1137817D1*
Y-1140317D1*
Y-1142817D1*
Y-1145317D1*
Y-1147817D1*
X-1074600Y-1100317D2*
Y-1102817D1*
Y-1105317D1*
Y-1107817D1*
Y-1110317D1*
Y-1112817D1*
Y-1115317D1*
Y-1117817D1*
Y-1120317D1*
Y-1122817D1*
Y-1125317D1*
Y-1127817D1*
Y-1130317D1*
Y-1132817D1*
Y-1135317D1*
Y-1137817D1*
Y-1140317D1*
Y-1142817D1*
Y-1145317D1*
Y-1147817D1*
X-1142100Y-1107817D2*
Y-1110317D1*
Y-1112817D1*
Y-1115317D1*
Y-1117817D1*
Y-1120317D1*
Y-1122817D1*
Y-1125317D1*
Y-1127817D1*
Y-1130317D1*
Y-1132817D1*
Y-1135317D1*
Y-1137817D1*
Y-1140317D1*
Y-1142817D1*
Y-1145317D1*
Y-1147817D1*
X-1117100Y-1107817D2*
Y-1110317D1*
Y-1112817D1*
Y-1115317D1*
Y-1117817D1*
Y-1120317D1*
Y-1122817D1*
Y-1125317D1*
Y-1127817D1*
Y-1130317D1*
X-1117090Y-1132817D1*
X-1116995Y-1135317D1*
X-1116609Y-1137817D1*
X-1115754Y-1140317D1*
X-1114600Y-1142817D1*
X-1107100Y-1107817D2*
Y-1110317D1*
Y-1112817D1*
Y-1115317D1*
Y-1117817D1*
Y-1120317D1*
Y-1122817D1*
Y-1125317D1*
Y-1127817D1*
Y-1130317D1*
Y-1132817D1*
Y-1135317D1*
Y-1137817D1*
Y-1140317D1*
Y-1142817D1*
X-1084600Y-1107817D2*
Y-1110317D1*
Y-1112817D1*
Y-1115317D1*
Y-1117817D1*
Y-1120317D1*
Y-1122817D1*
Y-1125317D1*
Y-1127817D1*
Y-1130317D1*
Y-1132817D1*
Y-1135317D1*
Y-1137817D1*
Y-1140317D1*
Y-1142817D1*
Y-1145317D1*
Y-1147817D1*
X-285270Y-935071D2*
Y-937571D1*
Y-940071D1*
Y-942571D1*
Y-945071D1*
Y-947571D1*
Y-950071D1*
Y-952571D1*
Y-955071D1*
Y-957571D1*
Y-960071D1*
Y-962571D1*
Y-965071D1*
Y-967571D1*
Y-970071D1*
Y-972571D1*
Y-975071D1*
Y-977571D1*
Y-980071D1*
Y-982571D1*
Y-985071D1*
Y-987571D1*
Y-990071D1*
Y-992571D1*
Y-995071D1*
Y-997571D1*
Y-1000071D1*
Y-1002571D1*
Y-1005071D1*
Y-1007571D1*
Y-1010071D1*
Y-1012571D1*
Y-1015071D1*
Y-1017571D1*
Y-1020071D1*
Y-1022571D1*
Y-1025071D1*
Y-1027571D1*
Y-1030071D1*
X-275270Y-935071D2*
Y-937571D1*
Y-940071D1*
Y-942571D1*
Y-945071D1*
Y-947571D1*
Y-950071D1*
Y-952571D1*
Y-955071D1*
Y-957571D1*
Y-960071D1*
Y-962571D1*
Y-965071D1*
Y-967571D1*
Y-970071D1*
Y-972571D1*
Y-975071D1*
Y-977571D1*
Y-980071D1*
Y-982571D1*
Y-985071D1*
Y-987571D1*
Y-990071D1*
Y-992571D1*
Y-995071D1*
Y-997571D1*
Y-1000071D1*
Y-1002571D1*
Y-1005071D1*
Y-1007571D1*
Y-1010071D1*
Y-1012571D1*
Y-1015071D1*
Y-1017571D1*
Y-1020071D1*
Y-1022571D1*
Y-1025071D1*
Y-1027571D1*
Y-1030071D1*
X184730Y-935071D2*
Y-937571D1*
Y-940071D1*
Y-942571D1*
Y-945071D1*
Y-947571D1*
Y-950071D1*
Y-952571D1*
Y-955071D1*
Y-957571D1*
Y-960071D1*
Y-962571D1*
Y-965071D1*
Y-967571D1*
Y-970071D1*
Y-972571D1*
Y-975071D1*
Y-977571D1*
Y-980071D1*
Y-982571D1*
Y-985071D1*
Y-987571D1*
Y-990071D1*
Y-992571D1*
Y-995071D1*
Y-997571D1*
Y-1000071D1*
Y-1002571D1*
Y-1005071D1*
Y-1007571D1*
Y-1010071D1*
Y-1012571D1*
Y-1015071D1*
Y-1017571D1*
Y-1020071D1*
Y-1022571D1*
Y-1025071D1*
Y-1027571D1*
Y-1030071D1*
X194730Y-935071D2*
Y-937571D1*
Y-940071D1*
Y-942571D1*
Y-945071D1*
Y-947571D1*
Y-950071D1*
Y-952571D1*
Y-955071D1*
Y-957571D1*
Y-960071D1*
Y-962571D1*
Y-965071D1*
Y-967571D1*
Y-970071D1*
Y-972571D1*
Y-975071D1*
Y-977571D1*
Y-980071D1*
Y-982571D1*
Y-985071D1*
Y-987571D1*
Y-990071D1*
Y-992571D1*
Y-995071D1*
Y-997571D1*
Y-1000071D1*
Y-1002571D1*
Y-1005071D1*
Y-1007571D1*
Y-1010071D1*
Y-1012571D1*
Y-1015071D1*
Y-1017571D1*
Y-1020071D1*
Y-1022571D1*
Y-1025071D1*
Y-1027571D1*
Y-1030071D1*
X-687770Y-945071D2*
X-687760Y-947571D1*
X-687672Y-950071D1*
X-687354Y-952571D1*
X-686745Y-955071D1*
X-686016Y-957571D1*
X-685262Y-960071D1*
X-684431Y-962571D1*
X-683674Y-965071D1*
X-683107Y-967571D1*
X-682539Y-970071D1*
X-681819Y-972571D1*
X-681044Y-975071D1*
X-680271Y-977571D1*
X-679425Y-980071D1*
X-678588Y-982571D1*
X-677788Y-985071D1*
X-676941Y-987571D1*
X-676178Y-990071D1*
X-675608Y-992571D1*
X-675040Y-995071D1*
X-674319Y-997571D1*
X-673544Y-1000071D1*
X-672771Y-1002571D1*
X-671925Y-1005071D1*
X-671088Y-1007571D1*
X-670288Y-1010071D1*
X-669440Y-1012571D1*
X-668680Y-1015071D1*
X-668159Y-1017571D1*
X-667770Y-1020071D1*
X-647770Y-945071D2*
Y-947571D1*
Y-950071D1*
Y-952571D1*
Y-955071D1*
Y-957571D1*
Y-960071D1*
Y-962571D1*
Y-965071D1*
X-632770Y-945071D2*
X-632760Y-947571D1*
X-632672Y-950071D1*
X-632354Y-952571D1*
X-631745Y-955071D1*
X-631016Y-957571D1*
X-630262Y-960071D1*
X-629431Y-962571D1*
X-628674Y-965071D1*
X-628107Y-967571D1*
X-627539Y-970071D1*
X-626819Y-972571D1*
X-626044Y-975071D1*
X-625271Y-977571D1*
X-624425Y-980071D1*
X-623588Y-982571D1*
X-622788Y-985071D1*
X-621941Y-987571D1*
X-621178Y-990071D1*
X-620608Y-992571D1*
X-620040Y-995071D1*
X-619319Y-997571D1*
X-618544Y-1000071D1*
X-617771Y-1002571D1*
X-616925Y-1005071D1*
X-616088Y-1007571D1*
X-615288Y-1010071D1*
X-614440Y-1012571D1*
X-613680Y-1015071D1*
X-613159Y-1017571D1*
X-612770Y-1020071D1*
X-592770Y-945071D2*
Y-947571D1*
Y-950071D1*
Y-952571D1*
Y-955071D1*
Y-957571D1*
Y-960071D1*
Y-962571D1*
Y-965071D1*
X-565270Y-945071D2*
X-564320Y-947571D1*
X-563246Y-950071D1*
X-562085Y-952571D1*
X-560870Y-955071D1*
X-559637Y-957571D1*
X-558391Y-960071D1*
X-557145Y-962571D1*
X-555894Y-965071D1*
X-554646Y-967571D1*
X-553394Y-970071D1*
X-552146Y-972571D1*
X-550904Y-975071D1*
X-549734Y-977571D1*
X-548722Y-980071D1*
X-547833Y-982571D1*
X-546863Y-985071D1*
X-545769Y-987571D1*
X-544587Y-990071D1*
X-543302Y-992571D1*
X-541856Y-995071D1*
X-540270Y-997571D1*
X-560270Y-1000071D1*
X-555270Y-945071D2*
X-554320Y-947571D1*
X-553246Y-950071D1*
X-552085Y-952571D1*
X-550880Y-955071D1*
X-549725Y-957571D1*
X-548719Y-960071D1*
X-547832Y-962571D1*
X-546863Y-965071D1*
X-545769Y-967571D1*
X-544595Y-970071D1*
X-543375Y-972571D1*
X-542139Y-975071D1*
X-540892Y-977571D1*
X-539645Y-980071D1*
X-538394Y-982571D1*
X-537146Y-985071D1*
X-535894Y-987571D1*
X-534646Y-990071D1*
X-533404Y-992571D1*
X-532244Y-995071D1*
X-531320Y-997571D1*
X-530759Y-1000071D1*
X-530475Y-1002571D1*
X-530345Y-1005071D1*
X-530270Y-1007571D1*
X-502770Y-945071D2*
X-506028Y-947571D1*
X-508538Y-950071D1*
X-510426Y-952571D1*
X-511953Y-955071D1*
X-513219Y-957571D1*
X-514098Y-960071D1*
X-514582Y-962571D1*
X-514093Y-965071D1*
X-513449Y-967571D1*
X-512725Y-970071D1*
X-511814Y-972571D1*
X-510667Y-975071D1*
X-509262Y-977571D1*
X-507677Y-980071D1*
X-506072Y-982571D1*
X-504352Y-985071D1*
X-502429Y-987571D1*
X-500499Y-990071D1*
X-498711Y-992571D1*
X-496908Y-995071D1*
X-494950Y-997571D1*
X-493007Y-1000071D1*
X-491214Y-1002571D1*
X-489399Y-1005071D1*
X-487354Y-1007571D1*
X-485106Y-1010071D1*
X-482770Y-1012571D1*
X-485270Y-945071D2*
X-481711Y-947571D1*
X-478823Y-950071D1*
X-476657Y-952571D1*
X-475053Y-955071D1*
X-473931Y-957571D1*
X-473250Y-960071D1*
X-472770Y-962571D1*
X-440270Y-945071D2*
X-443914Y-947571D1*
X-447035Y-950071D1*
X-449491Y-952571D1*
X-451225Y-955071D1*
X-452453Y-957571D1*
X-453485Y-960071D1*
X-454301Y-962571D1*
X-454722Y-965071D1*
X-454663Y-967571D1*
X-454170Y-970071D1*
X-453479Y-972571D1*
X-452644Y-975071D1*
X-451394Y-977571D1*
X-449556Y-980071D1*
X-447210Y-982571D1*
X-444775Y-985071D1*
X-442636Y-987571D1*
X-442119Y-990071D1*
X-442808Y-992571D1*
X-443960Y-995071D1*
X-445423Y-997571D1*
X-446896Y-1000071D1*
X-448280Y-1002571D1*
X-449599Y-1005071D1*
X-450876Y-1007571D1*
X-452139Y-1010071D1*
X-453400Y-1012571D1*
X-454718Y-1015071D1*
X-456177Y-1017571D1*
X-457770Y-1020071D1*
X-402770Y-945071D2*
Y-947571D1*
Y-950071D1*
Y-952571D1*
Y-955071D1*
Y-957571D1*
Y-960071D1*
Y-962571D1*
Y-965071D1*
Y-967571D1*
Y-970071D1*
Y-972571D1*
Y-975071D1*
Y-977571D1*
Y-980071D1*
Y-982571D1*
Y-985071D1*
Y-987571D1*
Y-990071D1*
Y-992571D1*
Y-995071D1*
Y-997571D1*
Y-1000071D1*
Y-1002571D1*
Y-1005071D1*
Y-1007571D1*
Y-1010071D1*
Y-1012571D1*
Y-1015071D1*
Y-1017571D1*
Y-1020071D1*
X-367770Y-945071D2*
X-372183Y-947571D1*
X-375825Y-950071D1*
X-378553Y-952571D1*
X-380721Y-955071D1*
X-382545Y-957571D1*
X-383876Y-960071D1*
X-384694Y-962571D1*
X-385270Y-965071D1*
X-352770Y-945071D2*
X-347972Y-947571D1*
X-344124Y-950071D1*
X-341225Y-952571D1*
X-339099Y-955071D1*
X-337526Y-957571D1*
X-336418Y-960071D1*
X-335700Y-962571D1*
X-335073Y-965071D1*
X-334340Y-967571D1*
X-333645Y-970071D1*
X-333189Y-972571D1*
X-332950Y-975071D1*
X-332841Y-977571D1*
X-332797Y-980071D1*
X-332780Y-982571D1*
X-332773Y-985071D1*
X-332781Y-987571D1*
X-332868Y-990071D1*
X-333186Y-992571D1*
X-333785Y-995071D1*
X-334436Y-997571D1*
X-334960Y-1000071D1*
X-335520Y-1002571D1*
X-336322Y-1005071D1*
X-337423Y-1007571D1*
X-338911Y-1010071D1*
X-340995Y-1012571D1*
X-343968Y-1015071D1*
X-348040Y-1017571D1*
X-352770Y-1020071D1*
X-212770Y-945071D2*
X-216414Y-947571D1*
X-219535Y-950071D1*
X-221982Y-952571D1*
X-223902Y-955071D1*
X-224606Y-957571D1*
X-224987Y-960071D1*
X-225159Y-962571D1*
X-225229Y-965071D1*
X-225256Y-967571D1*
X-225265Y-970071D1*
X-225268Y-972571D1*
X-225269Y-975071D1*
X-225270Y-977571D1*
Y-980071D1*
Y-982571D1*
Y-985071D1*
Y-987571D1*
Y-990071D1*
Y-992571D1*
Y-995071D1*
Y-997571D1*
Y-1000071D1*
X-225260Y-1002571D1*
X-225163Y-1005071D1*
X-224746Y-1007571D1*
X-223722Y-1010071D1*
X-221970Y-1012571D1*
X-219493Y-1015071D1*
X-216321Y-1017571D1*
X-212770Y-1020071D1*
X-197770Y-945071D2*
X-194126Y-947571D1*
X-191005Y-950071D1*
X-188558Y-952571D1*
X-186638Y-955071D1*
X-185839Y-957571D1*
X-185137Y-960071D1*
X-184366Y-962571D1*
X-183655Y-965071D1*
X-183192Y-967571D1*
X-182951Y-970071D1*
X-182842Y-972571D1*
X-182797Y-975071D1*
X-182780Y-977571D1*
X-182773Y-980071D1*
X-182771Y-982571D1*
X-182770Y-985071D1*
Y-987571D1*
Y-990071D1*
X-182780Y-992571D1*
X-182868Y-995071D1*
X-183186Y-997571D1*
X-183785Y-1000071D1*
X-184436Y-1002571D1*
X-184969Y-1005071D1*
X-185618Y-1007571D1*
X-186748Y-1010071D1*
X-188543Y-1012571D1*
X-191038Y-1015071D1*
X-194216Y-1017571D1*
X-197770Y-1020071D1*
X-162770Y-945071D2*
Y-947571D1*
Y-950071D1*
Y-952571D1*
Y-955071D1*
X-135270D1*
Y-957571D1*
Y-960071D1*
X-135280Y-962571D1*
X-135375Y-965071D1*
X-135761Y-967571D1*
X-136616Y-970071D1*
X-137770Y-972571D1*
X-125270Y-945071D2*
Y-947571D1*
Y-950071D1*
Y-952571D1*
Y-955071D1*
Y-957571D1*
Y-960071D1*
Y-962571D1*
Y-965071D1*
Y-967571D1*
Y-970071D1*
Y-972571D1*
Y-975071D1*
Y-977571D1*
Y-980071D1*
Y-982571D1*
Y-985071D1*
X-95270Y-945071D2*
X-94320Y-947571D1*
X-93246Y-950071D1*
X-92085Y-952571D1*
X-90870Y-955071D1*
X-89637Y-957571D1*
X-88391Y-960071D1*
X-87145Y-962571D1*
X-85894Y-965071D1*
X-84646Y-967571D1*
X-83394Y-970071D1*
X-82146Y-972571D1*
X-80904Y-975071D1*
X-79734Y-977571D1*
X-78722Y-980071D1*
X-77833Y-982571D1*
X-76863Y-985071D1*
X-75769Y-987571D1*
X-74587Y-990071D1*
X-73302Y-992571D1*
X-71856Y-995071D1*
X-70270Y-997571D1*
X-90270Y-1000071D1*
X-85270Y-945071D2*
X-84320Y-947571D1*
X-83246Y-950071D1*
X-82085Y-952571D1*
X-80880Y-955071D1*
X-79725Y-957571D1*
X-78719Y-960071D1*
X-77832Y-962571D1*
X-76863Y-965071D1*
X-75769Y-967571D1*
X-74595Y-970071D1*
X-73375Y-972571D1*
X-72139Y-975071D1*
X-70892Y-977571D1*
X-69645Y-980071D1*
X-68394Y-982571D1*
X-67146Y-985071D1*
X-65894Y-987571D1*
X-64646Y-990071D1*
X-63404Y-992571D1*
X-62244Y-995071D1*
X-61320Y-997571D1*
X-60759Y-1000071D1*
X-60475Y-1002571D1*
X-60345Y-1005071D1*
X-60270Y-1007571D1*
X-32770Y-945071D2*
X-36028Y-947571D1*
X-38538Y-950071D1*
X-40426Y-952571D1*
X-41953Y-955071D1*
X-43219Y-957571D1*
X-44098Y-960071D1*
X-44582Y-962571D1*
X-44093Y-965071D1*
X-43449Y-967571D1*
X-42725Y-970071D1*
X-41814Y-972571D1*
X-40667Y-975071D1*
X-39262Y-977571D1*
X-37677Y-980071D1*
X-36072Y-982571D1*
X-34352Y-985071D1*
X-32429Y-987571D1*
X-30499Y-990071D1*
X-28711Y-992571D1*
X-26908Y-995071D1*
X-24950Y-997571D1*
X-23007Y-1000071D1*
X-21214Y-1002571D1*
X-19399Y-1005071D1*
X-17354Y-1007571D1*
X-15106Y-1010071D1*
X-12770Y-1012571D1*
X-15270Y-945071D2*
X-11711Y-947571D1*
X-8823Y-950071D1*
X-6657Y-952571D1*
X-5053Y-955071D1*
X-3931Y-957571D1*
X-3250Y-960071D1*
X-2770Y-962571D1*
X29730Y-945071D2*
X26086Y-947571D1*
X22965Y-950071D1*
X20509Y-952571D1*
X18775Y-955071D1*
X17547Y-957571D1*
X16515Y-960071D1*
X15699Y-962571D1*
X15278Y-965071D1*
X15337Y-967571D1*
X15830Y-970071D1*
X16521Y-972571D1*
X17356Y-975071D1*
X18606Y-977571D1*
X20444Y-980071D1*
X22790Y-982571D1*
X25225Y-985071D1*
X27364Y-987571D1*
X27881Y-990071D1*
X27192Y-992571D1*
X26040Y-995071D1*
X24577Y-997571D1*
X23104Y-1000071D1*
X21720Y-1002571D1*
X20401Y-1005071D1*
X19124Y-1007571D1*
X17861Y-1010071D1*
X16600Y-1012571D1*
X15282Y-1015071D1*
X13823Y-1017571D1*
X12230Y-1020071D1*
X67230Y-945071D2*
Y-947571D1*
Y-950071D1*
Y-952571D1*
Y-955071D1*
Y-957571D1*
Y-960071D1*
Y-962571D1*
Y-965071D1*
Y-967571D1*
Y-970071D1*
Y-972571D1*
Y-975071D1*
Y-977571D1*
Y-980071D1*
Y-982571D1*
Y-985071D1*
Y-987571D1*
Y-990071D1*
Y-992571D1*
Y-995071D1*
Y-997571D1*
Y-1000071D1*
Y-1002571D1*
Y-1005071D1*
Y-1007571D1*
Y-1010071D1*
Y-1012571D1*
Y-1015071D1*
Y-1017571D1*
Y-1020071D1*
X102230Y-945071D2*
X97817Y-947571D1*
X94175Y-950071D1*
X91447Y-952571D1*
X89279Y-955071D1*
X87455Y-957571D1*
X86124Y-960071D1*
X85306Y-962571D1*
X84730Y-965071D1*
X117230Y-945071D2*
X122028Y-947571D1*
X125876Y-950071D1*
X128775Y-952571D1*
X130901Y-955071D1*
X132474Y-957571D1*
X133582Y-960071D1*
X134300Y-962571D1*
X134927Y-965071D1*
X135660Y-967571D1*
X136355Y-970071D1*
X136811Y-972571D1*
X137050Y-975071D1*
X137159Y-977571D1*
X137203Y-980071D1*
X137220Y-982571D1*
X137227Y-985071D1*
X137219Y-987571D1*
X137132Y-990071D1*
X136814Y-992571D1*
X136215Y-995071D1*
X135564Y-997571D1*
X135040Y-1000071D1*
X134480Y-1002571D1*
X133678Y-1005071D1*
X132577Y-1007571D1*
X131089Y-1010071D1*
X129005Y-1012571D1*
X126032Y-1015071D1*
X121960Y-1017571D1*
X117230Y-1020071D1*
X257230Y-945071D2*
X253586Y-947571D1*
X250465Y-950071D1*
X248018Y-952571D1*
X246098Y-955071D1*
X245394Y-957571D1*
X245013Y-960071D1*
X244841Y-962571D1*
X244771Y-965071D1*
X244744Y-967571D1*
X244735Y-970071D1*
X244732Y-972571D1*
X244731Y-975071D1*
X244730Y-977571D1*
Y-980071D1*
Y-982571D1*
Y-985071D1*
Y-987571D1*
Y-990071D1*
Y-992571D1*
Y-995071D1*
Y-997571D1*
Y-1000071D1*
X244740Y-1002571D1*
X244837Y-1005071D1*
X245254Y-1007571D1*
X246278Y-1010071D1*
X248030Y-1012571D1*
X250507Y-1015071D1*
X253679Y-1017571D1*
X257230Y-1020071D1*
X272230Y-945071D2*
X275874Y-947571D1*
X278995Y-950071D1*
X281442Y-952571D1*
X283362Y-955071D1*
X284161Y-957571D1*
X284863Y-960071D1*
X285634Y-962571D1*
X286345Y-965071D1*
X286808Y-967571D1*
X287049Y-970071D1*
X287158Y-972571D1*
X287203Y-975071D1*
X287220Y-977571D1*
X287227Y-980071D1*
X287229Y-982571D1*
X287230Y-985071D1*
Y-987571D1*
Y-990071D1*
X287220Y-992571D1*
X287132Y-995071D1*
X286814Y-997571D1*
X286215Y-1000071D1*
X285564Y-1002571D1*
X285031Y-1005071D1*
X284382Y-1007571D1*
X283252Y-1010071D1*
X281457Y-1012571D1*
X278962Y-1015071D1*
X275784Y-1017571D1*
X272230Y-1020071D1*
X317230Y-945071D2*
X313586Y-947571D1*
X310465Y-950071D1*
X308018Y-952571D1*
X306098Y-955071D1*
X305394Y-957571D1*
X305013Y-960071D1*
X304851Y-962571D1*
X304869Y-965071D1*
X305170Y-967571D1*
X305867Y-970071D1*
X307016Y-972571D1*
X308845Y-975071D1*
X311543Y-977571D1*
X314730Y-980071D1*
X311771Y-982571D1*
X309235Y-985071D1*
X307237Y-987571D1*
X305626Y-990071D1*
X304305Y-992571D1*
X303317Y-995071D1*
X302742Y-997571D1*
X302538Y-1000071D1*
X302738Y-1002571D1*
X303373Y-1005071D1*
X304333Y-1007571D1*
X305556Y-1010071D1*
X307257Y-1012571D1*
X309813Y-1015071D1*
X313300Y-1017571D1*
X317230Y-1020071D1*
X332230Y-945071D2*
X335789Y-947571D1*
X338677Y-950071D1*
X340843Y-952571D1*
X342447Y-955071D1*
X343569Y-957571D1*
X344250Y-960071D1*
X344730Y-962571D1*
X372230Y-945071D2*
X373180Y-947571D1*
X374254Y-950071D1*
X375415Y-952571D1*
X376630Y-955071D1*
X377863Y-957571D1*
X379109Y-960071D1*
X380355Y-962571D1*
X381606Y-965071D1*
X382854Y-967571D1*
X384106Y-970071D1*
X385354Y-972571D1*
X386596Y-975071D1*
X387766Y-977571D1*
X388778Y-980071D1*
X389667Y-982571D1*
X390637Y-985071D1*
X391731Y-987571D1*
X392913Y-990071D1*
X394198Y-992571D1*
X395644Y-995071D1*
X397230Y-997571D1*
X377230Y-1000071D1*
X382230Y-945071D2*
X383180Y-947571D1*
X384254Y-950071D1*
X385415Y-952571D1*
X386620Y-955071D1*
X387775Y-957571D1*
X388781Y-960071D1*
X389668Y-962571D1*
X390637Y-965071D1*
X391731Y-967571D1*
X392905Y-970071D1*
X394125Y-972571D1*
X395361Y-975071D1*
X396608Y-977571D1*
X397855Y-980071D1*
X399106Y-982571D1*
X400354Y-985071D1*
X401606Y-987571D1*
X402854Y-990071D1*
X404096Y-992571D1*
X405256Y-995071D1*
X406180Y-997571D1*
X406741Y-1000071D1*
X407025Y-1002571D1*
X407155Y-1005071D1*
X407230Y-1007571D1*
X434730Y-945071D2*
X431472Y-947571D1*
X428962Y-950071D1*
X427074Y-952571D1*
X425547Y-955071D1*
X424281Y-957571D1*
X423402Y-960071D1*
X422918Y-962571D1*
X423407Y-965071D1*
X424051Y-967571D1*
X424775Y-970071D1*
X425686Y-972571D1*
X426833Y-975071D1*
X428238Y-977571D1*
X429823Y-980071D1*
X431428Y-982571D1*
X433148Y-985071D1*
X435071Y-987571D1*
X437001Y-990071D1*
X438789Y-992571D1*
X440592Y-995071D1*
X442550Y-997571D1*
X444493Y-1000071D1*
X446286Y-1002571D1*
X448101Y-1005071D1*
X450146Y-1007571D1*
X452394Y-1010071D1*
X454730Y-1012571D1*
X452230Y-945071D2*
X455789Y-947571D1*
X458677Y-950071D1*
X460843Y-952571D1*
X462447Y-955071D1*
X463569Y-957571D1*
X464250Y-960071D1*
X464730Y-962571D1*
X497230Y-945071D2*
X493586Y-947571D1*
X490465Y-950071D1*
X488009Y-952571D1*
X486275Y-955071D1*
X485047Y-957571D1*
X484015Y-960071D1*
X483199Y-962571D1*
X482778Y-965071D1*
X482837Y-967571D1*
X483330Y-970071D1*
X484021Y-972571D1*
X484856Y-975071D1*
X486106Y-977571D1*
X487944Y-980071D1*
X490290Y-982571D1*
X492725Y-985071D1*
X494864Y-987571D1*
X495381Y-990071D1*
X494692Y-992571D1*
X493540Y-995071D1*
X492077Y-997571D1*
X490604Y-1000071D1*
X489220Y-1002571D1*
X487901Y-1005071D1*
X486624Y-1007571D1*
X485361Y-1010071D1*
X484100Y-1012571D1*
X482782Y-1015071D1*
X481323Y-1017571D1*
X479730Y-1020071D1*
X534730Y-945071D2*
Y-947571D1*
Y-950071D1*
Y-952571D1*
Y-955071D1*
Y-957571D1*
Y-960071D1*
Y-962571D1*
Y-965071D1*
Y-967571D1*
Y-970071D1*
Y-972571D1*
Y-975071D1*
Y-977571D1*
Y-980071D1*
Y-982571D1*
Y-985071D1*
Y-987571D1*
Y-990071D1*
Y-992571D1*
Y-995071D1*
Y-997571D1*
Y-1000071D1*
Y-1002571D1*
Y-1005071D1*
Y-1007571D1*
Y-1010071D1*
Y-1012571D1*
Y-1015071D1*
Y-1017571D1*
Y-1020071D1*
X569730Y-945071D2*
X565317Y-947571D1*
X561675Y-950071D1*
X558947Y-952571D1*
X556779Y-955071D1*
X554955Y-957571D1*
X553624Y-960071D1*
X552806Y-962571D1*
X552230Y-965071D1*
X584730Y-945071D2*
X589528Y-947571D1*
X593376Y-950071D1*
X596275Y-952571D1*
X598401Y-955071D1*
X599974Y-957571D1*
X601082Y-960071D1*
X601800Y-962571D1*
X602427Y-965071D1*
X603160Y-967571D1*
X603855Y-970071D1*
X604311Y-972571D1*
X604550Y-975071D1*
X604659Y-977571D1*
X604703Y-980071D1*
X604720Y-982571D1*
X604727Y-985071D1*
X604719Y-987571D1*
X604632Y-990071D1*
X604314Y-992571D1*
X603715Y-995071D1*
X603064Y-997571D1*
X602540Y-1000071D1*
X601980Y-1002571D1*
X601178Y-1005071D1*
X600077Y-1007571D1*
X598589Y-1010071D1*
X596505Y-1012571D1*
X593532Y-1015071D1*
X589460Y-1017571D1*
X584730Y-1020071D1*
X-677770Y-952571D2*
X-677384Y-955071D1*
X-676754Y-957571D1*
X-676019Y-960071D1*
X-675262Y-962571D1*
X-674422Y-965071D1*
X-673587Y-967571D1*
X-672788Y-970071D1*
X-671941Y-972571D1*
X-671178Y-975071D1*
X-670608Y-977571D1*
X-670040Y-980071D1*
X-669319Y-982571D1*
X-668544Y-985071D1*
X-667771Y-987571D1*
X-666925Y-990071D1*
X-666088Y-992571D1*
X-665288Y-995071D1*
X-664441Y-997571D1*
X-663678Y-1000071D1*
X-663108Y-1002571D1*
X-662540Y-1005071D1*
X-661819Y-1007571D1*
X-661044Y-1010071D1*
X-660270Y-1012571D1*
X-659411Y-1015071D1*
X-658554Y-1017571D1*
X-657770Y-1020071D1*
X-655270Y-952571D2*
Y-955071D1*
Y-957571D1*
Y-960071D1*
Y-962571D1*
Y-965071D1*
X-622770Y-952571D2*
X-622384Y-955071D1*
X-621754Y-957571D1*
X-621019Y-960071D1*
X-620262Y-962571D1*
X-619422Y-965071D1*
X-618587Y-967571D1*
X-617788Y-970071D1*
X-616941Y-972571D1*
X-616178Y-975071D1*
X-615608Y-977571D1*
X-615040Y-980071D1*
X-614319Y-982571D1*
X-613544Y-985071D1*
X-612771Y-987571D1*
X-611925Y-990071D1*
X-611088Y-992571D1*
X-610288Y-995071D1*
X-609441Y-997571D1*
X-608678Y-1000071D1*
X-608108Y-1002571D1*
X-607540Y-1005071D1*
X-606819Y-1007571D1*
X-606044Y-1010071D1*
X-605270Y-1012571D1*
X-604411Y-1015071D1*
X-603554Y-1017571D1*
X-602770Y-1020071D1*
X-600270Y-952571D2*
Y-955071D1*
Y-957571D1*
Y-960071D1*
Y-962571D1*
Y-965071D1*
X-492770Y-952571D2*
X-497174Y-955071D1*
X-500718Y-957571D1*
X-503443Y-960071D1*
X-504515Y-962571D1*
X-504528Y-965071D1*
X-504027Y-967571D1*
X-503138Y-970071D1*
X-502038Y-972571D1*
X-500760Y-975071D1*
X-499217Y-977571D1*
X-497375Y-980071D1*
X-495479Y-982571D1*
X-493704Y-985071D1*
X-491896Y-987571D1*
X-489861Y-990071D1*
X-487688Y-992571D1*
X-485615Y-995071D1*
X-483758Y-997571D1*
X-481926Y-1000071D1*
X-479956Y-1002571D1*
X-478019Y-1005071D1*
X-476322Y-1007571D1*
X-474923Y-1010071D1*
X-473891Y-1012571D1*
X-473283Y-1015071D1*
X-472968Y-1017571D1*
X-472770Y-1020071D1*
X-492770Y-952571D2*
X-488649Y-955071D1*
X-485319Y-957571D1*
X-482675Y-960071D1*
X-480270Y-962571D1*
X-432770Y-952571D2*
X-436883Y-955071D1*
X-440127Y-957571D1*
X-442401Y-960071D1*
X-444105Y-962571D1*
X-444609Y-965071D1*
X-444797Y-967571D1*
X-444171Y-970071D1*
X-442495Y-972571D1*
X-435910Y-975071D1*
X-424614Y-977571D1*
X-410270Y-980071D1*
X-412770Y-952571D2*
Y-955071D1*
Y-957571D1*
Y-960071D1*
Y-962571D1*
Y-965071D1*
Y-967571D1*
Y-970071D1*
Y-972571D1*
Y-975071D1*
Y-977571D1*
X-435270Y-980071D1*
X-360270Y-952571D2*
X-364769Y-955071D1*
X-368636Y-957571D1*
X-371589Y-960071D1*
X-373660Y-962571D1*
X-375270Y-965071D1*
X-360270Y-952571D2*
X-355771Y-955071D1*
X-351897Y-957571D1*
X-348888Y-960071D1*
X-346678Y-962571D1*
X-345060Y-965071D1*
X-343941Y-967571D1*
X-343303Y-970071D1*
X-342991Y-972571D1*
X-342856Y-975071D1*
X-342802Y-977571D1*
X-342781Y-980071D1*
X-342774Y-982571D1*
X-342771Y-985071D1*
X-342770Y-987571D1*
X-342780Y-990071D1*
X-342868Y-992571D1*
X-343196Y-995071D1*
X-343892Y-997571D1*
X-344959Y-1000071D1*
X-346537Y-1002571D1*
X-348627Y-1005071D1*
X-353364Y-1007571D1*
X-359983Y-1010071D1*
X-367770Y-1012571D1*
X-205270Y-952571D2*
X-209674Y-955071D1*
X-213218Y-957571D1*
X-215943Y-960071D1*
X-216890Y-962571D1*
X-217398Y-965071D1*
X-217625Y-967571D1*
X-217717Y-970071D1*
X-217751Y-972571D1*
X-217764Y-975071D1*
X-217768Y-977571D1*
X-217769Y-980071D1*
X-217770Y-982571D1*
Y-985071D1*
Y-987571D1*
Y-990071D1*
Y-992571D1*
Y-995071D1*
X-217760Y-997571D1*
X-217653Y-1000071D1*
X-217389Y-1002571D1*
X-216007Y-1005071D1*
X-211728Y-1007571D1*
X-205378Y-1010071D1*
X-197770Y-1012571D1*
X-205270Y-952571D2*
X-200866Y-955071D1*
X-197322Y-957571D1*
X-194597Y-960071D1*
X-193650Y-962571D1*
X-193142Y-965071D1*
X-192915Y-967571D1*
X-192823Y-970071D1*
X-192789Y-972571D1*
X-192776Y-975071D1*
X-192772Y-977571D1*
X-192771Y-980071D1*
X-192770Y-982571D1*
Y-985071D1*
Y-987571D1*
Y-990071D1*
Y-992571D1*
Y-995071D1*
X-192780Y-997571D1*
X-192887Y-1000071D1*
X-193151Y-1002571D1*
X-194533Y-1005071D1*
X-198812Y-1007571D1*
X-205162Y-1010071D1*
X-212770Y-1012571D1*
X-22770Y-952571D2*
X-27174Y-955071D1*
X-30718Y-957571D1*
X-33443Y-960071D1*
X-34515Y-962571D1*
X-34528Y-965071D1*
X-34027Y-967571D1*
X-33138Y-970071D1*
X-32038Y-972571D1*
X-30760Y-975071D1*
X-29217Y-977571D1*
X-27375Y-980071D1*
X-25479Y-982571D1*
X-23704Y-985071D1*
X-21896Y-987571D1*
X-19861Y-990071D1*
X-17688Y-992571D1*
X-15615Y-995071D1*
X-13758Y-997571D1*
X-11926Y-1000071D1*
X-9956Y-1002571D1*
X-8019Y-1005071D1*
X-6322Y-1007571D1*
X-4923Y-1010071D1*
X-3891Y-1012571D1*
X-3283Y-1015071D1*
X-2968Y-1017571D1*
X-2770Y-1020071D1*
X-22770Y-952571D2*
X-18649Y-955071D1*
X-15319Y-957571D1*
X-12675Y-960071D1*
X-10270Y-962571D1*
X37230Y-952571D2*
X33117Y-955071D1*
X29873Y-957571D1*
X27599Y-960071D1*
X25895Y-962571D1*
X25391Y-965071D1*
X25203Y-967571D1*
X25829Y-970071D1*
X27505Y-972571D1*
X34090Y-975071D1*
X45386Y-977571D1*
X59730Y-980071D1*
X57230Y-952571D2*
Y-955071D1*
Y-957571D1*
Y-960071D1*
Y-962571D1*
Y-965071D1*
Y-967571D1*
Y-970071D1*
Y-972571D1*
Y-975071D1*
Y-977571D1*
X34730Y-980071D1*
X109730Y-952571D2*
X105231Y-955071D1*
X101364Y-957571D1*
X98411Y-960071D1*
X96340Y-962571D1*
X94730Y-965071D1*
X109730Y-952571D2*
X114229Y-955071D1*
X118103Y-957571D1*
X121112Y-960071D1*
X123322Y-962571D1*
X124940Y-965071D1*
X126059Y-967571D1*
X126697Y-970071D1*
X127009Y-972571D1*
X127144Y-975071D1*
X127198Y-977571D1*
X127219Y-980071D1*
X127226Y-982571D1*
X127229Y-985071D1*
X127230Y-987571D1*
X127220Y-990071D1*
X127132Y-992571D1*
X126804Y-995071D1*
X126108Y-997571D1*
X125041Y-1000071D1*
X123463Y-1002571D1*
X121373Y-1005071D1*
X116636Y-1007571D1*
X110017Y-1010071D1*
X102230Y-1012571D1*
X264730Y-952571D2*
X260326Y-955071D1*
X256782Y-957571D1*
X254057Y-960071D1*
X253110Y-962571D1*
X252602Y-965071D1*
X252375Y-967571D1*
X252283Y-970071D1*
X252249Y-972571D1*
X252236Y-975071D1*
X252232Y-977571D1*
X252231Y-980071D1*
X252230Y-982571D1*
Y-985071D1*
Y-987571D1*
Y-990071D1*
Y-992571D1*
Y-995071D1*
X252240Y-997571D1*
X252347Y-1000071D1*
X252611Y-1002571D1*
X253993Y-1005071D1*
X258272Y-1007571D1*
X264622Y-1010071D1*
X272230Y-1012571D1*
X264730Y-952571D2*
X269134Y-955071D1*
X272678Y-957571D1*
X275403Y-960071D1*
X276350Y-962571D1*
X276858Y-965071D1*
X277085Y-967571D1*
X277177Y-970071D1*
X277211Y-972571D1*
X277224Y-975071D1*
X277228Y-977571D1*
X277229Y-980071D1*
X277230Y-982571D1*
Y-985071D1*
Y-987571D1*
Y-990071D1*
Y-992571D1*
Y-995071D1*
X277220Y-997571D1*
X277113Y-1000071D1*
X276849Y-1002571D1*
X275467Y-1005071D1*
X271188Y-1007571D1*
X264838Y-1010071D1*
X257230Y-1012571D1*
X324730Y-952571D2*
X320617Y-955071D1*
X317373Y-957571D1*
X315109Y-960071D1*
X313434Y-962571D1*
X312997Y-965071D1*
X313652Y-967571D1*
X314731Y-970071D1*
X317542Y-972571D1*
X320900Y-975071D1*
X324185Y-977571D1*
X325814Y-980071D1*
X326332Y-982571D1*
X322894Y-985071D1*
X319231Y-987571D1*
X316202Y-990071D1*
X313843Y-992571D1*
X313008Y-995071D1*
X312569Y-997571D1*
X312476Y-1000071D1*
X312637Y-1002571D1*
X314001Y-1005071D1*
X318275Y-1007571D1*
X324623Y-1010071D1*
X332230Y-1012571D1*
X327230Y-952571D2*
X329730Y-955071D1*
X332230Y-957571D1*
X334730Y-960071D1*
X337230Y-962571D1*
X444730Y-952571D2*
X440326Y-955071D1*
X436782Y-957571D1*
X434057Y-960071D1*
X432985Y-962571D1*
X432972Y-965071D1*
X433473Y-967571D1*
X434362Y-970071D1*
X435462Y-972571D1*
X436740Y-975071D1*
X438283Y-977571D1*
X440125Y-980071D1*
X442021Y-982571D1*
X443796Y-985071D1*
X445604Y-987571D1*
X447639Y-990071D1*
X449812Y-992571D1*
X451885Y-995071D1*
X453742Y-997571D1*
X455574Y-1000071D1*
X457544Y-1002571D1*
X459481Y-1005071D1*
X461178Y-1007571D1*
X462577Y-1010071D1*
X463609Y-1012571D1*
X464217Y-1015071D1*
X464532Y-1017571D1*
X464730Y-1020071D1*
X444730Y-952571D2*
X448851Y-955071D1*
X452181Y-957571D1*
X454825Y-960071D1*
X457230Y-962571D1*
X504730Y-952571D2*
X500617Y-955071D1*
X497373Y-957571D1*
X495099Y-960071D1*
X493395Y-962571D1*
X492891Y-965071D1*
X492703Y-967571D1*
X493329Y-970071D1*
X495005Y-972571D1*
X501590Y-975071D1*
X512886Y-977571D1*
X527230Y-980071D1*
X524730Y-952571D2*
Y-955071D1*
Y-957571D1*
Y-960071D1*
Y-962571D1*
Y-965071D1*
Y-967571D1*
Y-970071D1*
Y-972571D1*
Y-975071D1*
Y-977571D1*
X502230Y-980071D1*
X577230Y-952571D2*
X572731Y-955071D1*
X568864Y-957571D1*
X565911Y-960071D1*
X563840Y-962571D1*
X562230Y-965071D1*
X577230Y-952571D2*
X581729Y-955071D1*
X585603Y-957571D1*
X588612Y-960071D1*
X590822Y-962571D1*
X592440Y-965071D1*
X593559Y-967571D1*
X594197Y-970071D1*
X594509Y-972571D1*
X594644Y-975071D1*
X594698Y-977571D1*
X594719Y-980071D1*
X594726Y-982571D1*
X594729Y-985071D1*
X594730Y-987571D1*
X594720Y-990071D1*
X594632Y-992571D1*
X594304Y-995071D1*
X593608Y-997571D1*
X592541Y-1000071D1*
X590963Y-1002571D1*
X588873Y-1005071D1*
X584136Y-1007571D1*
X577517Y-1010071D1*
X569730Y-1012571D1*
X-152770Y-970071D2*
X-156329Y-972571D1*
X-159217Y-975071D1*
X-161383Y-977571D1*
X-162987Y-980071D1*
X-164101Y-982571D1*
X-164738Y-985071D1*
X-165049Y-987571D1*
X-165184Y-990071D1*
X-165238Y-992571D1*
X-165259Y-995071D1*
X-165266Y-997571D1*
X-165259Y-1000071D1*
X-165172Y-1002571D1*
X-164844Y-1005071D1*
X-164148Y-1007571D1*
X-163081Y-1010071D1*
X-161534Y-1012571D1*
X-159262Y-1015071D1*
X-156225Y-1017571D1*
X-152770Y-1020071D1*
X-140270Y-970071D2*
X-137770Y-972571D1*
X-572770Y-975071D2*
Y-977571D1*
Y-980071D1*
Y-982571D1*
Y-985071D1*
Y-987571D1*
X-572790Y-990071D1*
X-572965Y-992571D1*
X-573375Y-995071D1*
X-574743Y-997571D1*
X-576048Y-1000071D1*
X-577030Y-1002571D1*
X-576913Y-1005071D1*
X-575682Y-1007571D1*
X-574426Y-1010071D1*
X-573572Y-1012571D1*
X-573116Y-1015071D1*
X-572899Y-1017571D1*
X-572770Y-1020071D1*
X-565270Y-975071D2*
Y-977571D1*
Y-980071D1*
Y-982571D1*
Y-985071D1*
Y-987571D1*
Y-990071D1*
Y-992571D1*
Y-995071D1*
Y-997571D1*
X-542770Y-1000071D1*
X-102770Y-975071D2*
Y-977571D1*
Y-980071D1*
Y-982571D1*
Y-985071D1*
Y-987571D1*
Y-990071D1*
Y-992571D1*
Y-995071D1*
Y-997571D1*
Y-1000071D1*
X-107770D1*
Y-1002571D1*
Y-1005071D1*
Y-1007571D1*
Y-1010071D1*
X-102770D1*
Y-1012571D1*
Y-1015071D1*
Y-1017571D1*
Y-1020071D1*
X-95270Y-975071D2*
Y-977571D1*
Y-980071D1*
Y-982571D1*
Y-985071D1*
Y-987571D1*
Y-990071D1*
Y-992571D1*
Y-995071D1*
Y-997571D1*
X-72770Y-1000071D1*
X364730Y-975071D2*
Y-977571D1*
Y-980071D1*
Y-982571D1*
Y-985071D1*
Y-987571D1*
X364710Y-990071D1*
X364535Y-992571D1*
X364125Y-995071D1*
X362757Y-997571D1*
X361452Y-1000071D1*
X360470Y-1002571D1*
X360587Y-1005071D1*
X361818Y-1007571D1*
X363074Y-1010071D1*
X363928Y-1012571D1*
X364384Y-1015071D1*
X364601Y-1017571D1*
X364730Y-1020071D1*
X372230Y-975071D2*
Y-977571D1*
Y-980071D1*
Y-982571D1*
Y-985071D1*
Y-987571D1*
Y-990071D1*
Y-992571D1*
Y-995071D1*
Y-997571D1*
X394730Y-1000071D1*
X-147770Y-977571D2*
X-150175Y-980071D1*
X-152345Y-982571D1*
X-154148Y-985071D1*
X-155590Y-987571D1*
X-156639Y-990071D1*
X-157242Y-992571D1*
X-157456Y-995071D1*
X-157260Y-997571D1*
X-156616Y-1000071D1*
X-155550Y-1002571D1*
X-154178Y-1005071D1*
X-150868Y-1007571D1*
X-146055Y-1010071D1*
X-140270Y-1012571D1*
X-145270Y-977571D2*
X-140730Y-980071D1*
X-136607Y-982571D1*
X-132770Y-985071D1*
X-427770Y-987571D2*
X-429874Y-990071D1*
X-431666Y-992571D1*
X-433191Y-995071D1*
X-434566Y-997571D1*
X-435864Y-1000071D1*
X-437135Y-1002571D1*
X-438390Y-1005071D1*
X-439645Y-1007571D1*
X-440894Y-1010071D1*
X-442138Y-1012571D1*
X-443321Y-1015071D1*
X-444363Y-1017571D1*
X-445270Y-1020071D1*
X-412770Y-987571D2*
Y-990071D1*
Y-992571D1*
Y-995071D1*
Y-997571D1*
Y-1000071D1*
Y-1002571D1*
Y-1005071D1*
Y-1007571D1*
Y-1010071D1*
Y-1012571D1*
Y-1015071D1*
Y-1017571D1*
Y-1020071D1*
X42230Y-987571D2*
X40126Y-990071D1*
X38334Y-992571D1*
X36809Y-995071D1*
X35434Y-997571D1*
X34136Y-1000071D1*
X32865Y-1002571D1*
X31610Y-1005071D1*
X30355Y-1007571D1*
X29106Y-1010071D1*
X27862Y-1012571D1*
X26679Y-1015071D1*
X25637Y-1017571D1*
X24730Y-1020071D1*
X57230Y-987571D2*
Y-990071D1*
Y-992571D1*
Y-995071D1*
Y-997571D1*
Y-1000071D1*
Y-1002571D1*
Y-1005071D1*
Y-1007571D1*
Y-1010071D1*
Y-1012571D1*
Y-1015071D1*
Y-1017571D1*
Y-1020071D1*
X509730Y-987571D2*
X507626Y-990071D1*
X505834Y-992571D1*
X504309Y-995071D1*
X502934Y-997571D1*
X501636Y-1000071D1*
X500365Y-1002571D1*
X499110Y-1005071D1*
X497855Y-1007571D1*
X496606Y-1010071D1*
X495362Y-1012571D1*
X494179Y-1015071D1*
X493137Y-1017571D1*
X492230Y-1020071D1*
X524730Y-987571D2*
Y-990071D1*
Y-992571D1*
Y-995071D1*
Y-997571D1*
Y-1000071D1*
Y-1002571D1*
Y-1005071D1*
Y-1007571D1*
Y-1010071D1*
Y-1012571D1*
Y-1015071D1*
Y-1017571D1*
Y-1020071D1*
X-385270Y-1000071D2*
X-384788Y-1002571D1*
X-383838Y-1005071D1*
X-382485Y-1007571D1*
X-380892Y-1010071D1*
X-378793Y-1012571D1*
X-375794Y-1015071D1*
X-371967Y-1017571D1*
X-367770Y-1020071D1*
X-375270Y-1000071D2*
X-373790Y-1002571D1*
X-371820Y-1005071D1*
X-367132Y-1007571D1*
X-360540Y-1010071D1*
X-352770Y-1012571D1*
X84730Y-1000071D2*
X85212Y-1002571D1*
X86162Y-1005071D1*
X87515Y-1007571D1*
X89108Y-1010071D1*
X91207Y-1012571D1*
X94206Y-1015071D1*
X98033Y-1017571D1*
X102230Y-1020071D1*
X94730Y-1000071D2*
X96210Y-1002571D1*
X98180Y-1005071D1*
X102868Y-1007571D1*
X109460Y-1010071D1*
X117230Y-1012571D1*
X552230Y-1000071D2*
X552712Y-1002571D1*
X553662Y-1005071D1*
X555015Y-1007571D1*
X556608Y-1010071D1*
X558707Y-1012571D1*
X561706Y-1015071D1*
X565533Y-1017571D1*
X569730Y-1020071D1*
X562230Y-1000071D2*
X563710Y-1002571D1*
X565680Y-1005071D1*
X570368Y-1007571D1*
X576960Y-1010071D1*
X584730Y-1012571D1*
X-132770Y-1002571D2*
X-134416Y-1005071D1*
X-138763Y-1007571D1*
X-145145Y-1010071D1*
X-152770Y-1012571D1*
X-125270Y-1002571D2*
X-125666Y-1005071D1*
X-126384Y-1007571D1*
X-127457Y-1010071D1*
X-129005Y-1012571D1*
X-131278Y-1015071D1*
X-134315Y-1017571D1*
X-137770Y-1020071D1*
X337230Y-1002571D2*
X335584Y-1005071D1*
X331237Y-1007571D1*
X324855Y-1010071D1*
X317230Y-1012571D1*
X347230Y-1002571D2*
X346270Y-1005071D1*
X345108Y-1007571D1*
X343609Y-1010071D1*
X341613Y-1012571D1*
X339025Y-1015071D1*
X335806Y-1017571D1*
X332230Y-1020071D1*
X-565270Y-1007571D2*
Y-1010071D1*
Y-1012571D1*
Y-1015071D1*
Y-1017571D1*
Y-1020071D1*
X-95270Y-1007571D2*
Y-1010071D1*
Y-1012571D1*
Y-1015071D1*
Y-1017571D1*
Y-1020071D1*
X372230Y-1007571D2*
Y-1010071D1*
Y-1012571D1*
Y-1015071D1*
Y-1017571D1*
Y-1020071D1*
X-515270Y-1012571D2*
Y-1015071D1*
Y-1017571D1*
Y-1020071D1*
X-45270Y-1012571D2*
Y-1015071D1*
Y-1017571D1*
Y-1020071D1*
X422230Y-1012571D2*
Y-1015071D1*
Y-1017571D1*
Y-1020071D1*
X-1148678Y1096143D2*
Y1093643D1*
Y1091143D1*
Y1088643D1*
Y1086143D1*
Y1083643D1*
Y1081143D1*
Y1078643D1*
Y1076143D1*
Y1073643D1*
Y1071143D1*
Y1068643D1*
Y1066143D1*
X-1148669Y1063643D1*
X-1148571Y1061143D1*
X-1148155Y1058643D1*
X-1147140Y1056143D1*
X-1145484Y1053643D1*
X-1143392Y1051143D1*
X-1141075Y1048643D1*
X-1138678Y1046143D1*
X-1073678Y1096143D2*
Y1093643D1*
Y1091143D1*
Y1088643D1*
X-1141178D2*
Y1086143D1*
Y1083643D1*
Y1081143D1*
Y1078643D1*
Y1076143D1*
Y1073643D1*
Y1071143D1*
X-1141169Y1068643D1*
X-1141061Y1066143D1*
X-1140797Y1063643D1*
X-1139416Y1061143D1*
X-1135137Y1058643D1*
X-1128786Y1056143D1*
X-1121178Y1053643D1*
X-1116178Y1088643D2*
Y1086143D1*
Y1083643D1*
Y1081143D1*
Y1078643D1*
Y1076143D1*
Y1073643D1*
Y1071143D1*
X-1116188Y1068643D1*
X-1116296Y1066143D1*
X-1116559Y1063643D1*
X-1117941Y1061143D1*
X-1122220Y1058643D1*
X-1128571Y1056143D1*
X-1136178Y1053643D1*
X-1106178Y1088643D2*
Y1086143D1*
Y1083643D1*
Y1081143D1*
X-1106169Y1078643D1*
X-1106061Y1076143D1*
X-1105797Y1073643D1*
X-1104533Y1071143D1*
X-1101549Y1068643D1*
X-1097723Y1066143D1*
X-1093288Y1063643D1*
X-1088548Y1061143D1*
X-1083839Y1058643D1*
X-1079707Y1056143D1*
X-1076283Y1053643D1*
X-1074949Y1051143D1*
X-1074220Y1048643D1*
X-1073878Y1046143D1*
X-1073678Y1043643D1*
X-1106178Y1058643D2*
X-1108302Y1056143D1*
X-1110277Y1053643D1*
X-1112509Y1051143D1*
X-1115388Y1048643D1*
X-1118678Y1046143D1*
X-1106178Y1058643D2*
X-1101178Y1056143D1*
X-1096188Y1053643D1*
X-1091283Y1051143D1*
X-1086670Y1048643D1*
X-1082524Y1046143D1*
X-1078678Y1043643D1*
X-1148678Y1023643D2*
Y1021143D1*
Y1018643D1*
Y1016143D1*
Y1013643D1*
Y1011143D1*
Y1008643D1*
Y1006143D1*
Y1003643D1*
Y1001143D1*
Y998643D1*
Y996143D1*
Y993643D1*
Y991143D1*
Y988643D1*
Y986143D1*
Y983643D1*
Y981143D1*
Y978643D1*
Y976143D1*
X-1073678Y1023643D2*
Y1021143D1*
Y1018643D1*
Y1016143D1*
Y1013643D1*
Y1011143D1*
Y1008643D1*
Y1006143D1*
Y1003643D1*
Y1001143D1*
Y998643D1*
Y996143D1*
Y993643D1*
Y991143D1*
Y988643D1*
Y986143D1*
Y983643D1*
Y981143D1*
Y978643D1*
Y976143D1*
X-1141178Y1016143D2*
Y1013643D1*
Y1011143D1*
Y1008643D1*
Y1006143D1*
Y1003643D1*
Y1001143D1*
Y998643D1*
Y996143D1*
Y993643D1*
Y991143D1*
Y988643D1*
Y986143D1*
Y983643D1*
Y981143D1*
Y978643D1*
Y976143D1*
X-1116178Y1016143D2*
Y1013643D1*
Y1011143D1*
Y1008643D1*
Y1006143D1*
Y1003643D1*
Y1001143D1*
Y998643D1*
Y996143D1*
Y993643D1*
X-1116169Y991143D1*
X-1116073Y988643D1*
X-1115687Y986143D1*
X-1114832Y983643D1*
X-1113678Y981143D1*
X-1106178Y1016143D2*
Y1013643D1*
Y1011143D1*
Y1008643D1*
Y1006143D1*
Y1003643D1*
Y1001143D1*
Y998643D1*
Y996143D1*
Y993643D1*
Y991143D1*
Y988643D1*
Y986143D1*
Y983643D1*
Y981143D1*
X-1083678Y1016143D2*
Y1013643D1*
Y1011143D1*
Y1008643D1*
Y1006143D1*
Y1003643D1*
Y1001143D1*
Y998643D1*
Y996143D1*
Y993643D1*
Y991143D1*
Y988643D1*
Y986143D1*
Y983643D1*
Y981143D1*
Y978643D1*
Y976143D1*
X-1131178Y961143D2*
X-1135977Y958643D1*
X-1139825Y956143D1*
X-1142723Y953643D1*
X-1144849Y951143D1*
X-1146422Y948643D1*
X-1147521Y946143D1*
X-1148151Y943643D1*
X-1148459Y941143D1*
X-1148593Y938643D1*
X-1148647Y936143D1*
X-1148667Y933643D1*
X-1148675Y931143D1*
X-1148667Y928643D1*
X-1148580Y926143D1*
X-1148252Y923643D1*
X-1147558Y921143D1*
X-1146524Y918643D1*
X-1145196Y916143D1*
X-1143678Y913643D1*
X-1126178Y961143D2*
X-1121380Y958643D1*
X-1117542Y956143D1*
X-1114722Y953643D1*
X-1112826Y951143D1*
X-1111533Y948643D1*
X-1110477Y946143D1*
X-1109642Y943643D1*
X-1109120Y941143D1*
X-1108772Y938643D1*
X-1108337Y936143D1*
X-1107681Y933643D1*
X-1106935Y931143D1*
X-1106125Y928643D1*
X-1105148Y926143D1*
X-1102841Y923643D1*
X-1097515Y921143D1*
X-1091178Y918643D1*
X-1086178Y961143D2*
X-1087189Y958643D1*
X-1087010Y956143D1*
X-1086360Y953643D1*
X-1085472Y951143D1*
X-1084661Y948643D1*
X-1084143Y946143D1*
X-1083876Y943643D1*
X-1083756Y941143D1*
X-1083707Y938643D1*
X-1083689Y936143D1*
X-1083692Y933643D1*
X-1083787Y931143D1*
X-1084020Y928643D1*
X-1085177Y926143D1*
X-1089186Y923643D1*
X-1095638Y921143D1*
X-1103678Y918643D1*
X-1081178Y961143D2*
X-1079638Y958643D1*
X-1078300Y956143D1*
X-1077280Y953643D1*
X-1076593Y951143D1*
X-1075977Y948643D1*
X-1075247Y946143D1*
X-1074553Y943643D1*
X-1074097Y941143D1*
X-1073858Y938643D1*
X-1073759Y936143D1*
X-1073803Y933643D1*
X-1074104Y931143D1*
X-1074706Y928643D1*
X-1075433Y926143D1*
X-1076197Y923643D1*
X-1077125Y921143D1*
X-1078307Y918643D1*
X-1079993Y916143D1*
X-1082668Y913643D1*
X-1086567Y911143D1*
X-1091178Y908643D1*
X-1133678Y951143D2*
X-1135782Y948643D1*
X-1137565Y946143D1*
X-1139001Y943643D1*
X-1140048Y941143D1*
X-1140660Y938643D1*
X-1140962Y936143D1*
X-1141084Y933643D1*
X-1141050Y931143D1*
X-1140741Y928643D1*
X-1140052Y926143D1*
X-1138998Y923643D1*
X-1137555Y921143D1*
X-1135711Y918643D1*
X-1133678Y916143D1*
X-1138678Y913643D1*
X-1123678Y951143D2*
X-1121660Y948643D1*
X-1120110Y946143D1*
X-1118954Y943643D1*
X-1117949Y941143D1*
X-1117133Y938643D1*
X-1116617Y936143D1*
X-1116271Y933643D1*
X-1115837Y931143D1*
X-1115181Y928643D1*
X-1114435Y926143D1*
X-1113664Y923643D1*
X-1112733Y921143D1*
X-1111559Y918643D1*
X-1109969Y916143D1*
X-1107680Y913643D1*
X-1104636Y911143D1*
X-1101178Y908643D1*
X-1148678Y891143D2*
Y888643D1*
Y886143D1*
Y883643D1*
Y881143D1*
Y878643D1*
Y876143D1*
Y873643D1*
Y871143D1*
Y868643D1*
Y866143D1*
Y863643D1*
Y861143D1*
Y858643D1*
Y856143D1*
Y853643D1*
Y851143D1*
Y848643D1*
Y846143D1*
Y843643D1*
X-1073678Y891143D2*
Y888643D1*
Y886143D1*
Y883643D1*
Y881143D1*
Y878643D1*
Y876143D1*
Y873643D1*
Y871143D1*
Y868643D1*
Y866143D1*
Y863643D1*
Y861143D1*
Y858643D1*
Y856143D1*
Y853643D1*
Y851143D1*
Y848643D1*
Y846143D1*
Y843643D1*
X-1141178Y883643D2*
Y881143D1*
Y878643D1*
Y876143D1*
Y873643D1*
Y871143D1*
Y868643D1*
Y866143D1*
Y863643D1*
Y861143D1*
Y858643D1*
Y856143D1*
Y853643D1*
Y851143D1*
Y848643D1*
Y846143D1*
Y843643D1*
X-1116178Y883643D2*
Y881143D1*
Y878643D1*
Y876143D1*
Y873643D1*
Y871143D1*
Y868643D1*
Y866143D1*
Y863643D1*
Y861143D1*
X-1116169Y858643D1*
X-1116073Y856143D1*
X-1115687Y853643D1*
X-1114832Y851143D1*
X-1113678Y848643D1*
X-1106178Y883643D2*
Y881143D1*
Y878643D1*
Y876143D1*
Y873643D1*
Y871143D1*
Y868643D1*
Y866143D1*
Y863643D1*
Y861143D1*
Y858643D1*
Y856143D1*
Y853643D1*
Y851143D1*
Y848643D1*
X-1083678Y883643D2*
Y881143D1*
Y878643D1*
Y876143D1*
Y873643D1*
Y871143D1*
Y868643D1*
Y866143D1*
Y863643D1*
Y861143D1*
Y858643D1*
Y856143D1*
Y853643D1*
Y851143D1*
Y848643D1*
Y846143D1*
Y843643D1*
X-1148678Y836143D2*
Y833643D1*
Y831143D1*
Y828643D1*
Y826143D1*
Y823643D1*
Y821143D1*
Y818643D1*
Y816143D1*
Y813643D1*
Y811143D1*
Y808643D1*
Y806143D1*
Y803643D1*
Y801143D1*
Y798643D1*
Y796143D1*
Y793643D1*
Y791143D1*
Y788643D1*
Y786143D1*
X-1141178Y836143D2*
Y833643D1*
Y831143D1*
Y828643D1*
Y826143D1*
Y823643D1*
Y821143D1*
Y818643D1*
Y816143D1*
X-1073678D2*
Y813643D1*
Y811143D1*
Y808643D1*
Y806143D1*
X-1141178D2*
Y803643D1*
Y801143D1*
Y798643D1*
Y796143D1*
Y793643D1*
Y791143D1*
Y788643D1*
Y786143D1*
X-679700Y1005237D2*
X-683344Y1002737D1*
X-686465Y1000237D1*
X-688921Y997737D1*
X-690655Y995237D1*
X-691883Y992737D1*
X-692915Y990237D1*
X-693741Y987737D1*
X-694250Y985237D1*
X-694509Y982737D1*
X-694625Y980237D1*
X-694672Y977737D1*
X-694690Y975237D1*
X-694697Y972737D1*
X-694689Y970237D1*
X-694602Y967737D1*
X-694284Y965237D1*
X-693675Y962737D1*
X-692937Y960237D1*
X-692094Y957737D1*
X-690935Y955237D1*
X-689492Y952737D1*
X-687964Y950237D1*
X-686352Y947737D1*
X-684671Y945237D1*
X-683016Y942737D1*
X-681174Y940237D1*
X-678741Y937737D1*
X-675485Y935237D1*
X-671504Y932737D1*
X-667200Y930237D1*
X-664700Y1005237D2*
X-661056Y1002737D1*
X-657926Y1000237D1*
X-655391Y997737D1*
X-653426Y995237D1*
X-651918Y992737D1*
X-650844Y990237D1*
X-650223Y987737D1*
X-649918Y985237D1*
X-649785Y982737D1*
X-649741Y980237D1*
X-649809Y977737D1*
X-650130Y975237D1*
X-650814Y972737D1*
X-651792Y970237D1*
X-653022Y967737D1*
X-654726Y965237D1*
X-657282Y962737D1*
X-660770Y960237D1*
X-664700Y957737D1*
X-622200Y1005237D2*
Y1002737D1*
Y1000237D1*
Y997737D1*
Y995237D1*
Y992737D1*
Y990237D1*
Y987737D1*
Y985237D1*
Y982737D1*
Y980237D1*
Y977737D1*
Y975237D1*
Y972737D1*
Y970237D1*
Y967737D1*
Y965237D1*
Y962737D1*
Y960237D1*
Y957737D1*
Y955237D1*
Y952737D1*
Y950237D1*
Y947737D1*
Y945237D1*
Y942737D1*
Y940237D1*
Y937737D1*
Y935237D1*
Y932737D1*
Y930237D1*
X-619700Y1005237D2*
X-617190Y1002737D1*
X-614593Y1000237D1*
X-611686Y997737D1*
X-608278Y995237D1*
X-604636Y992737D1*
X-601475Y990237D1*
X-598958Y987737D1*
X-597966Y985237D1*
X-597200Y982737D1*
X-567200Y1005237D2*
X-570759Y1002737D1*
X-573647Y1000237D1*
X-575813Y997737D1*
X-577427Y995237D1*
X-578629Y992737D1*
X-579584Y990237D1*
X-580494Y987737D1*
X-581270Y985237D1*
X-581760Y982737D1*
X-582013Y980237D1*
X-582126Y977737D1*
X-582172Y975237D1*
X-582190Y972737D1*
X-582197Y970237D1*
X-582199Y967737D1*
X-582200Y965237D1*
Y962737D1*
X-582190Y960237D1*
X-582102Y957737D1*
X-581784Y955237D1*
X-581175Y952737D1*
X-580446Y950237D1*
X-579682Y947737D1*
X-578754Y945237D1*
X-577590Y942737D1*
X-576086Y940237D1*
X-574086Y937737D1*
X-571496Y935237D1*
X-568276Y932737D1*
X-564700Y930237D1*
X-552200Y1005237D2*
X-548556Y1002737D1*
X-545426Y1000237D1*
X-542891Y997737D1*
X-540916Y995237D1*
X-539320Y992737D1*
X-537928Y990237D1*
X-536708Y987737D1*
X-535762Y985237D1*
X-535193Y982737D1*
X-534907Y980237D1*
X-534781Y977737D1*
X-534730Y975237D1*
X-534711Y972737D1*
X-534704Y970237D1*
X-534701Y967737D1*
X-534700Y965237D1*
Y962737D1*
Y960237D1*
Y957737D1*
X-534710Y955237D1*
X-534798Y952737D1*
X-535116Y950237D1*
X-535725Y947737D1*
X-536463Y945237D1*
X-537316Y942737D1*
X-538572Y940237D1*
X-540430Y937737D1*
X-542951Y935237D1*
X-546141Y932737D1*
X-549700Y930237D1*
X-504700Y1005237D2*
X-508344Y1002737D1*
X-511465Y1000237D1*
X-513912Y997737D1*
X-515832Y995237D1*
X-516536Y992737D1*
X-516917Y990237D1*
X-517079Y987737D1*
X-517061Y985237D1*
X-516769Y982737D1*
X-516170Y980237D1*
X-515435Y977737D1*
X-514594Y975237D1*
X-513435Y972737D1*
X-511992Y970237D1*
X-510464Y967737D1*
X-508852Y965237D1*
X-507171Y962737D1*
X-505536Y960237D1*
X-503879Y957737D1*
X-502190Y955237D1*
X-500627Y952737D1*
X-499199Y950237D1*
X-497780Y947737D1*
X-496170Y945237D1*
X-494221Y942737D1*
X-492013Y940237D1*
X-489700Y937737D1*
X-487200Y1005237D2*
X-483661Y1002737D1*
X-480572Y1000237D1*
X-479016Y997737D1*
X-478949Y995237D1*
X-479700Y992737D1*
X-409700Y1005237D2*
X-413344Y1002737D1*
X-416465Y1000237D1*
X-418921Y997737D1*
X-420655Y995237D1*
X-421883Y992737D1*
X-422915Y990237D1*
X-423741Y987737D1*
X-424250Y985237D1*
X-424509Y982737D1*
X-424625Y980237D1*
X-424672Y977737D1*
X-424690Y975237D1*
X-424697Y972737D1*
X-424689Y970237D1*
X-424602Y967737D1*
X-424284Y965237D1*
X-423675Y962737D1*
X-422937Y960237D1*
X-422094Y957737D1*
X-420935Y955237D1*
X-419492Y952737D1*
X-417964Y950237D1*
X-416352Y947737D1*
X-414671Y945237D1*
X-413016Y942737D1*
X-411174Y940237D1*
X-408741Y937737D1*
X-405485Y935237D1*
X-401504Y932737D1*
X-397200Y930237D1*
X-394700Y1005237D2*
X-391056Y1002737D1*
X-387926Y1000237D1*
X-385391Y997737D1*
X-383426Y995237D1*
X-381918Y992737D1*
X-380844Y990237D1*
X-380223Y987737D1*
X-379918Y985237D1*
X-379785Y982737D1*
X-379741Y980237D1*
X-379809Y977737D1*
X-380130Y975237D1*
X-380814Y972737D1*
X-381792Y970237D1*
X-383022Y967737D1*
X-384726Y965237D1*
X-387282Y962737D1*
X-390770Y960237D1*
X-394700Y957737D1*
X-354700Y1005237D2*
X-358259Y1002737D1*
X-361147Y1000237D1*
X-363313Y997737D1*
X-364927Y995237D1*
X-366129Y992737D1*
X-367084Y990237D1*
X-367994Y987737D1*
X-368770Y985237D1*
X-369260Y982737D1*
X-369513Y980237D1*
X-369626Y977737D1*
X-369672Y975237D1*
X-369690Y972737D1*
X-369697Y970237D1*
X-369699Y967737D1*
X-369700Y965237D1*
Y962737D1*
X-369690Y960237D1*
X-369602Y957737D1*
X-369284Y955237D1*
X-368675Y952737D1*
X-367946Y950237D1*
X-367182Y947737D1*
X-366254Y945237D1*
X-365090Y942737D1*
X-363586Y940237D1*
X-361586Y937737D1*
X-358996Y935237D1*
X-355776Y932737D1*
X-352200Y930237D1*
X-339700Y1005237D2*
X-336056Y1002737D1*
X-332926Y1000237D1*
X-330391Y997737D1*
X-328416Y995237D1*
X-326820Y992737D1*
X-325428Y990237D1*
X-324208Y987737D1*
X-323262Y985237D1*
X-322693Y982737D1*
X-322407Y980237D1*
X-322281Y977737D1*
X-322230Y975237D1*
X-322211Y972737D1*
X-322204Y970237D1*
X-322201Y967737D1*
X-322200Y965237D1*
Y962737D1*
Y960237D1*
Y957737D1*
X-322210Y955237D1*
X-322298Y952737D1*
X-322616Y950237D1*
X-323225Y947737D1*
X-323963Y945237D1*
X-324816Y942737D1*
X-326072Y940237D1*
X-327930Y937737D1*
X-330451Y935237D1*
X-333641Y932737D1*
X-337200Y930237D1*
X-172200Y1005237D2*
Y1002737D1*
Y1000237D1*
Y997737D1*
Y995237D1*
Y992737D1*
Y990237D1*
Y987737D1*
Y985237D1*
Y982737D1*
Y980237D1*
Y977737D1*
Y975237D1*
Y972737D1*
Y970237D1*
Y967737D1*
Y965237D1*
Y962737D1*
Y960237D1*
Y957737D1*
Y955237D1*
Y952737D1*
Y950237D1*
Y947737D1*
Y945237D1*
Y942737D1*
Y940237D1*
Y937737D1*
Y935237D1*
Y932737D1*
Y930237D1*
X-169700Y1005237D2*
X-167190Y1002737D1*
X-164593Y1000237D1*
X-161686Y997737D1*
X-158278Y995237D1*
X-154636Y992737D1*
X-151476Y990237D1*
X-148961Y987737D1*
X-148047Y985237D1*
X-147532Y982737D1*
X-147200Y980237D1*
X-74700Y1005237D2*
Y1002737D1*
Y1000237D1*
Y997737D1*
Y995237D1*
Y992737D1*
Y990237D1*
Y987737D1*
Y985237D1*
Y982737D1*
Y980237D1*
Y977737D1*
Y975237D1*
Y972737D1*
Y970237D1*
Y967737D1*
Y965237D1*
Y962737D1*
Y960237D1*
Y957737D1*
Y955237D1*
Y952737D1*
Y950237D1*
Y947737D1*
Y945237D1*
Y942737D1*
Y940237D1*
Y937737D1*
Y935237D1*
Y932737D1*
Y930237D1*
X-72200Y1005237D2*
X-69690Y1002737D1*
X-67093Y1000237D1*
X-64186Y997737D1*
X-60778Y995237D1*
X-57136Y992737D1*
X-53976Y990237D1*
X-51461Y987737D1*
X-50547Y985237D1*
X-50032Y982737D1*
X-49700Y980237D1*
X-37200Y1005237D2*
X-35951Y1002737D1*
X-34912Y1000237D1*
X-33940Y997737D1*
X-33050Y995237D1*
X-32230Y992737D1*
X-31365Y990237D1*
X-30521Y987737D1*
X-29710Y985237D1*
X-28773Y982737D1*
X-27701Y980237D1*
X-26611Y977737D1*
X-25632Y975237D1*
X-24765Y972737D1*
X-23879Y970237D1*
X-23026Y967737D1*
X-22212Y965237D1*
X-21274Y962737D1*
X-20201Y960237D1*
X-19111Y957737D1*
X-18132Y955237D1*
X-17265Y952737D1*
X-16379Y950237D1*
X-15526Y947737D1*
X-14721Y945237D1*
X-13862Y942737D1*
X-13020Y940237D1*
X-12217Y937737D1*
X-11347Y935237D1*
X-10486Y932737D1*
X-9700Y930237D1*
X-27200Y1005237D2*
X-26336Y1002737D1*
X-25504Y1000237D1*
X-24711Y997737D1*
X-23858Y995237D1*
X-23018Y992737D1*
X-22219Y990237D1*
X-21361Y987737D1*
X-20520Y985237D1*
X-19719Y982737D1*
X-18861Y980237D1*
X-18020Y977737D1*
X-17219Y975237D1*
X-16361Y972737D1*
X-15520Y970237D1*
X-14709Y967737D1*
X-13773Y965237D1*
X-12701Y962737D1*
X-11611Y960237D1*
X-10625Y957737D1*
X-9688Y955237D1*
X-8541Y952737D1*
X-7200Y950237D1*
X12800Y1005237D2*
X12414Y1002737D1*
X11784Y1000237D1*
X11049Y997737D1*
X10283Y995237D1*
X9364Y992737D1*
X8298Y990237D1*
X7209Y987737D1*
X6232Y985237D1*
X5365Y982737D1*
X4479Y980237D1*
X3626Y977737D1*
X2821Y975237D1*
X1962Y972737D1*
X1120Y970237D1*
X309Y967737D1*
X-627Y965237D1*
X-1699Y962737D1*
X-2789Y960237D1*
X-3775Y957737D1*
X-4712Y955237D1*
X-5859Y952737D1*
X-7200Y950237D1*
X22800Y1005237D2*
X21936Y1002737D1*
X21104Y1000237D1*
X20311Y997737D1*
X19458Y995237D1*
X18618Y992737D1*
X17809Y990237D1*
X16873Y987737D1*
X15801Y985237D1*
X14711Y982737D1*
X13732Y980237D1*
X12865Y977737D1*
X11979Y975237D1*
X11126Y972737D1*
X10312Y970237D1*
X9374Y967737D1*
X8301Y965237D1*
X7211Y962737D1*
X6232Y960237D1*
X5365Y957737D1*
X4479Y955237D1*
X3626Y952737D1*
X2812Y950237D1*
X1874Y947737D1*
X801Y945237D1*
X-289Y942737D1*
X-1268Y940237D1*
X-2137Y937737D1*
X-3035Y935237D1*
X-3907Y932737D1*
X-4700Y930237D1*
X92800Y1005237D2*
Y1002737D1*
Y1000237D1*
Y997737D1*
Y995237D1*
Y992737D1*
Y990237D1*
Y987737D1*
Y985237D1*
Y982737D1*
Y980237D1*
Y977737D1*
Y975237D1*
Y972737D1*
Y970237D1*
Y967737D1*
Y965237D1*
Y962737D1*
Y960237D1*
Y957737D1*
Y955237D1*
Y952737D1*
Y950237D1*
Y947737D1*
Y945237D1*
Y942737D1*
Y940237D1*
Y937737D1*
Y935237D1*
Y932737D1*
Y930237D1*
X100300Y1005237D2*
Y1002737D1*
Y1000237D1*
Y997737D1*
Y995237D1*
Y992737D1*
Y990237D1*
Y987737D1*
Y985237D1*
Y982737D1*
Y980237D1*
Y977737D1*
Y975237D1*
X137800Y1005237D2*
Y1002737D1*
Y1000237D1*
Y997737D1*
Y995237D1*
Y992737D1*
Y990237D1*
Y987737D1*
Y985237D1*
Y982737D1*
Y980237D1*
Y977737D1*
Y975237D1*
X145300Y1005237D2*
Y1002737D1*
Y1000237D1*
Y997737D1*
Y995237D1*
Y992737D1*
Y990237D1*
Y987737D1*
Y985237D1*
Y982737D1*
Y980237D1*
Y977737D1*
Y975237D1*
Y972737D1*
Y970237D1*
Y967737D1*
Y965237D1*
Y962737D1*
Y960237D1*
Y957737D1*
Y955237D1*
Y952737D1*
Y950237D1*
Y947737D1*
Y945237D1*
Y942737D1*
Y940237D1*
Y937737D1*
Y935237D1*
Y932737D1*
Y930237D1*
X157800Y1005237D2*
Y1002737D1*
Y1000237D1*
Y997737D1*
Y995237D1*
X185300D1*
Y992737D1*
Y990237D1*
Y987737D1*
Y985237D1*
Y982737D1*
Y980237D1*
Y977737D1*
Y975237D1*
Y972737D1*
Y970237D1*
Y967737D1*
Y965237D1*
Y962737D1*
Y960237D1*
Y957737D1*
Y955237D1*
Y952737D1*
Y950237D1*
Y947737D1*
Y945237D1*
Y942737D1*
Y940237D1*
Y937737D1*
Y935237D1*
Y932737D1*
Y930237D1*
X217800Y1005237D2*
Y1002737D1*
Y1000237D1*
Y997737D1*
Y995237D1*
X192800D1*
Y992737D1*
Y990237D1*
Y987737D1*
Y985237D1*
Y982737D1*
Y980237D1*
Y977737D1*
Y975237D1*
Y972737D1*
Y970237D1*
Y967737D1*
Y965237D1*
Y962737D1*
Y960237D1*
Y957737D1*
Y955237D1*
Y952737D1*
Y950237D1*
Y947737D1*
Y945237D1*
Y942737D1*
Y940237D1*
Y937737D1*
Y935237D1*
Y932737D1*
Y930237D1*
X307800Y1005237D2*
X307404Y1002737D1*
X306696Y1000237D1*
X305730Y997737D1*
X304684Y995237D1*
X303723Y992737D1*
X302862Y990237D1*
X301978Y987737D1*
X301126Y985237D1*
X300311Y982737D1*
X299374Y980237D1*
X298301Y977737D1*
X297211Y975237D1*
X296232Y972737D1*
X295355Y970237D1*
X294391Y967737D1*
X293308Y965237D1*
X292213Y962737D1*
X291233Y960237D1*
X290365Y957737D1*
X289479Y955237D1*
X288626Y952737D1*
X287812Y950237D1*
X286874Y947737D1*
X285801Y945237D1*
X284711Y942737D1*
X283732Y940237D1*
X282863Y937737D1*
X281965Y935237D1*
X281093Y932737D1*
X280300Y930237D1*
X310300Y1005237D2*
X311250Y1002737D1*
X312324Y1000237D1*
X313485Y997737D1*
X314690Y995237D1*
X315845Y992737D1*
X316851Y990237D1*
X317738Y987737D1*
X318707Y985237D1*
X319792Y982737D1*
X320887Y980237D1*
X321867Y977737D1*
X322744Y975237D1*
X323709Y972737D1*
X324802Y970237D1*
X325975Y967737D1*
X327186Y965237D1*
X328343Y962737D1*
X329350Y960237D1*
X330238Y957737D1*
X331207Y955237D1*
X332292Y952737D1*
X333387Y950237D1*
X334367Y947737D1*
X335244Y945237D1*
X336209Y942737D1*
X337292Y940237D1*
X338378Y937737D1*
X339277Y935237D1*
X339868Y932737D1*
X340300Y930237D1*
X345300Y1005237D2*
Y1002737D1*
Y1000237D1*
Y997737D1*
Y995237D1*
X372800D1*
Y992737D1*
Y990237D1*
Y987737D1*
Y985237D1*
Y982737D1*
Y980237D1*
Y977737D1*
Y975237D1*
Y972737D1*
Y970237D1*
Y967737D1*
Y965237D1*
Y962737D1*
Y960237D1*
Y957737D1*
Y955237D1*
Y952737D1*
Y950237D1*
Y947737D1*
Y945237D1*
Y942737D1*
Y940237D1*
Y937737D1*
Y935237D1*
Y932737D1*
Y930237D1*
X405300Y1005237D2*
Y1002737D1*
Y1000237D1*
Y997737D1*
Y995237D1*
X380300D1*
Y992737D1*
Y990237D1*
Y987737D1*
Y985237D1*
Y982737D1*
Y980237D1*
Y977737D1*
Y975237D1*
Y972737D1*
Y970237D1*
Y967737D1*
Y965237D1*
Y962737D1*
Y960237D1*
Y957737D1*
Y955237D1*
Y952737D1*
Y950237D1*
Y947737D1*
Y945237D1*
Y942737D1*
Y940237D1*
Y937737D1*
Y935237D1*
Y932737D1*
Y930237D1*
X412800Y1005237D2*
X414914Y1002737D1*
X416784Y1000237D1*
X418549Y997737D1*
X420292Y995237D1*
X421952Y992737D1*
X423617Y990237D1*
X425318Y987737D1*
X426961Y985237D1*
X428620Y982737D1*
X430317Y980237D1*
X431947Y977737D1*
X433586Y975237D1*
X435300Y972737D1*
X433750Y970237D1*
X432314Y967737D1*
X430897Y965237D1*
X429371Y962737D1*
X427746Y960237D1*
X426210Y957737D1*
X424793Y955237D1*
X423387Y952737D1*
X421867Y950237D1*
X420244Y947737D1*
X418709Y945237D1*
X417292Y942737D1*
X415887Y940237D1*
X414374Y937737D1*
X412812Y935237D1*
X411459Y932737D1*
X410300Y930237D1*
X422800Y1005237D2*
X424914Y1002737D1*
X426784Y1000237D1*
X428549Y997737D1*
X430292Y995237D1*
X431952Y992737D1*
X433617Y990237D1*
X435318Y987737D1*
X436961Y985237D1*
X438620Y982737D1*
X440319Y980237D1*
X441961Y977737D1*
X443620Y975237D1*
X445317Y972737D1*
X446947Y970237D1*
X448586Y967737D1*
X450300Y965237D1*
X452800Y1005237D2*
Y1002737D1*
Y1000237D1*
Y997737D1*
Y995237D1*
Y992737D1*
Y990237D1*
Y987737D1*
Y985237D1*
Y982737D1*
Y980237D1*
Y977737D1*
X452790Y975237D1*
X452695Y972737D1*
X452309Y970237D1*
X451454Y967737D1*
X450300Y965237D1*
X462800Y1005237D2*
Y1002737D1*
Y1000237D1*
Y997737D1*
Y995237D1*
Y992737D1*
Y990237D1*
Y987737D1*
Y985237D1*
Y982737D1*
Y980237D1*
Y977737D1*
Y975237D1*
Y972737D1*
Y970237D1*
Y967737D1*
Y965237D1*
Y962737D1*
Y960237D1*
Y957737D1*
Y955237D1*
Y952737D1*
Y950237D1*
Y947737D1*
Y945237D1*
Y942737D1*
Y940237D1*
Y937737D1*
Y935237D1*
Y932737D1*
Y930237D1*
X475300Y1005237D2*
Y1002737D1*
Y1000237D1*
Y997737D1*
X520300Y1005237D2*
Y1002737D1*
Y1000237D1*
Y997737D1*
Y995237D1*
Y992737D1*
Y990237D1*
Y987737D1*
Y985237D1*
Y982737D1*
Y980237D1*
Y977737D1*
Y975237D1*
Y972737D1*
Y970237D1*
Y967737D1*
Y965237D1*
Y962737D1*
Y960237D1*
Y957737D1*
Y955237D1*
Y952737D1*
Y950237D1*
Y947737D1*
Y945237D1*
Y942737D1*
Y940237D1*
Y937737D1*
Y935237D1*
Y932737D1*
Y930237D1*
X532800Y1005237D2*
Y1002737D1*
Y1000237D1*
Y997737D1*
X580300Y1005237D2*
Y1002737D1*
Y1000237D1*
Y997737D1*
Y995237D1*
Y992737D1*
Y990237D1*
Y987737D1*
Y985237D1*
Y982737D1*
Y980237D1*
Y977737D1*
Y975237D1*
Y972737D1*
Y970237D1*
Y967737D1*
Y965237D1*
Y962737D1*
Y960237D1*
Y957737D1*
Y955237D1*
Y952737D1*
Y950237D1*
Y947737D1*
Y945237D1*
Y942737D1*
Y940237D1*
Y937737D1*
Y935237D1*
Y932737D1*
Y930237D1*
X592800Y1005237D2*
Y1002737D1*
Y1000237D1*
Y997737D1*
X637800Y1005237D2*
Y1002737D1*
Y1000237D1*
Y997737D1*
Y995237D1*
Y992737D1*
Y990237D1*
Y987737D1*
Y985237D1*
Y982737D1*
Y980237D1*
Y977737D1*
Y975237D1*
Y972737D1*
Y970237D1*
Y967737D1*
Y965237D1*
Y962737D1*
Y960237D1*
Y957737D1*
Y955237D1*
Y952737D1*
Y950237D1*
Y947737D1*
Y945237D1*
Y942737D1*
Y940237D1*
Y937737D1*
Y935237D1*
Y932737D1*
Y930237D1*
X-257200Y1002737D2*
Y1000237D1*
Y997737D1*
Y995237D1*
Y992737D1*
Y990237D1*
Y987737D1*
Y985237D1*
Y982737D1*
Y980237D1*
Y977737D1*
Y975237D1*
Y972737D1*
Y970237D1*
Y967737D1*
Y965237D1*
Y962737D1*
Y960237D1*
Y957737D1*
Y955237D1*
Y952737D1*
Y950237D1*
Y947737D1*
Y945237D1*
Y942737D1*
Y940237D1*
Y937737D1*
Y935237D1*
Y932737D1*
Y930237D1*
Y927737D1*
Y925237D1*
Y922737D1*
Y920237D1*
Y917737D1*
Y915237D1*
X-252200Y1002737D2*
Y1000237D1*
Y997737D1*
Y995237D1*
Y992737D1*
Y990237D1*
Y987737D1*
Y985237D1*
Y982737D1*
Y980237D1*
Y977737D1*
Y975237D1*
Y972737D1*
Y970237D1*
Y967737D1*
Y965237D1*
Y962737D1*
Y960237D1*
Y957737D1*
Y955237D1*
Y952737D1*
Y950237D1*
Y947737D1*
Y945237D1*
Y942737D1*
Y940237D1*
Y937737D1*
Y935237D1*
Y932737D1*
Y930237D1*
Y927737D1*
Y925237D1*
Y922737D1*
Y920237D1*
Y917737D1*
Y915237D1*
X-677200Y997737D2*
X-679605Y995237D1*
X-681775Y992737D1*
X-683578Y990237D1*
X-685020Y987737D1*
X-686060Y985237D1*
X-686584Y982737D1*
X-686557Y980237D1*
X-685993Y977737D1*
X-684940Y975237D1*
X-683526Y972737D1*
X-679346Y970237D1*
X-672800Y967737D1*
X-664700Y965237D1*
X-667200Y997737D2*
X-664795Y995237D1*
X-662625Y992737D1*
X-660822Y990237D1*
X-659380Y987737D1*
X-658340Y985237D1*
X-657816Y982737D1*
X-657843Y980237D1*
X-658407Y977737D1*
X-659460Y975237D1*
X-660874Y972737D1*
X-665054Y970237D1*
X-671600Y967737D1*
X-679700Y965237D1*
X-559700Y997737D2*
X-563813Y995237D1*
X-567057Y992737D1*
X-569331Y990237D1*
X-570794Y987737D1*
X-571669Y985237D1*
X-572359Y982737D1*
X-573117Y980237D1*
X-573820Y977737D1*
X-574279Y975237D1*
X-574520Y972737D1*
X-574628Y970237D1*
X-574664Y967737D1*
X-574593Y965237D1*
X-574280Y962737D1*
X-573684Y960237D1*
X-573044Y957737D1*
X-572598Y955237D1*
X-572269Y952737D1*
X-571746Y950237D1*
X-570911Y947737D1*
X-568661Y945237D1*
X-564968Y942737D1*
X-559218Y940237D1*
X-552200Y937737D1*
X-557200Y997737D2*
X-553087Y995237D1*
X-549843Y992737D1*
X-547559Y990237D1*
X-546018Y987737D1*
X-544912Y985237D1*
X-543942Y982737D1*
X-543142Y980237D1*
X-542644Y977737D1*
X-542389Y975237D1*
X-542274Y972737D1*
X-542228Y970237D1*
X-542210Y967737D1*
X-542203Y965237D1*
X-542211Y962737D1*
X-542298Y960237D1*
X-542616Y957737D1*
X-543225Y955237D1*
X-543954Y952737D1*
X-544728Y950237D1*
X-545793Y947737D1*
X-547215Y945237D1*
X-551657Y942737D1*
X-558636Y940237D1*
X-567200Y937737D1*
X-502200Y997737D2*
X-504304Y995237D1*
X-506077Y992737D1*
X-507425Y990237D1*
X-508425Y987737D1*
X-508225Y985237D1*
X-507747Y982737D1*
X-507102Y980237D1*
X-506233Y977737D1*
X-505177Y975237D1*
X-504008Y972737D1*
X-502714Y970237D1*
X-501240Y967737D1*
X-499625Y965237D1*
X-498018Y962737D1*
X-496373Y960237D1*
X-494678Y957737D1*
X-493038Y955237D1*
X-491380Y952737D1*
X-489681Y950237D1*
X-488039Y947737D1*
X-486380Y945237D1*
X-484681Y942737D1*
X-483039Y940237D1*
X-481388Y937737D1*
X-479758Y935237D1*
X-478376Y932737D1*
X-477200Y930237D1*
X-494700Y997737D2*
X-489700Y995237D1*
X-484700Y992737D1*
X-407200Y997737D2*
X-409605Y995237D1*
X-411775Y992737D1*
X-413578Y990237D1*
X-415020Y987737D1*
X-416060Y985237D1*
X-416584Y982737D1*
X-416557Y980237D1*
X-415993Y977737D1*
X-414940Y975237D1*
X-413526Y972737D1*
X-409346Y970237D1*
X-402800Y967737D1*
X-394700Y965237D1*
X-397200Y997737D2*
X-394795Y995237D1*
X-392625Y992737D1*
X-390822Y990237D1*
X-389380Y987737D1*
X-388340Y985237D1*
X-387816Y982737D1*
X-387843Y980237D1*
X-388407Y977737D1*
X-389460Y975237D1*
X-390874Y972737D1*
X-395054Y970237D1*
X-401600Y967737D1*
X-409700Y965237D1*
X-347200Y997737D2*
X-351313Y995237D1*
X-354557Y992737D1*
X-356831Y990237D1*
X-358294Y987737D1*
X-359169Y985237D1*
X-359859Y982737D1*
X-360617Y980237D1*
X-361320Y977737D1*
X-361779Y975237D1*
X-362020Y972737D1*
X-362128Y970237D1*
X-362164Y967737D1*
X-362093Y965237D1*
X-361780Y962737D1*
X-361184Y960237D1*
X-360544Y957737D1*
X-360098Y955237D1*
X-359769Y952737D1*
X-359246Y950237D1*
X-358411Y947737D1*
X-356161Y945237D1*
X-352468Y942737D1*
X-346718Y940237D1*
X-339700Y937737D1*
X-344700Y997737D2*
X-340587Y995237D1*
X-337343Y992737D1*
X-335059Y990237D1*
X-333518Y987737D1*
X-332412Y985237D1*
X-331442Y982737D1*
X-330642Y980237D1*
X-330144Y977737D1*
X-329889Y975237D1*
X-329774Y972737D1*
X-329728Y970237D1*
X-329710Y967737D1*
X-329703Y965237D1*
X-329711Y962737D1*
X-329798Y960237D1*
X-330116Y957737D1*
X-330725Y955237D1*
X-331454Y952737D1*
X-332228Y950237D1*
X-333293Y947737D1*
X-334715Y945237D1*
X-339157Y942737D1*
X-346136Y940237D1*
X-354700Y937737D1*
X512800Y997737D2*
Y995237D1*
Y992737D1*
Y990237D1*
Y987737D1*
Y985237D1*
Y982737D1*
Y980237D1*
Y977737D1*
Y975237D1*
X487800D1*
Y972737D1*
Y970237D1*
Y967737D1*
Y965237D1*
X512800D1*
Y962737D1*
Y960237D1*
Y957737D1*
Y955237D1*
Y952737D1*
Y950237D1*
Y947737D1*
Y945237D1*
Y942737D1*
Y940237D1*
Y937737D1*
X570300Y997737D2*
Y995237D1*
Y992737D1*
Y990237D1*
Y987737D1*
Y985237D1*
Y982737D1*
Y980237D1*
Y977737D1*
Y975237D1*
X542800D1*
Y972737D1*
Y970237D1*
Y967737D1*
Y965237D1*
X570300D1*
Y962737D1*
Y960237D1*
Y957737D1*
Y955237D1*
Y952737D1*
Y950237D1*
Y947737D1*
Y945237D1*
Y942737D1*
Y940237D1*
Y937737D1*
Y935237D1*
Y932737D1*
Y930237D1*
X630300Y997737D2*
Y995237D1*
Y992737D1*
Y990237D1*
Y987737D1*
Y985237D1*
Y982737D1*
Y980237D1*
Y977737D1*
Y975237D1*
X605300D1*
Y972737D1*
Y970237D1*
Y967737D1*
Y965237D1*
X630300D1*
Y962737D1*
Y960237D1*
Y957737D1*
Y955237D1*
Y952737D1*
Y950237D1*
Y947737D1*
Y945237D1*
Y942737D1*
Y940237D1*
Y937737D1*
X-614700Y987737D2*
Y985237D1*
Y982737D1*
Y980237D1*
Y977737D1*
Y975237D1*
Y972737D1*
Y970237D1*
Y967737D1*
Y965237D1*
Y962737D1*
Y960237D1*
Y957737D1*
Y955237D1*
Y952737D1*
Y950237D1*
Y947737D1*
Y945237D1*
Y942737D1*
Y940237D1*
Y937737D1*
Y935237D1*
Y932737D1*
Y930237D1*
X-612200Y987737D2*
X-607200Y985237D1*
X-602200Y982737D1*
X-164700Y987737D2*
Y985237D1*
Y982737D1*
Y980237D1*
Y977737D1*
Y975237D1*
Y972737D1*
Y970237D1*
Y967737D1*
Y965237D1*
Y962737D1*
Y960237D1*
Y957737D1*
Y955237D1*
Y952737D1*
Y950237D1*
Y947737D1*
Y945237D1*
Y942737D1*
Y940237D1*
Y937737D1*
Y935237D1*
Y932737D1*
Y930237D1*
X-162200Y987737D2*
X-157200Y985237D1*
X-152200Y982737D1*
X-147200Y980237D1*
X-67200Y987737D2*
Y985237D1*
Y982737D1*
Y980237D1*
Y977737D1*
Y975237D1*
Y972737D1*
Y970237D1*
Y967737D1*
Y965237D1*
Y962737D1*
Y960237D1*
Y957737D1*
Y955237D1*
Y952737D1*
Y950237D1*
Y947737D1*
Y945237D1*
Y942737D1*
Y940237D1*
Y937737D1*
Y935237D1*
Y932737D1*
Y930237D1*
X-64700Y987737D2*
X-59700Y985237D1*
X-54700Y982737D1*
X-49700Y980237D1*
X307800Y985237D2*
X307414Y982737D1*
X306784Y980237D1*
X306049Y977737D1*
X305292Y975237D1*
X304452Y972737D1*
X303617Y970237D1*
X302818Y967737D1*
X301961Y965237D1*
X301112Y962737D1*
X300242Y960237D1*
X299124Y957737D1*
X297800Y955237D1*
X317800Y952737D1*
X312800Y985237D2*
X313186Y982737D1*
X313816Y980237D1*
X314551Y977737D1*
X315308Y975237D1*
X316148Y972737D1*
X316983Y970237D1*
X317792Y967737D1*
X318727Y965237D1*
X319801Y962737D1*
X320905Y960237D1*
X321912Y957737D1*
X322800Y955237D1*
X300300Y952737D1*
X100300Y967737D2*
Y965237D1*
Y962737D1*
Y960237D1*
Y957737D1*
Y955237D1*
Y952737D1*
Y950237D1*
Y947737D1*
Y945237D1*
Y942737D1*
Y940237D1*
Y937737D1*
Y935237D1*
Y932737D1*
Y930237D1*
X137800Y967737D2*
Y965237D1*
Y962737D1*
Y960237D1*
Y957737D1*
Y955237D1*
Y952737D1*
Y950237D1*
Y947737D1*
Y945237D1*
Y942737D1*
Y940237D1*
Y937737D1*
Y935237D1*
Y932737D1*
Y930237D1*
X440300Y962737D2*
X438196Y960237D1*
X436404Y957737D1*
X434870Y955237D1*
X433416Y952737D1*
X431877Y950237D1*
X430248Y947737D1*
X428710Y945237D1*
X427293Y942737D1*
X425887Y940237D1*
X424374Y937737D1*
X422812Y935237D1*
X421459Y932737D1*
X420300Y930237D1*
X442800Y962737D2*
X445205Y960237D1*
X447375Y957737D1*
X449178Y955237D1*
X450620Y952737D1*
X451669Y950237D1*
X452281Y947737D1*
X452583Y945237D1*
X452716Y942737D1*
X452769Y940237D1*
X452789Y937737D1*
X452796Y935237D1*
X452799Y932737D1*
X452800Y930237D1*
X-687200Y960237D2*
X-684795Y957737D1*
X-682616Y955237D1*
X-680715Y952737D1*
X-678856Y950237D1*
X-676792Y947737D1*
X-674524Y945237D1*
X-672130Y942737D1*
X-669674Y940237D1*
X-667191Y937737D1*
X-664697Y935237D1*
X-662200Y932737D1*
X-664700Y930237D1*
X-679700Y960237D2*
X-677200Y957737D1*
X-417200Y960237D2*
X-414795Y957737D1*
X-412616Y955237D1*
X-410715Y952737D1*
X-408856Y950237D1*
X-406792Y947737D1*
X-404524Y945237D1*
X-402130Y942737D1*
X-399674Y940237D1*
X-397191Y937737D1*
X-394697Y935237D1*
X-392200Y932737D1*
X-394700Y930237D1*
X-409700Y960237D2*
X-407200Y957737D1*
X-454700Y942737D2*
X-455844Y940237D1*
X-456467Y937737D1*
X-456685Y935237D1*
X-455817Y932737D1*
X-454700Y930237D1*
X-447200Y942737D2*
X-446056Y940237D1*
X-445433Y937737D1*
X-445215Y935237D1*
X-446083Y932737D1*
X-447200Y930237D1*
X-119700Y942737D2*
X-120844Y940237D1*
X-121467Y937737D1*
X-121685Y935237D1*
X-120817Y932737D1*
X-119700Y930237D1*
X-112200Y942737D2*
X-111056Y940237D1*
X-110433Y937737D1*
X-110215Y935237D1*
X-111083Y932737D1*
X-112200Y930237D1*
X297800Y945237D2*
X295782Y942737D1*
X294232Y940237D1*
X293074Y937737D1*
X292047Y935237D1*
X291121Y932737D1*
X290300Y930237D1*
X327800Y945237D2*
X327895Y942737D1*
X328225Y940237D1*
X328920Y937737D1*
X329954Y935237D1*
X331283Y932737D1*
X332800Y930237D1*
X-522200Y937737D2*
Y935237D1*
Y932737D1*
Y930237D1*
X475300Y937737D2*
Y935237D1*
Y932737D1*
Y930237D1*
X592800Y937737D2*
Y935237D1*
Y932737D1*
Y930237D1*
X27800Y920237D2*
Y917737D1*
Y915237D1*
X82800Y920237D2*
Y917737D1*
Y915237D1*
X222800Y920237D2*
Y917737D1*
Y915237D1*
X277800Y920237D2*
Y917737D1*
Y915237D1*
X-300390Y-1398850D2*
D13*
Y-1402183D1*
Y-1405517D1*
Y-1408850D1*
Y-1412183D1*
Y-1415517D1*
Y-1418850D1*
Y-1422183D1*
Y-1425517D1*
Y-1428850D1*
Y-1432183D1*
Y-1435517D1*
Y-1438850D1*
Y-1442183D1*
Y-1445517D1*
X-300403Y-1448850D1*
X-300520Y-1452183D1*
X-300997Y-1455517D1*
X-301881Y-1458850D1*
X-304457Y-1462183D1*
X-310225Y-1465517D1*
X-317057Y-1468850D1*
X-277057Y-1398850D2*
Y-1402183D1*
Y-1405517D1*
Y-1408850D1*
Y-1412183D1*
Y-1415517D1*
Y-1418850D1*
Y-1422183D1*
Y-1425517D1*
Y-1428850D1*
Y-1432183D1*
Y-1435517D1*
Y-1438850D1*
Y-1442183D1*
Y-1445517D1*
Y-1448850D1*
Y-1452183D1*
X-277070Y-1455517D1*
X-277187Y-1458850D1*
X-277612Y-1462183D1*
X-278423Y-1465517D1*
X-279408Y-1468850D1*
X-280544Y-1472183D1*
X-282207Y-1475517D1*
X-284582Y-1478850D1*
X-287684Y-1482183D1*
X-291835Y-1485517D1*
X-297359Y-1488850D1*
X-303723Y-1492183D1*
X-173723Y-1398850D2*
Y-1402183D1*
Y-1405517D1*
Y-1408850D1*
Y-1412183D1*
Y-1415517D1*
Y-1418850D1*
Y-1422183D1*
Y-1425517D1*
Y-1428850D1*
Y-1432183D1*
Y-1435517D1*
Y-1438850D1*
Y-1442183D1*
Y-1445517D1*
Y-1448850D1*
Y-1452183D1*
Y-1455517D1*
Y-1458850D1*
Y-1462183D1*
Y-1465517D1*
Y-1468850D1*
Y-1472183D1*
Y-1475517D1*
Y-1478850D1*
Y-1482183D1*
Y-1485517D1*
Y-1488850D1*
Y-1492183D1*
X-150390Y-1398850D2*
Y-1402183D1*
Y-1405517D1*
Y-1408850D1*
Y-1412183D1*
Y-1415517D1*
Y-1418850D1*
Y-1422183D1*
Y-1425517D1*
Y-1428850D1*
Y-1432183D1*
Y-1435517D1*
Y-1438850D1*
Y-1442183D1*
Y-1445517D1*
Y-1448850D1*
Y-1452183D1*
Y-1455517D1*
Y-1458850D1*
Y-1462183D1*
Y-1465517D1*
Y-1468850D1*
Y-1472183D1*
Y-1475517D1*
Y-1478850D1*
Y-1482183D1*
Y-1485517D1*
Y-1488850D1*
Y-1492183D1*
X-33723Y-1398850D2*
Y-1402183D1*
Y-1405517D1*
Y-1408850D1*
Y-1412183D1*
Y-1415517D1*
Y-1418850D1*
Y-1422183D1*
Y-1425517D1*
X-47057D1*
Y-1428850D1*
Y-1432183D1*
Y-1435517D1*
Y-1438850D1*
Y-1442183D1*
Y-1445517D1*
Y-1448850D1*
Y-1452183D1*
X-33723D1*
X-34505Y-1455517D1*
X-35862Y-1458850D1*
X-39079Y-1462183D1*
X-42253Y-1465517D1*
X-44966Y-1468850D1*
X-46039Y-1472183D1*
X-46622Y-1475517D1*
X-46886Y-1478850D1*
X-46994Y-1482183D1*
X-47034Y-1485517D1*
X-47049Y-1488850D1*
X-47057Y-1492183D1*
X-10390Y-1398850D2*
Y-1402183D1*
Y-1405517D1*
Y-1408850D1*
Y-1412183D1*
Y-1415517D1*
Y-1418850D1*
Y-1422183D1*
Y-1425517D1*
Y-1428850D1*
Y-1432183D1*
Y-1435517D1*
Y-1438850D1*
Y-1442183D1*
Y-1445517D1*
Y-1448850D1*
Y-1452183D1*
Y-1455517D1*
X-10403Y-1458850D1*
X-10520Y-1462183D1*
X-10958Y-1465517D1*
X-11887Y-1468850D1*
X-13296Y-1472183D1*
X-15231Y-1475517D1*
X-17761Y-1478850D1*
X-20819Y-1482183D1*
X-24491Y-1485517D1*
X-28890Y-1488850D1*
X-33723Y-1492183D1*
X42943Y-1398850D2*
Y-1402183D1*
Y-1405517D1*
Y-1408850D1*
Y-1412183D1*
Y-1415517D1*
Y-1418850D1*
Y-1422183D1*
Y-1425517D1*
Y-1428850D1*
X42930Y-1432183D1*
X42803Y-1435517D1*
X42288Y-1438850D1*
X41149Y-1442183D1*
X39610Y-1445517D1*
X66277Y-1398850D2*
Y-1402183D1*
Y-1405517D1*
Y-1408850D1*
Y-1412183D1*
Y-1415517D1*
Y-1418850D1*
Y-1422183D1*
Y-1425517D1*
Y-1428850D1*
Y-1432183D1*
Y-1435517D1*
Y-1438850D1*
Y-1442183D1*
Y-1445517D1*
Y-1448850D1*
Y-1452183D1*
Y-1455517D1*
Y-1458850D1*
Y-1462183D1*
Y-1465517D1*
Y-1468850D1*
Y-1472183D1*
Y-1475517D1*
Y-1478850D1*
Y-1482183D1*
Y-1485517D1*
Y-1488850D1*
Y-1492183D1*
X162943Y-1398850D2*
Y-1402183D1*
Y-1405517D1*
Y-1408850D1*
X162969Y-1412183D1*
X163217Y-1415517D1*
X163803Y-1418850D1*
X166110Y-1422183D1*
X168689Y-1425517D1*
X170724Y-1428850D1*
X171928Y-1432183D1*
X172522Y-1435517D1*
X172790Y-1438850D1*
X172943Y-1442183D1*
X162943D1*
Y-1445517D1*
Y-1448850D1*
Y-1452183D1*
Y-1455517D1*
Y-1458850D1*
Y-1462183D1*
Y-1465517D1*
Y-1468850D1*
X172943D1*
Y-1472183D1*
Y-1475517D1*
Y-1478850D1*
Y-1482183D1*
Y-1485517D1*
Y-1488850D1*
Y-1492183D1*
Y-1398850D2*
X178204Y-1402183D1*
X182893Y-1405517D1*
X186762Y-1408850D1*
X189909Y-1412183D1*
X192503Y-1415517D1*
X194348Y-1418850D1*
X195403Y-1422183D1*
X195915Y-1425517D1*
X196137Y-1428850D1*
X196225Y-1432183D1*
X196259Y-1435517D1*
X196271Y-1438850D1*
X196275Y-1442183D1*
X196276Y-1445517D1*
Y-1448850D1*
X196277Y-1452183D1*
Y-1455517D1*
Y-1458850D1*
Y-1462183D1*
Y-1465517D1*
Y-1468850D1*
Y-1472183D1*
Y-1475517D1*
Y-1478850D1*
Y-1482183D1*
Y-1485517D1*
Y-1488850D1*
Y-1492183D1*
X-663723Y-1425517D2*
X-668468Y-1428850D1*
X-672319Y-1432183D1*
X-675207Y-1435517D1*
X-677346Y-1438850D1*
X-678831Y-1442183D1*
X-679681Y-1445517D1*
X-680095Y-1448850D1*
X-680276Y-1452183D1*
X-680348Y-1455517D1*
X-680375Y-1458850D1*
X-680385Y-1462183D1*
X-680388Y-1465517D1*
X-680389Y-1468850D1*
X-680390Y-1472183D1*
Y-1475517D1*
Y-1478850D1*
Y-1482183D1*
Y-1485517D1*
Y-1488850D1*
Y-1492183D1*
X-647057Y-1425517D2*
X-635702Y-1428850D1*
X-623723Y-1432183D1*
X-620390Y-1425517D2*
X-631744Y-1428850D1*
X-643723Y-1432183D1*
X-603723Y-1425517D2*
X-598864Y-1428850D1*
X-594704Y-1432183D1*
X-591441Y-1435517D1*
X-588880Y-1438850D1*
X-587942Y-1442183D1*
X-587434Y-1445517D1*
X-587205Y-1448850D1*
X-587111Y-1452183D1*
X-587076Y-1455517D1*
X-587063Y-1458850D1*
X-587059Y-1462183D1*
X-587057Y-1465517D1*
Y-1468850D1*
Y-1472183D1*
Y-1475517D1*
Y-1478850D1*
Y-1482183D1*
Y-1485517D1*
Y-1488850D1*
Y-1492183D1*
X-547057Y-1425517D2*
X-551929Y-1428850D1*
X-556206Y-1432183D1*
X-559907Y-1435517D1*
X-563017Y-1438850D1*
X-565509Y-1442183D1*
X-567466Y-1445517D1*
X-568876Y-1448850D1*
X-569697Y-1452183D1*
X-570101Y-1455517D1*
X-570264Y-1458850D1*
X-570218Y-1462183D1*
X-569807Y-1465517D1*
X-568888Y-1468850D1*
X-567482Y-1472183D1*
X-565549Y-1475517D1*
X-563019Y-1478850D1*
X-559961Y-1482183D1*
X-556289Y-1485517D1*
X-551890Y-1488850D1*
X-547057Y-1492183D1*
X-523723Y-1425517D2*
X-517725Y-1428850D1*
X-512559Y-1432183D1*
X-508547Y-1435517D1*
X-505601Y-1438850D1*
X-503430Y-1442183D1*
X-501821Y-1445517D1*
X-500545Y-1448850D1*
X-499345Y-1452183D1*
X-498427Y-1455517D1*
X-497925Y-1458850D1*
X-498605Y-1462183D1*
X-499476Y-1465517D1*
X-500446Y-1468850D1*
X-501664Y-1472183D1*
X-503220Y-1475517D1*
X-505341Y-1478850D1*
X-508433Y-1482183D1*
X-512713Y-1485517D1*
X-517998Y-1488850D1*
X-523723Y-1492183D1*
X-460390Y-1425517D2*
X-466801Y-1428850D1*
X-472036Y-1432183D1*
X-476208Y-1435517D1*
X-479390Y-1438850D1*
X-481824Y-1442183D1*
X-482844Y-1445517D1*
X-480207Y-1448850D1*
X-477057Y-1452183D1*
X-440390Y-1425517D2*
X-434391Y-1428850D1*
X-429226Y-1432183D1*
X-425214Y-1435517D1*
X-422268Y-1438850D1*
X-420110Y-1442183D1*
X-418618Y-1445517D1*
X-417767Y-1448850D1*
X-417352Y-1452183D1*
X-417171Y-1455517D1*
X-417099Y-1458850D1*
X-417085Y-1462183D1*
X-417205Y-1465517D1*
X-417744Y-1468850D1*
X-418979Y-1472183D1*
X-420774Y-1475517D1*
X-422896Y-1478850D1*
X-425693Y-1482183D1*
X-429691Y-1485517D1*
X-434794Y-1488850D1*
X-440390Y-1492183D1*
X-323723Y-1425517D2*
X-329608Y-1428850D1*
X-334463Y-1432183D1*
X-338101Y-1435517D1*
X-340991Y-1438850D1*
X-343422Y-1442183D1*
X-345186Y-1445517D1*
X-346205Y-1448850D1*
X-346703Y-1452183D1*
X-346920Y-1455517D1*
X-347006Y-1458850D1*
X-347026Y-1462183D1*
X-346907Y-1465517D1*
X-346369Y-1468850D1*
X-345122Y-1472183D1*
X-343222Y-1475517D1*
X-340793Y-1478850D1*
X-337623Y-1482183D1*
X-333589Y-1485517D1*
X-328847Y-1488850D1*
X-323723Y-1492183D1*
X-307057Y-1425517D2*
Y-1428850D1*
Y-1432183D1*
Y-1435517D1*
X-307109Y-1438850D1*
X-307265Y-1442183D1*
X-308723Y-1445517D1*
X-312854Y-1448850D1*
X-317186Y-1452183D1*
X-320430Y-1455517D1*
X-322802Y-1458850D1*
X-320026Y-1462183D1*
X-312574Y-1465517D1*
X-303723Y-1468850D1*
X-237057Y-1425517D2*
X-242941Y-1428850D1*
X-247784Y-1432183D1*
X-251317Y-1435517D1*
X-253899Y-1438850D1*
X-255957Y-1442183D1*
X-257665Y-1445517D1*
X-258957Y-1448850D1*
X-259727Y-1452183D1*
X-260112Y-1455517D1*
X-260281Y-1458850D1*
X-260350Y-1462183D1*
X-260376Y-1465517D1*
X-260385Y-1468850D1*
X-260388Y-1472183D1*
X-260389Y-1475517D1*
X-260390Y-1478850D1*
Y-1482183D1*
Y-1485517D1*
Y-1488850D1*
Y-1492183D1*
X-213723Y-1425517D2*
X-207725Y-1428850D1*
X-202559Y-1432183D1*
X-198547Y-1435517D1*
X-195601Y-1438850D1*
X-193443Y-1442183D1*
X-191938Y-1445517D1*
X-190960Y-1448850D1*
X-190029Y-1452183D1*
X-188702Y-1455517D1*
X-187057Y-1458850D1*
X-188608Y-1462183D1*
X-189683Y-1465517D1*
X-190605Y-1468850D1*
X-191749Y-1472183D1*
X-193258Y-1475517D1*
X-195356Y-1478850D1*
X-198439Y-1482183D1*
X-202715Y-1485517D1*
X-207998Y-1488850D1*
X-213723Y-1492183D1*
X-107057Y-1425517D2*
X-112941Y-1428850D1*
X-117784Y-1432183D1*
X-121317Y-1435517D1*
X-123899Y-1438850D1*
X-125957Y-1442183D1*
X-127665Y-1445517D1*
X-128957Y-1448850D1*
X-129727Y-1452183D1*
X-130112Y-1455517D1*
X-130281Y-1458850D1*
X-130350Y-1462183D1*
X-130376Y-1465517D1*
X-130385Y-1468850D1*
X-130388Y-1472183D1*
X-130389Y-1475517D1*
X-130390Y-1478850D1*
Y-1482183D1*
Y-1485517D1*
Y-1488850D1*
Y-1492183D1*
X-83723Y-1425517D2*
X-77725Y-1428850D1*
X-72559Y-1432183D1*
X-68547Y-1435517D1*
X-65601Y-1438850D1*
X-63443Y-1442183D1*
X-61938Y-1445517D1*
X-60960Y-1448850D1*
X-60029Y-1452183D1*
X-58702Y-1455517D1*
X-57057Y-1458850D1*
X-58608Y-1462183D1*
X-59683Y-1465517D1*
X-60605Y-1468850D1*
X-61749Y-1472183D1*
X-63258Y-1475517D1*
X-65356Y-1478850D1*
X-68439Y-1482183D1*
X-72715Y-1485517D1*
X-77998Y-1488850D1*
X-83723Y-1492183D1*
X2943Y-1425517D2*
X5010Y-1428850D1*
X6911Y-1432183D1*
X8696Y-1435517D1*
X10421Y-1438850D1*
X12197Y-1442183D1*
X14149Y-1445517D1*
X16277Y-1448850D1*
X14611Y-1452183D1*
X13213Y-1455517D1*
X11813Y-1458850D1*
X10305Y-1462183D1*
X8721Y-1465517D1*
X7100Y-1468850D1*
X5554Y-1472183D1*
X4210Y-1475517D1*
X3026Y-1478850D1*
X1724Y-1482183D1*
X178Y-1485517D1*
X-1663Y-1488850D1*
X-3723Y-1492183D1*
X29610Y-1425517D2*
X30876Y-1428850D1*
X32309Y-1432183D1*
X33867Y-1435517D1*
X35573Y-1438850D1*
X37497Y-1442183D1*
X39610Y-1445517D1*
X102943Y-1425517D2*
X98071Y-1428850D1*
X93794Y-1432183D1*
X90106Y-1435517D1*
X87100Y-1438850D1*
X84916Y-1442183D1*
X83333Y-1445517D1*
X81978Y-1448850D1*
X80885Y-1452183D1*
X80206Y-1455517D1*
X79843Y-1458850D1*
X79610Y-1462183D1*
X126277Y-1425517D2*
X132275Y-1428850D1*
X137441Y-1432183D1*
X141453Y-1435517D1*
X144399Y-1438850D1*
X146570Y-1442183D1*
X148179Y-1445517D1*
X149455Y-1448850D1*
X150655Y-1452183D1*
X151573Y-1455517D1*
X152075Y-1458850D1*
X151395Y-1462183D1*
X150524Y-1465517D1*
X149554Y-1468850D1*
X148336Y-1472183D1*
X146780Y-1475517D1*
X144659Y-1478850D1*
X141567Y-1482183D1*
X137287Y-1485517D1*
X132002Y-1488850D1*
X126277Y-1492183D1*
X232943Y-1425517D2*
X228071Y-1428850D1*
X223794Y-1432183D1*
X220106Y-1435517D1*
X217100Y-1438850D1*
X214916Y-1442183D1*
X213333Y-1445517D1*
X211978Y-1448850D1*
X210885Y-1452183D1*
X210206Y-1455517D1*
X209843Y-1458850D1*
X209610Y-1462183D1*
X256277Y-1425517D2*
X262275Y-1428850D1*
X267441Y-1432183D1*
X271453Y-1435517D1*
X274399Y-1438850D1*
X276570Y-1442183D1*
X278179Y-1445517D1*
X279455Y-1448850D1*
X280655Y-1452183D1*
X281573Y-1455517D1*
X282075Y-1458850D1*
X281395Y-1462183D1*
X280524Y-1465517D1*
X279554Y-1468850D1*
X278336Y-1472183D1*
X276780Y-1475517D1*
X274659Y-1478850D1*
X271567Y-1482183D1*
X267287Y-1485517D1*
X262002Y-1488850D1*
X256277Y-1492183D1*
X352943Y-1425517D2*
Y-1428850D1*
Y-1432183D1*
Y-1435517D1*
Y-1438850D1*
Y-1442183D1*
Y-1445517D1*
Y-1448850D1*
Y-1452183D1*
Y-1455517D1*
Y-1458850D1*
Y-1462183D1*
X352956Y-1465517D1*
X353074Y-1468850D1*
X353511Y-1472183D1*
X354440Y-1475517D1*
X355863Y-1478850D1*
X357924Y-1482183D1*
X360954Y-1485517D1*
X365004Y-1488850D1*
X369610Y-1492183D1*
X376277Y-1425517D2*
Y-1428850D1*
Y-1432183D1*
Y-1435517D1*
Y-1438850D1*
Y-1442183D1*
Y-1445517D1*
Y-1448850D1*
Y-1452183D1*
X376303Y-1455517D1*
X376557Y-1458850D1*
X377162Y-1462183D1*
X379760Y-1465517D1*
X382943Y-1468850D1*
X389610Y-1425517D2*
Y-1428850D1*
Y-1432183D1*
Y-1435517D1*
Y-1438850D1*
Y-1442183D1*
Y-1445517D1*
Y-1448850D1*
X389597Y-1452183D1*
X389441Y-1455517D1*
X389050Y-1458850D1*
X386990Y-1462183D1*
X382032Y-1465517D1*
X376277Y-1468850D1*
X412943Y-1425517D2*
Y-1428850D1*
Y-1432183D1*
Y-1435517D1*
Y-1438850D1*
Y-1442183D1*
Y-1445517D1*
Y-1448850D1*
Y-1452183D1*
X412969Y-1455517D1*
X413223Y-1458850D1*
X413829Y-1462183D1*
X416426Y-1465517D1*
X419610Y-1468850D1*
X422943Y-1425517D2*
Y-1428850D1*
Y-1432183D1*
Y-1435517D1*
Y-1438850D1*
Y-1442183D1*
Y-1445517D1*
Y-1448850D1*
Y-1452183D1*
X422917Y-1455517D1*
X422663Y-1458850D1*
X422058Y-1462183D1*
X419460Y-1465517D1*
X416277Y-1468850D1*
X446277Y-1425517D2*
Y-1428850D1*
Y-1432183D1*
Y-1435517D1*
Y-1438850D1*
Y-1442183D1*
Y-1445517D1*
Y-1448850D1*
Y-1452183D1*
Y-1455517D1*
Y-1458850D1*
Y-1462183D1*
Y-1465517D1*
X446264Y-1468850D1*
X446133Y-1472183D1*
X445578Y-1475517D1*
X444212Y-1478850D1*
X441877Y-1482183D1*
X438574Y-1485517D1*
X434344Y-1488850D1*
X429610Y-1492183D1*
X466277Y-1425517D2*
Y-1428850D1*
Y-1432183D1*
Y-1435517D1*
Y-1438850D1*
Y-1442183D1*
Y-1445517D1*
Y-1448850D1*
Y-1452183D1*
Y-1455517D1*
Y-1458850D1*
Y-1462183D1*
X466290Y-1465517D1*
X466407Y-1468850D1*
X466845Y-1472183D1*
X467773Y-1475517D1*
X469196Y-1478850D1*
X471257Y-1482183D1*
X474287Y-1485517D1*
X478337Y-1488850D1*
X482943Y-1492183D1*
X489610Y-1425517D2*
Y-1428850D1*
Y-1432183D1*
Y-1435517D1*
Y-1438850D1*
Y-1442183D1*
Y-1445517D1*
Y-1448850D1*
Y-1452183D1*
X489636Y-1455517D1*
X489890Y-1458850D1*
X490495Y-1462183D1*
X493093Y-1465517D1*
X496277Y-1468850D1*
X502943Y-1425517D2*
Y-1428850D1*
Y-1432183D1*
Y-1435517D1*
Y-1438850D1*
Y-1442183D1*
Y-1445517D1*
Y-1448850D1*
X502930Y-1452183D1*
X502774Y-1455517D1*
X502383Y-1458850D1*
X500323Y-1462183D1*
X495366Y-1465517D1*
X489610Y-1468850D1*
X526277Y-1425517D2*
Y-1428850D1*
Y-1432183D1*
Y-1435517D1*
Y-1438850D1*
Y-1442183D1*
Y-1445517D1*
Y-1448850D1*
Y-1452183D1*
X526303Y-1455517D1*
X526557Y-1458850D1*
X527162Y-1462183D1*
X529760Y-1465517D1*
X532943Y-1468850D1*
X536277Y-1425517D2*
Y-1428850D1*
Y-1432183D1*
Y-1435517D1*
Y-1438850D1*
Y-1442183D1*
Y-1445517D1*
Y-1448850D1*
Y-1452183D1*
X536251Y-1455517D1*
X535997Y-1458850D1*
X535391Y-1462183D1*
X532794Y-1465517D1*
X529610Y-1468850D1*
X559610Y-1425517D2*
Y-1428850D1*
Y-1432183D1*
Y-1435517D1*
Y-1438850D1*
Y-1442183D1*
Y-1445517D1*
Y-1448850D1*
Y-1452183D1*
Y-1455517D1*
Y-1458850D1*
Y-1462183D1*
Y-1465517D1*
X559597Y-1468850D1*
X559467Y-1472183D1*
X558912Y-1475517D1*
X557545Y-1478850D1*
X555210Y-1482183D1*
X551907Y-1485517D1*
X547677Y-1488850D1*
X542943Y-1492183D1*
X579610Y-1425517D2*
Y-1428850D1*
Y-1432183D1*
Y-1435517D1*
Y-1438850D1*
Y-1442183D1*
Y-1445517D1*
Y-1448850D1*
Y-1452183D1*
Y-1455517D1*
Y-1458850D1*
Y-1462183D1*
X579623Y-1465517D1*
X579740Y-1468850D1*
X580178Y-1472183D1*
X581107Y-1475517D1*
X582529Y-1478850D1*
X584591Y-1482183D1*
X587620Y-1485517D1*
X591670Y-1488850D1*
X596277Y-1492183D1*
X602943Y-1425517D2*
Y-1428850D1*
Y-1432183D1*
Y-1435517D1*
Y-1438850D1*
Y-1442183D1*
Y-1445517D1*
Y-1448850D1*
Y-1452183D1*
X602969Y-1455517D1*
X603223Y-1458850D1*
X603829Y-1462183D1*
X606426Y-1465517D1*
X609610Y-1468850D1*
X616277Y-1425517D2*
Y-1428850D1*
Y-1432183D1*
Y-1435517D1*
Y-1438850D1*
Y-1442183D1*
Y-1445517D1*
Y-1448850D1*
X616264Y-1452183D1*
X616107Y-1455517D1*
X615717Y-1458850D1*
X613656Y-1462183D1*
X608699Y-1465517D1*
X602943Y-1468850D1*
X639610Y-1425517D2*
Y-1428850D1*
Y-1432183D1*
Y-1435517D1*
Y-1438850D1*
Y-1442183D1*
Y-1445517D1*
Y-1448850D1*
Y-1452183D1*
X639636Y-1455517D1*
X639890Y-1458850D1*
X640495Y-1462183D1*
X643093Y-1465517D1*
X646277Y-1468850D1*
X649610Y-1425517D2*
Y-1428850D1*
Y-1432183D1*
Y-1435517D1*
Y-1438850D1*
Y-1442183D1*
Y-1445517D1*
Y-1448850D1*
Y-1452183D1*
X649584Y-1455517D1*
X649330Y-1458850D1*
X648725Y-1462183D1*
X646127Y-1465517D1*
X642943Y-1468850D1*
X672943Y-1425517D2*
Y-1428850D1*
Y-1432183D1*
Y-1435517D1*
Y-1438850D1*
Y-1442183D1*
Y-1445517D1*
Y-1448850D1*
Y-1452183D1*
Y-1455517D1*
Y-1458850D1*
Y-1462183D1*
Y-1465517D1*
X672930Y-1468850D1*
X672800Y-1472183D1*
X672245Y-1475517D1*
X670879Y-1478850D1*
X668544Y-1482183D1*
X665240Y-1485517D1*
X661011Y-1488850D1*
X656277Y-1492183D1*
X109610Y-1442183D2*
X106277Y-1445517D1*
X102943Y-1448850D1*
X119610Y-1452183D1*
Y-1455517D1*
Y-1458850D1*
Y-1462183D1*
Y-1442183D2*
X122288Y-1445517D1*
X124238Y-1448850D1*
X125354Y-1452183D1*
X125882Y-1455517D1*
X125934Y-1458850D1*
X125583Y-1462183D1*
X122914Y-1465517D1*
X116829Y-1468850D1*
X110465Y-1472183D1*
X105129Y-1475517D1*
X101223Y-1478850D1*
X98348Y-1482183D1*
X97184Y-1485517D1*
X99805Y-1488850D1*
X102943Y-1492183D1*
X239610Y-1442183D2*
X236277Y-1445517D1*
X232943Y-1448850D1*
X249610Y-1452183D1*
Y-1455517D1*
Y-1458850D1*
Y-1462183D1*
Y-1442183D2*
X252288Y-1445517D1*
X254238Y-1448850D1*
X255354Y-1452183D1*
X255882Y-1455517D1*
X255934Y-1458850D1*
X255583Y-1462183D1*
X252914Y-1465517D1*
X246829Y-1468850D1*
X240465Y-1472183D1*
X235129Y-1475517D1*
X231223Y-1478850D1*
X228348Y-1482183D1*
X227184Y-1485517D1*
X229805Y-1488850D1*
X232943Y-1492183D1*
X-657057Y-1448850D2*
Y-1452183D1*
Y-1455517D1*
Y-1458850D1*
Y-1462183D1*
Y-1465517D1*
Y-1468850D1*
Y-1472183D1*
Y-1475517D1*
Y-1478850D1*
Y-1482183D1*
Y-1485517D1*
Y-1488850D1*
Y-1492183D1*
X-650390Y-1448850D2*
X-647712Y-1452183D1*
X-645762Y-1455517D1*
X-644646Y-1458850D1*
X-644105Y-1462183D1*
X-643870Y-1465517D1*
X-643777Y-1468850D1*
X-643742Y-1472183D1*
X-643730Y-1475517D1*
X-643725Y-1478850D1*
X-643724Y-1482183D1*
Y-1485517D1*
X-643723Y-1488850D1*
Y-1492183D1*
X-620390Y-1448850D2*
Y-1452183D1*
Y-1455517D1*
Y-1458850D1*
Y-1462183D1*
Y-1465517D1*
Y-1468850D1*
Y-1472183D1*
Y-1475517D1*
Y-1478850D1*
Y-1482183D1*
Y-1485517D1*
Y-1488850D1*
Y-1492183D1*
X-610390Y-1448850D2*
Y-1452183D1*
Y-1455517D1*
Y-1458850D1*
Y-1462183D1*
Y-1465517D1*
Y-1468850D1*
Y-1472183D1*
Y-1475517D1*
Y-1478850D1*
Y-1482183D1*
Y-1485517D1*
Y-1488850D1*
Y-1492183D1*
X-540390Y-1448850D2*
X-543055Y-1452183D1*
X-545270Y-1455517D1*
X-545695Y-1458850D1*
X-544726Y-1462183D1*
X-536426Y-1465517D1*
X-527057Y-1468850D1*
X-530390Y-1448850D2*
X-527725Y-1452183D1*
X-525510Y-1455517D1*
X-525085Y-1458850D1*
X-526054Y-1462183D1*
X-534354Y-1465517D1*
X-543723Y-1468850D1*
X-457057Y-1448850D2*
X-460390Y-1452183D1*
X-447057Y-1448850D2*
X-444391Y-1452183D1*
X-442177Y-1455517D1*
X-441751Y-1458850D1*
X-442721Y-1462183D1*
X-451021Y-1465517D1*
X-460390Y-1468850D1*
X-230390Y-1448850D2*
X-233068Y-1452183D1*
X-235018Y-1455517D1*
X-236134Y-1458850D1*
X-236675Y-1462183D1*
X-236910Y-1465517D1*
X-237003Y-1468850D1*
X-237038Y-1472183D1*
X-237050Y-1475517D1*
X-237055Y-1478850D1*
X-237056Y-1482183D1*
Y-1485517D1*
X-237057Y-1488850D1*
Y-1492183D1*
X-220390Y-1448850D2*
X-217725Y-1452183D1*
X-215510Y-1455517D1*
X-215033Y-1458850D1*
X-216877Y-1462183D1*
X-221292Y-1465517D1*
X-225348Y-1468850D1*
X-228466Y-1472183D1*
X-229480Y-1475517D1*
X-230012Y-1478850D1*
X-230245Y-1482183D1*
X-230338Y-1485517D1*
X-230373Y-1488850D1*
X-230390Y-1492183D1*
X-100390Y-1448850D2*
X-103068Y-1452183D1*
X-105018Y-1455517D1*
X-106134Y-1458850D1*
X-106675Y-1462183D1*
X-106910Y-1465517D1*
X-107003Y-1468850D1*
X-107038Y-1472183D1*
X-107050Y-1475517D1*
X-107055Y-1478850D1*
X-107056Y-1482183D1*
Y-1485517D1*
X-107057Y-1488850D1*
Y-1492183D1*
X-90390Y-1448850D2*
X-87725Y-1452183D1*
X-85510Y-1455517D1*
X-85033Y-1458850D1*
X-86877Y-1462183D1*
X-91292Y-1465517D1*
X-95348Y-1468850D1*
X-98466Y-1472183D1*
X-99480Y-1475517D1*
X-100012Y-1478850D1*
X-100245Y-1482183D1*
X-100338Y-1485517D1*
X-100373Y-1488850D1*
X-100390Y-1492183D1*
X36277Y-1452183D2*
X36150Y-1455517D1*
X35709Y-1458850D1*
X34793Y-1462183D1*
X33514Y-1465517D1*
X32121Y-1468850D1*
X30840Y-1472183D1*
X29692Y-1475517D1*
X28514Y-1478850D1*
X27368Y-1482183D1*
X26202Y-1485517D1*
X24710Y-1488850D1*
X22943Y-1492183D1*
X42943Y-1452183D2*
Y-1455517D1*
Y-1458850D1*
Y-1462183D1*
Y-1465517D1*
Y-1468850D1*
Y-1472183D1*
Y-1475517D1*
Y-1478850D1*
Y-1482183D1*
Y-1485517D1*
Y-1488850D1*
Y-1492183D1*
X-487057Y-1462183D2*
X-485904Y-1465517D1*
X-484782Y-1468850D1*
X-483595Y-1472183D1*
X-481915Y-1475517D1*
X-479534Y-1478850D1*
X-476430Y-1482183D1*
X-472279Y-1485517D1*
X-466754Y-1488850D1*
X-460390Y-1492183D1*
X-463723Y-1462183D2*
X-454140Y-1465517D1*
X-443723Y-1468850D1*
X-387057Y-1462183D2*
X-390649Y-1465517D1*
X-393390Y-1468850D1*
X-395209Y-1472183D1*
X-396392Y-1475517D1*
X-396210Y-1478850D1*
X-395311Y-1482183D1*
X-393487Y-1485517D1*
X-390604Y-1488850D1*
X-387057Y-1492183D1*
X-373723Y-1462183D2*
X-371045Y-1465517D1*
X-369096Y-1468850D1*
X-367979Y-1472183D1*
X-367451Y-1475517D1*
X-367347Y-1478850D1*
X-367808Y-1482183D1*
X-369115Y-1485517D1*
X-371233Y-1488850D1*
X-373723Y-1492183D1*
X309610Y-1462183D2*
X306017Y-1465517D1*
X303276Y-1468850D1*
X301457Y-1472183D1*
X300274Y-1475517D1*
X300456Y-1478850D1*
X301356Y-1482183D1*
X303180Y-1485517D1*
X306063Y-1488850D1*
X309610Y-1492183D1*
X322943Y-1462183D2*
X325622Y-1465517D1*
X327571Y-1468850D1*
X328687Y-1472183D1*
X329216Y-1475517D1*
X329320Y-1478850D1*
X328859Y-1482183D1*
X327552Y-1485517D1*
X325433Y-1488850D1*
X322943Y-1492183D1*
X402943Y-1485517D2*
X396277Y-1488850D1*
X389610Y-1492183D1*
X399610Y-1485517D2*
X406277Y-1488850D1*
X412943Y-1492183D1*
X516277Y-1485517D2*
X509610Y-1488850D1*
X502943Y-1492183D1*
X512943Y-1485517D2*
X519610Y-1488850D1*
X526277Y-1492183D1*
X629610Y-1485517D2*
X622943Y-1488850D1*
X616277Y-1492183D1*
X626277Y-1485517D2*
X632943Y-1488850D1*
X639610Y-1492183D1*
M02*
