M48
METRIC,0000.00
T01C0.2
T02C0.3
T03C0.8
T04C0.9
T05C1.1
T06C1.5
%
T01
X+001169Y+001173
X+001024Y+000984
X+001380Y+001041
X+001514Y+001039
X+001382Y+000907
X-001180Y+001152
T02
X-001251Y-001250
X-001124Y-001055
X-001240Y-000573
X-000665Y-000400
X-000145Y-000564
X+000485Y-000423
X+000661Y-000325
X+000723Y-000154
X+000988Y+000064
X+001452Y+000611
X+000544Y-001014
X+000436Y-001013
X+000539Y-001131
T03
X-001450Y-000760
X-001450Y-001200
T04
X+001439Y-000533
X+001435Y-000279
X-001435Y-000279
X-001431Y-000533
X-001431Y+000285
X-001435Y+000539
T05
X+001290Y+000032G85X+001290Y-000028
X-001290Y+000028G85X-001290Y-000032
T06
X-001430Y+001430
X+001430Y+001430
X+001430Y-001430
X-001430Y-001430
T00
M30
