M48
INCH
T01C0.0118
T02C0.0315
T03C0.0354
T04C0.0433
T05C0.0591
%
T05
X-005630Y+005630
X+005630Y+005630
X-005630Y-005630
X+005630Y-005630
T03
X+005665Y-002098
X+005650Y-001098
X-005634Y-002098
X-005650Y-001098
X-005634Y+001122
X-005650Y+002122
T01
X+004601Y+004618
X-004646Y+004536
X-004923Y-004922
X-002616Y-001573
X-000571Y-002219
X+005434Y+004098
X+005960Y+004091
X+003586Y+004206
X+005439Y+003569
X-004883Y-002257
X+005623Y+001948
X-004425Y-004153
X+002121Y-004453
X+001908Y-001666
T02
X-005709Y-002992
X-005709Y-004724
T04
X+005079Y+000127G85X+005079Y-000110
X-005079Y+000110G85X-005079Y-000127
T01
X+002601Y-001281
X+002847Y-000605
X+003888Y+000253
X+002126Y-004054
X+001738Y-004057
X+004589Y+002515
T03
X+005650Y+001122
T01
X+004315Y+003208
T00
M30
