G04 DipTrace 3.2.0.1*
G04 TopMask.gbr*
%MOIN*%
G04 #@! TF.FileFunction,Soldermask,Top*
G04 #@! TF.Part,Single*
%AMOUTLINE1*
4,1,4,
-0.034804,0.001233,
-0.001552,0.034792,
0.034804,-0.001233,
0.001552,-0.034792,
-0.034804,0.001233,
0*%
%AMOUTLINE7*
4,1,4,
-0.023625,0.025586,
0.023616,0.025595,
0.023625,-0.025586,
-0.023616,-0.025595,
-0.023625,0.025586,
0*%
%AMOUTLINE10*
4,1,4,
-0.001753,-0.034783,
-0.034812,-0.00103,
0.001753,0.034783,
0.034812,0.00103,
-0.001753,-0.034783,
0*%
%AMOUTLINE13*
4,1,4,
0.025564,0.02365,
0.025617,-0.023594,
-0.025564,-0.02365,
-0.025617,0.023594,
0.025564,0.02365,
0*%
%AMOUTLINE16*
4,1,16,
-0.045255,-0.012331,
-0.040831,-0.031568,
-0.028213,-0.047336,
-0.010003,-0.056067,
0.010191,-0.056033,
0.028371,-0.047241,
0.040935,-0.031431,
0.045296,-0.012179,
0.045255,0.012331,
0.040831,0.031568,
0.028213,0.047336,
0.010003,0.056067,
-0.010191,0.056033,
-0.028371,0.047241,
-0.040935,0.031431,
-0.045296,0.012179,
-0.045255,-0.012331,
0*%
%AMOUTLINE22*
4,1,5,
-0.033465,0.051181,
0.033465,0.051181,
0.033465,-0.039032,
0.021316,-0.051181,
-0.033465,-0.051181,
-0.033465,0.051181,
0*%
%ADD32C,0.059055*%
%ADD36R,0.047244X0.07874*%
%ADD38R,0.03937X0.023622*%
%ADD45R,0.047244X0.051181*%
%ADD46R,0.055118X0.055118*%
%ADD48R,0.03937X0.074803*%
%ADD50R,0.074803X0.03937*%
%ADD52C,0.070866*%
%ADD54C,0.070866*%
%ADD61OUTLINE1*%
%ADD67OUTLINE7*%
%ADD70OUTLINE10*%
%ADD73OUTLINE13*%
%ADD76OUTLINE16*%
%ADD82OUTLINE22*%
%FSLAX26Y26*%
G04*
G70*
G90*
G75*
G01*
G04 TopMask*
%LPD*%
D45*
X-57178Y-336054D3*
Y-269125D3*
X-290571Y-267588D3*
Y-334517D3*
D61*
X-412190Y-384769D3*
X-364647Y-431877D3*
D32*
X-562992Y562992D3*
X562992D3*
X-562992Y-562992D3*
X562992D3*
D54*
X566535Y-209843D3*
D52*
X564961Y-109843D3*
D54*
X-563386Y-209843D3*
D52*
X-564961Y-109843D3*
D54*
X-563386Y112205D3*
D52*
X-564961Y212205D3*
D45*
X362575Y100598D3*
Y167528D3*
D67*
X21591Y-334516D3*
X21577Y-267587D3*
D70*
X-415478Y-159222D3*
X-367661Y-112390D3*
D73*
X189054Y-312559D3*
X122125Y-312633D3*
D50*
X-267717Y23622D3*
Y73622D3*
Y123622D3*
Y173622D3*
Y223622D3*
Y273622D3*
Y323622D3*
Y373622D3*
X267717Y23622D3*
Y73622D3*
Y123622D3*
Y173622D3*
Y223622D3*
Y273622D3*
Y323622D3*
Y373622D3*
Y423622D3*
Y473622D3*
D48*
X-25000Y-90551D3*
X25000D3*
X-75000Y-90157D3*
X75000Y-90551D3*
X-125000D3*
X125000D3*
X-175000D3*
X175000D3*
D46*
X-570866Y-299213D3*
Y-472441D3*
D76*
X507873Y852D3*
X-507873Y-850D3*
D38*
X-59021Y-587852D3*
Y-548482D3*
Y-509112D3*
X55152Y-587852D3*
Y-548482D3*
Y-509112D3*
D82*
X-1934Y-548482D3*
D36*
X-221862Y-252497D3*
X-123437D3*
D54*
X564961Y112205D3*
M02*
