G04 DipTrace 3.2.0.1*
G04 TopMask.gbr*
%MOMM*%
G04 #@! TF.FileFunction,Soldermask,Top*
G04 #@! TF.Part,Single*
%AMOUTLINE1*
4,1,4,
-0.88402,0.03132,
-0.03941,0.88372,
0.88402,-0.03132,
0.03941,-0.88372,
-0.88402,0.03132,
0*%
%AMOUTLINE7*
4,1,4,
-0.60008,0.64988,
0.59985,0.65012,
0.60008,-0.64988,
-0.59985,-0.65012,
-0.60008,0.64988,
0*%
%AMOUTLINE10*
4,1,4,
-0.04454,-0.88348,
-0.88421,-0.02616,
0.04454,0.88348,
0.88421,0.02616,
-0.04454,-0.88348,
0*%
%AMOUTLINE13*
4,1,4,
0.64932,0.60071,
0.65068,-0.59929,
-0.64932,-0.60071,
-0.65068,0.59929,
0.64932,0.60071,
0*%
%AMOUTLINE16*
4,1,16,
-1.14948,-0.3132,
-1.03711,-0.80182,
-0.71662,-1.20234,
-0.25409,-1.42411,
0.25886,-1.42323,
0.72062,-1.19992,
1.03975,-0.79835,
1.15052,-0.30933,
1.14948,0.3132,
1.03711,0.80182,
0.71662,1.20234,
0.25409,1.42411,
-0.25886,1.42323,
-0.72062,1.19992,
-1.03975,0.79835,
-1.15052,0.30933,
-1.14948,-0.3132,
0*%
%AMOUTLINE22*
4,1,5,
-0.85,1.3,
0.85,1.3,
0.85,-0.99142,
0.54142,-1.3,
-0.85,-1.3,
-0.85,1.3,
0*%
%ADD33C,1.5*%
%ADD37R,1.2X2.0*%
%ADD39R,1.0X0.6*%
%ADD46R,1.2X1.3*%
%ADD47R,1.4X1.4*%
%ADD49R,1.0X1.9*%
%ADD51R,1.9X1.0*%
%ADD53C,1.8*%
%ADD55C,1.8*%
%ADD61OUTLINE1*%
%ADD67OUTLINE7*%
%ADD70OUTLINE10*%
%ADD73OUTLINE13*%
%ADD76OUTLINE16*%
%ADD82OUTLINE22*%
%FSLAX35Y35*%
G04*
G71*
G90*
G75*
G01*
G04 TopMask*
%LPD*%
D46*
X-145233Y-853577D3*
Y-683577D3*
X-717743Y-677980D3*
Y-847980D3*
D61*
X-1046963Y-977313D3*
X-926203Y-1096967D3*
D33*
X-1430000Y1430000D3*
X1430000D3*
X-1430000Y-1430000D3*
X1430000D3*
D55*
X1439000Y-533000D3*
D53*
X1435000Y-279000D3*
D55*
X-1431000Y-533000D3*
D53*
X-1435000Y-279000D3*
D55*
X-1431000Y285000D3*
D53*
X-1435000Y539000D3*
D46*
X949603Y501213D3*
Y671213D3*
D67*
X54840Y-849670D3*
X54807Y-679670D3*
D70*
X-1055313Y-404423D3*
X-933860Y-285470D3*
D73*
X480197Y-793900D3*
X310197Y-794087D3*
D51*
X-680000Y60000D3*
Y187000D3*
Y314000D3*
Y441000D3*
Y568000D3*
Y695000D3*
Y822000D3*
Y949000D3*
X680000Y60000D3*
Y187000D3*
Y314000D3*
Y441000D3*
Y568000D3*
Y695000D3*
Y822000D3*
Y949000D3*
Y1076000D3*
Y1203000D3*
D49*
X-63500Y-230000D3*
X63500D3*
X-190500Y-229000D3*
X190500Y-230000D3*
X-317500D3*
X317500D3*
X-444500D3*
X444500D3*
D47*
X-1450000Y-760000D3*
Y-1200000D3*
D76*
X1289997Y2163D3*
X-1289997Y-2160D3*
D39*
X-149913Y-1493143D3*
Y-1393143D3*
Y-1293143D3*
X140087Y-1493143D3*
Y-1393143D3*
Y-1293143D3*
D82*
X-4913Y-1393143D3*
D37*
X-563530Y-641343D3*
X-313530D3*
M02*
