G04 DipTrace 3.2.0.1*
G04 TopPaste.gbr*
%MOIN*%
G04 #@! TF.FileFunction,Paste,Top*
G04 #@! TF.Part,Single*
%AMOUTLINE2*
4,1,4,
-0.023669,0.001284,
-0.001501,0.023657,
0.023669,-0.001284,
0.001501,-0.023657,
-0.023669,0.001284,
0*%
%AMOUTLINE8*
4,1,4,
-0.01575,0.017713,
0.015744,0.01772,
0.01575,-0.017713,
-0.015744,-0.01772,
-0.01575,0.017713,
0*%
%AMOUTLINE11*
4,1,4,
-0.001638,-0.023648,
-0.023677,-0.001146,
0.001638,0.023648,
0.023677,0.001146,
-0.001638,-0.023648,
0*%
%AMOUTLINE14*
4,1,4,
0.017699,0.015767,
0.017734,-0.015729,
-0.017699,-0.015767,
-0.017734,0.015729,
0.017699,0.015767,
0*%
%AMOUTLINE23*
4,1,5,
-0.025591,0.043307,
0.025591,0.043307,
0.025591,-0.035771,
0.018054,-0.043307,
-0.025591,-0.043307,
-0.025591,0.043307,
0*%
%ADD38R,0.031496X0.062992*%
%ADD40R,0.023622X0.007874*%
%ADD50R,0.023622X0.059055*%
%ADD52R,0.059055X0.023622*%
%ADD59R,0.031496X0.035433*%
%ADD62OUTLINE2*%
%ADD68OUTLINE8*%
%ADD71OUTLINE11*%
%ADD74OUTLINE14*%
%ADD83OUTLINE23*%
%FSLAX26Y26*%
G04*
G70*
G90*
G75*
G01*
G04 TopPaste*
%LPD*%
D59*
X-57178Y-336054D3*
Y-269125D3*
X-290571Y-267588D3*
Y-334517D3*
D62*
X-412190Y-384769D3*
X-364647Y-431877D3*
D59*
X373860Y197328D3*
Y264257D3*
D68*
X21591Y-334516D3*
X21577Y-267587D3*
D71*
X-415478Y-159222D3*
X-367661Y-112390D3*
D74*
X189054Y-312559D3*
X122125Y-312633D3*
D52*
X-267717Y23622D3*
Y73622D3*
Y123622D3*
Y173622D3*
Y223622D3*
Y273622D3*
Y323622D3*
Y373622D3*
X267717Y23622D3*
Y73622D3*
Y123622D3*
Y173622D3*
Y223622D3*
Y273622D3*
Y323622D3*
Y373622D3*
Y423622D3*
Y473622D3*
D50*
X-25000Y-90551D3*
X25000D3*
X-75000Y-90157D3*
X75000Y-90551D3*
X-125000D3*
X125000D3*
X-175000D3*
X175000D3*
D40*
X-59021Y-587852D3*
Y-548482D3*
Y-509112D3*
X55152Y-587852D3*
Y-548482D3*
Y-509112D3*
D83*
X-1934Y-548482D3*
D38*
X-221862Y-252497D3*
X-123437D3*
M02*
