G04 DipTrace 3.2.0.1*
G04 Верхний.gbr*
%MOIN*%
G04 #@! TF.FileFunction,Copper,L1,Top*
G04 #@! TF.Part,Single*
%AMOUTLINE0*
4,1,4,
-0.029236,0.001259,
-0.001526,0.029224,
0.029236,-0.001259,
0.001526,-0.029224,
-0.029236,0.001259,
0*%
%AMOUTLINE6*
4,1,4,
-0.019688,0.02165,
0.01968,0.021657,
0.019688,-0.02165,
-0.01968,-0.021657,
-0.019688,0.02165,
0*%
%AMOUTLINE9*
4,1,4,
-0.001696,-0.029215,
-0.029244,-0.001088,
0.001696,0.029215,
0.029244,0.001088,
-0.001696,-0.029215,
0*%
%AMOUTLINE12*
4,1,4,
0.021631,0.019709,
0.021676,-0.019661,
-0.021631,-0.019709,
-0.021676,0.019661,
0.021631,0.019709,
0*%
%AMOUTLINE15*
4,1,16,
-0.041319,-0.011881,
-0.037196,-0.02981,
-0.025701,-0.044175,
-0.009112,-0.052129,
0.009286,-0.052097,
0.025848,-0.044088,
0.037294,-0.029685,
0.041358,-0.011741,
0.041319,0.011881,
0.037196,0.02981,
0.025701,0.044175,
0.009112,0.052129,
-0.009286,0.052097,
-0.025848,0.044088,
-0.037294,0.029685,
-0.041358,0.011741,
-0.041319,-0.011881,
0*%
%AMOUTLINE21*
4,1,5,
-0.029528,0.047244,
0.029528,0.047244,
0.029528,-0.037402,
0.019685,-0.047244,
-0.029528,-0.047244,
-0.029528,0.047244,
0*%
%ADD15C,0.011811*%
%ADD33C,0.035433*%
%ADD34C,0.031496*%
%ADD35C,0.043307*%
G04 #@! TA.AperFunction,CopperBalancing*
%ADD10C,0.009843*%
G04 #@! TA.AperFunction,Conductor*
%ADD16C,0.007874*%
%ADD17C,0.019685*%
G04 #@! TA.AperFunction,ViaPad*
%ADD18C,0.023622*%
G04 #@! TA.AperFunction,CopperBalancing*
%ADD19C,0.015748*%
%ADD20R,0.03937X0.043307*%
G04 #@! TA.AperFunction,ComponentPad*
%ADD22C,0.062992*%
%ADD23C,0.062992*%
%ADD24R,0.066929X0.031496*%
%ADD25R,0.031496X0.066929*%
G04 #@! TA.AperFunction,ComponentPad*
%ADD26R,0.047244X0.047244*%
%ADD30R,0.031496X0.015748*%
%ADD31R,0.03937X0.070866*%
%ADD60OUTLINE0*%
%ADD66OUTLINE6*%
%ADD69OUTLINE9*%
%ADD72OUTLINE12*%
G04 #@! TA.AperFunction,ComponentPad*
%ADD75OUTLINE15*%
%ADD81OUTLINE21*%
%FSLAX26Y26*%
G04*
G70*
G90*
G75*
G01*
G04 Top*
%LPD*%
X-59021Y-587852D2*
D15*
X-145491D1*
X-249854Y-483488D1*
X-416636D1*
X-522412Y-377713D1*
Y-250816D1*
X-563386Y-209843D1*
X-549530D1*
X-408978Y-69290D1*
X-358499Y-18811D1*
Y36881D1*
X-319942Y75437D1*
X-269531D1*
X-267717Y73622D1*
X-367661Y-112390D2*
Y-110606D1*
X-408978Y-69290D1*
X564961Y112205D2*
D16*
Y121711D1*
X588718Y145469D1*
Y220846D1*
X558088Y251478D1*
X458940D1*
X267717Y273622D2*
D15*
X362256D1*
X409088Y320454D1*
X431188D1*
X431534Y320801D1*
X267717Y473622D2*
Y461832D1*
X460089D1*
X267717Y423622D2*
X355598D1*
X358621Y420598D1*
X267717Y373622D2*
X378760D1*
X414940Y409802D1*
X543394D1*
X267717Y323622D2*
X377930D1*
X411219Y356911D1*
X543906D1*
X25000Y-90551D2*
Y-155092D1*
X86844Y-216936D1*
X284161D1*
X363076Y-138021D1*
Y-70634D1*
X434562Y852D1*
X590892D1*
X615117Y25076D1*
Y267160D1*
X604461Y277816D1*
Y285332D1*
Y400622D1*
X595969Y409114D1*
X507873Y852D2*
D17*
X590892D1*
X604461Y285332D2*
D15*
X420598D1*
X362575Y227308D1*
Y167528D1*
X25000Y-90551D2*
Y-37997D1*
X35457Y-27541D1*
X116126D1*
X125579Y-36993D1*
Y-89972D1*
X125000Y-90551D1*
X507873Y852D2*
D16*
X593332D1*
X613761Y-19577D1*
Y-144605D1*
X598472Y-159894D1*
X418312D1*
X265885Y-312322D1*
X189291D1*
X189054Y-312559D1*
X75000Y-90551D2*
D17*
Y-142138D1*
X100144Y-167282D1*
X191719D1*
X262881D1*
X313421Y-116741D1*
Y-50306D1*
X388921Y25194D1*
X495064Y131337D1*
Y158829D1*
X530999Y194765D1*
X562346D1*
X190810Y-166601D2*
D15*
X191719Y-167282D1*
X-442453Y-415308D2*
Y-415031D1*
X-412190Y-384769D1*
X212079Y-445255D2*
X214299D1*
X111072Y-548482D1*
X55152D1*
X-290571Y-267588D2*
X-282685D1*
Y-178394D1*
X-261619Y-157328D1*
X-57178Y-269125D2*
Y-222022D1*
X-57104Y-221948D1*
X388848Y25268D2*
D17*
X388921Y25194D1*
X-492345Y-492186D2*
D10*
Y-460748D1*
X-565783Y-387310D1*
X-591383D1*
X-615188Y-363505D1*
Y262605D1*
X-502297Y375496D1*
X-269591D1*
X-267717Y373622D1*
X-464615Y453630D2*
D15*
X-139551D1*
X-122444Y436522D1*
Y238617D1*
X64816Y51357D1*
X191663D1*
X216286Y26734D1*
X267717D1*
Y23622D1*
X320646D1*
X362575Y65551D1*
Y100598D1*
X21591Y-334516D2*
X58365D1*
X65319Y-327562D1*
Y-267606D1*
X87274Y-245650D1*
X294400D1*
X434877Y-105173D1*
X560291D1*
X564961Y-109843D1*
X55152Y-587852D2*
X166012D1*
X248686Y-505177D1*
Y-369307D1*
X410751Y-207243D1*
X563936D1*
X566535Y-209843D1*
X-267717Y23622D2*
Y-109118D1*
X-350290Y-191692D1*
Y-350217D1*
X-292829Y-407677D1*
X-177503D1*
X-163678Y-393853D1*
X77316D1*
X101862Y-369307D1*
X122125D1*
X248686D1*
X122125Y-312633D2*
Y-369307D1*
X-75000Y-90157D2*
Y-140764D1*
X21577Y-237341D1*
Y-267587D1*
X-563386Y112205D2*
X-537407D1*
X-503307Y78105D1*
Y3715D1*
X-507873Y-850D1*
X-59021Y-548482D2*
X-145772D1*
X-258923Y-435331D1*
X-299424D1*
X-333018Y-401736D1*
X-488348Y-246407D1*
Y-225747D1*
X-364647Y-431877D2*
X-363159D1*
X-333018Y-401736D1*
X-488348Y-225747D2*
D16*
X-421823Y-159222D1*
D15*
X-415478D1*
X-564961Y-109843D2*
X-497698D1*
X-405264Y-17408D1*
Y42281D1*
X-323077Y124467D1*
X-268562D1*
X-267717Y123622D1*
X-175000Y-90551D2*
Y-132663D1*
X-221862Y-179525D1*
Y-252497D1*
X-290571Y-334517D2*
X-246949D1*
X-222980Y-310549D1*
Y-253615D1*
X-221862Y-252497D1*
X-123437D2*
X-125000D1*
Y-90551D1*
X-57178Y-336054D2*
X-104211D1*
X-124387Y-315878D1*
Y-253448D1*
D18*
X460089Y461832D3*
X-464615Y453630D3*
X-492345Y-492186D3*
X-261619Y-157328D3*
X-57104Y-221948D3*
X543394Y409802D3*
X595969Y409114D3*
X358621Y420598D3*
X543906Y356911D3*
X-488348Y-225747D3*
X562346Y194765D3*
X-442453Y-415308D3*
X212079Y-445255D3*
X190810Y-166601D3*
X260055Y-128097D3*
X284731Y-60507D3*
X388848Y25268D3*
X212615Y-405378D3*
X173818Y-405744D3*
X458940Y251478D3*
X431534Y320801D3*
X-506984Y535119D2*
D19*
X-494816D1*
X493938D2*
X506997D1*
X-518427Y519503D2*
X-477930D1*
X473853D2*
X518409D1*
X-609501Y503886D2*
X-580262D1*
X-545709D2*
X-452525D1*
X451430D2*
X545722D1*
X580276D2*
X608407D1*
X-609408Y488269D2*
X-476239D1*
X-453005D2*
X208432D1*
X486188D2*
X608407D1*
X-609440Y472652D2*
X-496816D1*
X-114361D2*
X208432D1*
X496060D2*
X608407D1*
X-609470Y457035D2*
X-502106D1*
X-98766D2*
X208432D1*
X497413D2*
X608407D1*
X-609470Y441419D2*
X-500138D1*
X-91108D2*
X208432D1*
X491385D2*
X524469D1*
X562312D2*
X578356D1*
X-609501Y425802D2*
X-489127D1*
X-90707D2*
X208432D1*
X-609501Y410185D2*
X-327001D1*
X-208419D2*
X-154173D1*
X-90707D2*
X208432D1*
X-609531Y394568D2*
X-526067D1*
X-208419D2*
X-154173D1*
X-90707D2*
X208432D1*
X-609562Y378951D2*
X-541661D1*
X-208419D2*
X-154173D1*
X-90707D2*
X208432D1*
X-609562Y363335D2*
X-557286D1*
X-208419D2*
X-154173D1*
X-90707D2*
X208432D1*
X-609593Y347718D2*
X-572911D1*
X-208419D2*
X-154173D1*
X-90707D2*
X208432D1*
X-609593Y332101D2*
X-588537D1*
X-502864D2*
X-327001D1*
X-208419D2*
X-154173D1*
X-90707D2*
X208432D1*
X-609623Y316484D2*
X-604160D1*
X-518488D2*
X-327001D1*
X-208419D2*
X-154173D1*
X-90707D2*
X208432D1*
X468902D2*
X572727D1*
X-534083Y300867D2*
X-327001D1*
X-208419D2*
X-154173D1*
X-90707D2*
X208432D1*
X-549707Y285251D2*
X-327001D1*
X-208419D2*
X-154173D1*
X-90707D2*
X208432D1*
X-565332Y269634D2*
X-327001D1*
X-208419D2*
X-154173D1*
X-90707D2*
X208432D1*
X-526516Y254017D2*
X-327001D1*
X-208419D2*
X-154173D1*
X-90707D2*
X208432D1*
X-514182Y238400D2*
X-327001D1*
X-208419D2*
X-154173D1*
X-78005D2*
X208432D1*
X327014D2*
X332930D1*
X417904D2*
X423755D1*
X-508646Y222783D2*
X-327001D1*
X-208419D2*
X-149682D1*
X-62379D2*
X208432D1*
X402280D2*
X435517D1*
X482373D2*
X545353D1*
X-507877Y207167D2*
X-327001D1*
X-208419D2*
X-135227D1*
X-46755D2*
X208432D1*
X408093D2*
X558948D1*
X-511598Y191550D2*
X-327001D1*
X-208419D2*
X-119601D1*
X-31160D2*
X208432D1*
X408093D2*
X558948D1*
X-521041Y175933D2*
X-327001D1*
X-208419D2*
X-103976D1*
X-15535D2*
X208432D1*
X408093D2*
X558948D1*
X-533652Y160316D2*
X-327001D1*
X-208419D2*
X-88382D1*
X89D2*
X208432D1*
X408093D2*
X535234D1*
X-516520Y144699D2*
X-347056D1*
X-208419D2*
X-72757D1*
X15684D2*
X208432D1*
X408093D2*
X518101D1*
X-508676Y129083D2*
X-362681D1*
X-208419D2*
X-57133D1*
X31308D2*
X208432D1*
X408093D2*
X510259D1*
X-494436Y113466D2*
X-378306D1*
X-208419D2*
X-41508D1*
X46934D2*
X208432D1*
X408093D2*
X507644D1*
X-478933Y97849D2*
X-393930D1*
X-208419D2*
X-25913D1*
X62559D2*
X208432D1*
X408093D2*
X509520D1*
X-471860Y82232D2*
X-409525D1*
X-208419D2*
X-10289D1*
X78154D2*
X208432D1*
X408093D2*
X516379D1*
X-471583Y66615D2*
X-425151D1*
X-208419D2*
X5337D1*
X408093D2*
X469566D1*
X-584433Y50999D2*
X-560115D1*
X-455681D2*
X-435701D1*
X-208419D2*
X20962D1*
X390560D2*
X454278D1*
X561421D2*
X583370D1*
X-584433Y35382D2*
X-570081D1*
X-445715D2*
X-436992D1*
X-208419D2*
X36556D1*
X376627D2*
X445236D1*
X570433D2*
X581186D1*
X-584433Y19765D2*
X-573650D1*
X-442117D2*
X-436975D1*
X-208419D2*
X179026D1*
X361003D2*
X409249D1*
X-584433Y4148D2*
X-575046D1*
X-208419D2*
X194713D1*
X345408D2*
X393625D1*
X-584433Y-11469D2*
X-574995D1*
X-208419D2*
X7306D1*
X144282D2*
X208432D1*
X327014D2*
X378030D1*
X-584433Y-27085D2*
X-572357D1*
X-327912D2*
X-299442D1*
X-235978D2*
X-4690D1*
X155633D2*
X362406D1*
X-584433Y-42702D2*
X-567682D1*
X-338155D2*
X-299442D1*
X-235978D2*
X-216581D1*
X216563D2*
X346780D1*
X435222D2*
X449112D1*
X566650D2*
X583984D1*
X-353780Y-58319D2*
X-299442D1*
X-235978D2*
X-216581D1*
X216563D2*
X333984D1*
X419627D2*
X461538D1*
X-339508Y-73936D2*
X-299442D1*
X-235978D2*
X-216581D1*
X216563D2*
X331340D1*
X404003D2*
X488543D1*
X-324190Y-89552D2*
X-299442D1*
X-235978D2*
X-216581D1*
X216563D2*
X331340D1*
X394806D2*
X406266D1*
X-313364Y-105169D2*
X-308010D1*
X-235978D2*
X-216581D1*
X216563D2*
X331340D1*
X-238345Y-120786D2*
X-216581D1*
X216563D2*
X331340D1*
X-250772Y-136403D2*
X-222979D1*
X216563D2*
X320482D1*
X-266396Y-152020D2*
X-238573D1*
X-19534D2*
X-6720D1*
X66157D2*
X304857D1*
X-282021Y-167636D2*
X-251154D1*
X-165757D2*
X-156726D1*
X81782D2*
X289232D1*
X-297615Y-183253D2*
X-253583D1*
X-181382D2*
X-156726D1*
X-93261D2*
X-76726D1*
X97377D2*
X273608D1*
X-391581Y-198870D2*
X-382028D1*
X-313241D2*
X-267362D1*
X-176337D2*
X-168957D1*
X-77912D2*
X-61131D1*
X-435657Y-214487D2*
X-382028D1*
X-318562D2*
X-267362D1*
X-176337D2*
X-168957D1*
X-77912D2*
X-45505D1*
X-450975Y-230104D2*
X-382028D1*
X-176337D2*
X-168957D1*
X-444823Y-245720D2*
X-382028D1*
X-176337D2*
X-168957D1*
X416490D2*
X522285D1*
X-429198Y-261337D2*
X-382028D1*
X-176337D2*
X-168957D1*
X400895D2*
X543600D1*
X589472D2*
X608407D1*
X-413573Y-276954D2*
X-382028D1*
X-176337D2*
X-168957D1*
X230589D2*
X259797D1*
X385270D2*
X608407D1*
X-397948Y-292571D2*
X-382028D1*
X-176337D2*
X-168957D1*
X369646D2*
X608407D1*
X-490682Y-308188D2*
X-470795D1*
X-176337D2*
X-168957D1*
X354021D2*
X608407D1*
X-490682Y-323804D2*
X-455171D1*
X-194331D2*
X-155066D1*
X338427D2*
X608407D1*
X-490682Y-339421D2*
X-439545D1*
X-207618D2*
X-145070D1*
X322802D2*
X608407D1*
X-580835Y-355038D2*
X-554148D1*
X-490682D2*
X-448927D1*
X-223243D2*
X-129444D1*
X307176D2*
X608407D1*
X-485239Y-370655D2*
X-463567D1*
X-245051D2*
X-184531D1*
X291551D2*
X608407D1*
X280417Y-386272D2*
X608407D1*
X113493Y-401888D2*
X216951D1*
X280417D2*
X608407D1*
X-610486Y-417505D2*
X-584815D1*
X97592D2*
X216951D1*
X280417D2*
X608407D1*
X162184Y-433122D2*
X216951D1*
X280417D2*
X608407D1*
X-201282Y-448739D2*
X-163801D1*
X162184D2*
X216951D1*
X280417D2*
X608407D1*
X-185688Y-464356D2*
X-176811D1*
X173226D2*
X216951D1*
X280417D2*
X608407D1*
X186636Y-479972D2*
X216951D1*
X280417D2*
X608407D1*
X-454881Y-495589D2*
X-448776D1*
X200077D2*
X214060D1*
X280417D2*
X358714D1*
X425256D2*
X608407D1*
X279802Y-511206D2*
X321743D1*
X466718D2*
X528898D1*
X597100D2*
X608407D1*
X-512091Y-526823D2*
X-503971D1*
X-303891D2*
X-250753D1*
X271251D2*
X300858D1*
X486525D2*
X512104D1*
X-288972Y-542440D2*
X-235129D1*
X255656D2*
X285234D1*
X-276978Y-558056D2*
X-233621D1*
X240031D2*
X273853D1*
X-269381Y-573673D2*
X-233867D1*
X235572D2*
X266409D1*
X-263198Y-589290D2*
X-234113D1*
X235264D2*
X260012D1*
X-259815Y-604907D2*
X-234360D1*
X234957D2*
X257306D1*
X-79505Y-223219D2*
X-35189D1*
X-94843Y-163570D1*
Y-192822D1*
X-79500Y-192812D1*
Y-223232D1*
X-320131Y-221682D2*
X-265801D1*
X-265799Y-192812D1*
X-252050D1*
X-251927Y-177159D1*
X-251186Y-172484D1*
X-249724Y-167984D1*
X-247576Y-163768D1*
X-244794Y-159940D1*
X-214978Y-129992D1*
X-215000Y-32835D1*
X-115018D1*
X-115000Y-32441D1*
X-35000D1*
Y-32841D1*
X-4684Y-32835D1*
X-3681Y-28678D1*
X-1870Y-24306D1*
X602Y-20272D1*
X3676Y-16673D1*
X15871Y-4609D1*
X19699Y-1827D1*
X23916Y322D1*
X28416Y1783D1*
X33091Y2524D1*
X82701Y2617D1*
X118492Y2524D1*
X123167Y1783D1*
X127667Y322D1*
X131883Y-1827D1*
X135711Y-4609D1*
X146903Y-15669D1*
X149976Y-19268D1*
X152449Y-23302D1*
X154260Y-27675D1*
X155366Y-32285D1*
X158622Y-32835D1*
X215000D1*
Y-148268D1*
X60823D1*
X99327Y-186770D1*
X271668Y-186778D1*
X332934Y-125513D1*
X333012Y-68268D1*
X333752Y-63593D1*
X335214Y-59093D1*
X337362Y-54877D1*
X340144Y-51049D1*
X375157Y-15903D1*
X414976Y23783D1*
X418804Y26566D1*
X423021Y28714D1*
X427521Y30176D1*
X432196Y30916D1*
X445850Y31009D1*
X447419Y37734D1*
X448829Y41268D1*
X450781Y44543D1*
X464281Y61471D1*
X467085Y64043D1*
X470265Y66150D1*
X489774Y75543D1*
X493417Y76643D1*
X497194Y77160D1*
X518845Y77161D1*
X520744Y76938D1*
X519860Y79437D1*
X515289Y86895D1*
X511941Y94978D1*
X509899Y103484D1*
X509213Y112205D1*
X509899Y120925D1*
X511941Y129432D1*
X515289Y137514D1*
X519860Y144972D1*
X525541Y151625D1*
X532193Y157306D1*
X539651Y161877D1*
X547734Y165224D1*
X556240Y167266D1*
X560535Y167774D1*
X560529Y209168D1*
X546406Y223294D1*
X481408Y223289D1*
X477783Y220728D1*
X472741Y218160D1*
X467360Y216411D1*
X461770Y215526D1*
X456110D1*
X450521Y216411D1*
X445139Y218160D1*
X440097Y220728D1*
X435520Y224055D1*
X431518Y228056D1*
X428192Y232635D1*
X425622Y237677D1*
X423874Y243059D1*
X423392Y245478D1*
X392748Y214833D1*
X397378Y213433D1*
X406512D1*
Y54693D1*
X390734D1*
X388289Y49794D1*
X385507Y45965D1*
X350492Y10820D1*
X340231Y690D1*
X336403Y-2092D1*
X332186Y-4240D1*
X327677Y-5705D1*
X325433Y-7244D1*
Y-16378D1*
X210000D1*
Y-2752D1*
X204745Y-1129D1*
X200529Y1020D1*
X196701Y3802D1*
X179150Y21220D1*
X62450Y21293D1*
X57776Y22033D1*
X53276Y23495D1*
X49059Y25643D1*
X45231Y28425D1*
X10085Y63438D1*
X-145375Y219031D1*
X-148157Y222860D1*
X-150306Y227076D1*
X-151768Y231576D1*
X-152508Y236251D1*
X-152601Y285861D1*
Y423503D1*
X-444823Y423472D1*
X-450815Y420312D1*
X-456197Y418563D1*
X-461786Y417678D1*
X-467445D1*
X-473034Y418563D1*
X-478416Y420312D1*
X-483458Y422881D1*
X-488037Y426207D1*
X-492038Y430209D1*
X-495365Y434787D1*
X-497933Y439829D1*
X-499682Y445211D1*
X-500567Y450801D1*
Y456459D1*
X-499682Y462049D1*
X-497933Y467430D1*
X-495365Y472472D1*
X-492038Y477051D1*
X-488037Y481052D1*
X-483458Y484379D1*
X-478416Y486948D1*
X-473034Y488697D1*
X-467445Y489581D1*
X-461786D1*
X-456197Y488697D1*
X-450815Y486948D1*
X-445773Y484379D1*
X-444881Y483782D1*
X-137185Y483694D1*
X-132510Y482954D1*
X-128010Y481492D1*
X-123794Y479344D1*
X-119966Y476562D1*
X-101119Y457846D1*
X-98046Y454248D1*
X-95573Y450214D1*
X-93762Y445841D1*
X-92657Y441240D1*
X-92286Y436522D1*
Y251083D1*
X77289Y81534D1*
X194029Y81421D1*
X198703Y80681D1*
X203203Y79219D1*
X207420Y77071D1*
X209396Y75749D1*
X210000Y80866D1*
Y263622D1*
X210031Y413622D1*
X210000Y490924D1*
X-396866Y491786D1*
X-425089Y494117D1*
X-446864Y501448D1*
X-475545Y518753D1*
X-500895Y542320D1*
X-501260Y542823D1*
X-504831Y544094D1*
X-508503Y535228D1*
X-513517Y527046D1*
X-519749Y519749D1*
X-527046Y513517D1*
X-535228Y508503D1*
X-544094Y504831D1*
X-553425Y502591D1*
X-562992Y501837D1*
X-572559Y502591D1*
X-581890Y504831D1*
X-590756Y508503D1*
X-598938Y513517D1*
X-606235Y519749D1*
X-611318Y525588D1*
X-611005Y481171D1*
X-611210Y307850D1*
X-521243Y397680D1*
X-517539Y400370D1*
X-513461Y402449D1*
X-509106Y403864D1*
X-504585Y404579D1*
X-455052Y404669D1*
X-325408D1*
X-325433Y413622D1*
X-210000D1*
Y133622D1*
Y-16378D1*
X-237589D1*
X-237652Y-111484D1*
X-238392Y-116159D1*
X-239854Y-120659D1*
X-242003Y-124875D1*
X-244785Y-128703D1*
X-279798Y-163849D1*
X-320143Y-204194D1*
X-320133Y-221681D1*
X-246634Y-364676D2*
Y-377520D1*
X-190005D1*
X-183264Y-370921D1*
X-179436Y-368139D1*
X-175219Y-365991D1*
X-170719Y-364529D1*
X-166045Y-363789D1*
X-116281Y-363696D1*
X-119969Y-361768D1*
X-123797Y-358986D1*
X-145711Y-337202D1*
X-148785Y-333604D1*
X-151257Y-329570D1*
X-153068Y-325197D1*
X-154173Y-320596D1*
X-154545Y-315878D1*
Y-312156D1*
X-167374Y-312182D1*
Y-192812D1*
X-155163D1*
X-155157Y-155457D1*
X-191715Y-192026D1*
X-187059Y-192812D1*
X-177925D1*
Y-312182D1*
X-192843D1*
X-193656Y-317589D1*
X-195118Y-322089D1*
X-197266Y-326306D1*
X-200049Y-330134D1*
X-225625Y-355841D1*
X-229223Y-358915D1*
X-233257Y-361387D1*
X-237630Y-363198D1*
X-242231Y-364303D1*
X-244592Y-364581D1*
X-458633Y-366419D2*
X-434923Y-342490D1*
X-492255Y-285150D1*
Y-365205D1*
X-463135Y-394340D1*
X-464797Y-389991D1*
X-465609Y-385344D1*
X-465507Y-380629D1*
X-464493Y-376021D1*
X-462608Y-371698D1*
X-459920Y-367822D1*
X-458858Y-366650D1*
X-417861Y-437152D2*
X-420811Y-436021D1*
X-416916Y-438210D1*
X-417571Y-439904D1*
X-415070Y-442406D1*
X-416913Y-438218D1*
X609993Y523908D2*
X606235Y519749D1*
X598938Y513517D1*
X590756Y508503D1*
X581890Y504831D1*
X572559Y502591D1*
X562992Y501837D1*
X553425Y502591D1*
X544094Y504831D1*
X535228Y508503D1*
X527046Y513517D1*
X519749Y519749D1*
X513517Y527046D1*
X508503Y535228D1*
X504831Y544094D1*
X503531Y548698D1*
X489845Y532218D1*
X451230Y504434D1*
X441925Y501928D1*
X401770Y491993D1*
X440299Y491990D1*
X446289Y495150D1*
X451671Y496899D1*
X457260Y497783D1*
X462919D1*
X468508Y496899D1*
X473890Y495150D1*
X478932Y492581D1*
X483510Y489255D1*
X487512Y485253D1*
X490839Y480675D1*
X493407Y475633D1*
X495156Y470251D1*
X496041Y464661D1*
Y459003D1*
X495156Y453413D1*
X493407Y448031D1*
X490839Y442990D1*
X488738Y439966D1*
X523608Y439959D1*
X529593Y443119D1*
X534975Y444869D1*
X540564Y445753D1*
X546223D1*
X551812Y444869D1*
X557194Y443119D1*
X562236Y440551D1*
X566815Y437224D1*
X569983Y434125D1*
X574772Y438290D1*
X579596Y441247D1*
X584824Y443412D1*
X590327Y444734D1*
X595969Y445177D1*
X601610Y444734D1*
X607113Y443412D1*
X610000Y442325D1*
X609991Y523848D1*
X-612201Y-526707D2*
X-606757Y-520314D1*
X-612159Y-520315D1*
X-522986Y-516757D2*
X-516490Y-523276D1*
X-510849Y-531039D1*
X-506492Y-539589D1*
X-503528Y-548715D1*
X-503465Y-549029D1*
X-495652Y-537479D1*
X-485357Y-527575D1*
X-489516Y-528138D1*
X-495175D1*
X-500764Y-527253D1*
X-506146Y-525504D1*
X-511188Y-522936D1*
X-515766Y-519609D1*
X-519768Y-515608D1*
X-522990Y-511185D1*
X503786Y-547795D2*
X506492Y-539589D1*
X510849Y-531039D1*
X516490Y-523276D1*
X523276Y-516490D1*
X531039Y-510849D1*
X539589Y-506492D1*
X548715Y-503528D1*
X558194Y-502026D1*
X567790D1*
X577269Y-503528D1*
X586395Y-506492D1*
X594945Y-510849D1*
X602709Y-516490D1*
X609495Y-523276D1*
X609993Y-523908D1*
X609991Y-244791D1*
X605955Y-249262D1*
X599303Y-254944D1*
X591845Y-259514D1*
X583762Y-262862D1*
X575256Y-264904D1*
X566535Y-265591D1*
X557815Y-264904D1*
X549308Y-262862D1*
X541226Y-259514D1*
X533768Y-254944D1*
X527115Y-249262D1*
X521434Y-242610D1*
X518125Y-237404D1*
X423218Y-237400D1*
X278853Y-381790D1*
X278751Y-507543D1*
X278010Y-512218D1*
X276549Y-516718D1*
X274400Y-520934D1*
X271618Y-524762D1*
X236604Y-559908D1*
X234234Y-562280D1*
X233218Y-608899D1*
X237157Y-609434D1*
X258104D1*
X261566Y-589377D1*
X273205Y-561140D1*
X290609Y-537362D1*
X313845Y-516807D1*
X338818Y-502186D1*
X370283Y-492630D1*
X400915Y-492018D1*
X433155Y-497173D1*
X465273Y-511366D1*
X495255Y-535047D1*
X503752Y-547748D1*
X555385Y-54951D2*
X560587Y-54266D1*
X569335D1*
X577975Y-55635D1*
X585572Y-58072D1*
Y-33231D1*
X569024Y-33243D1*
X567690Y-37825D1*
X566007Y-41238D1*
X559255Y-50087D1*
X555408Y-54927D1*
X-586022Y-58238D2*
X-577975Y-55635D1*
X-569335Y-54266D1*
X-560587D1*
X-556902Y-54702D1*
X-565134Y-44280D1*
X-567018Y-40974D1*
X-568364Y-37406D1*
X-573180Y-16295D1*
X-573457Y-4898D1*
X-573430Y12483D1*
X-572885Y16248D1*
X-568327Y36031D1*
X-566916Y39566D1*
X-564965Y42841D1*
X-553486Y57346D1*
X-559012Y56629D1*
X-567760D1*
X-576400Y57997D1*
X-584719Y60701D1*
X-586008Y61294D1*
X-586014Y-58231D1*
X-519870Y-77062D2*
X-518121Y-79676D1*
X-510181Y-79685D1*
X-507735Y-77230D1*
X-518853Y-77159D1*
X-539583Y162571D2*
X-534257Y159738D1*
X-527180Y154596D1*
X-520995Y148411D1*
X-515853Y141333D1*
X-511882Y133538D1*
X-509731Y127177D1*
X-480375Y97690D1*
X-477593Y93862D1*
X-475445Y89646D1*
X-473983Y85146D1*
X-473243Y80471D1*
X-473150Y65894D1*
X-468395Y63283D1*
X-465442Y60882D1*
X-458316Y52328D1*
X-450610Y42580D1*
X-448727Y39273D1*
X-447382Y35705D1*
X-442566Y14594D1*
X-442289Y3197D1*
X-442264Y-11782D1*
X-435441Y-4936D1*
X-435328Y44647D1*
X-434588Y49322D1*
X-433126Y53822D1*
X-430978Y58038D1*
X-428196Y61866D1*
X-393182Y97012D1*
X-342663Y147399D1*
X-338835Y150181D1*
X-334618Y152329D1*
X-330118Y153791D1*
X-325434Y154533D1*
X-325433Y346337D1*
X-490217Y346323D1*
X-568730Y267806D1*
X-563101Y267921D1*
X-556829Y267357D1*
X-550663Y266088D1*
X-544678Y264133D1*
X-538953Y261514D1*
X-533559Y258268D1*
X-528566Y254433D1*
X-524037Y250060D1*
X-520029Y245205D1*
X-516594Y239928D1*
X-513777Y234298D1*
X-511613Y228386D1*
X-510129Y222266D1*
X-509344Y216020D1*
X-509302Y209056D1*
X-510012Y202801D1*
X-511423Y196665D1*
X-513516Y190728D1*
X-516265Y185064D1*
X-519636Y179747D1*
X-523585Y174843D1*
X-528062Y170416D1*
X-533009Y166522D1*
X-538364Y163210D1*
X-539534Y162596D1*
X325436Y213433D2*
X332387D1*
X332510Y229675D1*
X333251Y234349D1*
X334713Y238849D1*
X336866Y243073D1*
X325438Y243465D1*
X325433Y213455D1*
X48740Y-222861D2*
X50541Y-223525D1*
X43248Y-215990D1*
X2068Y-174677D1*
X-714Y-170849D1*
X-2862Y-166633D1*
X-4324Y-162133D1*
X-5064Y-157458D1*
X-5866Y-148268D1*
X-24831D1*
X44509Y-217756D1*
X47295Y-221592D1*
X-379878Y-185856D2*
X-401615Y-207041D1*
X-404717Y-209245D1*
X-408126Y-210938D1*
X-411757Y-212076D1*
X-415522Y-212633D1*
X-419327Y-212593D1*
X-423080Y-211959D1*
X-426686Y-210745D1*
X-430066Y-208978D1*
X-435297Y-212562D1*
X-452500Y-229765D1*
X-453281Y-234165D1*
X-454360Y-237731D1*
X-380440Y-311665D1*
X-380354Y-189325D1*
X-380075Y-186965D1*
X-356459Y-60864D2*
X-353080Y-62629D1*
X-350025Y-64898D1*
X-321092Y-94332D1*
X-318650Y-97252D1*
X-316696Y-100517D1*
X-315276Y-104047D1*
X-314425Y-107757D1*
X-314167Y-111562D1*
X-310369Y-109122D1*
X-297864Y-96615D1*
X-297874Y-16383D1*
X-325433Y-16378D1*
Y27268D1*
X-328349Y24382D1*
X-328434Y-21177D1*
X-329175Y-25852D1*
X-330636Y-30352D1*
X-332785Y-34568D1*
X-335567Y-38396D1*
X-357509Y-60471D1*
X229104Y-277075D2*
X231349Y-280156D1*
X233084Y-283552D1*
X236535Y-284133D1*
X254222D1*
X262546Y-275794D1*
X227933Y-275807D1*
X-456394Y-495016D2*
X-457278Y-500605D1*
X-459028Y-505987D1*
X-460953Y-509881D1*
X-442253Y-500518D1*
X-456818Y-485957D1*
X-456282Y-492186D1*
X-456394Y-495016D1*
X569352Y384797D2*
X568155Y383618D1*
X571328Y380332D1*
X574304Y376278D1*
X574303Y380282D1*
X570469Y383614D1*
X569379Y384791D1*
X574304Y337543D2*
X571328Y333490D1*
X567327Y329488D1*
X562748Y326161D1*
X557706Y323593D1*
X552324Y321844D1*
X546735Y320959D1*
X541076D1*
X535487Y321844D1*
X530105Y323593D1*
X525063Y326161D1*
X524171Y326759D1*
X467104Y326753D1*
X467597Y320801D1*
X467193Y315499D1*
X574295Y315490D1*
X574303Y337529D1*
X-552550Y-347087D2*
X-586014D1*
X-583424Y-354012D1*
X-579312Y-358123D1*
X-569890Y-358226D1*
X-565367Y-358942D1*
X-561014Y-360357D1*
X-556936Y-362436D1*
X-553226Y-365133D1*
X-552570Y-361965D1*
Y-347109D1*
X-612066Y-424567D2*
X-576202D1*
X-584245Y-416500D1*
X-593672Y-416392D1*
X-598193Y-415677D1*
X-602547Y-414262D1*
X-606626Y-412184D1*
X-610329Y-409493D1*
X-612034Y-407916D1*
X-612072Y-424556D1*
X463217Y-58451D2*
X450612Y-42577D1*
X448727Y-39272D1*
X447382Y-35703D1*
X444751Y-31609D1*
X393227Y-83133D1*
X393234Y-104190D1*
X415291Y-82241D1*
X419119Y-79459D1*
X423336Y-77311D1*
X427836Y-75849D1*
X432510Y-75109D1*
X482121Y-75016D1*
X493140Y-74869D1*
X489512Y-73696D1*
X470003Y-64301D1*
X466871Y-62139D1*
X464112Y-59508D1*
X554719Y57417D2*
X565135Y44281D1*
X567018Y40975D1*
X568364Y37407D1*
X570865Y34946D1*
X582337D1*
X584959Y40824D1*
Y60171D1*
X577975Y57997D1*
X569335Y56629D1*
X560587D1*
X554680Y57453D1*
X-180227Y-471343D2*
X-172912Y-461257D1*
X-170222Y-458567D1*
X-167142Y-456329D1*
X-163744Y-454600D1*
X-162227Y-452566D1*
Y-433650D1*
X-165962Y-435539D1*
X-170462Y-437001D1*
X-175136Y-437741D1*
X-213766Y-437835D1*
X-180245Y-471358D1*
X-232806Y-606043D2*
X-231815Y-549198D1*
X-231157Y-545442D1*
X-233629Y-542364D1*
X-262360Y-513633D1*
X-322719Y-513646D1*
X-315619Y-518010D1*
X-296484Y-534722D1*
X-275605Y-562075D1*
X-264702Y-589562D1*
X-260412Y-609441D1*
X-232608Y-609434D1*
X-232810Y-606455D1*
X168963Y-461227D2*
X206408Y-504806D1*
X218525Y-492689D1*
X218529Y-399462D1*
X122115Y-399465D1*
X112051Y-401768D1*
X96902Y-416785D1*
X93073Y-419567D1*
X90999Y-420727D1*
X105490Y-421070D1*
X153966Y-421167D1*
X156308Y-421928D1*
X158302Y-423375D1*
X159749Y-425369D1*
X160510Y-427711D1*
X160608Y-454934D1*
X164804Y-457388D1*
X167703Y-459865D1*
X-57178Y-223249D2*
D10*
Y-269125D1*
X-290571Y-221713D2*
Y-267588D1*
X-412190Y-384769D2*
Y-438168D1*
X-465663Y-384769D2*
X-412190D1*
X-564961Y267923D2*
Y212205D1*
X-509243D1*
X75000Y-90551D2*
Y-148238D1*
D20*
X-57178Y-336054D3*
Y-269125D3*
X-290571Y-267588D3*
Y-334517D3*
D60*
X-412190Y-384769D3*
X-364647Y-431877D3*
D22*
X566535Y-209843D3*
D23*
X564961Y-109843D3*
D22*
X-563386Y-209843D3*
D23*
X-564961Y-109843D3*
D22*
X-563386Y112205D3*
D23*
X-564961Y212205D3*
D20*
X362575Y100598D3*
Y167528D3*
D66*
X21591Y-334516D3*
X21577Y-267587D3*
D69*
X-415478Y-159222D3*
X-367661Y-112390D3*
D72*
X189054Y-312559D3*
X122125Y-312633D3*
D24*
X-267717Y23622D3*
Y73622D3*
Y123622D3*
Y173622D3*
Y223622D3*
Y273622D3*
Y323622D3*
Y373622D3*
X267717Y23622D3*
Y73622D3*
Y123622D3*
Y173622D3*
Y223622D3*
Y273622D3*
Y323622D3*
Y373622D3*
Y423622D3*
Y473622D3*
D25*
X-25000Y-90551D3*
X25000D3*
X-75000Y-90157D3*
X75000Y-90551D3*
X-125000D3*
X125000D3*
X-175000D3*
X175000D3*
D26*
X-570866Y-299213D3*
Y-472441D3*
D75*
X507873Y852D3*
X-507873Y-850D3*
D30*
X-59021Y-587852D3*
Y-548482D3*
Y-509112D3*
X55152Y-587852D3*
Y-548482D3*
Y-509112D3*
D81*
X-1934Y-548482D3*
D31*
X-221862Y-252497D3*
X-123437D3*
D22*
X564961Y112205D3*
G04 Top Clear*
%LPC*%
D15*
X460089Y461832D3*
X-464615Y453630D3*
X-492345Y-492186D3*
X-261619Y-157328D3*
X-57104Y-221948D3*
X543394Y409802D3*
X595969Y409114D3*
X358621Y420598D3*
X543906Y356911D3*
X-488348Y-225747D3*
X562346Y194765D3*
X-442453Y-415308D3*
X212079Y-445255D3*
X190810Y-166601D3*
X260055Y-128097D3*
X284731Y-60507D3*
X388848Y25268D3*
X212615Y-405378D3*
X173818Y-405744D3*
X458940Y251478D3*
X431534Y320801D3*
D33*
X566535Y-209843D3*
X564961Y-109843D3*
X-563386Y-209843D3*
X-564961Y-109843D3*
X-563386Y112205D3*
X-564961Y212205D3*
D34*
X-570866Y-299213D3*
Y-472441D3*
X507853Y12663D2*
D35*
X507892Y-10959D1*
X-507892Y10961D2*
X-507853Y-12661D1*
D33*
X564961Y112205D3*
M02*
