G04 DipTrace 3.2.0.1*
G04 Верхний.gbr*
%MOMM*%
G04 #@! TF.FileFunction,Copper,L1,Top*
G04 #@! TF.Part,Single*
%AMOUTLINE0*
4,1,4,
-0.7426,0.03197,
-0.03877,0.7423,
0.7426,-0.03197,
0.03877,-0.7423,
-0.7426,0.03197,
0*%
%AMOUTLINE6*
4,1,4,
-0.50007,0.5499,
0.49987,0.5501,
0.50007,-0.5499,
-0.49987,-0.5501,
-0.50007,0.5499,
0*%
%AMOUTLINE9*
4,1,4,
-0.04307,-0.74207,
-0.7428,-0.02763,
0.04307,0.74207,
0.7428,0.02763,
-0.04307,-0.74207,
0*%
%AMOUTLINE12*
4,1,4,
0.54943,0.5006,
0.55057,-0.4994,
-0.54943,-0.5006,
-0.55057,0.4994,
0.54943,0.5006,
0*%
%AMOUTLINE15*
4,1,16,
-1.0495,-0.30177,
-0.94477,-0.75717,
-0.6528,-1.12203,
-0.23143,-1.32407,
0.23587,-1.32327,
0.65653,-1.11983,
0.94727,-0.754,
1.0505,-0.29823,
1.0495,0.30177,
0.94477,0.75717,
0.6528,1.12203,
0.23143,1.32407,
-0.23587,1.32327,
-0.65653,1.11983,
-0.94727,0.754,
-1.0505,0.29823,
-1.0495,-0.30177,
0*%
%AMOUTLINE21*
4,1,5,
-0.75,1.2,
0.75,1.2,
0.75,-0.95,
0.5,-1.2,
-0.75,-1.2,
-0.75,1.2,
0*%
%ADD15C,0.3*%
%ADD19C,0.2*%
%ADD34C,0.9*%
%ADD35C,0.8*%
%ADD36C,1.1*%
G04 #@! TA.AperFunction,CopperBalancing*
%ADD10C,0.25*%
G04 #@! TA.AperFunction,ViaPad*
%ADD16C,0.5*%
%ADD17C,0.6*%
G04 #@! TA.AperFunction,CopperBalancing*
%ADD18C,0.4*%
%ADD20R,1.0X1.1*%
G04 #@! TA.AperFunction,ComponentPad*
%ADD22C,1.6*%
%ADD23C,1.6*%
%ADD24R,1.7X0.8*%
%ADD25R,0.8X1.7*%
G04 #@! TA.AperFunction,ComponentPad*
%ADD26R,1.2X1.2*%
%ADD30R,0.8X0.4*%
%ADD31R,1.0X1.8*%
G04 #@! TA.AperFunction,ViaPad*
%ADD32C,0.7*%
%ADD60OUTLINE0*%
%ADD66OUTLINE6*%
%ADD69OUTLINE9*%
%ADD72OUTLINE12*%
G04 #@! TA.AperFunction,ComponentPad*
%ADD75OUTLINE15*%
%ADD81OUTLINE21*%
%FSLAX35Y35*%
G04*
G71*
G90*
G75*
G01*
G04 Top*
%LPD*%
X680000Y1203000D2*
D15*
Y1173053D1*
X1168627D1*
X680000Y1076000D2*
X931883D1*
X1023507Y984377D1*
X680000Y949000D2*
X950050D1*
X991977Y907073D1*
X1246397D1*
X1380220Y1040897D1*
X680000Y822000D2*
X1296967D1*
X1381520Y906553D1*
X63500Y-230000D2*
Y-393933D1*
X220583Y-551017D1*
X721770D1*
X922213Y-350573D1*
Y-179410D1*
X1103787Y2163D1*
X1302437D1*
Y436283D1*
X1356413Y490260D1*
X1473063D1*
X1535330Y552527D1*
Y703897D1*
Y1017580D1*
X1513760Y1039150D1*
X1289997Y2163D2*
D16*
X1302437D1*
X1535330Y703897D2*
D15*
X949603D1*
Y671213D1*
X63500Y-230000D2*
Y-96513D1*
X90060Y-69953D1*
X294960D1*
X318970Y-93963D1*
Y-228530D1*
X317500Y-230000D1*
X190500D2*
D16*
Y-361030D1*
X254367Y-424897D1*
X486967D1*
X667717D1*
X796090Y-296523D1*
Y-127777D1*
X987860Y63993D1*
X1127477Y203610D1*
Y533070D1*
X1204973Y610567D1*
X1452300D1*
X484657Y-423167D2*
D15*
X486967Y-424897D1*
X-1123830Y-1054883D2*
Y-1054180D1*
X-1046963Y-977313D1*
X538680Y-1130947D2*
X544320D1*
X282123Y-1393143D1*
X140087D1*
X-717743Y-677980D2*
Y-452843D1*
X-664513Y-399613D1*
X-145233Y-683577D2*
Y-563937D1*
X-145043Y-563747D1*
X987673Y64180D2*
D16*
X987860Y63993D1*
X-1250557Y-1250153D2*
D10*
Y-1186543D1*
X-1453333Y-983767D1*
X-1502113D1*
X-1562577Y-923303D1*
Y645947D1*
X-1254763Y953760D1*
X-684760D1*
X-680000Y949000D1*
X-1180123Y1152220D2*
D15*
X-354460D1*
X-311007Y1108767D1*
Y606087D1*
X164633Y130447D1*
X486823D1*
X549367Y67903D1*
X680000D1*
Y60000D1*
X814440D1*
X949603Y195163D1*
Y501213D1*
X-680000Y187000D2*
X-806417D1*
X-919013Y74403D1*
Y-158893D1*
X-963837Y-203717D1*
X54840Y-849670D2*
X156043D1*
X362013Y-643700D1*
X765827D1*
X1142387Y-267140D1*
X1423140D1*
X1435000Y-279000D1*
X-354687Y-983080D2*
X146503D1*
X406607Y-722977D1*
X631663D1*
X807943D1*
X991987Y-538933D1*
X1433067D1*
X1439000Y-533000D1*
X140087Y-1493143D2*
X421670D1*
X631663Y-1283150D1*
Y-722977D1*
X-1085290Y-322670D2*
X-1166097Y-403477D1*
X-1301477D1*
X-1431000Y-533000D1*
X-149913Y-1493143D2*
X-369547D1*
X-634630Y-1228060D1*
X-1058257D1*
X-1326927Y-959390D1*
Y-637073D1*
X-1431000Y-533000D1*
X-524687Y-983267D2*
X-774767D1*
X-859890Y-898143D1*
Y-291920D1*
X-808797Y-240827D1*
Y44780D1*
X-782463Y71113D1*
X-691113D1*
X-680000Y60000D1*
X-190500Y-229000D2*
Y-357540D1*
X54807Y-602847D1*
Y-679670D1*
X-1431000Y285000D2*
X-1365013D1*
X-1278400Y198387D1*
Y9437D1*
X-1289997Y-2160D1*
X-149913Y-1393143D2*
X-370260D1*
X-657663Y-1105740D1*
X-760537D1*
X-845867Y-1020410D1*
X-1240403Y-625873D1*
Y-573397D1*
X-926203Y-1096967D2*
X-922423D1*
X-845867Y-1020410D1*
X-1435000Y-279000D2*
X-1220400D1*
X-1029370Y-87970D1*
Y107393D1*
X-820617Y316147D1*
X-682147D1*
X-680000Y314000D1*
X-444500Y-230000D2*
Y-336963D1*
X-563530Y-455993D1*
Y-641343D1*
X-717743Y-847980D2*
X-625557D1*
X-566370Y-788793D1*
Y-644183D1*
X-563530Y-641343D1*
X-313530D2*
X-317500D1*
Y-230000D1*
X-145233Y-853577D2*
X-264697D1*
X-315943Y-802330D1*
Y-643757D1*
D16*
X1168627Y1173053D3*
X-1180123Y1152220D3*
D17*
X-1250557Y-1250153D3*
X-664513Y-399613D3*
X-145043Y-563747D3*
D16*
X1380220Y1040897D3*
X1513760Y1039150D3*
X1023507Y984377D3*
X1381520Y906553D3*
D17*
X-1240403Y-573397D3*
D32*
X1452300Y610567D3*
D17*
X-1123830Y-1054883D3*
X538680Y-1130947D3*
D32*
X484657Y-423167D3*
D17*
X660540Y-325367D3*
X723217Y-153687D3*
X987673Y64180D3*
X543857Y-1014403D3*
X436410Y-1012793D3*
X-1287740Y1359203D2*
D18*
X-1256833D1*
X1254603D2*
X1287773D1*
X-1316803Y1319537D2*
X-1213943D1*
X1203587D2*
X1316760D1*
X-1548133Y1279870D2*
X-1473867D1*
X-1386100D2*
X-1149413D1*
X1146633D2*
X1386133D1*
X1473900D2*
X1545353D1*
X-1547897Y1240203D2*
X529417D1*
X1227337D2*
X1545353D1*
X-1547977Y1200537D2*
X-1255977D1*
X-290477D2*
X529417D1*
X1254760D2*
X1545353D1*
X-1548053Y1160870D2*
X-1270273D1*
X-250867D2*
X529417D1*
X1258353D2*
X1545353D1*
X-1548053Y1121203D2*
X-1264960D1*
X-231413D2*
X529417D1*
X1242023D2*
X1343790D1*
X1416633D2*
X1482070D1*
X-1548133Y1081537D2*
X-1234180D1*
X-230397D2*
X529417D1*
X1038667D2*
X1299727D1*
X-1548133Y1041870D2*
X-830583D1*
X-529383D2*
X-391600D1*
X-230397D2*
X529417D1*
X1092260D2*
X1268867D1*
X-1548210Y1002203D2*
X-1315117D1*
X-529383D2*
X-391600D1*
X-230397D2*
X529417D1*
X1112260D2*
X1229180D1*
X-1548287Y962537D2*
X-1354803D1*
X-529383D2*
X-391600D1*
X-230397D2*
X529417D1*
X-1548287Y922870D2*
X-1394413D1*
X-529383D2*
X-391600D1*
X-230397D2*
X529417D1*
X-1548367Y883203D2*
X-1434100D1*
X-529383D2*
X-391600D1*
X-230397D2*
X529417D1*
X-1548367Y843537D2*
X-1473787D1*
X-1256180D2*
X-830583D1*
X-529383D2*
X-391600D1*
X-230397D2*
X529417D1*
X-1548443Y803870D2*
X-1513477D1*
X-1295867D2*
X-830583D1*
X-529383D2*
X-391600D1*
X-230397D2*
X529417D1*
X1391167D2*
X1454727D1*
X-1335553Y764203D2*
X-830583D1*
X-529383D2*
X-391600D1*
X-230397D2*
X529417D1*
X-1375163Y724537D2*
X-830583D1*
X-529383D2*
X-391600D1*
X-230397D2*
X529417D1*
X-1414850Y684870D2*
X-830583D1*
X-529383D2*
X-391600D1*
X-230397D2*
X529417D1*
X-1337350Y645203D2*
X-830583D1*
X-529383D2*
X-391600D1*
X-230397D2*
X529417D1*
X-1306023Y605537D2*
X-830583D1*
X-529383D2*
X-391600D1*
X-198133D2*
X529417D1*
X1065227D2*
X1454727D1*
X-1291960Y565870D2*
X-830583D1*
X-529383D2*
X-380193D1*
X-158443D2*
X529417D1*
X1065227D2*
X1340117D1*
X-1290007Y526203D2*
X-830583D1*
X-529383D2*
X-343477D1*
X-118757D2*
X529417D1*
X1065227D2*
X1280040D1*
X-1299460Y486537D2*
X-830583D1*
X-529383D2*
X-303787D1*
X-79147D2*
X529417D1*
X1065227D2*
X1240587D1*
X-1323443Y446870D2*
X-830583D1*
X-529383D2*
X-264100D1*
X-39460D2*
X529417D1*
X1065227D2*
X1222540D1*
X-1355477Y407203D2*
X-830583D1*
X-529383D2*
X-224490D1*
X227D2*
X529417D1*
X1065227D2*
X1221837D1*
X1385697D2*
X1545353D1*
X-1311960Y367537D2*
X-881523D1*
X-529383D2*
X-184803D1*
X39837D2*
X529417D1*
X830617D2*
X869023D1*
X1030227D2*
X1221837D1*
X1383040D2*
X1545353D1*
X-1292037Y327870D2*
X-921210D1*
X-529383D2*
X-145117D1*
X79523D2*
X529417D1*
X830617D2*
X869023D1*
X1030227D2*
X1221837D1*
X1383040D2*
X1545353D1*
X-1255867Y288203D2*
X-960897D1*
X-529383D2*
X-105430D1*
X119213D2*
X529417D1*
X830617D2*
X869023D1*
X1030227D2*
X1221837D1*
X1383040D2*
X1545353D1*
X-1216490Y248537D2*
X-1000583D1*
X-529383D2*
X-65820D1*
X158900D2*
X529417D1*
X830617D2*
X869023D1*
X1030227D2*
X1221837D1*
X1383040D2*
X1545353D1*
X-1198523Y208870D2*
X-1040193D1*
X-529383D2*
X-26133D1*
X198510D2*
X529417D1*
X830617D2*
X851043D1*
X1030227D2*
X1221837D1*
X1383040D2*
X1545353D1*
X-1197820Y169203D2*
X-1079883D1*
X-529383D2*
X13557D1*
X1025697D2*
X1192697D1*
X1387337D2*
X1545353D1*
X-1484460Y129537D2*
X-1422693D1*
X-1157430D2*
X-1106680D1*
X-529383D2*
X53243D1*
X996320D2*
X1153867D1*
X1426010D2*
X1545353D1*
X-1484460Y89870D2*
X-1448007D1*
X-1132117D2*
X-1109960D1*
X-529383D2*
X92853D1*
X956633D2*
X1130900D1*
X1448900D2*
X1545353D1*
X-1484460Y50203D2*
X-1457070D1*
X-1122977D2*
X-1109917D1*
X-529383D2*
X454727D1*
X916947D2*
X1039493D1*
X1458040D2*
X1545353D1*
X-1484460Y10537D2*
X-1460617D1*
X-529383D2*
X494570D1*
X877337D2*
X999807D1*
X1460617D2*
X1545353D1*
X-1484460Y-29130D2*
X-1460487D1*
X-529383D2*
X18557D1*
X374133D2*
X529417D1*
X830617D2*
X960197D1*
X1460617D2*
X1545353D1*
X-1484460Y-68797D2*
X-1453787D1*
X-728210D2*
X-11913D1*
X397570D2*
X920510D1*
X1452883D2*
X1545353D1*
X-1484460Y-108463D2*
X-1441913D1*
X-728210D2*
X-550117D1*
X550070D2*
X880820D1*
X1105463D2*
X1140743D1*
X1439290D2*
X1545353D1*
X-728210Y-148130D2*
X-550117D1*
X550070D2*
X848320D1*
X1065853D2*
X1172307D1*
X1493040D2*
X1545353D1*
X-728210Y-187797D2*
X-550117D1*
X550070D2*
X841603D1*
X1026167D2*
X1240900D1*
X-728210Y-227463D2*
X-550117D1*
X550070D2*
X841603D1*
X1002807D2*
X1069727D1*
X-732820Y-267130D2*
X-550117D1*
X550070D2*
X841603D1*
X1002807D2*
X1030040D1*
X-762430Y-306797D2*
X-550117D1*
X550070D2*
X841603D1*
X-779303Y-346463D2*
X-566367D1*
X550070D2*
X814023D1*
X1175383D2*
X1306523D1*
X-986570Y-386130D2*
X-940507D1*
X-779303D2*
X-605977D1*
X-49617D2*
X-17070D1*
X168040D2*
X774337D1*
X1135697D2*
X1338400D1*
X1531557D2*
X1545433D1*
X-1027117Y-425797D2*
X-940507D1*
X-779303D2*
X-637930D1*
X-421023D2*
X-398083D1*
X207727D2*
X734650D1*
X1096087D2*
X1342463D1*
X-1117117Y-465463D2*
X-940507D1*
X-779303D2*
X-644100D1*
X-460633D2*
X-398083D1*
X-236883D2*
X-194883D1*
X247337D2*
X694963D1*
X-1175320Y-505130D2*
X-940507D1*
X-779303D2*
X-679100D1*
X-447897D2*
X-429150D1*
X-197897D2*
X-155273D1*
X-1149383Y-544797D2*
X-940507D1*
X-779303D2*
X-679100D1*
X-447897D2*
X-429150D1*
X-197897D2*
X-115583D1*
X-1145477Y-584463D2*
X-940507D1*
X-447897D2*
X-429150D1*
X-1129850Y-624130D2*
X-940507D1*
X-447897D2*
X-429150D1*
X170383D2*
X193697D1*
X1019133D2*
X1326603D1*
X-1090163Y-663797D2*
X-940507D1*
X-447897D2*
X-429150D1*
X170383D2*
X229570D1*
X979447D2*
X1380743D1*
X1497260D2*
X1545353D1*
X-1050477Y-703463D2*
X-940507D1*
X-447897D2*
X-429150D1*
X170383D2*
X189923D1*
X939760D2*
X1545353D1*
X-1010787Y-743130D2*
X-940507D1*
X-447897D2*
X-429150D1*
X900150D2*
X1545353D1*
X-1246333Y-782797D2*
X-1195820D1*
X-971180D2*
X-940507D1*
X-447897D2*
X-429150D1*
X859760D2*
X1545353D1*
X-1246333Y-822463D2*
X-1156133D1*
X-493600D2*
X-393867D1*
X419447D2*
X551057D1*
X712260D2*
X1545353D1*
X-1246333Y-862130D2*
X-1116443D1*
X-527350D2*
X-368477D1*
X379760D2*
X551057D1*
X712260D2*
X1545353D1*
X-1475320Y-901797D2*
X-1407537D1*
X-1246333D2*
X-1140273D1*
X340150D2*
X551057D1*
X712260D2*
X1545353D1*
X-1232507Y-941463D2*
X-1177460D1*
X300463D2*
X551057D1*
X712260D2*
X1545353D1*
X260773Y-981130D2*
X551057D1*
X712260D2*
X1545353D1*
X221087Y-1020797D2*
X551057D1*
X712260D2*
X1545353D1*
X-1550633Y-1060463D2*
X-1485430D1*
X-240477D2*
X551057D1*
X712260D2*
X1545353D1*
X-550943Y-1100130D2*
X-416053D1*
X411947D2*
X551057D1*
X712260D2*
X1545353D1*
X-511257Y-1139797D2*
X-416053D1*
X411947D2*
X551057D1*
X712260D2*
X1545353D1*
X455853Y-1179463D2*
X551057D1*
X712260D2*
X1545353D1*
X486400Y-1219130D2*
X551057D1*
X712260D2*
X1545353D1*
X-1155397Y-1258797D2*
X-1139890D1*
X516867D2*
X543713D1*
X712260D2*
X911133D1*
X1080150D2*
X1545353D1*
X710697Y-1298463D2*
X817227D1*
X1185463D2*
X1343400D1*
X1516633D2*
X1545353D1*
X-1300710Y-1338130D2*
X-1280087D1*
X-771883D2*
X-636913D1*
X688977D2*
X764180D1*
X1235773D2*
X1300743D1*
X-733990Y-1377797D2*
X-606443D1*
X649367D2*
X724493D1*
X-703523Y-1417463D2*
X-635740D1*
X638820D2*
X695587D1*
X-684227Y-1457130D2*
X-665020D1*
X-201943Y-566977D2*
X-89380D1*
X-240900Y-415467D1*
Y-489767D1*
X-201930Y-489743D1*
Y-567010D1*
X-783297Y-561380D2*
X-675140D1*
X-675130Y-489743D1*
X-640207D1*
X-639893Y-449983D1*
X-638013Y-438110D1*
X-634300Y-426680D1*
X-628843Y-415970D1*
X-621777Y-406247D1*
X-546153Y-330290D1*
X-546100Y-83400D1*
X-292147D1*
X-292100Y-82400D1*
X-88900D1*
Y-83417D1*
X-11897Y-83400D1*
X-9350Y-72843D1*
X-4750Y-61737D1*
X1530Y-51490D1*
X9337Y-42350D1*
X40313Y-11703D1*
X50037Y-4640D1*
X60747Y817D1*
X72180Y4530D1*
X84050Y6413D1*
X210060Y6647D1*
X308630Y6413D1*
X320503Y4530D1*
X331933Y817D1*
X342643Y-4640D1*
X352367Y-11703D1*
X373137Y-32137D1*
X380943Y-41277D1*
X387223Y-51527D1*
X391823Y-62633D1*
X394627Y-74320D1*
X395337Y-80317D1*
X402900Y-83400D1*
X546100D1*
Y-376600D1*
X154490D1*
X252290Y-474397D1*
X690037Y-474417D1*
X845653Y-318803D1*
X845850Y-173400D1*
X847730Y-161527D1*
X851443Y-150097D1*
X856900Y-139387D1*
X863967Y-129663D1*
X952900Y-40393D1*
X1054040Y60410D1*
X1063763Y67477D1*
X1074473Y72933D1*
X1085903Y76647D1*
X1097777Y78527D1*
X1132460Y78763D1*
X1136443Y95843D1*
X1140027Y104820D1*
X1144983Y113140D1*
X1179273Y156137D1*
X1186397Y162670D1*
X1194473Y168020D1*
X1225870Y183310D1*
X1226073Y442293D1*
X1227953Y454167D1*
X1231667Y465597D1*
X1237123Y476307D1*
X1244190Y486030D1*
X1302250Y544423D1*
X1311390Y552230D1*
X1321637Y558510D1*
X1332743Y563110D1*
X1344430Y565917D1*
X1356413Y566860D1*
X1441337D1*
X1458730Y584253D1*
Y627293D1*
X1061190Y627297D1*
X1061203Y384613D1*
X1026127D1*
X1025967Y189153D1*
X1024087Y177280D1*
X1020373Y165850D1*
X1014917Y155140D1*
X1007850Y145417D1*
X918913Y56147D1*
X864187Y1753D1*
X854463Y-5313D1*
X843753Y-10770D1*
X832300Y-14487D1*
X826600Y-18400D1*
Y-41600D1*
X533400D1*
Y-6990D1*
X520053Y-2867D1*
X509343Y2590D1*
X499620Y9657D1*
X455040Y53900D1*
X158623Y54083D1*
X146750Y55963D1*
X135320Y59677D1*
X124610Y65133D1*
X114887Y72200D1*
X25617Y161133D1*
X-369253Y556340D1*
X-376320Y566063D1*
X-381777Y576773D1*
X-385490Y588203D1*
X-387370Y600077D1*
X-387607Y726087D1*
Y1075697D1*
X-1139693Y1075620D1*
X-1153363Y1069860D1*
X-1166577Y1066687D1*
X-1180123Y1065620D1*
X-1193670Y1066687D1*
X-1206883Y1069860D1*
X-1219440Y1075060D1*
X-1231027Y1082160D1*
X-1241360Y1090983D1*
X-1250183Y1101317D1*
X-1257283Y1112903D1*
X-1262483Y1125460D1*
X-1265657Y1138673D1*
X-1266723Y1152220D1*
X-1265657Y1165767D1*
X-1262483Y1178980D1*
X-1257283Y1191537D1*
X-1250183Y1203123D1*
X-1241360Y1213457D1*
X-1231027Y1222280D1*
X-1219440Y1229380D1*
X-1206883Y1234580D1*
X-1193670Y1237753D1*
X-1180123Y1238820D1*
X-1166577Y1237753D1*
X-1153363Y1234580D1*
X-1139810Y1228823D1*
X-348450Y1228583D1*
X-336577Y1226703D1*
X-325147Y1222990D1*
X-314437Y1217533D1*
X-304713Y1210467D1*
X-256843Y1162930D1*
X-249037Y1153790D1*
X-242757Y1143543D1*
X-238157Y1132437D1*
X-235350Y1120750D1*
X-234407Y1108767D1*
Y637750D1*
X196313Y207097D1*
X492833Y206810D1*
X504707Y204930D1*
X516137Y201217D1*
X526847Y195760D1*
X531867Y192403D1*
X533400Y205400D1*
Y669600D1*
X533480Y1050600D1*
X533400Y1246947D1*
X-1008040Y1249137D1*
X-1079727Y1255057D1*
X-1135033Y1273677D1*
X-1207883Y1317633D1*
X-1272273Y1377493D1*
X-1273200Y1378770D1*
X-1282270Y1382000D1*
X-1291597Y1359480D1*
X-1304333Y1338697D1*
X-1320163Y1320163D1*
X-1338697Y1304333D1*
X-1359480Y1291597D1*
X-1382000Y1282270D1*
X-1405700Y1276580D1*
X-1430000Y1274667D1*
X-1454300Y1276580D1*
X-1478000Y1282270D1*
X-1500520Y1291597D1*
X-1521303Y1304333D1*
X-1539837Y1320163D1*
X-1552747Y1334993D1*
X-1551953Y1222173D1*
X-1552497Y760847D1*
X-1302887Y1010107D1*
X-1293480Y1016940D1*
X-1283120Y1022220D1*
X-1272063Y1025813D1*
X-1260577Y1027633D1*
X-1134763Y1027860D1*
X-826560D1*
X-826600Y1050600D1*
X-533400D1*
Y339400D1*
Y-41600D1*
X-732227D1*
X-732433Y-246837D1*
X-734313Y-258710D1*
X-738027Y-270140D1*
X-743483Y-280850D1*
X-750550Y-290573D1*
X-783303Y-323663D1*
X-783290Y-561373D1*
X-1164927Y-930703D2*
X-1104703Y-869923D1*
X-1250327Y-724280D1*
Y-927620D1*
X-1176363Y-1001623D1*
X-1180583Y-990577D1*
X-1182647Y-978773D1*
X-1182387Y-966797D1*
X-1179813Y-955093D1*
X-1175023Y-944113D1*
X-1168197Y-934267D1*
X-1165500Y-931290D1*
X-1061367Y-1110367D2*
X-1068860Y-1107493D1*
X-1058967Y-1113053D1*
X-1060630Y-1117357D1*
X-1054277Y-1123710D1*
X-1058960Y-1113073D1*
X1549383Y1330727D2*
X1539837Y1320163D1*
X1521303Y1304333D1*
X1500520Y1291597D1*
X1478000Y1282270D1*
X1454300Y1276580D1*
X1430000Y1274667D1*
X1405700Y1276580D1*
X1382000Y1282270D1*
X1359480Y1291597D1*
X1338697Y1304333D1*
X1320163Y1320163D1*
X1304333Y1338697D1*
X1291597Y1359480D1*
X1282270Y1382000D1*
X1278970Y1393693D1*
X1244207Y1351833D1*
X1146123Y1281263D1*
X1122490Y1274897D1*
X1020497Y1249663D1*
X1128203Y1249653D1*
X1141867Y1255413D1*
X1155080Y1258587D1*
X1168627Y1259653D1*
X1182173Y1258587D1*
X1195387Y1255413D1*
X1207943Y1250213D1*
X1219530Y1243113D1*
X1229863Y1234290D1*
X1238687Y1223957D1*
X1245787Y1212370D1*
X1250987Y1199813D1*
X1254160Y1186600D1*
X1255227Y1173053D1*
X1254160Y1159507D1*
X1250987Y1146293D1*
X1245787Y1133737D1*
X1238687Y1122150D1*
X1229863Y1111817D1*
X1219530Y1102993D1*
X1207943Y1095893D1*
X1195387Y1090693D1*
X1182173Y1087520D1*
X1168627Y1086453D1*
X1155080Y1087520D1*
X1141867Y1090693D1*
X1128313Y1096450D1*
X1019800Y1096453D1*
X1049080Y1067133D1*
X1062823Y1061537D1*
X1074410Y1054437D1*
X1084743Y1045613D1*
X1093567Y1035280D1*
X1100667Y1023693D1*
X1105867Y1011137D1*
X1109040Y997923D1*
X1110080Y983660D1*
X1214710Y983673D1*
X1297470Y1066477D1*
X1303060Y1080213D1*
X1310160Y1091800D1*
X1318983Y1102133D1*
X1329317Y1110957D1*
X1340903Y1118057D1*
X1353460Y1123257D1*
X1366673Y1126430D1*
X1380220Y1127497D1*
X1393767Y1126430D1*
X1406980Y1123257D1*
X1419537Y1118057D1*
X1431123Y1110957D1*
X1441457Y1102133D1*
X1447667Y1095117D1*
X1457517Y1105000D1*
X1468510Y1112990D1*
X1480620Y1119157D1*
X1493543Y1123357D1*
X1506967Y1125483D1*
X1520553D1*
X1533977Y1123357D1*
X1546900Y1119157D1*
X1549383Y1118013D1*
X1549377Y1330573D1*
X-1554990Y-1337837D2*
X-1541163Y-1321597D1*
X-1554883Y-1321600D1*
X-1328383Y-1312563D2*
X-1311883Y-1329120D1*
X-1297557Y-1348840D1*
X-1286490Y-1370557D1*
X-1278960Y-1393737D1*
X-1278800Y-1394533D1*
X-1258957Y-1365197D1*
X-1232807Y-1340040D1*
X-1243370Y-1341470D1*
X-1257743D1*
X-1271940Y-1339223D1*
X-1285610Y-1334780D1*
X-1298417Y-1328257D1*
X-1310047Y-1319807D1*
X-1320210Y-1309643D1*
X-1328393Y-1298410D1*
X1279617Y-1391400D2*
X1286490Y-1370557D1*
X1297557Y-1348840D1*
X1311883Y-1329120D1*
X1329120Y-1311883D1*
X1348840Y-1297557D1*
X1370557Y-1286490D1*
X1393737Y-1278960D1*
X1417813Y-1275147D1*
X1442187D1*
X1466263Y-1278960D1*
X1489443Y-1286490D1*
X1511160Y-1297557D1*
X1530880Y-1311883D1*
X1548117Y-1329120D1*
X1549383Y-1330727D1*
X1549377Y-621770D1*
X1539127Y-633127D1*
X1522230Y-647557D1*
X1503287Y-659167D1*
X1482757Y-667670D1*
X1461150Y-672857D1*
X1439000Y-674600D1*
X1416850Y-672857D1*
X1395243Y-667670D1*
X1374713Y-659167D1*
X1355770Y-647557D1*
X1338873Y-633127D1*
X1324443Y-616230D1*
X1323983Y-615543D1*
X1023770Y-615533D1*
X857690Y-781223D1*
X847967Y-788290D1*
X837257Y-793747D1*
X825827Y-797460D1*
X813953Y-799340D1*
X708333Y-799577D1*
X708027Y-1289160D1*
X706147Y-1301033D1*
X702433Y-1312463D1*
X696977Y-1323173D1*
X689910Y-1332897D1*
X622133Y-1401010D1*
X675320Y-1470183D1*
X693937Y-1425297D1*
X738457Y-1364583D1*
X797167Y-1312690D1*
X860597Y-1275553D1*
X940520Y-1251280D1*
X1018323Y-1249727D1*
X1100213Y-1262820D1*
X1181793Y-1298870D1*
X1257947Y-1359020D1*
X1279530Y-1391280D1*
X1316420Y-462310D2*
X1324443Y-449770D1*
X1338873Y-432873D1*
X1355770Y-418443D1*
X1374450Y-406983D1*
X1361013Y-399733D1*
X1343037Y-386673D1*
X1327327Y-370963D1*
X1314267Y-352987D1*
X1309110Y-343777D1*
X1174157Y-343740D1*
X1055517Y-462340D1*
X1316283Y-462333D1*
X1499460Y-405070D2*
X1512987Y-412267D1*
X1530963Y-425327D1*
X1546673Y-441037D1*
X1549390Y-444483D1*
X1549377Y-362550D1*
X1535127Y-379127D1*
X1518230Y-393557D1*
X1499550Y-405017D1*
X1410677Y-139577D2*
X1423890Y-137837D1*
X1446110D1*
X1468057Y-141313D1*
X1489187Y-148180D1*
X1508987Y-158267D1*
X1526963Y-171327D1*
X1542673Y-187037D1*
X1549370Y-195530D1*
X1549377Y458230D1*
X1522810Y432013D1*
X1513087Y424947D1*
X1502377Y419490D1*
X1490947Y415777D1*
X1479073Y413897D1*
X1388140Y413660D1*
X1379033Y404553D1*
X1379037Y171360D1*
X1390270Y165063D1*
X1397770Y158963D1*
X1415870Y137237D1*
X1435443Y112473D1*
X1440227Y104077D1*
X1443643Y95013D1*
X1455877Y41393D1*
X1456580Y12443D1*
X1456463Y-32390D1*
X1450707Y-60773D1*
X1443550Y-91517D1*
X1439963Y-100493D1*
X1435010Y-108813D1*
X1410737Y-139513D1*
X-1488497Y-147923D2*
X-1468057Y-141313D1*
X-1446110Y-137837D1*
X-1423890D1*
X-1414530Y-138943D1*
X-1435440Y-112470D1*
X-1440227Y-104073D1*
X-1443643Y-95010D1*
X-1455877Y-41390D1*
X-1456580Y-12440D1*
X-1456513Y31707D1*
X-1455127Y41270D1*
X-1443550Y91520D1*
X-1439967Y100497D1*
X-1435010Y108817D1*
X-1405853Y145660D1*
X-1419890Y143837D1*
X-1442110D1*
X-1464057Y147313D1*
X-1485187Y154180D1*
X-1488460Y155687D1*
X-1488477Y-147880D1*
X-1320470Y-195737D2*
X-1316027Y-202377D1*
X-1252110Y-202400D1*
X-1239707Y-189977D1*
X-1248597Y-193457D1*
X-1258040Y-195517D1*
X-1286303Y-196120D1*
X-1317887Y-195983D1*
X-1370540Y412930D2*
X-1357013Y405733D1*
X-1339037Y392673D1*
X-1323327Y376963D1*
X-1310267Y358987D1*
X-1300180Y339187D1*
X-1294717Y323030D1*
X-1220153Y248133D1*
X-1213087Y238410D1*
X-1207630Y227700D1*
X-1203917Y216270D1*
X-1202037Y204397D1*
X-1201800Y167370D1*
X-1189723Y160740D1*
X-1182223Y154640D1*
X-1164123Y132913D1*
X-1144550Y108153D1*
X-1139767Y99753D1*
X-1136350Y90690D1*
X-1124117Y37070D1*
X-1123413Y8120D1*
X-1123527Y-36713D1*
X-1129287Y-65097D1*
X-1133143Y-83413D1*
X-1106020Y-56290D1*
X-1105733Y113403D1*
X-1103853Y125277D1*
X-1100140Y136707D1*
X-1094683Y147417D1*
X-1087617Y157140D1*
X-998683Y246410D1*
X-870363Y374393D1*
X-860640Y381460D1*
X-849930Y386917D1*
X-838500Y390630D1*
X-826603Y392513D1*
X-826600Y879697D1*
X-1224057Y879660D1*
X-1423613Y680117D1*
X-1406470Y677697D1*
X-1391013Y673597D1*
X-1376120Y667777D1*
X-1361973Y660317D1*
X-1348760Y651310D1*
X-1336647Y640870D1*
X-1325790Y629130D1*
X-1316323Y616240D1*
X-1308370Y602367D1*
X-1302033Y587683D1*
X-1297390Y572383D1*
X-1294503Y556653D1*
X-1293400Y539000D1*
X-1294303Y523033D1*
X-1297000Y507273D1*
X-1301457Y491913D1*
X-1307620Y477157D1*
X-1315403Y463190D1*
X-1324713Y450187D1*
X-1335433Y438317D1*
X-1347420Y427733D1*
X-1360523Y418567D1*
X-1370417Y412993D1*
X873000Y384613D2*
X838003D1*
Y745473D1*
X826577Y745400D1*
X826523Y466400D1*
Y212400D1*
X826600Y180553D1*
X873027Y226913D1*
X873003Y384617D1*
X166397Y-644650D2*
X166413Y-730937D1*
X269760Y-627623D1*
X214573Y-627380D1*
X202700Y-625500D1*
X191270Y-621787D1*
X180560Y-616330D1*
X170837Y-609263D1*
X166403Y-605163D1*
X163377Y-605613D1*
X165633Y-615013D1*
X166393Y-624650D1*
X166397Y-644650D1*
X123800Y-566067D2*
X128373Y-567753D1*
X109850Y-548613D1*
X5253Y-443680D1*
X-1813Y-433957D1*
X-7270Y-423247D1*
X-10983Y-411817D1*
X-12863Y-399943D1*
X-14900Y-376600D1*
X-63070D1*
X113053Y-553100D1*
X120130Y-562843D1*
X161693Y-601060D2*
X163377Y-605613D1*
X-982197Y-377910D2*
X-1050080Y-444130D1*
X-1057957Y-449730D1*
X-1066617Y-454030D1*
X-1075840Y-456920D1*
X-1085403Y-458333D1*
X-1095067Y-458233D1*
X-1104600Y-456623D1*
X-1109257Y-455253D1*
X-1121073Y-465447D1*
X-1131320Y-471727D1*
X-1142427Y-476327D1*
X-1154113Y-479133D1*
X-1166097Y-480077D1*
X-1269770D1*
X-1280957Y-491283D1*
X-1268710Y-486280D1*
X-1254733Y-482923D1*
X-1240403Y-481797D1*
X-1226073Y-482923D1*
X-1212097Y-486280D1*
X-1198817Y-491780D1*
X-1186563Y-499290D1*
X-1175633Y-508627D1*
X-1166297Y-519557D1*
X-1158787Y-531810D1*
X-1153287Y-545090D1*
X-1149930Y-559067D1*
X-1148803Y-573397D1*
X-1149930Y-587727D1*
X-1153287Y-601703D1*
X-1154073Y-603837D1*
X-936487Y-821460D1*
X-936503Y-330777D1*
X-945163Y-335077D1*
X-949737Y-336710D1*
X-952627Y-339550D1*
X-956417Y-348440D1*
X-961553Y-356630D1*
X-967907Y-363913D1*
X-982197Y-377910D1*
X-244707Y-1060910D2*
X-249767Y-1069187D1*
X-132057Y-1069517D1*
X391073Y-1069763D1*
X397023Y-1071697D1*
X402087Y-1075373D1*
X405763Y-1080437D1*
X407697Y-1086387D1*
X407943Y-1144750D1*
X420003Y-1149017D1*
X428380Y-1153843D1*
X435897Y-1159920D1*
X442370Y-1167097D1*
X528017Y-1278533D1*
X555053Y-1251430D1*
X555063Y-799633D1*
X438303Y-799577D1*
X196250Y-1041327D1*
X186527Y-1048393D1*
X175817Y-1053850D1*
X164387Y-1057563D1*
X152513Y-1059443D1*
X26503Y-1059680D1*
X-244043D1*
X-414373Y-1094557D2*
X-423943Y-1093053D1*
X-433140Y-1090077D1*
X-437550Y-1088050D1*
X-441603Y-1088063D1*
X-450530Y-1091770D1*
X-459927Y-1094037D1*
X-469563Y-1094807D1*
X-560110Y-1094907D1*
X-464453Y-1190620D1*
X-443900Y-1163000D1*
X-437050Y-1156180D1*
X-429220Y-1150513D1*
X-420600Y-1146143D1*
X-416040Y-1144470D1*
X-412057Y-1129517D1*
Y-1094750D1*
X-389810Y-871517D2*
X-355043Y-871480D1*
X-374190Y-852077D1*
X-381257Y-842353D1*
X-386713Y-831643D1*
X-390427Y-820213D1*
X-392307Y-808340D1*
X-392543Y-792877D1*
X-425130Y-792943D1*
Y-489743D1*
X-394113D1*
X-394100Y-394860D1*
X-486957Y-487750D1*
X-475130Y-489743D1*
X-451930D1*
Y-792943D1*
X-489820D1*
X-491887Y-806677D1*
X-495600Y-818107D1*
X-501057Y-828817D1*
X-508123Y-838540D1*
X-540880Y-871630D1*
X-464977Y-871790D1*
X-455430Y-873293D1*
X-446233Y-876270D1*
X-441820Y-878300D1*
X-437770Y-878283D1*
X-428843Y-874577D1*
X-419447Y-872310D1*
X-409810Y-871540D1*
X-389810Y-871517D1*
X-1159240Y-1257340D2*
X-1161487Y-1271537D1*
X-1165930Y-1285207D1*
X-1170820Y-1295097D1*
X-1123323Y-1271317D1*
X-1160317Y-1234330D1*
X-1158957Y-1250153D1*
X-1159240Y-1257340D1*
X1446253Y984883D2*
X1435483Y974273D1*
X1442757Y967790D1*
X1451580Y957457D1*
X1458737Y945747D1*
X1458730Y972257D1*
X1447910Y982907D1*
X1446313Y984930D1*
X1458737Y867360D2*
X1451580Y855650D1*
X1442757Y845317D1*
X1432423Y836493D1*
X1420837Y829393D1*
X1407180Y823883D1*
X1363837Y780543D1*
X1458743Y780497D1*
X1458730Y867257D1*
X-1403477Y-881600D2*
X-1488477D1*
X-1481897Y-899190D1*
X-1471453Y-909633D1*
X-1447520Y-909893D1*
X-1436033Y-911713D1*
X-1424977Y-915307D1*
X-1414617Y-920587D1*
X-1405193Y-927437D1*
X-1403527Y-919390D1*
Y-881657D1*
X-1554647Y-1078400D2*
X-1463553D1*
X-1483983Y-1057910D1*
X-1507927Y-1057640D1*
X-1519413Y-1055820D1*
X-1530470Y-1052227D1*
X-1540830Y-1046947D1*
X-1550237Y-1040113D1*
X-1554567Y-1036107D1*
X-1554663Y-1078373D1*
X1176570Y-148467D2*
X1144553Y-108147D1*
X1139767Y-99750D1*
X1136350Y-90687D1*
X1129667Y-80287D1*
X998797Y-211157D1*
X998813Y-302457D1*
X1092640Y-208893D1*
X1102363Y-201827D1*
X1113073Y-196370D1*
X1124503Y-192657D1*
X1136377Y-190777D1*
X1254183Y-190540D1*
X1243360Y-187187D1*
X1193807Y-163323D1*
X1185853Y-157833D1*
X1178843Y-151150D1*
X-678697Y-1481167D2*
X-598580Y-1372507D1*
X-666393Y-1304627D1*
X-819707Y-1304660D1*
X-801673Y-1315747D1*
X-753070Y-1358193D1*
X-700037Y-1427670D1*
X-678707Y-1481227D1*
X-145233Y-567053D2*
D10*
Y-683577D1*
X-717743Y-561457D2*
Y-677980D1*
X-1046963Y-977313D2*
Y-1112947D1*
X-1182783Y-977313D2*
X-1046963D1*
X-1435000Y680523D2*
Y539000D1*
X-1293477D1*
X190500Y-230000D2*
Y-376523D1*
D20*
X-145233Y-853577D3*
Y-683577D3*
X-717743Y-677980D3*
Y-847980D3*
D60*
X-1046963Y-977313D3*
X-926203Y-1096967D3*
D22*
X1439000Y-533000D3*
D23*
X1435000Y-279000D3*
D22*
X-1431000Y-533000D3*
D23*
X-1435000Y-279000D3*
D22*
X-1431000Y285000D3*
D23*
X-1435000Y539000D3*
D20*
X949603Y501213D3*
Y671213D3*
D66*
X54840Y-849670D3*
X54807Y-679670D3*
D69*
X-1085290Y-322670D3*
X-963837Y-203717D3*
D72*
X-354687Y-983080D3*
X-524687Y-983267D3*
D24*
X-680000Y60000D3*
Y187000D3*
Y314000D3*
Y441000D3*
Y568000D3*
Y695000D3*
Y822000D3*
Y949000D3*
X680000Y60000D3*
Y187000D3*
Y314000D3*
Y441000D3*
Y568000D3*
Y695000D3*
Y822000D3*
Y949000D3*
Y1076000D3*
Y1203000D3*
D25*
X-63500Y-230000D3*
X63500D3*
X-190500Y-229000D3*
X190500Y-230000D3*
X-317500D3*
X317500D3*
X-444500D3*
X444500D3*
D26*
X-1450000Y-760000D3*
Y-1200000D3*
D75*
X1289997Y2163D3*
X-1289997Y-2160D3*
D30*
X-149913Y-1493143D3*
Y-1393143D3*
Y-1293143D3*
X140087Y-1493143D3*
Y-1393143D3*
Y-1293143D3*
D81*
X-4913Y-1393143D3*
D31*
X-563530Y-641343D3*
X-313530D3*
G04 Top Clear*
%LPC*%
D19*
X1168627Y1173053D3*
X-1180123Y1152220D3*
D15*
X-1250557Y-1250153D3*
X-664513Y-399613D3*
X-145043Y-563747D3*
D19*
X1380220Y1040897D3*
X1513760Y1039150D3*
X1023507Y984377D3*
X1381520Y906553D3*
D15*
X-1240403Y-573397D3*
X1452300Y610567D3*
X-1123830Y-1054883D3*
X538680Y-1130947D3*
X484657Y-423167D3*
X660540Y-325367D3*
X723217Y-153687D3*
X987673Y64180D3*
X543857Y-1014403D3*
X436410Y-1012793D3*
D34*
X1439000Y-533000D3*
X1435000Y-279000D3*
X-1431000Y-533000D3*
X-1435000Y-279000D3*
X-1431000Y285000D3*
X-1435000Y539000D3*
D35*
X-1450000Y-760000D3*
Y-1200000D3*
X1289946Y32163D2*
D36*
X1290047Y-27837D1*
X-1290047Y27840D2*
X-1289946Y-32160D1*
M02*
