G04 DipTrace 3.2.0.1*
G04 Нижний.gbr*
%MOIN*%
G04 #@! TF.FileFunction,Copper,L2,Bot*
G04 #@! TF.Part,Single*
%AMOUTLINE3*
4,1,4,
0.014735,-0.029542,
-0.014794,-0.029513,
-0.014735,0.029542,
0.014794,0.029513,
0.014735,-0.029542,
0*%
%AMOUTLINE15*
4,1,16,
-0.041319,-0.011881,
-0.037196,-0.02981,
-0.025701,-0.044175,
-0.009112,-0.052129,
0.009286,-0.052097,
0.025848,-0.044088,
0.037294,-0.029685,
0.041358,-0.011741,
0.041319,0.011881,
0.037196,0.02981,
0.025701,0.044175,
0.009112,0.052129,
-0.009286,0.052097,
-0.025848,0.044088,
-0.037294,0.029685,
-0.041358,0.011741,
-0.041319,-0.011881,
0*%
%AMOUTLINE18*
4,1,4,
0.013953,0.021542,
0.013606,-0.021762,
-0.013953,-0.021542,
-0.013606,0.021762,
0.013953,0.021542,
0*%
%ADD15C,0.011811*%
%ADD33C,0.035433*%
%ADD34C,0.031496*%
%ADD35C,0.043307*%
G04 #@! TA.AperFunction,CopperBalancing*
%ADD10C,0.009843*%
G04 #@! TA.AperFunction,ViaPad*
%ADD18C,0.023622*%
G04 #@! TA.AperFunction,CopperBalancing*
%ADD19C,0.015748*%
%ADD21R,0.133858X0.074803*%
G04 #@! TA.AperFunction,ComponentPad*
%ADD22C,0.062992*%
%ADD23C,0.062992*%
%ADD26R,0.047244X0.047244*%
%ADD27R,0.055118X0.059055*%
%ADD28R,0.055118X0.043307*%
%ADD29C,0.669291*%
%ADD63OUTLINE3*%
G04 #@! TA.AperFunction,ComponentPad*
%ADD75OUTLINE15*%
%ADD78OUTLINE18*%
%FSLAX26Y26*%
G04*
G70*
G90*
G75*
G01*
G04 Bottom*
%LPD*%
X431534Y320801D2*
D15*
Y299218D1*
X458748Y272004D1*
Y251669D1*
X458940Y251478D1*
X460089Y461832D2*
X491634D1*
X493378Y460088D1*
X358621Y420598D2*
X426852D1*
X484462Y362988D1*
Y311663D1*
X493232D1*
X543394Y409802D2*
Y470272D1*
X540545Y473121D1*
Y462871D1*
X543378Y460038D1*
X543906Y356911D2*
Y312286D1*
X543234Y311614D1*
X545906Y-310280D2*
D18*
X504348D1*
Y20499D1*
X507873Y16974D1*
Y852D1*
X595969Y409114D2*
D15*
Y457400D1*
X593379Y459990D1*
X562346Y194765D2*
Y234257D1*
X594685Y266596D1*
Y310112D1*
X593232Y311564D1*
X190810Y-166601D2*
X166601D1*
X0Y0D1*
X545906Y-463823D2*
D18*
X444560D1*
X413043Y-432306D1*
Y-413043D1*
X0Y0D1*
X-594156Y304475D2*
D15*
Y358948D1*
X-567193Y385911D1*
X-385911D1*
X0Y0D1*
X-594156Y304475D2*
Y241400D1*
X-564961Y212205D1*
X-505906Y-320866D2*
X-442453D1*
X-320866D1*
X0Y0D1*
X-442453Y-415308D2*
Y-320866D1*
X212079Y-445255D2*
Y-404841D1*
Y-397900D1*
X106852Y-292673D1*
Y-106852D1*
X0Y0D1*
X-261619Y-157328D2*
X-157328D1*
X0Y0D1*
X-57104Y-221948D2*
Y-57104D1*
X0Y0D1*
X212615Y-405378D2*
X212079Y-404841D1*
X-492345Y-492186D2*
Y-464348D1*
X-505906Y-450787D1*
X-464615Y453630D2*
X-494657D1*
X-508206Y467178D1*
X-507873Y-850D2*
Y72979D1*
X-547098Y112205D1*
X-563386D1*
X-488348Y-225747D2*
X-489604D1*
X-504472Y-210878D1*
Y-4251D1*
X-507873Y-850D1*
D18*
X460089Y461832D3*
X-464615Y453630D3*
X-492345Y-492186D3*
X-261619Y-157328D3*
X-57104Y-221948D3*
X543394Y409802D3*
X595969Y409114D3*
X358621Y420598D3*
X543906Y356911D3*
X-488348Y-225747D3*
X562346Y194765D3*
X-442453Y-415308D3*
X212079Y-445255D3*
X190810Y-166601D3*
X260055Y-128097D3*
X284731Y-60507D3*
X388848Y25268D3*
X212615Y-405378D3*
X173818Y-405744D3*
X458940Y251478D3*
X431534Y320801D3*
X-506940Y535235D2*
D19*
X-498228D1*
X496690D2*
X506920D1*
X-518320Y519618D2*
X-481761D1*
X480020D2*
X518301D1*
X-473844Y504001D2*
X-454602D1*
X-553076Y488385D2*
X-547627D1*
X-453421D2*
X434117D1*
X-553199Y472768D2*
X-547783D1*
X-432475D2*
X424151D1*
X-553323Y457151D2*
X-547887D1*
X-427154D2*
X422766D1*
X-553845Y441534D2*
X-547634D1*
X-429060D2*
X327694D1*
X-564210Y425917D2*
X-537864D1*
X-439949D2*
X321388D1*
X-610039Y410301D2*
X322496D1*
X-610039Y394684D2*
X331970D1*
X496997D2*
X509073D1*
X-610039Y379067D2*
X424151D1*
X-610039Y363450D2*
X439776D1*
X-568025Y347833D2*
X-534295D1*
X-484917D2*
X-89997D1*
X90009D2*
X406096D1*
X-555168Y332217D2*
X-548013D1*
X-470738D2*
X-137365D1*
X137377D2*
X395761D1*
X-554461Y316600D2*
X-548990D1*
X-469815D2*
X-170614D1*
X170594D2*
X394131D1*
X-554583Y300983D2*
X-549164D1*
X-469937D2*
X-197066D1*
X197077D2*
X399790D1*
X-554706Y285366D2*
X-549280D1*
X-470060D2*
X-219243D1*
X219223D2*
X403173D1*
X-463756Y269749D2*
X-238312D1*
X238293D2*
X416769D1*
X-610039Y254133D2*
X-603264D1*
X-460833D2*
X-255014D1*
X254995D2*
X421413D1*
X561005D2*
X607898D1*
X-460680Y238516D2*
X-269747D1*
X269759D2*
X423720D1*
X561159D2*
X607898D1*
X-460495Y222899D2*
X-282850D1*
X282861D2*
X435378D1*
X561312D2*
X607867D1*
X-460341Y207282D2*
X-294568D1*
X294550D2*
X456508D1*
X561497D2*
X607867D1*
X-460188Y191665D2*
X-304996D1*
X305007D2*
X456539D1*
X561651D2*
X607867D1*
X-460003Y176049D2*
X-314315D1*
X314327D2*
X456600D1*
X561835D2*
X607837D1*
X-610039Y160432D2*
X-592920D1*
X-459849D2*
X-322619D1*
X322631D2*
X456631D1*
X594500D2*
X607837D1*
X-459664Y144815D2*
X-329971D1*
X329951D2*
X456661D1*
X-459510Y129198D2*
X-336399D1*
X336411D2*
X456723D1*
X-459327Y113581D2*
X-342028D1*
X342039D2*
X456755D1*
X-459172Y97965D2*
X-346857D1*
X346837D2*
X456785D1*
X-458988Y82348D2*
X-350886D1*
X350898D2*
X456846D1*
X-610039Y66731D2*
X-597196D1*
X-458835D2*
X-354209D1*
X354219D2*
X456877D1*
X598776D2*
X607776D1*
X-610039Y51114D2*
X-564807D1*
X-455759D2*
X-356823D1*
X356803D2*
X454386D1*
X563157D2*
X607776D1*
X-610039Y35497D2*
X-570067D1*
X-445762D2*
X-358698D1*
X358710D2*
X445251D1*
X570417D2*
X607776D1*
X-610039Y19881D2*
X-573635D1*
X-442133D2*
X-359929D1*
X359909D2*
X441714D1*
X574016D2*
X607776D1*
X-610039Y4264D2*
X-575050D1*
X-440718D2*
X-360451D1*
X360433D2*
X440698D1*
X575030D2*
X607744D1*
X-610039Y-11353D2*
X-575018D1*
X-440686D2*
X-360298D1*
X360280D2*
X440730D1*
X575062D2*
X607744D1*
X-610039Y-26970D2*
X-572374D1*
X-443332D2*
X-359467D1*
X359449D2*
X443774D1*
X572016D2*
X607744D1*
X-610039Y-42587D2*
X-567760D1*
X-447946D2*
X-357929D1*
X357941D2*
X449034D1*
X566726D2*
X607714D1*
X-610039Y-58203D2*
X-587537D1*
X-457480D2*
X-355715D1*
X355727D2*
X457215D1*
X587549D2*
X607714D1*
X-457327Y-73820D2*
X-352793D1*
X352804D2*
X457247D1*
X-457173Y-89437D2*
X-349164D1*
X349144D2*
X457307D1*
X-456988Y-105054D2*
X-344765D1*
X344747D2*
X457339D1*
X-456835Y-120671D2*
X-339567D1*
X339579D2*
X457400D1*
X-456650Y-136287D2*
X-333600D1*
X333581D2*
X457430D1*
X-610039Y-151904D2*
X-603142D1*
X-456496D2*
X-326741D1*
X326753D2*
X457462D1*
X-610039Y-167521D2*
X-601236D1*
X-456312D2*
X-318991D1*
X318971D2*
X457524D1*
X-456157Y-183138D2*
X-310224D1*
X310236D2*
X457554D1*
X-455974Y-198755D2*
X-300412D1*
X300424D2*
X457584D1*
X-452559Y-214371D2*
X-289402D1*
X289413D2*
X457646D1*
X-450961Y-229988D2*
X-277098D1*
X277110D2*
X457677D1*
X-455482Y-245605D2*
X-263287D1*
X263269D2*
X457707D1*
X-455328Y-261222D2*
X-247693D1*
X247675D2*
X453155D1*
X-452529Y-276839D2*
X-229976D1*
X229988D2*
X453155D1*
X-452529Y-292455D2*
X-209615D1*
X209596D2*
X453155D1*
X-452529Y-308072D2*
X-185685D1*
X185697D2*
X453155D1*
X-452529Y-323689D2*
X-156589D1*
X156600D2*
X453155D1*
X-452529Y-339306D2*
X-118541D1*
X118522D2*
X453155D1*
X-610039Y-354923D2*
X-559302D1*
X-452529D2*
X-54841D1*
X54853D2*
X453155D1*
X-610039Y-370539D2*
X-559302D1*
X-452529D2*
X453155D1*
X-610039Y-386156D2*
X-559302D1*
X-452529D2*
X461337D1*
X-610039Y-401773D2*
X-559302D1*
X-452529D2*
X461337D1*
X-610039Y-417390D2*
X-559302D1*
X-452529D2*
X453155D1*
X-452529Y-433007D2*
X-163816D1*
X162168D2*
X453155D1*
X-452529Y-448623D2*
X-163816D1*
X162168D2*
X453155D1*
X-452529Y-464240D2*
X-177381D1*
X174224D2*
X453155D1*
X-452529Y-479857D2*
X-188546D1*
X187635D2*
X453155D1*
X-452529Y-495474D2*
X-426612D1*
X-357056D2*
X-199681D1*
X201076D2*
X356945D1*
X429823D2*
X453155D1*
X-321807Y-511091D2*
X-210845D1*
X214487D2*
X320220D1*
X-512199Y-526707D2*
X-504346D1*
X-303353D2*
X-222010D1*
X227898D2*
X299643D1*
X490108D2*
X512180D1*
X-287420Y-542324D2*
X-231976D1*
X236079D2*
X284479D1*
X-276471Y-557941D2*
X-233483D1*
X236017D2*
X273929D1*
X-266535Y-573558D2*
X-233730D1*
X235710D2*
X265840D1*
X-262722Y-589175D2*
X-233975D1*
X235402D2*
X259319D1*
X-258877Y-604791D2*
X-234222D1*
X235063D2*
X255535D1*
X462904Y-371933D2*
X454724D1*
Y-248626D1*
X459307D1*
X458778Y-52919D1*
X450610Y-42577D1*
X448727Y-39272D1*
X447382Y-35703D1*
X442566Y-14593D1*
X442289Y-3196D1*
X442335Y14455D1*
X444601Y25630D1*
X447419Y37734D1*
X448831Y41268D1*
X450781Y44543D1*
X458500Y54319D1*
X458056Y215412D1*
X453299Y215858D1*
X447797Y217180D1*
X442568Y219345D1*
X437743Y222302D1*
X433440Y225978D1*
X429765Y230280D1*
X426808Y235105D1*
X424642Y240333D1*
X423322Y245836D1*
X422877Y251478D1*
X423322Y257119D1*
X424869Y263234D1*
X408601Y279633D1*
X405820Y283461D1*
X403672Y287677D1*
X402209Y292178D1*
X401469Y296852D1*
X401377Y299228D1*
X400785Y301957D1*
X398215Y306999D1*
X396467Y312381D1*
X395581Y317971D1*
Y323630D1*
X396467Y329219D1*
X398215Y334601D1*
X400785Y339643D1*
X404112Y344220D1*
X408113Y348223D1*
X412690Y351549D1*
X417734Y354118D1*
X423115Y355866D1*
X428705Y356752D1*
X434364D1*
X439953Y355866D1*
X445335Y354118D1*
X450377Y351549D1*
X454303Y348736D1*
X452001Y352799D1*
X414354Y390448D1*
X378408Y390441D1*
X372423Y387281D1*
X367039Y385533D1*
X361450Y384647D1*
X355791D1*
X350202Y385533D1*
X344820Y387281D1*
X339778Y389850D1*
X335201Y393176D1*
X331198Y397178D1*
X327873Y401756D1*
X325303Y406798D1*
X323555Y412180D1*
X322669Y417769D1*
Y423428D1*
X323555Y429017D1*
X325303Y434400D1*
X327873Y439442D1*
X331198Y444020D1*
X335201Y448021D1*
X339778Y451348D1*
X344820Y453917D1*
X350202Y455665D1*
X355791Y456551D1*
X361450D1*
X367039Y455665D1*
X372423Y453917D1*
X377465Y451348D1*
X378356Y450752D1*
X425768Y450756D1*
X424470Y456190D1*
X424026Y461832D1*
X424470Y467474D1*
X425791Y472976D1*
X427957Y478205D1*
X430913Y483029D1*
X434589Y487332D1*
X438892Y491008D1*
X443717Y493965D1*
X448945Y496130D1*
X454448Y497451D1*
X455732Y497604D1*
X457978Y502322D1*
X460217Y505399D1*
X462911Y508087D1*
X465992Y510320D1*
X469385Y512045D1*
X473004Y513218D1*
X476764Y513810D1*
X508196Y513853D1*
X511990Y513551D1*
X515689Y512659D1*
X517482Y511995D1*
X519385D1*
X523004Y513168D1*
X524881Y513538D1*
X523276Y516490D1*
X516490Y523276D1*
X510849Y531039D1*
X506492Y539589D1*
X504224Y546243D1*
X485919Y524320D1*
X471402Y515297D1*
X444234Y498777D1*
X434710Y497020D1*
X396492Y490924D1*
X-399041Y491021D1*
X-443050Y498457D1*
X-451306Y503020D1*
X-483664Y521795D1*
X-504930Y543815D1*
X-508503Y535228D1*
X-513517Y527046D1*
X-519749Y519749D1*
X-527046Y513517D1*
X-529122Y512066D1*
X-525415Y512924D1*
X-521618Y513192D1*
X-492157Y512882D1*
X-488403Y512256D1*
X-484794Y511051D1*
X-481416Y509297D1*
X-478356Y507035D1*
X-475686Y504323D1*
X-473474Y501226D1*
X-471774Y497822D1*
X-470627Y494193D1*
X-470062Y490423D1*
X-467445Y489581D1*
X-461786D1*
X-456197Y488697D1*
X-450815Y486948D1*
X-445773Y484379D1*
X-441194Y481052D1*
X-437193Y477051D1*
X-433866Y472472D1*
X-431298Y467430D1*
X-429549Y462049D1*
X-428664Y456459D1*
Y450801D1*
X-429549Y445211D1*
X-431298Y439829D1*
X-433866Y434787D1*
X-437193Y430209D1*
X-441194Y426207D1*
X-445773Y422881D1*
X-450815Y420312D1*
X-456197Y418563D1*
X-461786Y417678D1*
X-467445D1*
X-473034Y418563D1*
X-478416Y420312D1*
X-483458Y422881D1*
X-484314Y423453D1*
X-489127Y421790D1*
X-492890Y421224D1*
X-522353Y421386D1*
X-526144Y421714D1*
X-529837Y422633D1*
X-533341Y424117D1*
X-536571Y426131D1*
X-539444Y428626D1*
X-541892Y431539D1*
X-543854Y434799D1*
X-545283Y438327D1*
X-546142Y442034D1*
X-546409Y445831D1*
X-545974Y491037D1*
X-545348Y494791D1*
X-544143Y498400D1*
X-542388Y501778D1*
X-540127Y504839D1*
X-538818Y506231D1*
X-539589Y506492D1*
X-548715Y503528D1*
X-558176Y502028D1*
X-556417Y498499D1*
X-555270Y494870D1*
X-554705Y491108D1*
X-554992Y445899D1*
X-555320Y442108D1*
X-556239Y438415D1*
X-557723Y434911D1*
X-559738Y431681D1*
X-562232Y428807D1*
X-565146Y426360D1*
X-568406Y424398D1*
X-571933Y422969D1*
X-575640Y422110D1*
X-579437Y421843D1*
X-608898Y422152D1*
X-610794Y422392D1*
X-611630Y417080D1*
Y350181D1*
X-607568Y350488D1*
X-577168Y350079D1*
X-572567Y349035D1*
X-568256Y347122D1*
X-564396Y344411D1*
X-561135Y341003D1*
X-558594Y337028D1*
X-556873Y332636D1*
X-556031Y327995D1*
X-556066Y311651D1*
X-556528Y279379D1*
X-557630Y274787D1*
X-553807Y277929D1*
X-550562Y279917D1*
X-548825Y280717D1*
X-547718Y282450D1*
X-547281Y327656D1*
X-546655Y331411D1*
X-545450Y335020D1*
X-543696Y338398D1*
X-541434Y341458D1*
X-538722Y344127D1*
X-535625Y346340D1*
X-532220Y348039D1*
X-528592Y349186D1*
X-524829Y349752D1*
X-495366Y349592D1*
X-491575Y349262D1*
X-487882Y348344D1*
X-484378Y346860D1*
X-481148Y344845D1*
X-478274Y342350D1*
X-475827Y339437D1*
X-473865Y336177D1*
X-472436Y332650D1*
X-471577Y328942D1*
X-471310Y325139D1*
X-471745Y279940D1*
X-471986Y278043D1*
X-468274Y274059D1*
X-466038Y270980D1*
X-464310Y267589D1*
X-463134Y263970D1*
X-462538Y260203D1*
X-460280Y54810D1*
X-450610Y42580D1*
X-448727Y39273D1*
X-447382Y35705D1*
X-442566Y14594D1*
X-442289Y3197D1*
X-442333Y-14454D1*
X-444601Y-25629D1*
X-447419Y-37732D1*
X-448829Y-41266D1*
X-450781Y-44542D1*
X-459113Y-55088D1*
X-457471Y-207109D1*
X-455030Y-211946D1*
X-453281Y-217328D1*
X-452396Y-222917D1*
Y-228576D1*
X-453281Y-234165D1*
X-455030Y-239547D1*
X-457075Y-243654D1*
X-456753Y-274087D1*
X-455354Y-274961D1*
X-454094D1*
Y-496693D1*
X-456585D1*
X-457684Y-502042D1*
X-455346Y-500554D1*
X-453571Y-500025D1*
X-408541Y-492871D1*
X-365839Y-492744D1*
X-364054Y-493240D1*
X-325871Y-509112D1*
X-306836Y-525092D1*
X-292555Y-537302D1*
X-268871Y-571235D1*
X-266425Y-580458D1*
X-259297Y-609524D1*
X-232265Y-609606D1*
X-232665Y-605340D1*
X-231671Y-548083D1*
X-231014Y-544335D1*
X-229781Y-540735D1*
X-227995Y-537366D1*
X-172894Y-460293D1*
X-170224Y-457580D1*
X-167164Y-455319D1*
X-162227Y-452566D1*
X-162130Y-427711D1*
X-161369Y-425369D1*
X-159921Y-423375D1*
X-157928Y-421928D1*
X-155585Y-421167D1*
X-130731Y-421070D1*
X153966Y-421167D1*
X156308Y-421928D1*
X158302Y-423375D1*
X159749Y-425369D1*
X160510Y-427711D1*
X160608Y-453765D1*
X164948Y-456274D1*
X167846Y-458751D1*
X229196Y-530055D1*
X231370Y-533178D1*
X233029Y-536604D1*
X234131Y-540245D1*
X234651Y-544016D1*
X233475Y-605875D1*
X233098Y-609671D1*
X238483Y-610639D1*
X256231Y-610678D1*
X258738Y-594445D1*
X271639Y-563655D1*
X291130Y-535001D1*
X318205Y-512940D1*
X346407Y-499190D1*
X377525Y-489783D1*
X387087Y-490354D1*
X422052Y-493227D1*
X454744Y-505329D1*
X454724Y-402169D1*
X462924D1*
X462920Y-371950D1*
X514701Y-525476D2*
X487535Y-525651D1*
X504235Y-546050D1*
X506492Y-539589D1*
X510849Y-531039D1*
X514760Y-525470D1*
X-599306Y513807D2*
X-606235Y519749D1*
X-611619Y525971D1*
X-611630Y513303D1*
X-608165Y513810D1*
X-599341Y513814D1*
X609622Y523437D2*
X606235Y519749D1*
X599248Y513761D1*
X608205Y513755D1*
X609617Y514556D1*
X609622Y523433D1*
X-611619Y-525971D2*
X-606757Y-520314D1*
X-611605Y-520315D1*
X-522986Y-516757D2*
X-516490Y-523276D1*
X-510849Y-531039D1*
X-506492Y-539589D1*
X-505551Y-542140D1*
X-504541Y-540904D1*
X-491262Y-528227D1*
X-495175Y-528138D1*
X-500764Y-527253D1*
X-506146Y-525504D1*
X-511188Y-522936D1*
X-515766Y-519609D1*
X-519768Y-515608D1*
X-522990Y-511185D1*
X507505Y406294D2*
X483798Y406318D1*
X507394Y382575D1*
X510176Y378745D1*
X512327Y374521D1*
X516483Y380332D1*
X519144Y383094D1*
X515971Y386381D1*
X512644Y390959D1*
X510076Y396001D1*
X508327Y401383D1*
X507521Y406302D1*
X607912Y257770D2*
X575571Y257970D1*
X570963Y258980D1*
X569476Y259516D1*
X567227Y259657D1*
X563606Y258484D1*
X559840Y257892D1*
X559420Y253881D1*
X560344Y167732D1*
X564961Y167953D1*
X573681Y167266D1*
X582188Y165224D1*
X590270Y161877D1*
X597728Y157306D1*
X604381Y151625D1*
X609416Y145791D1*
X609472Y257820D1*
X608236Y257772D1*
X578970Y365358D2*
X609331Y365294D1*
X609539Y375685D1*
X604387Y374047D1*
X598798Y373163D1*
X593139D1*
X587550Y374047D1*
X582168Y375797D1*
X577126Y378365D1*
X572547Y381692D1*
X569379Y384791D1*
X568155Y383618D1*
X571328Y380332D1*
X574655Y375753D1*
X577223Y370711D1*
X578963Y365361D1*
X609192Y-245713D2*
X606547Y-248622D1*
X590339Y-159476D2*
X595664Y-162310D1*
X602741Y-167451D1*
X608927Y-173636D1*
X609234Y-174026D1*
X609244Y-143693D1*
X604381Y-149262D1*
X597728Y-154944D1*
X590374Y-159455D1*
X562722Y-54182D2*
X569335Y-54266D1*
X577975Y-55635D1*
X586294Y-58339D1*
X594089Y-62310D1*
X601167Y-67451D1*
X607352Y-73636D1*
X609283Y-75995D1*
X609370Y78503D1*
X604381Y72785D1*
X597728Y67104D1*
X590270Y62533D1*
X582188Y59185D1*
X573681Y57143D1*
X564961Y56457D1*
X561526Y56592D1*
X561619Y48768D1*
X565135Y44282D1*
X567018Y40975D1*
X568364Y37407D1*
X573180Y16297D1*
X573457Y4899D1*
X573412Y-12752D1*
X571144Y-23927D1*
X568327Y-36030D1*
X566916Y-39564D1*
X564965Y-42840D1*
X562723Y-54142D1*
X-600558Y-251340D2*
X-605777Y-246049D1*
X-610919Y-238971D1*
X-611629Y-237702D1*
X-611630Y-251319D1*
X-600623Y-251339D1*
X-611629Y-181983D2*
X-608487Y-177075D1*
X-602806Y-170423D1*
X-596154Y-164741D1*
X-588799Y-160230D1*
X-594089Y-157375D1*
X-601167Y-152234D1*
X-607352Y-146049D1*
X-611629Y-140265D1*
X-611630Y-181929D1*
X-611629Y-79420D2*
X-607352Y-73636D1*
X-601167Y-67451D1*
X-594089Y-62310D1*
X-586294Y-58339D1*
X-577975Y-55635D1*
X-569335Y-54266D1*
X-562962Y-54173D1*
X-562983Y-47062D1*
X-566142Y-42664D1*
X-567760Y-39219D1*
X-570469Y-28423D1*
X-573180Y-16295D1*
X-573457Y-4898D1*
X-573411Y12753D1*
X-571144Y23928D1*
X-568327Y36031D1*
X-566915Y39566D1*
X-564965Y42841D1*
X-563244Y49857D1*
X-563386Y56457D1*
X-572106Y57143D1*
X-580613Y59185D1*
X-588696Y62533D1*
X-596154Y67104D1*
X-602806Y72785D1*
X-608487Y79437D1*
X-611629Y84345D1*
X-611630Y-79322D1*
X-611629Y140064D2*
X-608487Y144972D1*
X-602806Y151625D1*
X-596154Y157306D1*
X-588799Y161818D1*
X-593997Y164615D1*
X-599177Y168193D1*
X-603923Y172332D1*
X-608169Y176979D1*
X-611631Y181722D1*
X-611630Y140167D1*
X-611627Y242694D2*
X-607592Y248127D1*
X-603269Y252706D1*
X-598458Y256766D1*
X-595894Y258584D1*
X-611151Y258873D1*
X-611630Y251726D1*
Y242714D1*
X-557718Y-347087D2*
X-611605D1*
X-611630Y-424547D1*
X-557686Y-424567D1*
X-557717Y-347056D1*
X358894Y-1575D2*
X358400Y-18888D1*
X357071Y-36159D1*
X354911Y-53345D1*
X351924Y-70407D1*
X348117Y-87304D1*
X343500Y-103999D1*
X338081Y-120450D1*
X331877Y-136622D1*
X324898Y-152475D1*
X317163Y-167974D1*
X308689Y-183080D1*
X299496Y-197761D1*
X289606Y-211980D1*
X279041Y-225706D1*
X267827Y-238907D1*
X255988Y-251551D1*
X243552Y-263609D1*
X230550Y-275052D1*
X217012Y-285856D1*
X202966Y-295993D1*
X188449Y-305441D1*
X173492Y-314178D1*
X158133Y-322182D1*
X142403Y-329437D1*
X126343Y-335924D1*
X109988Y-341629D1*
X93377Y-346538D1*
X76549Y-350639D1*
X59542Y-353924D1*
X42396Y-356385D1*
X25152Y-358016D1*
X7849Y-358812D1*
X-9472Y-358773D1*
X-26772Y-357898D1*
X-44008Y-356189D1*
X-61142Y-353651D1*
X-78134Y-350289D1*
X-94944Y-346112D1*
X-111533Y-341127D1*
X-127861Y-335349D1*
X-143892Y-328790D1*
X-159588Y-321465D1*
X-174912Y-313390D1*
X-189829Y-304585D1*
X-204303Y-295072D1*
X-218302Y-284871D1*
X-231793Y-274007D1*
X-244743Y-262504D1*
X-257123Y-250390D1*
X-268904Y-237693D1*
X-280059Y-224442D1*
X-290562Y-210668D1*
X-300388Y-196404D1*
X-309514Y-181682D1*
X-317920Y-166537D1*
X-325584Y-151004D1*
X-332491Y-135119D1*
X-338623Y-118920D1*
X-343966Y-102444D1*
X-348508Y-85728D1*
X-352239Y-68814D1*
X-355148Y-51739D1*
X-357231Y-34543D1*
X-358482Y-17268D1*
X-358898Y49D1*
X-358478Y17365D1*
X-357222Y34640D1*
X-355135Y51836D1*
X-352220Y68909D1*
X-348486Y85823D1*
X-343938Y102537D1*
X-338591Y119012D1*
X-332454Y135210D1*
X-325543Y151093D1*
X-317874Y166623D1*
X-309465Y181766D1*
X-300335Y196486D1*
X-290505Y210747D1*
X-279999Y224518D1*
X-268840Y237766D1*
X-257055Y250461D1*
X-244672Y262571D1*
X-231718Y274070D1*
X-218224Y284930D1*
X-204223Y295127D1*
X-189745Y304638D1*
X-174827Y313437D1*
X-159500Y321508D1*
X-143803Y328828D1*
X-127770Y335385D1*
X-111440Y341157D1*
X-94849Y346138D1*
X-78038Y350311D1*
X-61046Y353668D1*
X-43911Y356201D1*
X-26673Y357906D1*
X-9374Y358776D1*
X7946Y358810D1*
X25249Y358008D1*
X42493Y356373D1*
X59638Y353908D1*
X76644Y350618D1*
X93471Y346512D1*
X110081Y341598D1*
X126434Y335890D1*
X142493Y329399D1*
X158219Y322139D1*
X173579Y314131D1*
X188533Y305390D1*
X203047Y295938D1*
X217089Y285797D1*
X230626Y274990D1*
X243625Y263542D1*
X256056Y251482D1*
X267891Y238835D1*
X279102Y225631D1*
X289664Y211902D1*
X299550Y197680D1*
X308739Y182996D1*
X317209Y167887D1*
X324940Y152387D1*
X331913Y136531D1*
X338114Y120358D1*
X343528Y103906D1*
X348140Y87210D1*
X351944Y70311D1*
X354925Y53248D1*
X357081Y36062D1*
X358406Y18791D1*
X358895Y1478D1*
X358894Y-1575D1*
X454755Y-463823D2*
D10*
X545906D1*
X593232Y365343D2*
Y257786D1*
X-505906Y-320866D2*
X-454125D1*
X0Y358867D2*
Y-358867D1*
X-358867Y0D2*
X358867D1*
X-594156Y350412D2*
Y258600D1*
Y304475D2*
X-556152D1*
D21*
X545906Y-310280D3*
Y-463823D3*
D63*
X593379Y459990D3*
X543378Y460038D3*
X493378Y460088D3*
X593232Y311564D3*
X543234Y311614D3*
X493232Y311663D3*
D22*
X566535Y-209843D3*
D23*
X564961Y-109843D3*
D22*
X-563386Y-209843D3*
D23*
X-564961Y-109843D3*
D22*
X-563386Y112205D3*
D23*
X-564961Y212205D3*
D26*
X-570866Y-299213D3*
Y-472441D3*
D27*
X-505906Y-385827D3*
D28*
Y-320866D3*
Y-450787D3*
D75*
X507873Y852D3*
X-507873Y-850D3*
D29*
X0Y0D3*
D78*
X-509513Y303798D3*
X-594156Y304475D3*
X-508206Y467178D3*
X-592849Y467856D3*
D22*
X564961Y112205D3*
G04 Bottom Clear*
%LPC*%
D15*
X460089Y461832D3*
X-464615Y453630D3*
X-492345Y-492186D3*
X-261619Y-157328D3*
X-57104Y-221948D3*
X543394Y409802D3*
X595969Y409114D3*
X358621Y420598D3*
X543906Y356911D3*
X-488348Y-225747D3*
X562346Y194765D3*
X-442453Y-415308D3*
X212079Y-445255D3*
X190810Y-166601D3*
X260055Y-128097D3*
X284731Y-60507D3*
X388848Y25268D3*
X212615Y-405378D3*
X173818Y-405744D3*
X458940Y251478D3*
X431534Y320801D3*
D33*
X566535Y-209843D3*
X564961Y-109843D3*
X-563386Y-209843D3*
X-564961Y-109843D3*
X-563386Y112205D3*
X-564961Y212205D3*
D34*
X-570866Y-299213D3*
Y-472441D3*
X507853Y12663D2*
D35*
X507892Y-10959D1*
X-507892Y10961D2*
X-507853Y-12661D1*
D33*
X564961Y112205D3*
M02*
