G04 DipTrace 3.2.0.1*
G04 Нижний.gbr*
%MOMM*%
G04 #@! TF.FileFunction,Copper,L2,Bot*
G04 #@! TF.Part,Single*
%AMOUTLINE3*
4,1,4,
0.37427,-0.75037,
-0.37577,-0.74963,
-0.37427,0.75037,
0.37577,0.74963,
0.37427,-0.75037,
0*%
%AMOUTLINE15*
4,1,16,
-1.0495,-0.30177,
-0.94477,-0.75717,
-0.6528,-1.12203,
-0.23143,-1.32407,
0.23587,-1.32327,
0.65653,-1.11983,
0.94727,-0.754,
1.0505,-0.29823,
1.0495,0.30177,
0.94477,0.75717,
0.6528,1.12203,
0.23143,1.32407,
-0.23587,1.32327,
-0.65653,1.11983,
-0.94727,0.754,
-1.0505,0.29823,
-1.0495,-0.30177,
0*%
%AMOUTLINE18*
4,1,4,
0.3544,0.54717,
0.3456,-0.55277,
-0.3544,-0.54717,
-0.3456,0.55277,
0.3544,0.54717,
0*%
%ADD15C,0.3*%
%ADD19C,0.2*%
%ADD34C,0.9*%
%ADD35C,0.8*%
%ADD36C,1.1*%
G04 #@! TA.AperFunction,CopperBalancing*
%ADD10C,0.25*%
G04 #@! TA.AperFunction,ViaPad*
%ADD16C,0.5*%
%ADD17C,0.6*%
G04 #@! TA.AperFunction,CopperBalancing*
%ADD18C,0.4*%
%ADD21R,3.4X1.9*%
G04 #@! TA.AperFunction,ComponentPad*
%ADD22C,1.6*%
%ADD23C,1.6*%
%ADD26R,1.2X1.2*%
%ADD27R,1.4X1.5*%
%ADD28R,1.4X1.1*%
%ADD29C,17.0*%
G04 #@! TA.AperFunction,ViaPad*
%ADD32C,0.7*%
%ADD63OUTLINE3*%
G04 #@! TA.AperFunction,ComponentPad*
%ADD75OUTLINE15*%
%ADD78OUTLINE18*%
%FSLAX35Y35*%
G04*
G71*
G90*
G75*
G01*
G04 Bottom*
%LPD*%
X1168627Y1173053D2*
D15*
X1248750D1*
X1253180Y1168623D1*
X1023507Y984377D2*
X1200623Y807260D1*
X1230533D1*
Y791623D1*
X1252810D1*
X1380220Y1040897D2*
Y1194490D1*
X1372983Y1201727D1*
Y1175693D1*
X1380180Y1168497D1*
X1381520Y906553D2*
Y793207D1*
X1379813Y791500D1*
X1386600Y-788110D2*
D17*
X1281043D1*
Y52067D1*
X1289997Y43113D1*
Y2163D1*
X1513760Y1039150D2*
D15*
Y1161797D1*
X1507183Y1168373D1*
X1452300Y610567D2*
Y618953D1*
X1510500Y677153D1*
Y787683D1*
X1506810Y791373D1*
X484657Y-423167D2*
X423167D1*
X0Y0D1*
X1386600Y-1178110D2*
D17*
X1129183D1*
X1049130Y-1098057D1*
Y-1049130D1*
X0Y0D1*
X-1509157Y773367D2*
D15*
Y911727D1*
X-1440670Y980213D1*
X-980213D1*
X0Y0D1*
X-1509157Y773367D2*
Y613157D1*
X-1435000Y539000D1*
X-1285000Y-815000D2*
X-1123830D1*
X-815000D1*
X0Y0D1*
X-1123830Y-1054883D2*
Y-815000D1*
X538680Y-1130947D2*
Y-1010667D1*
X271403Y-743390D1*
Y-271403D1*
X0Y0D1*
X-664513Y-399613D2*
X-399613D1*
X0Y0D1*
X-145043Y-563747D2*
Y-145043D1*
X0Y0D1*
X543857Y-1014403D2*
X538680Y-1010667D1*
X-1250557Y-1250153D2*
Y-1179443D1*
X-1285000Y-1145000D1*
X-1180123Y1152220D2*
X-1256430D1*
X-1290843Y1186633D1*
X-1289997Y-2160D2*
Y185367D1*
X-1389630Y285000D1*
X-1431000D1*
X-1240403Y-573397D2*
Y-221613D1*
X-1281360Y-180657D1*
Y-10797D1*
X-1289997Y-2160D1*
D16*
X1168627Y1173053D3*
X-1180123Y1152220D3*
D17*
X-1250557Y-1250153D3*
X-664513Y-399613D3*
X-145043Y-563747D3*
D16*
X1380220Y1040897D3*
X1513760Y1039150D3*
X1023507Y984377D3*
X1381520Y906553D3*
D17*
X-1240403Y-573397D3*
D32*
X1452300Y610567D3*
D17*
X-1123830Y-1054883D3*
X538680Y-1130947D3*
D32*
X484657Y-423167D3*
D17*
X660540Y-325367D3*
X723217Y-153687D3*
X987673Y64180D3*
X543857Y-1014403D3*
X436410Y-1012793D3*
X-1287627Y1359497D2*
D18*
X-1265500D1*
X1261593D2*
X1287577D1*
X-1316533Y1319830D2*
X-1223673D1*
X1219250D2*
X1316483D1*
X-1203563Y1280163D2*
X-1154690D1*
X-1404813Y1240497D2*
X-1390973D1*
X-1189813D2*
X1110310D1*
X-1405127Y1200830D2*
X-1391370D1*
X-1104423D2*
X1082577D1*
X-1405440Y1161163D2*
X-1391633D1*
X-1089970D2*
X1078827D1*
X-1406767Y1121497D2*
X-1390990D1*
X-1095127D2*
X1095077D1*
X-1433093Y1081830D2*
X-1366173D1*
X-1125673D2*
X1151170D1*
X-1549500Y1042163D2*
X955000D1*
X1091983D2*
X1177810D1*
X-1549500Y1002497D2*
X934843D1*
X1117687D2*
X1298593D1*
X-1549500Y962830D2*
X935623D1*
X1157373D2*
X1311717D1*
X1451360D2*
X1468790D1*
X-1549500Y923163D2*
X958280D1*
X-1442783Y883497D2*
X-1357110D1*
X-1231690D2*
X-228593D1*
X228623D2*
X1012030D1*
X-1410127Y843830D2*
X-1391953D1*
X-1195673D2*
X-348907D1*
X348937D2*
X1051717D1*
X-1408330Y804163D2*
X-1394433D1*
X-1193330D2*
X-433360D1*
X433310D2*
X1091407D1*
X-1408640Y764497D2*
X-1394877D1*
X-1193640D2*
X-500547D1*
X500577D2*
X1131093D1*
X-1105127Y724830D2*
X-556877D1*
X556827D2*
X1117420D1*
X-1096377Y685163D2*
X-605313D1*
X605263D2*
X1111873D1*
X-1549500Y645497D2*
X-1532290D1*
X-1096140D2*
X-647737D1*
X647687D2*
X1111953D1*
X1485810D2*
X1544060D1*
X-1095987Y605830D2*
X-685157D1*
X685187D2*
X1112030D1*
X1485733D2*
X1544060D1*
X-1095830Y566163D2*
X-718440D1*
X718467D2*
X1112110D1*
X1485733D2*
X1543983D1*
X-1095593Y526497D2*
X-748203D1*
X748157D2*
X1112263D1*
X1485657D2*
X1543983D1*
X-1095440Y486830D2*
X-774690D1*
X774717D2*
X1112343D1*
X1485657D2*
X1543983D1*
X-1095203Y447163D2*
X-798360D1*
X798390D2*
X1112420D1*
X1485657D2*
X1543907D1*
X-1549500Y407497D2*
X-1506017D1*
X-1095047D2*
X-819453D1*
X819483D2*
X1112500D1*
X1485577D2*
X1543907D1*
X-1094890Y367830D2*
X-838127D1*
X838077D2*
X1112577D1*
X1485577D2*
X1543907D1*
X-1094657Y328163D2*
X-854453D1*
X854483D2*
X1112657D1*
X1485500D2*
X1543907D1*
X-1094500Y288497D2*
X-868750D1*
X868780D2*
X1112733D1*
X1485500D2*
X1543827D1*
X-1094343Y248830D2*
X-881017D1*
X880967D2*
X1112810D1*
X1485420D2*
X1543827D1*
X-1094110Y209163D2*
X-891250D1*
X891280D2*
X1112890D1*
X1485420D2*
X1543827D1*
X-1549500Y169497D2*
X-1516877D1*
X-1093953D2*
X-899690D1*
X899717D2*
X1112967D1*
X1485420D2*
X1543750D1*
X-1549500Y129830D2*
X-1481407D1*
X-1093797D2*
X-906330D1*
X906280D2*
X1113123D1*
X1485343D2*
X1543750D1*
X-1549500Y90163D2*
X-1481407D1*
X-1093563D2*
X-911093D1*
X911123D2*
X1113203D1*
X1485343D2*
X1543750D1*
X-1549500Y50497D2*
X-1481407D1*
X-1093407D2*
X-914220D1*
X914170D2*
X1113280D1*
X1485263D2*
X1543750D1*
X-1549500Y10830D2*
X-1481407D1*
X-1093250D2*
X-915547D1*
X915500D2*
X1113360D1*
X1485263D2*
X1543670D1*
X-1549500Y-28837D2*
X-1481330D1*
X-1093017D2*
X-915157D1*
X915110D2*
X1113437D1*
X1485187D2*
X1543670D1*
X-1549500Y-68503D2*
X-1481330D1*
X-1092860D2*
X-913047D1*
X913000D2*
X1113513D1*
X1485187D2*
X1543670D1*
X-1549500Y-108170D2*
X-1481330D1*
X-1092627D2*
X-909140D1*
X909170D2*
X1113593D1*
X1485187D2*
X1543593D1*
X-1549500Y-147837D2*
X-1492343D1*
X-1092470D2*
X-903517D1*
X903547D2*
X1113670D1*
X1492373D2*
X1543593D1*
X-1092313Y-187503D2*
X-896093D1*
X896123D2*
X1113750D1*
X-1092080Y-227170D2*
X-886877D1*
X886827D2*
X1113907D1*
X-1091923Y-266837D2*
X-875703D1*
X875657D2*
X1113983D1*
X-1091767Y-306503D2*
X-862500D1*
X862530D2*
X1114060D1*
X-1091533Y-346170D2*
X-847343D1*
X847297D2*
X1114140D1*
X-1549500Y-385837D2*
X-1531980D1*
X-1091377D2*
X-829923D1*
X829953D2*
X1114217D1*
X-1549500Y-425503D2*
X-1527140D1*
X-1091220D2*
X-810237D1*
X810187D2*
X1114297D1*
X-1090987Y-465170D2*
X-787970D1*
X788000D2*
X1114373D1*
X-1090830Y-504837D2*
X-763047D1*
X763077D2*
X1114453D1*
X-1090673Y-544503D2*
X-735080D1*
X735110D2*
X1114530D1*
X-1090440Y-584170D2*
X-703830D1*
X703860D2*
X1114687D1*
X-1090283Y-623837D2*
X-668750D1*
X668703D2*
X1114763D1*
X-1090127Y-663503D2*
X-629140D1*
X629093D2*
X1114843D1*
X-1089890Y-703170D2*
X-584140D1*
X584170D2*
X1122420D1*
X-1091610Y-742837D2*
X-532423D1*
X532373D2*
X1151013D1*
X-1122703Y-782503D2*
X-471640D1*
X471670D2*
X1151013D1*
X-1149423Y-822170D2*
X-397737D1*
X397763D2*
X1151013D1*
X-1149423Y-861837D2*
X-301093D1*
X301047D2*
X1151013D1*
X-1549500Y-901503D2*
X-1420627D1*
X-1149423D2*
X-139297D1*
X139327D2*
X1151013D1*
X-1549500Y-941170D2*
X-1420627D1*
X-1149423D2*
X1151013D1*
X-1549500Y-980837D2*
X-1420627D1*
X-1149423D2*
X1163047D1*
X-1549500Y-1020503D2*
X-1420627D1*
X-1149423D2*
X1162733D1*
X-1549500Y-1060170D2*
X-1420627D1*
X-1149423D2*
X1151013D1*
X-1149423Y-1099837D2*
X-416093D1*
X411907D2*
X1151013D1*
X-1149423Y-1139503D2*
X-417343D1*
X412140D2*
X1151013D1*
X-1149423Y-1179170D2*
X-463283D1*
X459093D2*
X1151013D1*
X-1149423Y-1218837D2*
X-492267D1*
X488077D2*
X1151013D1*
X-1149423Y-1258503D2*
X-1105470D1*
X-906923D2*
X-521250D1*
X517140D2*
X906640D1*
X1091750D2*
X1151013D1*
X-817390Y-1298170D2*
X-550157D1*
X546123D2*
X813360D1*
X-1300987Y-1337837D2*
X-1281040D1*
X-770517D2*
X-579140D1*
X575110D2*
X761093D1*
X1244873D2*
X1300937D1*
X-730047Y-1377503D2*
X-608127D1*
X604170D2*
X722577D1*
X-702237Y-1417170D2*
X-637110D1*
X633157D2*
X695780D1*
X662140Y-1456837D2*
X675213D1*
X1167340Y-944710D2*
X1155000D1*
Y-729787D1*
X1143887Y-723207D1*
X1136580Y-716877D1*
X1130357Y-709483D1*
X1125363Y-701203D1*
X1121727Y-692250D1*
X1119537Y-682833D1*
X1118803Y-653763D1*
X1116047Y704217D1*
X1117577Y713760D1*
X1120577Y722947D1*
X1124980Y731553D1*
X1130677Y739363D1*
X1137523Y746187D1*
X1146460Y753097D1*
X997910Y901643D1*
X984190Y907217D1*
X972603Y914317D1*
X962270Y923140D1*
X953447Y933473D1*
X946347Y945060D1*
X941147Y957617D1*
X937973Y970830D1*
X936907Y984377D1*
X937973Y997923D1*
X941147Y1011137D1*
X946347Y1023693D1*
X953447Y1035280D1*
X962270Y1045613D1*
X972603Y1054437D1*
X984190Y1061537D1*
X996747Y1066737D1*
X1009960Y1069910D1*
X1023507Y1070977D1*
X1037053Y1069910D1*
X1050267Y1066737D1*
X1062823Y1061537D1*
X1074410Y1054437D1*
X1084743Y1045613D1*
X1093567Y1035280D1*
X1100667Y1023693D1*
X1106177Y1010037D1*
X1192410Y923803D1*
X1201060Y926573D1*
X1210610Y928077D1*
X1290447Y928187D1*
X1295300Y927990D1*
X1299160Y933313D1*
X1304360Y945870D1*
X1311460Y957457D1*
X1320283Y967790D1*
X1326257Y973177D1*
X1318983Y979660D1*
X1310160Y989993D1*
X1303060Y1001580D1*
X1297860Y1014137D1*
X1294687Y1027350D1*
X1294127Y1032070D1*
X1210710Y1032253D1*
X1201163Y1033777D1*
X1191973Y1036773D1*
X1183363Y1041170D1*
X1175550Y1046860D1*
X1168723Y1053700D1*
X1163047Y1061527D1*
X1158670Y1070143D1*
X1155690Y1079340D1*
X1154750Y1084103D1*
X1148410Y1088847D1*
X1135487Y1093047D1*
X1123377Y1099213D1*
X1112383Y1107203D1*
X1102777Y1116810D1*
X1094787Y1127803D1*
X1088620Y1139913D1*
X1084420Y1152837D1*
X1082293Y1166260D1*
Y1179847D1*
X1084420Y1193270D1*
X1088620Y1206193D1*
X1094787Y1218303D1*
X1102777Y1229297D1*
X1112383Y1238903D1*
X1123377Y1246893D1*
X1135487Y1253060D1*
X1148410Y1257260D1*
X1156003Y1258697D1*
X1158867Y1267290D1*
X1163263Y1275897D1*
X1168950Y1283713D1*
X1175793Y1290540D1*
X1183620Y1296213D1*
X1192237Y1300593D1*
X1201430Y1303573D1*
X1210980Y1305077D1*
X1290817Y1305187D1*
X1300453Y1304420D1*
X1309850Y1302153D1*
X1314403Y1300467D1*
X1319237D1*
X1328430Y1303447D1*
X1333197Y1304387D1*
X1329120Y1311883D1*
X1311883Y1329120D1*
X1297557Y1348840D1*
X1286490Y1370557D1*
X1280730Y1387457D1*
X1234233Y1331773D1*
X1197360Y1308853D1*
X1128353Y1266893D1*
X1104163Y1262430D1*
X1007090Y1246947D1*
X-1013720Y1247220D1*
X-1125347Y1266080D1*
X-1146317Y1277670D1*
X-1227797Y1324760D1*
X-1282523Y1381290D1*
X-1291597Y1359480D1*
X-1304333Y1338697D1*
X-1320163Y1320163D1*
X-1338697Y1304333D1*
X-1343970Y1300647D1*
X-1334553Y1302827D1*
X-1324910Y1303507D1*
X-1250080Y1302720D1*
X-1240543Y1301130D1*
X-1231377Y1298070D1*
X-1222797Y1293613D1*
X-1215023Y1287870D1*
X-1208243Y1280980D1*
X-1202623Y1273113D1*
X-1198307Y1264467D1*
X-1195393Y1255250D1*
X-1193957Y1245693D1*
X-1193670Y1237753D1*
X-1180123Y1238820D1*
X-1166577Y1237753D1*
X-1153363Y1234580D1*
X-1140807Y1229380D1*
X-1129220Y1222280D1*
X-1118887Y1213457D1*
X-1110063Y1203123D1*
X-1102963Y1191537D1*
X-1097763Y1178980D1*
X-1094590Y1165767D1*
X-1093523Y1152220D1*
X-1094590Y1138673D1*
X-1097763Y1125460D1*
X-1102963Y1112903D1*
X-1110063Y1101317D1*
X-1118887Y1090983D1*
X-1129220Y1082160D1*
X-1140807Y1075060D1*
X-1153363Y1069860D1*
X-1166577Y1066687D1*
X-1180123Y1065620D1*
X-1193670Y1066687D1*
X-1206883Y1069860D1*
X-1220437Y1075617D1*
X-1233167Y1074260D1*
X-1242383Y1071347D1*
X-1251940Y1069910D1*
X-1326777Y1070320D1*
X-1336407Y1071153D1*
X-1345787Y1073487D1*
X-1354687Y1077257D1*
X-1362890Y1082373D1*
X-1370187Y1088710D1*
X-1376407Y1096110D1*
X-1381390Y1104390D1*
X-1385020Y1113350D1*
X-1387200Y1122767D1*
X-1387880Y1132410D1*
X-1386773Y1247233D1*
X-1385183Y1256770D1*
X-1382123Y1265937D1*
X-1377667Y1274517D1*
X-1371923Y1282290D1*
X-1368597Y1285827D1*
X-1370557Y1286490D1*
X-1393737Y1278960D1*
X-1417767Y1275150D1*
X-1413300Y1266187D1*
X-1410387Y1256970D1*
X-1408950Y1247413D1*
X-1409680Y1132583D1*
X-1410513Y1122953D1*
X-1412847Y1113573D1*
X-1416617Y1104673D1*
X-1421733Y1096470D1*
X-1428070Y1089170D1*
X-1435470Y1082953D1*
X-1443750Y1077970D1*
X-1452710Y1074340D1*
X-1462127Y1072160D1*
X-1471770Y1071480D1*
X-1546600Y1072267D1*
X-1551417Y1072877D1*
X-1553540Y1059383D1*
Y889460D1*
X-1543223Y890240D1*
X-1466007Y889200D1*
X-1454320Y886550D1*
X-1443370Y881690D1*
X-1433567Y874803D1*
X-1425283Y866147D1*
X-1418830Y856050D1*
X-1414457Y844897D1*
X-1412320Y833107D1*
X-1412407Y791593D1*
X-1412693Y755513D1*
X-1390877Y755440D1*
X-1390093Y832247D1*
X-1388503Y841783D1*
X-1385443Y850950D1*
X-1380987Y859530D1*
X-1375243Y867303D1*
X-1368353Y874083D1*
X-1360487Y879703D1*
X-1351840Y884020D1*
X-1342623Y886933D1*
X-1333067Y888370D1*
X-1258230Y887963D1*
X-1248600Y887127D1*
X-1239220Y884793D1*
X-1230320Y881023D1*
X-1222117Y875907D1*
X-1214817Y869570D1*
X-1208600Y862170D1*
X-1203617Y853890D1*
X-1199987Y844930D1*
X-1197807Y835513D1*
X-1197127Y825853D1*
X-1197693Y754857D1*
X-1156970Y754567D1*
X-1147427Y753027D1*
X-1138243Y750013D1*
X-1129643Y745600D1*
X-1121840Y739893D1*
X-1115027Y733040D1*
X-1109367Y725203D1*
X-1105003Y716577D1*
X-1102043Y707373D1*
X-1100557Y697803D1*
X-1096393Y-166533D1*
X-1093957Y-732553D1*
X-1095427Y-742110D1*
X-1098370Y-751317D1*
X-1102717Y-759950D1*
X-1108363Y-767797D1*
X-1115167Y-774663D1*
X-1122960Y-780380D1*
X-1131553Y-784807D1*
X-1140733Y-787837D1*
X-1150290Y-789393D1*
X-1153400Y-790400D1*
Y-1261600D1*
X-1159727D1*
X-1162517Y-1275187D1*
X-1156580Y-1271407D1*
X-1133587Y-1265823D1*
X-1042117Y-1245243D1*
X-929573Y-1251523D1*
X-925017Y-1252700D1*
X-827653Y-1293180D1*
X-745320Y-1362540D1*
X-742110Y-1365980D1*
X-682933Y-1450937D1*
X-676257Y-1476260D1*
X-444307Y-1158997D1*
X-437470Y-1152167D1*
X-429647Y-1146487D1*
X-421033Y-1142103D1*
X-416477Y-1140423D1*
X-412057Y-1129517D1*
X-411810Y-1086387D1*
X-409877Y-1080437D1*
X-406200Y-1075373D1*
X-401137Y-1071697D1*
X-395187Y-1069763D1*
X-332057Y-1069517D1*
X391073Y-1069763D1*
X397023Y-1071697D1*
X402087Y-1075373D1*
X405763Y-1080437D1*
X407697Y-1086387D1*
X407967Y-1139467D1*
X417157Y-1142460D1*
X425770Y-1146850D1*
X433587Y-1152537D1*
X440430Y-1159390D1*
X671593Y-1475227D1*
X689963Y-1431683D1*
X739470Y-1358903D1*
X808240Y-1302867D1*
X879873Y-1267943D1*
X958913Y-1244050D1*
X983200Y-1245500D1*
X1072013Y-1252797D1*
X1155050Y-1283537D1*
X1155000Y-1021510D1*
X1166767D1*
X1167370Y-944773D1*
X1307340Y-1334710D2*
X1238340Y-1335153D1*
X1280757Y-1386967D1*
X1286490Y-1370557D1*
X1297557Y-1348840D1*
X1307490Y-1334693D1*
X-1522237Y1305070D2*
X-1539837Y1320163D1*
X-1553513Y1335967D1*
X-1553540Y1303790D1*
X-1544740Y1305077D1*
X-1522327Y1305087D1*
X1548440Y1329530D2*
X1539837Y1320163D1*
X1522090Y1304953D1*
X1544840Y1304937D1*
X1548427Y1306973D1*
X1548440Y1329520D1*
X-1553513Y-1335967D2*
X-1541163Y-1321597D1*
X-1553477Y-1321600D1*
X-1328383Y-1312563D2*
X-1311883Y-1329120D1*
X-1297557Y-1348840D1*
X-1286490Y-1370557D1*
X-1284100Y-1377037D1*
X-1281533Y-1373897D1*
X-1247807Y-1341697D1*
X-1257743Y-1341470D1*
X-1271940Y-1339223D1*
X-1285610Y-1334780D1*
X-1298417Y-1328257D1*
X-1310047Y-1319807D1*
X-1320210Y-1309643D1*
X-1328393Y-1298410D1*
X1544097Y654737D2*
X1481787Y654797D1*
X1481130Y-145160D1*
X1499287Y-152833D1*
X1518230Y-164443D1*
X1535127Y-178873D1*
X1547593Y-193280D1*
X1548060Y654863D1*
X1544920Y654740D1*
X1473443Y928007D2*
X1547700Y927847D1*
X1548230Y959710D1*
X1533977Y954943D1*
X1520553Y952817D1*
X1506967D1*
X1493543Y954943D1*
X1480620Y959143D1*
X1468510Y965310D1*
X1457517Y973300D1*
X1447910Y982907D1*
X1446070Y984653D1*
X1435483Y974273D1*
X1442757Y967790D1*
X1451580Y957457D1*
X1458680Y945870D1*
X1463880Y933313D1*
X1465417Y927870D1*
X1473443Y928007D1*
X1547347Y-624110D2*
X1540630Y-631500D1*
X1499460Y-405070D2*
X1512987Y-412267D1*
X1530963Y-425327D1*
X1546673Y-441037D1*
X1547453Y-442027D1*
X1547483Y-364980D1*
X1535127Y-379127D1*
X1518230Y-393557D1*
X1499550Y-405017D1*
X-1525417Y-638403D2*
X-1538673Y-624963D1*
X-1551733Y-606987D1*
X-1553537Y-603763D1*
X-1553540Y-638350D1*
X-1525583Y-638400D1*
X-1553537Y-462237D2*
X-1545557Y-449770D1*
X-1531127Y-432873D1*
X-1514230Y-418443D1*
X-1495550Y-406983D1*
X-1508987Y-399733D1*
X-1526963Y-386673D1*
X-1542673Y-370963D1*
X-1553537Y-356273D1*
X-1553540Y-462100D1*
X-1553537Y-201727D2*
X-1542673Y-187037D1*
X-1526963Y-171327D1*
X-1508987Y-158267D1*
X-1489187Y-148180D1*
X-1477293Y-143917D1*
X-1477417Y151297D1*
X-1495287Y158833D1*
X-1514230Y170443D1*
X-1531127Y184873D1*
X-1545557Y201770D1*
X-1553537Y214237D1*
X-1553540Y-201477D1*
X-1553537Y355763D2*
X-1545557Y368230D1*
X-1531127Y385127D1*
X-1514230Y399557D1*
X-1495550Y411017D1*
X-1508753Y418123D1*
X-1521910Y427210D1*
X-1533963Y437723D1*
X-1544750Y449527D1*
X-1553543Y461573D1*
X-1553540Y356023D1*
X-1553533Y616443D2*
X-1543283Y630243D1*
X-1532303Y641873D1*
X-1520083Y652187D1*
X-1513570Y656803D1*
X-1552323Y657537D1*
X-1553540Y639383D1*
Y616493D1*
X-1416603Y-881600D2*
X-1553477D1*
X-1553540Y-1078350D1*
X-1416523Y-1078400D1*
X-1416600Y-881523D1*
X911590Y-4000D2*
X910337Y-47977D1*
X906960Y-91843D1*
X901473Y-135497D1*
X893887Y-178833D1*
X884217Y-221753D1*
X872490Y-264157D1*
X858727Y-305943D1*
X842967Y-347020D1*
X825240Y-387287D1*
X805593Y-426653D1*
X784070Y-465023D1*
X760720Y-502313D1*
X735600Y-538430D1*
X708763Y-573293D1*
X680280Y-606823D1*
X650210Y-638940D1*
X618623Y-669567D1*
X585597Y-698633D1*
X551210Y-726073D1*
X515533Y-751823D1*
X478660Y-775820D1*
X440670Y-798013D1*
X401657Y-818343D1*
X361703Y-836770D1*
X320910Y-853247D1*
X279370Y-867737D1*
X237177Y-880207D1*
X194433Y-890623D1*
X151237Y-898967D1*
X107687Y-905217D1*
X63887Y-909360D1*
X19937Y-911383D1*
X-24060Y-911283D1*
X-68000Y-909060D1*
X-111780Y-904720D1*
X-155300Y-898273D1*
X-198460Y-889733D1*
X-241157Y-879123D1*
X-283293Y-866463D1*
X-324767Y-851787D1*
X-365487Y-835127D1*
X-405353Y-816520D1*
X-444277Y-796010D1*
X-482167Y-773647D1*
X-518930Y-749483D1*
X-554487Y-723573D1*
X-588753Y-695977D1*
X-621647Y-666760D1*
X-653093Y-635990D1*
X-683017Y-603740D1*
X-711350Y-570083D1*
X-738027Y-535097D1*
X-762987Y-498867D1*
X-786167Y-461473D1*
X-807517Y-423003D1*
X-826983Y-383550D1*
X-844527Y-343203D1*
X-860103Y-302057D1*
X-873673Y-260207D1*
X-885210Y-217750D1*
X-894687Y-174787D1*
X-902077Y-131417D1*
X-907367Y-87740D1*
X-910543Y-43860D1*
X-911600Y123D1*
X-910533Y44107D1*
X-907343Y87987D1*
X-902043Y131663D1*
X-894640Y175030D1*
X-885153Y217990D1*
X-873603Y260443D1*
X-860020Y302290D1*
X-844433Y343433D1*
X-826880Y383777D1*
X-807400Y423223D1*
X-786040Y461687D1*
X-762850Y499073D1*
X-737883Y535297D1*
X-711197Y570277D1*
X-682853Y603927D1*
X-652920Y636170D1*
X-621467Y666930D1*
X-588563Y696137D1*
X-554290Y723723D1*
X-518727Y749623D1*
X-481953Y773780D1*
X-444060Y796130D1*
X-405130Y816630D1*
X-365260Y835223D1*
X-324537Y851877D1*
X-283057Y866540D1*
X-240917Y879190D1*
X-198217Y889790D1*
X-155057Y898317D1*
X-111533Y904750D1*
X-67750Y909080D1*
X-23810Y911290D1*
X20183Y911377D1*
X64133Y909340D1*
X107933Y905187D1*
X151480Y898927D1*
X194677Y890570D1*
X237417Y880140D1*
X279607Y867660D1*
X321143Y853160D1*
X361933Y836673D1*
X401877Y818233D1*
X440890Y797893D1*
X478873Y775690D1*
X515740Y751683D1*
X551407Y725923D1*
X585790Y698473D1*
X618807Y669397D1*
X650383Y638763D1*
X680443Y606640D1*
X708920Y573103D1*
X735747Y538230D1*
X760857Y502107D1*
X784197Y464810D1*
X805710Y426433D1*
X825347Y387063D1*
X843060Y346790D1*
X858810Y305710D1*
X872560Y263920D1*
X884277Y221513D1*
X893937Y178590D1*
X901510Y135250D1*
X906987Y91597D1*
X910350Y47730D1*
X911593Y3753D1*
X911590Y-4000D1*
X1155077Y-1178110D2*
D10*
X1386600D1*
X1506810Y927970D2*
Y654777D1*
X-1285000Y-815000D2*
X-1153477D1*
X0Y911523D2*
Y-911523D1*
X-911523Y0D2*
X911523D1*
X-1509157Y890047D2*
Y656843D1*
Y773367D2*
X-1412627D1*
D21*
X1386600Y-788110D3*
Y-1178110D3*
D63*
X1507183Y1168373D3*
X1380180Y1168497D3*
X1253180Y1168623D3*
X1506810Y791373D3*
X1379813Y791500D3*
X1252810Y791623D3*
D22*
X1439000Y-533000D3*
D23*
X1435000Y-279000D3*
D22*
X-1431000Y-533000D3*
D23*
X-1435000Y-279000D3*
D22*
X-1431000Y285000D3*
D23*
X-1435000Y539000D3*
D26*
X-1450000Y-760000D3*
Y-1200000D3*
D27*
X-1285000Y-980000D3*
D28*
Y-815000D3*
Y-1145000D3*
D75*
X1289997Y2163D3*
X-1289997Y-2160D3*
D29*
X0Y0D3*
D78*
X-1294163Y771647D3*
X-1509157Y773367D3*
X-1290843Y1186633D3*
X-1505837Y1188353D3*
G04 Bottom Clear*
%LPC*%
D19*
X1168627Y1173053D3*
X-1180123Y1152220D3*
D15*
X-1250557Y-1250153D3*
X-664513Y-399613D3*
X-145043Y-563747D3*
D19*
X1380220Y1040897D3*
X1513760Y1039150D3*
X1023507Y984377D3*
X1381520Y906553D3*
D15*
X-1240403Y-573397D3*
X1452300Y610567D3*
X-1123830Y-1054883D3*
X538680Y-1130947D3*
X484657Y-423167D3*
X660540Y-325367D3*
X723217Y-153687D3*
X987673Y64180D3*
X543857Y-1014403D3*
X436410Y-1012793D3*
D34*
X1439000Y-533000D3*
X1435000Y-279000D3*
X-1431000Y-533000D3*
X-1435000Y-279000D3*
X-1431000Y285000D3*
X-1435000Y539000D3*
D35*
X-1450000Y-760000D3*
Y-1200000D3*
X1289946Y32163D2*
D36*
X1290047Y-27837D1*
X-1290047Y27840D2*
X-1289946Y-32160D1*
M02*
