G04 DipTrace 3.2.0.1*
G04 BottomSilk.gbr*
%MOIN*%
G04 #@! TF.FileFunction,Legend,Bot*
G04 #@! TF.Part,Single*
%ADD10C,0.009843*%
%ADD14C,0.001969*%
%ADD21C,0.007874*%
%ADD37C,0.015422*%
%FSLAX26Y26*%
G04*
G70*
G90*
G75*
G01*
G04 BotSilk*
%LPD*%
X308241Y-435055D2*
D10*
X359383D1*
X139508Y-393617D2*
X190650D1*
D37*
X31740Y-171181D3*
X-18402Y-180382D2*
D10*
Y-298487D1*
X-38087D1*
Y-180382D1*
X-18402D1*
X-14600Y-344894D2*
D21*
X113253D1*
Y-401300D1*
X-14600D1*
Y-344894D1*
X204748Y-176159D2*
X293546D1*
Y-269424D1*
X204748D1*
Y-176159D1*
X322457Y-146310D2*
X382018D1*
Y-275441D1*
X322457D1*
Y-146310D1*
X397799Y-146260D2*
X457361D1*
Y-275391D1*
X397799D1*
Y-146260D1*
X158289Y-49123D2*
D14*
X162226D1*
X177974D2*
X183879D1*
X201596D2*
X207501D1*
X224234D2*
X230139D1*
X243919D2*
X247856D1*
X261635D2*
X264588D1*
X285257D2*
X293131D1*
X310848D2*
X325612D1*
X329549D2*
X350218D1*
X158289Y-50108D2*
X163623D1*
X176355D2*
X185314D1*
X200195D2*
X208902D1*
X222799D2*
X231574D1*
X243919D2*
X249253D1*
X262009D2*
X265416D1*
X283527D2*
X294869D1*
X309413D2*
X325612D1*
X329549D2*
X350218D1*
X158289Y-51092D2*
X164725D1*
X175073D2*
X186542D1*
X199058D2*
X210039D1*
X221570D2*
X232802D1*
X243919D2*
X250355D1*
X262432D2*
X266122D1*
X281982D2*
X296299D1*
X308185D2*
X325612D1*
X329549D2*
X350218D1*
X158289Y-52076D2*
X165577D1*
X174144D2*
X187506D1*
X198205D2*
X210892D1*
X220607D2*
X233766D1*
X243919D2*
X251207D1*
X262889D2*
X266722D1*
X281185D2*
X297338D1*
X307217D2*
X325612D1*
X329549D2*
X350218D1*
X158289Y-53060D2*
X165881D1*
X173446D2*
X179193D1*
X182546D2*
X188262D1*
X197573D2*
X202929D1*
X206134D2*
X211524D1*
X219851D2*
X225453D1*
X228920D2*
X234522D1*
X243919D2*
X251511D1*
X263367D2*
X267264D1*
X281072D2*
X286241D1*
X291950D2*
X298066D1*
X306535D2*
X312181D1*
X321675D2*
X325612D1*
X338407D2*
X341360D1*
X158289Y-54045D2*
X161241D1*
X163210D2*
X166052D1*
X172900D2*
X177797D1*
X183823D2*
X188539D1*
X197135D2*
X201652D1*
X207320D2*
X211962D1*
X219574D2*
X224057D1*
X230315D2*
X234836D1*
X243919D2*
X246871D1*
X248840D2*
X251682D1*
X263853D2*
X267775D1*
X281320D2*
X283289D1*
X293471D2*
X298548D1*
X306051D2*
X310904D1*
X321675D2*
X325612D1*
X338407D2*
X341360D1*
X158289Y-55029D2*
X161241D1*
X165178D2*
X166163D1*
X172506D2*
X176724D1*
X184714D2*
X188689D1*
X196884D2*
X200757D1*
X208101D2*
X212213D1*
X219424D2*
X222984D1*
X231388D2*
X235113D1*
X243919D2*
X246871D1*
X250808D2*
X251793D1*
X264343D2*
X268275D1*
X294617D2*
X298817D1*
X305645D2*
X310009D1*
X321675D2*
X325612D1*
X338407D2*
X341360D1*
X158289Y-56013D2*
X161241D1*
X172306D2*
X176355D1*
X185374D2*
X188753D1*
X196762D2*
X200086D1*
X208622D2*
X212335D1*
X219356D2*
X222611D1*
X231761D2*
X235416D1*
X243919D2*
X246871D1*
X264834D2*
X268769D1*
X295480D2*
X298946D1*
X305320D2*
X309338D1*
X321675D2*
X325612D1*
X338407D2*
X341360D1*
X158289Y-56997D2*
X161241D1*
X172319D2*
X176198D1*
X185546D2*
X188746D1*
X196708D2*
X199888D1*
X208991D2*
X212389D1*
X219328D2*
X222411D1*
X231961D2*
X235696D1*
X243919D2*
X246871D1*
X265324D2*
X269263D1*
X295732D2*
X299002D1*
X305123D2*
X309106D1*
X321675D2*
X325612D1*
X338407D2*
X341360D1*
X158289Y-57982D2*
X161241D1*
X172543D2*
X176190D1*
X185371D2*
X188627D1*
X196687D2*
X199890D1*
X208896D2*
X212406D1*
X219318D2*
X222322D1*
X232051D2*
X235878D1*
X243919D2*
X246871D1*
X265789D2*
X269755D1*
X295590D2*
X299020D1*
X305056D2*
X309013D1*
X321675D2*
X325612D1*
X338407D2*
X341360D1*
X158289Y-58966D2*
X161241D1*
X172938D2*
X176711D1*
X184832D2*
X188357D1*
X196679D2*
X200122D1*
X208644D2*
X212380D1*
X219314D2*
X222286D1*
X232087D2*
X235973D1*
X243919D2*
X246871D1*
X266199D2*
X270248D1*
X295078D2*
X298990D1*
X305136D2*
X309088D1*
X321675D2*
X325612D1*
X338407D2*
X341360D1*
X158289Y-59950D2*
X161241D1*
X173502D2*
X178389D1*
X183278D2*
X187942D1*
X196680D2*
X200508D1*
X208266D2*
X212253D1*
X219313D2*
X222272D1*
X232100D2*
X236016D1*
X243919D2*
X246871D1*
X266556D2*
X270739D1*
X293637D2*
X298829D1*
X305357D2*
X309296D1*
X321675D2*
X325612D1*
X338407D2*
X341360D1*
X158289Y-60934D2*
X161241D1*
X174241D2*
X180886D1*
X180883D2*
X187374D1*
X196713D2*
X201519D1*
X206622D2*
X211980D1*
X219313D2*
X222268D1*
X232105D2*
X236034D1*
X243919D2*
X246871D1*
X263755D2*
X271228D1*
X291373D2*
X298427D1*
X305640D2*
X309966D1*
X321675D2*
X325612D1*
X338407D2*
X341360D1*
X158289Y-61919D2*
X161241D1*
X175100D2*
X186648D1*
X196842D2*
X203823D1*
X203939D2*
X211560D1*
X219312D2*
X222266D1*
X232107D2*
X236041D1*
X243919D2*
X246871D1*
X261644D2*
X271689D1*
X288505D2*
X297725D1*
X305973D2*
X312562D1*
X321675D2*
X325612D1*
X338407D2*
X341360D1*
X158289Y-62903D2*
X161241D1*
X176005D2*
X185848D1*
X197113D2*
X210939D1*
X219312D2*
X222265D1*
X232107D2*
X236043D1*
X243919D2*
X246871D1*
X260126D2*
X272087D1*
X285724D2*
X296626D1*
X306467D2*
X317011D1*
X321675D2*
X325612D1*
X338407D2*
X341360D1*
X158289Y-63887D2*
X161241D1*
X175025D2*
X186795D1*
X197494D2*
X210117D1*
X219312D2*
X222265D1*
X232108D2*
X236044D1*
X243919D2*
X246871D1*
X259052D2*
X272433D1*
X283541D2*
X294866D1*
X307234D2*
X325612D1*
X338407D2*
X341360D1*
X158289Y-64871D2*
X161241D1*
X174079D2*
X187649D1*
X197936D2*
X208252D1*
X219312D2*
X222265D1*
X232108D2*
X236044D1*
X243919D2*
X246871D1*
X258245D2*
X263953D1*
X267503D2*
X272780D1*
X282015D2*
X292307D1*
X308238D2*
X325612D1*
X338407D2*
X341360D1*
X158289Y-65856D2*
X161241D1*
X173259D2*
X178323D1*
X183838D2*
X188359D1*
X198409D2*
X205646D1*
X219312D2*
X222265D1*
X232108D2*
X236045D1*
X243919D2*
X246871D1*
X257963D2*
X262676D1*
X268357D2*
X273082D1*
X280991D2*
X289354D1*
X311178D2*
X325612D1*
X338407D2*
X341360D1*
X158289Y-66840D2*
X161241D1*
X172674D2*
X177046D1*
X184658D2*
X188927D1*
X198893D2*
X202580D1*
X219312D2*
X222265D1*
X232108D2*
X236045D1*
X243919D2*
X246871D1*
X257811D2*
X261780D1*
X269067D2*
X273274D1*
X280291D2*
X286732D1*
X315857D2*
X325612D1*
X338407D2*
X341360D1*
X158289Y-67824D2*
X161241D1*
X172342D2*
X176151D1*
X185242D2*
X189340D1*
X199383D2*
X203190D1*
X219312D2*
X222265D1*
X232108D2*
X236041D1*
X243919D2*
X246871D1*
X257742D2*
X261110D1*
X269631D2*
X273373D1*
X279826D2*
X284853D1*
X321675D2*
X325612D1*
X338407D2*
X341360D1*
X158289Y-68808D2*
X161241D1*
X172181D2*
X175480D1*
X185574D2*
X189581D1*
X199873D2*
X203752D1*
X219312D2*
X222265D1*
X232108D2*
X236006D1*
X243919D2*
X246871D1*
X257714D2*
X260878D1*
X270010D2*
X273417D1*
X279566D2*
X283487D1*
X321675D2*
X325612D1*
X338407D2*
X341360D1*
X158289Y-69793D2*
X161241D1*
X172112D2*
X175285D1*
X185731D2*
X189696D1*
X200366D2*
X204279D1*
X219312D2*
X222269D1*
X232104D2*
X235881D1*
X243919D2*
X246871D1*
X257704D2*
X260784D1*
X270218D2*
X273435D1*
X279440D2*
X282934D1*
X321675D2*
X325612D1*
X338407D2*
X341360D1*
X158289Y-70777D2*
X161241D1*
X172088D2*
X175223D1*
X185758D2*
X189713D1*
X200857D2*
X204785D1*
X219312D2*
X222311D1*
X232061D2*
X235645D1*
X243919D2*
X246871D1*
X257704D2*
X260860D1*
X269990D2*
X273439D1*
X279390D2*
X282899D1*
X321675D2*
X325612D1*
X338407D2*
X341360D1*
X158289Y-71761D2*
X161241D1*
X172112D2*
X175573D1*
X185689D2*
X189605D1*
X201350D2*
X205284D1*
X219316D2*
X222415D1*
X231958D2*
X235389D1*
X243919D2*
X246871D1*
X257737D2*
X261068D1*
X269597D2*
X273406D1*
X279407D2*
X283219D1*
X321675D2*
X325612D1*
X338407D2*
X341360D1*
X158289Y-72745D2*
X161241D1*
X172238D2*
X176586D1*
X185151D2*
X189339D1*
X201841D2*
X205777D1*
X219355D2*
X222959D1*
X231414D2*
X235179D1*
X243919D2*
X246871D1*
X257866D2*
X261646D1*
X269073D2*
X273278D1*
X279562D2*
X284043D1*
X298052D2*
X299037D1*
X321675D2*
X325612D1*
X338407D2*
X341360D1*
X158289Y-73730D2*
X161241D1*
X172511D2*
X178280D1*
X183468D2*
X188925D1*
X202334D2*
X206271D1*
X219519D2*
X224644D1*
X229729D2*
X234924D1*
X243919D2*
X246871D1*
X258140D2*
X263212D1*
X267773D2*
X273004D1*
X279959D2*
X286575D1*
X294653D2*
X299563D1*
X321675D2*
X325612D1*
X338407D2*
X341360D1*
X158289Y-74714D2*
X161241D1*
X172934D2*
X180835D1*
X180969D2*
X188351D1*
X202826D2*
X206763D1*
X219922D2*
X227144D1*
X227229D2*
X234478D1*
X243919D2*
X246871D1*
X258560D2*
X265613D1*
X265880D2*
X272584D1*
X280618D2*
X290431D1*
X290278D2*
X300243D1*
X321675D2*
X325612D1*
X338407D2*
X341360D1*
X158289Y-75698D2*
X161241D1*
X173580D2*
X187571D1*
X203316D2*
X207253D1*
X220611D2*
X233772D1*
X243919D2*
X246871D1*
X259169D2*
X271975D1*
X281516D2*
X301005D1*
X321675D2*
X325612D1*
X338407D2*
X341360D1*
X158289Y-76682D2*
X161241D1*
X174627D2*
X186553D1*
X203781D2*
X207718D1*
X221587D2*
X232790D1*
X243919D2*
X246871D1*
X260063D2*
X271081D1*
X282735D2*
X298856D1*
X321675D2*
X325612D1*
X338407D2*
X341360D1*
X158289Y-77667D2*
X161241D1*
X176159D2*
X185287D1*
X204191D2*
X208128D1*
X222836D2*
X231538D1*
X243919D2*
X246871D1*
X261259D2*
X269885D1*
X284364D2*
X296542D1*
X321675D2*
X325612D1*
X338407D2*
X341360D1*
X158289Y-78651D2*
X161241D1*
X177974D2*
X183879D1*
X204549D2*
X208486D1*
X224234D2*
X230139D1*
X243919D2*
X246871D1*
X262619D2*
X268525D1*
X286241D2*
X294115D1*
X321675D2*
X325612D1*
X338407D2*
X341360D1*
X379634Y-372807D2*
X383571D1*
X406209D2*
X412114D1*
X380008Y-373791D2*
X383945D1*
X404471D2*
X414003D1*
X380431Y-374776D2*
X384368D1*
X403037D2*
X415518D1*
X380888Y-375760D2*
X384825D1*
X401963D2*
X416659D1*
X381366Y-376744D2*
X385299D1*
X401110D2*
X407390D1*
X410933D2*
X417496D1*
X381851Y-377728D2*
X385754D1*
X400392D2*
X405868D1*
X412458D2*
X418116D1*
X382342Y-378713D2*
X386150D1*
X399868D2*
X404705D1*
X413643D2*
X418552D1*
X382833Y-379697D2*
X386499D1*
X399546D2*
X403890D1*
X414512D2*
X418835D1*
X383325Y-380681D2*
X386881D1*
X399319D2*
X403256D1*
X415150D2*
X419081D1*
X383817Y-381665D2*
X387312D1*
X415590D2*
X419370D1*
X384309Y-382650D2*
X387774D1*
X415841D2*
X419644D1*
X384801Y-383634D2*
X388254D1*
X415964D2*
X419823D1*
X376681Y-384618D2*
X379634D1*
X385290D2*
X388741D1*
X416017D2*
X419917D1*
X376681Y-385602D2*
X379634D1*
X385750D2*
X389232D1*
X416039D2*
X419960D1*
X376681Y-386587D2*
X379634D1*
X386149D2*
X389722D1*
X416047D2*
X419978D1*
X376681Y-387571D2*
X379634D1*
X386499D2*
X390215D1*
X416050D2*
X419984D1*
X376681Y-388555D2*
X379634D1*
X386881D2*
X390706D1*
X416051D2*
X419987D1*
X376681Y-389539D2*
X379634D1*
X387312D2*
X391199D1*
X416051D2*
X419984D1*
X376681Y-390524D2*
X379634D1*
X387777D2*
X391691D1*
X416047D2*
X419950D1*
X376681Y-391508D2*
X379634D1*
X388283D2*
X392180D1*
X416013D2*
X419824D1*
X376681Y-392492D2*
X379634D1*
X388852D2*
X392636D1*
X415883D2*
X419589D1*
X376681Y-393476D2*
X379634D1*
X389476D2*
X393000D1*
X415609D2*
X419332D1*
X374713Y-394461D2*
X393221D1*
X399319D2*
X403256D1*
X415189D2*
X419126D1*
X374713Y-395445D2*
X393333D1*
X399508D2*
X403839D1*
X414568D2*
X418906D1*
X374713Y-396429D2*
X393384D1*
X399883D2*
X404614D1*
X413745D2*
X418590D1*
X374713Y-397413D2*
X393413D1*
X400416D2*
X406460D1*
X411880D2*
X418156D1*
X376681Y-398398D2*
X379634D1*
X401043D2*
X409055D1*
X409274D2*
X417571D1*
X376681Y-399382D2*
X379634D1*
X401869D2*
X416750D1*
X376681Y-400366D2*
X379634D1*
X403049D2*
X415580D1*
X376681Y-401350D2*
X379634D1*
X404556D2*
X413976D1*
X376681Y-402335D2*
X379634D1*
X406209D2*
X412114D1*
X336122Y-105146D2*
X342028D1*
X359744D2*
X374508D1*
X334687Y-106130D2*
X343429D1*
X358309D2*
X374508D1*
X333459Y-107114D2*
X344566D1*
X357081D2*
X374508D1*
X332495Y-108098D2*
X345419D1*
X356114D2*
X374508D1*
X331739Y-109083D2*
X337456D1*
X341043D2*
X346050D1*
X355431D2*
X361078D1*
X370571D2*
X374508D1*
X331462Y-110067D2*
X336178D1*
X342028D2*
X346492D1*
X354948D2*
X359800D1*
X370571D2*
X374508D1*
X331312Y-111051D2*
X335287D1*
X343012D2*
X346760D1*
X354541D2*
X358905D1*
X370571D2*
X374508D1*
X331248Y-112035D2*
X334628D1*
X343996D2*
X346949D1*
X354220D2*
X358234D1*
X370571D2*
X374508D1*
X331255Y-113020D2*
X334456D1*
X354054D2*
X358036D1*
X370571D2*
X374508D1*
X331374Y-114004D2*
X334713D1*
X354078D2*
X357962D1*
X370571D2*
X374508D1*
X331648Y-114988D2*
X335138D1*
X354272D2*
X358208D1*
X370571D2*
X374508D1*
X332101Y-115972D2*
X336245D1*
X354544D2*
X358868D1*
X370571D2*
X374508D1*
X332821Y-116957D2*
X337567D1*
X354872D2*
X361461D1*
X370571D2*
X374508D1*
X333883Y-117941D2*
X338860D1*
X355364D2*
X365908D1*
X370571D2*
X374508D1*
X335138Y-118925D2*
X339502D1*
X356088D2*
X374508D1*
X333973Y-119909D2*
X339706D1*
X357012D2*
X374508D1*
X332974Y-120894D2*
X338352D1*
X357970D2*
X374508D1*
X332188Y-121878D2*
X336910D1*
X358813D2*
X374508D1*
X331554Y-122862D2*
X335717D1*
X359016D2*
X363837D1*
X370571D2*
X374508D1*
X331034Y-123846D2*
X334788D1*
X358745D2*
X363131D1*
X370571D2*
X374508D1*
X330645Y-124831D2*
X334460D1*
X358292D2*
X362531D1*
X370571D2*
X374508D1*
X330418Y-125815D2*
X334287D1*
X357715D2*
X361990D1*
X370571D2*
X374508D1*
X330338Y-126799D2*
X334250D1*
X357135D2*
X361479D1*
X370571D2*
X374508D1*
X330417Y-127783D2*
X334314D1*
X343996D2*
X347933D1*
X356591D2*
X360978D1*
X370571D2*
X374508D1*
X330667Y-128768D2*
X334851D1*
X343348D2*
X347555D1*
X356071D2*
X360484D1*
X370571D2*
X374508D1*
X331044Y-129752D2*
X336534D1*
X341637D2*
X347098D1*
X355569D2*
X359990D1*
X370571D2*
X374508D1*
X331526Y-130736D2*
X339033D1*
X339124D2*
X346508D1*
X355071D2*
X359499D1*
X370571D2*
X374508D1*
X332196Y-131720D2*
X345722D1*
X354575D2*
X359009D1*
X370571D2*
X374508D1*
X333202Y-132705D2*
X344703D1*
X354056D2*
X358543D1*
X370571D2*
X374508D1*
X334575Y-133689D2*
X343435D1*
X353481D2*
X358133D1*
X370571D2*
X374508D1*
X336122Y-134673D2*
X342028D1*
X352854D2*
X357776D1*
X370571D2*
X374508D1*
X412488Y-102500D2*
X419378D1*
X437094D2*
X443000D1*
X411206Y-103484D2*
X420779D1*
X435357D2*
X444889D1*
X410217Y-104469D2*
X421916D1*
X433923D2*
X446404D1*
X409474Y-105453D2*
X422769D1*
X432849D2*
X447545D1*
X408873Y-106437D2*
X414691D1*
X418048D2*
X423401D1*
X431996D2*
X438276D1*
X441818D2*
X448382D1*
X408375Y-107421D2*
X413296D1*
X419359D2*
X423842D1*
X431278D2*
X436754D1*
X443344D2*
X449002D1*
X408028Y-108406D2*
X412223D1*
X420400D2*
X424110D1*
X430754D2*
X435591D1*
X444528D2*
X449438D1*
X407838Y-109390D2*
X411801D1*
X421346D2*
X424299D1*
X430432D2*
X434776D1*
X445398D2*
X449720D1*
X408030Y-110374D2*
X411796D1*
X430205D2*
X434142D1*
X446035D2*
X449967D1*
X408284Y-111358D2*
X411993D1*
X446476D2*
X450256D1*
X408569Y-112343D2*
X412343D1*
X446727D2*
X450529D1*
X408928Y-113327D2*
X412776D1*
X446850D2*
X450709D1*
X409379Y-114311D2*
X413279D1*
X446903D2*
X450803D1*
X409932Y-115295D2*
X413887D1*
X446925D2*
X450846D1*
X410556Y-116280D2*
X414612D1*
X446933D2*
X450864D1*
X411188Y-117264D2*
X415359D1*
X446936D2*
X450870D1*
X411865Y-118248D2*
X416058D1*
X446937D2*
X450873D1*
X412622Y-119232D2*
X416769D1*
X446937D2*
X450870D1*
X413382Y-120217D2*
X417570D1*
X446933D2*
X450835D1*
X414086Y-121201D2*
X418426D1*
X446899D2*
X450710D1*
X414796Y-122185D2*
X419242D1*
X446769D2*
X450474D1*
X415567Y-123169D2*
X419973D1*
X446495D2*
X450218D1*
X416332Y-124154D2*
X420694D1*
X430205D2*
X434142D1*
X446075D2*
X450012D1*
X417038Y-125138D2*
X421470D1*
X430394D2*
X434725D1*
X445454D2*
X449791D1*
X417752Y-126122D2*
X422233D1*
X430768D2*
X435500D1*
X444631D2*
X449475D1*
X418557Y-127106D2*
X422901D1*
X431301D2*
X437346D1*
X442766D2*
X449042D1*
X419443Y-128091D2*
X423451D1*
X431928D2*
X439941D1*
X440160D2*
X448456D1*
X407567Y-129075D2*
X423858D1*
X432755D2*
X447636D1*
X407567Y-130059D2*
X424097D1*
X433935D2*
X446466D1*
X407567Y-131043D2*
X424221D1*
X435442D2*
X444862D1*
X407567Y-132028D2*
X424299D1*
X437094D2*
X443000D1*
X81478Y-259627D2*
X87383D1*
X105100D2*
X111005D1*
X80043Y-260612D2*
X88784D1*
X103362D2*
X112894D1*
X78814Y-261596D2*
X89921D1*
X101928D2*
X114409D1*
X77851Y-262580D2*
X90774D1*
X100854D2*
X115550D1*
X77095Y-263564D2*
X82811D1*
X86399D2*
X91406D1*
X100001D2*
X106281D1*
X109824D2*
X116387D1*
X76818Y-264549D2*
X81534D1*
X87383D2*
X91847D1*
X99283D2*
X104759D1*
X111349D2*
X117007D1*
X76668Y-265533D2*
X80643D1*
X88367D2*
X92116D1*
X98759D2*
X103596D1*
X112534D2*
X117443D1*
X76604Y-266517D2*
X79983D1*
X89352D2*
X92304D1*
X98437D2*
X102781D1*
X113404D2*
X117726D1*
X76611Y-267501D2*
X79811D1*
X98210D2*
X102147D1*
X114041D2*
X117972D1*
X76730Y-268486D2*
X80069D1*
X114481D2*
X118261D1*
X77004Y-269470D2*
X80494D1*
X114733D2*
X118535D1*
X77456Y-270454D2*
X81601D1*
X114855D2*
X118714D1*
X78177Y-271438D2*
X82922D1*
X114908D2*
X118808D1*
X79239Y-272423D2*
X84216D1*
X114930D2*
X118851D1*
X80493Y-273407D2*
X84857D1*
X114938D2*
X118869D1*
X79329Y-274391D2*
X85061D1*
X114941D2*
X118876D1*
X78330Y-275375D2*
X83708D1*
X114942D2*
X118878D1*
X77543Y-276360D2*
X82266D1*
X114942D2*
X118875D1*
X76909Y-277344D2*
X81073D1*
X114938D2*
X118841D1*
X76389Y-278328D2*
X80144D1*
X114904D2*
X118715D1*
X76000Y-279312D2*
X79816D1*
X114775D2*
X118480D1*
X75774Y-280297D2*
X79643D1*
X114500D2*
X118223D1*
X75694Y-281281D2*
X79606D1*
X98210D2*
X102147D1*
X114080D2*
X118017D1*
X75772Y-282265D2*
X79669D1*
X89352D2*
X93289D1*
X98400D2*
X102730D1*
X113459D2*
X117797D1*
X76022Y-283249D2*
X80206D1*
X88704D2*
X92911D1*
X98774D2*
X103505D1*
X112636D2*
X117481D1*
X76400Y-284234D2*
X81889D1*
X86992D2*
X92453D1*
X99307D2*
X105351D1*
X110771D2*
X117047D1*
X76881Y-285218D2*
X84388D1*
X84480D2*
X91863D1*
X99934D2*
X107946D1*
X108165D2*
X116462D1*
X77551Y-286202D2*
X91077D1*
X100760D2*
X115641D1*
X78558Y-287186D2*
X90058D1*
X101941D2*
X114471D1*
X79931Y-288171D2*
X88791D1*
X103447D2*
X112867D1*
X81478Y-289155D2*
X87383D1*
X105100D2*
X111005D1*
X-71043Y-356296D2*
X-67106D1*
X-44468D2*
X-29705D1*
X-70669Y-357281D2*
X-66732D1*
X-45903D2*
X-29705D1*
X-70246Y-358265D2*
X-66309D1*
X-47132D2*
X-29705D1*
X-69789Y-359249D2*
X-65852D1*
X-48099D2*
X-29705D1*
X-69311Y-360233D2*
X-65378D1*
X-48782D2*
X-43135D1*
X-33642D2*
X-29705D1*
X-68826Y-361218D2*
X-64923D1*
X-49265D2*
X-44412D1*
X-33642D2*
X-29705D1*
X-68335Y-362202D2*
X-64527D1*
X-49671D2*
X-45307D1*
X-33642D2*
X-29705D1*
X-67844Y-363186D2*
X-64178D1*
X-49992D2*
X-45978D1*
X-33642D2*
X-29705D1*
X-67352Y-364170D2*
X-63796D1*
X-50158D2*
X-46177D1*
X-33642D2*
X-29705D1*
X-66861Y-365155D2*
X-63366D1*
X-50135D2*
X-46251D1*
X-33642D2*
X-29705D1*
X-66368Y-366139D2*
X-62904D1*
X-49941D2*
X-46004D1*
X-33642D2*
X-29705D1*
X-65876Y-367123D2*
X-62423D1*
X-49669D2*
X-45345D1*
X-33642D2*
X-29705D1*
X-73996Y-368107D2*
X-71043D1*
X-65387D2*
X-61937D1*
X-49340D2*
X-42752D1*
X-33642D2*
X-29705D1*
X-73996Y-369092D2*
X-71043D1*
X-64927D2*
X-61445D1*
X-48848D2*
X-38305D1*
X-33642D2*
X-29705D1*
X-73996Y-370076D2*
X-71043D1*
X-64528D2*
X-60955D1*
X-48124D2*
X-29705D1*
X-73996Y-371060D2*
X-71043D1*
X-64178D2*
X-60462D1*
X-47201D2*
X-29705D1*
X-73996Y-372044D2*
X-71043D1*
X-63797D2*
X-59971D1*
X-46242D2*
X-29705D1*
X-73996Y-373029D2*
X-71043D1*
X-63366D2*
X-59478D1*
X-45400D2*
X-29705D1*
X-73996Y-374013D2*
X-71043D1*
X-62900D2*
X-58987D1*
X-45196D2*
X-40375D1*
X-33642D2*
X-29705D1*
X-73996Y-374997D2*
X-71043D1*
X-62394D2*
X-58497D1*
X-45467D2*
X-41081D1*
X-33642D2*
X-29705D1*
X-73996Y-375981D2*
X-71043D1*
X-61825D2*
X-58041D1*
X-45921D2*
X-41681D1*
X-33642D2*
X-29705D1*
X-73996Y-376966D2*
X-71043D1*
X-61201D2*
X-57677D1*
X-46497D2*
X-42223D1*
X-33642D2*
X-29705D1*
X-75964Y-377950D2*
X-57456D1*
X-47077D2*
X-42734D1*
X-33642D2*
X-29705D1*
X-75964Y-378934D2*
X-57345D1*
X-47622D2*
X-43234D1*
X-33642D2*
X-29705D1*
X-75964Y-379918D2*
X-57293D1*
X-48141D2*
X-43728D1*
X-33642D2*
X-29705D1*
X-75964Y-380903D2*
X-57264D1*
X-48644D2*
X-44222D1*
X-33642D2*
X-29705D1*
X-73996Y-381887D2*
X-71043D1*
X-49141D2*
X-44714D1*
X-33642D2*
X-29705D1*
X-73996Y-382871D2*
X-71043D1*
X-49638D2*
X-45204D1*
X-33642D2*
X-29705D1*
X-73996Y-383855D2*
X-71043D1*
X-50157D2*
X-45670D1*
X-33642D2*
X-29705D1*
X-73996Y-384840D2*
X-71043D1*
X-50731D2*
X-46080D1*
X-33642D2*
X-29705D1*
X-73996Y-385824D2*
X-71043D1*
X-51358D2*
X-46437D1*
X-33642D2*
X-29705D1*
X-139864Y-209231D2*
X-133959D1*
X-122147D2*
X-118210D1*
X-104431D2*
X-101478D1*
X-141299Y-210215D2*
X-132557D1*
X-122147D2*
X-118210D1*
X-104431D2*
X-101478D1*
X-142527Y-211199D2*
X-131420D1*
X-122147D2*
X-118210D1*
X-104431D2*
X-101478D1*
X-143491Y-212184D2*
X-130568D1*
X-122147D2*
X-118210D1*
X-104431D2*
X-101478D1*
X-144247Y-213168D2*
X-138530D1*
X-134943D2*
X-129936D1*
X-122147D2*
X-118210D1*
X-104431D2*
X-101478D1*
X-144524Y-214152D2*
X-139808D1*
X-133959D2*
X-129494D1*
X-122147D2*
X-118210D1*
X-104431D2*
X-101478D1*
X-144674Y-215136D2*
X-140699D1*
X-132974D2*
X-129226D1*
X-122147D2*
X-118210D1*
X-104431D2*
X-101478D1*
X-144738Y-216121D2*
X-141358D1*
X-131990D2*
X-129037D1*
X-122147D2*
X-118210D1*
X-104431D2*
X-101478D1*
X-144731Y-217105D2*
X-141531D1*
X-122147D2*
X-118210D1*
X-104431D2*
X-101478D1*
X-144612Y-218089D2*
X-141273D1*
X-122147D2*
X-118210D1*
X-104431D2*
X-101478D1*
X-144338Y-219073D2*
X-140848D1*
X-122147D2*
X-118210D1*
X-104431D2*
X-101478D1*
X-143885Y-220058D2*
X-139741D1*
X-122147D2*
X-118210D1*
X-104431D2*
X-101478D1*
X-143165Y-221042D2*
X-138419D1*
X-122147D2*
X-118210D1*
X-104431D2*
X-101478D1*
X-142103Y-222026D2*
X-137126D1*
X-122147D2*
X-118210D1*
X-104431D2*
X-101478D1*
X-140848Y-223011D2*
X-136484D1*
X-122147D2*
X-118210D1*
X-104431D2*
X-101478D1*
X-142013Y-223995D2*
X-136281D1*
X-122147D2*
X-118210D1*
X-104431D2*
X-101478D1*
X-143012Y-224979D2*
X-137634D1*
X-122147D2*
X-118210D1*
X-104431D2*
X-101478D1*
X-143798Y-225963D2*
X-139076D1*
X-122147D2*
X-118210D1*
X-104431D2*
X-101478D1*
X-144432Y-226948D2*
X-140269D1*
X-122147D2*
X-118210D1*
X-104435D2*
X-101478D1*
X-144952Y-227932D2*
X-141198D1*
X-122144D2*
X-118207D1*
X-104469D2*
X-101478D1*
X-145341Y-228916D2*
X-141526D1*
X-122109D2*
X-118172D1*
X-104599D2*
X-101478D1*
X-145568Y-229900D2*
X-141699D1*
X-121984D2*
X-118043D1*
X-104873D2*
X-101482D1*
X-145648Y-230885D2*
X-141736D1*
X-121744D2*
X-117761D1*
X-105297D2*
X-101517D1*
X-145569Y-231869D2*
X-141672D1*
X-131990D2*
X-128053D1*
X-121453D2*
X-117368D1*
X-105953D2*
X-101646D1*
X-145320Y-232853D2*
X-141135D1*
X-132638D2*
X-128431D1*
X-121118D2*
X-116543D1*
X-106856D2*
X-101920D1*
X-144942Y-233837D2*
X-139452D1*
X-134349D2*
X-128888D1*
X-120627D2*
X-114512D1*
X-108999D2*
X-102336D1*
X-144460Y-234822D2*
X-136953D1*
X-136862D2*
X-129479D1*
X-119929D2*
X-111672D1*
X-111907D2*
X-102915D1*
X-143790Y-235806D2*
X-130264D1*
X-119051D2*
X-103734D1*
X-142784Y-236790D2*
X-131283D1*
X-117977D2*
X-104903D1*
X-141411Y-237774D2*
X-132551D1*
X-116682D2*
X-106506D1*
X-139864Y-238759D2*
X-133959D1*
X-115258D2*
X-108368D1*
X158289Y-49123D2*
Y-50108D1*
Y-51092D1*
Y-52076D1*
Y-53060D1*
Y-54045D1*
Y-55029D1*
Y-56013D1*
Y-56997D1*
Y-57982D1*
Y-58966D1*
Y-59950D1*
Y-60934D1*
Y-61919D1*
Y-62903D1*
Y-63887D1*
Y-64871D1*
Y-65856D1*
Y-66840D1*
Y-67824D1*
Y-68808D1*
Y-69793D1*
Y-70777D1*
Y-71761D1*
Y-72745D1*
Y-73730D1*
Y-74714D1*
Y-75698D1*
Y-76682D1*
Y-77667D1*
Y-78651D1*
X162226Y-49123D2*
X163623Y-50108D1*
X164725Y-51092D1*
X165577Y-52076D1*
X165881Y-53060D1*
X166052Y-54045D1*
X166163Y-55029D1*
X177974Y-49123D2*
X176355Y-50108D1*
X175073Y-51092D1*
X174144Y-52076D1*
X173446Y-53060D1*
X172900Y-54045D1*
X172506Y-55029D1*
X172306Y-56013D1*
X172319Y-56997D1*
X172543Y-57982D1*
X172938Y-58966D1*
X173502Y-59950D1*
X174241Y-60934D1*
X175100Y-61919D1*
X176005Y-62903D1*
X175025Y-63887D1*
X174079Y-64871D1*
X173259Y-65856D1*
X172674Y-66840D1*
X172342Y-67824D1*
X172181Y-68808D1*
X172112Y-69793D1*
X172088Y-70777D1*
X172112Y-71761D1*
X172238Y-72745D1*
X172511Y-73730D1*
X172934Y-74714D1*
X173580Y-75698D1*
X174627Y-76682D1*
X176159Y-77667D1*
X177974Y-78651D1*
X183879Y-49123D2*
X185314Y-50108D1*
X186542Y-51092D1*
X187506Y-52076D1*
X188262Y-53060D1*
X188539Y-54045D1*
X188689Y-55029D1*
X188753Y-56013D1*
X188746Y-56997D1*
X188627Y-57982D1*
X188357Y-58966D1*
X187942Y-59950D1*
X187374Y-60934D1*
X186648Y-61919D1*
X185848Y-62903D1*
X186795Y-63887D1*
X187649Y-64871D1*
X188359Y-65856D1*
X188927Y-66840D1*
X189340Y-67824D1*
X189581Y-68808D1*
X189696Y-69793D1*
X189713Y-70777D1*
X189605Y-71761D1*
X189339Y-72745D1*
X188925Y-73730D1*
X188351Y-74714D1*
X187571Y-75698D1*
X186553Y-76682D1*
X185287Y-77667D1*
X183879Y-78651D1*
X201596Y-49123D2*
X200195Y-50108D1*
X199058Y-51092D1*
X198205Y-52076D1*
X197573Y-53060D1*
X197135Y-54045D1*
X196884Y-55029D1*
X196762Y-56013D1*
X196708Y-56997D1*
X196687Y-57982D1*
X196679Y-58966D1*
X196680Y-59950D1*
X196713Y-60934D1*
X196842Y-61919D1*
X197113Y-62903D1*
X197494Y-63887D1*
X197936Y-64871D1*
X198409Y-65856D1*
X198893Y-66840D1*
X199383Y-67824D1*
X199873Y-68808D1*
X200366Y-69793D1*
X200857Y-70777D1*
X201350Y-71761D1*
X201841Y-72745D1*
X202334Y-73730D1*
X202826Y-74714D1*
X203316Y-75698D1*
X203781Y-76682D1*
X204191Y-77667D1*
X204549Y-78651D1*
X207501Y-49123D2*
X208902Y-50108D1*
X210039Y-51092D1*
X210892Y-52076D1*
X211524Y-53060D1*
X211962Y-54045D1*
X212213Y-55029D1*
X212335Y-56013D1*
X212389Y-56997D1*
X212406Y-57982D1*
X212380Y-58966D1*
X212253Y-59950D1*
X211980Y-60934D1*
X211560Y-61919D1*
X210939Y-62903D1*
X210117Y-63887D1*
X208252Y-64871D1*
X205646Y-65856D1*
X202580Y-66840D1*
X203190Y-67824D1*
X203752Y-68808D1*
X204279Y-69793D1*
X204785Y-70777D1*
X205284Y-71761D1*
X205777Y-72745D1*
X206271Y-73730D1*
X206763Y-74714D1*
X207253Y-75698D1*
X207718Y-76682D1*
X208128Y-77667D1*
X208486Y-78651D1*
X224234Y-49123D2*
X222799Y-50108D1*
X221570Y-51092D1*
X220607Y-52076D1*
X219851Y-53060D1*
X219574Y-54045D1*
X219424Y-55029D1*
X219356Y-56013D1*
X219328Y-56997D1*
X219318Y-57982D1*
X219314Y-58966D1*
X219313Y-59950D1*
Y-60934D1*
X219312Y-61919D1*
Y-62903D1*
Y-63887D1*
Y-64871D1*
Y-65856D1*
Y-66840D1*
Y-67824D1*
Y-68808D1*
Y-69793D1*
Y-70777D1*
X219316Y-71761D1*
X219355Y-72745D1*
X219519Y-73730D1*
X219922Y-74714D1*
X220611Y-75698D1*
X221587Y-76682D1*
X222836Y-77667D1*
X224234Y-78651D1*
X230139Y-49123D2*
X231574Y-50108D1*
X232802Y-51092D1*
X233766Y-52076D1*
X234522Y-53060D1*
X234836Y-54045D1*
X235113Y-55029D1*
X235416Y-56013D1*
X235696Y-56997D1*
X235878Y-57982D1*
X235973Y-58966D1*
X236016Y-59950D1*
X236034Y-60934D1*
X236041Y-61919D1*
X236043Y-62903D1*
X236044Y-63887D1*
Y-64871D1*
X236045Y-65856D1*
Y-66840D1*
X236041Y-67824D1*
X236006Y-68808D1*
X235881Y-69793D1*
X235645Y-70777D1*
X235389Y-71761D1*
X235179Y-72745D1*
X234924Y-73730D1*
X234478Y-74714D1*
X233772Y-75698D1*
X232790Y-76682D1*
X231538Y-77667D1*
X230139Y-78651D1*
X243919Y-49123D2*
Y-50108D1*
Y-51092D1*
Y-52076D1*
Y-53060D1*
Y-54045D1*
Y-55029D1*
Y-56013D1*
Y-56997D1*
Y-57982D1*
Y-58966D1*
Y-59950D1*
Y-60934D1*
Y-61919D1*
Y-62903D1*
Y-63887D1*
Y-64871D1*
Y-65856D1*
Y-66840D1*
Y-67824D1*
Y-68808D1*
Y-69793D1*
Y-70777D1*
Y-71761D1*
Y-72745D1*
Y-73730D1*
Y-74714D1*
Y-75698D1*
Y-76682D1*
Y-77667D1*
Y-78651D1*
X247856Y-49123D2*
X249253Y-50108D1*
X250355Y-51092D1*
X251207Y-52076D1*
X251511Y-53060D1*
X251682Y-54045D1*
X251793Y-55029D1*
X261635Y-49123D2*
X262009Y-50108D1*
X262432Y-51092D1*
X262889Y-52076D1*
X263367Y-53060D1*
X263853Y-54045D1*
X264343Y-55029D1*
X264834Y-56013D1*
X265324Y-56997D1*
X265789Y-57982D1*
X266199Y-58966D1*
X266556Y-59950D1*
X263755Y-60934D1*
X261644Y-61919D1*
X260126Y-62903D1*
X259052Y-63887D1*
X258245Y-64871D1*
X257963Y-65856D1*
X257811Y-66840D1*
X257742Y-67824D1*
X257714Y-68808D1*
X257704Y-69793D1*
Y-70777D1*
X257737Y-71761D1*
X257866Y-72745D1*
X258140Y-73730D1*
X258560Y-74714D1*
X259169Y-75698D1*
X260063Y-76682D1*
X261259Y-77667D1*
X262619Y-78651D1*
X264588Y-49123D2*
X265416Y-50108D1*
X266122Y-51092D1*
X266722Y-52076D1*
X267264Y-53060D1*
X267775Y-54045D1*
X268275Y-55029D1*
X268769Y-56013D1*
X269263Y-56997D1*
X269755Y-57982D1*
X270248Y-58966D1*
X270739Y-59950D1*
X271228Y-60934D1*
X271689Y-61919D1*
X272087Y-62903D1*
X272433Y-63887D1*
X272780Y-64871D1*
X273082Y-65856D1*
X273274Y-66840D1*
X273373Y-67824D1*
X273417Y-68808D1*
X273435Y-69793D1*
X273439Y-70777D1*
X273406Y-71761D1*
X273278Y-72745D1*
X273004Y-73730D1*
X272584Y-74714D1*
X271975Y-75698D1*
X271081Y-76682D1*
X269885Y-77667D1*
X268525Y-78651D1*
X285257Y-49123D2*
X283527Y-50108D1*
X281982Y-51092D1*
X281185Y-52076D1*
X281072Y-53060D1*
X281320Y-54045D1*
X293131Y-49123D2*
X294869Y-50108D1*
X296299Y-51092D1*
X297338Y-52076D1*
X298066Y-53060D1*
X298548Y-54045D1*
X298817Y-55029D1*
X298946Y-56013D1*
X299002Y-56997D1*
X299020Y-57982D1*
X298990Y-58966D1*
X298829Y-59950D1*
X298427Y-60934D1*
X297725Y-61919D1*
X296626Y-62903D1*
X294866Y-63887D1*
X292307Y-64871D1*
X289354Y-65856D1*
X286732Y-66840D1*
X284853Y-67824D1*
X283487Y-68808D1*
X282934Y-69793D1*
X282899Y-70777D1*
X283219Y-71761D1*
X284043Y-72745D1*
X286575Y-73730D1*
X290431Y-74714D1*
X295100Y-75698D1*
X310848Y-49123D2*
X309413Y-50108D1*
X308185Y-51092D1*
X307217Y-52076D1*
X306535Y-53060D1*
X306051Y-54045D1*
X305645Y-55029D1*
X305320Y-56013D1*
X305123Y-56997D1*
X305056Y-57982D1*
X305136Y-58966D1*
X305357Y-59950D1*
X305640Y-60934D1*
X305973Y-61919D1*
X306467Y-62903D1*
X307234Y-63887D1*
X308238Y-64871D1*
X311178Y-65856D1*
X315857Y-66840D1*
X321675Y-67824D1*
Y-68808D1*
Y-69793D1*
Y-70777D1*
Y-71761D1*
Y-72745D1*
Y-73730D1*
Y-74714D1*
Y-75698D1*
Y-76682D1*
Y-77667D1*
Y-78651D1*
X325612Y-49123D2*
Y-50108D1*
Y-51092D1*
Y-52076D1*
Y-53060D1*
Y-54045D1*
Y-55029D1*
Y-56013D1*
Y-56997D1*
Y-57982D1*
Y-58966D1*
Y-59950D1*
Y-60934D1*
Y-61919D1*
Y-62903D1*
Y-63887D1*
Y-64871D1*
Y-65856D1*
Y-66840D1*
Y-67824D1*
Y-68808D1*
Y-69793D1*
Y-70777D1*
Y-71761D1*
Y-72745D1*
Y-73730D1*
Y-74714D1*
Y-75698D1*
Y-76682D1*
Y-77667D1*
Y-78651D1*
X329549Y-49123D2*
Y-50108D1*
Y-51092D1*
Y-52076D1*
Y-53060D1*
X338407D1*
Y-54045D1*
Y-55029D1*
Y-56013D1*
Y-56997D1*
Y-57982D1*
Y-58966D1*
Y-59950D1*
Y-60934D1*
Y-61919D1*
Y-62903D1*
Y-63887D1*
Y-64871D1*
Y-65856D1*
Y-66840D1*
Y-67824D1*
Y-68808D1*
Y-69793D1*
Y-70777D1*
Y-71761D1*
Y-72745D1*
Y-73730D1*
Y-74714D1*
Y-75698D1*
Y-76682D1*
Y-77667D1*
Y-78651D1*
X350218Y-49123D2*
Y-50108D1*
Y-51092D1*
Y-52076D1*
Y-53060D1*
X341360D1*
Y-54045D1*
Y-55029D1*
Y-56013D1*
Y-56997D1*
Y-57982D1*
Y-58966D1*
Y-59950D1*
Y-60934D1*
Y-61919D1*
Y-62903D1*
Y-63887D1*
Y-64871D1*
Y-65856D1*
Y-66840D1*
Y-67824D1*
Y-68808D1*
Y-69793D1*
Y-70777D1*
Y-71761D1*
Y-72745D1*
Y-73730D1*
Y-74714D1*
Y-75698D1*
Y-76682D1*
Y-77667D1*
Y-78651D1*
X180927Y-52076D2*
X179193Y-53060D1*
X177797Y-54045D1*
X176724Y-55029D1*
X176355Y-56013D1*
X176198Y-56997D1*
X176190Y-57982D1*
X176711Y-58966D1*
X178389Y-59950D1*
X180886Y-60934D1*
X183879Y-61919D1*
X180927Y-52076D2*
X182546Y-53060D1*
X183823Y-54045D1*
X184714Y-55029D1*
X185374Y-56013D1*
X185546Y-56997D1*
X185371Y-57982D1*
X184832Y-58966D1*
X183278Y-59950D1*
X180883Y-60934D1*
X177974Y-61919D1*
X204549Y-52076D2*
X202929Y-53060D1*
X201652Y-54045D1*
X200757Y-55029D1*
X200086Y-56013D1*
X199888Y-56997D1*
X199890Y-57982D1*
X200122Y-58966D1*
X200508Y-59950D1*
X201519Y-60934D1*
X203823Y-61919D1*
X206517Y-62903D1*
X204549Y-52076D2*
X206134Y-53060D1*
X207320Y-54045D1*
X208101Y-55029D1*
X208622Y-56013D1*
X208991Y-56997D1*
X208896Y-57982D1*
X208644Y-58966D1*
X208266Y-59950D1*
X206622Y-60934D1*
X203939Y-61919D1*
X200612Y-62903D1*
X227186Y-52076D2*
X225453Y-53060D1*
X224057Y-54045D1*
X222984Y-55029D1*
X222611Y-56013D1*
X222411Y-56997D1*
X222322Y-57982D1*
X222286Y-58966D1*
X222272Y-59950D1*
X222268Y-60934D1*
X222266Y-61919D1*
X222265Y-62903D1*
Y-63887D1*
Y-64871D1*
Y-65856D1*
Y-66840D1*
Y-67824D1*
Y-68808D1*
X222269Y-69793D1*
X222311Y-70777D1*
X222415Y-71761D1*
X222959Y-72745D1*
X224644Y-73730D1*
X227144Y-74714D1*
X230139Y-75698D1*
X227186Y-52076D2*
X228920Y-53060D1*
X230315Y-54045D1*
X231388Y-55029D1*
X231761Y-56013D1*
X231961Y-56997D1*
X232051Y-57982D1*
X232087Y-58966D1*
X232100Y-59950D1*
X232105Y-60934D1*
X232107Y-61919D1*
Y-62903D1*
X232108Y-63887D1*
Y-64871D1*
Y-65856D1*
Y-66840D1*
Y-67824D1*
Y-68808D1*
X232104Y-69793D1*
X232061Y-70777D1*
X231958Y-71761D1*
X231414Y-72745D1*
X229729Y-73730D1*
X227229Y-74714D1*
X224234Y-75698D1*
X289194Y-52076D2*
X286241Y-53060D1*
X283289Y-54045D1*
X290178Y-52076D2*
X291950Y-53060D1*
X293471Y-54045D1*
X294617Y-55029D1*
X295480Y-56013D1*
X295732Y-56997D1*
X295590Y-57982D1*
X295078Y-58966D1*
X293637Y-59950D1*
X291373Y-60934D1*
X288505Y-61919D1*
X285724Y-62903D1*
X283541Y-63887D1*
X282015Y-64871D1*
X280991Y-65856D1*
X280291Y-66840D1*
X279826Y-67824D1*
X279566Y-68808D1*
X279440Y-69793D1*
X279390Y-70777D1*
X279407Y-71761D1*
X279562Y-72745D1*
X279959Y-73730D1*
X280618Y-74714D1*
X281516Y-75698D1*
X282735Y-76682D1*
X284364Y-77667D1*
X286241Y-78651D1*
X313801Y-52076D2*
X312181Y-53060D1*
X310904Y-54045D1*
X310009Y-55029D1*
X309338Y-56013D1*
X309106Y-56997D1*
X309013Y-57982D1*
X309088Y-58966D1*
X309296Y-59950D1*
X309966Y-60934D1*
X312562Y-61919D1*
X317011Y-62903D1*
X322659Y-63887D1*
X321675Y-52076D2*
Y-53060D1*
Y-54045D1*
Y-55029D1*
Y-56013D1*
Y-56997D1*
Y-57982D1*
Y-58966D1*
Y-59950D1*
Y-60934D1*
Y-61919D1*
Y-62903D1*
X312816Y-63887D1*
X161241Y-53060D2*
Y-54045D1*
Y-55029D1*
Y-56013D1*
Y-56997D1*
Y-57982D1*
Y-58966D1*
Y-59950D1*
Y-60934D1*
Y-61919D1*
Y-62903D1*
Y-63887D1*
Y-64871D1*
Y-65856D1*
Y-66840D1*
Y-67824D1*
Y-68808D1*
Y-69793D1*
Y-70777D1*
Y-71761D1*
Y-72745D1*
Y-73730D1*
Y-74714D1*
Y-75698D1*
Y-76682D1*
Y-77667D1*
Y-78651D1*
Y-53060D2*
X163210Y-54045D1*
X165178Y-55029D1*
X246871Y-53060D2*
Y-54045D1*
Y-55029D1*
Y-56013D1*
Y-56997D1*
Y-57982D1*
Y-58966D1*
Y-59950D1*
Y-60934D1*
Y-61919D1*
Y-62903D1*
Y-63887D1*
Y-64871D1*
Y-65856D1*
Y-66840D1*
Y-67824D1*
Y-68808D1*
Y-69793D1*
Y-70777D1*
Y-71761D1*
Y-72745D1*
Y-73730D1*
Y-74714D1*
Y-75698D1*
Y-76682D1*
Y-77667D1*
Y-78651D1*
Y-53060D2*
X248840Y-54045D1*
X250808Y-55029D1*
X265572Y-63887D2*
X263953Y-64871D1*
X262676Y-65856D1*
X261780Y-66840D1*
X261110Y-67824D1*
X260878Y-68808D1*
X260784Y-69793D1*
X260860Y-70777D1*
X261068Y-71761D1*
X261646Y-72745D1*
X263212Y-73730D1*
X265613Y-74714D1*
X268525Y-75698D1*
X266556Y-63887D2*
X267503Y-64871D1*
X268357Y-65856D1*
X269067Y-66840D1*
X269631Y-67824D1*
X270010Y-68808D1*
X270218Y-69793D1*
X269990Y-70777D1*
X269597Y-71761D1*
X269073Y-72745D1*
X267773Y-73730D1*
X265880Y-74714D1*
X263604Y-75698D1*
X179942Y-64871D2*
X178323Y-65856D1*
X177046Y-66840D1*
X176151Y-67824D1*
X175480Y-68808D1*
X175285Y-69793D1*
X175223Y-70777D1*
X175573Y-71761D1*
X176586Y-72745D1*
X178280Y-73730D1*
X180835Y-74714D1*
X183879Y-75698D1*
X182895Y-64871D2*
X183838Y-65856D1*
X184658Y-66840D1*
X185242Y-67824D1*
X185574Y-68808D1*
X185731Y-69793D1*
X185758Y-70777D1*
X185689Y-71761D1*
X185151Y-72745D1*
X183468Y-73730D1*
X180969Y-74714D1*
X177974Y-75698D1*
X298052Y-72745D2*
X294653Y-73730D1*
X290278Y-74714D1*
X285257Y-75698D1*
X299037Y-72745D2*
X299563Y-73730D1*
X300243Y-74714D1*
X301005Y-75698D1*
X298856Y-76682D1*
X296542Y-77667D1*
X294115Y-78651D1*
X379634Y-372807D2*
X380008Y-373791D1*
X380431Y-374776D1*
X380888Y-375760D1*
X381366Y-376744D1*
X381851Y-377728D1*
X382342Y-378713D1*
X382833Y-379697D1*
X383325Y-380681D1*
X383817Y-381665D1*
X384309Y-382650D1*
X384801Y-383634D1*
X385290Y-384618D1*
X385750Y-385602D1*
X386149Y-386587D1*
X386499Y-387571D1*
X386881Y-388555D1*
X387312Y-389539D1*
X387777Y-390524D1*
X388283Y-391508D1*
X388852Y-392492D1*
X389476Y-393476D1*
X381602Y-394461D1*
X383571Y-372807D2*
X383945Y-373791D1*
X384368Y-374776D1*
X384825Y-375760D1*
X385299Y-376744D1*
X385754Y-377728D1*
X386150Y-378713D1*
X386499Y-379697D1*
X386881Y-380681D1*
X387312Y-381665D1*
X387774Y-382650D1*
X388254Y-383634D1*
X388741Y-384618D1*
X389232Y-385602D1*
X389722Y-386587D1*
X390215Y-387571D1*
X390706Y-388555D1*
X391199Y-389539D1*
X391691Y-390524D1*
X392180Y-391508D1*
X392636Y-392492D1*
X393000Y-393476D1*
X393221Y-394461D1*
X393333Y-395445D1*
X393384Y-396429D1*
X393413Y-397413D1*
X406209Y-372807D2*
X404471Y-373791D1*
X403037Y-374776D1*
X401963Y-375760D1*
X401110Y-376744D1*
X400392Y-377728D1*
X399868Y-378713D1*
X399546Y-379697D1*
X399319Y-380681D1*
X412114Y-372807D2*
X414003Y-373791D1*
X415518Y-374776D1*
X416659Y-375760D1*
X417496Y-376744D1*
X418116Y-377728D1*
X418552Y-378713D1*
X418835Y-379697D1*
X419081Y-380681D1*
X419370Y-381665D1*
X419644Y-382650D1*
X419823Y-383634D1*
X419917Y-384618D1*
X419960Y-385602D1*
X419978Y-386587D1*
X419984Y-387571D1*
X419987Y-388555D1*
X419984Y-389539D1*
X419950Y-390524D1*
X419824Y-391508D1*
X419589Y-392492D1*
X419332Y-393476D1*
X419126Y-394461D1*
X418906Y-395445D1*
X418590Y-396429D1*
X418156Y-397413D1*
X417571Y-398398D1*
X416750Y-399382D1*
X415580Y-400366D1*
X413976Y-401350D1*
X412114Y-402335D1*
X409161Y-375760D2*
X407390Y-376744D1*
X405868Y-377728D1*
X404705Y-378713D1*
X403890Y-379697D1*
X403256Y-380681D1*
X409161Y-375760D2*
X410933Y-376744D1*
X412458Y-377728D1*
X413643Y-378713D1*
X414512Y-379697D1*
X415150Y-380681D1*
X415590Y-381665D1*
X415841Y-382650D1*
X415964Y-383634D1*
X416017Y-384618D1*
X416039Y-385602D1*
X416047Y-386587D1*
X416050Y-387571D1*
X416051Y-388555D1*
Y-389539D1*
X416047Y-390524D1*
X416013Y-391508D1*
X415883Y-392492D1*
X415609Y-393476D1*
X415189Y-394461D1*
X414568Y-395445D1*
X413745Y-396429D1*
X411880Y-397413D1*
X409274Y-398398D1*
X406209Y-399382D1*
X376681Y-384618D2*
Y-385602D1*
Y-386587D1*
Y-387571D1*
Y-388555D1*
Y-389539D1*
Y-390524D1*
Y-391508D1*
Y-392492D1*
Y-393476D1*
Y-394461D1*
X374713D1*
Y-395445D1*
Y-396429D1*
Y-397413D1*
Y-398398D1*
X376681D1*
Y-399382D1*
Y-400366D1*
Y-401350D1*
Y-402335D1*
X379634Y-384618D2*
Y-385602D1*
Y-386587D1*
Y-387571D1*
Y-388555D1*
Y-389539D1*
Y-390524D1*
Y-391508D1*
Y-392492D1*
Y-393476D1*
X388492Y-394461D1*
X399319D2*
X399508Y-395445D1*
X399883Y-396429D1*
X400416Y-397413D1*
X401043Y-398398D1*
X401869Y-399382D1*
X403049Y-400366D1*
X404556Y-401350D1*
X406209Y-402335D1*
X403256Y-394461D2*
X403839Y-395445D1*
X404614Y-396429D1*
X406460Y-397413D1*
X409055Y-398398D1*
X412114Y-399382D1*
X379634Y-397413D2*
Y-398398D1*
Y-399382D1*
Y-400366D1*
Y-401350D1*
Y-402335D1*
X336122Y-105146D2*
X334687Y-106130D1*
X333459Y-107114D1*
X332495Y-108098D1*
X331739Y-109083D1*
X331462Y-110067D1*
X331312Y-111051D1*
X331248Y-112035D1*
X331255Y-113020D1*
X331374Y-114004D1*
X331648Y-114988D1*
X332101Y-115972D1*
X332821Y-116957D1*
X333883Y-117941D1*
X335138Y-118925D1*
X333973Y-119909D1*
X332974Y-120894D1*
X332188Y-121878D1*
X331554Y-122862D1*
X331034Y-123846D1*
X330645Y-124831D1*
X330418Y-125815D1*
X330338Y-126799D1*
X330417Y-127783D1*
X330667Y-128768D1*
X331044Y-129752D1*
X331526Y-130736D1*
X332196Y-131720D1*
X333202Y-132705D1*
X334575Y-133689D1*
X336122Y-134673D1*
X342028Y-105146D2*
X343429Y-106130D1*
X344566Y-107114D1*
X345419Y-108098D1*
X346050Y-109083D1*
X346492Y-110067D1*
X346760Y-111051D1*
X346949Y-112035D1*
X359744Y-105146D2*
X358309Y-106130D1*
X357081Y-107114D1*
X356114Y-108098D1*
X355431Y-109083D1*
X354948Y-110067D1*
X354541Y-111051D1*
X354220Y-112035D1*
X354054Y-113020D1*
X354078Y-114004D1*
X354272Y-114988D1*
X354544Y-115972D1*
X354872Y-116957D1*
X355364Y-117941D1*
X356088Y-118925D1*
X357012Y-119909D1*
X357970Y-120894D1*
X358813Y-121878D1*
X359016Y-122862D1*
X358745Y-123846D1*
X358292Y-124831D1*
X357715Y-125815D1*
X357135Y-126799D1*
X356591Y-127783D1*
X356071Y-128768D1*
X355569Y-129752D1*
X355071Y-130736D1*
X354575Y-131720D1*
X354056Y-132705D1*
X353481Y-133689D1*
X352854Y-134673D1*
X374508Y-105146D2*
Y-106130D1*
Y-107114D1*
Y-108098D1*
Y-109083D1*
Y-110067D1*
Y-111051D1*
Y-112035D1*
Y-113020D1*
Y-114004D1*
Y-114988D1*
Y-115972D1*
Y-116957D1*
Y-117941D1*
Y-118925D1*
Y-119909D1*
Y-120894D1*
Y-121878D1*
Y-122862D1*
Y-123846D1*
Y-124831D1*
Y-125815D1*
Y-126799D1*
Y-127783D1*
Y-128768D1*
Y-129752D1*
Y-130736D1*
Y-131720D1*
Y-132705D1*
Y-133689D1*
Y-134673D1*
X339075Y-108098D2*
X337456Y-109083D1*
X336178Y-110067D1*
X335287Y-111051D1*
X334628Y-112035D1*
X334456Y-113020D1*
X334713Y-114004D1*
X335138Y-114988D1*
X336245Y-115972D1*
X337567Y-116957D1*
X338860Y-117941D1*
X339502Y-118925D1*
X339706Y-119909D1*
X338352Y-120894D1*
X336910Y-121878D1*
X335717Y-122862D1*
X334788Y-123846D1*
X334460Y-124831D1*
X334287Y-125815D1*
X334250Y-126799D1*
X334314Y-127783D1*
X334851Y-128768D1*
X336534Y-129752D1*
X339033Y-130736D1*
X342028Y-131720D1*
X340059Y-108098D2*
X341043Y-109083D1*
X342028Y-110067D1*
X343012Y-111051D1*
X343996Y-112035D1*
X362697Y-108098D2*
X361078Y-109083D1*
X359800Y-110067D1*
X358905Y-111051D1*
X358234Y-112035D1*
X358036Y-113020D1*
X357962Y-114004D1*
X358208Y-114988D1*
X358868Y-115972D1*
X361461Y-116957D1*
X365908Y-117941D1*
X371555Y-118925D1*
X370571Y-108098D2*
Y-109083D1*
Y-110067D1*
Y-111051D1*
Y-112035D1*
Y-113020D1*
Y-114004D1*
Y-114988D1*
Y-115972D1*
Y-116957D1*
Y-117941D1*
X361713Y-118925D1*
X364665Y-121878D2*
X363837Y-122862D1*
X363131Y-123846D1*
X362531Y-124831D1*
X361990Y-125815D1*
X361479Y-126799D1*
X360978Y-127783D1*
X360484Y-128768D1*
X359990Y-129752D1*
X359499Y-130736D1*
X359009Y-131720D1*
X358543Y-132705D1*
X358133Y-133689D1*
X357776Y-134673D1*
X370571Y-121878D2*
Y-122862D1*
Y-123846D1*
Y-124831D1*
Y-125815D1*
Y-126799D1*
Y-127783D1*
Y-128768D1*
Y-129752D1*
Y-130736D1*
Y-131720D1*
Y-132705D1*
Y-133689D1*
Y-134673D1*
X343996Y-127783D2*
X343348Y-128768D1*
X341637Y-129752D1*
X339124Y-130736D1*
X336122Y-131720D1*
X347933Y-127783D2*
X347555Y-128768D1*
X347098Y-129752D1*
X346508Y-130736D1*
X345722Y-131720D1*
X344703Y-132705D1*
X343435Y-133689D1*
X342028Y-134673D1*
X412488Y-102500D2*
X411206Y-103484D1*
X410217Y-104469D1*
X409474Y-105453D1*
X408873Y-106437D1*
X408375Y-107421D1*
X408028Y-108406D1*
X407838Y-109390D1*
X408030Y-110374D1*
X408284Y-111358D1*
X408569Y-112343D1*
X408928Y-113327D1*
X409379Y-114311D1*
X409932Y-115295D1*
X410556Y-116280D1*
X411188Y-117264D1*
X411865Y-118248D1*
X412622Y-119232D1*
X413382Y-120217D1*
X414086Y-121201D1*
X414796Y-122185D1*
X415567Y-123169D1*
X416332Y-124154D1*
X417038Y-125138D1*
X417752Y-126122D1*
X418557Y-127106D1*
X419443Y-128091D1*
X420362Y-129075D1*
X419378Y-102500D2*
X420779Y-103484D1*
X421916Y-104469D1*
X422769Y-105453D1*
X423401Y-106437D1*
X423842Y-107421D1*
X424110Y-108406D1*
X424299Y-109390D1*
X437094Y-102500D2*
X435357Y-103484D1*
X433923Y-104469D1*
X432849Y-105453D1*
X431996Y-106437D1*
X431278Y-107421D1*
X430754Y-108406D1*
X430432Y-109390D1*
X430205Y-110374D1*
X443000Y-102500D2*
X444889Y-103484D1*
X446404Y-104469D1*
X447545Y-105453D1*
X448382Y-106437D1*
X449002Y-107421D1*
X449438Y-108406D1*
X449720Y-109390D1*
X449967Y-110374D1*
X450256Y-111358D1*
X450529Y-112343D1*
X450709Y-113327D1*
X450803Y-114311D1*
X450846Y-115295D1*
X450864Y-116280D1*
X450870Y-117264D1*
X450873Y-118248D1*
X450870Y-119232D1*
X450835Y-120217D1*
X450710Y-121201D1*
X450474Y-122185D1*
X450218Y-123169D1*
X450012Y-124154D1*
X449791Y-125138D1*
X449475Y-126122D1*
X449042Y-127106D1*
X448456Y-128091D1*
X447636Y-129075D1*
X446466Y-130059D1*
X444862Y-131043D1*
X443000Y-132028D1*
X416425Y-105453D2*
X414691Y-106437D1*
X413296Y-107421D1*
X412223Y-108406D1*
X411801Y-109390D1*
X411796Y-110374D1*
X411993Y-111358D1*
X412343Y-112343D1*
X412776Y-113327D1*
X413279Y-114311D1*
X413887Y-115295D1*
X414612Y-116280D1*
X415359Y-117264D1*
X416058Y-118248D1*
X416769Y-119232D1*
X417570Y-120217D1*
X418426Y-121201D1*
X419242Y-122185D1*
X419973Y-123169D1*
X420694Y-124154D1*
X421470Y-125138D1*
X422233Y-126122D1*
X422901Y-127106D1*
X423451Y-128091D1*
X423858Y-129075D1*
X424097Y-130059D1*
X424221Y-131043D1*
X424299Y-132028D1*
X416425Y-105453D2*
X418048Y-106437D1*
X419359Y-107421D1*
X420400Y-108406D1*
X421346Y-109390D1*
X440047Y-105453D2*
X438276Y-106437D1*
X436754Y-107421D1*
X435591Y-108406D1*
X434776Y-109390D1*
X434142Y-110374D1*
X440047Y-105453D2*
X441818Y-106437D1*
X443344Y-107421D1*
X444528Y-108406D1*
X445398Y-109390D1*
X446035Y-110374D1*
X446476Y-111358D1*
X446727Y-112343D1*
X446850Y-113327D1*
X446903Y-114311D1*
X446925Y-115295D1*
X446933Y-116280D1*
X446936Y-117264D1*
X446937Y-118248D1*
Y-119232D1*
X446933Y-120217D1*
X446899Y-121201D1*
X446769Y-122185D1*
X446495Y-123169D1*
X446075Y-124154D1*
X445454Y-125138D1*
X444631Y-126122D1*
X442766Y-127106D1*
X440160Y-128091D1*
X437094Y-129075D1*
X430205Y-124154D2*
X430394Y-125138D1*
X430768Y-126122D1*
X431301Y-127106D1*
X431928Y-128091D1*
X432755Y-129075D1*
X433935Y-130059D1*
X435442Y-131043D1*
X437094Y-132028D1*
X434142Y-124154D2*
X434725Y-125138D1*
X435500Y-126122D1*
X437346Y-127106D1*
X439941Y-128091D1*
X443000Y-129075D1*
X407567D2*
Y-130059D1*
Y-131043D1*
Y-132028D1*
X81478Y-259627D2*
X80043Y-260612D1*
X78814Y-261596D1*
X77851Y-262580D1*
X77095Y-263564D1*
X76818Y-264549D1*
X76668Y-265533D1*
X76604Y-266517D1*
X76611Y-267501D1*
X76730Y-268486D1*
X77004Y-269470D1*
X77456Y-270454D1*
X78177Y-271438D1*
X79239Y-272423D1*
X80493Y-273407D1*
X79329Y-274391D1*
X78330Y-275375D1*
X77543Y-276360D1*
X76909Y-277344D1*
X76389Y-278328D1*
X76000Y-279312D1*
X75774Y-280297D1*
X75694Y-281281D1*
X75772Y-282265D1*
X76022Y-283249D1*
X76400Y-284234D1*
X76881Y-285218D1*
X77551Y-286202D1*
X78558Y-287186D1*
X79931Y-288171D1*
X81478Y-289155D1*
X87383Y-259627D2*
X88784Y-260612D1*
X89921Y-261596D1*
X90774Y-262580D1*
X91406Y-263564D1*
X91847Y-264549D1*
X92116Y-265533D1*
X92304Y-266517D1*
X105100Y-259627D2*
X103362Y-260612D1*
X101928Y-261596D1*
X100854Y-262580D1*
X100001Y-263564D1*
X99283Y-264549D1*
X98759Y-265533D1*
X98437Y-266517D1*
X98210Y-267501D1*
X111005Y-259627D2*
X112894Y-260612D1*
X114409Y-261596D1*
X115550Y-262580D1*
X116387Y-263564D1*
X117007Y-264549D1*
X117443Y-265533D1*
X117726Y-266517D1*
X117972Y-267501D1*
X118261Y-268486D1*
X118535Y-269470D1*
X118714Y-270454D1*
X118808Y-271438D1*
X118851Y-272423D1*
X118869Y-273407D1*
X118876Y-274391D1*
X118878Y-275375D1*
X118875Y-276360D1*
X118841Y-277344D1*
X118715Y-278328D1*
X118480Y-279312D1*
X118223Y-280297D1*
X118017Y-281281D1*
X117797Y-282265D1*
X117481Y-283249D1*
X117047Y-284234D1*
X116462Y-285218D1*
X115641Y-286202D1*
X114471Y-287186D1*
X112867Y-288171D1*
X111005Y-289155D1*
X84430Y-262580D2*
X82811Y-263564D1*
X81534Y-264549D1*
X80643Y-265533D1*
X79983Y-266517D1*
X79811Y-267501D1*
X80069Y-268486D1*
X80494Y-269470D1*
X81601Y-270454D1*
X82922Y-271438D1*
X84216Y-272423D1*
X84857Y-273407D1*
X85061Y-274391D1*
X83708Y-275375D1*
X82266Y-276360D1*
X81073Y-277344D1*
X80144Y-278328D1*
X79816Y-279312D1*
X79643Y-280297D1*
X79606Y-281281D1*
X79669Y-282265D1*
X80206Y-283249D1*
X81889Y-284234D1*
X84388Y-285218D1*
X87383Y-286202D1*
X85415Y-262580D2*
X86399Y-263564D1*
X87383Y-264549D1*
X88367Y-265533D1*
X89352Y-266517D1*
X108052Y-262580D2*
X106281Y-263564D1*
X104759Y-264549D1*
X103596Y-265533D1*
X102781Y-266517D1*
X102147Y-267501D1*
X108052Y-262580D2*
X109824Y-263564D1*
X111349Y-264549D1*
X112534Y-265533D1*
X113404Y-266517D1*
X114041Y-267501D1*
X114481Y-268486D1*
X114733Y-269470D1*
X114855Y-270454D1*
X114908Y-271438D1*
X114930Y-272423D1*
X114938Y-273407D1*
X114941Y-274391D1*
X114942Y-275375D1*
Y-276360D1*
X114938Y-277344D1*
X114904Y-278328D1*
X114775Y-279312D1*
X114500Y-280297D1*
X114080Y-281281D1*
X113459Y-282265D1*
X112636Y-283249D1*
X110771Y-284234D1*
X108165Y-285218D1*
X105100Y-286202D1*
X98210Y-281281D2*
X98400Y-282265D1*
X98774Y-283249D1*
X99307Y-284234D1*
X99934Y-285218D1*
X100760Y-286202D1*
X101941Y-287186D1*
X103447Y-288171D1*
X105100Y-289155D1*
X102147Y-281281D2*
X102730Y-282265D1*
X103505Y-283249D1*
X105351Y-284234D1*
X107946Y-285218D1*
X111005Y-286202D1*
X89352Y-282265D2*
X88704Y-283249D1*
X86992Y-284234D1*
X84480Y-285218D1*
X81478Y-286202D1*
X93289Y-282265D2*
X92911Y-283249D1*
X92453Y-284234D1*
X91863Y-285218D1*
X91077Y-286202D1*
X90058Y-287186D1*
X88791Y-288171D1*
X87383Y-289155D1*
X-71043Y-356296D2*
X-70669Y-357281D1*
X-70246Y-358265D1*
X-69789Y-359249D1*
X-69311Y-360233D1*
X-68826Y-361218D1*
X-68335Y-362202D1*
X-67844Y-363186D1*
X-67352Y-364170D1*
X-66861Y-365155D1*
X-66368Y-366139D1*
X-65876Y-367123D1*
X-65387Y-368107D1*
X-64927Y-369092D1*
X-64528Y-370076D1*
X-64178Y-371060D1*
X-63797Y-372044D1*
X-63366Y-373029D1*
X-62900Y-374013D1*
X-62394Y-374997D1*
X-61825Y-375981D1*
X-61201Y-376966D1*
X-69075Y-377950D1*
X-67106Y-356296D2*
X-66732Y-357281D1*
X-66309Y-358265D1*
X-65852Y-359249D1*
X-65378Y-360233D1*
X-64923Y-361218D1*
X-64527Y-362202D1*
X-64178Y-363186D1*
X-63796Y-364170D1*
X-63366Y-365155D1*
X-62904Y-366139D1*
X-62423Y-367123D1*
X-61937Y-368107D1*
X-61445Y-369092D1*
X-60955Y-370076D1*
X-60462Y-371060D1*
X-59971Y-372044D1*
X-59478Y-373029D1*
X-58987Y-374013D1*
X-58497Y-374997D1*
X-58041Y-375981D1*
X-57677Y-376966D1*
X-57456Y-377950D1*
X-57345Y-378934D1*
X-57293Y-379918D1*
X-57264Y-380903D1*
X-44468Y-356296D2*
X-45903Y-357281D1*
X-47132Y-358265D1*
X-48099Y-359249D1*
X-48782Y-360233D1*
X-49265Y-361218D1*
X-49671Y-362202D1*
X-49992Y-363186D1*
X-50158Y-364170D1*
X-50135Y-365155D1*
X-49941Y-366139D1*
X-49669Y-367123D1*
X-49340Y-368107D1*
X-48848Y-369092D1*
X-48124Y-370076D1*
X-47201Y-371060D1*
X-46242Y-372044D1*
X-45400Y-373029D1*
X-45196Y-374013D1*
X-45467Y-374997D1*
X-45921Y-375981D1*
X-46497Y-376966D1*
X-47077Y-377950D1*
X-47622Y-378934D1*
X-48141Y-379918D1*
X-48644Y-380903D1*
X-49141Y-381887D1*
X-49638Y-382871D1*
X-50157Y-383855D1*
X-50731Y-384840D1*
X-51358Y-385824D1*
X-29705Y-356296D2*
Y-357281D1*
Y-358265D1*
Y-359249D1*
Y-360233D1*
Y-361218D1*
Y-362202D1*
Y-363186D1*
Y-364170D1*
Y-365155D1*
Y-366139D1*
Y-367123D1*
Y-368107D1*
Y-369092D1*
Y-370076D1*
Y-371060D1*
Y-372044D1*
Y-373029D1*
Y-374013D1*
Y-374997D1*
Y-375981D1*
Y-376966D1*
Y-377950D1*
Y-378934D1*
Y-379918D1*
Y-380903D1*
Y-381887D1*
Y-382871D1*
Y-383855D1*
Y-384840D1*
Y-385824D1*
X-41516Y-359249D2*
X-43135Y-360233D1*
X-44412Y-361218D1*
X-45307Y-362202D1*
X-45978Y-363186D1*
X-46177Y-364170D1*
X-46251Y-365155D1*
X-46004Y-366139D1*
X-45345Y-367123D1*
X-42752Y-368107D1*
X-38305Y-369092D1*
X-32657Y-370076D1*
X-33642Y-359249D2*
Y-360233D1*
Y-361218D1*
Y-362202D1*
Y-363186D1*
Y-364170D1*
Y-365155D1*
Y-366139D1*
Y-367123D1*
Y-368107D1*
Y-369092D1*
X-42500Y-370076D1*
X-73996Y-368107D2*
Y-369092D1*
Y-370076D1*
Y-371060D1*
Y-372044D1*
Y-373029D1*
Y-374013D1*
Y-374997D1*
Y-375981D1*
Y-376966D1*
Y-377950D1*
X-75964D1*
Y-378934D1*
Y-379918D1*
Y-380903D1*
Y-381887D1*
X-73996D1*
Y-382871D1*
Y-383855D1*
Y-384840D1*
Y-385824D1*
X-71043Y-368107D2*
Y-369092D1*
Y-370076D1*
Y-371060D1*
Y-372044D1*
Y-373029D1*
Y-374013D1*
Y-374997D1*
Y-375981D1*
Y-376966D1*
X-62185Y-377950D1*
X-39547Y-373029D2*
X-40375Y-374013D1*
X-41081Y-374997D1*
X-41681Y-375981D1*
X-42223Y-376966D1*
X-42734Y-377950D1*
X-43234Y-378934D1*
X-43728Y-379918D1*
X-44222Y-380903D1*
X-44714Y-381887D1*
X-45204Y-382871D1*
X-45670Y-383855D1*
X-46080Y-384840D1*
X-46437Y-385824D1*
X-33642Y-373029D2*
Y-374013D1*
Y-374997D1*
Y-375981D1*
Y-376966D1*
Y-377950D1*
Y-378934D1*
Y-379918D1*
Y-380903D1*
Y-381887D1*
Y-382871D1*
Y-383855D1*
Y-384840D1*
Y-385824D1*
X-71043Y-380903D2*
Y-381887D1*
Y-382871D1*
Y-383855D1*
Y-384840D1*
Y-385824D1*
X-139864Y-209231D2*
X-141299Y-210215D1*
X-142527Y-211199D1*
X-143491Y-212184D1*
X-144247Y-213168D1*
X-144524Y-214152D1*
X-144674Y-215136D1*
X-144738Y-216121D1*
X-144731Y-217105D1*
X-144612Y-218089D1*
X-144338Y-219073D1*
X-143885Y-220058D1*
X-143165Y-221042D1*
X-142103Y-222026D1*
X-140848Y-223011D1*
X-142013Y-223995D1*
X-143012Y-224979D1*
X-143798Y-225963D1*
X-144432Y-226948D1*
X-144952Y-227932D1*
X-145341Y-228916D1*
X-145568Y-229900D1*
X-145648Y-230885D1*
X-145569Y-231869D1*
X-145320Y-232853D1*
X-144942Y-233837D1*
X-144460Y-234822D1*
X-143790Y-235806D1*
X-142784Y-236790D1*
X-141411Y-237774D1*
X-139864Y-238759D1*
X-133959Y-209231D2*
X-132557Y-210215D1*
X-131420Y-211199D1*
X-130568Y-212184D1*
X-129936Y-213168D1*
X-129494Y-214152D1*
X-129226Y-215136D1*
X-129037Y-216121D1*
X-122147Y-209231D2*
Y-210215D1*
Y-211199D1*
Y-212184D1*
Y-213168D1*
Y-214152D1*
Y-215136D1*
Y-216121D1*
Y-217105D1*
Y-218089D1*
Y-219073D1*
Y-220058D1*
Y-221042D1*
Y-222026D1*
Y-223011D1*
Y-223995D1*
Y-224979D1*
Y-225963D1*
Y-226948D1*
X-122144Y-227932D1*
X-122109Y-228916D1*
X-121984Y-229900D1*
X-121744Y-230885D1*
X-121453Y-231869D1*
X-121118Y-232853D1*
X-120627Y-233837D1*
X-119929Y-234822D1*
X-119051Y-235806D1*
X-117977Y-236790D1*
X-116682Y-237774D1*
X-115258Y-238759D1*
X-118210Y-209231D2*
Y-210215D1*
Y-211199D1*
Y-212184D1*
Y-213168D1*
Y-214152D1*
Y-215136D1*
Y-216121D1*
Y-217105D1*
Y-218089D1*
Y-219073D1*
Y-220058D1*
Y-221042D1*
Y-222026D1*
Y-223011D1*
Y-223995D1*
Y-224979D1*
Y-225963D1*
Y-226948D1*
X-118207Y-227932D1*
X-118172Y-228916D1*
X-118043Y-229900D1*
X-117761Y-230885D1*
X-117368Y-231869D1*
X-116543Y-232853D1*
X-114512Y-233837D1*
X-111672Y-234822D1*
X-108368Y-235806D1*
X-104431Y-209231D2*
Y-210215D1*
Y-211199D1*
Y-212184D1*
Y-213168D1*
Y-214152D1*
Y-215136D1*
Y-216121D1*
Y-217105D1*
Y-218089D1*
Y-219073D1*
Y-220058D1*
Y-221042D1*
Y-222026D1*
Y-223011D1*
Y-223995D1*
Y-224979D1*
Y-225963D1*
X-104435Y-226948D1*
X-104469Y-227932D1*
X-104599Y-228916D1*
X-104873Y-229900D1*
X-105297Y-230885D1*
X-105953Y-231869D1*
X-106856Y-232853D1*
X-108999Y-233837D1*
X-111907Y-234822D1*
X-115258Y-235806D1*
X-101478Y-209231D2*
Y-210215D1*
Y-211199D1*
Y-212184D1*
Y-213168D1*
Y-214152D1*
Y-215136D1*
Y-216121D1*
Y-217105D1*
Y-218089D1*
Y-219073D1*
Y-220058D1*
Y-221042D1*
Y-222026D1*
Y-223011D1*
Y-223995D1*
Y-224979D1*
Y-225963D1*
Y-226948D1*
Y-227932D1*
Y-228916D1*
X-101482Y-229900D1*
X-101517Y-230885D1*
X-101646Y-231869D1*
X-101920Y-232853D1*
X-102336Y-233837D1*
X-102915Y-234822D1*
X-103734Y-235806D1*
X-104903Y-236790D1*
X-106506Y-237774D1*
X-108368Y-238759D1*
X-136911Y-212184D2*
X-138530Y-213168D1*
X-139808Y-214152D1*
X-140699Y-215136D1*
X-141358Y-216121D1*
X-141531Y-217105D1*
X-141273Y-218089D1*
X-140848Y-219073D1*
X-139741Y-220058D1*
X-138419Y-221042D1*
X-137126Y-222026D1*
X-136484Y-223011D1*
X-136281Y-223995D1*
X-137634Y-224979D1*
X-139076Y-225963D1*
X-140269Y-226948D1*
X-141198Y-227932D1*
X-141526Y-228916D1*
X-141699Y-229900D1*
X-141736Y-230885D1*
X-141672Y-231869D1*
X-141135Y-232853D1*
X-139452Y-233837D1*
X-136953Y-234822D1*
X-133959Y-235806D1*
X-135927Y-212184D2*
X-134943Y-213168D1*
X-133959Y-214152D1*
X-132974Y-215136D1*
X-131990Y-216121D1*
Y-231869D2*
X-132638Y-232853D1*
X-134349Y-233837D1*
X-136862Y-234822D1*
X-139864Y-235806D1*
X-128053Y-231869D2*
X-128431Y-232853D1*
X-128888Y-233837D1*
X-129479Y-234822D1*
X-130264Y-235806D1*
X-131283Y-236790D1*
X-132551Y-237774D1*
X-133959Y-238759D1*
M02*
