M48
METRIC,0000.00
T01C0.3
T02C0.6
T03C0.9
T04C1.4
%
T01
X-000415Y+000831
X-000596Y+000447
X-000803Y+000547
X-001401Y+000858
X-001479Y+000858
X-001480Y+000779
X-001470Y-001009
X-001431Y-001084
X-001357Y-001125
X+000609Y+000566
X+001407Y+000864
X+001486Y+000865
X+001490Y+000791
X+001480Y-000998
X+001437Y-001082
X+001353Y-001120
T02
X+000182Y+000177
X-000177Y+000182
X-000182Y-000177
T03
X-001431Y+000285
X-001435Y+000539
X-001435Y-000279
X-001431Y-000533
X+001439Y-000533
X+001435Y-000279
T04
X+001092Y+000875
X+001092Y-000875
X-001092Y-000875
X-001092Y+000875
T00
M30
