M48
INCH
T01C0.0118
T02C0.0236
T03C0.0354
T04C0.0551
%
T03
X-005634Y+001122
X-005650Y+002122
X-005634Y-002098
X-005650Y-001098
X+005665Y-002098
X+005650Y-001098
T01
X-001633Y+003271
X+002399Y+002228
X-003160Y+002154
X-002346Y+001759
X-005823Y+003378
X-005516Y+003379
X-005827Y+003065
X+005849Y+003405
X+005865Y+003116
X+005538Y+003402
X+005658Y-004260
X+005826Y-003927
X+005326Y-004410
X-005635Y-004268
X-005786Y-003971
X-005341Y-004428
T04
X+004301Y+003445
X+004301Y-003445
X-004301Y-003445
X-004301Y+003445
T02
X+000718Y+000696
X-000718Y-000696
X-000696Y+000718
T00
M30
