M48
INCH
T01C0.0118
T02C0.0157
T03C0.0354
T04C0.0551
%
T02
X+003922Y-003055
T03
X-005634Y+001122
X-005650Y+002122
X-005634Y-002098
X-005650Y-001098
X+005665Y-002098
X+005650Y-001098
T01
X-001108Y+002624
X+003376Y+002252
X-002346Y+001759
X-005823Y+003378
X-005516Y+003379
X-005827Y+003065
X+005849Y+003405
X+005865Y+003116
X+005538Y+003402
X+005658Y-004260
X+005826Y-003927
X+005326Y-004410
T04
X+004301Y+003445
X+004301Y-003445
X-004301Y-003445
X-004301Y+003445
T02
X+002709Y-001100
T03
X+005650Y+001122
T01
X+000843Y-001752
X-000821Y-001759
X+004280Y+000175
X+000829Y-003349
T00
M30
