%TF.GenerationSoftware,Novarm,DipTrace,3.2.0.1*%
%TF.CreationDate,2019-10-13T00:01:59+02:00*%
%FSLAX35Y35*%
%MOMM*%
%TF.FileFunction,Legend,Top*%
%TF.Part,Single*%
%ADD10C,0.25*%
%ADD12C,0.0762*%
%ADD13C,0.06667*%
%ADD14C,0.05*%
%ADD18C,0.2*%
%ADD25O,0.70039X0.70015*%
G75*
G01*
%LPD*%
X-189947Y-814950D2*
D10*
Y-685050D1*
X-1165000Y1165000D2*
X1165000D1*
Y-1165000D1*
X-1165000D1*
Y1165000D1*
X-475000Y0D2*
X-473843Y33134D1*
X-470378Y66107D1*
X-464621Y98758D1*
X-456600Y130928D1*
X-446355Y162460D1*
X-433936Y193200D1*
X-419403Y222999D1*
X-402826Y251712D1*
X-384288Y279198D1*
X-363877Y305324D1*
X-341693Y329963D1*
X-317845Y352994D1*
X-292448Y374305D1*
X-265627Y393793D1*
X-237512Y411362D1*
X-208240Y426927D1*
X-177953Y440412D1*
X-146799Y451752D1*
X-114931Y460890D1*
X-82502Y467784D1*
X-49672Y472398D1*
X-16600Y474711D1*
X16553D1*
X49625Y472398D1*
X82455Y467784D1*
X114883Y460890D1*
X146752Y451752D1*
X177906Y440412D1*
X208192Y426927D1*
X237464Y411362D1*
X265580Y393793D1*
X292401Y374305D1*
X317798Y352994D1*
X341646Y329963D1*
X363829Y305324D1*
X384240Y279198D1*
X402779Y251712D1*
X419356Y222999D1*
X433889Y193200D1*
X446308Y162460D1*
X456553Y130928D1*
X464573Y98758D1*
X470330Y66107D1*
X473796Y33134D1*
X474953Y0D1*
X473796Y-33134D1*
X470330Y-66107D1*
X464573Y-98758D1*
X456553Y-130928D1*
X446308Y-162460D1*
X433889Y-193200D1*
X419356Y-222999D1*
X402779Y-251712D1*
X384240Y-279198D1*
X363829Y-305324D1*
X341646Y-329963D1*
X317798Y-352994D1*
X292401Y-374305D1*
X265580Y-393793D1*
X237464Y-411362D1*
X208192Y-426927D1*
X177906Y-440412D1*
X146752Y-451752D1*
X114883Y-460890D1*
X82455Y-467784D1*
X49625Y-472398D1*
X16553Y-474711D1*
X-16600D1*
X-49672Y-472398D1*
X-82502Y-467784D1*
X-114931Y-460890D1*
X-146799Y-451752D1*
X-177953Y-440412D1*
X-208240Y-426927D1*
X-237512Y-411362D1*
X-265627Y-393793D1*
X-292448Y-374305D1*
X-317845Y-352994D1*
X-341693Y-329963D1*
X-363877Y-305324D1*
X-384288Y-279198D1*
X-402826Y-251712D1*
X-419403Y-222999D1*
X-433936Y-193200D1*
X-446355Y-162460D1*
X-456600Y-130928D1*
X-464621Y-98758D1*
X-470378Y-66107D1*
X-473843Y-33134D1*
X-475000Y0D1*
D25*
X473674Y-10118D3*
X233950Y638427D2*
D18*
X574567D1*
Y485800D1*
X233950D1*
Y638427D1*
X-803893Y165130D2*
X-651267D1*
Y-175487D1*
X-803893D1*
Y165130D1*
X-886563Y990090D2*
X-545947D1*
Y837463D1*
X-886563D1*
Y990090D1*
X-883900Y814737D2*
X-543283D1*
Y662110D1*
X-883900D1*
Y814737D1*
X-170667Y847230D2*
X169950D1*
Y653973D1*
X-170667D1*
Y847230D1*
X-839900Y-699907D2*
X-499283D1*
Y-852533D1*
X-839900D1*
Y-699907D1*
X-726860Y617660D2*
D14*
X-711860D1*
X-671860D2*
X-661860D1*
X-731658Y615160D2*
X-707447D1*
X-675409D2*
X-661860D1*
X-735506Y612660D2*
X-703805D1*
X-678209D2*
X-661860D1*
X-738405Y610160D2*
X-701077D1*
X-680373D2*
X-661860D1*
X-740531Y607660D2*
X-723859D1*
X-714861D2*
X-698909D1*
X-681144D2*
X-661860D1*
X-742104Y605160D2*
X-727733D1*
X-710994D2*
X-697085D1*
X-681579D2*
X-674360D1*
X-669360D2*
X-661860D1*
X-743212Y602660D2*
X-730742D1*
X-708041D2*
X-695754D1*
X-681860D2*
X-679360D1*
X-669360D2*
X-661860D1*
X-743930Y600160D2*
X-732952D1*
X-705970D2*
X-694936D1*
X-669360D2*
X-661860D1*
X-744557Y597660D2*
X-734570D1*
X-704360D2*
X-694360D1*
X-669360D2*
X-661860D1*
X-745290Y595160D2*
X-735689D1*
X-669360D2*
X-661860D1*
X-745985Y592660D2*
X-736327D1*
X-669360D2*
X-661860D1*
X-746441Y590160D2*
X-736639D1*
X-669360D2*
X-661860D1*
X-746680Y587660D2*
X-736774D1*
X-669360D2*
X-661860D1*
X-746789Y585160D2*
X-736828D1*
X-669360D2*
X-661860D1*
X-746833Y582660D2*
X-736849D1*
X-669360D2*
X-661860D1*
X-746850Y580160D2*
X-736856D1*
X-669360D2*
X-661860D1*
X-746857Y577660D2*
X-736859D1*
X-669360D2*
X-661860D1*
X-746849Y575160D2*
X-736860D1*
X-669360D2*
X-661860D1*
X-746762Y572660D2*
X-736850D1*
X-669360D2*
X-661860D1*
X-746444Y570160D2*
X-736762D1*
X-669360D2*
X-661860D1*
X-745845Y567660D2*
X-736434D1*
X-669360D2*
X-661860D1*
X-745194Y565160D2*
X-735738D1*
X-669360D2*
X-661860D1*
X-744670Y562660D2*
X-734671D1*
X-704360D2*
X-694360D1*
X-669360D2*
X-661860D1*
X-744110Y560160D2*
X-733093D1*
X-705840D2*
X-694842D1*
X-669360D2*
X-661860D1*
X-743308Y557660D2*
X-731003D1*
X-707810D2*
X-695792D1*
X-669360D2*
X-661860D1*
X-742207Y555160D2*
X-726266D1*
X-712498D2*
X-697145D1*
X-669360D2*
X-661860D1*
X-740719Y552660D2*
X-719647D1*
X-719090D2*
X-698738D1*
X-669360D2*
X-661860D1*
X-738635Y550160D2*
X-700837D1*
X-669360D2*
X-661860D1*
X-735662Y547660D2*
X-703836D1*
X-669360D2*
X-661860D1*
X-731590Y545160D2*
X-707663D1*
X-669360D2*
X-661860D1*
X-726860Y542660D2*
X-711860D1*
X-669360D2*
X-661860D1*
X677933Y602177D2*
X692933D1*
X737933D2*
X755433D1*
X673135Y599677D2*
X697347D1*
X734375D2*
X758691D1*
X669287Y597177D2*
X700988D1*
X731487D2*
X761202D1*
X666389Y594677D2*
X703717D1*
X729320D2*
X763089D1*
X664263Y592177D2*
X680934D1*
X689932D2*
X705884D1*
X727716D2*
X741312D1*
X749837D2*
X764616D1*
X662690Y589677D2*
X677060D1*
X693799D2*
X707708D1*
X726595D2*
X737982D1*
X753381D2*
X765882D1*
X661581Y587177D2*
X674051D1*
X696753D2*
X709039D1*
X725913D2*
X735338D1*
X756107D2*
X766762D1*
X660863Y584677D2*
X671842D1*
X698823D2*
X709857D1*
X725433D2*
X732933D1*
X757178D2*
X767246D1*
X660237Y582177D2*
X670223D1*
X700433D2*
X710433D1*
X757191D2*
X766756D1*
X659504Y579677D2*
X669104D1*
X756690D2*
X766112D1*
X658809Y577177D2*
X668466D1*
X755802D2*
X765389D1*
X658352Y574677D2*
X668155D1*
X754701D2*
X764477D1*
X658113Y572177D2*
X668019D1*
X753424D2*
X763330D1*
X658005Y569677D2*
X667965D1*
X751880D2*
X761925D1*
X657960Y567177D2*
X667944D1*
X750038D2*
X760340D1*
X657943Y564677D2*
X667937D1*
X748142D2*
X758735D1*
X657937Y562177D2*
X667935D1*
X746367D2*
X757016D1*
X657944Y559677D2*
X667934D1*
X744559D2*
X755092D1*
X658031Y557177D2*
X667943D1*
X742524D2*
X753163D1*
X658350Y554677D2*
X668031D1*
X740351D2*
X751375D1*
X658948Y552177D2*
X668359D1*
X738278D2*
X749572D1*
X659599Y549677D2*
X669056D1*
X736422D2*
X747613D1*
X660123Y547177D2*
X670123D1*
X700433D2*
X710433D1*
X734590D2*
X745670D1*
X660683Y544677D2*
X671701D1*
X698953D2*
X709952D1*
X732620D2*
X743877D1*
X661486Y542177D2*
X673790D1*
X696983D2*
X709002D1*
X730682D2*
X742063D1*
X662587Y539677D2*
X678528D1*
X692295D2*
X707648D1*
X728985D2*
X740018D1*
X664074Y537177D2*
X685147D1*
X685703D2*
X706055D1*
X727587D2*
X737769D1*
X666159Y534677D2*
X703956D1*
X726555D2*
X767933D1*
X669131Y532177D2*
X700958D1*
X725946D2*
X767933D1*
X673204Y529677D2*
X697131D1*
X725632D2*
X767933D1*
X677933Y527177D2*
X692933D1*
X725433D2*
X767933D1*
X-757523Y285500D2*
X-742523D1*
X-697523D2*
X-682523D1*
X-762322Y283000D2*
X-738110D1*
X-701082D2*
X-678879D1*
X-766170Y280500D2*
X-734468D1*
X-703970D2*
X-675759D1*
X-769068Y278000D2*
X-731740D1*
X-706136D2*
X-673312D1*
X-771194Y275500D2*
X-754522D1*
X-745524D2*
X-729573D1*
X-707741D2*
X-695023D1*
X-685911D2*
X-671391D1*
X-772767Y273000D2*
X-758396D1*
X-741657D2*
X-727749D1*
X-708862D2*
X-697523D1*
X-682666D2*
X-670688D1*
X-773875Y270500D2*
X-761405D1*
X-738704D2*
X-726417D1*
X-709544D2*
X-700023D1*
X-680402D2*
X-670306D1*
X-774593Y268000D2*
X-763615D1*
X-736633D2*
X-725600D1*
X-710023D2*
X-702523D1*
X-678728D2*
X-670144D1*
X-775220Y265500D2*
X-765233D1*
X-735023D2*
X-725023D1*
X-678290D2*
X-670162D1*
X-775953Y263000D2*
X-766352D1*
X-678946D2*
X-670464D1*
X-776648Y260500D2*
X-766991D1*
X-680025D2*
X-671160D1*
X-777104Y258000D2*
X-767302D1*
X-682835D2*
X-672309D1*
X-777343Y255500D2*
X-767437D1*
X-686193D2*
X-674138D1*
X-777452Y253000D2*
X-767492D1*
X-689479D2*
X-676836D1*
X-777497Y250500D2*
X-767512D1*
X-691108D2*
X-680023D1*
X-777514Y248000D2*
X-767520D1*
X-691625D2*
X-677065D1*
X-777520Y245500D2*
X-767522D1*
X-688187D2*
X-674528D1*
X-777512Y243000D2*
X-767523D1*
X-684524D2*
X-672530D1*
X-777425Y240500D2*
X-767513D1*
X-681495D2*
X-670920D1*
X-777107Y238000D2*
X-767426D1*
X-679136D2*
X-669599D1*
X-776508Y235500D2*
X-767097D1*
X-678301D2*
X-668611D1*
X-775858Y233000D2*
X-766401D1*
X-677863D2*
X-668035D1*
X-775334Y230500D2*
X-765334D1*
X-735023D2*
X-725023D1*
X-677769D2*
X-667831D1*
X-774773Y228000D2*
X-763756D1*
X-736504D2*
X-725505D1*
X-712523D2*
X-702523D1*
X-677930D2*
X-668032D1*
X-773971Y225500D2*
X-761667D1*
X-738474D2*
X-726455D1*
X-711564D2*
X-700878D1*
X-679294D2*
X-668666D1*
X-772870Y223000D2*
X-756929D1*
X-743162D2*
X-727809D1*
X-710402D2*
X-696531D1*
X-683569D2*
X-669626D1*
X-771382Y220500D2*
X-750310D1*
X-749754D2*
X-729402D1*
X-708902D2*
X-690148D1*
X-689917D2*
X-670849D1*
X-769298Y218000D2*
X-731501D1*
X-706906D2*
X-672551D1*
X-766326Y215500D2*
X-734499D1*
X-704318D2*
X-675106D1*
X-762253Y213000D2*
X-738326D1*
X-701099D2*
X-678594D1*
X-757523Y210500D2*
X-742523D1*
X-697523D2*
X-682523D1*
X-82440Y-907047D2*
X-72440D1*
X-19940D2*
X27560D1*
X45060D2*
X80060D1*
X-82440Y-909547D2*
X-72440D1*
X-19940D2*
X27560D1*
X45060D2*
X84473D1*
X-82440Y-912047D2*
X-72440D1*
X-19940D2*
X27560D1*
X45060D2*
X88105D1*
X-82440Y-914547D2*
X-72440D1*
X-19940D2*
X27560D1*
X45060D2*
X90755D1*
X-82440Y-917047D2*
X-72440D1*
X-19940D2*
X-9940D1*
X45060D2*
X55060D1*
X77059D2*
X92692D1*
X-82440Y-919547D2*
X-72440D1*
X-19940D2*
X-9940D1*
X45060D2*
X55060D1*
X80923D2*
X94235D1*
X-82440Y-922047D2*
X-72440D1*
X-19940D2*
X-9940D1*
X45060D2*
X55060D1*
X83844D2*
X95516D1*
X-82440Y-924547D2*
X-72440D1*
X-19940D2*
X-9940D1*
X45060D2*
X55060D1*
X86064D2*
X96485D1*
X-82440Y-927047D2*
X-72440D1*
X-19940D2*
X-9940D1*
X45060D2*
X55060D1*
X86837D2*
X97063D1*
X-82440Y-929547D2*
X-72440D1*
X-19940D2*
X-9940D1*
X45060D2*
X55060D1*
X87253D2*
X97351D1*
X-82440Y-932047D2*
X-72440D1*
X-19940D2*
X-9940D1*
X45060D2*
X55060D1*
X87440D2*
X97478D1*
X-82440Y-934547D2*
X-72440D1*
X-19940D2*
X-9940D1*
X45060D2*
X55060D1*
X87516D2*
X97530D1*
X-82440Y-937047D2*
X-72440D1*
X-19940D2*
X-9940D1*
X45060D2*
X55060D1*
X87545D2*
X97549D1*
X-82440Y-939547D2*
X-72440D1*
X-19940D2*
X-9940D1*
X45060D2*
X55060D1*
X87555D2*
X97556D1*
X-82440Y-942047D2*
X-72440D1*
X-19940D2*
X22560D1*
X45060D2*
X55060D1*
X87558D2*
X97559D1*
X-82440Y-944547D2*
X-72440D1*
X-19940D2*
X22560D1*
X45060D2*
X55060D1*
X87559D2*
X97560D1*
X-82440Y-947047D2*
X-72440D1*
X-19940D2*
X22560D1*
X45060D2*
X55060D1*
X87560D2*
X97560D1*
X-82440Y-949547D2*
X-72440D1*
X-19940D2*
X22560D1*
X45060D2*
X55060D1*
X87560D2*
X97560D1*
X-82440Y-952047D2*
X-72440D1*
X-19940D2*
X-9940D1*
X45060D2*
X55060D1*
X87560D2*
X97560D1*
X-82440Y-954547D2*
X-72440D1*
X-19940D2*
X-9940D1*
X45060D2*
X55060D1*
X87560D2*
X97560D1*
X-82440Y-957047D2*
X-72440D1*
X-19940D2*
X-9940D1*
X45060D2*
X55060D1*
X87550D2*
X97550D1*
X-82440Y-959547D2*
X-72440D1*
X-19940D2*
X-9940D1*
X45060D2*
X55060D1*
X87453D2*
X97462D1*
X-82440Y-962047D2*
X-72440D1*
X-19940D2*
X-9940D1*
X45060D2*
X55060D1*
X87027D2*
X97134D1*
X-82440Y-964547D2*
X-72440D1*
X-19940D2*
X-9940D1*
X45060D2*
X55060D1*
X86217D2*
X96447D1*
X-82440Y-967047D2*
X-72440D1*
X-19940D2*
X-9940D1*
X45060D2*
X55060D1*
X83882D2*
X95478D1*
X-82440Y-969547D2*
X-72440D1*
X-19940D2*
X-9940D1*
X45060D2*
X55060D1*
X77034D2*
X94336D1*
X-82440Y-972047D2*
X-72440D1*
X-19940D2*
X-9940D1*
X45060D2*
X55060D1*
X66116D2*
X92949D1*
X-82440Y-974547D2*
X-34940D1*
X-19940D2*
X27560D1*
X45060D2*
X90976D1*
X-82440Y-977047D2*
X-34940D1*
X-19940D2*
X27560D1*
X45060D2*
X88041D1*
X-82440Y-979547D2*
X-34940D1*
X-19940D2*
X27560D1*
X45060D2*
X84242D1*
X-82440Y-982047D2*
X-34940D1*
X-19940D2*
X27560D1*
X45060D2*
X80060D1*
X-1466403Y767350D2*
X-1456403D1*
X-1431403D2*
X-1421403D1*
X-1466403Y764850D2*
X-1456403D1*
X-1434952D2*
X-1421403D1*
X-1466403Y762350D2*
X-1456403D1*
X-1437752D2*
X-1421403D1*
X-1466403Y759850D2*
X-1456403D1*
X-1439916D2*
X-1421403D1*
X-1466403Y757350D2*
X-1456403D1*
X-1440687D2*
X-1421403D1*
X-1466403Y754850D2*
X-1456403D1*
X-1441122D2*
X-1433903D1*
X-1428903D2*
X-1421403D1*
X-1466403Y752350D2*
X-1456403D1*
X-1441403D2*
X-1438903D1*
X-1428903D2*
X-1421403D1*
X-1466403Y749850D2*
X-1456403D1*
X-1428903D2*
X-1421403D1*
X-1466403Y747350D2*
X-1456403D1*
X-1428903D2*
X-1421403D1*
X-1466403Y744850D2*
X-1456403D1*
X-1428903D2*
X-1421403D1*
X-1466403Y742350D2*
X-1456403D1*
X-1428903D2*
X-1421403D1*
X-1466403Y739850D2*
X-1456403D1*
X-1428903D2*
X-1421403D1*
X-1466403Y737350D2*
X-1456403D1*
X-1428903D2*
X-1421403D1*
X-1466403Y734850D2*
X-1456403D1*
X-1428903D2*
X-1421403D1*
X-1466403Y732350D2*
X-1456403D1*
X-1428903D2*
X-1421403D1*
X-1466403Y729850D2*
X-1456403D1*
X-1428903D2*
X-1421403D1*
X-1466403Y727350D2*
X-1456403D1*
X-1428903D2*
X-1421403D1*
X-1466403Y724850D2*
X-1456403D1*
X-1428903D2*
X-1421403D1*
X-1466403Y722350D2*
X-1456403D1*
X-1428903D2*
X-1421403D1*
X-1466403Y719850D2*
X-1456403D1*
X-1428903D2*
X-1421403D1*
X-1466413Y717350D2*
X-1456413D1*
X-1428903D2*
X-1421403D1*
X-1466501Y714850D2*
X-1456501D1*
X-1428903D2*
X-1421403D1*
X-1466839Y712350D2*
X-1456820D1*
X-1428903D2*
X-1421403D1*
X-1467672Y709850D2*
X-1457428D1*
X-1428903D2*
X-1421403D1*
X-1468963Y707350D2*
X-1458167D1*
X-1428903D2*
X-1421403D1*
X-1493903Y704850D2*
X-1491403D1*
X-1473381D2*
X-1459019D1*
X-1428903D2*
X-1421403D1*
X-1496403Y702350D2*
X-1481716D1*
X-1480347D2*
X-1460276D1*
X-1428903D2*
X-1421403D1*
X-1498903Y699850D2*
X-1462133D1*
X-1428903D2*
X-1421403D1*
X-1495484Y697350D2*
X-1464654D1*
X-1428903D2*
X-1421403D1*
X-1491230Y694850D2*
X-1467844D1*
X-1428903D2*
X-1421403D1*
X-1486403Y692350D2*
X-1471403D1*
X-1428903D2*
X-1421403D1*
X-1460443Y-685037D2*
X-1450443D1*
X-1420443D2*
X-1402943D1*
X-1460443Y-687537D2*
X-1450443D1*
X-1424002D2*
X-1399685D1*
X-1460443Y-690037D2*
X-1450443D1*
X-1426890D2*
X-1397175D1*
X-1460443Y-692537D2*
X-1450443D1*
X-1429056D2*
X-1395287D1*
X-1460443Y-695037D2*
X-1450443D1*
X-1430661D2*
X-1417064D1*
X-1408540D2*
X-1393761D1*
X-1460443Y-697537D2*
X-1450443D1*
X-1431782D2*
X-1420395D1*
X-1404996D2*
X-1392495D1*
X-1460443Y-700037D2*
X-1450443D1*
X-1432464D2*
X-1423039D1*
X-1402270D2*
X-1391615D1*
X-1460443Y-702537D2*
X-1450443D1*
X-1432943D2*
X-1425443D1*
X-1401199D2*
X-1391131D1*
X-1460443Y-705037D2*
X-1450443D1*
X-1401186D2*
X-1391620D1*
X-1460443Y-707537D2*
X-1450443D1*
X-1401687D2*
X-1392264D1*
X-1460443Y-710037D2*
X-1450443D1*
X-1402575D2*
X-1392988D1*
X-1460443Y-712537D2*
X-1450443D1*
X-1403676D2*
X-1393899D1*
X-1460443Y-715037D2*
X-1450443D1*
X-1404953D2*
X-1395047D1*
X-1460443Y-717537D2*
X-1450443D1*
X-1406496D2*
X-1396451D1*
X-1460443Y-720037D2*
X-1450443D1*
X-1408339D2*
X-1398037D1*
X-1460443Y-722537D2*
X-1450443D1*
X-1410235D2*
X-1399642D1*
X-1460443Y-725037D2*
X-1450443D1*
X-1412009D2*
X-1401361D1*
X-1460443Y-727537D2*
X-1450443D1*
X-1413817D2*
X-1403284D1*
X-1460443Y-730037D2*
X-1450443D1*
X-1415852D2*
X-1405214D1*
X-1460443Y-732537D2*
X-1450443D1*
X-1418025D2*
X-1407002D1*
X-1460453Y-735037D2*
X-1450453D1*
X-1420098D2*
X-1408805D1*
X-1460541Y-737537D2*
X-1450541D1*
X-1421955D2*
X-1410763D1*
X-1460879Y-740037D2*
X-1450860D1*
X-1423787D2*
X-1412707D1*
X-1461712Y-742537D2*
X-1451468D1*
X-1425757D2*
X-1414500D1*
X-1463003Y-745037D2*
X-1452207D1*
X-1427695D2*
X-1416314D1*
X-1487943Y-747537D2*
X-1485443D1*
X-1467421D2*
X-1453059D1*
X-1429391D2*
X-1418359D1*
X-1490443Y-750037D2*
X-1475756D1*
X-1474387D2*
X-1454316D1*
X-1430790D2*
X-1420608D1*
X-1492943Y-752537D2*
X-1456173D1*
X-1431822D2*
X-1390443D1*
X-1489524Y-755037D2*
X-1458694D1*
X-1432430D2*
X-1390443D1*
X-1485270Y-757537D2*
X-1461884D1*
X-1432745D2*
X-1390443D1*
X-1480443Y-760037D2*
X-1465443D1*
X-1432943D2*
X-1390443D1*
X1417537Y-673067D2*
X1427537D1*
X1457537D2*
X1472537D1*
X1417537Y-675567D2*
X1427537D1*
X1453978D2*
X1476181D1*
X1417537Y-678067D2*
X1427537D1*
X1451090D2*
X1479301D1*
X1417537Y-680567D2*
X1427537D1*
X1448924D2*
X1481748D1*
X1417537Y-683067D2*
X1427537D1*
X1447319D2*
X1460037D1*
X1469149D2*
X1483669D1*
X1417537Y-685567D2*
X1427537D1*
X1446198D2*
X1457537D1*
X1472394D2*
X1484372D1*
X1417537Y-688067D2*
X1427537D1*
X1445516D2*
X1455037D1*
X1474658D2*
X1484754D1*
X1417537Y-690567D2*
X1427537D1*
X1445037D2*
X1452537D1*
X1476332D2*
X1484916D1*
X1417537Y-693067D2*
X1427537D1*
X1476770D2*
X1484898D1*
X1417537Y-695567D2*
X1427537D1*
X1476114D2*
X1484596D1*
X1417537Y-698067D2*
X1427537D1*
X1475035D2*
X1483900D1*
X1417537Y-700567D2*
X1427537D1*
X1472225D2*
X1482751D1*
X1417537Y-703067D2*
X1427537D1*
X1468867D2*
X1480922D1*
X1417537Y-705567D2*
X1427537D1*
X1465581D2*
X1478224D1*
X1417537Y-708067D2*
X1427537D1*
X1463952D2*
X1475037D1*
X1417537Y-710567D2*
X1427537D1*
X1463435D2*
X1477995D1*
X1417537Y-713067D2*
X1427537D1*
X1466873D2*
X1480532D1*
X1417537Y-715567D2*
X1427537D1*
X1470536D2*
X1482530D1*
X1417537Y-718067D2*
X1427537D1*
X1473565D2*
X1484140D1*
X1417537Y-720567D2*
X1427537D1*
X1475924D2*
X1485461D1*
X1417527Y-723067D2*
X1427527D1*
X1476759D2*
X1486449D1*
X1417439Y-725567D2*
X1427439D1*
X1477197D2*
X1487025D1*
X1417101Y-728067D2*
X1427120D1*
X1477291D2*
X1487229D1*
X1416268Y-730567D2*
X1426512D1*
X1442537D2*
X1452537D1*
X1477130D2*
X1487028D1*
X1414977Y-733067D2*
X1425773D1*
X1443496D2*
X1454182D1*
X1475766D2*
X1486394D1*
X1390037Y-735567D2*
X1392537D1*
X1410559D2*
X1424921D1*
X1444658D2*
X1458529D1*
X1471491D2*
X1485434D1*
X1387537Y-738067D2*
X1402224D1*
X1403593D2*
X1423664D1*
X1446158D2*
X1464912D1*
X1465143D2*
X1484211D1*
X1385037Y-740567D2*
X1421807D1*
X1448154D2*
X1482509D1*
X1388456Y-743067D2*
X1419286D1*
X1450742D2*
X1479954D1*
X1392710Y-745567D2*
X1416096D1*
X1453961D2*
X1476466D1*
X1397537Y-748067D2*
X1412537D1*
X1457537D2*
X1472537D1*
X-757067Y1104793D2*
X-719567D1*
X-679567D2*
X-669567D1*
X-757067Y1102293D2*
X-715922D1*
X-683116D2*
X-669567D1*
X-757067Y1099793D2*
X-712802D1*
X-685916D2*
X-669567D1*
X-757067Y1097293D2*
X-710345D1*
X-688080D2*
X-669567D1*
X-757067Y1094793D2*
X-747067D1*
X-722954D2*
X-708611D1*
X-688850D2*
X-669567D1*
X-757067Y1092293D2*
X-747067D1*
X-719709D2*
X-707383D1*
X-689286D2*
X-682067D1*
X-677067D2*
X-669567D1*
X-757067Y1089793D2*
X-747067D1*
X-717436D2*
X-706352D1*
X-689567D2*
X-687067D1*
X-677067D2*
X-669567D1*
X-757067Y1087293D2*
X-747067D1*
X-715732D2*
X-705536D1*
X-677067D2*
X-669567D1*
X-757067Y1084793D2*
X-747067D1*
X-715228D2*
X-705114D1*
X-677067D2*
X-669567D1*
X-757067Y1082293D2*
X-747067D1*
X-715040D2*
X-705174D1*
X-677067D2*
X-669567D1*
X-757067Y1079793D2*
X-747067D1*
X-715665D2*
X-705667D1*
X-677067D2*
X-669567D1*
X-757067Y1077293D2*
X-747067D1*
X-717341D2*
X-706358D1*
X-677067D2*
X-669567D1*
X-757067Y1074793D2*
X-747067D1*
X-723927D2*
X-707192D1*
X-677067D2*
X-669567D1*
X-757067Y1072293D2*
X-747067D1*
X-735223D2*
X-708442D1*
X-677067D2*
X-669567D1*
X-757067Y1069793D2*
X-710280D1*
X-677067D2*
X-669567D1*
X-757067Y1067293D2*
X-712627D1*
X-677067D2*
X-669567D1*
X-757067Y1064793D2*
X-715062D1*
X-677067D2*
X-669567D1*
X-757067Y1062293D2*
X-717201D1*
X-677067D2*
X-669567D1*
X-757067Y1059793D2*
X-747067D1*
X-729963D2*
X-717718D1*
X-677067D2*
X-669567D1*
X-757067Y1057293D2*
X-747067D1*
X-728170D2*
X-717029D1*
X-677067D2*
X-669567D1*
X-757067Y1054793D2*
X-747067D1*
X-726646D2*
X-715877D1*
X-677067D2*
X-669567D1*
X-757067Y1052293D2*
X-747067D1*
X-725271D2*
X-714414D1*
X-677067D2*
X-669567D1*
X-757067Y1049793D2*
X-747067D1*
X-723972D2*
X-712941D1*
X-677067D2*
X-669567D1*
X-757067Y1047293D2*
X-747067D1*
X-722701D2*
X-711557D1*
X-677067D2*
X-669567D1*
X-757067Y1044793D2*
X-747067D1*
X-721446D2*
X-710238D1*
X-677067D2*
X-669567D1*
X-757067Y1042293D2*
X-747067D1*
X-720192D2*
X-708961D1*
X-677067D2*
X-669567D1*
X-757067Y1039793D2*
X-747067D1*
X-718943D2*
X-707697D1*
X-677067D2*
X-669567D1*
X-757067Y1037293D2*
X-747067D1*
X-717699D2*
X-706437D1*
X-677067D2*
X-669567D1*
X-757067Y1034793D2*
X-747067D1*
X-716515D2*
X-705119D1*
X-677067D2*
X-669567D1*
X-757067Y1032293D2*
X-747067D1*
X-715474D2*
X-703660D1*
X-677067D2*
X-669567D1*
X-757067Y1029793D2*
X-747067D1*
X-714567D2*
X-702067D1*
X-677067D2*
X-669567D1*
X-169347Y983147D2*
X-131847D1*
X-99347D2*
X-89347D1*
X-54347D2*
X-46847D1*
X-19347D2*
X-9347D1*
X10653D2*
X50653D1*
X68153D2*
X105653D1*
X140653D2*
X155653D1*
X-169347Y980647D2*
X-127435D1*
X-99347D2*
X-89347D1*
X-54347D2*
X-46847D1*
X-22896D2*
X-9347D1*
X10653D2*
X50644D1*
X68153D2*
X105653D1*
X137009D2*
X159298D1*
X-169347Y978147D2*
X-124206D1*
X-99347D2*
X-89347D1*
X-54347D2*
X-46847D1*
X-25696D2*
X-9347D1*
X10653D2*
X50556D1*
X68153D2*
X105653D1*
X133889D2*
X162418D1*
X-169347Y975647D2*
X-121955D1*
X-99347D2*
X-89347D1*
X-54347D2*
X-46847D1*
X-27860D2*
X-9347D1*
X10653D2*
X50237D1*
X68153D2*
X105653D1*
X131442D2*
X164865D1*
X-169347Y973147D2*
X-159347D1*
X-131952D2*
X-120267D1*
X-99347D2*
X-89347D1*
X-54347D2*
X-46847D1*
X-28630D2*
X-9347D1*
X10653D2*
X18153D1*
X40267D2*
X49629D1*
X68153D2*
X78153D1*
X129521D2*
X143750D1*
X152557D2*
X166786D1*
X-169347Y970647D2*
X-159347D1*
X-129870D2*
X-118926D1*
X-99347D2*
X-89347D1*
X-54347D2*
X-46847D1*
X-29066D2*
X-21847D1*
X-16847D2*
X-9347D1*
X10653D2*
X18153D1*
X39637D2*
X48900D1*
X68153D2*
X78153D1*
X128722D2*
X140206D1*
X156101D2*
X167489D1*
X-169347Y968147D2*
X-159347D1*
X-128385D2*
X-117944D1*
X-99347D2*
X-89347D1*
X-54347D2*
X-46847D1*
X-29347D2*
X-26847D1*
X-16847D2*
X-9347D1*
X10653D2*
X18153D1*
X38902D2*
X48145D1*
X68153D2*
X78153D1*
X128021D2*
X137480D1*
X158827D2*
X167870D1*
X-169347Y965647D2*
X-159347D1*
X-127551D2*
X-117446D1*
X-99347D2*
X-89347D1*
X-54347D2*
X-46847D1*
X-16847D2*
X-9347D1*
X10653D2*
X18153D1*
X38146D2*
X47314D1*
X68153D2*
X78163D1*
X127249D2*
X136533D1*
X159774D2*
X168042D1*
X-169347Y963147D2*
X-159347D1*
X-127241D2*
X-117483D1*
X-99347D2*
X-89347D1*
X-54347D2*
X-46847D1*
X-16847D2*
X-9347D1*
X10653D2*
X18153D1*
X37305D2*
X46558D1*
X68153D2*
X78258D1*
X126538D2*
X136025D1*
X160282D2*
X168112D1*
X-169347Y960647D2*
X-159347D1*
X-127255D2*
X-118051D1*
X-99347D2*
X-89347D1*
X-54347D2*
X-46847D1*
X-16847D2*
X-9347D1*
X36470D2*
X45990D1*
X68153D2*
X78645D1*
X126076D2*
X135798D1*
X160509D2*
X168139D1*
X-169347Y958147D2*
X-159347D1*
X-128563D2*
X-119057D1*
X-99347D2*
X-89347D1*
X-54347D2*
X-46847D1*
X-16847D2*
X-9347D1*
X35671D2*
X45423D1*
X68153D2*
X79499D1*
X83153D2*
X95653D1*
X125834D2*
X135706D1*
X160600D2*
X168148D1*
X-169347Y955647D2*
X-159347D1*
X-134738D2*
X-120478D1*
X-99347D2*
X-89347D1*
X-54347D2*
X-46847D1*
X-16847D2*
X-9347D1*
X34824D2*
X44702D1*
X68153D2*
X99212D1*
X125725D2*
X135672D1*
X160635D2*
X168152D1*
X-169347Y953147D2*
X-159347D1*
X-145519D2*
X-122252D1*
X-99347D2*
X-89347D1*
X-54347D2*
X-46847D1*
X-16847D2*
X-9347D1*
X34061D2*
X43927D1*
X68153D2*
X102100D1*
X125680D2*
X135660D1*
X160647D2*
X168153D1*
X-169347Y950647D2*
X-123933D1*
X-99347D2*
X-89347D1*
X-54347D2*
X-46847D1*
X-16847D2*
X-9347D1*
X33491D2*
X43155D1*
X68153D2*
X104266D1*
X125663D2*
X135655D1*
X160651D2*
X168153D1*
X-169347Y948147D2*
X-125253D1*
X-99347D2*
X-46847D1*
X-16847D2*
X-9347D1*
X32923D2*
X42308D1*
X68153D2*
X83613D1*
X93058D2*
X105870D1*
X125657D2*
X135654D1*
X160653D2*
X168153D1*
X-169347Y945647D2*
X-125037D1*
X-99347D2*
X-46847D1*
X-16847D2*
X-9347D1*
X32202D2*
X41471D1*
X68153D2*
X79490D1*
X95228D2*
X106984D1*
X125654D2*
X135654D1*
X160653D2*
X168153D1*
X-169347Y943147D2*
X-123484D1*
X-99347D2*
X-46847D1*
X-16847D2*
X-9347D1*
X31427D2*
X40672D1*
X68153D2*
X75653D1*
X97031D2*
X107621D1*
X125654D2*
X135653D1*
X160653D2*
X168153D1*
X-169347Y940647D2*
X-159347D1*
X-131942D2*
X-121585D1*
X-99347D2*
X-46847D1*
X-16847D2*
X-9347D1*
X30655D2*
X39824D1*
X98474D2*
X107932D1*
X125653D2*
X135653D1*
X160653D2*
X168153D1*
X-169347Y938147D2*
X-159347D1*
X-129772D2*
X-119727D1*
X-99347D2*
X-89347D1*
X-54347D2*
X-46847D1*
X-16847D2*
X-9347D1*
X29808D2*
X39061D1*
X99523D2*
X108067D1*
X125653D2*
X135653D1*
X160653D2*
X168153D1*
X-169347Y935647D2*
X-159347D1*
X-127979D2*
X-118333D1*
X-99347D2*
X-89347D1*
X-54347D2*
X-46847D1*
X-16847D2*
X-9347D1*
X28971D2*
X38491D1*
X100125D2*
X108122D1*
X125663D2*
X135653D1*
X160653D2*
X168153D1*
X-169347Y933147D2*
X-159347D1*
X-126624D2*
X-117523D1*
X-99347D2*
X-89347D1*
X-54347D2*
X-46847D1*
X-16847D2*
X-9347D1*
X28172D2*
X37923D1*
X100339D2*
X108142D1*
X125751D2*
X135653D1*
X160653D2*
X168153D1*
X-169347Y930647D2*
X-159347D1*
X-125622D2*
X-117127D1*
X-99347D2*
X-89347D1*
X-54347D2*
X-46847D1*
X-16847D2*
X-9347D1*
X27324D2*
X37202D1*
X100143D2*
X108150D1*
X126070D2*
X135663D1*
X160644D2*
X168153D1*
X-169347Y928147D2*
X-159347D1*
X-125927D2*
X-116965D1*
X-99347D2*
X-89347D1*
X-54347D2*
X-46847D1*
X-16847D2*
X-9347D1*
X26561D2*
X36427D1*
X99500D2*
X108142D1*
X126668D2*
X135771D1*
X160536D2*
X168153D1*
X-169347Y925647D2*
X-159347D1*
X-126596D2*
X-116984D1*
X-99347D2*
X-89347D1*
X-54347D2*
X-46847D1*
X-16847D2*
X-9347D1*
X25991D2*
X35655D1*
X68153D2*
X75653D1*
X98433D2*
X108055D1*
X127319D2*
X136034D1*
X160272D2*
X168144D1*
X-169347Y923147D2*
X-159347D1*
X-128564D2*
X-117287D1*
X-99347D2*
X-89347D1*
X-54347D2*
X-46847D1*
X-16847D2*
X-9347D1*
X25423D2*
X34808D1*
X68549D2*
X77299D1*
X97062D2*
X107727D1*
X127853D2*
X137416D1*
X158891D2*
X168046D1*
X-169347Y920647D2*
X-159347D1*
X-135604D2*
X-117974D1*
X-99347D2*
X-89347D1*
X-54347D2*
X-46847D1*
X-16847D2*
X-9347D1*
X24702D2*
X33971D1*
X69267D2*
X81646D1*
X93751D2*
X107031D1*
X128501D2*
X141695D1*
X154612D2*
X167630D1*
X-169347Y918147D2*
X-159347D1*
X-147238D2*
X-119038D1*
X-99347D2*
X-89347D1*
X-54347D2*
X-46847D1*
X-16847D2*
X-9347D1*
X23927D2*
X33172D1*
X70340D2*
X88028D1*
X88938D2*
X105964D1*
X129632D2*
X148046D1*
X148261D2*
X166605D1*
X-169347Y915647D2*
X-120583D1*
X-99347D2*
X-89347D1*
X-54347D2*
X-46847D1*
X-16847D2*
X-9347D1*
X23153D2*
X32324D1*
X71888D2*
X104418D1*
X131427D2*
X164854D1*
X-169347Y913147D2*
X-122855D1*
X-99347D2*
X-89347D1*
X-54347D2*
X-46847D1*
X-16847D2*
X-9347D1*
X22294D2*
X31564D1*
X74161D2*
X102146D1*
X133921D2*
X162376D1*
X-169347Y910647D2*
X-125892D1*
X-99347D2*
X-89347D1*
X-54347D2*
X-46847D1*
X-16847D2*
X-9347D1*
X21438D2*
X31042D1*
X77199D2*
X99108D1*
X137100D2*
X159204D1*
X-169347Y908147D2*
X-129347D1*
X-99347D2*
X-89347D1*
X-54347D2*
X-46847D1*
X-16847D2*
X-9347D1*
X20653D2*
X30653D1*
X80653D2*
X95653D1*
X140653D2*
X155653D1*
X-120757Y-527967D2*
X-110757D1*
X-70757D2*
X-60757D1*
X-15757D2*
X-5757D1*
X24243D2*
X39243D1*
X76743D2*
X86743D1*
X119243D2*
X136743D1*
X-121143Y-530467D2*
X-110361D1*
X-70757D2*
X-59892D1*
X-16621D2*
X-5757D1*
X20685D2*
X42888D1*
X73194D2*
X86743D1*
X115685D2*
X140001D1*
X-121773Y-532967D2*
X-109653D1*
X-70757D2*
X-59060D1*
X-17453D2*
X-5757D1*
X17797D2*
X46008D1*
X70394D2*
X86743D1*
X112797D2*
X142512D1*
X-122508Y-535467D2*
X-108687D1*
X-70757D2*
X-58258D1*
X-18255D2*
X-5757D1*
X15630D2*
X48455D1*
X68230D2*
X86743D1*
X110630D2*
X144399D1*
X-123274Y-537967D2*
X-107641D1*
X-70757D2*
X-57326D1*
X-19187D2*
X-5757D1*
X14026D2*
X26743D1*
X35856D2*
X50376D1*
X67460D2*
X86743D1*
X109026D2*
X122622D1*
X131147D2*
X145926D1*
X-124193Y-540467D2*
X-106679D1*
X-70757D2*
X-56247D1*
X-20267D2*
X-5757D1*
X12905D2*
X24243D1*
X39101D2*
X51079D1*
X67024D2*
X74243D1*
X79243D2*
X86743D1*
X107905D2*
X119292D1*
X134691D2*
X147192D1*
X-125259Y-542967D2*
X-105819D1*
X-70757D2*
X-55079D1*
X-21434D2*
X-5757D1*
X12223D2*
X21743D1*
X41364D2*
X51460D1*
X66743D2*
X69243D1*
X79243D2*
X86743D1*
X107223D2*
X116648D1*
X137417D2*
X148072D1*
X-126347Y-545467D2*
X-118643D1*
X-112870D2*
X-104934D1*
X-70757D2*
X-53860D1*
X-22653D2*
X-5757D1*
X11743D2*
X19243D1*
X43039D2*
X51623D1*
X79243D2*
X86743D1*
X106743D2*
X114243D1*
X138488D2*
X148556D1*
X-127325Y-547967D2*
X-119273D1*
X-112241D2*
X-104083D1*
X-70757D2*
X-52625D1*
X-23888D2*
X-5757D1*
X43476D2*
X51605D1*
X79243D2*
X86743D1*
X138501D2*
X148066D1*
X-128192Y-550467D2*
X-120008D1*
X-111506D2*
X-103268D1*
X-70757D2*
X-51388D1*
X-25125D2*
X-5757D1*
X42821D2*
X51303D1*
X79243D2*
X86743D1*
X138000D2*
X147422D1*
X-129078Y-552967D2*
X-120764D1*
X-110749D2*
X-102331D1*
X-70757D2*
X-50220D1*
X-26294D2*
X-5757D1*
X41742D2*
X50606D1*
X79243D2*
X86743D1*
X137112D2*
X146699D1*
X-129930Y-555467D2*
X-121605D1*
X-109908D2*
X-101258D1*
X-70757D2*
X-49209D1*
X-27305D2*
X-5757D1*
X38931D2*
X49458D1*
X79243D2*
X86743D1*
X136011D2*
X145787D1*
X-130745Y-557967D2*
X-122440D1*
X-109073D2*
X-100167D1*
X-70757D2*
X-48319D1*
X-28194D2*
X-21143D1*
X-15757D2*
X-5757D1*
X35574D2*
X47628D1*
X79243D2*
X86743D1*
X134734D2*
X144640D1*
X-131683Y-560467D2*
X-123239D1*
X-108275D2*
X-99189D1*
X-70757D2*
X-60757D1*
X-55361D2*
X-47350D1*
X-29163D2*
X-21773D1*
X-15757D2*
X-5757D1*
X32288D2*
X44930D1*
X79243D2*
X86743D1*
X133190D2*
X143235D1*
X-132755Y-562967D2*
X-124096D1*
X-107417D2*
X-98322D1*
X-70757D2*
X-60757D1*
X-54653D2*
X-46255D1*
X-30258D2*
X-22508D1*
X-15757D2*
X-5757D1*
X30659D2*
X41743D1*
X79243D2*
X86743D1*
X131348D2*
X141650D1*
X-133846Y-565467D2*
X-124937D1*
X-106576D2*
X-97435D1*
X-70757D2*
X-60757D1*
X-53677D2*
X-45082D1*
X-31431D2*
X-23274D1*
X-15757D2*
X-5757D1*
X30141D2*
X44702D1*
X79243D2*
X86743D1*
X129452D2*
X140045D1*
X-134824Y-567967D2*
X-125739D1*
X-105774D2*
X-96583D1*
X-70757D2*
X-60757D1*
X-52553D2*
X-43861D1*
X-32652D2*
X-24193D1*
X-15757D2*
X-5757D1*
X33579D2*
X47238D1*
X79243D2*
X86743D1*
X127677D2*
X138326D1*
X-135691Y-570467D2*
X-126609D1*
X-104904D2*
X-95768D1*
X-70757D2*
X-60757D1*
X-51351D2*
X-42618D1*
X-33895D2*
X-25269D1*
X-15757D2*
X-5757D1*
X37242D2*
X49237D1*
X79243D2*
X86743D1*
X125869D2*
X136402D1*
X-136578Y-572967D2*
X-127470D1*
X-104043D2*
X-94831D1*
X-70757D2*
X-60757D1*
X-50122D2*
X-41306D1*
X-35208D2*
X-26435D1*
X-15757D2*
X-5757D1*
X40271D2*
X50847D1*
X79243D2*
X86743D1*
X123834D2*
X134473D1*
X-137430Y-575467D2*
X-128257D1*
X-103257D2*
X-93758D1*
X-70757D2*
X-60757D1*
X-48887D2*
X-39849D1*
X-36665D2*
X-27653D1*
X-15757D2*
X-5757D1*
X42631D2*
X52168D1*
X79243D2*
X86743D1*
X121661D2*
X132685D1*
X-138235Y-577967D2*
X-92667D1*
X-70757D2*
X-60757D1*
X-47719D2*
X-28888D1*
X-15757D2*
X-5757D1*
X43465D2*
X53156D1*
X79243D2*
X86743D1*
X119588D2*
X130882D1*
X-139095Y-580467D2*
X-91689D1*
X-70757D2*
X-60757D1*
X-46709D2*
X-30125D1*
X-15757D2*
X-5757D1*
X43904D2*
X53732D1*
X79243D2*
X86743D1*
X117732D2*
X128923D1*
X-139937Y-582967D2*
X-90822D1*
X-70757D2*
X-60757D1*
X-45819D2*
X-31294D1*
X-15757D2*
X-5757D1*
X43998D2*
X53935D1*
X79243D2*
X86743D1*
X115900D2*
X126980D1*
X-140747Y-585467D2*
X-89935D1*
X-70757D2*
X-60757D1*
X-44842D2*
X-32312D1*
X-15757D2*
X-5757D1*
X9243D2*
X19243D1*
X43836D2*
X53735D1*
X79243D2*
X86743D1*
X113930D2*
X125187D1*
X-141683Y-587967D2*
X-133352D1*
X-97870D2*
X-89083D1*
X-70757D2*
X-60757D1*
X-43683D2*
X-33262D1*
X-15757D2*
X-5757D1*
X10203D2*
X20889D1*
X42472D2*
X53100D1*
X79243D2*
X86743D1*
X111992D2*
X123373D1*
X-142755Y-590467D2*
X-133672D1*
X-97241D2*
X-88278D1*
X-70757D2*
X-60757D1*
X-42302D2*
X-34413D1*
X-15757D2*
X-5757D1*
X11365D2*
X25236D1*
X38198D2*
X52141D1*
X79243D2*
X86743D1*
X110295D2*
X121328D1*
X-143846Y-592967D2*
X-134281D1*
X-96506D2*
X-87419D1*
X-70757D2*
X-60757D1*
X-40757D2*
X-35757D1*
X-15757D2*
X-5757D1*
X12864D2*
X31618D1*
X31850D2*
X50918D1*
X79243D2*
X86743D1*
X108897D2*
X119079D1*
X-144832Y-595467D2*
X-135018D1*
X-95747D2*
X-86569D1*
X-70757D2*
X-60757D1*
X-15757D2*
X-5757D1*
X14860D2*
X49216D1*
X79243D2*
X86743D1*
X107865D2*
X149243D1*
X-145769Y-597967D2*
X-135842D1*
X-94895D2*
X-85699D1*
X-70757D2*
X-60757D1*
X-15757D2*
X-5757D1*
X17449D2*
X46660D1*
X79243D2*
X86743D1*
X107256D2*
X149243D1*
X-146916Y-600467D2*
X-136942D1*
X-94040D2*
X-84581D1*
X-70757D2*
X-60757D1*
X-15757D2*
X-5757D1*
X20667D2*
X43173D1*
X79243D2*
X86743D1*
X106942D2*
X149243D1*
X-148257Y-602967D2*
X-138257D1*
X-93257D2*
X-83257D1*
X-70757D2*
X-60757D1*
X-15757D2*
X-5757D1*
X24243D2*
X39243D1*
X79243D2*
X86743D1*
X106743D2*
X149243D1*
X-723593Y-625510D2*
X-686093D1*
X-641093D2*
X-623593D1*
X-723593Y-628010D2*
X-682449D1*
X-644652D2*
X-620335D1*
X-723593Y-630510D2*
X-679329D1*
X-647540D2*
X-617825D1*
X-723593Y-633010D2*
X-676872D1*
X-649706D2*
X-615937D1*
X-723593Y-635510D2*
X-713593D1*
X-689481D2*
X-675138D1*
X-651311D2*
X-637714D1*
X-629190D2*
X-614411D1*
X-723593Y-638010D2*
X-713593D1*
X-686236D2*
X-673910D1*
X-652432D2*
X-641045D1*
X-625646D2*
X-613145D1*
X-723593Y-640510D2*
X-713593D1*
X-683962D2*
X-672879D1*
X-653114D2*
X-643689D1*
X-622920D2*
X-612265D1*
X-723593Y-643010D2*
X-713593D1*
X-682258D2*
X-672062D1*
X-653593D2*
X-646093D1*
X-621849D2*
X-611781D1*
X-723593Y-645510D2*
X-713593D1*
X-681755D2*
X-671641D1*
X-621836D2*
X-612270D1*
X-723593Y-648010D2*
X-713593D1*
X-681566D2*
X-671700D1*
X-622337D2*
X-612914D1*
X-723593Y-650510D2*
X-713593D1*
X-682192D2*
X-672193D1*
X-623225D2*
X-613638D1*
X-723593Y-653010D2*
X-713593D1*
X-683868D2*
X-672885D1*
X-624326D2*
X-614549D1*
X-723593Y-655510D2*
X-713593D1*
X-690453D2*
X-673719D1*
X-625603D2*
X-615697D1*
X-723593Y-658010D2*
X-713593D1*
X-701749D2*
X-674969D1*
X-627146D2*
X-617101D1*
X-723593Y-660510D2*
X-676807D1*
X-628989D2*
X-618687D1*
X-723593Y-663010D2*
X-679153D1*
X-630885D2*
X-620292D1*
X-723593Y-665510D2*
X-681588D1*
X-632659D2*
X-622011D1*
X-723593Y-668010D2*
X-683727D1*
X-634467D2*
X-623934D1*
X-723593Y-670510D2*
X-713593D1*
X-696489D2*
X-684244D1*
X-636502D2*
X-625864D1*
X-723593Y-673010D2*
X-713593D1*
X-694697D2*
X-683556D1*
X-638675D2*
X-627652D1*
X-723593Y-675510D2*
X-713593D1*
X-693173D2*
X-682404D1*
X-640748D2*
X-629455D1*
X-723593Y-678010D2*
X-713593D1*
X-691797D2*
X-680940D1*
X-642605D2*
X-631413D1*
X-723593Y-680510D2*
X-713593D1*
X-690499D2*
X-679467D1*
X-644437D2*
X-633357D1*
X-723593Y-683010D2*
X-713593D1*
X-689228D2*
X-678083D1*
X-646407D2*
X-635150D1*
X-723593Y-685510D2*
X-713593D1*
X-687973D2*
X-676764D1*
X-648345D2*
X-636964D1*
X-723593Y-688010D2*
X-713593D1*
X-686719D2*
X-675487D1*
X-650041D2*
X-639009D1*
X-723593Y-690510D2*
X-713593D1*
X-685470D2*
X-674224D1*
X-651440D2*
X-641258D1*
X-723593Y-693010D2*
X-713593D1*
X-684225D2*
X-672964D1*
X-652472D2*
X-611093D1*
X-723593Y-695510D2*
X-713593D1*
X-683042D2*
X-671645D1*
X-653080D2*
X-611093D1*
X-723593Y-698010D2*
X-713593D1*
X-682001D2*
X-670186D1*
X-653395D2*
X-611093D1*
X-723593Y-700510D2*
X-713593D1*
X-681093D2*
X-668593D1*
X-653593D2*
X-611093D1*
X1328367Y816377D2*
D12*
X1412187D1*
X1321510Y812567D2*
X1420671D1*
X1315606Y808757D2*
X1427301D1*
X1311021Y804947D2*
X1431893D1*
X1307653Y801137D2*
X1435090D1*
X1305187Y797327D2*
X1437541D1*
X1303467Y793517D2*
X1439531D1*
X1302360Y789707D2*
X1441022D1*
X1301400Y785897D2*
X1441907D1*
X1300281Y782087D2*
X1442348D1*
X1299221Y778277D2*
X1442542D1*
X1298525Y774467D2*
X1339208D1*
X1350478D2*
X1442621D1*
X1298161Y770657D2*
X1338263D1*
X1352706D2*
X1388738D1*
X1404567D2*
X1442650D1*
X1297995Y766847D2*
X1337277D1*
X1353982D2*
X1387793D1*
X1404567D2*
X1442661D1*
X1297927Y763037D2*
X1336610D1*
X1354601D2*
X1386807D1*
X1404567D2*
X1442665D1*
X1297901Y759227D2*
X1336255D1*
X1354868D2*
X1386140D1*
X1404567D2*
X1442666D1*
X1297892Y755417D2*
X1336094D1*
X1354975D2*
X1385785D1*
X1404567D2*
X1442666D1*
X1297888Y751607D2*
X1336027D1*
X1355015D2*
X1385624D1*
X1404567D2*
X1442667D1*
X1297887Y747797D2*
X1336001D1*
X1355029D2*
X1385557D1*
X1404567D2*
X1442667D1*
X1297887Y743987D2*
X1335992D1*
X1355034D2*
X1385531D1*
X1404567D2*
X1442667D1*
X1297887Y740177D2*
X1335988D1*
X1355036D2*
X1385521D1*
X1404567D2*
X1442667D1*
X1297887Y736367D2*
X1335987D1*
X1355037D2*
X1385517D1*
X1404567D2*
X1442667D1*
X1297887Y709697D2*
X1404567D1*
X1297887Y705887D2*
X1413197D1*
X1297887Y702077D2*
X1420329D1*
X1297887Y698267D2*
X1425969D1*
X1297887Y694457D2*
X1430628D1*
X1297887Y690647D2*
X1434656D1*
X1297887Y686837D2*
X1437991D1*
X1297887Y683027D2*
X1440442D1*
X1297887Y679217D2*
X1442233D1*
X1297887Y675407D2*
X1443773D1*
X1297887Y671597D2*
X1445021D1*
X1297887Y667787D2*
X1445793D1*
X1335987Y663977D2*
X1374087D1*
X1408362D2*
X1446186D1*
X1335987Y660167D2*
X1374087D1*
X1408213D2*
X1446362D1*
X1335987Y656357D2*
X1374087D1*
X1407580D2*
X1446434D1*
X1406046Y652547D2*
X1446462D1*
X1403610Y648737D2*
X1446457D1*
X1400757Y644927D2*
X1446326D1*
X1403978Y641117D2*
X1445827D1*
X1406843Y637307D2*
X1444766D1*
X1409652Y633497D2*
X1443155D1*
X1412661Y629687D2*
X1440943D1*
X1415628Y625877D2*
X1438066D1*
X1418332Y622067D2*
X1434717D1*
X1420939Y618257D2*
X1431117D1*
X1423617Y614447D2*
X1427427D1*
X1328367Y603017D2*
X1412187D1*
X1321510Y599207D2*
X1420671D1*
X1315606Y595397D2*
X1427301D1*
X1311021Y591587D2*
X1431893D1*
X1307653Y587777D2*
X1435090D1*
X1305187Y583967D2*
X1437541D1*
X1303467Y580157D2*
X1439531D1*
X1302360Y576347D2*
X1441022D1*
X1301400Y572537D2*
X1441907D1*
X1300281Y568727D2*
X1442348D1*
X1299221Y564917D2*
X1442542D1*
X1298525Y561107D2*
X1339208D1*
X1350478D2*
X1442621D1*
X1298161Y557297D2*
X1338263D1*
X1352706D2*
X1388738D1*
X1404567D2*
X1442650D1*
X1297995Y553487D2*
X1337277D1*
X1353982D2*
X1387793D1*
X1404567D2*
X1442661D1*
X1297927Y549677D2*
X1336610D1*
X1354601D2*
X1386807D1*
X1404567D2*
X1442665D1*
X1297901Y545867D2*
X1336255D1*
X1354868D2*
X1386140D1*
X1404567D2*
X1442666D1*
X1297892Y542057D2*
X1336094D1*
X1354975D2*
X1385785D1*
X1404567D2*
X1442666D1*
X1297888Y538247D2*
X1336027D1*
X1355015D2*
X1385624D1*
X1404567D2*
X1442667D1*
X1297887Y534437D2*
X1336001D1*
X1355029D2*
X1385557D1*
X1404567D2*
X1442667D1*
X1297887Y530627D2*
X1335992D1*
X1355034D2*
X1385531D1*
X1404567D2*
X1442667D1*
X1297887Y526817D2*
X1335988D1*
X1355036D2*
X1385521D1*
X1404567D2*
X1442667D1*
X1297887Y523007D2*
X1335987D1*
X1355037D2*
X1385517D1*
X1404567D2*
X1442667D1*
X1297887Y492527D2*
X1442667D1*
X1297887Y488717D2*
X1442667D1*
X1297887Y484907D2*
X1442667D1*
X1297887Y481097D2*
X1442667D1*
X1297887Y477287D2*
X1442667D1*
X1297887Y473477D2*
X1442667D1*
X1297887Y469667D2*
X1442667D1*
X1297887Y465857D2*
X1442667D1*
X1297887Y462047D2*
X1442667D1*
X1297887Y458237D2*
X1442667D1*
X1297887Y454427D2*
X1442667D1*
X1374087Y446807D2*
X1381707D1*
X1364104Y442997D2*
X1388738D1*
X1354311Y439187D2*
X1395413D1*
X1344666Y435377D2*
X1402047D1*
X1335205Y431567D2*
X1408985D1*
X1326051Y427757D2*
X1416117D1*
X1317379Y423947D2*
X1423059D1*
X1309681Y420137D2*
X1429402D1*
X1303126Y416327D2*
X1434751D1*
X1300013Y412517D2*
X1439200D1*
X1298881Y408707D2*
X1440968D1*
X1298295Y404897D2*
X1374087D1*
X1382455D2*
X1441937D1*
X1298042Y401087D2*
X1366467D1*
X1387847D2*
X1442379D1*
X1297942Y397277D2*
X1358832D1*
X1394176D2*
X1442560D1*
X1297906Y393467D2*
X1351078D1*
X1401044D2*
X1442629D1*
X1297893Y389657D2*
X1342972D1*
X1407910D2*
X1442654D1*
X1297889Y385847D2*
X1334440D1*
X1414511D2*
X1442618D1*
X1297887Y382037D2*
X1325843D1*
X1421104D2*
X1442185D1*
X1297887Y378227D2*
X1317555D1*
X1427987D2*
X1441148D1*
X1297887Y374417D2*
X1309562D1*
X1435047D2*
X1436695D1*
X1297887Y370607D2*
X1301697D1*
X1404567Y366797D2*
X1442667D1*
X1404567Y362987D2*
X1442667D1*
X1404567Y359177D2*
X1442667D1*
X1404567Y355367D2*
X1442667D1*
X1404567Y351557D2*
X1442667D1*
X1404567Y347747D2*
X1442667D1*
X1404567Y343937D2*
X1442667D1*
X1404567Y340127D2*
X1442667D1*
X1404567Y336317D2*
X1442667D1*
X1297887Y332507D2*
X1442667D1*
X1297887Y328697D2*
X1442667D1*
X1297887Y324887D2*
X1442667D1*
X1297887Y321077D2*
X1442667D1*
X1297887Y317267D2*
X1442667D1*
X1297887Y313457D2*
X1442667D1*
X1297887Y309647D2*
X1442667D1*
X1297887Y305837D2*
X1442667D1*
X1297887Y302027D2*
X1442667D1*
X1297887Y298217D2*
X1442667D1*
X1297887Y294407D2*
X1442667D1*
X1297887Y290597D2*
X1442667D1*
X1404567Y286787D2*
X1442667D1*
X1404567Y282977D2*
X1442667D1*
X1404567Y279167D2*
X1442667D1*
X1404567Y275357D2*
X1442667D1*
X1404567Y271547D2*
X1442667D1*
X1404567Y267737D2*
X1442667D1*
X1404567Y263927D2*
X1442667D1*
X1404567Y260117D2*
X1442667D1*
X1404567Y256307D2*
X1442667D1*
X1297887Y241067D2*
X1404567D1*
X1297887Y237257D2*
X1414242D1*
X1297887Y233447D2*
X1422264D1*
X1297887Y229637D2*
X1428588D1*
X1297887Y225827D2*
X1433301D1*
X1297887Y222017D2*
X1436717D1*
X1297887Y218207D2*
X1439325D1*
X1297887Y214397D2*
X1441517D1*
X1297887Y210587D2*
X1443402D1*
X1297887Y206777D2*
X1444853D1*
X1297887Y202967D2*
X1445724D1*
X1297887Y199157D2*
X1446160D1*
X1332177Y195347D2*
X1370277D1*
X1403788D2*
X1446353D1*
X1332177Y191537D2*
X1370277D1*
X1405929D2*
X1446431D1*
X1332177Y187727D2*
X1370277D1*
X1407380D2*
X1446460D1*
X1403812Y183917D2*
X1446471D1*
X1398844Y180107D2*
X1446475D1*
X1297887Y176297D2*
X1446461D1*
X1297887Y172487D2*
X1446328D1*
X1297887Y168677D2*
X1445827D1*
X1297887Y164867D2*
X1444766D1*
X1297887Y161057D2*
X1443155D1*
X1297887Y157247D2*
X1440943D1*
X1297887Y153437D2*
X1438037D1*
X1297887Y149627D2*
X1434397D1*
X1297887Y145817D2*
X1429611D1*
X1297887Y142007D2*
X1423279D1*
X1297887Y138197D2*
X1415997D1*
X-1302790Y892430D2*
D13*
X-1229457D1*
X-1302790Y889097D2*
X-1223173D1*
X-1302790Y885763D2*
X-1218365D1*
X-1302790Y882430D2*
X-1214992D1*
X-1302790Y879097D2*
X-1212639D1*
X-1302790Y875763D2*
X-1211066D1*
X-1302790Y872430D2*
X-1210184D1*
X-1302790Y869097D2*
X-1209758D1*
X-1302790Y865763D2*
X-1209573D1*
X-1232790Y862430D2*
X-1209512D1*
X-1232790Y859097D2*
X-1209615D1*
X-1302790Y855763D2*
X-1210160D1*
X-1302790Y852430D2*
X-1211510D1*
X-1302790Y849097D2*
X-1213713D1*
X-1302790Y845763D2*
X-1216476D1*
X-1302790Y842430D2*
X-1219457D1*
X-1302790Y839097D2*
X-1216651D1*
X-1302790Y835763D2*
X-1214275D1*
X-1302790Y832430D2*
X-1212359D1*
X-1302790Y829097D2*
X-1210963D1*
X-1236123Y825763D2*
X-1210148D1*
X-1232790Y822430D2*
X-1209745D1*
X-1236123Y819097D2*
X-1209569D1*
X-1302790Y815763D2*
X-1209511D1*
X-1302790Y812430D2*
X-1209601D1*
X-1302790Y809097D2*
X-1210030D1*
X-1302790Y805763D2*
X-1210968D1*
X-1302790Y802430D2*
X-1212503D1*
X-1302790Y799097D2*
X-1214943D1*
X-1302790Y795763D2*
X-1218540D1*
X-1302790Y792430D2*
X-1222790D1*
X-1262790Y775763D2*
X-1246123D1*
X-1270340Y772430D2*
X-1238573D1*
X-1276580Y769097D2*
X-1232333D1*
X-1281515Y765763D2*
X-1227412D1*
X-1285591Y762430D2*
X-1223439D1*
X-1289128Y759097D2*
X-1220223D1*
X-1292150Y755763D2*
X-1217679D1*
X-1294602Y752430D2*
X-1215591D1*
X-1296542Y749097D2*
X-1213751D1*
X-1297959Y745763D2*
X-1262122D1*
X-1246905D2*
X-1212131D1*
X-1298895Y742430D2*
X-1267274D1*
X-1242063D2*
X-1210872D1*
X-1299723Y739097D2*
X-1271182D1*
X-1238542D2*
X-1210113D1*
X-1300698Y735763D2*
X-1273821D1*
X-1236077D2*
X-1209733D1*
X-1301623Y732430D2*
X-1275592D1*
X-1234445D2*
X-1209565D1*
X-1302231Y729097D2*
X-1276910D1*
X-1233535D2*
X-1209497D1*
X-1302537Y725763D2*
X-1277915D1*
X-1233111D2*
X-1209471D1*
X-1302565Y722430D2*
X-1277435D1*
X-1233052D2*
X-1209462D1*
X-1302199Y719097D2*
X-1276314D1*
X-1233545D2*
X-1209471D1*
X-1301411Y715763D2*
X-1274455D1*
X-1234588D2*
X-1209587D1*
X-1300447Y712430D2*
X-1271978D1*
X-1237540D2*
X-1210025D1*
X-1299431Y709097D2*
X-1266034D1*
X-1244926D2*
X-1210940D1*
X-1298194Y705763D2*
X-1257079D1*
X-1256015D2*
X-1212233D1*
X-1296657Y702430D2*
X-1213743D1*
X-1294781Y699097D2*
X-1215461D1*
X-1292653Y695763D2*
X-1217537D1*
X-1290395Y692430D2*
X-1220126D1*
X-1287639Y689097D2*
X-1223210D1*
X-1283905Y685763D2*
X-1226929D1*
X-1279014Y682430D2*
X-1231536D1*
X-1272927Y679097D2*
X-1236974D1*
X-1266123Y675763D2*
X-1242790D1*
X-1232790Y669097D2*
X-1209457D1*
X-1232790Y665763D2*
X-1209457D1*
X-1232790Y662430D2*
X-1209457D1*
X-1232790Y659097D2*
X-1209457D1*
X-1232790Y655763D2*
X-1209457D1*
X-1232790Y652430D2*
X-1209457D1*
X-1232790Y649097D2*
X-1209457D1*
X-1302790Y645763D2*
X-1209457D1*
X-1302790Y642430D2*
X-1209457D1*
X-1302790Y639097D2*
X-1209457D1*
X-1302790Y635763D2*
X-1209457D1*
X-1302790Y632430D2*
X-1209457D1*
X-1302790Y629097D2*
X-1209457D1*
X-1302790Y625763D2*
X-1209457D1*
X-1302790Y622430D2*
X-1209457D1*
X-1302790Y619097D2*
X-1209457D1*
X-1232790Y615763D2*
X-1209457D1*
X-1232790Y612430D2*
X-1209457D1*
X-1232790Y609097D2*
X-1209457D1*
X-1232790Y605763D2*
X-1209457D1*
X-1232790Y602430D2*
X-1209457D1*
X-1232790Y599097D2*
X-1209457D1*
X-1302790Y582430D2*
X-1209457D1*
X-1302790Y579097D2*
X-1209457D1*
X-1302790Y575763D2*
X-1209457D1*
X-1302790Y572430D2*
X-1209457D1*
X-1302790Y569097D2*
X-1209457D1*
X-1302790Y565763D2*
X-1209457D1*
X-1302790Y562430D2*
X-1209457D1*
X-1302790Y559097D2*
X-1209457D1*
X-1302790Y555763D2*
X-1209457D1*
X-1262790Y539097D2*
X-1246123D1*
X-1270340Y535763D2*
X-1238573D1*
X-1276580Y532430D2*
X-1232333D1*
X-1281515Y529097D2*
X-1227412D1*
X-1285591Y525763D2*
X-1223439D1*
X-1289128Y522430D2*
X-1220223D1*
X-1292150Y519097D2*
X-1217679D1*
X-1294602Y515763D2*
X-1215591D1*
X-1296542Y512430D2*
X-1213751D1*
X-1297959Y509097D2*
X-1262122D1*
X-1246905D2*
X-1212131D1*
X-1298895Y505763D2*
X-1267274D1*
X-1242063D2*
X-1210872D1*
X-1299723Y502430D2*
X-1271182D1*
X-1238542D2*
X-1210113D1*
X-1300698Y499097D2*
X-1273821D1*
X-1236077D2*
X-1209733D1*
X-1301623Y495763D2*
X-1275592D1*
X-1234445D2*
X-1209565D1*
X-1302231Y492430D2*
X-1276910D1*
X-1233535D2*
X-1209497D1*
X-1302537Y489097D2*
X-1277915D1*
X-1233111D2*
X-1209471D1*
X-1302565Y485763D2*
X-1277435D1*
X-1233052D2*
X-1209462D1*
X-1302199Y482430D2*
X-1276314D1*
X-1233545D2*
X-1209471D1*
X-1301411Y479097D2*
X-1274455D1*
X-1234588D2*
X-1209587D1*
X-1300447Y475763D2*
X-1271978D1*
X-1237540D2*
X-1210025D1*
X-1299431Y472430D2*
X-1266034D1*
X-1244926D2*
X-1210940D1*
X-1298194Y469097D2*
X-1257079D1*
X-1256015D2*
X-1212233D1*
X-1296657Y465763D2*
X-1213743D1*
X-1294781Y462430D2*
X-1215461D1*
X-1292653Y459097D2*
X-1217537D1*
X-1290395Y455763D2*
X-1220126D1*
X-1287639Y452430D2*
X-1223210D1*
X-1283905Y449097D2*
X-1226929D1*
X-1279014Y445763D2*
X-1231536D1*
X-1272927Y442430D2*
X-1236974D1*
X-1266123Y439097D2*
X-1242790D1*
X-1302790Y425763D2*
X-1236123D1*
X-1302790Y422430D2*
X-1228586D1*
X-1302790Y419097D2*
X-1222463D1*
X-1302790Y415763D2*
X-1217967D1*
X-1302790Y412430D2*
X-1214806D1*
X-1302790Y409097D2*
X-1212561D1*
X-1302790Y405763D2*
X-1211036D1*
X-1302790Y402430D2*
X-1210173D1*
X-1302790Y399097D2*
X-1209754D1*
X-1236918Y395763D2*
X-1209572D1*
X-1234981Y392430D2*
X-1209499D1*
X-1235222Y389097D2*
X-1209472D1*
X-1237181Y385763D2*
X-1209475D1*
X-1302790Y382430D2*
X-1209589D1*
X-1302790Y379097D2*
X-1210025D1*
X-1302790Y375763D2*
X-1210953D1*
X-1302790Y372430D2*
X-1212376D1*
X-1302790Y369097D2*
X-1214467D1*
X-1302790Y365763D2*
X-1217792D1*
X-1302790Y362430D2*
X-1223094D1*
X-1302790Y359097D2*
X-1230655D1*
X-1302790Y355763D2*
X-1239457D1*
X-1276123Y265763D2*
X-1209457D1*
X-1282534Y262430D2*
X-1209457D1*
X-1287769Y259097D2*
X-1209457D1*
X-1291941Y255763D2*
X-1209457D1*
X-1295162Y252430D2*
X-1209457D1*
X-1297433Y249097D2*
X-1209457D1*
X-1299049Y245763D2*
X-1209457D1*
X-1300415Y242430D2*
X-1209457D1*
X-1301513Y239097D2*
X-1209457D1*
X-1302191Y235763D2*
X-1272136D1*
X-1302537Y232430D2*
X-1274097D1*
X-1302697Y229097D2*
X-1275290D1*
X-1302790Y225763D2*
X-1276123D1*
X-1302790Y212430D2*
X-1209457D1*
X-1302790Y209097D2*
X-1209457D1*
X-1302790Y205763D2*
X-1209457D1*
X-1302790Y202430D2*
X-1209457D1*
X-1302790Y199097D2*
X-1209457D1*
X-1302790Y195763D2*
X-1209457D1*
X-1302790Y192430D2*
X-1209457D1*
X-1302790Y189097D2*
X-1209457D1*
X-1302790Y185763D2*
X-1209457D1*
X-1262790Y169097D2*
X-1246123D1*
X-1270855Y165763D2*
X-1238573D1*
X-1277909Y162430D2*
X-1232333D1*
X-1283589Y159097D2*
X-1227399D1*
X-1287824Y155763D2*
X-1223322D1*
X-1290873Y152430D2*
X-1219785D1*
X-1293182Y149097D2*
X-1216763D1*
X-1295111Y145763D2*
X-1214312D1*
X-1296777Y142430D2*
X-1212371D1*
X-1298166Y139097D2*
X-1262122D1*
X-1246905D2*
X-1210967D1*
X-1299353Y135763D2*
X-1267274D1*
X-1242063D2*
X-1210149D1*
X-1300533Y132430D2*
X-1271170D1*
X-1238542D2*
X-1209746D1*
X-1301556Y129097D2*
X-1274132D1*
X-1236077D2*
X-1209569D1*
X-1302193Y125763D2*
X-1275255D1*
X-1234445D2*
X-1209498D1*
X-1302411Y122430D2*
X-1252790D1*
X-1233535D2*
X-1209471D1*
X-1302137Y119097D2*
X-1278844D1*
X-1273403D2*
X-1252790D1*
X-1233098D2*
X-1209462D1*
X-1301387Y115763D2*
X-1277674D1*
X-1274572D2*
X-1252790D1*
X-1232909D2*
X-1209458D1*
X-1300439Y112430D2*
X-1252790D1*
X-1232833D2*
X-1209457D1*
X-1299428Y109097D2*
X-1252790D1*
X-1232805D2*
X-1209457D1*
X-1298193Y105763D2*
X-1252803D1*
X-1232790D2*
X-1209457D1*
X-1296630Y102430D2*
X-1252933D1*
X-1294511Y99097D2*
X-1253487D1*
X-1291459Y95763D2*
X-1254829D1*
X-1287400Y92430D2*
X-1256961D1*
X-1282790Y89097D2*
X-1259457D1*
X-1232790Y82430D2*
X-1209457D1*
X-1232790Y79097D2*
X-1209457D1*
X-1232790Y75763D2*
X-1209457D1*
X-1232790Y72430D2*
X-1209457D1*
X-1232790Y69097D2*
X-1209457D1*
X-1232790Y65763D2*
X-1209457D1*
X-1232790Y62430D2*
X-1209457D1*
X-1302790Y59097D2*
X-1209457D1*
X-1302790Y55763D2*
X-1209457D1*
X-1302790Y52430D2*
X-1209457D1*
X-1302790Y49097D2*
X-1209457D1*
X-1302790Y45763D2*
X-1209457D1*
X-1302790Y42430D2*
X-1209457D1*
X-1302790Y39097D2*
X-1209457D1*
X-1302790Y35763D2*
X-1209457D1*
X-1302790Y32430D2*
X-1209457D1*
X-1232790Y29097D2*
X-1209457D1*
X-1232790Y25763D2*
X-1209457D1*
X-1232790Y22430D2*
X-1209457D1*
X-1232790Y19097D2*
X-1209457D1*
X-1232790Y15763D2*
X-1209457D1*
X-1232790Y12430D2*
X-1209457D1*
X-1302790Y-4237D2*
X-1209457D1*
X-1302790Y-7570D2*
X-1209457D1*
X-1302790Y-10903D2*
X-1209457D1*
X-1302790Y-14237D2*
X-1209457D1*
X-1302790Y-17570D2*
X-1209457D1*
X-1302790Y-20903D2*
X-1209457D1*
X-1302790Y-24237D2*
X-1209457D1*
X-1302790Y-27570D2*
X-1209457D1*
X-1302790Y-30903D2*
X-1209457D1*
X-1266123Y-34237D2*
X-1242790D1*
X-1266123Y-37570D2*
X-1242790D1*
X-1302790Y-47570D2*
X-1209457D1*
X-1302790Y-50903D2*
X-1209457D1*
X-1302790Y-54237D2*
X-1209457D1*
X-1302790Y-57570D2*
X-1209457D1*
X-1302790Y-60903D2*
X-1209457D1*
X-1302790Y-64237D2*
X-1209457D1*
X-1302790Y-67570D2*
X-1209457D1*
X-1302790Y-70903D2*
X-1209457D1*
X-1232790Y-157570D2*
X-1209457D1*
X-1232790Y-160903D2*
X-1209457D1*
X-1232790Y-164237D2*
X-1209457D1*
X-1232790Y-167570D2*
X-1209457D1*
X-1232790Y-170903D2*
X-1209457D1*
X-1232790Y-174237D2*
X-1209457D1*
X-1232790Y-177570D2*
X-1209457D1*
X-1302790Y-180903D2*
X-1209457D1*
X-1302790Y-184237D2*
X-1209457D1*
X-1302790Y-187570D2*
X-1209457D1*
X-1302790Y-190903D2*
X-1209457D1*
X-1302790Y-194237D2*
X-1209457D1*
X-1302790Y-197570D2*
X-1209457D1*
X-1302790Y-200903D2*
X-1209457D1*
X-1302790Y-204237D2*
X-1209457D1*
X-1302790Y-207570D2*
X-1209457D1*
X-1232790Y-210903D2*
X-1209457D1*
X-1232790Y-214237D2*
X-1209457D1*
X-1232790Y-217570D2*
X-1209457D1*
X-1232790Y-220903D2*
X-1209457D1*
X-1232790Y-224237D2*
X-1209457D1*
X-1232790Y-227570D2*
X-1209457D1*
X-1279457Y-240903D2*
X-1229457D1*
X-1285854Y-244237D2*
X-1223173D1*
X-1290972Y-247570D2*
X-1218365D1*
X-1294732Y-250903D2*
X-1214992D1*
X-1297259Y-254237D2*
X-1212639D1*
X-1298983Y-257570D2*
X-1211066D1*
X-1300392Y-260903D2*
X-1210184D1*
X-1301505Y-264237D2*
X-1209758D1*
X-1302188Y-267570D2*
X-1209573D1*
X-1302535Y-270903D2*
X-1275468D1*
X-1266123D2*
X-1243305D1*
X-1236778D2*
X-1209499D1*
X-1302690Y-274237D2*
X-1277418D1*
X-1266123D2*
X-1244132D1*
X-1234829D2*
X-1209472D1*
X-1302753Y-277570D2*
X-1278534D1*
X-1266123D2*
X-1244995D1*
X-1233713D2*
X-1209462D1*
X-1302777Y-280903D2*
X-1279075D1*
X-1266123D2*
X-1245578D1*
X-1233171D2*
X-1209458D1*
X-1302785Y-284237D2*
X-1279310D1*
X-1266123D2*
X-1245888D1*
X-1232937D2*
X-1209457D1*
X-1302788Y-287570D2*
X-1279403D1*
X-1266123D2*
X-1246030D1*
X-1232844D2*
X-1209457D1*
X-1302790Y-290903D2*
X-1279439D1*
X-1266123D2*
X-1246090D1*
X-1232808D2*
X-1209457D1*
X-1302790Y-294237D2*
X-1279457D1*
X-1266123D2*
X-1246123D1*
X-1232790D2*
X-1209457D1*
X-1302790Y-310903D2*
X-1229457D1*
X-1302790Y-314237D2*
X-1223173D1*
X-1302790Y-317570D2*
X-1218365D1*
X-1302790Y-320903D2*
X-1214992D1*
X-1302790Y-324237D2*
X-1212639D1*
X-1302790Y-327570D2*
X-1211066D1*
X-1302790Y-330903D2*
X-1210184D1*
X-1302790Y-334237D2*
X-1209758D1*
X-1302790Y-337570D2*
X-1209573D1*
X-1232790Y-340903D2*
X-1209512D1*
X-1232790Y-344237D2*
X-1209615D1*
X-1302790Y-347570D2*
X-1210160D1*
X-1302790Y-350903D2*
X-1211510D1*
X-1302790Y-354237D2*
X-1213713D1*
X-1302790Y-357570D2*
X-1216476D1*
X-1302790Y-360903D2*
X-1219457D1*
X-1302790Y-364237D2*
X-1216651D1*
X-1302790Y-367570D2*
X-1214275D1*
X-1302790Y-370903D2*
X-1212359D1*
X-1302790Y-374237D2*
X-1210963D1*
X-1236123Y-377570D2*
X-1210148D1*
X-1232790Y-380903D2*
X-1209745D1*
X-1236123Y-384237D2*
X-1209569D1*
X-1302790Y-387570D2*
X-1209511D1*
X-1302790Y-390903D2*
X-1209601D1*
X-1302790Y-394237D2*
X-1210030D1*
X-1302790Y-397570D2*
X-1210968D1*
X-1302790Y-400903D2*
X-1212503D1*
X-1302790Y-404237D2*
X-1214943D1*
X-1302790Y-407570D2*
X-1218540D1*
X-1302790Y-410903D2*
X-1222790D1*
X-1302790Y-430903D2*
X-1236123D1*
X-1302790Y-434237D2*
X-1229713D1*
X-1302790Y-437570D2*
X-1224478D1*
X-1302790Y-440903D2*
X-1220293D1*
X-1302790Y-444237D2*
X-1216967D1*
X-1302790Y-447570D2*
X-1214389D1*
X-1302790Y-450903D2*
X-1212399D1*
X-1302790Y-454237D2*
X-1210977D1*
X-1302790Y-457570D2*
X-1210152D1*
X-1236818Y-460903D2*
X-1209747D1*
X-1269457Y-464237D2*
X-1246123D1*
X-1234681D2*
X-1209569D1*
X-1269444Y-467570D2*
X-1244834D1*
X-1233871D2*
X-1209498D1*
X-1269326Y-470903D2*
X-1240913D1*
X-1237957D2*
X-1209484D1*
X-1268902Y-474237D2*
X-1209592D1*
X-1268090Y-477570D2*
X-1210026D1*
X-1267105Y-480903D2*
X-1210954D1*
X-1265969Y-484237D2*
X-1212363D1*
X-1264294Y-487570D2*
X-1214311D1*
X-1261817Y-490903D2*
X-1216955D1*
X-1258455Y-494237D2*
X-1220400D1*
X-1254203Y-497570D2*
X-1224690D1*
X-1249457Y-500903D2*
X-1229457D1*
X-1302790Y-590903D2*
X-1209457D1*
X-1302790Y-594237D2*
X-1209457D1*
X-1302790Y-597570D2*
X-1209457D1*
X-1302790Y-600903D2*
X-1209457D1*
X-1302790Y-604237D2*
X-1209457D1*
X-1302790Y-607570D2*
X-1209457D1*
X-1302790Y-610903D2*
X-1209457D1*
X-1302790Y-614237D2*
X-1209457D1*
X-1302790Y-617570D2*
X-1209457D1*
X-1266123Y-620903D2*
X-1242790D1*
X-1266123Y-624237D2*
X-1242790D1*
X-1302790Y-634237D2*
X-1209457D1*
X-1302790Y-637570D2*
X-1209457D1*
X-1302790Y-640903D2*
X-1209457D1*
X-1302790Y-644237D2*
X-1209457D1*
X-1302790Y-647570D2*
X-1209457D1*
X-1302790Y-650903D2*
X-1209457D1*
X-1302790Y-654237D2*
X-1209457D1*
X-1302790Y-657570D2*
X-1209457D1*
X-1276123Y-677570D2*
X-1209457D1*
X-1282922Y-680903D2*
X-1209457D1*
X-1288556Y-684237D2*
X-1209457D1*
X-1292793Y-687570D2*
X-1209457D1*
X-1295743Y-690903D2*
X-1209457D1*
X-1297742Y-694237D2*
X-1209457D1*
X-1299191Y-697570D2*
X-1209457D1*
X-1300474Y-700903D2*
X-1209457D1*
X-1301536Y-704237D2*
X-1209457D1*
X-1302186Y-707570D2*
X-1275328D1*
X-1302408Y-710903D2*
X-1277266D1*
X-1302136Y-714237D2*
X-1277025D1*
X-1301387Y-717570D2*
X-1275066D1*
X-1300439Y-720903D2*
X-1209457D1*
X-1299428Y-724237D2*
X-1209457D1*
X-1298193Y-727570D2*
X-1209457D1*
X-1296630Y-730903D2*
X-1209457D1*
X-1294494Y-734237D2*
X-1209457D1*
X-1291274Y-737570D2*
X-1209457D1*
X-1286479Y-740903D2*
X-1209457D1*
X-1280054Y-744237D2*
X-1209457D1*
X-1272790Y-747570D2*
X-1209457D1*
X-1302790Y-764237D2*
X-1229457D1*
X-1302790Y-767570D2*
X-1223173D1*
X-1302790Y-770903D2*
X-1218365D1*
X-1302790Y-774237D2*
X-1214992D1*
X-1302790Y-777570D2*
X-1212639D1*
X-1302790Y-780903D2*
X-1211066D1*
X-1302790Y-784237D2*
X-1210184D1*
X-1302790Y-787570D2*
X-1209758D1*
X-1302790Y-790903D2*
X-1209573D1*
X-1232790Y-794237D2*
X-1209512D1*
X-1232790Y-797570D2*
X-1209615D1*
X-1302790Y-800903D2*
X-1210160D1*
X-1302790Y-804237D2*
X-1211510D1*
X-1302790Y-807570D2*
X-1213713D1*
X-1302790Y-810903D2*
X-1216476D1*
X-1302790Y-814237D2*
X-1219457D1*
X-1302790Y-817570D2*
X-1216651D1*
X-1302790Y-820903D2*
X-1214275D1*
X-1302790Y-824237D2*
X-1212359D1*
X-1302790Y-827570D2*
X-1210963D1*
X-1236123Y-830903D2*
X-1210148D1*
X-1232790Y-834237D2*
X-1209745D1*
X-1236123Y-837570D2*
X-1209569D1*
X-1302790Y-840903D2*
X-1209511D1*
X-1302790Y-844237D2*
X-1209601D1*
X-1302790Y-847570D2*
X-1210030D1*
X-1302790Y-850903D2*
X-1210968D1*
X-1302790Y-854237D2*
X-1212503D1*
X-1302790Y-857570D2*
X-1214943D1*
X-1302790Y-860903D2*
X-1218540D1*
X-1302790Y-864237D2*
X-1222790D1*
X-726860Y617660D2*
D14*
X-731658Y615160D1*
X-735506Y612660D1*
X-738405Y610160D1*
X-740531Y607660D1*
X-742104Y605160D1*
X-743212Y602660D1*
X-743930Y600160D1*
X-744557Y597660D1*
X-745290Y595160D1*
X-745985Y592660D1*
X-746441Y590160D1*
X-746680Y587660D1*
X-746789Y585160D1*
X-746833Y582660D1*
X-746850Y580160D1*
X-746857Y577660D1*
X-746849Y575160D1*
X-746762Y572660D1*
X-746444Y570160D1*
X-745845Y567660D1*
X-745194Y565160D1*
X-744670Y562660D1*
X-744110Y560160D1*
X-743308Y557660D1*
X-742207Y555160D1*
X-740719Y552660D1*
X-738635Y550160D1*
X-735662Y547660D1*
X-731590Y545160D1*
X-726860Y542660D1*
X-711860Y617660D2*
X-707447Y615160D1*
X-703805Y612660D1*
X-701077Y610160D1*
X-698909Y607660D1*
X-697085Y605160D1*
X-695754Y602660D1*
X-694936Y600160D1*
X-694360Y597660D1*
X-671860Y617660D2*
X-675409Y615160D1*
X-678209Y612660D1*
X-680373Y610160D1*
X-681144Y607660D1*
X-681579Y605160D1*
X-681860Y602660D1*
X-661860Y617660D2*
Y615160D1*
Y612660D1*
Y610160D1*
Y607660D1*
Y605160D1*
Y602660D1*
Y600160D1*
Y597660D1*
Y595160D1*
Y592660D1*
Y590160D1*
Y587660D1*
Y585160D1*
Y582660D1*
Y580160D1*
Y577660D1*
Y575160D1*
Y572660D1*
Y570160D1*
Y567660D1*
Y565160D1*
Y562660D1*
Y560160D1*
Y557660D1*
Y555160D1*
Y552660D1*
Y550160D1*
Y547660D1*
Y545160D1*
Y542660D1*
X-719360Y610160D2*
X-723859Y607660D1*
X-727733Y605160D1*
X-730742Y602660D1*
X-732952Y600160D1*
X-734570Y597660D1*
X-735689Y595160D1*
X-736327Y592660D1*
X-736639Y590160D1*
X-736774Y587660D1*
X-736828Y585160D1*
X-736849Y582660D1*
X-736856Y580160D1*
X-736859Y577660D1*
X-736860Y575160D1*
X-736850Y572660D1*
X-736762Y570160D1*
X-736434Y567660D1*
X-735738Y565160D1*
X-734671Y562660D1*
X-733093Y560160D1*
X-731003Y557660D1*
X-726266Y555160D1*
X-719647Y552660D1*
X-711860Y550160D1*
X-719360Y610160D2*
X-714861Y607660D1*
X-710994Y605160D1*
X-708041Y602660D1*
X-705970Y600160D1*
X-704360Y597660D1*
X-669360Y607660D2*
X-674360Y605160D1*
X-679360Y602660D1*
X-669360Y607660D2*
Y605160D1*
Y602660D1*
Y600160D1*
Y597660D1*
Y595160D1*
Y592660D1*
Y590160D1*
Y587660D1*
Y585160D1*
Y582660D1*
Y580160D1*
Y577660D1*
Y575160D1*
Y572660D1*
Y570160D1*
Y567660D1*
Y565160D1*
Y562660D1*
Y560160D1*
Y557660D1*
Y555160D1*
Y552660D1*
Y550160D1*
Y547660D1*
Y545160D1*
Y542660D1*
X-704360Y562660D2*
X-705840Y560160D1*
X-707810Y557660D1*
X-712498Y555160D1*
X-719090Y552660D1*
X-726860Y550160D1*
X-694360Y562660D2*
X-694842Y560160D1*
X-695792Y557660D1*
X-697145Y555160D1*
X-698738Y552660D1*
X-700837Y550160D1*
X-703836Y547660D1*
X-707663Y545160D1*
X-711860Y542660D1*
X677933Y602177D2*
X673135Y599677D1*
X669287Y597177D1*
X666389Y594677D1*
X664263Y592177D1*
X662690Y589677D1*
X661581Y587177D1*
X660863Y584677D1*
X660237Y582177D1*
X659504Y579677D1*
X658809Y577177D1*
X658352Y574677D1*
X658113Y572177D1*
X658005Y569677D1*
X657960Y567177D1*
X657943Y564677D1*
X657937Y562177D1*
X657944Y559677D1*
X658031Y557177D1*
X658350Y554677D1*
X658948Y552177D1*
X659599Y549677D1*
X660123Y547177D1*
X660683Y544677D1*
X661486Y542177D1*
X662587Y539677D1*
X664074Y537177D1*
X666159Y534677D1*
X669131Y532177D1*
X673204Y529677D1*
X677933Y527177D1*
X692933Y602177D2*
X697347Y599677D1*
X700988Y597177D1*
X703717Y594677D1*
X705884Y592177D1*
X707708Y589677D1*
X709039Y587177D1*
X709857Y584677D1*
X710433Y582177D1*
X737933Y602177D2*
X734375Y599677D1*
X731487Y597177D1*
X729320Y594677D1*
X727716Y592177D1*
X726595Y589677D1*
X725913Y587177D1*
X725433Y584677D1*
X755433Y602177D2*
X758691Y599677D1*
X761202Y597177D1*
X763089Y594677D1*
X764616Y592177D1*
X765882Y589677D1*
X766762Y587177D1*
X767246Y584677D1*
X766756Y582177D1*
X766112Y579677D1*
X765389Y577177D1*
X764477Y574677D1*
X763330Y572177D1*
X761925Y569677D1*
X760340Y567177D1*
X758735Y564677D1*
X757016Y562177D1*
X755092Y559677D1*
X753163Y557177D1*
X751375Y554677D1*
X749572Y552177D1*
X747613Y549677D1*
X745670Y547177D1*
X743877Y544677D1*
X742063Y542177D1*
X740018Y539677D1*
X737769Y537177D1*
X735433Y534677D1*
X685433Y594677D2*
X680934Y592177D1*
X677060Y589677D1*
X674051Y587177D1*
X671842Y584677D1*
X670223Y582177D1*
X669104Y579677D1*
X668466Y577177D1*
X668155Y574677D1*
X668019Y572177D1*
X667965Y569677D1*
X667944Y567177D1*
X667937Y564677D1*
X667935Y562177D1*
X667934Y559677D1*
X667943Y557177D1*
X668031Y554677D1*
X668359Y552177D1*
X669056Y549677D1*
X670123Y547177D1*
X671701Y544677D1*
X673790Y542177D1*
X678528Y539677D1*
X685147Y537177D1*
X692933Y534677D1*
X685433Y594677D2*
X689932Y592177D1*
X693799Y589677D1*
X696753Y587177D1*
X698823Y584677D1*
X700433Y582177D1*
X745433Y594677D2*
X741312Y592177D1*
X737982Y589677D1*
X735338Y587177D1*
X732933Y584677D1*
X745433Y594677D2*
X749837Y592177D1*
X753381Y589677D1*
X756107Y587177D1*
X757178Y584677D1*
X757191Y582177D1*
X756690Y579677D1*
X755802Y577177D1*
X754701Y574677D1*
X753424Y572177D1*
X751880Y569677D1*
X750038Y567177D1*
X748142Y564677D1*
X746367Y562177D1*
X744559Y559677D1*
X742524Y557177D1*
X740351Y554677D1*
X738278Y552177D1*
X736422Y549677D1*
X734590Y547177D1*
X732620Y544677D1*
X730682Y542177D1*
X728985Y539677D1*
X727587Y537177D1*
X726555Y534677D1*
X725946Y532177D1*
X725632Y529677D1*
X725433Y527177D1*
X700433Y547177D2*
X698953Y544677D1*
X696983Y542177D1*
X692295Y539677D1*
X685703Y537177D1*
X677933Y534677D1*
X710433Y547177D2*
X709952Y544677D1*
X709002Y542177D1*
X707648Y539677D1*
X706055Y537177D1*
X703956Y534677D1*
X700958Y532177D1*
X697131Y529677D1*
X692933Y527177D1*
X767933Y534677D2*
Y532177D1*
Y529677D1*
Y527177D1*
X-757523Y285500D2*
X-762322Y283000D1*
X-766170Y280500D1*
X-769068Y278000D1*
X-771194Y275500D1*
X-772767Y273000D1*
X-773875Y270500D1*
X-774593Y268000D1*
X-775220Y265500D1*
X-775953Y263000D1*
X-776648Y260500D1*
X-777104Y258000D1*
X-777343Y255500D1*
X-777452Y253000D1*
X-777497Y250500D1*
X-777514Y248000D1*
X-777520Y245500D1*
X-777512Y243000D1*
X-777425Y240500D1*
X-777107Y238000D1*
X-776508Y235500D1*
X-775858Y233000D1*
X-775334Y230500D1*
X-774773Y228000D1*
X-773971Y225500D1*
X-772870Y223000D1*
X-771382Y220500D1*
X-769298Y218000D1*
X-766326Y215500D1*
X-762253Y213000D1*
X-757523Y210500D1*
X-742523Y285500D2*
X-738110Y283000D1*
X-734468Y280500D1*
X-731740Y278000D1*
X-729573Y275500D1*
X-727749Y273000D1*
X-726417Y270500D1*
X-725600Y268000D1*
X-725023Y265500D1*
X-697523Y285500D2*
X-701082Y283000D1*
X-703970Y280500D1*
X-706136Y278000D1*
X-707741Y275500D1*
X-708862Y273000D1*
X-709544Y270500D1*
X-710023Y268000D1*
X-682523Y285500D2*
X-678879Y283000D1*
X-675759Y280500D1*
X-673312Y278000D1*
X-671391Y275500D1*
X-670688Y273000D1*
X-670306Y270500D1*
X-670144Y268000D1*
X-670162Y265500D1*
X-670464Y263000D1*
X-671160Y260500D1*
X-672309Y258000D1*
X-674138Y255500D1*
X-676836Y253000D1*
X-680023Y250500D1*
X-677065Y248000D1*
X-674528Y245500D1*
X-672530Y243000D1*
X-670920Y240500D1*
X-669599Y238000D1*
X-668611Y235500D1*
X-668035Y233000D1*
X-667831Y230500D1*
X-668032Y228000D1*
X-668666Y225500D1*
X-669626Y223000D1*
X-670849Y220500D1*
X-672551Y218000D1*
X-675106Y215500D1*
X-678594Y213000D1*
X-682523Y210500D1*
X-750023Y278000D2*
X-754522Y275500D1*
X-758396Y273000D1*
X-761405Y270500D1*
X-763615Y268000D1*
X-765233Y265500D1*
X-766352Y263000D1*
X-766991Y260500D1*
X-767302Y258000D1*
X-767437Y255500D1*
X-767492Y253000D1*
X-767512Y250500D1*
X-767520Y248000D1*
X-767522Y245500D1*
X-767523Y243000D1*
X-767513Y240500D1*
X-767426Y238000D1*
X-767097Y235500D1*
X-766401Y233000D1*
X-765334Y230500D1*
X-763756Y228000D1*
X-761667Y225500D1*
X-756929Y223000D1*
X-750310Y220500D1*
X-742523Y218000D1*
X-750023Y278000D2*
X-745524Y275500D1*
X-741657Y273000D1*
X-738704Y270500D1*
X-736633Y268000D1*
X-735023Y265500D1*
X-692523Y278000D2*
X-695023Y275500D1*
X-697523Y273000D1*
X-700023Y270500D1*
X-702523Y268000D1*
X-690023Y278000D2*
X-685911Y275500D1*
X-682666Y273000D1*
X-680402Y270500D1*
X-678728Y268000D1*
X-678290Y265500D1*
X-678946Y263000D1*
X-680025Y260500D1*
X-682835Y258000D1*
X-686193Y255500D1*
X-689479Y253000D1*
X-691108Y250500D1*
X-691625Y248000D1*
X-688187Y245500D1*
X-684524Y243000D1*
X-681495Y240500D1*
X-679136Y238000D1*
X-678301Y235500D1*
X-677863Y233000D1*
X-677769Y230500D1*
X-677930Y228000D1*
X-679294Y225500D1*
X-683569Y223000D1*
X-689917Y220500D1*
X-697523Y218000D1*
X-735023Y230500D2*
X-736504Y228000D1*
X-738474Y225500D1*
X-743162Y223000D1*
X-749754Y220500D1*
X-757523Y218000D1*
X-725023Y230500D2*
X-725505Y228000D1*
X-726455Y225500D1*
X-727809Y223000D1*
X-729402Y220500D1*
X-731501Y218000D1*
X-734499Y215500D1*
X-738326Y213000D1*
X-742523Y210500D1*
X-712523Y228000D2*
X-711564Y225500D1*
X-710402Y223000D1*
X-708902Y220500D1*
X-706906Y218000D1*
X-704318Y215500D1*
X-701099Y213000D1*
X-697523Y210500D1*
X-702523Y228000D2*
X-700878Y225500D1*
X-696531Y223000D1*
X-690148Y220500D1*
X-682523Y218000D1*
X-82440Y-907047D2*
Y-909547D1*
Y-912047D1*
Y-914547D1*
Y-917047D1*
Y-919547D1*
Y-922047D1*
Y-924547D1*
Y-927047D1*
Y-929547D1*
Y-932047D1*
Y-934547D1*
Y-937047D1*
Y-939547D1*
Y-942047D1*
Y-944547D1*
Y-947047D1*
Y-949547D1*
Y-952047D1*
Y-954547D1*
Y-957047D1*
Y-959547D1*
Y-962047D1*
Y-964547D1*
Y-967047D1*
Y-969547D1*
Y-972047D1*
Y-974547D1*
Y-977047D1*
Y-979547D1*
Y-982047D1*
X-72440Y-907047D2*
Y-909547D1*
Y-912047D1*
Y-914547D1*
Y-917047D1*
Y-919547D1*
Y-922047D1*
Y-924547D1*
Y-927047D1*
Y-929547D1*
Y-932047D1*
Y-934547D1*
Y-937047D1*
Y-939547D1*
Y-942047D1*
Y-944547D1*
Y-947047D1*
Y-949547D1*
Y-952047D1*
Y-954547D1*
Y-957047D1*
Y-959547D1*
Y-962047D1*
Y-964547D1*
Y-967047D1*
Y-969547D1*
Y-972047D1*
Y-974547D1*
X-19940Y-907047D2*
Y-909547D1*
Y-912047D1*
Y-914547D1*
Y-917047D1*
Y-919547D1*
Y-922047D1*
Y-924547D1*
Y-927047D1*
Y-929547D1*
Y-932047D1*
Y-934547D1*
Y-937047D1*
Y-939547D1*
Y-942047D1*
Y-944547D1*
Y-947047D1*
Y-949547D1*
Y-952047D1*
Y-954547D1*
Y-957047D1*
Y-959547D1*
Y-962047D1*
Y-964547D1*
Y-967047D1*
Y-969547D1*
Y-972047D1*
Y-974547D1*
Y-977047D1*
Y-979547D1*
Y-982047D1*
X27560Y-907047D2*
Y-909547D1*
Y-912047D1*
Y-914547D1*
X45060Y-907047D2*
Y-909547D1*
Y-912047D1*
Y-914547D1*
Y-917047D1*
Y-919547D1*
Y-922047D1*
Y-924547D1*
Y-927047D1*
Y-929547D1*
Y-932047D1*
Y-934547D1*
Y-937047D1*
Y-939547D1*
Y-942047D1*
Y-944547D1*
Y-947047D1*
Y-949547D1*
Y-952047D1*
Y-954547D1*
Y-957047D1*
Y-959547D1*
Y-962047D1*
Y-964547D1*
Y-967047D1*
Y-969547D1*
Y-972047D1*
Y-974547D1*
Y-977047D1*
Y-979547D1*
Y-982047D1*
X80060Y-907047D2*
X84473Y-909547D1*
X88105Y-912047D1*
X90755Y-914547D1*
X92692Y-917047D1*
X94235Y-919547D1*
X95516Y-922047D1*
X96485Y-924547D1*
X97063Y-927047D1*
X97351Y-929547D1*
X97478Y-932047D1*
X97530Y-934547D1*
X97549Y-937047D1*
X97556Y-939547D1*
X97559Y-942047D1*
X97560Y-944547D1*
Y-947047D1*
Y-949547D1*
Y-952047D1*
Y-954547D1*
X97550Y-957047D1*
X97462Y-959547D1*
X97134Y-962047D1*
X96447Y-964547D1*
X95478Y-967047D1*
X94336Y-969547D1*
X92949Y-972047D1*
X90976Y-974547D1*
X88041Y-977047D1*
X84242Y-979547D1*
X80060Y-982047D1*
X-9940Y-914547D2*
Y-917047D1*
Y-919547D1*
Y-922047D1*
Y-924547D1*
Y-927047D1*
Y-929547D1*
Y-932047D1*
Y-934547D1*
Y-937047D1*
Y-939547D1*
Y-942047D1*
X55060Y-914547D2*
Y-917047D1*
Y-919547D1*
Y-922047D1*
Y-924547D1*
Y-927047D1*
Y-929547D1*
Y-932047D1*
Y-934547D1*
Y-937047D1*
Y-939547D1*
Y-942047D1*
Y-944547D1*
Y-947047D1*
Y-949547D1*
Y-952047D1*
Y-954547D1*
Y-957047D1*
Y-959547D1*
Y-962047D1*
Y-964547D1*
Y-967047D1*
Y-969547D1*
Y-972047D1*
X75060Y-974547D1*
X72560Y-914547D2*
X77059Y-917047D1*
X80923Y-919547D1*
X83844Y-922047D1*
X86064Y-924547D1*
X86837Y-927047D1*
X87253Y-929547D1*
X87440Y-932047D1*
X87516Y-934547D1*
X87545Y-937047D1*
X87555Y-939547D1*
X87558Y-942047D1*
X87559Y-944547D1*
X87560Y-947047D1*
Y-949547D1*
Y-952047D1*
Y-954547D1*
X87550Y-957047D1*
X87453Y-959547D1*
X87027Y-962047D1*
X86217Y-964547D1*
X83882Y-967047D1*
X77034Y-969547D1*
X66116Y-972047D1*
X52560Y-974547D1*
X22560Y-942047D2*
Y-944547D1*
Y-947047D1*
Y-949547D1*
X-9940D2*
Y-952047D1*
Y-954547D1*
Y-957047D1*
Y-959547D1*
Y-962047D1*
Y-964547D1*
Y-967047D1*
Y-969547D1*
Y-972047D1*
Y-974547D1*
X-34940D2*
Y-977047D1*
Y-979547D1*
Y-982047D1*
X27560Y-974547D2*
Y-977047D1*
Y-979547D1*
Y-982047D1*
X-1466403Y767350D2*
Y764850D1*
Y762350D1*
Y759850D1*
Y757350D1*
Y754850D1*
Y752350D1*
Y749850D1*
Y747350D1*
Y744850D1*
Y742350D1*
Y739850D1*
Y737350D1*
Y734850D1*
Y732350D1*
Y729850D1*
Y727350D1*
Y724850D1*
Y722350D1*
Y719850D1*
X-1466413Y717350D1*
X-1466501Y714850D1*
X-1466839Y712350D1*
X-1467672Y709850D1*
X-1468963Y707350D1*
X-1473381Y704850D1*
X-1480347Y702350D1*
X-1488903Y699850D1*
X-1456403Y767350D2*
Y764850D1*
Y762350D1*
Y759850D1*
Y757350D1*
Y754850D1*
Y752350D1*
Y749850D1*
Y747350D1*
Y744850D1*
Y742350D1*
Y739850D1*
Y737350D1*
Y734850D1*
Y732350D1*
Y729850D1*
Y727350D1*
Y724850D1*
Y722350D1*
Y719850D1*
X-1456413Y717350D1*
X-1456501Y714850D1*
X-1456820Y712350D1*
X-1457428Y709850D1*
X-1458167Y707350D1*
X-1459019Y704850D1*
X-1460276Y702350D1*
X-1462133Y699850D1*
X-1464654Y697350D1*
X-1467844Y694850D1*
X-1471403Y692350D1*
X-1431403Y767350D2*
X-1434952Y764850D1*
X-1437752Y762350D1*
X-1439916Y759850D1*
X-1440687Y757350D1*
X-1441122Y754850D1*
X-1441403Y752350D1*
X-1421403Y767350D2*
Y764850D1*
Y762350D1*
Y759850D1*
Y757350D1*
Y754850D1*
Y752350D1*
Y749850D1*
Y747350D1*
Y744850D1*
Y742350D1*
Y739850D1*
Y737350D1*
Y734850D1*
Y732350D1*
Y729850D1*
Y727350D1*
Y724850D1*
Y722350D1*
Y719850D1*
Y717350D1*
Y714850D1*
Y712350D1*
Y709850D1*
Y707350D1*
Y704850D1*
Y702350D1*
Y699850D1*
Y697350D1*
Y694850D1*
Y692350D1*
X-1428903Y757350D2*
X-1433903Y754850D1*
X-1438903Y752350D1*
X-1428903Y757350D2*
Y754850D1*
Y752350D1*
Y749850D1*
Y747350D1*
Y744850D1*
Y742350D1*
Y739850D1*
Y737350D1*
Y734850D1*
Y732350D1*
Y729850D1*
Y727350D1*
Y724850D1*
Y722350D1*
Y719850D1*
Y717350D1*
Y714850D1*
Y712350D1*
Y709850D1*
Y707350D1*
Y704850D1*
Y702350D1*
Y699850D1*
Y697350D1*
Y694850D1*
Y692350D1*
X-1493903Y704850D2*
X-1496403Y702350D1*
X-1498903Y699850D1*
X-1495484Y697350D1*
X-1491230Y694850D1*
X-1486403Y692350D1*
X-1491403Y704850D2*
X-1481716Y702350D1*
X-1471403Y699850D1*
X-1460443Y-685037D2*
Y-687537D1*
Y-690037D1*
Y-692537D1*
Y-695037D1*
Y-697537D1*
Y-700037D1*
Y-702537D1*
Y-705037D1*
Y-707537D1*
Y-710037D1*
Y-712537D1*
Y-715037D1*
Y-717537D1*
Y-720037D1*
Y-722537D1*
Y-725037D1*
Y-727537D1*
Y-730037D1*
Y-732537D1*
X-1460453Y-735037D1*
X-1460541Y-737537D1*
X-1460879Y-740037D1*
X-1461712Y-742537D1*
X-1463003Y-745037D1*
X-1467421Y-747537D1*
X-1474387Y-750037D1*
X-1482943Y-752537D1*
X-1450443Y-685037D2*
Y-687537D1*
Y-690037D1*
Y-692537D1*
Y-695037D1*
Y-697537D1*
Y-700037D1*
Y-702537D1*
Y-705037D1*
Y-707537D1*
Y-710037D1*
Y-712537D1*
Y-715037D1*
Y-717537D1*
Y-720037D1*
Y-722537D1*
Y-725037D1*
Y-727537D1*
Y-730037D1*
Y-732537D1*
X-1450453Y-735037D1*
X-1450541Y-737537D1*
X-1450860Y-740037D1*
X-1451468Y-742537D1*
X-1452207Y-745037D1*
X-1453059Y-747537D1*
X-1454316Y-750037D1*
X-1456173Y-752537D1*
X-1458694Y-755037D1*
X-1461884Y-757537D1*
X-1465443Y-760037D1*
X-1420443Y-685037D2*
X-1424002Y-687537D1*
X-1426890Y-690037D1*
X-1429056Y-692537D1*
X-1430661Y-695037D1*
X-1431782Y-697537D1*
X-1432464Y-700037D1*
X-1432943Y-702537D1*
X-1402943Y-685037D2*
X-1399685Y-687537D1*
X-1397175Y-690037D1*
X-1395287Y-692537D1*
X-1393761Y-695037D1*
X-1392495Y-697537D1*
X-1391615Y-700037D1*
X-1391131Y-702537D1*
X-1391620Y-705037D1*
X-1392264Y-707537D1*
X-1392988Y-710037D1*
X-1393899Y-712537D1*
X-1395047Y-715037D1*
X-1396451Y-717537D1*
X-1398037Y-720037D1*
X-1399642Y-722537D1*
X-1401361Y-725037D1*
X-1403284Y-727537D1*
X-1405214Y-730037D1*
X-1407002Y-732537D1*
X-1408805Y-735037D1*
X-1410763Y-737537D1*
X-1412707Y-740037D1*
X-1414500Y-742537D1*
X-1416314Y-745037D1*
X-1418359Y-747537D1*
X-1420608Y-750037D1*
X-1422943Y-752537D1*
X-1412943Y-692537D2*
X-1417064Y-695037D1*
X-1420395Y-697537D1*
X-1423039Y-700037D1*
X-1425443Y-702537D1*
X-1412943Y-692537D2*
X-1408540Y-695037D1*
X-1404996Y-697537D1*
X-1402270Y-700037D1*
X-1401199Y-702537D1*
X-1401186Y-705037D1*
X-1401687Y-707537D1*
X-1402575Y-710037D1*
X-1403676Y-712537D1*
X-1404953Y-715037D1*
X-1406496Y-717537D1*
X-1408339Y-720037D1*
X-1410235Y-722537D1*
X-1412009Y-725037D1*
X-1413817Y-727537D1*
X-1415852Y-730037D1*
X-1418025Y-732537D1*
X-1420098Y-735037D1*
X-1421955Y-737537D1*
X-1423787Y-740037D1*
X-1425757Y-742537D1*
X-1427695Y-745037D1*
X-1429391Y-747537D1*
X-1430790Y-750037D1*
X-1431822Y-752537D1*
X-1432430Y-755037D1*
X-1432745Y-757537D1*
X-1432943Y-760037D1*
X-1487943Y-747537D2*
X-1490443Y-750037D1*
X-1492943Y-752537D1*
X-1489524Y-755037D1*
X-1485270Y-757537D1*
X-1480443Y-760037D1*
X-1485443Y-747537D2*
X-1475756Y-750037D1*
X-1465443Y-752537D1*
X-1390443D2*
Y-755037D1*
Y-757537D1*
Y-760037D1*
X1417537Y-673067D2*
Y-675567D1*
Y-678067D1*
Y-680567D1*
Y-683067D1*
Y-685567D1*
Y-688067D1*
Y-690567D1*
Y-693067D1*
Y-695567D1*
Y-698067D1*
Y-700567D1*
Y-703067D1*
Y-705567D1*
Y-708067D1*
Y-710567D1*
Y-713067D1*
Y-715567D1*
Y-718067D1*
Y-720567D1*
X1417527Y-723067D1*
X1417439Y-725567D1*
X1417101Y-728067D1*
X1416268Y-730567D1*
X1414977Y-733067D1*
X1410559Y-735567D1*
X1403593Y-738067D1*
X1395037Y-740567D1*
X1427537Y-673067D2*
Y-675567D1*
Y-678067D1*
Y-680567D1*
Y-683067D1*
Y-685567D1*
Y-688067D1*
Y-690567D1*
Y-693067D1*
Y-695567D1*
Y-698067D1*
Y-700567D1*
Y-703067D1*
Y-705567D1*
Y-708067D1*
Y-710567D1*
Y-713067D1*
Y-715567D1*
Y-718067D1*
Y-720567D1*
X1427527Y-723067D1*
X1427439Y-725567D1*
X1427120Y-728067D1*
X1426512Y-730567D1*
X1425773Y-733067D1*
X1424921Y-735567D1*
X1423664Y-738067D1*
X1421807Y-740567D1*
X1419286Y-743067D1*
X1416096Y-745567D1*
X1412537Y-748067D1*
X1457537Y-673067D2*
X1453978Y-675567D1*
X1451090Y-678067D1*
X1448924Y-680567D1*
X1447319Y-683067D1*
X1446198Y-685567D1*
X1445516Y-688067D1*
X1445037Y-690567D1*
X1472537Y-673067D2*
X1476181Y-675567D1*
X1479301Y-678067D1*
X1481748Y-680567D1*
X1483669Y-683067D1*
X1484372Y-685567D1*
X1484754Y-688067D1*
X1484916Y-690567D1*
X1484898Y-693067D1*
X1484596Y-695567D1*
X1483900Y-698067D1*
X1482751Y-700567D1*
X1480922Y-703067D1*
X1478224Y-705567D1*
X1475037Y-708067D1*
X1477995Y-710567D1*
X1480532Y-713067D1*
X1482530Y-715567D1*
X1484140Y-718067D1*
X1485461Y-720567D1*
X1486449Y-723067D1*
X1487025Y-725567D1*
X1487229Y-728067D1*
X1487028Y-730567D1*
X1486394Y-733067D1*
X1485434Y-735567D1*
X1484211Y-738067D1*
X1482509Y-740567D1*
X1479954Y-743067D1*
X1476466Y-745567D1*
X1472537Y-748067D1*
X1462537Y-680567D2*
X1460037Y-683067D1*
X1457537Y-685567D1*
X1455037Y-688067D1*
X1452537Y-690567D1*
X1465037Y-680567D2*
X1469149Y-683067D1*
X1472394Y-685567D1*
X1474658Y-688067D1*
X1476332Y-690567D1*
X1476770Y-693067D1*
X1476114Y-695567D1*
X1475035Y-698067D1*
X1472225Y-700567D1*
X1468867Y-703067D1*
X1465581Y-705567D1*
X1463952Y-708067D1*
X1463435Y-710567D1*
X1466873Y-713067D1*
X1470536Y-715567D1*
X1473565Y-718067D1*
X1475924Y-720567D1*
X1476759Y-723067D1*
X1477197Y-725567D1*
X1477291Y-728067D1*
X1477130Y-730567D1*
X1475766Y-733067D1*
X1471491Y-735567D1*
X1465143Y-738067D1*
X1457537Y-740567D1*
X1442537Y-730567D2*
X1443496Y-733067D1*
X1444658Y-735567D1*
X1446158Y-738067D1*
X1448154Y-740567D1*
X1450742Y-743067D1*
X1453961Y-745567D1*
X1457537Y-748067D1*
X1452537Y-730567D2*
X1454182Y-733067D1*
X1458529Y-735567D1*
X1464912Y-738067D1*
X1472537Y-740567D1*
X1390037Y-735567D2*
X1387537Y-738067D1*
X1385037Y-740567D1*
X1388456Y-743067D1*
X1392710Y-745567D1*
X1397537Y-748067D1*
X1392537Y-735567D2*
X1402224Y-738067D1*
X1412537Y-740567D1*
X-757067Y1104793D2*
Y1102293D1*
Y1099793D1*
Y1097293D1*
Y1094793D1*
Y1092293D1*
Y1089793D1*
Y1087293D1*
Y1084793D1*
Y1082293D1*
Y1079793D1*
Y1077293D1*
Y1074793D1*
Y1072293D1*
Y1069793D1*
Y1067293D1*
Y1064793D1*
Y1062293D1*
Y1059793D1*
Y1057293D1*
Y1054793D1*
Y1052293D1*
Y1049793D1*
Y1047293D1*
Y1044793D1*
Y1042293D1*
Y1039793D1*
Y1037293D1*
Y1034793D1*
Y1032293D1*
Y1029793D1*
X-719567Y1104793D2*
X-715922Y1102293D1*
X-712802Y1099793D1*
X-710345Y1097293D1*
X-708611Y1094793D1*
X-707383Y1092293D1*
X-706352Y1089793D1*
X-705536Y1087293D1*
X-705114Y1084793D1*
X-705174Y1082293D1*
X-705667Y1079793D1*
X-706358Y1077293D1*
X-707192Y1074793D1*
X-708442Y1072293D1*
X-710280Y1069793D1*
X-712627Y1067293D1*
X-715062Y1064793D1*
X-717201Y1062293D1*
X-717718Y1059793D1*
X-717029Y1057293D1*
X-715877Y1054793D1*
X-714414Y1052293D1*
X-712941Y1049793D1*
X-711557Y1047293D1*
X-710238Y1044793D1*
X-708961Y1042293D1*
X-707697Y1039793D1*
X-706437Y1037293D1*
X-705119Y1034793D1*
X-703660Y1032293D1*
X-702067Y1029793D1*
X-679567Y1104793D2*
X-683116Y1102293D1*
X-685916Y1099793D1*
X-688080Y1097293D1*
X-688850Y1094793D1*
X-689286Y1092293D1*
X-689567Y1089793D1*
X-669567Y1104793D2*
Y1102293D1*
Y1099793D1*
Y1097293D1*
Y1094793D1*
Y1092293D1*
Y1089793D1*
Y1087293D1*
Y1084793D1*
Y1082293D1*
Y1079793D1*
Y1077293D1*
Y1074793D1*
Y1072293D1*
Y1069793D1*
Y1067293D1*
Y1064793D1*
Y1062293D1*
Y1059793D1*
Y1057293D1*
Y1054793D1*
Y1052293D1*
Y1049793D1*
Y1047293D1*
Y1044793D1*
Y1042293D1*
Y1039793D1*
Y1037293D1*
Y1034793D1*
Y1032293D1*
Y1029793D1*
X-747067Y1097293D2*
Y1094793D1*
Y1092293D1*
Y1089793D1*
Y1087293D1*
Y1084793D1*
Y1082293D1*
Y1079793D1*
Y1077293D1*
Y1074793D1*
Y1072293D1*
X-724567Y1069793D1*
X-727067Y1097293D2*
X-722954Y1094793D1*
X-719709Y1092293D1*
X-717436Y1089793D1*
X-715732Y1087293D1*
X-715228Y1084793D1*
X-715040Y1082293D1*
X-715665Y1079793D1*
X-717341Y1077293D1*
X-723927Y1074793D1*
X-735223Y1072293D1*
X-749567Y1069793D1*
X-677067Y1094793D2*
X-682067Y1092293D1*
X-687067Y1089793D1*
X-677067Y1094793D2*
Y1092293D1*
Y1089793D1*
Y1087293D1*
Y1084793D1*
Y1082293D1*
Y1079793D1*
Y1077293D1*
Y1074793D1*
Y1072293D1*
Y1069793D1*
Y1067293D1*
Y1064793D1*
Y1062293D1*
Y1059793D1*
Y1057293D1*
Y1054793D1*
Y1052293D1*
Y1049793D1*
Y1047293D1*
Y1044793D1*
Y1042293D1*
Y1039793D1*
Y1037293D1*
Y1034793D1*
Y1032293D1*
Y1029793D1*
X-747067Y1062293D2*
Y1059793D1*
Y1057293D1*
Y1054793D1*
Y1052293D1*
Y1049793D1*
Y1047293D1*
Y1044793D1*
Y1042293D1*
Y1039793D1*
Y1037293D1*
Y1034793D1*
Y1032293D1*
Y1029793D1*
X-732067Y1062293D2*
X-729963Y1059793D1*
X-728170Y1057293D1*
X-726646Y1054793D1*
X-725271Y1052293D1*
X-723972Y1049793D1*
X-722701Y1047293D1*
X-721446Y1044793D1*
X-720192Y1042293D1*
X-718943Y1039793D1*
X-717699Y1037293D1*
X-716515Y1034793D1*
X-715474Y1032293D1*
X-714567Y1029793D1*
X-169347Y983147D2*
Y980647D1*
Y978147D1*
Y975647D1*
Y973147D1*
Y970647D1*
Y968147D1*
Y965647D1*
Y963147D1*
Y960647D1*
Y958147D1*
Y955647D1*
Y953147D1*
Y950647D1*
Y948147D1*
Y945647D1*
Y943147D1*
Y940647D1*
Y938147D1*
Y935647D1*
Y933147D1*
Y930647D1*
Y928147D1*
Y925647D1*
Y923147D1*
Y920647D1*
Y918147D1*
Y915647D1*
Y913147D1*
Y910647D1*
Y908147D1*
X-131847Y983147D2*
X-127435Y980647D1*
X-124206Y978147D1*
X-121955Y975647D1*
X-120267Y973147D1*
X-118926Y970647D1*
X-117944Y968147D1*
X-117446Y965647D1*
X-117483Y963147D1*
X-118051Y960647D1*
X-119057Y958147D1*
X-120478Y955647D1*
X-122252Y953147D1*
X-123933Y950647D1*
X-125253Y948147D1*
X-125037Y945647D1*
X-123484Y943147D1*
X-121585Y940647D1*
X-119727Y938147D1*
X-118333Y935647D1*
X-117523Y933147D1*
X-117127Y930647D1*
X-116965Y928147D1*
X-116984Y925647D1*
X-117287Y923147D1*
X-117974Y920647D1*
X-119038Y918147D1*
X-120583Y915647D1*
X-122855Y913147D1*
X-125892Y910647D1*
X-129347Y908147D1*
X-99347Y983147D2*
Y980647D1*
Y978147D1*
Y975647D1*
Y973147D1*
Y970647D1*
Y968147D1*
Y965647D1*
Y963147D1*
Y960647D1*
Y958147D1*
Y955647D1*
Y953147D1*
Y950647D1*
Y948147D1*
Y945647D1*
Y943147D1*
Y940647D1*
Y938147D1*
Y935647D1*
Y933147D1*
Y930647D1*
Y928147D1*
Y925647D1*
Y923147D1*
Y920647D1*
Y918147D1*
Y915647D1*
Y913147D1*
Y910647D1*
Y908147D1*
X-89347Y983147D2*
Y980647D1*
Y978147D1*
Y975647D1*
Y973147D1*
Y970647D1*
Y968147D1*
Y965647D1*
Y963147D1*
Y960647D1*
Y958147D1*
Y955647D1*
Y953147D1*
Y950647D1*
Y948147D1*
X-54347Y983147D2*
Y980647D1*
Y978147D1*
Y975647D1*
Y973147D1*
Y970647D1*
Y968147D1*
Y965647D1*
Y963147D1*
Y960647D1*
Y958147D1*
Y955647D1*
Y953147D1*
Y950647D1*
Y948147D1*
X-46847Y983147D2*
Y980647D1*
Y978147D1*
Y975647D1*
Y973147D1*
Y970647D1*
Y968147D1*
Y965647D1*
Y963147D1*
Y960647D1*
Y958147D1*
Y955647D1*
Y953147D1*
Y950647D1*
Y948147D1*
Y945647D1*
Y943147D1*
Y940647D1*
Y938147D1*
Y935647D1*
Y933147D1*
Y930647D1*
Y928147D1*
Y925647D1*
Y923147D1*
Y920647D1*
Y918147D1*
Y915647D1*
Y913147D1*
Y910647D1*
Y908147D1*
X-19347Y983147D2*
X-22896Y980647D1*
X-25696Y978147D1*
X-27860Y975647D1*
X-28630Y973147D1*
X-29066Y970647D1*
X-29347Y968147D1*
X-9347Y983147D2*
Y980647D1*
Y978147D1*
Y975647D1*
Y973147D1*
Y970647D1*
Y968147D1*
Y965647D1*
Y963147D1*
Y960647D1*
Y958147D1*
Y955647D1*
Y953147D1*
Y950647D1*
Y948147D1*
Y945647D1*
Y943147D1*
Y940647D1*
Y938147D1*
Y935647D1*
Y933147D1*
Y930647D1*
Y928147D1*
Y925647D1*
Y923147D1*
Y920647D1*
Y918147D1*
Y915647D1*
Y913147D1*
Y910647D1*
Y908147D1*
X10653Y983147D2*
Y980647D1*
Y978147D1*
Y975647D1*
Y973147D1*
Y970647D1*
Y968147D1*
Y965647D1*
Y963147D1*
X50653Y983147D2*
X50644Y980647D1*
X50556Y978147D1*
X50237Y975647D1*
X49629Y973147D1*
X48900Y970647D1*
X48145Y968147D1*
X47314Y965647D1*
X46558Y963147D1*
X45990Y960647D1*
X45423Y958147D1*
X44702Y955647D1*
X43927Y953147D1*
X43155Y950647D1*
X42308Y948147D1*
X41471Y945647D1*
X40672Y943147D1*
X39824Y940647D1*
X39061Y938147D1*
X38491Y935647D1*
X37923Y933147D1*
X37202Y930647D1*
X36427Y928147D1*
X35655Y925647D1*
X34808Y923147D1*
X33971Y920647D1*
X33172Y918147D1*
X32324Y915647D1*
X31564Y913147D1*
X31042Y910647D1*
X30653Y908147D1*
X68153Y983147D2*
Y980647D1*
Y978147D1*
Y975647D1*
Y973147D1*
Y970647D1*
Y968147D1*
Y965647D1*
Y963147D1*
Y960647D1*
Y958147D1*
Y955647D1*
Y953147D1*
Y950647D1*
Y948147D1*
Y945647D1*
Y943147D1*
X105653Y983147D2*
Y980647D1*
Y978147D1*
Y975647D1*
Y973147D1*
X78153D1*
Y970647D1*
Y968147D1*
X78163Y965647D1*
X78258Y963147D1*
X78645Y960647D1*
X79499Y958147D1*
X80653Y955647D1*
X140653Y983147D2*
X137009Y980647D1*
X133889Y978147D1*
X131442Y975647D1*
X129521Y973147D1*
X128722Y970647D1*
X128021Y968147D1*
X127249Y965647D1*
X126538Y963147D1*
X126076Y960647D1*
X125834Y958147D1*
X125725Y955647D1*
X125680Y953147D1*
X125663Y950647D1*
X125657Y948147D1*
X125654Y945647D1*
Y943147D1*
X125653Y940647D1*
Y938147D1*
X125663Y935647D1*
X125751Y933147D1*
X126070Y930647D1*
X126668Y928147D1*
X127319Y925647D1*
X127853Y923147D1*
X128501Y920647D1*
X129632Y918147D1*
X131427Y915647D1*
X133921Y913147D1*
X137100Y910647D1*
X140653Y908147D1*
X155653Y983147D2*
X159298Y980647D1*
X162418Y978147D1*
X164865Y975647D1*
X166786Y973147D1*
X167489Y970647D1*
X167870Y968147D1*
X168042Y965647D1*
X168112Y963147D1*
X168139Y960647D1*
X168148Y958147D1*
X168152Y955647D1*
X168153Y953147D1*
Y950647D1*
Y948147D1*
Y945647D1*
Y943147D1*
Y940647D1*
Y938147D1*
Y935647D1*
Y933147D1*
Y930647D1*
Y928147D1*
X168144Y925647D1*
X168046Y923147D1*
X167630Y920647D1*
X166605Y918147D1*
X164854Y915647D1*
X162376Y913147D1*
X159204Y910647D1*
X155653Y908147D1*
X-159347Y975647D2*
Y973147D1*
Y970647D1*
Y968147D1*
Y965647D1*
Y963147D1*
Y960647D1*
Y958147D1*
Y955647D1*
Y953147D1*
X-134347Y950647D1*
Y975647D2*
X-131952Y973147D1*
X-129870Y970647D1*
X-128385Y968147D1*
X-127551Y965647D1*
X-127241Y963147D1*
X-127255Y960647D1*
X-128563Y958147D1*
X-134738Y955647D1*
X-145519Y953147D1*
X-159347Y950647D1*
X18153Y975647D2*
Y973147D1*
Y970647D1*
Y968147D1*
Y965647D1*
Y963147D1*
X40653Y975647D2*
X40267Y973147D1*
X39637Y970647D1*
X38902Y968147D1*
X38146Y965647D1*
X37305Y963147D1*
X36470Y960647D1*
X35671Y958147D1*
X34824Y955647D1*
X34061Y953147D1*
X33491Y950647D1*
X32923Y948147D1*
X32202Y945647D1*
X31427Y943147D1*
X30655Y940647D1*
X29808Y938147D1*
X28971Y935647D1*
X28172Y933147D1*
X27324Y930647D1*
X26561Y928147D1*
X25991Y925647D1*
X25423Y923147D1*
X24702Y920647D1*
X23927Y918147D1*
X23153Y915647D1*
X22294Y913147D1*
X21438Y910647D1*
X20653Y908147D1*
X148153Y975647D2*
X143750Y973147D1*
X140206Y970647D1*
X137480Y968147D1*
X136533Y965647D1*
X136025Y963147D1*
X135798Y960647D1*
X135706Y958147D1*
X135672Y955647D1*
X135660Y953147D1*
X135655Y950647D1*
X135654Y948147D1*
Y945647D1*
X135653Y943147D1*
Y940647D1*
Y938147D1*
Y935647D1*
Y933147D1*
X135663Y930647D1*
X135771Y928147D1*
X136034Y925647D1*
X137416Y923147D1*
X141695Y920647D1*
X148046Y918147D1*
X155653Y915647D1*
X148153Y975647D2*
X152557Y973147D1*
X156101Y970647D1*
X158827Y968147D1*
X159774Y965647D1*
X160282Y963147D1*
X160509Y960647D1*
X160600Y958147D1*
X160635Y955647D1*
X160647Y953147D1*
X160651Y950647D1*
X160653Y948147D1*
Y945647D1*
Y943147D1*
Y940647D1*
Y938147D1*
Y935647D1*
Y933147D1*
X160644Y930647D1*
X160536Y928147D1*
X160272Y925647D1*
X158891Y923147D1*
X154612Y920647D1*
X148261Y918147D1*
X140653Y915647D1*
X-16847Y973147D2*
X-21847Y970647D1*
X-26847Y968147D1*
X-16847Y973147D2*
Y970647D1*
Y968147D1*
Y965647D1*
Y963147D1*
Y960647D1*
Y958147D1*
Y955647D1*
Y953147D1*
Y950647D1*
Y948147D1*
Y945647D1*
Y943147D1*
Y940647D1*
Y938147D1*
Y935647D1*
Y933147D1*
Y930647D1*
Y928147D1*
Y925647D1*
Y923147D1*
Y920647D1*
Y918147D1*
Y915647D1*
Y913147D1*
Y910647D1*
Y908147D1*
X83153Y958147D2*
X80653Y955647D1*
X95653Y958147D2*
X99212Y955647D1*
X102100Y953147D1*
X104266Y950647D1*
X105870Y948147D1*
X106984Y945647D1*
X107621Y943147D1*
X107932Y940647D1*
X108067Y938147D1*
X108122Y935647D1*
X108142Y933147D1*
X108150Y930647D1*
X108142Y928147D1*
X108055Y925647D1*
X107727Y923147D1*
X107031Y920647D1*
X105964Y918147D1*
X104418Y915647D1*
X102146Y913147D1*
X99108Y910647D1*
X95653Y908147D1*
X88153Y950647D2*
X83613Y948147D1*
X79490Y945647D1*
X75653Y943147D1*
X90653Y950647D2*
X93058Y948147D1*
X95228Y945647D1*
X97031Y943147D1*
X98474Y940647D1*
X99523Y938147D1*
X100125Y935647D1*
X100339Y933147D1*
X100143Y930647D1*
X99500Y928147D1*
X98433Y925647D1*
X97062Y923147D1*
X93751Y920647D1*
X88938Y918147D1*
X83153Y915647D1*
X-159347Y943147D2*
Y940647D1*
Y938147D1*
Y935647D1*
Y933147D1*
Y930647D1*
Y928147D1*
Y925647D1*
Y923147D1*
Y920647D1*
Y918147D1*
X-136847Y915647D1*
X-134347Y943147D2*
X-131942Y940647D1*
X-129772Y938147D1*
X-127979Y935647D1*
X-126624Y933147D1*
X-125622Y930647D1*
X-125927Y928147D1*
X-126596Y925647D1*
X-128564Y923147D1*
X-135604Y920647D1*
X-147238Y918147D1*
X-161847Y915647D1*
X-89347Y940647D2*
Y938147D1*
Y935647D1*
Y933147D1*
Y930647D1*
Y928147D1*
Y925647D1*
Y923147D1*
Y920647D1*
Y918147D1*
Y915647D1*
Y913147D1*
Y910647D1*
Y908147D1*
X-54347Y940647D2*
Y938147D1*
Y935647D1*
Y933147D1*
Y930647D1*
Y928147D1*
Y925647D1*
Y923147D1*
Y920647D1*
Y918147D1*
Y915647D1*
Y913147D1*
Y910647D1*
Y908147D1*
X68153Y925647D2*
X68549Y923147D1*
X69267Y920647D1*
X70340Y918147D1*
X71888Y915647D1*
X74161Y913147D1*
X77199Y910647D1*
X80653Y908147D1*
X75653Y925647D2*
X77299Y923147D1*
X81646Y920647D1*
X88028Y918147D1*
X95653Y915647D1*
X-120757Y-527967D2*
X-121143Y-530467D1*
X-121773Y-532967D1*
X-122508Y-535467D1*
X-123274Y-537967D1*
X-124193Y-540467D1*
X-125259Y-542967D1*
X-126347Y-545467D1*
X-127325Y-547967D1*
X-128192Y-550467D1*
X-129078Y-552967D1*
X-129930Y-555467D1*
X-130745Y-557967D1*
X-131683Y-560467D1*
X-132755Y-562967D1*
X-133846Y-565467D1*
X-134824Y-567967D1*
X-135691Y-570467D1*
X-136578Y-572967D1*
X-137430Y-575467D1*
X-138235Y-577967D1*
X-139095Y-580467D1*
X-139937Y-582967D1*
X-140747Y-585467D1*
X-141683Y-587967D1*
X-142755Y-590467D1*
X-143846Y-592967D1*
X-144832Y-595467D1*
X-145769Y-597967D1*
X-146916Y-600467D1*
X-148257Y-602967D1*
X-110757Y-527967D2*
X-110361Y-530467D1*
X-109653Y-532967D1*
X-108687Y-535467D1*
X-107641Y-537967D1*
X-106679Y-540467D1*
X-105819Y-542967D1*
X-104934Y-545467D1*
X-104083Y-547967D1*
X-103268Y-550467D1*
X-102331Y-552967D1*
X-101258Y-555467D1*
X-100167Y-557967D1*
X-99189Y-560467D1*
X-98322Y-562967D1*
X-97435Y-565467D1*
X-96583Y-567967D1*
X-95768Y-570467D1*
X-94831Y-572967D1*
X-93758Y-575467D1*
X-92667Y-577967D1*
X-91689Y-580467D1*
X-90822Y-582967D1*
X-89935Y-585467D1*
X-89083Y-587967D1*
X-88278Y-590467D1*
X-87419Y-592967D1*
X-86569Y-595467D1*
X-85699Y-597967D1*
X-84581Y-600467D1*
X-83257Y-602967D1*
X-70757Y-527967D2*
Y-530467D1*
Y-532967D1*
Y-535467D1*
Y-537967D1*
Y-540467D1*
Y-542967D1*
Y-545467D1*
Y-547967D1*
Y-550467D1*
Y-552967D1*
Y-555467D1*
Y-557967D1*
Y-560467D1*
Y-562967D1*
Y-565467D1*
Y-567967D1*
Y-570467D1*
Y-572967D1*
Y-575467D1*
Y-577967D1*
Y-580467D1*
Y-582967D1*
Y-585467D1*
Y-587967D1*
Y-590467D1*
Y-592967D1*
Y-595467D1*
Y-597967D1*
Y-600467D1*
Y-602967D1*
X-60757Y-527967D2*
X-59892Y-530467D1*
X-59060Y-532967D1*
X-58258Y-535467D1*
X-57326Y-537967D1*
X-56247Y-540467D1*
X-55079Y-542967D1*
X-53860Y-545467D1*
X-52625Y-547967D1*
X-51388Y-550467D1*
X-50220Y-552967D1*
X-49209Y-555467D1*
X-48319Y-557967D1*
X-47350Y-560467D1*
X-46255Y-562967D1*
X-45082Y-565467D1*
X-43861Y-567967D1*
X-42618Y-570467D1*
X-41306Y-572967D1*
X-39849Y-575467D1*
X-38257Y-577967D1*
X-15757Y-527967D2*
X-16621Y-530467D1*
X-17453Y-532967D1*
X-18255Y-535467D1*
X-19187Y-537967D1*
X-20267Y-540467D1*
X-21434Y-542967D1*
X-22653Y-545467D1*
X-23888Y-547967D1*
X-25125Y-550467D1*
X-26294Y-552967D1*
X-27305Y-555467D1*
X-28194Y-557967D1*
X-29163Y-560467D1*
X-30258Y-562967D1*
X-31431Y-565467D1*
X-32652Y-567967D1*
X-33895Y-570467D1*
X-35208Y-572967D1*
X-36665Y-575467D1*
X-38257Y-577967D1*
X-5757Y-527967D2*
Y-530467D1*
Y-532967D1*
Y-535467D1*
Y-537967D1*
Y-540467D1*
Y-542967D1*
Y-545467D1*
Y-547967D1*
Y-550467D1*
Y-552967D1*
Y-555467D1*
Y-557967D1*
Y-560467D1*
Y-562967D1*
Y-565467D1*
Y-567967D1*
Y-570467D1*
Y-572967D1*
Y-575467D1*
Y-577967D1*
Y-580467D1*
Y-582967D1*
Y-585467D1*
Y-587967D1*
Y-590467D1*
Y-592967D1*
Y-595467D1*
Y-597967D1*
Y-600467D1*
Y-602967D1*
X24243Y-527967D2*
X20685Y-530467D1*
X17797Y-532967D1*
X15630Y-535467D1*
X14026Y-537967D1*
X12905Y-540467D1*
X12223Y-542967D1*
X11743Y-545467D1*
X39243Y-527967D2*
X42888Y-530467D1*
X46008Y-532967D1*
X48455Y-535467D1*
X50376Y-537967D1*
X51079Y-540467D1*
X51460Y-542967D1*
X51623Y-545467D1*
X51605Y-547967D1*
X51303Y-550467D1*
X50606Y-552967D1*
X49458Y-555467D1*
X47628Y-557967D1*
X44930Y-560467D1*
X41743Y-562967D1*
X44702Y-565467D1*
X47238Y-567967D1*
X49237Y-570467D1*
X50847Y-572967D1*
X52168Y-575467D1*
X53156Y-577967D1*
X53732Y-580467D1*
X53935Y-582967D1*
X53735Y-585467D1*
X53100Y-587967D1*
X52141Y-590467D1*
X50918Y-592967D1*
X49216Y-595467D1*
X46660Y-597967D1*
X43173Y-600467D1*
X39243Y-602967D1*
X76743Y-527967D2*
X73194Y-530467D1*
X70394Y-532967D1*
X68230Y-535467D1*
X67460Y-537967D1*
X67024Y-540467D1*
X66743Y-542967D1*
X86743Y-527967D2*
Y-530467D1*
Y-532967D1*
Y-535467D1*
Y-537967D1*
Y-540467D1*
Y-542967D1*
Y-545467D1*
Y-547967D1*
Y-550467D1*
Y-552967D1*
Y-555467D1*
Y-557967D1*
Y-560467D1*
Y-562967D1*
Y-565467D1*
Y-567967D1*
Y-570467D1*
Y-572967D1*
Y-575467D1*
Y-577967D1*
Y-580467D1*
Y-582967D1*
Y-585467D1*
Y-587967D1*
Y-590467D1*
Y-592967D1*
Y-595467D1*
Y-597967D1*
Y-600467D1*
Y-602967D1*
X119243Y-527967D2*
X115685Y-530467D1*
X112797Y-532967D1*
X110630Y-535467D1*
X109026Y-537967D1*
X107905Y-540467D1*
X107223Y-542967D1*
X106743Y-545467D1*
X136743Y-527967D2*
X140001Y-530467D1*
X142512Y-532967D1*
X144399Y-535467D1*
X145926Y-537967D1*
X147192Y-540467D1*
X148072Y-542967D1*
X148556Y-545467D1*
X148066Y-547967D1*
X147422Y-550467D1*
X146699Y-552967D1*
X145787Y-555467D1*
X144640Y-557967D1*
X143235Y-560467D1*
X141650Y-562967D1*
X140045Y-565467D1*
X138326Y-567967D1*
X136402Y-570467D1*
X134473Y-572967D1*
X132685Y-575467D1*
X130882Y-577967D1*
X128923Y-580467D1*
X126980Y-582967D1*
X125187Y-585467D1*
X123373Y-587967D1*
X121328Y-590467D1*
X119079Y-592967D1*
X116743Y-595467D1*
X29243Y-535467D2*
X26743Y-537967D1*
X24243Y-540467D1*
X21743Y-542967D1*
X19243Y-545467D1*
X31743Y-535467D2*
X35856Y-537967D1*
X39101Y-540467D1*
X41364Y-542967D1*
X43039Y-545467D1*
X43476Y-547967D1*
X42821Y-550467D1*
X41742Y-552967D1*
X38931Y-555467D1*
X35574Y-557967D1*
X32288Y-560467D1*
X30659Y-562967D1*
X30141Y-565467D1*
X33579Y-567967D1*
X37242Y-570467D1*
X40271Y-572967D1*
X42631Y-575467D1*
X43465Y-577967D1*
X43904Y-580467D1*
X43998Y-582967D1*
X43836Y-585467D1*
X42472Y-587967D1*
X38198Y-590467D1*
X31850Y-592967D1*
X24243Y-595467D1*
X126743Y-535467D2*
X122622Y-537967D1*
X119292Y-540467D1*
X116648Y-542967D1*
X114243Y-545467D1*
X126743Y-535467D2*
X131147Y-537967D1*
X134691Y-540467D1*
X137417Y-542967D1*
X138488Y-545467D1*
X138501Y-547967D1*
X138000Y-550467D1*
X137112Y-552967D1*
X136011Y-555467D1*
X134734Y-557967D1*
X133190Y-560467D1*
X131348Y-562967D1*
X129452Y-565467D1*
X127677Y-567967D1*
X125869Y-570467D1*
X123834Y-572967D1*
X121661Y-575467D1*
X119588Y-577967D1*
X117732Y-580467D1*
X115900Y-582967D1*
X113930Y-585467D1*
X111992Y-587967D1*
X110295Y-590467D1*
X108897Y-592967D1*
X107865Y-595467D1*
X107256Y-597967D1*
X106942Y-600467D1*
X106743Y-602967D1*
X79243Y-537967D2*
X74243Y-540467D1*
X69243Y-542967D1*
X79243Y-537967D2*
Y-540467D1*
Y-542967D1*
Y-545467D1*
Y-547967D1*
Y-550467D1*
Y-552967D1*
Y-555467D1*
Y-557967D1*
Y-560467D1*
Y-562967D1*
Y-565467D1*
Y-567967D1*
Y-570467D1*
Y-572967D1*
Y-575467D1*
Y-577967D1*
Y-580467D1*
Y-582967D1*
Y-585467D1*
Y-587967D1*
Y-590467D1*
Y-592967D1*
Y-595467D1*
Y-597967D1*
Y-600467D1*
Y-602967D1*
X-118257Y-542967D2*
X-118643Y-545467D1*
X-119273Y-547967D1*
X-120008Y-550467D1*
X-120764Y-552967D1*
X-121605Y-555467D1*
X-122440Y-557967D1*
X-123239Y-560467D1*
X-124096Y-562967D1*
X-124937Y-565467D1*
X-125739Y-567967D1*
X-126609Y-570467D1*
X-127470Y-572967D1*
X-128257Y-575467D1*
X-105757Y-577967D1*
X-113257Y-542967D2*
X-112870Y-545467D1*
X-112241Y-547967D1*
X-111506Y-550467D1*
X-110749Y-552967D1*
X-109908Y-555467D1*
X-109073Y-557967D1*
X-108275Y-560467D1*
X-107417Y-562967D1*
X-106576Y-565467D1*
X-105774Y-567967D1*
X-104904Y-570467D1*
X-104043Y-572967D1*
X-103257Y-575467D1*
X-125757Y-577967D1*
X-20757Y-555467D2*
X-21143Y-557967D1*
X-21773Y-560467D1*
X-22508Y-562967D1*
X-23274Y-565467D1*
X-24193Y-567967D1*
X-25269Y-570467D1*
X-26435Y-572967D1*
X-27653Y-575467D1*
X-28888Y-577967D1*
X-30125Y-580467D1*
X-31294Y-582967D1*
X-32312Y-585467D1*
X-33262Y-587967D1*
X-34413Y-590467D1*
X-35757Y-592967D1*
X-15757Y-555467D2*
Y-557967D1*
Y-560467D1*
Y-562967D1*
Y-565467D1*
Y-567967D1*
Y-570467D1*
Y-572967D1*
Y-575467D1*
Y-577967D1*
Y-580467D1*
Y-582967D1*
Y-585467D1*
Y-587967D1*
Y-590467D1*
Y-592967D1*
Y-595467D1*
Y-597967D1*
Y-600467D1*
Y-602967D1*
X-60757Y-557967D2*
Y-560467D1*
Y-562967D1*
Y-565467D1*
Y-567967D1*
Y-570467D1*
Y-572967D1*
Y-575467D1*
Y-577967D1*
Y-580467D1*
Y-582967D1*
Y-585467D1*
Y-587967D1*
Y-590467D1*
Y-592967D1*
Y-595467D1*
Y-597967D1*
Y-600467D1*
Y-602967D1*
X-55757Y-557967D2*
X-55361Y-560467D1*
X-54653Y-562967D1*
X-53677Y-565467D1*
X-52553Y-567967D1*
X-51351Y-570467D1*
X-50122Y-572967D1*
X-48887Y-575467D1*
X-47719Y-577967D1*
X-46709Y-580467D1*
X-45819Y-582967D1*
X-44842Y-585467D1*
X-43683Y-587967D1*
X-42302Y-590467D1*
X-40757Y-592967D1*
X9243Y-585467D2*
X10203Y-587967D1*
X11365Y-590467D1*
X12864Y-592967D1*
X14860Y-595467D1*
X17449Y-597967D1*
X20667Y-600467D1*
X24243Y-602967D1*
X19243Y-585467D2*
X20889Y-587967D1*
X25236Y-590467D1*
X31618Y-592967D1*
X39243Y-595467D1*
X-133257Y-585467D2*
X-133352Y-587967D1*
X-133672Y-590467D1*
X-134281Y-592967D1*
X-135018Y-595467D1*
X-135842Y-597967D1*
X-136942Y-600467D1*
X-138257Y-602967D1*
X-98257Y-585467D2*
X-97870Y-587967D1*
X-97241Y-590467D1*
X-96506Y-592967D1*
X-95747Y-595467D1*
X-94895Y-597967D1*
X-94040Y-600467D1*
X-93257Y-602967D1*
X149243Y-595467D2*
Y-597967D1*
Y-600467D1*
Y-602967D1*
X-723593Y-625510D2*
Y-628010D1*
Y-630510D1*
Y-633010D1*
Y-635510D1*
Y-638010D1*
Y-640510D1*
Y-643010D1*
Y-645510D1*
Y-648010D1*
Y-650510D1*
Y-653010D1*
Y-655510D1*
Y-658010D1*
Y-660510D1*
Y-663010D1*
Y-665510D1*
Y-668010D1*
Y-670510D1*
Y-673010D1*
Y-675510D1*
Y-678010D1*
Y-680510D1*
Y-683010D1*
Y-685510D1*
Y-688010D1*
Y-690510D1*
Y-693010D1*
Y-695510D1*
Y-698010D1*
Y-700510D1*
X-686093Y-625510D2*
X-682449Y-628010D1*
X-679329Y-630510D1*
X-676872Y-633010D1*
X-675138Y-635510D1*
X-673910Y-638010D1*
X-672879Y-640510D1*
X-672062Y-643010D1*
X-671641Y-645510D1*
X-671700Y-648010D1*
X-672193Y-650510D1*
X-672885Y-653010D1*
X-673719Y-655510D1*
X-674969Y-658010D1*
X-676807Y-660510D1*
X-679153Y-663010D1*
X-681588Y-665510D1*
X-683727Y-668010D1*
X-684244Y-670510D1*
X-683556Y-673010D1*
X-682404Y-675510D1*
X-680940Y-678010D1*
X-679467Y-680510D1*
X-678083Y-683010D1*
X-676764Y-685510D1*
X-675487Y-688010D1*
X-674224Y-690510D1*
X-672964Y-693010D1*
X-671645Y-695510D1*
X-670186Y-698010D1*
X-668593Y-700510D1*
X-641093Y-625510D2*
X-644652Y-628010D1*
X-647540Y-630510D1*
X-649706Y-633010D1*
X-651311Y-635510D1*
X-652432Y-638010D1*
X-653114Y-640510D1*
X-653593Y-643010D1*
X-623593Y-625510D2*
X-620335Y-628010D1*
X-617825Y-630510D1*
X-615937Y-633010D1*
X-614411Y-635510D1*
X-613145Y-638010D1*
X-612265Y-640510D1*
X-611781Y-643010D1*
X-612270Y-645510D1*
X-612914Y-648010D1*
X-613638Y-650510D1*
X-614549Y-653010D1*
X-615697Y-655510D1*
X-617101Y-658010D1*
X-618687Y-660510D1*
X-620292Y-663010D1*
X-622011Y-665510D1*
X-623934Y-668010D1*
X-625864Y-670510D1*
X-627652Y-673010D1*
X-629455Y-675510D1*
X-631413Y-678010D1*
X-633357Y-680510D1*
X-635150Y-683010D1*
X-636964Y-685510D1*
X-639009Y-688010D1*
X-641258Y-690510D1*
X-643593Y-693010D1*
X-713593Y-633010D2*
Y-635510D1*
Y-638010D1*
Y-640510D1*
Y-643010D1*
Y-645510D1*
Y-648010D1*
Y-650510D1*
Y-653010D1*
Y-655510D1*
Y-658010D1*
X-691093Y-660510D1*
X-693593Y-633010D2*
X-689481Y-635510D1*
X-686236Y-638010D1*
X-683962Y-640510D1*
X-682258Y-643010D1*
X-681755Y-645510D1*
X-681566Y-648010D1*
X-682192Y-650510D1*
X-683868Y-653010D1*
X-690453Y-655510D1*
X-701749Y-658010D1*
X-716093Y-660510D1*
X-633593Y-633010D2*
X-637714Y-635510D1*
X-641045Y-638010D1*
X-643689Y-640510D1*
X-646093Y-643010D1*
X-633593Y-633010D2*
X-629190Y-635510D1*
X-625646Y-638010D1*
X-622920Y-640510D1*
X-621849Y-643010D1*
X-621836Y-645510D1*
X-622337Y-648010D1*
X-623225Y-650510D1*
X-624326Y-653010D1*
X-625603Y-655510D1*
X-627146Y-658010D1*
X-628989Y-660510D1*
X-630885Y-663010D1*
X-632659Y-665510D1*
X-634467Y-668010D1*
X-636502Y-670510D1*
X-638675Y-673010D1*
X-640748Y-675510D1*
X-642605Y-678010D1*
X-644437Y-680510D1*
X-646407Y-683010D1*
X-648345Y-685510D1*
X-650041Y-688010D1*
X-651440Y-690510D1*
X-652472Y-693010D1*
X-653080Y-695510D1*
X-653395Y-698010D1*
X-653593Y-700510D1*
X-713593Y-668010D2*
Y-670510D1*
Y-673010D1*
Y-675510D1*
Y-678010D1*
Y-680510D1*
Y-683010D1*
Y-685510D1*
Y-688010D1*
Y-690510D1*
Y-693010D1*
Y-695510D1*
Y-698010D1*
Y-700510D1*
X-698593Y-668010D2*
X-696489Y-670510D1*
X-694697Y-673010D1*
X-693173Y-675510D1*
X-691797Y-678010D1*
X-690499Y-680510D1*
X-689228Y-683010D1*
X-687973Y-685510D1*
X-686719Y-688010D1*
X-685470Y-690510D1*
X-684225Y-693010D1*
X-683042Y-695510D1*
X-682001Y-698010D1*
X-681093Y-700510D1*
X-611093Y-693010D2*
Y-695510D1*
Y-698010D1*
Y-700510D1*
X1328367Y816377D2*
D12*
X1321510Y812567D1*
X1315606Y808757D1*
X1311021Y804947D1*
X1307653Y801137D1*
X1305187Y797327D1*
X1303467Y793517D1*
X1302360Y789707D1*
X1301400Y785897D1*
X1300281Y782087D1*
X1299221Y778277D1*
X1298525Y774467D1*
X1298161Y770657D1*
X1297995Y766847D1*
X1297927Y763037D1*
X1297901Y759227D1*
X1297892Y755417D1*
X1297888Y751607D1*
X1297887Y747797D1*
Y743987D1*
Y740177D1*
Y736367D1*
X1412187Y816377D2*
X1420671Y812567D1*
X1427301Y808757D1*
X1431893Y804947D1*
X1435090Y801137D1*
X1437541Y797327D1*
X1439531Y793517D1*
X1441022Y789707D1*
X1441907Y785897D1*
X1442348Y782087D1*
X1442542Y778277D1*
X1442621Y774467D1*
X1442650Y770657D1*
X1442661Y766847D1*
X1442665Y763037D1*
X1442666Y759227D1*
Y755417D1*
X1442667Y751607D1*
Y747797D1*
Y743987D1*
Y740177D1*
Y736367D1*
X1339797Y778277D2*
X1339208Y774467D1*
X1338263Y770657D1*
X1337277Y766847D1*
X1336610Y763037D1*
X1336255Y759227D1*
X1336094Y755417D1*
X1336027Y751607D1*
X1336001Y747797D1*
X1335992Y743987D1*
X1335988Y740177D1*
X1335987Y736367D1*
X1347417Y778277D2*
X1350478Y774467D1*
X1352706Y770657D1*
X1353982Y766847D1*
X1354601Y763037D1*
X1354868Y759227D1*
X1354975Y755417D1*
X1355015Y751607D1*
X1355029Y747797D1*
X1355034Y743987D1*
X1355036Y740177D1*
X1355037Y736367D1*
X1389327Y774467D2*
X1388738Y770657D1*
X1387793Y766847D1*
X1386807Y763037D1*
X1386140Y759227D1*
X1385785Y755417D1*
X1385624Y751607D1*
X1385557Y747797D1*
X1385531Y743987D1*
X1385521Y740177D1*
X1385517Y736367D1*
X1404567Y774467D2*
Y770657D1*
Y766847D1*
Y763037D1*
Y759227D1*
Y755417D1*
Y751607D1*
Y747797D1*
Y743987D1*
Y740177D1*
Y736367D1*
X1297887Y709697D2*
Y705887D1*
Y702077D1*
Y698267D1*
Y694457D1*
Y690647D1*
Y686837D1*
Y683027D1*
Y679217D1*
Y675407D1*
Y671597D1*
Y667787D1*
Y663977D1*
X1335987D1*
Y660167D1*
Y656357D1*
X1404567Y709697D2*
X1413197Y705887D1*
X1420329Y702077D1*
X1425969Y698267D1*
X1430628Y694457D1*
X1434656Y690647D1*
X1437991Y686837D1*
X1440442Y683027D1*
X1442233Y679217D1*
X1443773Y675407D1*
X1445021Y671597D1*
X1445793Y667787D1*
X1446186Y663977D1*
X1446362Y660167D1*
X1446434Y656357D1*
X1446462Y652547D1*
X1446457Y648737D1*
X1446326Y644927D1*
X1445827Y641117D1*
X1444766Y637307D1*
X1443155Y633497D1*
X1440943Y629687D1*
X1438066Y625877D1*
X1434717Y622067D1*
X1431117Y618257D1*
X1427427Y614447D1*
X1374087Y667787D2*
Y663977D1*
Y660167D1*
Y656357D1*
X1408377Y667787D2*
X1408362Y663977D1*
X1408213Y660167D1*
X1407580Y656357D1*
X1406046Y652547D1*
X1403610Y648737D1*
X1400757Y644927D1*
X1403978Y641117D1*
X1406843Y637307D1*
X1409652Y633497D1*
X1412661Y629687D1*
X1415628Y625877D1*
X1418332Y622067D1*
X1420939Y618257D1*
X1423617Y614447D1*
X1328367Y603017D2*
X1321510Y599207D1*
X1315606Y595397D1*
X1311021Y591587D1*
X1307653Y587777D1*
X1305187Y583967D1*
X1303467Y580157D1*
X1302360Y576347D1*
X1301400Y572537D1*
X1300281Y568727D1*
X1299221Y564917D1*
X1298525Y561107D1*
X1298161Y557297D1*
X1297995Y553487D1*
X1297927Y549677D1*
X1297901Y545867D1*
X1297892Y542057D1*
X1297888Y538247D1*
X1297887Y534437D1*
Y530627D1*
Y526817D1*
Y523007D1*
X1412187Y603017D2*
X1420671Y599207D1*
X1427301Y595397D1*
X1431893Y591587D1*
X1435090Y587777D1*
X1437541Y583967D1*
X1439531Y580157D1*
X1441022Y576347D1*
X1441907Y572537D1*
X1442348Y568727D1*
X1442542Y564917D1*
X1442621Y561107D1*
X1442650Y557297D1*
X1442661Y553487D1*
X1442665Y549677D1*
X1442666Y545867D1*
Y542057D1*
X1442667Y538247D1*
Y534437D1*
Y530627D1*
Y526817D1*
Y523007D1*
X1339797Y564917D2*
X1339208Y561107D1*
X1338263Y557297D1*
X1337277Y553487D1*
X1336610Y549677D1*
X1336255Y545867D1*
X1336094Y542057D1*
X1336027Y538247D1*
X1336001Y534437D1*
X1335992Y530627D1*
X1335988Y526817D1*
X1335987Y523007D1*
X1347417Y564917D2*
X1350478Y561107D1*
X1352706Y557297D1*
X1353982Y553487D1*
X1354601Y549677D1*
X1354868Y545867D1*
X1354975Y542057D1*
X1355015Y538247D1*
X1355029Y534437D1*
X1355034Y530627D1*
X1355036Y526817D1*
X1355037Y523007D1*
X1389327Y561107D2*
X1388738Y557297D1*
X1387793Y553487D1*
X1386807Y549677D1*
X1386140Y545867D1*
X1385785Y542057D1*
X1385624Y538247D1*
X1385557Y534437D1*
X1385531Y530627D1*
X1385521Y526817D1*
X1385517Y523007D1*
X1404567Y561107D2*
Y557297D1*
Y553487D1*
Y549677D1*
Y545867D1*
Y542057D1*
Y538247D1*
Y534437D1*
Y530627D1*
Y526817D1*
Y523007D1*
X1297887Y492527D2*
Y488717D1*
Y484907D1*
Y481097D1*
Y477287D1*
Y473477D1*
Y469667D1*
Y465857D1*
Y462047D1*
Y458237D1*
Y454427D1*
X1442667Y492527D2*
Y488717D1*
Y484907D1*
Y481097D1*
Y477287D1*
Y473477D1*
Y469667D1*
Y465857D1*
Y462047D1*
Y458237D1*
Y454427D1*
X1374087Y446807D2*
X1364104Y442997D1*
X1354311Y439187D1*
X1344666Y435377D1*
X1335205Y431567D1*
X1326051Y427757D1*
X1317379Y423947D1*
X1309681Y420137D1*
X1303126Y416327D1*
X1300013Y412517D1*
X1298881Y408707D1*
X1298295Y404897D1*
X1298042Y401087D1*
X1297942Y397277D1*
X1297906Y393467D1*
X1297893Y389657D1*
X1297889Y385847D1*
X1297887Y382037D1*
Y378227D1*
Y374417D1*
Y370607D1*
X1381707Y446807D2*
X1388738Y442997D1*
X1395413Y439187D1*
X1402047Y435377D1*
X1408985Y431567D1*
X1416117Y427757D1*
X1423059Y423947D1*
X1429402Y420137D1*
X1434751Y416327D1*
X1439200Y412517D1*
X1440968Y408707D1*
X1441937Y404897D1*
X1442379Y401087D1*
X1442560Y397277D1*
X1442629Y393467D1*
X1442654Y389657D1*
X1442618Y385847D1*
X1442185Y382037D1*
X1441148Y378227D1*
X1436695Y374417D1*
X1431237Y370607D1*
X1381707Y408707D2*
X1374087Y404897D1*
X1366467Y401087D1*
X1358832Y397277D1*
X1351078Y393467D1*
X1342972Y389657D1*
X1334440Y385847D1*
X1325843Y382037D1*
X1317555Y378227D1*
X1309562Y374417D1*
X1301697Y370607D1*
X1377897Y408707D2*
X1382455Y404897D1*
X1387847Y401087D1*
X1394176Y397277D1*
X1401044Y393467D1*
X1407910Y389657D1*
X1414511Y385847D1*
X1421104Y382037D1*
X1427987Y378227D1*
X1435047Y374417D1*
X1404567Y366797D2*
Y362987D1*
Y359177D1*
Y355367D1*
Y351557D1*
Y347747D1*
Y343937D1*
Y340127D1*
Y336317D1*
Y332507D1*
X1442667Y366797D2*
Y362987D1*
Y359177D1*
Y355367D1*
Y351557D1*
Y347747D1*
Y343937D1*
Y340127D1*
Y336317D1*
Y332507D1*
Y328697D1*
Y324887D1*
Y321077D1*
Y317267D1*
Y313457D1*
Y309647D1*
Y305837D1*
Y302027D1*
Y298217D1*
Y294407D1*
Y290597D1*
Y286787D1*
Y282977D1*
Y279167D1*
Y275357D1*
Y271547D1*
Y267737D1*
Y263927D1*
Y260117D1*
Y256307D1*
X1297887Y332507D2*
Y328697D1*
Y324887D1*
Y321077D1*
Y317267D1*
Y313457D1*
Y309647D1*
Y305837D1*
Y302027D1*
Y298217D1*
Y294407D1*
Y290597D1*
X1404567D2*
Y286787D1*
Y282977D1*
Y279167D1*
Y275357D1*
Y271547D1*
Y267737D1*
Y263927D1*
Y260117D1*
Y256307D1*
X1297887Y241067D2*
Y237257D1*
Y233447D1*
Y229637D1*
Y225827D1*
Y222017D1*
Y218207D1*
Y214397D1*
Y210587D1*
Y206777D1*
Y202967D1*
Y199157D1*
Y195347D1*
X1332177D1*
Y191537D1*
Y187727D1*
X1404567Y241067D2*
X1414242Y237257D1*
X1422264Y233447D1*
X1428588Y229637D1*
X1433301Y225827D1*
X1436717Y222017D1*
X1439325Y218207D1*
X1441517Y214397D1*
X1443402Y210587D1*
X1444853Y206777D1*
X1445724Y202967D1*
X1446160Y199157D1*
X1446353Y195347D1*
X1446431Y191537D1*
X1446460Y187727D1*
X1446471Y183917D1*
X1446475Y180107D1*
X1446461Y176297D1*
X1446328Y172487D1*
X1445827Y168677D1*
X1444766Y164867D1*
X1443155Y161057D1*
X1440943Y157247D1*
X1438037Y153437D1*
X1434397Y149627D1*
X1429611Y145817D1*
X1423279Y142007D1*
X1415997Y138197D1*
X1370277Y199157D2*
Y195347D1*
Y191537D1*
Y187727D1*
X1400757Y199157D2*
X1403788Y195347D1*
X1405929Y191537D1*
X1407380Y187727D1*
X1403812Y183917D1*
X1398844Y180107D1*
X1393137Y176297D1*
X1297887D2*
Y172487D1*
Y168677D1*
Y164867D1*
Y161057D1*
Y157247D1*
Y153437D1*
Y149627D1*
Y145817D1*
Y142007D1*
Y138197D1*
X-1302790Y892430D2*
D13*
Y889097D1*
Y885763D1*
Y882430D1*
Y879097D1*
Y875763D1*
Y872430D1*
Y869097D1*
Y865763D1*
X-1229457Y892430D2*
X-1223173Y889097D1*
X-1218365Y885763D1*
X-1214992Y882430D1*
X-1212639Y879097D1*
X-1211066Y875763D1*
X-1210184Y872430D1*
X-1209758Y869097D1*
X-1209573Y865763D1*
X-1209512Y862430D1*
X-1209615Y859097D1*
X-1210160Y855763D1*
X-1211510Y852430D1*
X-1213713Y849097D1*
X-1216476Y845763D1*
X-1219457Y842430D1*
X-1216651Y839097D1*
X-1214275Y835763D1*
X-1212359Y832430D1*
X-1210963Y829097D1*
X-1210148Y825763D1*
X-1209745Y822430D1*
X-1209569Y819097D1*
X-1209511Y815763D1*
X-1209601Y812430D1*
X-1210030Y809097D1*
X-1210968Y805763D1*
X-1212503Y802430D1*
X-1214943Y799097D1*
X-1218540Y795763D1*
X-1222790Y792430D1*
X-1232790Y865763D2*
Y862430D1*
Y859097D1*
Y855763D1*
X-1302790D2*
Y852430D1*
Y849097D1*
Y845763D1*
Y842430D1*
Y839097D1*
Y835763D1*
Y832430D1*
Y829097D1*
X-1239457D2*
X-1236123Y825763D1*
X-1232790Y822430D1*
X-1236123Y819097D1*
X-1239457Y815763D1*
X-1302790D2*
Y812430D1*
Y809097D1*
Y805763D1*
Y802430D1*
Y799097D1*
Y795763D1*
Y792430D1*
X-1262790Y775763D2*
X-1270340Y772430D1*
X-1276580Y769097D1*
X-1281515Y765763D1*
X-1285591Y762430D1*
X-1289128Y759097D1*
X-1292150Y755763D1*
X-1294602Y752430D1*
X-1296542Y749097D1*
X-1297959Y745763D1*
X-1298895Y742430D1*
X-1299723Y739097D1*
X-1300698Y735763D1*
X-1301623Y732430D1*
X-1302231Y729097D1*
X-1302537Y725763D1*
X-1302565Y722430D1*
X-1302199Y719097D1*
X-1301411Y715763D1*
X-1300447Y712430D1*
X-1299431Y709097D1*
X-1298194Y705763D1*
X-1296657Y702430D1*
X-1294781Y699097D1*
X-1292653Y695763D1*
X-1290395Y692430D1*
X-1287639Y689097D1*
X-1283905Y685763D1*
X-1279014Y682430D1*
X-1272927Y679097D1*
X-1266123Y675763D1*
X-1246123Y775763D2*
X-1238573Y772430D1*
X-1232333Y769097D1*
X-1227412Y765763D1*
X-1223439Y762430D1*
X-1220223Y759097D1*
X-1217679Y755763D1*
X-1215591Y752430D1*
X-1213751Y749097D1*
X-1212131Y745763D1*
X-1210872Y742430D1*
X-1210113Y739097D1*
X-1209733Y735763D1*
X-1209565Y732430D1*
X-1209497Y729097D1*
X-1209471Y725763D1*
X-1209462Y722430D1*
X-1209471Y719097D1*
X-1209587Y715763D1*
X-1210025Y712430D1*
X-1210940Y709097D1*
X-1212233Y705763D1*
X-1213743Y702430D1*
X-1215461Y699097D1*
X-1217537Y695763D1*
X-1220126Y692430D1*
X-1223210Y689097D1*
X-1226929Y685763D1*
X-1231536Y682430D1*
X-1236974Y679097D1*
X-1242790Y675763D1*
X-1256123Y749097D2*
X-1262122Y745763D1*
X-1267274Y742430D1*
X-1271182Y739097D1*
X-1273821Y735763D1*
X-1275592Y732430D1*
X-1276910Y729097D1*
X-1277915Y725763D1*
X-1277435Y722430D1*
X-1276314Y719097D1*
X-1274455Y715763D1*
X-1271978Y712430D1*
X-1266034Y709097D1*
X-1257079Y705763D1*
X-1246123Y702430D1*
X-1252790Y749097D2*
X-1246905Y745763D1*
X-1242063Y742430D1*
X-1238542Y739097D1*
X-1236077Y735763D1*
X-1234445Y732430D1*
X-1233535Y729097D1*
X-1233111Y725763D1*
X-1233052Y722430D1*
X-1233545Y719097D1*
X-1234588Y715763D1*
X-1237540Y712430D1*
X-1244926Y709097D1*
X-1256015Y705763D1*
X-1269457Y702430D1*
X-1232790Y669097D2*
Y665763D1*
Y662430D1*
Y659097D1*
Y655763D1*
Y652430D1*
Y649097D1*
Y645763D1*
X-1209457Y669097D2*
Y665763D1*
Y662430D1*
Y659097D1*
Y655763D1*
Y652430D1*
Y649097D1*
Y645763D1*
Y642430D1*
Y639097D1*
Y635763D1*
Y632430D1*
Y629097D1*
Y625763D1*
Y622430D1*
Y619097D1*
Y615763D1*
Y612430D1*
Y609097D1*
Y605763D1*
Y602430D1*
Y599097D1*
X-1302790Y645763D2*
Y642430D1*
Y639097D1*
Y635763D1*
Y632430D1*
Y629097D1*
Y625763D1*
Y622430D1*
Y619097D1*
X-1232790D2*
Y615763D1*
Y612430D1*
Y609097D1*
Y605763D1*
Y602430D1*
Y599097D1*
X-1302790Y582430D2*
Y579097D1*
Y575763D1*
Y572430D1*
Y569097D1*
Y565763D1*
Y562430D1*
Y559097D1*
Y555763D1*
X-1209457Y582430D2*
Y579097D1*
Y575763D1*
Y572430D1*
Y569097D1*
Y565763D1*
Y562430D1*
Y559097D1*
Y555763D1*
X-1262790Y539097D2*
X-1270340Y535763D1*
X-1276580Y532430D1*
X-1281515Y529097D1*
X-1285591Y525763D1*
X-1289128Y522430D1*
X-1292150Y519097D1*
X-1294602Y515763D1*
X-1296542Y512430D1*
X-1297959Y509097D1*
X-1298895Y505763D1*
X-1299723Y502430D1*
X-1300698Y499097D1*
X-1301623Y495763D1*
X-1302231Y492430D1*
X-1302537Y489097D1*
X-1302565Y485763D1*
X-1302199Y482430D1*
X-1301411Y479097D1*
X-1300447Y475763D1*
X-1299431Y472430D1*
X-1298194Y469097D1*
X-1296657Y465763D1*
X-1294781Y462430D1*
X-1292653Y459097D1*
X-1290395Y455763D1*
X-1287639Y452430D1*
X-1283905Y449097D1*
X-1279014Y445763D1*
X-1272927Y442430D1*
X-1266123Y439097D1*
X-1246123Y539097D2*
X-1238573Y535763D1*
X-1232333Y532430D1*
X-1227412Y529097D1*
X-1223439Y525763D1*
X-1220223Y522430D1*
X-1217679Y519097D1*
X-1215591Y515763D1*
X-1213751Y512430D1*
X-1212131Y509097D1*
X-1210872Y505763D1*
X-1210113Y502430D1*
X-1209733Y499097D1*
X-1209565Y495763D1*
X-1209497Y492430D1*
X-1209471Y489097D1*
X-1209462Y485763D1*
X-1209471Y482430D1*
X-1209587Y479097D1*
X-1210025Y475763D1*
X-1210940Y472430D1*
X-1212233Y469097D1*
X-1213743Y465763D1*
X-1215461Y462430D1*
X-1217537Y459097D1*
X-1220126Y455763D1*
X-1223210Y452430D1*
X-1226929Y449097D1*
X-1231536Y445763D1*
X-1236974Y442430D1*
X-1242790Y439097D1*
X-1256123Y512430D2*
X-1262122Y509097D1*
X-1267274Y505763D1*
X-1271182Y502430D1*
X-1273821Y499097D1*
X-1275592Y495763D1*
X-1276910Y492430D1*
X-1277915Y489097D1*
X-1277435Y485763D1*
X-1276314Y482430D1*
X-1274455Y479097D1*
X-1271978Y475763D1*
X-1266034Y472430D1*
X-1257079Y469097D1*
X-1246123Y465763D1*
X-1252790Y512430D2*
X-1246905Y509097D1*
X-1242063Y505763D1*
X-1238542Y502430D1*
X-1236077Y499097D1*
X-1234445Y495763D1*
X-1233535Y492430D1*
X-1233111Y489097D1*
X-1233052Y485763D1*
X-1233545Y482430D1*
X-1234588Y479097D1*
X-1237540Y475763D1*
X-1244926Y472430D1*
X-1256015Y469097D1*
X-1269457Y465763D1*
X-1302790Y425763D2*
Y422430D1*
Y419097D1*
Y415763D1*
Y412430D1*
Y409097D1*
Y405763D1*
Y402430D1*
Y399097D1*
X-1236123Y425763D2*
X-1228586Y422430D1*
X-1222463Y419097D1*
X-1217967Y415763D1*
X-1214806Y412430D1*
X-1212561Y409097D1*
X-1211036Y405763D1*
X-1210173Y402430D1*
X-1209754Y399097D1*
X-1209572Y395763D1*
X-1209499Y392430D1*
X-1209472Y389097D1*
X-1209475Y385763D1*
X-1209589Y382430D1*
X-1210025Y379097D1*
X-1210953Y375763D1*
X-1212376Y372430D1*
X-1214467Y369097D1*
X-1217792Y365763D1*
X-1223094Y362430D1*
X-1230655Y359097D1*
X-1239457Y355763D1*
Y399097D2*
X-1236918Y395763D1*
X-1234981Y392430D1*
X-1235222Y389097D1*
X-1237181Y385763D1*
X-1239457Y382430D1*
X-1302790D2*
Y379097D1*
Y375763D1*
Y372430D1*
Y369097D1*
Y365763D1*
Y362430D1*
Y359097D1*
Y355763D1*
X-1276123Y265763D2*
X-1282534Y262430D1*
X-1287769Y259097D1*
X-1291941Y255763D1*
X-1295162Y252430D1*
X-1297433Y249097D1*
X-1299049Y245763D1*
X-1300415Y242430D1*
X-1301513Y239097D1*
X-1302191Y235763D1*
X-1302537Y232430D1*
X-1302697Y229097D1*
X-1302790Y225763D1*
X-1209457Y265763D2*
Y262430D1*
Y259097D1*
Y255763D1*
Y252430D1*
Y249097D1*
Y245763D1*
Y242430D1*
Y239097D1*
X-1269457D2*
X-1272136Y235763D1*
X-1274097Y232430D1*
X-1275290Y229097D1*
X-1276123Y225763D1*
X-1302790Y212430D2*
Y209097D1*
Y205763D1*
Y202430D1*
Y199097D1*
Y195763D1*
Y192430D1*
Y189097D1*
Y185763D1*
X-1209457Y212430D2*
Y209097D1*
Y205763D1*
Y202430D1*
Y199097D1*
Y195763D1*
Y192430D1*
Y189097D1*
Y185763D1*
X-1262790Y169097D2*
X-1270855Y165763D1*
X-1277909Y162430D1*
X-1283589Y159097D1*
X-1287824Y155763D1*
X-1290873Y152430D1*
X-1293182Y149097D1*
X-1295111Y145763D1*
X-1296777Y142430D1*
X-1298166Y139097D1*
X-1299353Y135763D1*
X-1300533Y132430D1*
X-1301556Y129097D1*
X-1302193Y125763D1*
X-1302411Y122430D1*
X-1302137Y119097D1*
X-1301387Y115763D1*
X-1300439Y112430D1*
X-1299428Y109097D1*
X-1298193Y105763D1*
X-1296630Y102430D1*
X-1294511Y99097D1*
X-1291459Y95763D1*
X-1287400Y92430D1*
X-1282790Y89097D1*
X-1246123Y169097D2*
X-1238573Y165763D1*
X-1232333Y162430D1*
X-1227399Y159097D1*
X-1223322Y155763D1*
X-1219785Y152430D1*
X-1216763Y149097D1*
X-1214312Y145763D1*
X-1212371Y142430D1*
X-1210967Y139097D1*
X-1210149Y135763D1*
X-1209746Y132430D1*
X-1209569Y129097D1*
X-1209498Y125763D1*
X-1209471Y122430D1*
X-1209462Y119097D1*
X-1209458Y115763D1*
X-1209457Y112430D1*
Y109097D1*
Y105763D1*
X-1256123Y142430D2*
X-1262122Y139097D1*
X-1267274Y135763D1*
X-1271170Y132430D1*
X-1274132Y129097D1*
X-1275255Y125763D1*
X-1276123Y122430D1*
X-1252790D1*
Y119097D1*
Y115763D1*
Y112430D1*
Y109097D1*
X-1252803Y105763D1*
X-1252933Y102430D1*
X-1253487Y99097D1*
X-1254829Y95763D1*
X-1256961Y92430D1*
X-1259457Y89097D1*
X-1252790Y142430D2*
X-1246905Y139097D1*
X-1242063Y135763D1*
X-1238542Y132430D1*
X-1236077Y129097D1*
X-1234445Y125763D1*
X-1233535Y122430D1*
X-1233098Y119097D1*
X-1232909Y115763D1*
X-1232833Y112430D1*
X-1232805Y109097D1*
X-1232790Y105763D1*
X-1279457Y122430D2*
X-1278844Y119097D1*
X-1277674Y115763D1*
X-1276123Y112430D1*
X-1272790Y122430D2*
X-1273403Y119097D1*
X-1274572Y115763D1*
X-1276123Y112430D1*
X-1232790Y82430D2*
Y79097D1*
Y75763D1*
Y72430D1*
Y69097D1*
Y65763D1*
Y62430D1*
Y59097D1*
X-1209457Y82430D2*
Y79097D1*
Y75763D1*
Y72430D1*
Y69097D1*
Y65763D1*
Y62430D1*
Y59097D1*
Y55763D1*
Y52430D1*
Y49097D1*
Y45763D1*
Y42430D1*
Y39097D1*
Y35763D1*
Y32430D1*
Y29097D1*
Y25763D1*
Y22430D1*
Y19097D1*
Y15763D1*
Y12430D1*
X-1302790Y59097D2*
Y55763D1*
Y52430D1*
Y49097D1*
Y45763D1*
Y42430D1*
Y39097D1*
Y35763D1*
Y32430D1*
X-1232790D2*
Y29097D1*
Y25763D1*
Y22430D1*
Y19097D1*
Y15763D1*
Y12430D1*
X-1302790Y-4237D2*
Y-7570D1*
Y-10903D1*
Y-14237D1*
Y-17570D1*
Y-20903D1*
Y-24237D1*
Y-27570D1*
Y-30903D1*
Y-34237D1*
X-1266123D1*
Y-37570D1*
X-1209457Y-4237D2*
Y-7570D1*
Y-10903D1*
Y-14237D1*
Y-17570D1*
Y-20903D1*
Y-24237D1*
Y-27570D1*
Y-30903D1*
Y-34237D1*
X-1242790D1*
Y-37570D1*
X-1302790Y-47570D2*
Y-50903D1*
Y-54237D1*
Y-57570D1*
Y-60903D1*
Y-64237D1*
Y-67570D1*
Y-70903D1*
X-1209457Y-47570D2*
Y-50903D1*
Y-54237D1*
Y-57570D1*
Y-60903D1*
Y-64237D1*
Y-67570D1*
Y-70903D1*
X-1232790Y-157570D2*
Y-160903D1*
Y-164237D1*
Y-167570D1*
Y-170903D1*
Y-174237D1*
Y-177570D1*
Y-180903D1*
X-1209457Y-157570D2*
Y-160903D1*
Y-164237D1*
Y-167570D1*
Y-170903D1*
Y-174237D1*
Y-177570D1*
Y-180903D1*
Y-184237D1*
Y-187570D1*
Y-190903D1*
Y-194237D1*
Y-197570D1*
Y-200903D1*
Y-204237D1*
Y-207570D1*
Y-210903D1*
Y-214237D1*
Y-217570D1*
Y-220903D1*
Y-224237D1*
Y-227570D1*
X-1302790Y-180903D2*
Y-184237D1*
Y-187570D1*
Y-190903D1*
Y-194237D1*
Y-197570D1*
Y-200903D1*
Y-204237D1*
Y-207570D1*
X-1232790D2*
Y-210903D1*
Y-214237D1*
Y-217570D1*
Y-220903D1*
Y-224237D1*
Y-227570D1*
X-1279457Y-240903D2*
X-1285854Y-244237D1*
X-1290972Y-247570D1*
X-1294732Y-250903D1*
X-1297259Y-254237D1*
X-1298983Y-257570D1*
X-1300392Y-260903D1*
X-1301505Y-264237D1*
X-1302188Y-267570D1*
X-1302535Y-270903D1*
X-1302690Y-274237D1*
X-1302753Y-277570D1*
X-1302777Y-280903D1*
X-1302785Y-284237D1*
X-1302788Y-287570D1*
X-1302790Y-290903D1*
Y-294237D1*
X-1229457Y-240903D2*
X-1223173Y-244237D1*
X-1218365Y-247570D1*
X-1214992Y-250903D1*
X-1212639Y-254237D1*
X-1211066Y-257570D1*
X-1210184Y-260903D1*
X-1209758Y-264237D1*
X-1209573Y-267570D1*
X-1209499Y-270903D1*
X-1209472Y-274237D1*
X-1209462Y-277570D1*
X-1209458Y-280903D1*
X-1209457Y-284237D1*
Y-287570D1*
Y-290903D1*
Y-294237D1*
X-1272790Y-267570D2*
X-1275468Y-270903D1*
X-1277418Y-274237D1*
X-1278534Y-277570D1*
X-1279075Y-280903D1*
X-1279310Y-284237D1*
X-1279403Y-287570D1*
X-1279439Y-290903D1*
X-1279457Y-294237D1*
X-1266123Y-267570D2*
Y-270903D1*
Y-274237D1*
Y-277570D1*
Y-280903D1*
Y-284237D1*
Y-287570D1*
Y-290903D1*
Y-294237D1*
X-1242790Y-267570D2*
X-1243305Y-270903D1*
X-1244132Y-274237D1*
X-1244995Y-277570D1*
X-1245578Y-280903D1*
X-1245888Y-284237D1*
X-1246030Y-287570D1*
X-1246090Y-290903D1*
X-1246123Y-294237D1*
X-1239457Y-267570D2*
X-1236778Y-270903D1*
X-1234829Y-274237D1*
X-1233713Y-277570D1*
X-1233171Y-280903D1*
X-1232937Y-284237D1*
X-1232844Y-287570D1*
X-1232808Y-290903D1*
X-1232790Y-294237D1*
X-1302790Y-310903D2*
Y-314237D1*
Y-317570D1*
Y-320903D1*
Y-324237D1*
Y-327570D1*
Y-330903D1*
Y-334237D1*
Y-337570D1*
X-1229457Y-310903D2*
X-1223173Y-314237D1*
X-1218365Y-317570D1*
X-1214992Y-320903D1*
X-1212639Y-324237D1*
X-1211066Y-327570D1*
X-1210184Y-330903D1*
X-1209758Y-334237D1*
X-1209573Y-337570D1*
X-1209512Y-340903D1*
X-1209615Y-344237D1*
X-1210160Y-347570D1*
X-1211510Y-350903D1*
X-1213713Y-354237D1*
X-1216476Y-357570D1*
X-1219457Y-360903D1*
X-1216651Y-364237D1*
X-1214275Y-367570D1*
X-1212359Y-370903D1*
X-1210963Y-374237D1*
X-1210148Y-377570D1*
X-1209745Y-380903D1*
X-1209569Y-384237D1*
X-1209511Y-387570D1*
X-1209601Y-390903D1*
X-1210030Y-394237D1*
X-1210968Y-397570D1*
X-1212503Y-400903D1*
X-1214943Y-404237D1*
X-1218540Y-407570D1*
X-1222790Y-410903D1*
X-1232790Y-337570D2*
Y-340903D1*
Y-344237D1*
Y-347570D1*
X-1302790D2*
Y-350903D1*
Y-354237D1*
Y-357570D1*
Y-360903D1*
Y-364237D1*
Y-367570D1*
Y-370903D1*
Y-374237D1*
X-1239457D2*
X-1236123Y-377570D1*
X-1232790Y-380903D1*
X-1236123Y-384237D1*
X-1239457Y-387570D1*
X-1302790D2*
Y-390903D1*
Y-394237D1*
Y-397570D1*
Y-400903D1*
Y-404237D1*
Y-407570D1*
Y-410903D1*
Y-430903D2*
Y-434237D1*
Y-437570D1*
Y-440903D1*
Y-444237D1*
Y-447570D1*
Y-450903D1*
Y-454237D1*
Y-457570D1*
X-1236123Y-430903D2*
X-1229713Y-434237D1*
X-1224478Y-437570D1*
X-1220293Y-440903D1*
X-1216967Y-444237D1*
X-1214389Y-447570D1*
X-1212399Y-450903D1*
X-1210977Y-454237D1*
X-1210152Y-457570D1*
X-1209747Y-460903D1*
X-1209569Y-464237D1*
X-1209498Y-467570D1*
X-1209484Y-470903D1*
X-1209592Y-474237D1*
X-1210026Y-477570D1*
X-1210954Y-480903D1*
X-1212363Y-484237D1*
X-1214311Y-487570D1*
X-1216955Y-490903D1*
X-1220400Y-494237D1*
X-1224690Y-497570D1*
X-1229457Y-500903D1*
X-1239457Y-457570D2*
X-1236818Y-460903D1*
X-1234681Y-464237D1*
X-1233871Y-467570D1*
X-1237957Y-470903D1*
X-1242790Y-474237D1*
X-1269457Y-464237D2*
X-1269444Y-467570D1*
X-1269326Y-470903D1*
X-1268902Y-474237D1*
X-1268090Y-477570D1*
X-1267105Y-480903D1*
X-1265969Y-484237D1*
X-1264294Y-487570D1*
X-1261817Y-490903D1*
X-1258455Y-494237D1*
X-1254203Y-497570D1*
X-1249457Y-500903D1*
X-1246123Y-464237D2*
X-1244834Y-467570D1*
X-1240913Y-470903D1*
X-1236123Y-474237D1*
X-1302790Y-590903D2*
Y-594237D1*
Y-597570D1*
Y-600903D1*
Y-604237D1*
Y-607570D1*
Y-610903D1*
Y-614237D1*
Y-617570D1*
Y-620903D1*
X-1266123D1*
Y-624237D1*
X-1209457Y-590903D2*
Y-594237D1*
Y-597570D1*
Y-600903D1*
Y-604237D1*
Y-607570D1*
Y-610903D1*
Y-614237D1*
Y-617570D1*
Y-620903D1*
X-1242790D1*
Y-624237D1*
X-1302790Y-634237D2*
Y-637570D1*
Y-640903D1*
Y-644237D1*
Y-647570D1*
Y-650903D1*
Y-654237D1*
Y-657570D1*
X-1209457Y-634237D2*
Y-637570D1*
Y-640903D1*
Y-644237D1*
Y-647570D1*
Y-650903D1*
Y-654237D1*
Y-657570D1*
X-1276123Y-677570D2*
X-1282922Y-680903D1*
X-1288556Y-684237D1*
X-1292793Y-687570D1*
X-1295743Y-690903D1*
X-1297742Y-694237D1*
X-1299191Y-697570D1*
X-1300474Y-700903D1*
X-1301536Y-704237D1*
X-1302186Y-707570D1*
X-1302408Y-710903D1*
X-1302136Y-714237D1*
X-1301387Y-717570D1*
X-1300439Y-720903D1*
X-1299428Y-724237D1*
X-1298193Y-727570D1*
X-1296630Y-730903D1*
X-1294494Y-734237D1*
X-1291274Y-737570D1*
X-1286479Y-740903D1*
X-1280054Y-744237D1*
X-1272790Y-747570D1*
X-1209457Y-677570D2*
Y-680903D1*
Y-684237D1*
Y-687570D1*
Y-690903D1*
Y-694237D1*
Y-697570D1*
Y-700903D1*
Y-704237D1*
X-1272790D2*
X-1275328Y-707570D1*
X-1277266Y-710903D1*
X-1277025Y-714237D1*
X-1275066Y-717570D1*
X-1272790Y-720903D1*
X-1209457D2*
Y-724237D1*
Y-727570D1*
Y-730903D1*
Y-734237D1*
Y-737570D1*
Y-740903D1*
Y-744237D1*
Y-747570D1*
X-1302790Y-764237D2*
Y-767570D1*
Y-770903D1*
Y-774237D1*
Y-777570D1*
Y-780903D1*
Y-784237D1*
Y-787570D1*
Y-790903D1*
X-1229457Y-764237D2*
X-1223173Y-767570D1*
X-1218365Y-770903D1*
X-1214992Y-774237D1*
X-1212639Y-777570D1*
X-1211066Y-780903D1*
X-1210184Y-784237D1*
X-1209758Y-787570D1*
X-1209573Y-790903D1*
X-1209512Y-794237D1*
X-1209615Y-797570D1*
X-1210160Y-800903D1*
X-1211510Y-804237D1*
X-1213713Y-807570D1*
X-1216476Y-810903D1*
X-1219457Y-814237D1*
X-1216651Y-817570D1*
X-1214275Y-820903D1*
X-1212359Y-824237D1*
X-1210963Y-827570D1*
X-1210148Y-830903D1*
X-1209745Y-834237D1*
X-1209569Y-837570D1*
X-1209511Y-840903D1*
X-1209601Y-844237D1*
X-1210030Y-847570D1*
X-1210968Y-850903D1*
X-1212503Y-854237D1*
X-1214943Y-857570D1*
X-1218540Y-860903D1*
X-1222790Y-864237D1*
X-1232790Y-790903D2*
Y-794237D1*
Y-797570D1*
Y-800903D1*
X-1302790D2*
Y-804237D1*
Y-807570D1*
Y-810903D1*
Y-814237D1*
Y-817570D1*
Y-820903D1*
Y-824237D1*
Y-827570D1*
X-1239457D2*
X-1236123Y-830903D1*
X-1232790Y-834237D1*
X-1236123Y-837570D1*
X-1239457Y-840903D1*
X-1302790D2*
Y-844237D1*
Y-847570D1*
Y-850903D1*
Y-854237D1*
Y-857570D1*
Y-860903D1*
Y-864237D1*
M02*
