G04 DipTrace 3.2.0.1*
G04 TopSilk.gbr*
%MOIN*%
G04 #@! TF.FileFunction,Legend,Top*
G04 #@! TF.Part,Single*
%ADD10C,0.009843*%
%ADD12C,0.003*%
%ADD13C,0.002625*%
%ADD14C,0.001969*%
%ADD18C,0.007874*%
%ADD25C,0.027574*%
%FSLAX26Y26*%
G04*
G70*
G90*
G75*
G01*
G04 TopSilk*
%LPD*%
X-74782Y-320846D2*
D10*
Y-269705D1*
X-458661Y458661D2*
X458661D1*
Y-458661D1*
X-458661D1*
Y458661D1*
X-187008Y0D2*
G02X-187008Y0I186999J0D01*
G01*
D25*
X186486Y-3983D3*
X92106Y251349D2*
D18*
X226207D1*
Y191260D1*
X92106D1*
Y251349D1*
X-316493Y65012D2*
X-256404D1*
Y-69089D1*
X-316493D1*
Y65012D1*
X-349041Y389799D2*
X-214940D1*
Y329710D1*
X-349041D1*
Y389799D1*
X-347992Y320762D2*
X-213891D1*
Y260673D1*
X-347992D1*
Y320762D1*
X-67192Y333555D2*
X66909D1*
Y257470D1*
X-67192D1*
Y333555D1*
X-330669Y-275554D2*
X-196568D1*
Y-335643D1*
X-330669D1*
Y-275554D1*
X-286165Y243173D2*
D14*
X-280260D1*
X-264512D2*
X-260575D1*
X-288054Y242189D2*
X-278522D1*
X-265909D2*
X-260575D1*
X-289569Y241205D2*
X-277089D1*
X-267011D2*
X-260575D1*
X-290711Y240220D2*
X-276014D1*
X-267863D2*
X-260575D1*
X-291547Y239236D2*
X-284984D1*
X-281441D2*
X-275161D1*
X-268167D2*
X-260575D1*
X-292167Y238252D2*
X-286509D1*
X-279919D2*
X-274443D1*
X-268338D2*
X-265496D1*
X-263528D2*
X-260575D1*
X-292603Y237268D2*
X-287694D1*
X-278756D2*
X-273919D1*
X-268449D2*
X-267465D1*
X-263528D2*
X-260575D1*
X-292886Y236283D2*
X-288564D1*
X-277941D2*
X-273597D1*
X-263528D2*
X-260575D1*
X-293133Y235299D2*
X-289201D1*
X-277307D2*
X-273370D1*
X-263528D2*
X-260575D1*
X-293421Y234315D2*
X-289641D1*
X-263528D2*
X-260575D1*
X-293695Y233331D2*
X-289893D1*
X-263528D2*
X-260575D1*
X-293874Y232346D2*
X-290015D1*
X-263528D2*
X-260575D1*
X-293969Y231362D2*
X-290069D1*
X-263528D2*
X-260575D1*
X-294011Y230378D2*
X-290090D1*
X-263528D2*
X-260575D1*
X-294029Y229394D2*
X-290098D1*
X-263528D2*
X-260575D1*
X-294036Y228409D2*
X-290101D1*
X-263528D2*
X-260575D1*
X-294038Y227425D2*
X-290102D1*
X-263528D2*
X-260575D1*
X-294035Y226441D2*
X-290102D1*
X-263528D2*
X-260575D1*
X-294001Y225457D2*
X-290098D1*
X-263528D2*
X-260575D1*
X-293875Y224472D2*
X-290064D1*
X-263528D2*
X-260575D1*
X-293640Y223488D2*
X-289935D1*
X-263528D2*
X-260575D1*
X-293384Y222504D2*
X-289660D1*
X-263528D2*
X-260575D1*
X-293177Y221520D2*
X-289240D1*
X-277307D2*
X-273370D1*
X-263528D2*
X-260575D1*
X-292957Y220535D2*
X-288619D1*
X-277890D2*
X-273560D1*
X-263528D2*
X-260575D1*
X-292641Y219551D2*
X-287797D1*
X-278665D2*
X-273934D1*
X-263528D2*
X-260575D1*
X-292207Y218567D2*
X-285931D1*
X-280511D2*
X-274467D1*
X-263528D2*
X-260575D1*
X-291622Y217583D2*
X-283325D1*
X-283106D2*
X-275094D1*
X-263528D2*
X-260575D1*
X-290801Y216598D2*
X-275920D1*
X-263528D2*
X-260575D1*
X-289631Y215614D2*
X-277101D1*
X-263528D2*
X-260575D1*
X-288027Y214630D2*
X-278607D1*
X-263528D2*
X-260575D1*
X-286165Y213646D2*
X-280260D1*
X-263528D2*
X-260575D1*
X266903Y237077D2*
X272808D1*
X290525D2*
X297415D1*
X265014Y236093D2*
X274546D1*
X289124D2*
X298697D1*
X263499Y235109D2*
X275980D1*
X287987D2*
X299686D1*
X262358Y234125D2*
X277054D1*
X287134D2*
X300429D1*
X261521Y233140D2*
X268084D1*
X271627D2*
X277907D1*
X286502D2*
X291855D1*
X295211D2*
X301030D1*
X260901Y232156D2*
X266559D1*
X273149D2*
X278625D1*
X286061D2*
X290544D1*
X296607D2*
X301528D1*
X260465Y231172D2*
X265375D1*
X274312D2*
X279149D1*
X285793D2*
X289503D1*
X297680D2*
X301875D1*
X260182Y230188D2*
X264505D1*
X275127D2*
X279471D1*
X285604D2*
X288556D1*
X298102D2*
X302065D1*
X259936Y229203D2*
X263867D1*
X275761D2*
X279698D1*
X298107D2*
X301873D1*
X259647Y228219D2*
X263427D1*
X297909D2*
X301619D1*
X259374Y227235D2*
X263176D1*
X297560D2*
X301334D1*
X259194Y226251D2*
X263053D1*
X297126D2*
X300975D1*
X259100Y225266D2*
X263000D1*
X296624D2*
X300524D1*
X259057Y224282D2*
X262978D1*
X296016D2*
X299971D1*
X259039Y223298D2*
X262970D1*
X295291D2*
X299346D1*
X259033Y222314D2*
X262967D1*
X294544D2*
X298715D1*
X259030Y221329D2*
X262966D1*
X293845D2*
X298038D1*
X259033Y220345D2*
X262966D1*
X293134D2*
X297280D1*
X259067Y219361D2*
X262970D1*
X292332D2*
X296521D1*
X259193Y218377D2*
X263004D1*
X291477D2*
X295817D1*
X259428Y217392D2*
X263134D1*
X290661D2*
X295107D1*
X259685Y216408D2*
X263408D1*
X289930D2*
X294336D1*
X259891Y215424D2*
X263828D1*
X275761D2*
X279698D1*
X289209D2*
X293571D1*
X260111Y214440D2*
X264449D1*
X275178D2*
X279509D1*
X288433D2*
X292865D1*
X260427Y213455D2*
X265272D1*
X274403D2*
X279135D1*
X287670D2*
X292151D1*
X260861Y212471D2*
X267137D1*
X272557D2*
X278602D1*
X287002D2*
X291346D1*
X261447Y211487D2*
X269743D1*
X269962D2*
X277974D1*
X286451D2*
X290460D1*
X262267Y210503D2*
X277148D1*
X286045D2*
X302336D1*
X263437Y209518D2*
X275968D1*
X285806D2*
X302336D1*
X265041Y208534D2*
X274461D1*
X285682D2*
X302336D1*
X266903Y207550D2*
X272808D1*
X285604D2*
X302336D1*
X-298238Y112402D2*
X-292332D1*
X-274615D2*
X-268710D1*
X-300127Y111417D2*
X-290594D1*
X-276017D2*
X-267275D1*
X-301642Y110433D2*
X-289161D1*
X-277154D2*
X-266047D1*
X-302783Y109449D2*
X-288087D1*
X-278006D2*
X-265083D1*
X-303620Y108465D2*
X-297056D1*
X-293514D2*
X-287233D1*
X-278638D2*
X-273631D1*
X-270044D2*
X-264327D1*
X-304239Y107480D2*
X-298581D1*
X-291991D2*
X-286515D1*
X-279080D2*
X-274615D1*
X-268766D2*
X-264050D1*
X-304675Y106496D2*
X-299766D1*
X-290828D2*
X-285991D1*
X-279348D2*
X-275600D1*
X-267875D2*
X-263900D1*
X-304958Y105512D2*
X-300636D1*
X-290013D2*
X-285669D1*
X-279537D2*
X-276584D1*
X-267216D2*
X-263836D1*
X-305205Y104528D2*
X-301273D1*
X-289379D2*
X-285442D1*
X-267043D2*
X-263843D1*
X-305493Y103543D2*
X-301713D1*
X-267301D2*
X-263962D1*
X-305767Y102559D2*
X-301965D1*
X-267726D2*
X-264236D1*
X-305947Y101575D2*
X-302087D1*
X-268833D2*
X-264689D1*
X-306041Y100591D2*
X-302141D1*
X-270155D2*
X-265409D1*
X-306083Y99606D2*
X-302162D1*
X-271448D2*
X-266471D1*
X-306101Y98622D2*
X-302170D1*
X-272090D2*
X-267726D1*
X-306108Y97638D2*
X-302173D1*
X-272293D2*
X-266561D1*
X-306110Y96654D2*
X-302174D1*
X-270940D2*
X-265562D1*
X-306107Y95669D2*
X-302174D1*
X-269498D2*
X-264776D1*
X-306073Y94685D2*
X-302171D1*
X-268305D2*
X-264142D1*
X-305948Y93701D2*
X-302136D1*
X-267376D2*
X-263622D1*
X-305712Y92717D2*
X-302007D1*
X-267048D2*
X-263233D1*
X-305456Y91732D2*
X-301733D1*
X-266875D2*
X-263006D1*
X-305249Y90748D2*
X-301313D1*
X-289379D2*
X-285442D1*
X-266838D2*
X-262926D1*
X-305029Y89764D2*
X-300691D1*
X-289962D2*
X-285632D1*
X-280521D2*
X-276584D1*
X-266902D2*
X-263005D1*
X-304713Y88780D2*
X-299869D1*
X-290738D2*
X-286006D1*
X-280143D2*
X-275936D1*
X-267439D2*
X-263254D1*
X-304279Y87795D2*
X-298004D1*
X-292583D2*
X-286539D1*
X-279686D2*
X-274225D1*
X-269122D2*
X-263632D1*
X-303694Y86811D2*
X-295398D1*
X-295179D2*
X-287166D1*
X-279095D2*
X-271712D1*
X-271621D2*
X-264114D1*
X-302873Y85827D2*
X-287992D1*
X-278310D2*
X-264784D1*
X-301703Y84843D2*
X-289173D1*
X-277291D2*
X-265790D1*
X-300100Y83858D2*
X-290680D1*
X-276023D2*
X-267163D1*
X-298238Y82874D2*
X-292332D1*
X-274615D2*
X-268710D1*
X-32457Y-357105D2*
X-28520D1*
X-7850D2*
X10850D1*
X17740D2*
X31520D1*
X-32457Y-358089D2*
X-28520D1*
X-7850D2*
X10850D1*
X17740D2*
X33257D1*
X-32457Y-359073D2*
X-28520D1*
X-7850D2*
X10850D1*
X17740D2*
X34687D1*
X-32457Y-360058D2*
X-28520D1*
X-7850D2*
X10850D1*
X17740D2*
X35731D1*
X-32457Y-361042D2*
X-28520D1*
X-7850D2*
X-3913D1*
X17740D2*
X21677D1*
X30338D2*
X36493D1*
X-32457Y-362026D2*
X-28520D1*
X-7850D2*
X-3913D1*
X17740D2*
X21677D1*
X31860D2*
X37100D1*
X-32457Y-363010D2*
X-28520D1*
X-7850D2*
X-3913D1*
X17740D2*
X21677D1*
X33010D2*
X37605D1*
X-32457Y-363995D2*
X-28520D1*
X-7850D2*
X-3913D1*
X17740D2*
X21677D1*
X33883D2*
X37986D1*
X-32457Y-364979D2*
X-28520D1*
X-7850D2*
X-3913D1*
X17740D2*
X21677D1*
X34188D2*
X38214D1*
X-32457Y-365963D2*
X-28520D1*
X-7850D2*
X-3913D1*
X17740D2*
X21677D1*
X34352D2*
X38327D1*
X-32457Y-366948D2*
X-28520D1*
X-7850D2*
X-3913D1*
X17740D2*
X21677D1*
X34425D2*
X38377D1*
X-32457Y-367932D2*
X-28520D1*
X-7850D2*
X-3913D1*
X17740D2*
X21677D1*
X34455D2*
X38398D1*
X-32457Y-368916D2*
X-28520D1*
X-7850D2*
X-3913D1*
X17740D2*
X21677D1*
X34466D2*
X38405D1*
X-32457Y-369900D2*
X-28520D1*
X-7850D2*
X-3913D1*
X17740D2*
X21677D1*
X34470D2*
X38408D1*
X-32457Y-370885D2*
X-28520D1*
X-7850D2*
X8882D1*
X17740D2*
X21677D1*
X34472D2*
X38409D1*
X-32457Y-371869D2*
X-28520D1*
X-7850D2*
X8882D1*
X17740D2*
X21677D1*
X34472D2*
X38409D1*
X-32457Y-372853D2*
X-28520D1*
X-7850D2*
X8882D1*
X17740D2*
X21677D1*
X34472D2*
X38409D1*
X-32457Y-373837D2*
X-28520D1*
X-7850D2*
X8882D1*
X17740D2*
X21677D1*
X34472D2*
X38409D1*
X-32457Y-374822D2*
X-28520D1*
X-7850D2*
X-3913D1*
X17740D2*
X21677D1*
X34472D2*
X38409D1*
X-32457Y-375806D2*
X-28520D1*
X-7850D2*
X-3913D1*
X17740D2*
X21677D1*
X34472D2*
X38409D1*
X-32457Y-376790D2*
X-28520D1*
X-7850D2*
X-3913D1*
X17740D2*
X21677D1*
X34469D2*
X38406D1*
X-32457Y-377774D2*
X-28520D1*
X-7850D2*
X-3913D1*
X17740D2*
X21677D1*
X34430D2*
X38371D1*
X-32457Y-378759D2*
X-28520D1*
X-7850D2*
X-3913D1*
X17740D2*
X21677D1*
X34262D2*
X38242D1*
X-32457Y-379743D2*
X-28520D1*
X-7850D2*
X-3913D1*
X17740D2*
X21677D1*
X33944D2*
X37971D1*
X-32457Y-380727D2*
X-28520D1*
X-7850D2*
X-3913D1*
X17740D2*
X21677D1*
X33024D2*
X37590D1*
X-32457Y-381711D2*
X-28520D1*
X-7850D2*
X-3913D1*
X17740D2*
X21677D1*
X30328D2*
X37140D1*
X-32457Y-382696D2*
X-28520D1*
X-7850D2*
X-3913D1*
X17740D2*
X21677D1*
X26030D2*
X36594D1*
X-32457Y-383680D2*
X-13756D1*
X-7850D2*
X10850D1*
X17740D2*
X35817D1*
X-32457Y-384664D2*
X-13756D1*
X-7850D2*
X10850D1*
X17740D2*
X34662D1*
X-32457Y-385648D2*
X-13756D1*
X-7850D2*
X10850D1*
X17740D2*
X33166D1*
X-32457Y-386633D2*
X-13756D1*
X-7850D2*
X10850D1*
X17740D2*
X31520D1*
X-577324Y302106D2*
X-573387D1*
X-563545D2*
X-559608D1*
X-577324Y301122D2*
X-573387D1*
X-564942D2*
X-559608D1*
X-577324Y300138D2*
X-573387D1*
X-566044D2*
X-559608D1*
X-577324Y299154D2*
X-573387D1*
X-566896D2*
X-559608D1*
X-577324Y298169D2*
X-573387D1*
X-567200D2*
X-559608D1*
X-577324Y297185D2*
X-573387D1*
X-567371D2*
X-564529D1*
X-562560D2*
X-559608D1*
X-577324Y296201D2*
X-573387D1*
X-567482D2*
X-566497D1*
X-562560D2*
X-559608D1*
X-577324Y295217D2*
X-573387D1*
X-562560D2*
X-559608D1*
X-577324Y294232D2*
X-573387D1*
X-562560D2*
X-559608D1*
X-577324Y293248D2*
X-573387D1*
X-562560D2*
X-559608D1*
X-577324Y292264D2*
X-573387D1*
X-562560D2*
X-559608D1*
X-577324Y291280D2*
X-573387D1*
X-562560D2*
X-559608D1*
X-577324Y290295D2*
X-573387D1*
X-562560D2*
X-559608D1*
X-577324Y289311D2*
X-573387D1*
X-562560D2*
X-559608D1*
X-577324Y288327D2*
X-573387D1*
X-562560D2*
X-559608D1*
X-577324Y287343D2*
X-573387D1*
X-562560D2*
X-559608D1*
X-577324Y286358D2*
X-573387D1*
X-562560D2*
X-559608D1*
X-577324Y285374D2*
X-573387D1*
X-562560D2*
X-559608D1*
X-577324Y284390D2*
X-573387D1*
X-562560D2*
X-559608D1*
X-577324Y283406D2*
X-573387D1*
X-562560D2*
X-559608D1*
X-577328Y282421D2*
X-573391D1*
X-562560D2*
X-559608D1*
X-577363Y281437D2*
X-573426D1*
X-562560D2*
X-559608D1*
X-577496Y280453D2*
X-573551D1*
X-562560D2*
X-559608D1*
X-577824Y279469D2*
X-573791D1*
X-562560D2*
X-559608D1*
X-578332Y278484D2*
X-574081D1*
X-562560D2*
X-559608D1*
X-588151Y277500D2*
X-587167D1*
X-580071D2*
X-574417D1*
X-562560D2*
X-559608D1*
X-589135Y276516D2*
X-583353D1*
X-582814D2*
X-574912D1*
X-562560D2*
X-559608D1*
X-590119Y275531D2*
X-575643D1*
X-562560D2*
X-559608D1*
X-588773Y274547D2*
X-576636D1*
X-562560D2*
X-559608D1*
X-587098Y273563D2*
X-577891D1*
X-562560D2*
X-559608D1*
X-585198Y272579D2*
X-579293D1*
X-562560D2*
X-559608D1*
X-574978Y-269699D2*
X-571041D1*
X-559230D2*
X-552340D1*
X-574978Y-270684D2*
X-571041D1*
X-560631D2*
X-551057D1*
X-574978Y-271668D2*
X-571041D1*
X-561768D2*
X-550069D1*
X-574978Y-272652D2*
X-571041D1*
X-562621D2*
X-549326D1*
X-574978Y-273636D2*
X-571041D1*
X-563252D2*
X-557899D1*
X-554543D2*
X-548725D1*
X-574978Y-274621D2*
X-571041D1*
X-563694D2*
X-559210D1*
X-553148D2*
X-548226D1*
X-574978Y-275605D2*
X-571041D1*
X-563962D2*
X-560251D1*
X-552075D2*
X-547880D1*
X-574978Y-276589D2*
X-571041D1*
X-564151D2*
X-561198D1*
X-551653D2*
X-547689D1*
X-574978Y-277573D2*
X-571041D1*
X-551648D2*
X-547882D1*
X-574978Y-278558D2*
X-571041D1*
X-551845D2*
X-548136D1*
X-574978Y-279542D2*
X-571041D1*
X-552195D2*
X-548420D1*
X-574978Y-280526D2*
X-571041D1*
X-552628D2*
X-548779D1*
X-574978Y-281510D2*
X-571041D1*
X-553131D2*
X-549231D1*
X-574978Y-282495D2*
X-571041D1*
X-553739D2*
X-549784D1*
X-574978Y-283479D2*
X-571041D1*
X-554464D2*
X-550408D1*
X-574978Y-284463D2*
X-571041D1*
X-555210D2*
X-551040D1*
X-574978Y-285448D2*
X-571041D1*
X-555909D2*
X-551717D1*
X-574978Y-286432D2*
X-571041D1*
X-556621D2*
X-552474D1*
X-574978Y-287416D2*
X-571041D1*
X-557422D2*
X-553234D1*
X-574978Y-288400D2*
X-571041D1*
X-558278D2*
X-553938D1*
X-574982Y-289385D2*
X-571045D1*
X-559094D2*
X-554648D1*
X-575016Y-290369D2*
X-571079D1*
X-559825D2*
X-555419D1*
X-575149Y-291353D2*
X-571205D1*
X-560546D2*
X-556184D1*
X-575477Y-292337D2*
X-571444D1*
X-561322D2*
X-556890D1*
X-575985Y-293322D2*
X-571735D1*
X-562084D2*
X-557604D1*
X-585804Y-294306D2*
X-584820D1*
X-577725D2*
X-572070D1*
X-562753D2*
X-558409D1*
X-586789Y-295290D2*
X-581006D1*
X-580467D2*
X-572565D1*
X-563303D2*
X-559294D1*
X-587773Y-296274D2*
X-573296D1*
X-563710D2*
X-547419D1*
X-586427Y-297259D2*
X-574289D1*
X-563949D2*
X-547419D1*
X-584752Y-298243D2*
X-575545D1*
X-564073D2*
X-547419D1*
X-582852Y-299227D2*
X-576946D1*
X-564151D2*
X-547419D1*
X558085Y-264987D2*
X562022D1*
X573833D2*
X579739D1*
X558085Y-265971D2*
X562022D1*
X572432D2*
X581174D1*
X558085Y-266955D2*
X562022D1*
X571295D2*
X582402D1*
X558085Y-267940D2*
X562022D1*
X570442D2*
X583365D1*
X558085Y-268924D2*
X562022D1*
X569811D2*
X574818D1*
X578405D2*
X584122D1*
X558085Y-269908D2*
X562022D1*
X569369D2*
X573833D1*
X579683D2*
X584399D1*
X558085Y-270892D2*
X562022D1*
X569101D2*
X572849D1*
X580574D2*
X584549D1*
X558085Y-271877D2*
X562022D1*
X568912D2*
X571865D1*
X581233D2*
X584613D1*
X558085Y-272861D2*
X562022D1*
X581405D2*
X584606D1*
X558085Y-273845D2*
X562022D1*
X581147D2*
X584487D1*
X558085Y-274829D2*
X562022D1*
X580723D2*
X584212D1*
X558085Y-275814D2*
X562022D1*
X579616D2*
X583760D1*
X558085Y-276798D2*
X562022D1*
X578294D2*
X583040D1*
X558085Y-277782D2*
X562022D1*
X577001D2*
X581978D1*
X558085Y-278766D2*
X562022D1*
X576359D2*
X580723D1*
X558085Y-279751D2*
X562022D1*
X576155D2*
X581888D1*
X558085Y-280735D2*
X562022D1*
X577509D2*
X582886D1*
X558085Y-281719D2*
X562022D1*
X578951D2*
X583673D1*
X558085Y-282703D2*
X562022D1*
X580144D2*
X584307D1*
X558085Y-283688D2*
X562022D1*
X581072D2*
X584827D1*
X558081Y-284672D2*
X562018D1*
X581401D2*
X585216D1*
X558047Y-285656D2*
X561984D1*
X581574D2*
X585443D1*
X557914Y-286640D2*
X561858D1*
X581611D2*
X585523D1*
X557586Y-287625D2*
X561619D1*
X567928D2*
X571865D1*
X581547D2*
X585444D1*
X557078Y-288609D2*
X561328D1*
X568306D2*
X572513D1*
X581010D2*
X585194D1*
X547259Y-289593D2*
X548243D1*
X555338D2*
X560993D1*
X568763D2*
X574224D1*
X579327D2*
X584817D1*
X546274Y-290577D2*
X552057D1*
X552596D2*
X560498D1*
X569353D2*
X576737D1*
X576828D2*
X584335D1*
X545290Y-291562D2*
X559767D1*
X570139D2*
X583665D1*
X546636Y-292546D2*
X558774D1*
X571158D2*
X582659D1*
X548311Y-293530D2*
X557518D1*
X572426D2*
X581286D1*
X550211Y-294514D2*
X556117D1*
X573833D2*
X579739D1*
X-298058Y434958D2*
X-283294D1*
X-267546D2*
X-263609D1*
X-298058Y433974D2*
X-281859D1*
X-268943D2*
X-263609D1*
X-298058Y432990D2*
X-280631D1*
X-270046D2*
X-263609D1*
X-298058Y432005D2*
X-279663D1*
X-270898D2*
X-263609D1*
X-298058Y431021D2*
X-294121D1*
X-284628D2*
X-278981D1*
X-271201D2*
X-263609D1*
X-298058Y430037D2*
X-294121D1*
X-283350D2*
X-278497D1*
X-271372D2*
X-268530D1*
X-266562D2*
X-263609D1*
X-298058Y429052D2*
X-294121D1*
X-282455D2*
X-278091D1*
X-271483D2*
X-270499D1*
X-266562D2*
X-263609D1*
X-298058Y428068D2*
X-294121D1*
X-281784D2*
X-277770D1*
X-266562D2*
X-263609D1*
X-298058Y427084D2*
X-294121D1*
X-281586D2*
X-277604D1*
X-266562D2*
X-263609D1*
X-298058Y426100D2*
X-294121D1*
X-281512D2*
X-277627D1*
X-266562D2*
X-263609D1*
X-298058Y425115D2*
X-294121D1*
X-281758D2*
X-277821D1*
X-266562D2*
X-263609D1*
X-298058Y424131D2*
X-294121D1*
X-282418D2*
X-278094D1*
X-266562D2*
X-263609D1*
X-298058Y423147D2*
X-294121D1*
X-285010D2*
X-278422D1*
X-266562D2*
X-263609D1*
X-298058Y422163D2*
X-294121D1*
X-289458D2*
X-278914D1*
X-266562D2*
X-263609D1*
X-298058Y421178D2*
X-279638D1*
X-266562D2*
X-263609D1*
X-298058Y420194D2*
X-280562D1*
X-266562D2*
X-263609D1*
X-298058Y419210D2*
X-281520D1*
X-266562D2*
X-263609D1*
X-298058Y418226D2*
X-282363D1*
X-266562D2*
X-263609D1*
X-298058Y417241D2*
X-294121D1*
X-287387D2*
X-282566D1*
X-266562D2*
X-263609D1*
X-298058Y416257D2*
X-294121D1*
X-286681D2*
X-282295D1*
X-266562D2*
X-263609D1*
X-298058Y415273D2*
X-294121D1*
X-286081D2*
X-281841D1*
X-266562D2*
X-263609D1*
X-298058Y414289D2*
X-294121D1*
X-285540D2*
X-281265D1*
X-266562D2*
X-263609D1*
X-298058Y413304D2*
X-294121D1*
X-285028D2*
X-280685D1*
X-266562D2*
X-263609D1*
X-298058Y412320D2*
X-294121D1*
X-284528D2*
X-280140D1*
X-266562D2*
X-263609D1*
X-298058Y411336D2*
X-294121D1*
X-284034D2*
X-279621D1*
X-266562D2*
X-263609D1*
X-298058Y410352D2*
X-294121D1*
X-283540D2*
X-279118D1*
X-266562D2*
X-263609D1*
X-298058Y409367D2*
X-294121D1*
X-283048D2*
X-278621D1*
X-266562D2*
X-263609D1*
X-298058Y408383D2*
X-294121D1*
X-282559D2*
X-278125D1*
X-266562D2*
X-263609D1*
X-298058Y407399D2*
X-294121D1*
X-282093D2*
X-277606D1*
X-266562D2*
X-263609D1*
X-298058Y406415D2*
X-294121D1*
X-281683D2*
X-277031D1*
X-266562D2*
X-263609D1*
X-298058Y405430D2*
X-294121D1*
X-281325D2*
X-276404D1*
X-266562D2*
X-263609D1*
X-284879Y-246264D2*
X-270115D1*
X-252399D2*
X-245509D1*
X-284879Y-247248D2*
X-268681D1*
X-253800D2*
X-244227D1*
X-284879Y-248232D2*
X-267452D1*
X-254937D2*
X-243238D1*
X-284879Y-249217D2*
X-266485D1*
X-255790D2*
X-242495D1*
X-284879Y-250201D2*
X-280942D1*
X-271449D2*
X-265802D1*
X-256422D2*
X-251069D1*
X-247712D2*
X-241894D1*
X-284879Y-251185D2*
X-280942D1*
X-270172D2*
X-265319D1*
X-256863D2*
X-252380D1*
X-246317D2*
X-241396D1*
X-284879Y-252169D2*
X-280942D1*
X-269277D2*
X-264913D1*
X-257131D2*
X-253421D1*
X-245244D2*
X-241049D1*
X-284879Y-253154D2*
X-280942D1*
X-268606D2*
X-264591D1*
X-257320D2*
X-254367D1*
X-244822D2*
X-240859D1*
X-284879Y-254138D2*
X-280942D1*
X-268407D2*
X-264426D1*
X-244817D2*
X-241051D1*
X-284879Y-255122D2*
X-280942D1*
X-268333D2*
X-264449D1*
X-245014D2*
X-241305D1*
X-284879Y-256106D2*
X-280942D1*
X-268580D2*
X-264643D1*
X-245364D2*
X-241590D1*
X-284879Y-257091D2*
X-280942D1*
X-269239D2*
X-264915D1*
X-245797D2*
X-241949D1*
X-284879Y-258075D2*
X-280942D1*
X-271832D2*
X-265244D1*
X-246300D2*
X-242400D1*
X-284879Y-259059D2*
X-280942D1*
X-276279D2*
X-265736D1*
X-246908D2*
X-242953D1*
X-284879Y-260043D2*
X-266459D1*
X-247633D2*
X-243577D1*
X-284879Y-261028D2*
X-267383D1*
X-248380D2*
X-244209D1*
X-284879Y-262012D2*
X-268342D1*
X-249079D2*
X-244886D1*
X-284879Y-262996D2*
X-269184D1*
X-249790D2*
X-245643D1*
X-284879Y-263980D2*
X-280942D1*
X-274208D2*
X-269388D1*
X-250591D2*
X-246403D1*
X-284879Y-264965D2*
X-280942D1*
X-273503D2*
X-269116D1*
X-251447D2*
X-247107D1*
X-284879Y-265949D2*
X-280942D1*
X-272903D2*
X-268663D1*
X-252263D2*
X-247817D1*
X-284879Y-266933D2*
X-280942D1*
X-272361D2*
X-268087D1*
X-252994D2*
X-248588D1*
X-284879Y-267917D2*
X-280942D1*
X-271850D2*
X-267507D1*
X-253715D2*
X-249353D1*
X-284879Y-268902D2*
X-280942D1*
X-271350D2*
X-266962D1*
X-254491D2*
X-250059D1*
X-284879Y-269886D2*
X-280942D1*
X-270855D2*
X-266443D1*
X-255254D2*
X-250773D1*
X-284879Y-270870D2*
X-280942D1*
X-270362D2*
X-265940D1*
X-255922D2*
X-251578D1*
X-284879Y-271854D2*
X-280942D1*
X-269870D2*
X-265442D1*
X-256472D2*
X-252464D1*
X-284879Y-272839D2*
X-280942D1*
X-269380D2*
X-264946D1*
X-256879D2*
X-240588D1*
X-284879Y-273823D2*
X-280942D1*
X-268914D2*
X-264427D1*
X-257118D2*
X-240588D1*
X-284879Y-274807D2*
X-280942D1*
X-268504D2*
X-263853D1*
X-257242D2*
X-240588D1*
X-284879Y-275791D2*
X-280942D1*
X-268147D2*
X-263226D1*
X-257320D2*
X-240588D1*
X-66672Y387066D2*
X-51908D1*
X-39113D2*
X-35176D1*
X-21396D2*
X-18444D1*
X-7617D2*
X-3680D1*
X4194D2*
X19942D1*
X26832D2*
X41596D1*
X55375D2*
X61281D1*
X-66672Y386081D2*
X-50171D1*
X-39113D2*
X-35176D1*
X-21396D2*
X-18444D1*
X-9014D2*
X-3680D1*
X4194D2*
X19938D1*
X26832D2*
X41596D1*
X53941D2*
X62716D1*
X-66672Y385097D2*
X-48900D1*
X-39113D2*
X-35176D1*
X-21396D2*
X-18444D1*
X-10116D2*
X-3680D1*
X4194D2*
X19904D1*
X26832D2*
X41596D1*
X52712D2*
X63944D1*
X-66672Y384113D2*
X-48014D1*
X-39113D2*
X-35176D1*
X-21396D2*
X-18444D1*
X-10968D2*
X-3680D1*
X4194D2*
X19778D1*
X26832D2*
X41596D1*
X51749D2*
X64907D1*
X-66672Y383129D2*
X-62735D1*
X-51949D2*
X-47349D1*
X-39113D2*
X-35176D1*
X-21396D2*
X-18444D1*
X-11272D2*
X-3680D1*
X4194D2*
X7147D1*
X15853D2*
X19539D1*
X26832D2*
X30769D1*
X50993D2*
X56594D1*
X60062D2*
X65664D1*
X-66672Y382144D2*
X-62735D1*
X-51130D2*
X-46821D1*
X-39113D2*
X-35176D1*
X-21396D2*
X-18444D1*
X-11443D2*
X-8601D1*
X-6633D2*
X-3680D1*
X4194D2*
X7147D1*
X15605D2*
X19252D1*
X26832D2*
X30769D1*
X50678D2*
X55199D1*
X61457D2*
X65941D1*
X-66672Y381160D2*
X-62735D1*
X-50545D2*
X-46435D1*
X-39113D2*
X-35176D1*
X-21396D2*
X-18444D1*
X-11554D2*
X-10570D1*
X-6633D2*
X-3680D1*
X4194D2*
X7147D1*
X15316D2*
X18955D1*
X26832D2*
X30769D1*
X50402D2*
X54126D1*
X62530D2*
X66091D1*
X-66672Y380176D2*
X-62735D1*
X-50217D2*
X-46239D1*
X-39113D2*
X-35176D1*
X-21396D2*
X-18444D1*
X-6633D2*
X-3680D1*
X4194D2*
X7147D1*
X15018D2*
X18628D1*
X26832D2*
X30773D1*
X50098D2*
X53753D1*
X62903D2*
X66158D1*
X-66672Y379192D2*
X-62735D1*
X-50095D2*
X-46253D1*
X-39113D2*
X-35176D1*
X-21396D2*
X-18444D1*
X-6633D2*
X-3680D1*
X4194D2*
X7147D1*
X14687D2*
X18330D1*
X26832D2*
X30810D1*
X49818D2*
X53553D1*
X63103D2*
X66186D1*
X-66672Y378207D2*
X-62735D1*
X-50100D2*
X-46477D1*
X-39113D2*
X-35176D1*
X-21396D2*
X-18444D1*
X-6633D2*
X-3680D1*
X14358D2*
X18106D1*
X26832D2*
X30962D1*
X49636D2*
X53464D1*
X63192D2*
X66196D1*
X-66672Y377223D2*
X-62735D1*
X-50615D2*
X-46873D1*
X-39113D2*
X-35176D1*
X-21396D2*
X-18444D1*
X-6633D2*
X-3680D1*
X14044D2*
X17883D1*
X26832D2*
X31299D1*
X32738D2*
X37659D1*
X49541D2*
X53428D1*
X63228D2*
X66200D1*
X-66672Y376239D2*
X-62735D1*
X-53046D2*
X-47432D1*
X-39113D2*
X-35176D1*
X-21396D2*
X-18444D1*
X-6633D2*
X-3680D1*
X13710D2*
X17599D1*
X26832D2*
X39060D1*
X49498D2*
X53414D1*
X63242D2*
X66201D1*
X-66672Y375255D2*
X-62735D1*
X-57291D2*
X-48131D1*
X-39113D2*
X-35176D1*
X-21396D2*
X-18444D1*
X-6633D2*
X-3680D1*
X13410D2*
X17294D1*
X26832D2*
X40197D1*
X49480D2*
X53409D1*
X63247D2*
X66202D1*
X-66672Y374270D2*
X-48793D1*
X-39113D2*
X-35176D1*
X-21396D2*
X-18444D1*
X-6633D2*
X-3680D1*
X13185D2*
X16990D1*
X26832D2*
X41050D1*
X49474D2*
X53408D1*
X63249D2*
X66202D1*
X-66672Y373286D2*
X-49312D1*
X-39113D2*
X-18444D1*
X-6633D2*
X-3680D1*
X12962D2*
X16657D1*
X26832D2*
X32918D1*
X36637D2*
X41681D1*
X49471D2*
X53407D1*
X63249D2*
X66202D1*
X-66672Y372302D2*
X-49227D1*
X-39113D2*
X-18444D1*
X-6633D2*
X-3680D1*
X12678D2*
X16327D1*
X26832D2*
X31295D1*
X37491D2*
X42120D1*
X49470D2*
X53407D1*
X63249D2*
X66202D1*
X-66672Y371318D2*
X-48616D1*
X-39113D2*
X-18444D1*
X-6633D2*
X-3680D1*
X12373D2*
X16012D1*
X26832D2*
X29785D1*
X38201D2*
X42371D1*
X49470D2*
X53407D1*
X63249D2*
X66202D1*
X-66672Y370333D2*
X-62735D1*
X-51946D2*
X-47868D1*
X-39113D2*
X-18444D1*
X-6633D2*
X-3680D1*
X12069D2*
X15679D1*
X38769D2*
X42493D1*
X49470D2*
X53407D1*
X63249D2*
X66202D1*
X-66672Y369349D2*
X-62735D1*
X-51091D2*
X-47136D1*
X-39113D2*
X-35176D1*
X-21396D2*
X-18444D1*
X-6633D2*
X-3680D1*
X11735D2*
X15378D1*
X39182D2*
X42546D1*
X49470D2*
X53407D1*
X63249D2*
X66202D1*
X-66672Y368365D2*
X-62735D1*
X-50385D2*
X-46588D1*
X-39113D2*
X-35176D1*
X-21396D2*
X-18444D1*
X-6633D2*
X-3680D1*
X11406D2*
X15154D1*
X39419D2*
X42568D1*
X49474D2*
X53407D1*
X63249D2*
X66202D1*
X-66672Y367381D2*
X-62735D1*
X-49852D2*
X-46269D1*
X-39113D2*
X-35176D1*
X-21396D2*
X-18444D1*
X-6633D2*
X-3680D1*
X11091D2*
X14930D1*
X39504D2*
X42576D1*
X49508D2*
X53407D1*
X63249D2*
X66202D1*
X-66672Y366396D2*
X-62735D1*
X-49458D2*
X-46113D1*
X-39113D2*
X-35176D1*
X-21396D2*
X-18444D1*
X-6633D2*
X-3680D1*
X10757D2*
X14646D1*
X39426D2*
X42579D1*
X49634D2*
X53411D1*
X63245D2*
X66202D1*
X-66672Y365412D2*
X-62735D1*
X-49578D2*
X-46049D1*
X-39113D2*
X-35176D1*
X-21396D2*
X-18444D1*
X-6633D2*
X-3680D1*
X10457D2*
X14341D1*
X39173D2*
X42576D1*
X49869D2*
X53453D1*
X63203D2*
X66202D1*
X-66672Y364428D2*
X-62735D1*
X-49841D2*
X-46057D1*
X-39113D2*
X-35176D1*
X-21396D2*
X-18444D1*
X-6633D2*
X-3680D1*
X10233D2*
X14037D1*
X26832D2*
X29785D1*
X38753D2*
X42541D1*
X50126D2*
X53557D1*
X63099D2*
X66198D1*
X-66672Y363444D2*
X-62735D1*
X-50616D2*
X-46176D1*
X-39113D2*
X-35176D1*
X-21396D2*
X-18444D1*
X-6633D2*
X-3680D1*
X10009D2*
X13704D1*
X26988D2*
X30433D1*
X38213D2*
X42412D1*
X50336D2*
X54101D1*
X62555D2*
X66160D1*
X-66672Y362459D2*
X-62735D1*
X-53387D2*
X-46446D1*
X-39113D2*
X-35176D1*
X-21396D2*
X-18444D1*
X-6633D2*
X-3680D1*
X9725D2*
X13374D1*
X27270D2*
X32144D1*
X36910D2*
X42138D1*
X50591D2*
X55785D1*
X60871D2*
X65996D1*
X-66672Y361475D2*
X-62735D1*
X-57968D2*
X-46865D1*
X-39113D2*
X-35176D1*
X-21396D2*
X-18444D1*
X-6633D2*
X-3680D1*
X9420D2*
X13060D1*
X27693D2*
X34657D1*
X35015D2*
X41718D1*
X51036D2*
X58286D1*
X58371D2*
X65592D1*
X-66672Y360491D2*
X-47474D1*
X-39113D2*
X-35176D1*
X-21396D2*
X-18444D1*
X-6633D2*
X-3680D1*
X9115D2*
X12726D1*
X28302D2*
X41109D1*
X51743D2*
X64903D1*
X-66672Y359507D2*
X-48368D1*
X-39113D2*
X-35176D1*
X-21396D2*
X-18444D1*
X-6633D2*
X-3680D1*
X8777D2*
X12427D1*
X29197D2*
X40215D1*
X52725D2*
X63928D1*
X-66672Y358522D2*
X-49564D1*
X-39113D2*
X-35176D1*
X-21396D2*
X-18444D1*
X-6633D2*
X-3680D1*
X8440D2*
X12221D1*
X30393D2*
X39019D1*
X53976D2*
X62679D1*
X-66672Y357538D2*
X-50924D1*
X-39113D2*
X-35176D1*
X-21396D2*
X-18444D1*
X-6633D2*
X-3680D1*
X8131D2*
X12068D1*
X31753D2*
X37659D1*
X55375D2*
X61281D1*
X-47542Y-207861D2*
X-43605D1*
X-27857D2*
X-23920D1*
X-6203D2*
X-2266D1*
X9545D2*
X15450D1*
X30214D2*
X34151D1*
X46946D2*
X53836D1*
X-47694Y-208845D2*
X-43449D1*
X-27857D2*
X-23580D1*
X-6544D2*
X-2266D1*
X8144D2*
X16885D1*
X28817D2*
X34151D1*
X45545D2*
X55119D1*
X-47942Y-209829D2*
X-43170D1*
X-27857D2*
X-23252D1*
X-6871D2*
X-2266D1*
X7007D2*
X18113D1*
X27714D2*
X34151D1*
X44408D2*
X56107D1*
X-48231Y-210814D2*
X-42790D1*
X-27857D2*
X-22936D1*
X-7187D2*
X-2266D1*
X6154D2*
X19077D1*
X26862D2*
X34151D1*
X43555D2*
X56850D1*
X-48533Y-211798D2*
X-42378D1*
X-27857D2*
X-22569D1*
X-7554D2*
X-2266D1*
X5522D2*
X10529D1*
X14116D2*
X19833D1*
X26559D2*
X34151D1*
X42924D2*
X48276D1*
X51633D2*
X57451D1*
X-48895Y-212782D2*
X-42000D1*
X-27857D2*
X-22144D1*
X-7979D2*
X-2266D1*
X5081D2*
X9545D1*
X15394D2*
X20110D1*
X26388D2*
X29230D1*
X31198D2*
X34151D1*
X42482D2*
X46965D1*
X53028D2*
X57950D1*
X-49314Y-213766D2*
X-41661D1*
X-27857D2*
X-21685D1*
X-8439D2*
X-2266D1*
X4812D2*
X8560D1*
X16285D2*
X20260D1*
X26277D2*
X27261D1*
X31198D2*
X34151D1*
X42214D2*
X45924D1*
X54101D2*
X58296D1*
X-49743Y-214751D2*
X-46710D1*
X-44437D2*
X-41313D1*
X-27857D2*
X-21205D1*
X-8918D2*
X-2266D1*
X4623D2*
X7576D1*
X16945D2*
X20324D1*
X31198D2*
X34151D1*
X42025D2*
X44978D1*
X54523D2*
X58487D1*
X-50128Y-215735D2*
X-46958D1*
X-44189D2*
X-40977D1*
X-27857D2*
X-20719D1*
X-9405D2*
X-2266D1*
X17117D2*
X20317D1*
X31198D2*
X34151D1*
X54528D2*
X58294D1*
X-50469Y-216719D2*
X-47247D1*
X-43900D2*
X-40657D1*
X-27857D2*
X-20231D1*
X-9892D2*
X-2266D1*
X16859D2*
X20198D1*
X31198D2*
X34151D1*
X54331D2*
X58040D1*
X-50818Y-217703D2*
X-47545D1*
X-43602D2*
X-40288D1*
X-27857D2*
X-19772D1*
X-10352D2*
X-2266D1*
X16434D2*
X19924D1*
X31198D2*
X34151D1*
X53981D2*
X57755D1*
X-51154Y-218688D2*
X-47876D1*
X-43271D2*
X-39865D1*
X-27857D2*
X-19374D1*
X-10750D2*
X-2266D1*
X15327D2*
X19471D1*
X31198D2*
X34151D1*
X53548D2*
X57397D1*
X-51474Y-219672D2*
X-48205D1*
X-42942D2*
X-39436D1*
X-27857D2*
X-19023D1*
X-11100D2*
X-8324D1*
X-6203D2*
X-2266D1*
X14005D2*
X18751D1*
X31198D2*
X34151D1*
X53045D2*
X56945D1*
X-51844Y-220656D2*
X-48519D1*
X-42628D2*
X-39051D1*
X-27857D2*
X-23920D1*
X-21795D2*
X-18642D1*
X-11482D2*
X-8572D1*
X-6203D2*
X-2266D1*
X12712D2*
X17689D1*
X31198D2*
X34151D1*
X52437D2*
X56392D1*
X-52266Y-221640D2*
X-48857D1*
X-42290D2*
X-38709D1*
X-27857D2*
X-23920D1*
X-21517D2*
X-18211D1*
X-11913D2*
X-8861D1*
X-6203D2*
X-2266D1*
X12070D2*
X16434D1*
X31198D2*
X34151D1*
X51712D2*
X55768D1*
X-52695Y-222625D2*
X-49188D1*
X-41959D2*
X-38360D1*
X-27857D2*
X-23920D1*
X-21133D2*
X-17749D1*
X-12375D2*
X-9163D1*
X-6203D2*
X-2266D1*
X11867D2*
X17599D1*
X31198D2*
X34151D1*
X50965D2*
X55136D1*
X-53080Y-223609D2*
X-49504D1*
X-41643D2*
X-38025D1*
X-27857D2*
X-23920D1*
X-20690D2*
X-17268D1*
X-12855D2*
X-9525D1*
X-6203D2*
X-2266D1*
X13220D2*
X18598D1*
X31198D2*
X34151D1*
X50267D2*
X54459D1*
X-53422Y-224593D2*
X-49846D1*
X-41301D2*
X-37704D1*
X-27857D2*
X-23920D1*
X-20217D2*
X-16779D1*
X-13345D2*
X-9948D1*
X-6203D2*
X-2266D1*
X14662D2*
X19384D1*
X31198D2*
X34151D1*
X49555D2*
X53702D1*
X-53771Y-225577D2*
X-50185D1*
X-40962D2*
X-37335D1*
X-27857D2*
X-23920D1*
X-19733D2*
X-16262D1*
X-13861D2*
X-10408D1*
X-6203D2*
X-2266D1*
X15855D2*
X20019D1*
X31198D2*
X34151D1*
X48754D2*
X52942D1*
X-54106Y-226562D2*
X-50495D1*
X-40652D2*
X-36913D1*
X-27857D2*
X-23920D1*
X-19247D2*
X-15688D1*
X-14435D2*
X-10887D1*
X-6203D2*
X-2266D1*
X16784D2*
X20539D1*
X31198D2*
X34151D1*
X47898D2*
X52238D1*
X-54423Y-227546D2*
X-36483D1*
X-27857D2*
X-23920D1*
X-18787D2*
X-11373D1*
X-6203D2*
X-2266D1*
X17112D2*
X20928D1*
X31198D2*
X34151D1*
X47082D2*
X51528D1*
X-54762Y-228530D2*
X-36098D1*
X-27857D2*
X-23920D1*
X-18389D2*
X-11860D1*
X-6203D2*
X-2266D1*
X17285D2*
X21154D1*
X31198D2*
X34151D1*
X46351D2*
X50757D1*
X-55093Y-229514D2*
X-35757D1*
X-27857D2*
X-23920D1*
X-18039D2*
X-12320D1*
X-6203D2*
X-2266D1*
X17322D2*
X21234D1*
X31198D2*
X34151D1*
X45630D2*
X49992D1*
X-55412Y-230499D2*
X-35408D1*
X-27857D2*
X-23920D1*
X-17654D2*
X-12721D1*
X-6203D2*
X-2266D1*
X3639D2*
X7576D1*
X17258D2*
X21156D1*
X31198D2*
X34151D1*
X44854D2*
X49286D1*
X-55781Y-231483D2*
X-52501D1*
X-38532D2*
X-35072D1*
X-27857D2*
X-23920D1*
X-17198D2*
X-13095D1*
X-6203D2*
X-2266D1*
X4017D2*
X8224D1*
X16721D2*
X20906D1*
X31198D2*
X34151D1*
X44091D2*
X48572D1*
X-56203Y-232467D2*
X-52627D1*
X-38284D2*
X-34755D1*
X-27857D2*
X-23920D1*
X-16654D2*
X-13549D1*
X-6203D2*
X-2266D1*
X4474D2*
X9935D1*
X15039D2*
X20528D1*
X31198D2*
X34151D1*
X43423D2*
X47767D1*
X-56632Y-233451D2*
X-52867D1*
X-37994D2*
X-34417D1*
X-27857D2*
X-23920D1*
X-16046D2*
X-14077D1*
X-6203D2*
X-2266D1*
X5065D2*
X12448D1*
X12539D2*
X20046D1*
X31198D2*
X34151D1*
X42873D2*
X46882D1*
X-57020Y-234436D2*
X-53157D1*
X-37696D2*
X-34082D1*
X-27857D2*
X-23920D1*
X-6203D2*
X-2266D1*
X5851D2*
X19376D1*
X31198D2*
X34151D1*
X42466D2*
X58757D1*
X-57389Y-235420D2*
X-53481D1*
X-37360D2*
X-33740D1*
X-27857D2*
X-23920D1*
X-6203D2*
X-2266D1*
X6870D2*
X18370D1*
X31198D2*
X34151D1*
X42227D2*
X58757D1*
X-57841Y-236404D2*
X-53914D1*
X-37024D2*
X-33300D1*
X-27857D2*
X-23920D1*
X-6203D2*
X-2266D1*
X8137D2*
X16997D1*
X31198D2*
X34151D1*
X42103D2*
X58757D1*
X-58369Y-237388D2*
X-54432D1*
X-36715D2*
X-32778D1*
X-27857D2*
X-23920D1*
X-6203D2*
X-2266D1*
X9545D2*
X15450D1*
X31198D2*
X34151D1*
X42025D2*
X58757D1*
X522979Y321408D2*
D12*
X555979D1*
X520280Y319908D2*
X559319D1*
X517955Y318408D2*
X561929D1*
X516150Y316908D2*
X563738D1*
X514824Y315408D2*
X564996D1*
X513853Y313908D2*
X565961D1*
X513176Y312408D2*
X566745D1*
X512740Y310908D2*
X567331D1*
X512362Y309408D2*
X567680D1*
X511922Y307908D2*
X567853D1*
X511504Y306408D2*
X567930D1*
X511230Y304908D2*
X527247D1*
X531684D2*
X567961D1*
X511087Y303408D2*
X526875D1*
X532561D2*
X546747D1*
X552979D2*
X567973D1*
X511022Y301908D2*
X526487D1*
X533064D2*
X546375D1*
X552979D2*
X567977D1*
X510995Y300408D2*
X526224D1*
X533307D2*
X545987D1*
X552979D2*
X567978D1*
X510985Y298908D2*
X526085D1*
X533413D2*
X545724D1*
X552979D2*
X567979D1*
X510981Y297408D2*
X526021D1*
X533455D2*
X545585D1*
X552979D2*
X567979D1*
X510980Y295908D2*
X525995D1*
X533470D2*
X545521D1*
X552979D2*
X567979D1*
X510979Y294408D2*
X525985D1*
X533476D2*
X545495D1*
X552979D2*
X567979D1*
X510979Y292908D2*
X525981D1*
X533478D2*
X545485D1*
X552979D2*
X567979D1*
X510979Y291408D2*
X525980D1*
X533479D2*
X545481D1*
X552979D2*
X567979D1*
X510979Y289908D2*
X525979D1*
X533479D2*
X545479D1*
X552979D2*
X567979D1*
X510979Y279408D2*
X552979D1*
X510979Y277908D2*
X556377D1*
X510979Y276408D2*
X559185D1*
X510979Y274908D2*
X561405D1*
X510979Y273408D2*
X563239D1*
X510979Y271908D2*
X564825D1*
X510979Y270408D2*
X566138D1*
X510979Y268908D2*
X567103D1*
X510979Y267408D2*
X567808D1*
X510979Y265908D2*
X568415D1*
X510979Y264408D2*
X568906D1*
X510979Y262908D2*
X569210D1*
X525979Y261408D2*
X540979D1*
X554473D2*
X569365D1*
X525979Y259908D2*
X540979D1*
X554415D2*
X569434D1*
X525979Y258408D2*
X540979D1*
X554165D2*
X569462D1*
X553561Y256908D2*
X569473D1*
X552602Y255408D2*
X569471D1*
X551479Y253908D2*
X569420D1*
X552747Y252408D2*
X569223D1*
X553875Y250908D2*
X568805D1*
X554981Y249408D2*
X568171D1*
X556166Y247908D2*
X567301D1*
X557334Y246408D2*
X566168D1*
X558398Y244908D2*
X564849D1*
X559425Y243408D2*
X563432D1*
X560479Y241908D2*
X561979D1*
X522979Y237408D2*
X555979D1*
X520280Y235908D2*
X559319D1*
X517955Y234408D2*
X561929D1*
X516150Y232908D2*
X563738D1*
X514824Y231408D2*
X564996D1*
X513853Y229908D2*
X565961D1*
X513176Y228408D2*
X566745D1*
X512740Y226908D2*
X567331D1*
X512362Y225408D2*
X567680D1*
X511922Y223908D2*
X567853D1*
X511504Y222408D2*
X567930D1*
X511230Y220908D2*
X527247D1*
X531684D2*
X567961D1*
X511087Y219408D2*
X526875D1*
X532561D2*
X546747D1*
X552979D2*
X567973D1*
X511022Y217908D2*
X526487D1*
X533064D2*
X546375D1*
X552979D2*
X567977D1*
X510995Y216408D2*
X526224D1*
X533307D2*
X545987D1*
X552979D2*
X567978D1*
X510985Y214908D2*
X526085D1*
X533413D2*
X545724D1*
X552979D2*
X567979D1*
X510981Y213408D2*
X526021D1*
X533455D2*
X545585D1*
X552979D2*
X567979D1*
X510980Y211908D2*
X525995D1*
X533470D2*
X545521D1*
X552979D2*
X567979D1*
X510979Y210408D2*
X525985D1*
X533476D2*
X545495D1*
X552979D2*
X567979D1*
X510979Y208908D2*
X525981D1*
X533478D2*
X545485D1*
X552979D2*
X567979D1*
X510979Y207408D2*
X525980D1*
X533479D2*
X545481D1*
X552979D2*
X567979D1*
X510979Y205908D2*
X525979D1*
X533479D2*
X545479D1*
X552979D2*
X567979D1*
X510979Y193908D2*
X567979D1*
X510979Y192408D2*
X567979D1*
X510979Y190908D2*
X567979D1*
X510979Y189408D2*
X567979D1*
X510979Y187908D2*
X567979D1*
X510979Y186408D2*
X567979D1*
X510979Y184908D2*
X567979D1*
X510979Y183408D2*
X567979D1*
X510979Y181908D2*
X567979D1*
X510979Y180408D2*
X567979D1*
X510979Y178908D2*
X567979D1*
X540979Y175908D2*
X543979D1*
X537049Y174408D2*
X546747D1*
X533193Y172908D2*
X549375D1*
X529396Y171408D2*
X551987D1*
X525671Y169908D2*
X554718D1*
X522067Y168408D2*
X557526D1*
X518653Y166908D2*
X560260D1*
X515623Y165408D2*
X562757D1*
X513042Y163908D2*
X564863D1*
X511816Y162408D2*
X566614D1*
X511370Y160908D2*
X567310D1*
X511140Y159408D2*
X540979D1*
X544274D2*
X567692D1*
X511040Y157908D2*
X537979D1*
X546397D2*
X567866D1*
X511001Y156408D2*
X534973D1*
X548888D2*
X567937D1*
X510987Y154908D2*
X531920D1*
X551592D2*
X567964D1*
X510982Y153408D2*
X528729D1*
X554295D2*
X567974D1*
X510980Y151908D2*
X525370D1*
X556894D2*
X567960D1*
X510979Y150408D2*
X521985D1*
X559490D2*
X567789D1*
X510979Y148908D2*
X518723D1*
X562200D2*
X567381D1*
X510979Y147408D2*
X515576D1*
X564979D2*
X565628D1*
X510979Y145908D2*
X512479D1*
X552979Y144408D2*
X567979D1*
X552979Y142908D2*
X567979D1*
X552979Y141408D2*
X567979D1*
X552979Y139908D2*
X567979D1*
X552979Y138408D2*
X567979D1*
X552979Y136908D2*
X567979D1*
X552979Y135408D2*
X567979D1*
X552979Y133908D2*
X567979D1*
X552979Y132408D2*
X567979D1*
X510979Y130908D2*
X567979D1*
X510979Y129408D2*
X567979D1*
X510979Y127908D2*
X567979D1*
X510979Y126408D2*
X567979D1*
X510979Y124908D2*
X567979D1*
X510979Y123408D2*
X567979D1*
X510979Y121908D2*
X567979D1*
X510979Y120408D2*
X567979D1*
X510979Y118908D2*
X567979D1*
X510979Y117408D2*
X567979D1*
X510979Y115908D2*
X567979D1*
X510979Y114408D2*
X567979D1*
X552979Y112908D2*
X567979D1*
X552979Y111408D2*
X567979D1*
X552979Y109908D2*
X567979D1*
X552979Y108408D2*
X567979D1*
X552979Y106908D2*
X567979D1*
X552979Y105408D2*
X567979D1*
X552979Y103908D2*
X567979D1*
X552979Y102408D2*
X567979D1*
X552979Y100908D2*
X567979D1*
X510979Y94908D2*
X552979D1*
X510979Y93408D2*
X556788D1*
X510979Y91908D2*
X559946D1*
X510979Y90408D2*
X562436D1*
X510979Y88908D2*
X564292D1*
X510979Y87408D2*
X565637D1*
X510979Y85908D2*
X566663D1*
X510979Y84408D2*
X567526D1*
X510979Y82908D2*
X568269D1*
X510979Y81408D2*
X568840D1*
X510979Y79908D2*
X569183D1*
X510979Y78408D2*
X569354D1*
X524479Y76908D2*
X539479D1*
X552672D2*
X569430D1*
X524479Y75408D2*
X539479D1*
X553515D2*
X569461D1*
X524479Y73908D2*
X539479D1*
X554086D2*
X569473D1*
X552682Y72408D2*
X569477D1*
X550726Y70908D2*
X569478D1*
X510979Y69408D2*
X569473D1*
X510979Y67908D2*
X569420D1*
X510979Y66408D2*
X569223D1*
X510979Y64908D2*
X568806D1*
X510979Y63408D2*
X568171D1*
X510979Y61908D2*
X567301D1*
X510979Y60408D2*
X566156D1*
X510979Y58908D2*
X564723D1*
X510979Y57408D2*
X562839D1*
X510979Y55908D2*
X560346D1*
X510979Y54408D2*
X557479D1*
X-512909Y351350D2*
D13*
X-484038D1*
X-512909Y350038D2*
X-481564D1*
X-512909Y348726D2*
X-479671D1*
X-512909Y347413D2*
X-478343D1*
X-512909Y346101D2*
X-477417D1*
X-512909Y344789D2*
X-476798D1*
X-512909Y343476D2*
X-476450D1*
X-512909Y342164D2*
X-476283D1*
X-512909Y340852D2*
X-476210D1*
X-485350Y339539D2*
X-476186D1*
X-485350Y338227D2*
X-476226D1*
X-512909Y336915D2*
X-476441D1*
X-512909Y335602D2*
X-476972D1*
X-512909Y334290D2*
X-477840D1*
X-512909Y332978D2*
X-478928D1*
X-512909Y331665D2*
X-480101D1*
X-512909Y330353D2*
X-478997D1*
X-512909Y329041D2*
X-478061D1*
X-512909Y327728D2*
X-477307D1*
X-512909Y326416D2*
X-476757D1*
X-486663Y325104D2*
X-476436D1*
X-485350Y323791D2*
X-476278D1*
X-486663Y322479D2*
X-476208D1*
X-512909Y321167D2*
X-476185D1*
X-512909Y319854D2*
X-476221D1*
X-512909Y318542D2*
X-476390D1*
X-512909Y317230D2*
X-476759D1*
X-512909Y315917D2*
X-477363D1*
X-512909Y314605D2*
X-478324D1*
X-512909Y313293D2*
X-479740D1*
X-512909Y311980D2*
X-481413D1*
X-497161Y305419D2*
X-490600D1*
X-500134Y304106D2*
X-487627D1*
X-502591Y302794D2*
X-485170D1*
X-504533Y301482D2*
X-483233D1*
X-506138Y300169D2*
X-481669D1*
X-507531Y298857D2*
X-480403D1*
X-508721Y297545D2*
X-479401D1*
X-509686Y296232D2*
X-478579D1*
X-510450Y294920D2*
X-477855D1*
X-511008Y293608D2*
X-496898D1*
X-490908D2*
X-477217D1*
X-511376Y292295D2*
X-498927D1*
X-489001D2*
X-476721D1*
X-511702Y290983D2*
X-500465D1*
X-487615D2*
X-476423D1*
X-512086Y289671D2*
X-501504D1*
X-486645D2*
X-476273D1*
X-512450Y288358D2*
X-502202D1*
X-486002D2*
X-476207D1*
X-512690Y287046D2*
X-502721D1*
X-485644D2*
X-476180D1*
X-512810Y285734D2*
X-503116D1*
X-485477D2*
X-476170D1*
X-512821Y284421D2*
X-502927D1*
X-485454D2*
X-476166D1*
X-512677Y283109D2*
X-502486D1*
X-485648D2*
X-476170D1*
X-512367Y281797D2*
X-501754D1*
X-486058D2*
X-476216D1*
X-511987Y280484D2*
X-500779D1*
X-487221D2*
X-476388D1*
X-511587Y279172D2*
X-498439D1*
X-490128D2*
X-476748D1*
X-511100Y277860D2*
X-494913D1*
X-494494D2*
X-477257D1*
X-510495Y276547D2*
X-477851D1*
X-509756Y275235D2*
X-478528D1*
X-508919Y273923D2*
X-479345D1*
X-508030Y272610D2*
X-480365D1*
X-506945Y271298D2*
X-481579D1*
X-505474Y269986D2*
X-483043D1*
X-503549Y268673D2*
X-484857D1*
X-501152Y267361D2*
X-486998D1*
X-498474Y266049D2*
X-489287D1*
X-485350Y263424D2*
X-476164D1*
X-485350Y262112D2*
X-476164D1*
X-485350Y260799D2*
X-476164D1*
X-485350Y259487D2*
X-476164D1*
X-485350Y258175D2*
X-476164D1*
X-485350Y256862D2*
X-476164D1*
X-485350Y255550D2*
X-476164D1*
X-512909Y254238D2*
X-476164D1*
X-512909Y252925D2*
X-476164D1*
X-512909Y251613D2*
X-476164D1*
X-512909Y250301D2*
X-476164D1*
X-512909Y248988D2*
X-476164D1*
X-512909Y247676D2*
X-476164D1*
X-512909Y246364D2*
X-476164D1*
X-512909Y245051D2*
X-476164D1*
X-512909Y243739D2*
X-476164D1*
X-485350Y242427D2*
X-476164D1*
X-485350Y241114D2*
X-476164D1*
X-485350Y239802D2*
X-476164D1*
X-485350Y238490D2*
X-476164D1*
X-485350Y237177D2*
X-476164D1*
X-485350Y235865D2*
X-476164D1*
X-512909Y229303D2*
X-476164D1*
X-512909Y227991D2*
X-476164D1*
X-512909Y226678D2*
X-476164D1*
X-512909Y225366D2*
X-476164D1*
X-512909Y224054D2*
X-476164D1*
X-512909Y222741D2*
X-476164D1*
X-512909Y221429D2*
X-476164D1*
X-512909Y220117D2*
X-476164D1*
X-512909Y218804D2*
X-476164D1*
X-497161Y212243D2*
X-490600D1*
X-500134Y210930D2*
X-487627D1*
X-502591Y209618D2*
X-485170D1*
X-504533Y208306D2*
X-483233D1*
X-506138Y206993D2*
X-481669D1*
X-507531Y205681D2*
X-480403D1*
X-508721Y204369D2*
X-479401D1*
X-509686Y203056D2*
X-478579D1*
X-510450Y201744D2*
X-477855D1*
X-511008Y200432D2*
X-496898D1*
X-490908D2*
X-477217D1*
X-511376Y199119D2*
X-498927D1*
X-489001D2*
X-476721D1*
X-511702Y197807D2*
X-500465D1*
X-487615D2*
X-476423D1*
X-512086Y196495D2*
X-501504D1*
X-486645D2*
X-476273D1*
X-512450Y195182D2*
X-502202D1*
X-486002D2*
X-476207D1*
X-512690Y193870D2*
X-502721D1*
X-485644D2*
X-476180D1*
X-512810Y192558D2*
X-503116D1*
X-485477D2*
X-476170D1*
X-512821Y191245D2*
X-502927D1*
X-485454D2*
X-476166D1*
X-512677Y189933D2*
X-502486D1*
X-485648D2*
X-476170D1*
X-512367Y188621D2*
X-501754D1*
X-486058D2*
X-476216D1*
X-511987Y187308D2*
X-500779D1*
X-487221D2*
X-476388D1*
X-511587Y185996D2*
X-498439D1*
X-490128D2*
X-476748D1*
X-511100Y184684D2*
X-494913D1*
X-494494D2*
X-477257D1*
X-510495Y183371D2*
X-477851D1*
X-509756Y182059D2*
X-478528D1*
X-508919Y180747D2*
X-479345D1*
X-508030Y179434D2*
X-480365D1*
X-506945Y178122D2*
X-481579D1*
X-505474Y176810D2*
X-483043D1*
X-503549Y175497D2*
X-484857D1*
X-501152Y174185D2*
X-486998D1*
X-498474Y172873D2*
X-489287D1*
X-512909Y167623D2*
X-486663D1*
X-512909Y166311D2*
X-483695D1*
X-512909Y164999D2*
X-481285D1*
X-512909Y163686D2*
X-479515D1*
X-512909Y162374D2*
X-478270D1*
X-512909Y161062D2*
X-477386D1*
X-512909Y159749D2*
X-476786D1*
X-512909Y158437D2*
X-476446D1*
X-512909Y157125D2*
X-476281D1*
X-486976Y155812D2*
X-476209D1*
X-486213Y154500D2*
X-476181D1*
X-486308Y153188D2*
X-476170D1*
X-487079Y151875D2*
X-476171D1*
X-512909Y150563D2*
X-476216D1*
X-512909Y149251D2*
X-476388D1*
X-512909Y147938D2*
X-476753D1*
X-512909Y146626D2*
X-477313D1*
X-512909Y145314D2*
X-478137D1*
X-512909Y144001D2*
X-479446D1*
X-512909Y142689D2*
X-481533D1*
X-512909Y141377D2*
X-484510D1*
X-512909Y140064D2*
X-487975D1*
X-502411Y104631D2*
X-476164D1*
X-504935Y103319D2*
X-476164D1*
X-506996Y102007D2*
X-476164D1*
X-508638Y100694D2*
X-476164D1*
X-509906Y99382D2*
X-476164D1*
X-510801Y98070D2*
X-476164D1*
X-511437Y96757D2*
X-476164D1*
X-511975Y95445D2*
X-476164D1*
X-512407Y94133D2*
X-476164D1*
X-512674Y92820D2*
X-500841D1*
X-512810Y91508D2*
X-501613D1*
X-512873Y90196D2*
X-502083D1*
X-512909Y88883D2*
X-502411D1*
X-512909Y83634D2*
X-476164D1*
X-512909Y82322D2*
X-476164D1*
X-512909Y81009D2*
X-476164D1*
X-512909Y79697D2*
X-476164D1*
X-512909Y78385D2*
X-476164D1*
X-512909Y77072D2*
X-476164D1*
X-512909Y75760D2*
X-476164D1*
X-512909Y74448D2*
X-476164D1*
X-512909Y73135D2*
X-476164D1*
X-497161Y66573D2*
X-490600D1*
X-500337Y65261D2*
X-487627D1*
X-503114Y63949D2*
X-485170D1*
X-505350Y62636D2*
X-483228D1*
X-507017Y61324D2*
X-481623D1*
X-508218Y60012D2*
X-480230D1*
X-509127Y58699D2*
X-479041D1*
X-509886Y57387D2*
X-478075D1*
X-510542Y56075D2*
X-477312D1*
X-511089Y54762D2*
X-496898D1*
X-490908D2*
X-476759D1*
X-511556Y53450D2*
X-498927D1*
X-489001D2*
X-476437D1*
X-512021Y52138D2*
X-500461D1*
X-487615D2*
X-476278D1*
X-512424Y50825D2*
X-501627D1*
X-486645D2*
X-476208D1*
X-512674Y49513D2*
X-502069D1*
X-486002D2*
X-476180D1*
X-512760Y48201D2*
X-493224D1*
X-485644D2*
X-476170D1*
X-512652Y46888D2*
X-503482D1*
X-501340D2*
X-493224D1*
X-485472D2*
X-476166D1*
X-512357Y45576D2*
X-503021D1*
X-501800D2*
X-493224D1*
X-485397D2*
X-476165D1*
X-511984Y44264D2*
X-493224D1*
X-485368D2*
X-476164D1*
X-511586Y42951D2*
X-493224D1*
X-485356D2*
X-476164D1*
X-511100Y41639D2*
X-493230D1*
X-485350D2*
X-476164D1*
X-510484Y40327D2*
X-493281D1*
X-509650Y39014D2*
X-493499D1*
X-508448Y37702D2*
X-494027D1*
X-506851Y36390D2*
X-494866D1*
X-505035Y35077D2*
X-495849D1*
X-485350Y32453D2*
X-476164D1*
X-485350Y31140D2*
X-476164D1*
X-485350Y29828D2*
X-476164D1*
X-485350Y28516D2*
X-476164D1*
X-485350Y27203D2*
X-476164D1*
X-485350Y25891D2*
X-476164D1*
X-485350Y24579D2*
X-476164D1*
X-512909Y23266D2*
X-476164D1*
X-512909Y21954D2*
X-476164D1*
X-512909Y20642D2*
X-476164D1*
X-512909Y19329D2*
X-476164D1*
X-512909Y18017D2*
X-476164D1*
X-512909Y16705D2*
X-476164D1*
X-512909Y15392D2*
X-476164D1*
X-512909Y14080D2*
X-476164D1*
X-512909Y12768D2*
X-476164D1*
X-485350Y11455D2*
X-476164D1*
X-485350Y10143D2*
X-476164D1*
X-485350Y8831D2*
X-476164D1*
X-485350Y7518D2*
X-476164D1*
X-485350Y6206D2*
X-476164D1*
X-485350Y4894D2*
X-476164D1*
X-512909Y-1668D2*
X-476164D1*
X-512909Y-2980D2*
X-476164D1*
X-512909Y-4293D2*
X-476164D1*
X-512909Y-5605D2*
X-476164D1*
X-512909Y-6917D2*
X-476164D1*
X-512909Y-8230D2*
X-476164D1*
X-512909Y-9542D2*
X-476164D1*
X-512909Y-10854D2*
X-476164D1*
X-512909Y-12167D2*
X-476164D1*
X-498474Y-13479D2*
X-489287D1*
X-498474Y-14791D2*
X-489287D1*
X-512909Y-18728D2*
X-476164D1*
X-512909Y-20041D2*
X-476164D1*
X-512909Y-21353D2*
X-476164D1*
X-512909Y-22665D2*
X-476164D1*
X-512909Y-23978D2*
X-476164D1*
X-512909Y-25290D2*
X-476164D1*
X-512909Y-26602D2*
X-476164D1*
X-512909Y-27915D2*
X-476164D1*
X-485350Y-62035D2*
X-476164D1*
X-485350Y-63348D2*
X-476164D1*
X-485350Y-64660D2*
X-476164D1*
X-485350Y-65972D2*
X-476164D1*
X-485350Y-67285D2*
X-476164D1*
X-485350Y-68597D2*
X-476164D1*
X-485350Y-69909D2*
X-476164D1*
X-512909Y-71222D2*
X-476164D1*
X-512909Y-72534D2*
X-476164D1*
X-512909Y-73846D2*
X-476164D1*
X-512909Y-75159D2*
X-476164D1*
X-512909Y-76471D2*
X-476164D1*
X-512909Y-77783D2*
X-476164D1*
X-512909Y-79096D2*
X-476164D1*
X-512909Y-80408D2*
X-476164D1*
X-512909Y-81720D2*
X-476164D1*
X-485350Y-83033D2*
X-476164D1*
X-485350Y-84345D2*
X-476164D1*
X-485350Y-85657D2*
X-476164D1*
X-485350Y-86970D2*
X-476164D1*
X-485350Y-88282D2*
X-476164D1*
X-485350Y-89594D2*
X-476164D1*
X-503723Y-94844D2*
X-484038D1*
X-506242Y-96156D2*
X-481564D1*
X-508257Y-97469D2*
X-479671D1*
X-509737Y-98781D2*
X-478343D1*
X-510732Y-100093D2*
X-477417D1*
X-511411Y-101406D2*
X-476798D1*
X-511965Y-102718D2*
X-476450D1*
X-512404Y-104030D2*
X-476283D1*
X-512672Y-105343D2*
X-476210D1*
X-512809Y-106655D2*
X-502153D1*
X-498474D2*
X-489490D1*
X-486921D2*
X-476181D1*
X-512870Y-107967D2*
X-502920D1*
X-498474D2*
X-489816D1*
X-486153D2*
X-476170D1*
X-512895Y-109280D2*
X-503360D1*
X-498474D2*
X-490155D1*
X-485714D2*
X-476166D1*
X-512904Y-110592D2*
X-503573D1*
X-498474D2*
X-490385D1*
X-485500D2*
X-476165D1*
X-512908Y-111904D2*
X-503665D1*
X-498474D2*
X-490507D1*
X-485408D2*
X-476164D1*
X-512909Y-113217D2*
X-503702D1*
X-498474D2*
X-490563D1*
X-485372D2*
X-476164D1*
X-512909Y-114529D2*
X-503716D1*
X-498474D2*
X-490587D1*
X-485357D2*
X-476164D1*
X-512909Y-115841D2*
X-503723D1*
X-498474D2*
X-490600D1*
X-485350D2*
X-476164D1*
X-512909Y-122403D2*
X-484038D1*
X-512909Y-123715D2*
X-481564D1*
X-512909Y-125028D2*
X-479671D1*
X-512909Y-126340D2*
X-478343D1*
X-512909Y-127652D2*
X-477417D1*
X-512909Y-128965D2*
X-476798D1*
X-512909Y-130277D2*
X-476450D1*
X-512909Y-131589D2*
X-476283D1*
X-512909Y-132902D2*
X-476210D1*
X-485350Y-134214D2*
X-476186D1*
X-485350Y-135526D2*
X-476226D1*
X-512909Y-136839D2*
X-476441D1*
X-512909Y-138151D2*
X-476972D1*
X-512909Y-139463D2*
X-477840D1*
X-512909Y-140776D2*
X-478928D1*
X-512909Y-142088D2*
X-480101D1*
X-512909Y-143400D2*
X-478997D1*
X-512909Y-144713D2*
X-478061D1*
X-512909Y-146025D2*
X-477307D1*
X-512909Y-147337D2*
X-476757D1*
X-486663Y-148650D2*
X-476436D1*
X-485350Y-149962D2*
X-476278D1*
X-486663Y-151274D2*
X-476208D1*
X-512909Y-152587D2*
X-476185D1*
X-512909Y-153899D2*
X-476221D1*
X-512909Y-155211D2*
X-476390D1*
X-512909Y-156524D2*
X-476759D1*
X-512909Y-157836D2*
X-477363D1*
X-512909Y-159148D2*
X-478324D1*
X-512909Y-160461D2*
X-479740D1*
X-512909Y-161773D2*
X-481413D1*
X-512909Y-169647D2*
X-486663D1*
X-512909Y-170959D2*
X-484139D1*
X-512909Y-172272D2*
X-482078D1*
X-512909Y-173584D2*
X-480430D1*
X-512909Y-174896D2*
X-479121D1*
X-512909Y-176209D2*
X-478106D1*
X-512909Y-177521D2*
X-477322D1*
X-512909Y-178833D2*
X-476762D1*
X-512909Y-180146D2*
X-476438D1*
X-486936Y-181458D2*
X-476278D1*
X-499786Y-182770D2*
X-490600D1*
X-486095D2*
X-476208D1*
X-499781Y-184083D2*
X-490092D1*
X-485776D2*
X-476180D1*
X-499735Y-185395D2*
X-488549D1*
X-487385D2*
X-476175D1*
X-499568Y-186707D2*
X-476217D1*
X-499248Y-188020D2*
X-476388D1*
X-498860Y-189332D2*
X-476753D1*
X-498413Y-190644D2*
X-477308D1*
X-497753Y-191957D2*
X-478075D1*
X-496778Y-193269D2*
X-479116D1*
X-495455Y-194581D2*
X-480472D1*
X-493781Y-195894D2*
X-482161D1*
X-491912Y-197206D2*
X-484038D1*
X-512909Y-232639D2*
X-476164D1*
X-512909Y-233951D2*
X-476164D1*
X-512909Y-235264D2*
X-476164D1*
X-512909Y-236576D2*
X-476164D1*
X-512909Y-237888D2*
X-476164D1*
X-512909Y-239201D2*
X-476164D1*
X-512909Y-240513D2*
X-476164D1*
X-512909Y-241825D2*
X-476164D1*
X-512909Y-243138D2*
X-476164D1*
X-498474Y-244450D2*
X-489287D1*
X-498474Y-245762D2*
X-489287D1*
X-512909Y-249699D2*
X-476164D1*
X-512909Y-251012D2*
X-476164D1*
X-512909Y-252324D2*
X-476164D1*
X-512909Y-253636D2*
X-476164D1*
X-512909Y-254949D2*
X-476164D1*
X-512909Y-256261D2*
X-476164D1*
X-512909Y-257573D2*
X-476164D1*
X-512909Y-258886D2*
X-476164D1*
X-502411Y-266760D2*
X-476164D1*
X-505087Y-268072D2*
X-476164D1*
X-507306Y-269385D2*
X-476164D1*
X-508973Y-270697D2*
X-476164D1*
X-510135Y-272009D2*
X-476164D1*
X-510922Y-273322D2*
X-476164D1*
X-511492Y-274634D2*
X-476164D1*
X-511998Y-275946D2*
X-476164D1*
X-512416Y-277259D2*
X-476164D1*
X-512672Y-278571D2*
X-502098D1*
X-512759Y-279883D2*
X-502861D1*
X-512652Y-281196D2*
X-502766D1*
X-512357Y-282508D2*
X-501994D1*
X-511984Y-283820D2*
X-476164D1*
X-511586Y-285133D2*
X-476164D1*
X-511100Y-286445D2*
X-476164D1*
X-510484Y-287757D2*
X-476164D1*
X-509643Y-289070D2*
X-476164D1*
X-508375Y-290382D2*
X-476164D1*
X-506488Y-291694D2*
X-476164D1*
X-503958Y-293007D2*
X-476164D1*
X-501098Y-294319D2*
X-476164D1*
X-512909Y-300881D2*
X-484038D1*
X-512909Y-302193D2*
X-481564D1*
X-512909Y-303505D2*
X-479671D1*
X-512909Y-304818D2*
X-478343D1*
X-512909Y-306130D2*
X-477417D1*
X-512909Y-307442D2*
X-476798D1*
X-512909Y-308755D2*
X-476450D1*
X-512909Y-310067D2*
X-476283D1*
X-512909Y-311379D2*
X-476210D1*
X-485350Y-312692D2*
X-476186D1*
X-485350Y-314004D2*
X-476226D1*
X-512909Y-315316D2*
X-476441D1*
X-512909Y-316629D2*
X-476972D1*
X-512909Y-317941D2*
X-477840D1*
X-512909Y-319253D2*
X-478928D1*
X-512909Y-320566D2*
X-480101D1*
X-512909Y-321878D2*
X-478997D1*
X-512909Y-323190D2*
X-478061D1*
X-512909Y-324503D2*
X-477307D1*
X-512909Y-325815D2*
X-476757D1*
X-486663Y-327127D2*
X-476436D1*
X-485350Y-328440D2*
X-476278D1*
X-486663Y-329752D2*
X-476208D1*
X-512909Y-331064D2*
X-476185D1*
X-512909Y-332377D2*
X-476221D1*
X-512909Y-333689D2*
X-476390D1*
X-512909Y-335001D2*
X-476759D1*
X-512909Y-336314D2*
X-477363D1*
X-512909Y-337626D2*
X-478324D1*
X-512909Y-338938D2*
X-479740D1*
X-512909Y-340251D2*
X-481413D1*
X-286165Y243173D2*
D14*
X-288054Y242189D1*
X-289569Y241205D1*
X-290711Y240220D1*
X-291547Y239236D1*
X-292167Y238252D1*
X-292603Y237268D1*
X-292886Y236283D1*
X-293133Y235299D1*
X-293421Y234315D1*
X-293695Y233331D1*
X-293874Y232346D1*
X-293969Y231362D1*
X-294011Y230378D1*
X-294029Y229394D1*
X-294036Y228409D1*
X-294038Y227425D1*
X-294035Y226441D1*
X-294001Y225457D1*
X-293875Y224472D1*
X-293640Y223488D1*
X-293384Y222504D1*
X-293177Y221520D1*
X-292957Y220535D1*
X-292641Y219551D1*
X-292207Y218567D1*
X-291622Y217583D1*
X-290801Y216598D1*
X-289631Y215614D1*
X-288027Y214630D1*
X-286165Y213646D1*
X-280260Y243173D2*
X-278522Y242189D1*
X-277089Y241205D1*
X-276014Y240220D1*
X-275161Y239236D1*
X-274443Y238252D1*
X-273919Y237268D1*
X-273597Y236283D1*
X-273370Y235299D1*
X-264512Y243173D2*
X-265909Y242189D1*
X-267011Y241205D1*
X-267863Y240220D1*
X-268167Y239236D1*
X-268338Y238252D1*
X-268449Y237268D1*
X-260575Y243173D2*
Y242189D1*
Y241205D1*
Y240220D1*
Y239236D1*
Y238252D1*
Y237268D1*
Y236283D1*
Y235299D1*
Y234315D1*
Y233331D1*
Y232346D1*
Y231362D1*
Y230378D1*
Y229394D1*
Y228409D1*
Y227425D1*
Y226441D1*
Y225457D1*
Y224472D1*
Y223488D1*
Y222504D1*
Y221520D1*
Y220535D1*
Y219551D1*
Y218567D1*
Y217583D1*
Y216598D1*
Y215614D1*
Y214630D1*
Y213646D1*
X-283213Y240220D2*
X-284984Y239236D1*
X-286509Y238252D1*
X-287694Y237268D1*
X-288564Y236283D1*
X-289201Y235299D1*
X-289641Y234315D1*
X-289893Y233331D1*
X-290015Y232346D1*
X-290069Y231362D1*
X-290090Y230378D1*
X-290098Y229394D1*
X-290101Y228409D1*
X-290102Y227425D1*
Y226441D1*
X-290098Y225457D1*
X-290064Y224472D1*
X-289935Y223488D1*
X-289660Y222504D1*
X-289240Y221520D1*
X-288619Y220535D1*
X-287797Y219551D1*
X-285931Y218567D1*
X-283325Y217583D1*
X-280260Y216598D1*
X-283213Y240220D2*
X-281441Y239236D1*
X-279919Y238252D1*
X-278756Y237268D1*
X-277941Y236283D1*
X-277307Y235299D1*
X-263528Y239236D2*
X-265496Y238252D1*
X-267465Y237268D1*
X-263528Y239236D2*
Y238252D1*
Y237268D1*
Y236283D1*
Y235299D1*
Y234315D1*
Y233331D1*
Y232346D1*
Y231362D1*
Y230378D1*
Y229394D1*
Y228409D1*
Y227425D1*
Y226441D1*
Y225457D1*
Y224472D1*
Y223488D1*
Y222504D1*
Y221520D1*
Y220535D1*
Y219551D1*
Y218567D1*
Y217583D1*
Y216598D1*
Y215614D1*
Y214630D1*
Y213646D1*
X-277307Y221520D2*
X-277890Y220535D1*
X-278665Y219551D1*
X-280511Y218567D1*
X-283106Y217583D1*
X-286165Y216598D1*
X-273370Y221520D2*
X-273560Y220535D1*
X-273934Y219551D1*
X-274467Y218567D1*
X-275094Y217583D1*
X-275920Y216598D1*
X-277101Y215614D1*
X-278607Y214630D1*
X-280260Y213646D1*
X266903Y237077D2*
X265014Y236093D1*
X263499Y235109D1*
X262358Y234125D1*
X261521Y233140D1*
X260901Y232156D1*
X260465Y231172D1*
X260182Y230188D1*
X259936Y229203D1*
X259647Y228219D1*
X259374Y227235D1*
X259194Y226251D1*
X259100Y225266D1*
X259057Y224282D1*
X259039Y223298D1*
X259033Y222314D1*
X259030Y221329D1*
X259033Y220345D1*
X259067Y219361D1*
X259193Y218377D1*
X259428Y217392D1*
X259685Y216408D1*
X259891Y215424D1*
X260111Y214440D1*
X260427Y213455D1*
X260861Y212471D1*
X261447Y211487D1*
X262267Y210503D1*
X263437Y209518D1*
X265041Y208534D1*
X266903Y207550D1*
X272808Y237077D2*
X274546Y236093D1*
X275980Y235109D1*
X277054Y234125D1*
X277907Y233140D1*
X278625Y232156D1*
X279149Y231172D1*
X279471Y230188D1*
X279698Y229203D1*
X290525Y237077D2*
X289124Y236093D1*
X287987Y235109D1*
X287134Y234125D1*
X286502Y233140D1*
X286061Y232156D1*
X285793Y231172D1*
X285604Y230188D1*
X297415Y237077D2*
X298697Y236093D1*
X299686Y235109D1*
X300429Y234125D1*
X301030Y233140D1*
X301528Y232156D1*
X301875Y231172D1*
X302065Y230188D1*
X301873Y229203D1*
X301619Y228219D1*
X301334Y227235D1*
X300975Y226251D1*
X300524Y225266D1*
X299971Y224282D1*
X299346Y223298D1*
X298715Y222314D1*
X298038Y221329D1*
X297280Y220345D1*
X296521Y219361D1*
X295817Y218377D1*
X295107Y217392D1*
X294336Y216408D1*
X293571Y215424D1*
X292865Y214440D1*
X292151Y213455D1*
X291346Y212471D1*
X290460Y211487D1*
X289541Y210503D1*
X269856Y234125D2*
X268084Y233140D1*
X266559Y232156D1*
X265375Y231172D1*
X264505Y230188D1*
X263867Y229203D1*
X263427Y228219D1*
X263176Y227235D1*
X263053Y226251D1*
X263000Y225266D1*
X262978Y224282D1*
X262970Y223298D1*
X262967Y222314D1*
X262966Y221329D1*
Y220345D1*
X262970Y219361D1*
X263004Y218377D1*
X263134Y217392D1*
X263408Y216408D1*
X263828Y215424D1*
X264449Y214440D1*
X265272Y213455D1*
X267137Y212471D1*
X269743Y211487D1*
X272808Y210503D1*
X269856Y234125D2*
X271627Y233140D1*
X273149Y232156D1*
X274312Y231172D1*
X275127Y230188D1*
X275761Y229203D1*
X293478Y234125D2*
X291855Y233140D1*
X290544Y232156D1*
X289503Y231172D1*
X288556Y230188D1*
X293478Y234125D2*
X295211Y233140D1*
X296607Y232156D1*
X297680Y231172D1*
X298102Y230188D1*
X298107Y229203D1*
X297909Y228219D1*
X297560Y227235D1*
X297126Y226251D1*
X296624Y225266D1*
X296016Y224282D1*
X295291Y223298D1*
X294544Y222314D1*
X293845Y221329D1*
X293134Y220345D1*
X292332Y219361D1*
X291477Y218377D1*
X290661Y217392D1*
X289930Y216408D1*
X289209Y215424D1*
X288433Y214440D1*
X287670Y213455D1*
X287002Y212471D1*
X286451Y211487D1*
X286045Y210503D1*
X285806Y209518D1*
X285682Y208534D1*
X285604Y207550D1*
X275761Y215424D2*
X275178Y214440D1*
X274403Y213455D1*
X272557Y212471D1*
X269962Y211487D1*
X266903Y210503D1*
X279698Y215424D2*
X279509Y214440D1*
X279135Y213455D1*
X278602Y212471D1*
X277974Y211487D1*
X277148Y210503D1*
X275968Y209518D1*
X274461Y208534D1*
X272808Y207550D1*
X302336Y210503D2*
Y209518D1*
Y208534D1*
Y207550D1*
X-298238Y112402D2*
X-300127Y111417D1*
X-301642Y110433D1*
X-302783Y109449D1*
X-303620Y108465D1*
X-304239Y107480D1*
X-304675Y106496D1*
X-304958Y105512D1*
X-305205Y104528D1*
X-305493Y103543D1*
X-305767Y102559D1*
X-305947Y101575D1*
X-306041Y100591D1*
X-306083Y99606D1*
X-306101Y98622D1*
X-306108Y97638D1*
X-306110Y96654D1*
X-306107Y95669D1*
X-306073Y94685D1*
X-305948Y93701D1*
X-305712Y92717D1*
X-305456Y91732D1*
X-305249Y90748D1*
X-305029Y89764D1*
X-304713Y88780D1*
X-304279Y87795D1*
X-303694Y86811D1*
X-302873Y85827D1*
X-301703Y84843D1*
X-300100Y83858D1*
X-298238Y82874D1*
X-292332Y112402D2*
X-290594Y111417D1*
X-289161Y110433D1*
X-288087Y109449D1*
X-287233Y108465D1*
X-286515Y107480D1*
X-285991Y106496D1*
X-285669Y105512D1*
X-285442Y104528D1*
X-274615Y112402D2*
X-276017Y111417D1*
X-277154Y110433D1*
X-278006Y109449D1*
X-278638Y108465D1*
X-279080Y107480D1*
X-279348Y106496D1*
X-279537Y105512D1*
X-268710Y112402D2*
X-267275Y111417D1*
X-266047Y110433D1*
X-265083Y109449D1*
X-264327Y108465D1*
X-264050Y107480D1*
X-263900Y106496D1*
X-263836Y105512D1*
X-263843Y104528D1*
X-263962Y103543D1*
X-264236Y102559D1*
X-264689Y101575D1*
X-265409Y100591D1*
X-266471Y99606D1*
X-267726Y98622D1*
X-266561Y97638D1*
X-265562Y96654D1*
X-264776Y95669D1*
X-264142Y94685D1*
X-263622Y93701D1*
X-263233Y92717D1*
X-263006Y91732D1*
X-262926Y90748D1*
X-263005Y89764D1*
X-263254Y88780D1*
X-263632Y87795D1*
X-264114Y86811D1*
X-264784Y85827D1*
X-265790Y84843D1*
X-267163Y83858D1*
X-268710Y82874D1*
X-295285Y109449D2*
X-297056Y108465D1*
X-298581Y107480D1*
X-299766Y106496D1*
X-300636Y105512D1*
X-301273Y104528D1*
X-301713Y103543D1*
X-301965Y102559D1*
X-302087Y101575D1*
X-302141Y100591D1*
X-302162Y99606D1*
X-302170Y98622D1*
X-302173Y97638D1*
X-302174Y96654D1*
Y95669D1*
X-302171Y94685D1*
X-302136Y93701D1*
X-302007Y92717D1*
X-301733Y91732D1*
X-301313Y90748D1*
X-300691Y89764D1*
X-299869Y88780D1*
X-298004Y87795D1*
X-295398Y86811D1*
X-292332Y85827D1*
X-295285Y109449D2*
X-293514Y108465D1*
X-291991Y107480D1*
X-290828Y106496D1*
X-290013Y105512D1*
X-289379Y104528D1*
X-272647Y109449D2*
X-273631Y108465D1*
X-274615Y107480D1*
X-275600Y106496D1*
X-276584Y105512D1*
X-271663Y109449D2*
X-270044Y108465D1*
X-268766Y107480D1*
X-267875Y106496D1*
X-267216Y105512D1*
X-267043Y104528D1*
X-267301Y103543D1*
X-267726Y102559D1*
X-268833Y101575D1*
X-270155Y100591D1*
X-271448Y99606D1*
X-272090Y98622D1*
X-272293Y97638D1*
X-270940Y96654D1*
X-269498Y95669D1*
X-268305Y94685D1*
X-267376Y93701D1*
X-267048Y92717D1*
X-266875Y91732D1*
X-266838Y90748D1*
X-266902Y89764D1*
X-267439Y88780D1*
X-269122Y87795D1*
X-271621Y86811D1*
X-274615Y85827D1*
X-289379Y90748D2*
X-289962Y89764D1*
X-290738Y88780D1*
X-292583Y87795D1*
X-295179Y86811D1*
X-298238Y85827D1*
X-285442Y90748D2*
X-285632Y89764D1*
X-286006Y88780D1*
X-286539Y87795D1*
X-287166Y86811D1*
X-287992Y85827D1*
X-289173Y84843D1*
X-290680Y83858D1*
X-292332Y82874D1*
X-280521Y89764D2*
X-280143Y88780D1*
X-279686Y87795D1*
X-279095Y86811D1*
X-278310Y85827D1*
X-277291Y84843D1*
X-276023Y83858D1*
X-274615Y82874D1*
X-276584Y89764D2*
X-275936Y88780D1*
X-274225Y87795D1*
X-271712Y86811D1*
X-268710Y85827D1*
X-32457Y-357105D2*
Y-358089D1*
Y-359073D1*
Y-360058D1*
Y-361042D1*
Y-362026D1*
Y-363010D1*
Y-363995D1*
Y-364979D1*
Y-365963D1*
Y-366948D1*
Y-367932D1*
Y-368916D1*
Y-369900D1*
Y-370885D1*
Y-371869D1*
Y-372853D1*
Y-373837D1*
Y-374822D1*
Y-375806D1*
Y-376790D1*
Y-377774D1*
Y-378759D1*
Y-379743D1*
Y-380727D1*
Y-381711D1*
Y-382696D1*
Y-383680D1*
Y-384664D1*
Y-385648D1*
Y-386633D1*
X-28520Y-357105D2*
Y-358089D1*
Y-359073D1*
Y-360058D1*
Y-361042D1*
Y-362026D1*
Y-363010D1*
Y-363995D1*
Y-364979D1*
Y-365963D1*
Y-366948D1*
Y-367932D1*
Y-368916D1*
Y-369900D1*
Y-370885D1*
Y-371869D1*
Y-372853D1*
Y-373837D1*
Y-374822D1*
Y-375806D1*
Y-376790D1*
Y-377774D1*
Y-378759D1*
Y-379743D1*
Y-380727D1*
Y-381711D1*
Y-382696D1*
Y-383680D1*
X-7850Y-357105D2*
Y-358089D1*
Y-359073D1*
Y-360058D1*
Y-361042D1*
Y-362026D1*
Y-363010D1*
Y-363995D1*
Y-364979D1*
Y-365963D1*
Y-366948D1*
Y-367932D1*
Y-368916D1*
Y-369900D1*
Y-370885D1*
Y-371869D1*
Y-372853D1*
Y-373837D1*
Y-374822D1*
Y-375806D1*
Y-376790D1*
Y-377774D1*
Y-378759D1*
Y-379743D1*
Y-380727D1*
Y-381711D1*
Y-382696D1*
Y-383680D1*
Y-384664D1*
Y-385648D1*
Y-386633D1*
X10850Y-357105D2*
Y-358089D1*
Y-359073D1*
Y-360058D1*
X17740Y-357105D2*
Y-358089D1*
Y-359073D1*
Y-360058D1*
Y-361042D1*
Y-362026D1*
Y-363010D1*
Y-363995D1*
Y-364979D1*
Y-365963D1*
Y-366948D1*
Y-367932D1*
Y-368916D1*
Y-369900D1*
Y-370885D1*
Y-371869D1*
Y-372853D1*
Y-373837D1*
Y-374822D1*
Y-375806D1*
Y-376790D1*
Y-377774D1*
Y-378759D1*
Y-379743D1*
Y-380727D1*
Y-381711D1*
Y-382696D1*
Y-383680D1*
Y-384664D1*
Y-385648D1*
Y-386633D1*
X31520Y-357105D2*
X33257Y-358089D1*
X34687Y-359073D1*
X35731Y-360058D1*
X36493Y-361042D1*
X37100Y-362026D1*
X37605Y-363010D1*
X37986Y-363995D1*
X38214Y-364979D1*
X38327Y-365963D1*
X38377Y-366948D1*
X38398Y-367932D1*
X38405Y-368916D1*
X38408Y-369900D1*
X38409Y-370885D1*
Y-371869D1*
Y-372853D1*
Y-373837D1*
Y-374822D1*
Y-375806D1*
X38406Y-376790D1*
X38371Y-377774D1*
X38242Y-378759D1*
X37971Y-379743D1*
X37590Y-380727D1*
X37140Y-381711D1*
X36594Y-382696D1*
X35817Y-383680D1*
X34662Y-384664D1*
X33166Y-385648D1*
X31520Y-386633D1*
X-3913Y-360058D2*
Y-361042D1*
Y-362026D1*
Y-363010D1*
Y-363995D1*
Y-364979D1*
Y-365963D1*
Y-366948D1*
Y-367932D1*
Y-368916D1*
Y-369900D1*
Y-370885D1*
X21677Y-360058D2*
Y-361042D1*
Y-362026D1*
Y-363010D1*
Y-363995D1*
Y-364979D1*
Y-365963D1*
Y-366948D1*
Y-367932D1*
Y-368916D1*
Y-369900D1*
Y-370885D1*
Y-371869D1*
Y-372853D1*
Y-373837D1*
Y-374822D1*
Y-375806D1*
Y-376790D1*
Y-377774D1*
Y-378759D1*
Y-379743D1*
Y-380727D1*
Y-381711D1*
Y-382696D1*
X29551Y-383680D1*
X28567Y-360058D2*
X30338Y-361042D1*
X31860Y-362026D1*
X33010Y-363010D1*
X33883Y-363995D1*
X34188Y-364979D1*
X34352Y-365963D1*
X34425Y-366948D1*
X34455Y-367932D1*
X34466Y-368916D1*
X34470Y-369900D1*
X34472Y-370885D1*
Y-371869D1*
Y-372853D1*
Y-373837D1*
Y-374822D1*
Y-375806D1*
X34469Y-376790D1*
X34430Y-377774D1*
X34262Y-378759D1*
X33944Y-379743D1*
X33024Y-380727D1*
X30328Y-381711D1*
X26030Y-382696D1*
X20693Y-383680D1*
X8882Y-370885D2*
Y-371869D1*
Y-372853D1*
Y-373837D1*
X-3913D2*
Y-374822D1*
Y-375806D1*
Y-376790D1*
Y-377774D1*
Y-378759D1*
Y-379743D1*
Y-380727D1*
Y-381711D1*
Y-382696D1*
Y-383680D1*
X-13756D2*
Y-384664D1*
Y-385648D1*
Y-386633D1*
X10850Y-383680D2*
Y-384664D1*
Y-385648D1*
Y-386633D1*
X-577324Y302106D2*
Y301122D1*
Y300138D1*
Y299154D1*
Y298169D1*
Y297185D1*
Y296201D1*
Y295217D1*
Y294232D1*
Y293248D1*
Y292264D1*
Y291280D1*
Y290295D1*
Y289311D1*
Y288327D1*
Y287343D1*
Y286358D1*
Y285374D1*
Y284390D1*
Y283406D1*
X-577328Y282421D1*
X-577363Y281437D1*
X-577496Y280453D1*
X-577824Y279469D1*
X-578332Y278484D1*
X-580071Y277500D1*
X-582814Y276516D1*
X-586182Y275531D1*
X-573387Y302106D2*
Y301122D1*
Y300138D1*
Y299154D1*
Y298169D1*
Y297185D1*
Y296201D1*
Y295217D1*
Y294232D1*
Y293248D1*
Y292264D1*
Y291280D1*
Y290295D1*
Y289311D1*
Y288327D1*
Y287343D1*
Y286358D1*
Y285374D1*
Y284390D1*
Y283406D1*
X-573391Y282421D1*
X-573426Y281437D1*
X-573551Y280453D1*
X-573791Y279469D1*
X-574081Y278484D1*
X-574417Y277500D1*
X-574912Y276516D1*
X-575643Y275531D1*
X-576636Y274547D1*
X-577891Y273563D1*
X-579293Y272579D1*
X-563545Y302106D2*
X-564942Y301122D1*
X-566044Y300138D1*
X-566896Y299154D1*
X-567200Y298169D1*
X-567371Y297185D1*
X-567482Y296201D1*
X-559608Y302106D2*
Y301122D1*
Y300138D1*
Y299154D1*
Y298169D1*
Y297185D1*
Y296201D1*
Y295217D1*
Y294232D1*
Y293248D1*
Y292264D1*
Y291280D1*
Y290295D1*
Y289311D1*
Y288327D1*
Y287343D1*
Y286358D1*
Y285374D1*
Y284390D1*
Y283406D1*
Y282421D1*
Y281437D1*
Y280453D1*
Y279469D1*
Y278484D1*
Y277500D1*
Y276516D1*
Y275531D1*
Y274547D1*
Y273563D1*
Y272579D1*
X-562560Y298169D2*
X-564529Y297185D1*
X-566497Y296201D1*
X-562560Y298169D2*
Y297185D1*
Y296201D1*
Y295217D1*
Y294232D1*
Y293248D1*
Y292264D1*
Y291280D1*
Y290295D1*
Y289311D1*
Y288327D1*
Y287343D1*
Y286358D1*
Y285374D1*
Y284390D1*
Y283406D1*
Y282421D1*
Y281437D1*
Y280453D1*
Y279469D1*
Y278484D1*
Y277500D1*
Y276516D1*
Y275531D1*
Y274547D1*
Y273563D1*
Y272579D1*
X-588151Y277500D2*
X-589135Y276516D1*
X-590119Y275531D1*
X-588773Y274547D1*
X-587098Y273563D1*
X-585198Y272579D1*
X-587167Y277500D2*
X-583353Y276516D1*
X-579293Y275531D1*
X-574978Y-269699D2*
Y-270684D1*
Y-271668D1*
Y-272652D1*
Y-273636D1*
Y-274621D1*
Y-275605D1*
Y-276589D1*
Y-277573D1*
Y-278558D1*
Y-279542D1*
Y-280526D1*
Y-281510D1*
Y-282495D1*
Y-283479D1*
Y-284463D1*
Y-285448D1*
Y-286432D1*
Y-287416D1*
Y-288400D1*
X-574982Y-289385D1*
X-575016Y-290369D1*
X-575149Y-291353D1*
X-575477Y-292337D1*
X-575985Y-293322D1*
X-577725Y-294306D1*
X-580467Y-295290D1*
X-583836Y-296274D1*
X-571041Y-269699D2*
Y-270684D1*
Y-271668D1*
Y-272652D1*
Y-273636D1*
Y-274621D1*
Y-275605D1*
Y-276589D1*
Y-277573D1*
Y-278558D1*
Y-279542D1*
Y-280526D1*
Y-281510D1*
Y-282495D1*
Y-283479D1*
Y-284463D1*
Y-285448D1*
Y-286432D1*
Y-287416D1*
Y-288400D1*
X-571045Y-289385D1*
X-571079Y-290369D1*
X-571205Y-291353D1*
X-571444Y-292337D1*
X-571735Y-293322D1*
X-572070Y-294306D1*
X-572565Y-295290D1*
X-573296Y-296274D1*
X-574289Y-297259D1*
X-575545Y-298243D1*
X-576946Y-299227D1*
X-559230Y-269699D2*
X-560631Y-270684D1*
X-561768Y-271668D1*
X-562621Y-272652D1*
X-563252Y-273636D1*
X-563694Y-274621D1*
X-563962Y-275605D1*
X-564151Y-276589D1*
X-552340Y-269699D2*
X-551057Y-270684D1*
X-550069Y-271668D1*
X-549326Y-272652D1*
X-548725Y-273636D1*
X-548226Y-274621D1*
X-547880Y-275605D1*
X-547689Y-276589D1*
X-547882Y-277573D1*
X-548136Y-278558D1*
X-548420Y-279542D1*
X-548779Y-280526D1*
X-549231Y-281510D1*
X-549784Y-282495D1*
X-550408Y-283479D1*
X-551040Y-284463D1*
X-551717Y-285448D1*
X-552474Y-286432D1*
X-553234Y-287416D1*
X-553938Y-288400D1*
X-554648Y-289385D1*
X-555419Y-290369D1*
X-556184Y-291353D1*
X-556890Y-292337D1*
X-557604Y-293322D1*
X-558409Y-294306D1*
X-559294Y-295290D1*
X-560214Y-296274D1*
X-556277Y-272652D2*
X-557899Y-273636D1*
X-559210Y-274621D1*
X-560251Y-275605D1*
X-561198Y-276589D1*
X-556277Y-272652D2*
X-554543Y-273636D1*
X-553148Y-274621D1*
X-552075Y-275605D1*
X-551653Y-276589D1*
X-551648Y-277573D1*
X-551845Y-278558D1*
X-552195Y-279542D1*
X-552628Y-280526D1*
X-553131Y-281510D1*
X-553739Y-282495D1*
X-554464Y-283479D1*
X-555210Y-284463D1*
X-555909Y-285448D1*
X-556621Y-286432D1*
X-557422Y-287416D1*
X-558278Y-288400D1*
X-559094Y-289385D1*
X-559825Y-290369D1*
X-560546Y-291353D1*
X-561322Y-292337D1*
X-562084Y-293322D1*
X-562753Y-294306D1*
X-563303Y-295290D1*
X-563710Y-296274D1*
X-563949Y-297259D1*
X-564073Y-298243D1*
X-564151Y-299227D1*
X-585804Y-294306D2*
X-586789Y-295290D1*
X-587773Y-296274D1*
X-586427Y-297259D1*
X-584752Y-298243D1*
X-582852Y-299227D1*
X-584820Y-294306D2*
X-581006Y-295290D1*
X-576946Y-296274D1*
X-547419D2*
Y-297259D1*
Y-298243D1*
Y-299227D1*
X558085Y-264987D2*
Y-265971D1*
Y-266955D1*
Y-267940D1*
Y-268924D1*
Y-269908D1*
Y-270892D1*
Y-271877D1*
Y-272861D1*
Y-273845D1*
Y-274829D1*
Y-275814D1*
Y-276798D1*
Y-277782D1*
Y-278766D1*
Y-279751D1*
Y-280735D1*
Y-281719D1*
Y-282703D1*
Y-283688D1*
X558081Y-284672D1*
X558047Y-285656D1*
X557914Y-286640D1*
X557586Y-287625D1*
X557078Y-288609D1*
X555338Y-289593D1*
X552596Y-290577D1*
X549227Y-291562D1*
X562022Y-264987D2*
Y-265971D1*
Y-266955D1*
Y-267940D1*
Y-268924D1*
Y-269908D1*
Y-270892D1*
Y-271877D1*
Y-272861D1*
Y-273845D1*
Y-274829D1*
Y-275814D1*
Y-276798D1*
Y-277782D1*
Y-278766D1*
Y-279751D1*
Y-280735D1*
Y-281719D1*
Y-282703D1*
Y-283688D1*
X562018Y-284672D1*
X561984Y-285656D1*
X561858Y-286640D1*
X561619Y-287625D1*
X561328Y-288609D1*
X560993Y-289593D1*
X560498Y-290577D1*
X559767Y-291562D1*
X558774Y-292546D1*
X557518Y-293530D1*
X556117Y-294514D1*
X573833Y-264987D2*
X572432Y-265971D1*
X571295Y-266955D1*
X570442Y-267940D1*
X569811Y-268924D1*
X569369Y-269908D1*
X569101Y-270892D1*
X568912Y-271877D1*
X579739Y-264987D2*
X581174Y-265971D1*
X582402Y-266955D1*
X583365Y-267940D1*
X584122Y-268924D1*
X584399Y-269908D1*
X584549Y-270892D1*
X584613Y-271877D1*
X584606Y-272861D1*
X584487Y-273845D1*
X584212Y-274829D1*
X583760Y-275814D1*
X583040Y-276798D1*
X581978Y-277782D1*
X580723Y-278766D1*
X581888Y-279751D1*
X582886Y-280735D1*
X583673Y-281719D1*
X584307Y-282703D1*
X584827Y-283688D1*
X585216Y-284672D1*
X585443Y-285656D1*
X585523Y-286640D1*
X585444Y-287625D1*
X585194Y-288609D1*
X584817Y-289593D1*
X584335Y-290577D1*
X583665Y-291562D1*
X582659Y-292546D1*
X581286Y-293530D1*
X579739Y-294514D1*
X575802Y-267940D2*
X574818Y-268924D1*
X573833Y-269908D1*
X572849Y-270892D1*
X571865Y-271877D1*
X576786Y-267940D2*
X578405Y-268924D1*
X579683Y-269908D1*
X580574Y-270892D1*
X581233Y-271877D1*
X581405Y-272861D1*
X581147Y-273845D1*
X580723Y-274829D1*
X579616Y-275814D1*
X578294Y-276798D1*
X577001Y-277782D1*
X576359Y-278766D1*
X576155Y-279751D1*
X577509Y-280735D1*
X578951Y-281719D1*
X580144Y-282703D1*
X581072Y-283688D1*
X581401Y-284672D1*
X581574Y-285656D1*
X581611Y-286640D1*
X581547Y-287625D1*
X581010Y-288609D1*
X579327Y-289593D1*
X576828Y-290577D1*
X573833Y-291562D1*
X567928Y-287625D2*
X568306Y-288609D1*
X568763Y-289593D1*
X569353Y-290577D1*
X570139Y-291562D1*
X571158Y-292546D1*
X572426Y-293530D1*
X573833Y-294514D1*
X571865Y-287625D2*
X572513Y-288609D1*
X574224Y-289593D1*
X576737Y-290577D1*
X579739Y-291562D1*
X547259Y-289593D2*
X546274Y-290577D1*
X545290Y-291562D1*
X546636Y-292546D1*
X548311Y-293530D1*
X550211Y-294514D1*
X548243Y-289593D2*
X552057Y-290577D1*
X556117Y-291562D1*
X-298058Y434958D2*
Y433974D1*
Y432990D1*
Y432005D1*
Y431021D1*
Y430037D1*
Y429052D1*
Y428068D1*
Y427084D1*
Y426100D1*
Y425115D1*
Y424131D1*
Y423147D1*
Y422163D1*
Y421178D1*
Y420194D1*
Y419210D1*
Y418226D1*
Y417241D1*
Y416257D1*
Y415273D1*
Y414289D1*
Y413304D1*
Y412320D1*
Y411336D1*
Y410352D1*
Y409367D1*
Y408383D1*
Y407399D1*
Y406415D1*
Y405430D1*
X-283294Y434958D2*
X-281859Y433974D1*
X-280631Y432990D1*
X-279663Y432005D1*
X-278981Y431021D1*
X-278497Y430037D1*
X-278091Y429052D1*
X-277770Y428068D1*
X-277604Y427084D1*
X-277627Y426100D1*
X-277821Y425115D1*
X-278094Y424131D1*
X-278422Y423147D1*
X-278914Y422163D1*
X-279638Y421178D1*
X-280562Y420194D1*
X-281520Y419210D1*
X-282363Y418226D1*
X-282566Y417241D1*
X-282295Y416257D1*
X-281841Y415273D1*
X-281265Y414289D1*
X-280685Y413304D1*
X-280140Y412320D1*
X-279621Y411336D1*
X-279118Y410352D1*
X-278621Y409367D1*
X-278125Y408383D1*
X-277606Y407399D1*
X-277031Y406415D1*
X-276404Y405430D1*
X-267546Y434958D2*
X-268943Y433974D1*
X-270046Y432990D1*
X-270898Y432005D1*
X-271201Y431021D1*
X-271372Y430037D1*
X-271483Y429052D1*
X-263609Y434958D2*
Y433974D1*
Y432990D1*
Y432005D1*
Y431021D1*
Y430037D1*
Y429052D1*
Y428068D1*
Y427084D1*
Y426100D1*
Y425115D1*
Y424131D1*
Y423147D1*
Y422163D1*
Y421178D1*
Y420194D1*
Y419210D1*
Y418226D1*
Y417241D1*
Y416257D1*
Y415273D1*
Y414289D1*
Y413304D1*
Y412320D1*
Y411336D1*
Y410352D1*
Y409367D1*
Y408383D1*
Y407399D1*
Y406415D1*
Y405430D1*
X-294121Y432005D2*
Y431021D1*
Y430037D1*
Y429052D1*
Y428068D1*
Y427084D1*
Y426100D1*
Y425115D1*
Y424131D1*
Y423147D1*
Y422163D1*
X-285262Y421178D1*
X-286247Y432005D2*
X-284628Y431021D1*
X-283350Y430037D1*
X-282455Y429052D1*
X-281784Y428068D1*
X-281586Y427084D1*
X-281512Y426100D1*
X-281758Y425115D1*
X-282418Y424131D1*
X-285010Y423147D1*
X-289458Y422163D1*
X-295105Y421178D1*
X-266562Y431021D2*
X-268530Y430037D1*
X-270499Y429052D1*
X-266562Y431021D2*
Y430037D1*
Y429052D1*
Y428068D1*
Y427084D1*
Y426100D1*
Y425115D1*
Y424131D1*
Y423147D1*
Y422163D1*
Y421178D1*
Y420194D1*
Y419210D1*
Y418226D1*
Y417241D1*
Y416257D1*
Y415273D1*
Y414289D1*
Y413304D1*
Y412320D1*
Y411336D1*
Y410352D1*
Y409367D1*
Y408383D1*
Y407399D1*
Y406415D1*
Y405430D1*
X-294121Y418226D2*
Y417241D1*
Y416257D1*
Y415273D1*
Y414289D1*
Y413304D1*
Y412320D1*
Y411336D1*
Y410352D1*
Y409367D1*
Y408383D1*
Y407399D1*
Y406415D1*
Y405430D1*
X-288215Y418226D2*
X-287387Y417241D1*
X-286681Y416257D1*
X-286081Y415273D1*
X-285540Y414289D1*
X-285028Y413304D1*
X-284528Y412320D1*
X-284034Y411336D1*
X-283540Y410352D1*
X-283048Y409367D1*
X-282559Y408383D1*
X-282093Y407399D1*
X-281683Y406415D1*
X-281325Y405430D1*
X-284879Y-246264D2*
Y-247248D1*
Y-248232D1*
Y-249217D1*
Y-250201D1*
Y-251185D1*
Y-252169D1*
Y-253154D1*
Y-254138D1*
Y-255122D1*
Y-256106D1*
Y-257091D1*
Y-258075D1*
Y-259059D1*
Y-260043D1*
Y-261028D1*
Y-262012D1*
Y-262996D1*
Y-263980D1*
Y-264965D1*
Y-265949D1*
Y-266933D1*
Y-267917D1*
Y-268902D1*
Y-269886D1*
Y-270870D1*
Y-271854D1*
Y-272839D1*
Y-273823D1*
Y-274807D1*
Y-275791D1*
X-270115Y-246264D2*
X-268681Y-247248D1*
X-267452Y-248232D1*
X-266485Y-249217D1*
X-265802Y-250201D1*
X-265319Y-251185D1*
X-264913Y-252169D1*
X-264591Y-253154D1*
X-264426Y-254138D1*
X-264449Y-255122D1*
X-264643Y-256106D1*
X-264915Y-257091D1*
X-265244Y-258075D1*
X-265736Y-259059D1*
X-266459Y-260043D1*
X-267383Y-261028D1*
X-268342Y-262012D1*
X-269184Y-262996D1*
X-269388Y-263980D1*
X-269116Y-264965D1*
X-268663Y-265949D1*
X-268087Y-266933D1*
X-267507Y-267917D1*
X-266962Y-268902D1*
X-266443Y-269886D1*
X-265940Y-270870D1*
X-265442Y-271854D1*
X-264946Y-272839D1*
X-264427Y-273823D1*
X-263853Y-274807D1*
X-263226Y-275791D1*
X-252399Y-246264D2*
X-253800Y-247248D1*
X-254937Y-248232D1*
X-255790Y-249217D1*
X-256422Y-250201D1*
X-256863Y-251185D1*
X-257131Y-252169D1*
X-257320Y-253154D1*
X-245509Y-246264D2*
X-244227Y-247248D1*
X-243238Y-248232D1*
X-242495Y-249217D1*
X-241894Y-250201D1*
X-241396Y-251185D1*
X-241049Y-252169D1*
X-240859Y-253154D1*
X-241051Y-254138D1*
X-241305Y-255122D1*
X-241590Y-256106D1*
X-241949Y-257091D1*
X-242400Y-258075D1*
X-242953Y-259059D1*
X-243577Y-260043D1*
X-244209Y-261028D1*
X-244886Y-262012D1*
X-245643Y-262996D1*
X-246403Y-263980D1*
X-247107Y-264965D1*
X-247817Y-265949D1*
X-248588Y-266933D1*
X-249353Y-267917D1*
X-250059Y-268902D1*
X-250773Y-269886D1*
X-251578Y-270870D1*
X-252464Y-271854D1*
X-253383Y-272839D1*
X-280942Y-249217D2*
Y-250201D1*
Y-251185D1*
Y-252169D1*
Y-253154D1*
Y-254138D1*
Y-255122D1*
Y-256106D1*
Y-257091D1*
Y-258075D1*
Y-259059D1*
X-272084Y-260043D1*
X-273068Y-249217D2*
X-271449Y-250201D1*
X-270172Y-251185D1*
X-269277Y-252169D1*
X-268606Y-253154D1*
X-268407Y-254138D1*
X-268333Y-255122D1*
X-268580Y-256106D1*
X-269239Y-257091D1*
X-271832Y-258075D1*
X-276279Y-259059D1*
X-281927Y-260043D1*
X-249446Y-249217D2*
X-251069Y-250201D1*
X-252380Y-251185D1*
X-253421Y-252169D1*
X-254367Y-253154D1*
X-249446Y-249217D2*
X-247712Y-250201D1*
X-246317Y-251185D1*
X-245244Y-252169D1*
X-244822Y-253154D1*
X-244817Y-254138D1*
X-245014Y-255122D1*
X-245364Y-256106D1*
X-245797Y-257091D1*
X-246300Y-258075D1*
X-246908Y-259059D1*
X-247633Y-260043D1*
X-248380Y-261028D1*
X-249079Y-262012D1*
X-249790Y-262996D1*
X-250591Y-263980D1*
X-251447Y-264965D1*
X-252263Y-265949D1*
X-252994Y-266933D1*
X-253715Y-267917D1*
X-254491Y-268902D1*
X-255254Y-269886D1*
X-255922Y-270870D1*
X-256472Y-271854D1*
X-256879Y-272839D1*
X-257118Y-273823D1*
X-257242Y-274807D1*
X-257320Y-275791D1*
X-280942Y-262996D2*
Y-263980D1*
Y-264965D1*
Y-265949D1*
Y-266933D1*
Y-267917D1*
Y-268902D1*
Y-269886D1*
Y-270870D1*
Y-271854D1*
Y-272839D1*
Y-273823D1*
Y-274807D1*
Y-275791D1*
X-275037Y-262996D2*
X-274208Y-263980D1*
X-273503Y-264965D1*
X-272903Y-265949D1*
X-272361Y-266933D1*
X-271850Y-267917D1*
X-271350Y-268902D1*
X-270855Y-269886D1*
X-270362Y-270870D1*
X-269870Y-271854D1*
X-269380Y-272839D1*
X-268914Y-273823D1*
X-268504Y-274807D1*
X-268147Y-275791D1*
X-240588Y-272839D2*
Y-273823D1*
Y-274807D1*
Y-275791D1*
X-66672Y387066D2*
Y386081D1*
Y385097D1*
Y384113D1*
Y383129D1*
Y382144D1*
Y381160D1*
Y380176D1*
Y379192D1*
Y378207D1*
Y377223D1*
Y376239D1*
Y375255D1*
Y374270D1*
Y373286D1*
Y372302D1*
Y371318D1*
Y370333D1*
Y369349D1*
Y368365D1*
Y367381D1*
Y366396D1*
Y365412D1*
Y364428D1*
Y363444D1*
Y362459D1*
Y361475D1*
Y360491D1*
Y359507D1*
Y358522D1*
Y357538D1*
X-51908Y387066D2*
X-50171Y386081D1*
X-48900Y385097D1*
X-48014Y384113D1*
X-47349Y383129D1*
X-46821Y382144D1*
X-46435Y381160D1*
X-46239Y380176D1*
X-46253Y379192D1*
X-46477Y378207D1*
X-46873Y377223D1*
X-47432Y376239D1*
X-48131Y375255D1*
X-48793Y374270D1*
X-49312Y373286D1*
X-49227Y372302D1*
X-48616Y371318D1*
X-47868Y370333D1*
X-47136Y369349D1*
X-46588Y368365D1*
X-46269Y367381D1*
X-46113Y366396D1*
X-46049Y365412D1*
X-46057Y364428D1*
X-46176Y363444D1*
X-46446Y362459D1*
X-46865Y361475D1*
X-47474Y360491D1*
X-48368Y359507D1*
X-49564Y358522D1*
X-50924Y357538D1*
X-39113Y387066D2*
Y386081D1*
Y385097D1*
Y384113D1*
Y383129D1*
Y382144D1*
Y381160D1*
Y380176D1*
Y379192D1*
Y378207D1*
Y377223D1*
Y376239D1*
Y375255D1*
Y374270D1*
Y373286D1*
Y372302D1*
Y371318D1*
Y370333D1*
Y369349D1*
Y368365D1*
Y367381D1*
Y366396D1*
Y365412D1*
Y364428D1*
Y363444D1*
Y362459D1*
Y361475D1*
Y360491D1*
Y359507D1*
Y358522D1*
Y357538D1*
X-35176Y387066D2*
Y386081D1*
Y385097D1*
Y384113D1*
Y383129D1*
Y382144D1*
Y381160D1*
Y380176D1*
Y379192D1*
Y378207D1*
Y377223D1*
Y376239D1*
Y375255D1*
Y374270D1*
Y373286D1*
X-21396Y387066D2*
Y386081D1*
Y385097D1*
Y384113D1*
Y383129D1*
Y382144D1*
Y381160D1*
Y380176D1*
Y379192D1*
Y378207D1*
Y377223D1*
Y376239D1*
Y375255D1*
Y374270D1*
Y373286D1*
X-18444Y387066D2*
Y386081D1*
Y385097D1*
Y384113D1*
Y383129D1*
Y382144D1*
Y381160D1*
Y380176D1*
Y379192D1*
Y378207D1*
Y377223D1*
Y376239D1*
Y375255D1*
Y374270D1*
Y373286D1*
Y372302D1*
Y371318D1*
Y370333D1*
Y369349D1*
Y368365D1*
Y367381D1*
Y366396D1*
Y365412D1*
Y364428D1*
Y363444D1*
Y362459D1*
Y361475D1*
Y360491D1*
Y359507D1*
Y358522D1*
Y357538D1*
X-7617Y387066D2*
X-9014Y386081D1*
X-10116Y385097D1*
X-10968Y384113D1*
X-11272Y383129D1*
X-11443Y382144D1*
X-11554Y381160D1*
X-3680Y387066D2*
Y386081D1*
Y385097D1*
Y384113D1*
Y383129D1*
Y382144D1*
Y381160D1*
Y380176D1*
Y379192D1*
Y378207D1*
Y377223D1*
Y376239D1*
Y375255D1*
Y374270D1*
Y373286D1*
Y372302D1*
Y371318D1*
Y370333D1*
Y369349D1*
Y368365D1*
Y367381D1*
Y366396D1*
Y365412D1*
Y364428D1*
Y363444D1*
Y362459D1*
Y361475D1*
Y360491D1*
Y359507D1*
Y358522D1*
Y357538D1*
X4194Y387066D2*
Y386081D1*
Y385097D1*
Y384113D1*
Y383129D1*
Y382144D1*
Y381160D1*
Y380176D1*
Y379192D1*
X19942Y387066D2*
X19938Y386081D1*
X19904Y385097D1*
X19778Y384113D1*
X19539Y383129D1*
X19252Y382144D1*
X18955Y381160D1*
X18628Y380176D1*
X18330Y379192D1*
X18106Y378207D1*
X17883Y377223D1*
X17599Y376239D1*
X17294Y375255D1*
X16990Y374270D1*
X16657Y373286D1*
X16327Y372302D1*
X16012Y371318D1*
X15679Y370333D1*
X15378Y369349D1*
X15154Y368365D1*
X14930Y367381D1*
X14646Y366396D1*
X14341Y365412D1*
X14037Y364428D1*
X13704Y363444D1*
X13374Y362459D1*
X13060Y361475D1*
X12726Y360491D1*
X12427Y359507D1*
X12221Y358522D1*
X12068Y357538D1*
X26832Y387066D2*
Y386081D1*
Y385097D1*
Y384113D1*
Y383129D1*
Y382144D1*
Y381160D1*
Y380176D1*
Y379192D1*
Y378207D1*
Y377223D1*
Y376239D1*
Y375255D1*
Y374270D1*
Y373286D1*
Y372302D1*
Y371318D1*
X41596Y387066D2*
Y386081D1*
Y385097D1*
Y384113D1*
Y383129D1*
X30769D1*
Y382144D1*
Y381160D1*
X30773Y380176D1*
X30810Y379192D1*
X30962Y378207D1*
X31299Y377223D1*
X31753Y376239D1*
X55375Y387066D2*
X53941Y386081D1*
X52712Y385097D1*
X51749Y384113D1*
X50993Y383129D1*
X50678Y382144D1*
X50402Y381160D1*
X50098Y380176D1*
X49818Y379192D1*
X49636Y378207D1*
X49541Y377223D1*
X49498Y376239D1*
X49480Y375255D1*
X49474Y374270D1*
X49471Y373286D1*
X49470Y372302D1*
Y371318D1*
Y370333D1*
Y369349D1*
X49474Y368365D1*
X49508Y367381D1*
X49634Y366396D1*
X49869Y365412D1*
X50126Y364428D1*
X50336Y363444D1*
X50591Y362459D1*
X51036Y361475D1*
X51743Y360491D1*
X52725Y359507D1*
X53976Y358522D1*
X55375Y357538D1*
X61281Y387066D2*
X62716Y386081D1*
X63944Y385097D1*
X64907Y384113D1*
X65664Y383129D1*
X65941Y382144D1*
X66091Y381160D1*
X66158Y380176D1*
X66186Y379192D1*
X66196Y378207D1*
X66200Y377223D1*
X66201Y376239D1*
X66202Y375255D1*
Y374270D1*
Y373286D1*
Y372302D1*
Y371318D1*
Y370333D1*
Y369349D1*
Y368365D1*
Y367381D1*
Y366396D1*
Y365412D1*
X66198Y364428D1*
X66160Y363444D1*
X65996Y362459D1*
X65592Y361475D1*
X64903Y360491D1*
X63928Y359507D1*
X62679Y358522D1*
X61281Y357538D1*
X-62735Y384113D2*
Y383129D1*
Y382144D1*
Y381160D1*
Y380176D1*
Y379192D1*
Y378207D1*
Y377223D1*
Y376239D1*
Y375255D1*
X-52892Y374270D1*
Y384113D2*
X-51949Y383129D1*
X-51130Y382144D1*
X-50545Y381160D1*
X-50217Y380176D1*
X-50095Y379192D1*
X-50100Y378207D1*
X-50615Y377223D1*
X-53046Y376239D1*
X-57291Y375255D1*
X-62735Y374270D1*
X7147Y384113D2*
Y383129D1*
Y382144D1*
Y381160D1*
Y380176D1*
Y379192D1*
X16005Y384113D2*
X15853Y383129D1*
X15605Y382144D1*
X15316Y381160D1*
X15018Y380176D1*
X14687Y379192D1*
X14358Y378207D1*
X14044Y377223D1*
X13710Y376239D1*
X13410Y375255D1*
X13185Y374270D1*
X12962Y373286D1*
X12678Y372302D1*
X12373Y371318D1*
X12069Y370333D1*
X11735Y369349D1*
X11406Y368365D1*
X11091Y367381D1*
X10757Y366396D1*
X10457Y365412D1*
X10233Y364428D1*
X10009Y363444D1*
X9725Y362459D1*
X9420Y361475D1*
X9115Y360491D1*
X8777Y359507D1*
X8440Y358522D1*
X8131Y357538D1*
X58328Y384113D2*
X56594Y383129D1*
X55199Y382144D1*
X54126Y381160D1*
X53753Y380176D1*
X53553Y379192D1*
X53464Y378207D1*
X53428Y377223D1*
X53414Y376239D1*
X53409Y375255D1*
X53408Y374270D1*
X53407Y373286D1*
Y372302D1*
Y371318D1*
Y370333D1*
Y369349D1*
Y368365D1*
Y367381D1*
X53411Y366396D1*
X53453Y365412D1*
X53557Y364428D1*
X54101Y363444D1*
X55785Y362459D1*
X58286Y361475D1*
X61281Y360491D1*
X58328Y384113D2*
X60062Y383129D1*
X61457Y382144D1*
X62530Y381160D1*
X62903Y380176D1*
X63103Y379192D1*
X63192Y378207D1*
X63228Y377223D1*
X63242Y376239D1*
X63247Y375255D1*
X63249Y374270D1*
Y373286D1*
Y372302D1*
Y371318D1*
Y370333D1*
Y369349D1*
Y368365D1*
Y367381D1*
X63245Y366396D1*
X63203Y365412D1*
X63099Y364428D1*
X62555Y363444D1*
X60871Y362459D1*
X58371Y361475D1*
X55375Y360491D1*
X-6633Y383129D2*
X-8601Y382144D1*
X-10570Y381160D1*
X-6633Y383129D2*
Y382144D1*
Y381160D1*
Y380176D1*
Y379192D1*
Y378207D1*
Y377223D1*
Y376239D1*
Y375255D1*
Y374270D1*
Y373286D1*
Y372302D1*
Y371318D1*
Y370333D1*
Y369349D1*
Y368365D1*
Y367381D1*
Y366396D1*
Y365412D1*
Y364428D1*
Y363444D1*
Y362459D1*
Y361475D1*
Y360491D1*
Y359507D1*
Y358522D1*
Y357538D1*
X32738Y377223D2*
X31753Y376239D1*
X37659Y377223D2*
X39060Y376239D1*
X40197Y375255D1*
X41050Y374270D1*
X41681Y373286D1*
X42120Y372302D1*
X42371Y371318D1*
X42493Y370333D1*
X42546Y369349D1*
X42568Y368365D1*
X42576Y367381D1*
X42579Y366396D1*
X42576Y365412D1*
X42541Y364428D1*
X42412Y363444D1*
X42138Y362459D1*
X41718Y361475D1*
X41109Y360491D1*
X40215Y359507D1*
X39019Y358522D1*
X37659Y357538D1*
X34706Y374270D2*
X32918Y373286D1*
X31295Y372302D1*
X29785Y371318D1*
X35690Y374270D2*
X36637Y373286D1*
X37491Y372302D1*
X38201Y371318D1*
X38769Y370333D1*
X39182Y369349D1*
X39419Y368365D1*
X39504Y367381D1*
X39426Y366396D1*
X39173Y365412D1*
X38753Y364428D1*
X38213Y363444D1*
X36910Y362459D1*
X35015Y361475D1*
X32738Y360491D1*
X-62735Y371318D2*
Y370333D1*
Y369349D1*
Y368365D1*
Y367381D1*
Y366396D1*
Y365412D1*
Y364428D1*
Y363444D1*
Y362459D1*
Y361475D1*
X-53877Y360491D1*
X-52892Y371318D2*
X-51946Y370333D1*
X-51091Y369349D1*
X-50385Y368365D1*
X-49852Y367381D1*
X-49458Y366396D1*
X-49578Y365412D1*
X-49841Y364428D1*
X-50616Y363444D1*
X-53387Y362459D1*
X-57968Y361475D1*
X-63719Y360491D1*
X-35176Y370333D2*
Y369349D1*
Y368365D1*
Y367381D1*
Y366396D1*
Y365412D1*
Y364428D1*
Y363444D1*
Y362459D1*
Y361475D1*
Y360491D1*
Y359507D1*
Y358522D1*
Y357538D1*
X-21396Y370333D2*
Y369349D1*
Y368365D1*
Y367381D1*
Y366396D1*
Y365412D1*
Y364428D1*
Y363444D1*
Y362459D1*
Y361475D1*
Y360491D1*
Y359507D1*
Y358522D1*
Y357538D1*
X26832Y364428D2*
X26988Y363444D1*
X27270Y362459D1*
X27693Y361475D1*
X28302Y360491D1*
X29197Y359507D1*
X30393Y358522D1*
X31753Y357538D1*
X29785Y364428D2*
X30433Y363444D1*
X32144Y362459D1*
X34657Y361475D1*
X37659Y360491D1*
X-47542Y-207861D2*
X-47694Y-208845D1*
X-47942Y-209829D1*
X-48231Y-210814D1*
X-48533Y-211798D1*
X-48895Y-212782D1*
X-49314Y-213766D1*
X-49743Y-214751D1*
X-50128Y-215735D1*
X-50469Y-216719D1*
X-50818Y-217703D1*
X-51154Y-218688D1*
X-51474Y-219672D1*
X-51844Y-220656D1*
X-52266Y-221640D1*
X-52695Y-222625D1*
X-53080Y-223609D1*
X-53422Y-224593D1*
X-53771Y-225577D1*
X-54106Y-226562D1*
X-54423Y-227546D1*
X-54762Y-228530D1*
X-55093Y-229514D1*
X-55412Y-230499D1*
X-55781Y-231483D1*
X-56203Y-232467D1*
X-56632Y-233451D1*
X-57020Y-234436D1*
X-57389Y-235420D1*
X-57841Y-236404D1*
X-58369Y-237388D1*
X-43605Y-207861D2*
X-43449Y-208845D1*
X-43170Y-209829D1*
X-42790Y-210814D1*
X-42378Y-211798D1*
X-42000Y-212782D1*
X-41661Y-213766D1*
X-41313Y-214751D1*
X-40977Y-215735D1*
X-40657Y-216719D1*
X-40288Y-217703D1*
X-39865Y-218688D1*
X-39436Y-219672D1*
X-39051Y-220656D1*
X-38709Y-221640D1*
X-38360Y-222625D1*
X-38025Y-223609D1*
X-37704Y-224593D1*
X-37335Y-225577D1*
X-36913Y-226562D1*
X-36483Y-227546D1*
X-36098Y-228530D1*
X-35757Y-229514D1*
X-35408Y-230499D1*
X-35072Y-231483D1*
X-34755Y-232467D1*
X-34417Y-233451D1*
X-34082Y-234436D1*
X-33740Y-235420D1*
X-33300Y-236404D1*
X-32778Y-237388D1*
X-27857Y-207861D2*
Y-208845D1*
Y-209829D1*
Y-210814D1*
Y-211798D1*
Y-212782D1*
Y-213766D1*
Y-214751D1*
Y-215735D1*
Y-216719D1*
Y-217703D1*
Y-218688D1*
Y-219672D1*
Y-220656D1*
Y-221640D1*
Y-222625D1*
Y-223609D1*
Y-224593D1*
Y-225577D1*
Y-226562D1*
Y-227546D1*
Y-228530D1*
Y-229514D1*
Y-230499D1*
Y-231483D1*
Y-232467D1*
Y-233451D1*
Y-234436D1*
Y-235420D1*
Y-236404D1*
Y-237388D1*
X-23920Y-207861D2*
X-23580Y-208845D1*
X-23252Y-209829D1*
X-22936Y-210814D1*
X-22569Y-211798D1*
X-22144Y-212782D1*
X-21685Y-213766D1*
X-21205Y-214751D1*
X-20719Y-215735D1*
X-20231Y-216719D1*
X-19772Y-217703D1*
X-19374Y-218688D1*
X-19023Y-219672D1*
X-18642Y-220656D1*
X-18211Y-221640D1*
X-17749Y-222625D1*
X-17268Y-223609D1*
X-16779Y-224593D1*
X-16262Y-225577D1*
X-15688Y-226562D1*
X-15062Y-227546D1*
X-6203Y-207861D2*
X-6544Y-208845D1*
X-6871Y-209829D1*
X-7187Y-210814D1*
X-7554Y-211798D1*
X-7979Y-212782D1*
X-8439Y-213766D1*
X-8918Y-214751D1*
X-9405Y-215735D1*
X-9892Y-216719D1*
X-10352Y-217703D1*
X-10750Y-218688D1*
X-11100Y-219672D1*
X-11482Y-220656D1*
X-11913Y-221640D1*
X-12375Y-222625D1*
X-12855Y-223609D1*
X-13345Y-224593D1*
X-13861Y-225577D1*
X-14435Y-226562D1*
X-15062Y-227546D1*
X-2266Y-207861D2*
Y-208845D1*
Y-209829D1*
Y-210814D1*
Y-211798D1*
Y-212782D1*
Y-213766D1*
Y-214751D1*
Y-215735D1*
Y-216719D1*
Y-217703D1*
Y-218688D1*
Y-219672D1*
Y-220656D1*
Y-221640D1*
Y-222625D1*
Y-223609D1*
Y-224593D1*
Y-225577D1*
Y-226562D1*
Y-227546D1*
Y-228530D1*
Y-229514D1*
Y-230499D1*
Y-231483D1*
Y-232467D1*
Y-233451D1*
Y-234436D1*
Y-235420D1*
Y-236404D1*
Y-237388D1*
X9545Y-207861D2*
X8144Y-208845D1*
X7007Y-209829D1*
X6154Y-210814D1*
X5522Y-211798D1*
X5081Y-212782D1*
X4812Y-213766D1*
X4623Y-214751D1*
X15450Y-207861D2*
X16885Y-208845D1*
X18113Y-209829D1*
X19077Y-210814D1*
X19833Y-211798D1*
X20110Y-212782D1*
X20260Y-213766D1*
X20324Y-214751D1*
X20317Y-215735D1*
X20198Y-216719D1*
X19924Y-217703D1*
X19471Y-218688D1*
X18751Y-219672D1*
X17689Y-220656D1*
X16434Y-221640D1*
X17599Y-222625D1*
X18598Y-223609D1*
X19384Y-224593D1*
X20019Y-225577D1*
X20539Y-226562D1*
X20928Y-227546D1*
X21154Y-228530D1*
X21234Y-229514D1*
X21156Y-230499D1*
X20906Y-231483D1*
X20528Y-232467D1*
X20046Y-233451D1*
X19376Y-234436D1*
X18370Y-235420D1*
X16997Y-236404D1*
X15450Y-237388D1*
X30214Y-207861D2*
X28817Y-208845D1*
X27714Y-209829D1*
X26862Y-210814D1*
X26559Y-211798D1*
X26388Y-212782D1*
X26277Y-213766D1*
X34151Y-207861D2*
Y-208845D1*
Y-209829D1*
Y-210814D1*
Y-211798D1*
Y-212782D1*
Y-213766D1*
Y-214751D1*
Y-215735D1*
Y-216719D1*
Y-217703D1*
Y-218688D1*
Y-219672D1*
Y-220656D1*
Y-221640D1*
Y-222625D1*
Y-223609D1*
Y-224593D1*
Y-225577D1*
Y-226562D1*
Y-227546D1*
Y-228530D1*
Y-229514D1*
Y-230499D1*
Y-231483D1*
Y-232467D1*
Y-233451D1*
Y-234436D1*
Y-235420D1*
Y-236404D1*
Y-237388D1*
X46946Y-207861D2*
X45545Y-208845D1*
X44408Y-209829D1*
X43555Y-210814D1*
X42924Y-211798D1*
X42482Y-212782D1*
X42214Y-213766D1*
X42025Y-214751D1*
X53836Y-207861D2*
X55119Y-208845D1*
X56107Y-209829D1*
X56850Y-210814D1*
X57451Y-211798D1*
X57950Y-212782D1*
X58296Y-213766D1*
X58487Y-214751D1*
X58294Y-215735D1*
X58040Y-216719D1*
X57755Y-217703D1*
X57397Y-218688D1*
X56945Y-219672D1*
X56392Y-220656D1*
X55768Y-221640D1*
X55136Y-222625D1*
X54459Y-223609D1*
X53702Y-224593D1*
X52942Y-225577D1*
X52238Y-226562D1*
X51528Y-227546D1*
X50757Y-228530D1*
X49992Y-229514D1*
X49286Y-230499D1*
X48572Y-231483D1*
X47767Y-232467D1*
X46882Y-233451D1*
X45962Y-234436D1*
X11513Y-210814D2*
X10529Y-211798D1*
X9545Y-212782D1*
X8560Y-213766D1*
X7576Y-214751D1*
X12497Y-210814D2*
X14116Y-211798D1*
X15394Y-212782D1*
X16285Y-213766D1*
X16945Y-214751D1*
X17117Y-215735D1*
X16859Y-216719D1*
X16434Y-217703D1*
X15327Y-218688D1*
X14005Y-219672D1*
X12712Y-220656D1*
X12070Y-221640D1*
X11867Y-222625D1*
X13220Y-223609D1*
X14662Y-224593D1*
X15855Y-225577D1*
X16784Y-226562D1*
X17112Y-227546D1*
X17285Y-228530D1*
X17322Y-229514D1*
X17258Y-230499D1*
X16721Y-231483D1*
X15039Y-232467D1*
X12539Y-233451D1*
X9545Y-234436D1*
X49899Y-210814D2*
X48276Y-211798D1*
X46965Y-212782D1*
X45924Y-213766D1*
X44978Y-214751D1*
X49899Y-210814D2*
X51633Y-211798D1*
X53028Y-212782D1*
X54101Y-213766D1*
X54523Y-214751D1*
X54528Y-215735D1*
X54331Y-216719D1*
X53981Y-217703D1*
X53548Y-218688D1*
X53045Y-219672D1*
X52437Y-220656D1*
X51712Y-221640D1*
X50965Y-222625D1*
X50267Y-223609D1*
X49555Y-224593D1*
X48754Y-225577D1*
X47898Y-226562D1*
X47082Y-227546D1*
X46351Y-228530D1*
X45630Y-229514D1*
X44854Y-230499D1*
X44091Y-231483D1*
X43423Y-232467D1*
X42873Y-233451D1*
X42466Y-234436D1*
X42227Y-235420D1*
X42103Y-236404D1*
X42025Y-237388D1*
X31198Y-211798D2*
X29230Y-212782D1*
X27261Y-213766D1*
X31198Y-211798D2*
Y-212782D1*
Y-213766D1*
Y-214751D1*
Y-215735D1*
Y-216719D1*
Y-217703D1*
Y-218688D1*
Y-219672D1*
Y-220656D1*
Y-221640D1*
Y-222625D1*
Y-223609D1*
Y-224593D1*
Y-225577D1*
Y-226562D1*
Y-227546D1*
Y-228530D1*
Y-229514D1*
Y-230499D1*
Y-231483D1*
Y-232467D1*
Y-233451D1*
Y-234436D1*
Y-235420D1*
Y-236404D1*
Y-237388D1*
X-46558Y-213766D2*
X-46710Y-214751D1*
X-46958Y-215735D1*
X-47247Y-216719D1*
X-47545Y-217703D1*
X-47876Y-218688D1*
X-48205Y-219672D1*
X-48519Y-220656D1*
X-48857Y-221640D1*
X-49188Y-222625D1*
X-49504Y-223609D1*
X-49846Y-224593D1*
X-50185Y-225577D1*
X-50495Y-226562D1*
X-41636Y-227546D1*
X-44589Y-213766D2*
X-44437Y-214751D1*
X-44189Y-215735D1*
X-43900Y-216719D1*
X-43602Y-217703D1*
X-43271Y-218688D1*
X-42942Y-219672D1*
X-42628Y-220656D1*
X-42290Y-221640D1*
X-41959Y-222625D1*
X-41643Y-223609D1*
X-41301Y-224593D1*
X-40962Y-225577D1*
X-40652Y-226562D1*
X-49510Y-227546D1*
X-8172Y-218688D2*
X-8324Y-219672D1*
X-8572Y-220656D1*
X-8861Y-221640D1*
X-9163Y-222625D1*
X-9525Y-223609D1*
X-9948Y-224593D1*
X-10408Y-225577D1*
X-10887Y-226562D1*
X-11373Y-227546D1*
X-11860Y-228530D1*
X-12320Y-229514D1*
X-12721Y-230499D1*
X-13095Y-231483D1*
X-13549Y-232467D1*
X-14077Y-233451D1*
X-6203Y-218688D2*
Y-219672D1*
Y-220656D1*
Y-221640D1*
Y-222625D1*
Y-223609D1*
Y-224593D1*
Y-225577D1*
Y-226562D1*
Y-227546D1*
Y-228530D1*
Y-229514D1*
Y-230499D1*
Y-231483D1*
Y-232467D1*
Y-233451D1*
Y-234436D1*
Y-235420D1*
Y-236404D1*
Y-237388D1*
X-23920Y-219672D2*
Y-220656D1*
Y-221640D1*
Y-222625D1*
Y-223609D1*
Y-224593D1*
Y-225577D1*
Y-226562D1*
Y-227546D1*
Y-228530D1*
Y-229514D1*
Y-230499D1*
Y-231483D1*
Y-232467D1*
Y-233451D1*
Y-234436D1*
Y-235420D1*
Y-236404D1*
Y-237388D1*
X-21951Y-219672D2*
X-21795Y-220656D1*
X-21517Y-221640D1*
X-21133Y-222625D1*
X-20690Y-223609D1*
X-20217Y-224593D1*
X-19733Y-225577D1*
X-19247Y-226562D1*
X-18787Y-227546D1*
X-18389Y-228530D1*
X-18039Y-229514D1*
X-17654Y-230499D1*
X-17198Y-231483D1*
X-16654Y-232467D1*
X-16046Y-233451D1*
X3639Y-230499D2*
X4017Y-231483D1*
X4474Y-232467D1*
X5065Y-233451D1*
X5851Y-234436D1*
X6870Y-235420D1*
X8137Y-236404D1*
X9545Y-237388D1*
X7576Y-230499D2*
X8224Y-231483D1*
X9935Y-232467D1*
X12448Y-233451D1*
X15450Y-234436D1*
X-52463Y-230499D2*
X-52501Y-231483D1*
X-52627Y-232467D1*
X-52867Y-233451D1*
X-53157Y-234436D1*
X-53481Y-235420D1*
X-53914Y-236404D1*
X-54432Y-237388D1*
X-38684Y-230499D2*
X-38532Y-231483D1*
X-38284Y-232467D1*
X-37994Y-233451D1*
X-37696Y-234436D1*
X-37360Y-235420D1*
X-37024Y-236404D1*
X-36715Y-237388D1*
X58757Y-234436D2*
Y-235420D1*
Y-236404D1*
Y-237388D1*
X522979Y321408D2*
D12*
X520280Y319908D1*
X517955Y318408D1*
X516150Y316908D1*
X514824Y315408D1*
X513853Y313908D1*
X513176Y312408D1*
X512740Y310908D1*
X512362Y309408D1*
X511922Y307908D1*
X511504Y306408D1*
X511230Y304908D1*
X511087Y303408D1*
X511022Y301908D1*
X510995Y300408D1*
X510985Y298908D1*
X510981Y297408D1*
X510980Y295908D1*
X510979Y294408D1*
Y292908D1*
Y291408D1*
Y289908D1*
X555979Y321408D2*
X559319Y319908D1*
X561929Y318408D1*
X563738Y316908D1*
X564996Y315408D1*
X565961Y313908D1*
X566745Y312408D1*
X567331Y310908D1*
X567680Y309408D1*
X567853Y307908D1*
X567930Y306408D1*
X567961Y304908D1*
X567973Y303408D1*
X567977Y301908D1*
X567978Y300408D1*
X567979Y298908D1*
Y297408D1*
Y295908D1*
Y294408D1*
Y292908D1*
Y291408D1*
Y289908D1*
X527479Y306408D2*
X527247Y304908D1*
X526875Y303408D1*
X526487Y301908D1*
X526224Y300408D1*
X526085Y298908D1*
X526021Y297408D1*
X525995Y295908D1*
X525985Y294408D1*
X525981Y292908D1*
X525980Y291408D1*
X525979Y289908D1*
X530479Y306408D2*
X531684Y304908D1*
X532561Y303408D1*
X533064Y301908D1*
X533307Y300408D1*
X533413Y298908D1*
X533455Y297408D1*
X533470Y295908D1*
X533476Y294408D1*
X533478Y292908D1*
X533479Y291408D1*
Y289908D1*
X546979Y304908D2*
X546747Y303408D1*
X546375Y301908D1*
X545987Y300408D1*
X545724Y298908D1*
X545585Y297408D1*
X545521Y295908D1*
X545495Y294408D1*
X545485Y292908D1*
X545481Y291408D1*
X545479Y289908D1*
X552979Y304908D2*
Y303408D1*
Y301908D1*
Y300408D1*
Y298908D1*
Y297408D1*
Y295908D1*
Y294408D1*
Y292908D1*
Y291408D1*
Y289908D1*
X510979Y279408D2*
Y277908D1*
Y276408D1*
Y274908D1*
Y273408D1*
Y271908D1*
Y270408D1*
Y268908D1*
Y267408D1*
Y265908D1*
Y264408D1*
Y262908D1*
Y261408D1*
X525979D1*
Y259908D1*
Y258408D1*
X552979Y279408D2*
X556377Y277908D1*
X559185Y276408D1*
X561405Y274908D1*
X563239Y273408D1*
X564825Y271908D1*
X566138Y270408D1*
X567103Y268908D1*
X567808Y267408D1*
X568415Y265908D1*
X568906Y264408D1*
X569210Y262908D1*
X569365Y261408D1*
X569434Y259908D1*
X569462Y258408D1*
X569473Y256908D1*
X569471Y255408D1*
X569420Y253908D1*
X569223Y252408D1*
X568805Y250908D1*
X568171Y249408D1*
X567301Y247908D1*
X566168Y246408D1*
X564849Y244908D1*
X563432Y243408D1*
X561979Y241908D1*
X540979Y262908D2*
Y261408D1*
Y259908D1*
Y258408D1*
X554479Y262908D2*
X554473Y261408D1*
X554415Y259908D1*
X554165Y258408D1*
X553561Y256908D1*
X552602Y255408D1*
X551479Y253908D1*
X552747Y252408D1*
X553875Y250908D1*
X554981Y249408D1*
X556166Y247908D1*
X557334Y246408D1*
X558398Y244908D1*
X559425Y243408D1*
X560479Y241908D1*
X522979Y237408D2*
X520280Y235908D1*
X517955Y234408D1*
X516150Y232908D1*
X514824Y231408D1*
X513853Y229908D1*
X513176Y228408D1*
X512740Y226908D1*
X512362Y225408D1*
X511922Y223908D1*
X511504Y222408D1*
X511230Y220908D1*
X511087Y219408D1*
X511022Y217908D1*
X510995Y216408D1*
X510985Y214908D1*
X510981Y213408D1*
X510980Y211908D1*
X510979Y210408D1*
Y208908D1*
Y207408D1*
Y205908D1*
X555979Y237408D2*
X559319Y235908D1*
X561929Y234408D1*
X563738Y232908D1*
X564996Y231408D1*
X565961Y229908D1*
X566745Y228408D1*
X567331Y226908D1*
X567680Y225408D1*
X567853Y223908D1*
X567930Y222408D1*
X567961Y220908D1*
X567973Y219408D1*
X567977Y217908D1*
X567978Y216408D1*
X567979Y214908D1*
Y213408D1*
Y211908D1*
Y210408D1*
Y208908D1*
Y207408D1*
Y205908D1*
X527479Y222408D2*
X527247Y220908D1*
X526875Y219408D1*
X526487Y217908D1*
X526224Y216408D1*
X526085Y214908D1*
X526021Y213408D1*
X525995Y211908D1*
X525985Y210408D1*
X525981Y208908D1*
X525980Y207408D1*
X525979Y205908D1*
X530479Y222408D2*
X531684Y220908D1*
X532561Y219408D1*
X533064Y217908D1*
X533307Y216408D1*
X533413Y214908D1*
X533455Y213408D1*
X533470Y211908D1*
X533476Y210408D1*
X533478Y208908D1*
X533479Y207408D1*
Y205908D1*
X546979Y220908D2*
X546747Y219408D1*
X546375Y217908D1*
X545987Y216408D1*
X545724Y214908D1*
X545585Y213408D1*
X545521Y211908D1*
X545495Y210408D1*
X545485Y208908D1*
X545481Y207408D1*
X545479Y205908D1*
X552979Y220908D2*
Y219408D1*
Y217908D1*
Y216408D1*
Y214908D1*
Y213408D1*
Y211908D1*
Y210408D1*
Y208908D1*
Y207408D1*
Y205908D1*
X510979Y193908D2*
Y192408D1*
Y190908D1*
Y189408D1*
Y187908D1*
Y186408D1*
Y184908D1*
Y183408D1*
Y181908D1*
Y180408D1*
Y178908D1*
X567979Y193908D2*
Y192408D1*
Y190908D1*
Y189408D1*
Y187908D1*
Y186408D1*
Y184908D1*
Y183408D1*
Y181908D1*
Y180408D1*
Y178908D1*
X540979Y175908D2*
X537049Y174408D1*
X533193Y172908D1*
X529396Y171408D1*
X525671Y169908D1*
X522067Y168408D1*
X518653Y166908D1*
X515623Y165408D1*
X513042Y163908D1*
X511816Y162408D1*
X511370Y160908D1*
X511140Y159408D1*
X511040Y157908D1*
X511001Y156408D1*
X510987Y154908D1*
X510982Y153408D1*
X510980Y151908D1*
X510979Y150408D1*
Y148908D1*
Y147408D1*
Y145908D1*
X543979Y175908D2*
X546747Y174408D1*
X549375Y172908D1*
X551987Y171408D1*
X554718Y169908D1*
X557526Y168408D1*
X560260Y166908D1*
X562757Y165408D1*
X564863Y163908D1*
X566614Y162408D1*
X567310Y160908D1*
X567692Y159408D1*
X567866Y157908D1*
X567937Y156408D1*
X567964Y154908D1*
X567974Y153408D1*
X567960Y151908D1*
X567789Y150408D1*
X567381Y148908D1*
X565628Y147408D1*
X563479Y145908D1*
X543979Y160908D2*
X540979Y159408D1*
X537979Y157908D1*
X534973Y156408D1*
X531920Y154908D1*
X528729Y153408D1*
X525370Y151908D1*
X521985Y150408D1*
X518723Y148908D1*
X515576Y147408D1*
X512479Y145908D1*
X542479Y160908D2*
X544274Y159408D1*
X546397Y157908D1*
X548888Y156408D1*
X551592Y154908D1*
X554295Y153408D1*
X556894Y151908D1*
X559490Y150408D1*
X562200Y148908D1*
X564979Y147408D1*
X552979Y144408D2*
Y142908D1*
Y141408D1*
Y139908D1*
Y138408D1*
Y136908D1*
Y135408D1*
Y133908D1*
Y132408D1*
Y130908D1*
X567979Y144408D2*
Y142908D1*
Y141408D1*
Y139908D1*
Y138408D1*
Y136908D1*
Y135408D1*
Y133908D1*
Y132408D1*
Y130908D1*
Y129408D1*
Y127908D1*
Y126408D1*
Y124908D1*
Y123408D1*
Y121908D1*
Y120408D1*
Y118908D1*
Y117408D1*
Y115908D1*
Y114408D1*
Y112908D1*
Y111408D1*
Y109908D1*
Y108408D1*
Y106908D1*
Y105408D1*
Y103908D1*
Y102408D1*
Y100908D1*
X510979Y130908D2*
Y129408D1*
Y127908D1*
Y126408D1*
Y124908D1*
Y123408D1*
Y121908D1*
Y120408D1*
Y118908D1*
Y117408D1*
Y115908D1*
Y114408D1*
X552979D2*
Y112908D1*
Y111408D1*
Y109908D1*
Y108408D1*
Y106908D1*
Y105408D1*
Y103908D1*
Y102408D1*
Y100908D1*
X510979Y94908D2*
Y93408D1*
Y91908D1*
Y90408D1*
Y88908D1*
Y87408D1*
Y85908D1*
Y84408D1*
Y82908D1*
Y81408D1*
Y79908D1*
Y78408D1*
Y76908D1*
X524479D1*
Y75408D1*
Y73908D1*
X552979Y94908D2*
X556788Y93408D1*
X559946Y91908D1*
X562436Y90408D1*
X564292Y88908D1*
X565637Y87408D1*
X566663Y85908D1*
X567526Y84408D1*
X568269Y82908D1*
X568840Y81408D1*
X569183Y79908D1*
X569354Y78408D1*
X569430Y76908D1*
X569461Y75408D1*
X569473Y73908D1*
X569477Y72408D1*
X569478Y70908D1*
X569473Y69408D1*
X569420Y67908D1*
X569223Y66408D1*
X568806Y64908D1*
X568171Y63408D1*
X567301Y61908D1*
X566156Y60408D1*
X564723Y58908D1*
X562839Y57408D1*
X560346Y55908D1*
X557479Y54408D1*
X539479Y78408D2*
Y76908D1*
Y75408D1*
Y73908D1*
X551479Y78408D2*
X552672Y76908D1*
X553515Y75408D1*
X554086Y73908D1*
X552682Y72408D1*
X550726Y70908D1*
X548479Y69408D1*
X510979D2*
Y67908D1*
Y66408D1*
Y64908D1*
Y63408D1*
Y61908D1*
Y60408D1*
Y58908D1*
Y57408D1*
Y55908D1*
Y54408D1*
X-512909Y351350D2*
D13*
Y350038D1*
Y348726D1*
Y347413D1*
Y346101D1*
Y344789D1*
Y343476D1*
Y342164D1*
Y340852D1*
X-484038Y351350D2*
X-481564Y350038D1*
X-479671Y348726D1*
X-478343Y347413D1*
X-477417Y346101D1*
X-476798Y344789D1*
X-476450Y343476D1*
X-476283Y342164D1*
X-476210Y340852D1*
X-476186Y339539D1*
X-476226Y338227D1*
X-476441Y336915D1*
X-476972Y335602D1*
X-477840Y334290D1*
X-478928Y332978D1*
X-480101Y331665D1*
X-478997Y330353D1*
X-478061Y329041D1*
X-477307Y327728D1*
X-476757Y326416D1*
X-476436Y325104D1*
X-476278Y323791D1*
X-476208Y322479D1*
X-476185Y321167D1*
X-476221Y319854D1*
X-476390Y318542D1*
X-476759Y317230D1*
X-477363Y315917D1*
X-478324Y314605D1*
X-479740Y313293D1*
X-481413Y311980D1*
X-485350Y340852D2*
Y339539D1*
Y338227D1*
Y336915D1*
X-512909D2*
Y335602D1*
Y334290D1*
Y332978D1*
Y331665D1*
Y330353D1*
Y329041D1*
Y327728D1*
Y326416D1*
X-487975D2*
X-486663Y325104D1*
X-485350Y323791D1*
X-486663Y322479D1*
X-487975Y321167D1*
X-512909D2*
Y319854D1*
Y318542D1*
Y317230D1*
Y315917D1*
Y314605D1*
Y313293D1*
Y311980D1*
X-497161Y305419D2*
X-500134Y304106D1*
X-502591Y302794D1*
X-504533Y301482D1*
X-506138Y300169D1*
X-507531Y298857D1*
X-508721Y297545D1*
X-509686Y296232D1*
X-510450Y294920D1*
X-511008Y293608D1*
X-511376Y292295D1*
X-511702Y290983D1*
X-512086Y289671D1*
X-512450Y288358D1*
X-512690Y287046D1*
X-512810Y285734D1*
X-512821Y284421D1*
X-512677Y283109D1*
X-512367Y281797D1*
X-511987Y280484D1*
X-511587Y279172D1*
X-511100Y277860D1*
X-510495Y276547D1*
X-509756Y275235D1*
X-508919Y273923D1*
X-508030Y272610D1*
X-506945Y271298D1*
X-505474Y269986D1*
X-503549Y268673D1*
X-501152Y267361D1*
X-498474Y266049D1*
X-490600Y305419D2*
X-487627Y304106D1*
X-485170Y302794D1*
X-483233Y301482D1*
X-481669Y300169D1*
X-480403Y298857D1*
X-479401Y297545D1*
X-478579Y296232D1*
X-477855Y294920D1*
X-477217Y293608D1*
X-476721Y292295D1*
X-476423Y290983D1*
X-476273Y289671D1*
X-476207Y288358D1*
X-476180Y287046D1*
X-476170Y285734D1*
X-476166Y284421D1*
X-476170Y283109D1*
X-476216Y281797D1*
X-476388Y280484D1*
X-476748Y279172D1*
X-477257Y277860D1*
X-477851Y276547D1*
X-478528Y275235D1*
X-479345Y273923D1*
X-480365Y272610D1*
X-481579Y271298D1*
X-483043Y269986D1*
X-484857Y268673D1*
X-486998Y267361D1*
X-489287Y266049D1*
X-494537Y294920D2*
X-496898Y293608D1*
X-498927Y292295D1*
X-500465Y290983D1*
X-501504Y289671D1*
X-502202Y288358D1*
X-502721Y287046D1*
X-503116Y285734D1*
X-502927Y284421D1*
X-502486Y283109D1*
X-501754Y281797D1*
X-500779Y280484D1*
X-498439Y279172D1*
X-494913Y277860D1*
X-490600Y276547D1*
X-493224Y294920D2*
X-490908Y293608D1*
X-489001Y292295D1*
X-487615Y290983D1*
X-486645Y289671D1*
X-486002Y288358D1*
X-485644Y287046D1*
X-485477Y285734D1*
X-485454Y284421D1*
X-485648Y283109D1*
X-486058Y281797D1*
X-487221Y280484D1*
X-490128Y279172D1*
X-494494Y277860D1*
X-499786Y276547D1*
X-485350Y263424D2*
Y262112D1*
Y260799D1*
Y259487D1*
Y258175D1*
Y256862D1*
Y255550D1*
Y254238D1*
X-476164Y263424D2*
Y262112D1*
Y260799D1*
Y259487D1*
Y258175D1*
Y256862D1*
Y255550D1*
Y254238D1*
Y252925D1*
Y251613D1*
Y250301D1*
Y248988D1*
Y247676D1*
Y246364D1*
Y245051D1*
Y243739D1*
Y242427D1*
Y241114D1*
Y239802D1*
Y238490D1*
Y237177D1*
Y235865D1*
X-512909Y254238D2*
Y252925D1*
Y251613D1*
Y250301D1*
Y248988D1*
Y247676D1*
Y246364D1*
Y245051D1*
Y243739D1*
X-485350D2*
Y242427D1*
Y241114D1*
Y239802D1*
Y238490D1*
Y237177D1*
Y235865D1*
X-512909Y229303D2*
Y227991D1*
Y226678D1*
Y225366D1*
Y224054D1*
Y222741D1*
Y221429D1*
Y220117D1*
Y218804D1*
X-476164Y229303D2*
Y227991D1*
Y226678D1*
Y225366D1*
Y224054D1*
Y222741D1*
Y221429D1*
Y220117D1*
Y218804D1*
X-497161Y212243D2*
X-500134Y210930D1*
X-502591Y209618D1*
X-504533Y208306D1*
X-506138Y206993D1*
X-507531Y205681D1*
X-508721Y204369D1*
X-509686Y203056D1*
X-510450Y201744D1*
X-511008Y200432D1*
X-511376Y199119D1*
X-511702Y197807D1*
X-512086Y196495D1*
X-512450Y195182D1*
X-512690Y193870D1*
X-512810Y192558D1*
X-512821Y191245D1*
X-512677Y189933D1*
X-512367Y188621D1*
X-511987Y187308D1*
X-511587Y185996D1*
X-511100Y184684D1*
X-510495Y183371D1*
X-509756Y182059D1*
X-508919Y180747D1*
X-508030Y179434D1*
X-506945Y178122D1*
X-505474Y176810D1*
X-503549Y175497D1*
X-501152Y174185D1*
X-498474Y172873D1*
X-490600Y212243D2*
X-487627Y210930D1*
X-485170Y209618D1*
X-483233Y208306D1*
X-481669Y206993D1*
X-480403Y205681D1*
X-479401Y204369D1*
X-478579Y203056D1*
X-477855Y201744D1*
X-477217Y200432D1*
X-476721Y199119D1*
X-476423Y197807D1*
X-476273Y196495D1*
X-476207Y195182D1*
X-476180Y193870D1*
X-476170Y192558D1*
X-476166Y191245D1*
X-476170Y189933D1*
X-476216Y188621D1*
X-476388Y187308D1*
X-476748Y185996D1*
X-477257Y184684D1*
X-477851Y183371D1*
X-478528Y182059D1*
X-479345Y180747D1*
X-480365Y179434D1*
X-481579Y178122D1*
X-483043Y176810D1*
X-484857Y175497D1*
X-486998Y174185D1*
X-489287Y172873D1*
X-494537Y201744D2*
X-496898Y200432D1*
X-498927Y199119D1*
X-500465Y197807D1*
X-501504Y196495D1*
X-502202Y195182D1*
X-502721Y193870D1*
X-503116Y192558D1*
X-502927Y191245D1*
X-502486Y189933D1*
X-501754Y188621D1*
X-500779Y187308D1*
X-498439Y185996D1*
X-494913Y184684D1*
X-490600Y183371D1*
X-493224Y201744D2*
X-490908Y200432D1*
X-489001Y199119D1*
X-487615Y197807D1*
X-486645Y196495D1*
X-486002Y195182D1*
X-485644Y193870D1*
X-485477Y192558D1*
X-485454Y191245D1*
X-485648Y189933D1*
X-486058Y188621D1*
X-487221Y187308D1*
X-490128Y185996D1*
X-494494Y184684D1*
X-499786Y183371D1*
X-512909Y167623D2*
Y166311D1*
Y164999D1*
Y163686D1*
Y162374D1*
Y161062D1*
Y159749D1*
Y158437D1*
Y157125D1*
X-486663Y167623D2*
X-483695Y166311D1*
X-481285Y164999D1*
X-479515Y163686D1*
X-478270Y162374D1*
X-477386Y161062D1*
X-476786Y159749D1*
X-476446Y158437D1*
X-476281Y157125D1*
X-476209Y155812D1*
X-476181Y154500D1*
X-476170Y153188D1*
X-476171Y151875D1*
X-476216Y150563D1*
X-476388Y149251D1*
X-476753Y147938D1*
X-477313Y146626D1*
X-478137Y145314D1*
X-479446Y144001D1*
X-481533Y142689D1*
X-484510Y141377D1*
X-487975Y140064D1*
Y157125D2*
X-486976Y155812D1*
X-486213Y154500D1*
X-486308Y153188D1*
X-487079Y151875D1*
X-487975Y150563D1*
X-512909D2*
Y149251D1*
Y147938D1*
Y146626D1*
Y145314D1*
Y144001D1*
Y142689D1*
Y141377D1*
Y140064D1*
X-502411Y104631D2*
X-504935Y103319D1*
X-506996Y102007D1*
X-508638Y100694D1*
X-509906Y99382D1*
X-510801Y98070D1*
X-511437Y96757D1*
X-511975Y95445D1*
X-512407Y94133D1*
X-512674Y92820D1*
X-512810Y91508D1*
X-512873Y90196D1*
X-512909Y88883D1*
X-476164Y104631D2*
Y103319D1*
Y102007D1*
Y100694D1*
Y99382D1*
Y98070D1*
Y96757D1*
Y95445D1*
Y94133D1*
X-499786D2*
X-500841Y92820D1*
X-501613Y91508D1*
X-502083Y90196D1*
X-502411Y88883D1*
X-512909Y83634D2*
Y82322D1*
Y81009D1*
Y79697D1*
Y78385D1*
Y77072D1*
Y75760D1*
Y74448D1*
Y73135D1*
X-476164Y83634D2*
Y82322D1*
Y81009D1*
Y79697D1*
Y78385D1*
Y77072D1*
Y75760D1*
Y74448D1*
Y73135D1*
X-497161Y66573D2*
X-500337Y65261D1*
X-503114Y63949D1*
X-505350Y62636D1*
X-507017Y61324D1*
X-508218Y60012D1*
X-509127Y58699D1*
X-509886Y57387D1*
X-510542Y56075D1*
X-511089Y54762D1*
X-511556Y53450D1*
X-512021Y52138D1*
X-512424Y50825D1*
X-512674Y49513D1*
X-512760Y48201D1*
X-512652Y46888D1*
X-512357Y45576D1*
X-511984Y44264D1*
X-511586Y42951D1*
X-511100Y41639D1*
X-510484Y40327D1*
X-509650Y39014D1*
X-508448Y37702D1*
X-506851Y36390D1*
X-505035Y35077D1*
X-490600Y66573D2*
X-487627Y65261D1*
X-485170Y63949D1*
X-483228Y62636D1*
X-481623Y61324D1*
X-480230Y60012D1*
X-479041Y58699D1*
X-478075Y57387D1*
X-477312Y56075D1*
X-476759Y54762D1*
X-476437Y53450D1*
X-476278Y52138D1*
X-476208Y50825D1*
X-476180Y49513D1*
X-476170Y48201D1*
X-476166Y46888D1*
X-476165Y45576D1*
X-476164Y44264D1*
Y42951D1*
Y41639D1*
X-494537Y56075D2*
X-496898Y54762D1*
X-498927Y53450D1*
X-500461Y52138D1*
X-501627Y50825D1*
X-502069Y49513D1*
X-502411Y48201D1*
X-493224D1*
Y46888D1*
Y45576D1*
Y44264D1*
Y42951D1*
X-493230Y41639D1*
X-493281Y40327D1*
X-493499Y39014D1*
X-494027Y37702D1*
X-494866Y36390D1*
X-495849Y35077D1*
X-493224Y56075D2*
X-490908Y54762D1*
X-489001Y53450D1*
X-487615Y52138D1*
X-486645Y50825D1*
X-486002Y49513D1*
X-485644Y48201D1*
X-485472Y46888D1*
X-485397Y45576D1*
X-485368Y44264D1*
X-485356Y42951D1*
X-485350Y41639D1*
X-503723Y48201D2*
X-503482Y46888D1*
X-503021Y45576D1*
X-502411Y44264D1*
X-501098Y48201D2*
X-501340Y46888D1*
X-501800Y45576D1*
X-502411Y44264D1*
X-485350Y32453D2*
Y31140D1*
Y29828D1*
Y28516D1*
Y27203D1*
Y25891D1*
Y24579D1*
Y23266D1*
X-476164Y32453D2*
Y31140D1*
Y29828D1*
Y28516D1*
Y27203D1*
Y25891D1*
Y24579D1*
Y23266D1*
Y21954D1*
Y20642D1*
Y19329D1*
Y18017D1*
Y16705D1*
Y15392D1*
Y14080D1*
Y12768D1*
Y11455D1*
Y10143D1*
Y8831D1*
Y7518D1*
Y6206D1*
Y4894D1*
X-512909Y23266D2*
Y21954D1*
Y20642D1*
Y19329D1*
Y18017D1*
Y16705D1*
Y15392D1*
Y14080D1*
Y12768D1*
X-485350D2*
Y11455D1*
Y10143D1*
Y8831D1*
Y7518D1*
Y6206D1*
Y4894D1*
X-512909Y-1668D2*
Y-2980D1*
Y-4293D1*
Y-5605D1*
Y-6917D1*
Y-8230D1*
Y-9542D1*
Y-10854D1*
Y-12167D1*
Y-13479D1*
X-498474D1*
Y-14791D1*
X-476164Y-1668D2*
Y-2980D1*
Y-4293D1*
Y-5605D1*
Y-6917D1*
Y-8230D1*
Y-9542D1*
Y-10854D1*
Y-12167D1*
Y-13479D1*
X-489287D1*
Y-14791D1*
X-512909Y-18728D2*
Y-20041D1*
Y-21353D1*
Y-22665D1*
Y-23978D1*
Y-25290D1*
Y-26602D1*
Y-27915D1*
X-476164Y-18728D2*
Y-20041D1*
Y-21353D1*
Y-22665D1*
Y-23978D1*
Y-25290D1*
Y-26602D1*
Y-27915D1*
X-485350Y-62035D2*
Y-63348D1*
Y-64660D1*
Y-65972D1*
Y-67285D1*
Y-68597D1*
Y-69909D1*
Y-71222D1*
X-476164Y-62035D2*
Y-63348D1*
Y-64660D1*
Y-65972D1*
Y-67285D1*
Y-68597D1*
Y-69909D1*
Y-71222D1*
Y-72534D1*
Y-73846D1*
Y-75159D1*
Y-76471D1*
Y-77783D1*
Y-79096D1*
Y-80408D1*
Y-81720D1*
Y-83033D1*
Y-84345D1*
Y-85657D1*
Y-86970D1*
Y-88282D1*
Y-89594D1*
X-512909Y-71222D2*
Y-72534D1*
Y-73846D1*
Y-75159D1*
Y-76471D1*
Y-77783D1*
Y-79096D1*
Y-80408D1*
Y-81720D1*
X-485350D2*
Y-83033D1*
Y-84345D1*
Y-85657D1*
Y-86970D1*
Y-88282D1*
Y-89594D1*
X-503723Y-94844D2*
X-506242Y-96156D1*
X-508257Y-97469D1*
X-509737Y-98781D1*
X-510732Y-100093D1*
X-511411Y-101406D1*
X-511965Y-102718D1*
X-512404Y-104030D1*
X-512672Y-105343D1*
X-512809Y-106655D1*
X-512870Y-107967D1*
X-512895Y-109280D1*
X-512904Y-110592D1*
X-512908Y-111904D1*
X-512909Y-113217D1*
Y-114529D1*
Y-115841D1*
X-484038Y-94844D2*
X-481564Y-96156D1*
X-479671Y-97469D1*
X-478343Y-98781D1*
X-477417Y-100093D1*
X-476798Y-101406D1*
X-476450Y-102718D1*
X-476283Y-104030D1*
X-476210Y-105343D1*
X-476181Y-106655D1*
X-476170Y-107967D1*
X-476166Y-109280D1*
X-476165Y-110592D1*
X-476164Y-111904D1*
Y-113217D1*
Y-114529D1*
Y-115841D1*
X-501098Y-105343D2*
X-502153Y-106655D1*
X-502920Y-107967D1*
X-503360Y-109280D1*
X-503573Y-110592D1*
X-503665Y-111904D1*
X-503702Y-113217D1*
X-503716Y-114529D1*
X-503723Y-115841D1*
X-498474Y-105343D2*
Y-106655D1*
Y-107967D1*
Y-109280D1*
Y-110592D1*
Y-111904D1*
Y-113217D1*
Y-114529D1*
Y-115841D1*
X-489287Y-105343D2*
X-489490Y-106655D1*
X-489816Y-107967D1*
X-490155Y-109280D1*
X-490385Y-110592D1*
X-490507Y-111904D1*
X-490563Y-113217D1*
X-490587Y-114529D1*
X-490600Y-115841D1*
X-487975Y-105343D2*
X-486921Y-106655D1*
X-486153Y-107967D1*
X-485714Y-109280D1*
X-485500Y-110592D1*
X-485408Y-111904D1*
X-485372Y-113217D1*
X-485357Y-114529D1*
X-485350Y-115841D1*
X-512909Y-122403D2*
Y-123715D1*
Y-125028D1*
Y-126340D1*
Y-127652D1*
Y-128965D1*
Y-130277D1*
Y-131589D1*
Y-132902D1*
X-484038Y-122403D2*
X-481564Y-123715D1*
X-479671Y-125028D1*
X-478343Y-126340D1*
X-477417Y-127652D1*
X-476798Y-128965D1*
X-476450Y-130277D1*
X-476283Y-131589D1*
X-476210Y-132902D1*
X-476186Y-134214D1*
X-476226Y-135526D1*
X-476441Y-136839D1*
X-476972Y-138151D1*
X-477840Y-139463D1*
X-478928Y-140776D1*
X-480101Y-142088D1*
X-478997Y-143400D1*
X-478061Y-144713D1*
X-477307Y-146025D1*
X-476757Y-147337D1*
X-476436Y-148650D1*
X-476278Y-149962D1*
X-476208Y-151274D1*
X-476185Y-152587D1*
X-476221Y-153899D1*
X-476390Y-155211D1*
X-476759Y-156524D1*
X-477363Y-157836D1*
X-478324Y-159148D1*
X-479740Y-160461D1*
X-481413Y-161773D1*
X-485350Y-132902D2*
Y-134214D1*
Y-135526D1*
Y-136839D1*
X-512909D2*
Y-138151D1*
Y-139463D1*
Y-140776D1*
Y-142088D1*
Y-143400D1*
Y-144713D1*
Y-146025D1*
Y-147337D1*
X-487975D2*
X-486663Y-148650D1*
X-485350Y-149962D1*
X-486663Y-151274D1*
X-487975Y-152587D1*
X-512909D2*
Y-153899D1*
Y-155211D1*
Y-156524D1*
Y-157836D1*
Y-159148D1*
Y-160461D1*
Y-161773D1*
Y-169647D2*
Y-170959D1*
Y-172272D1*
Y-173584D1*
Y-174896D1*
Y-176209D1*
Y-177521D1*
Y-178833D1*
Y-180146D1*
X-486663Y-169647D2*
X-484139Y-170959D1*
X-482078Y-172272D1*
X-480430Y-173584D1*
X-479121Y-174896D1*
X-478106Y-176209D1*
X-477322Y-177521D1*
X-476762Y-178833D1*
X-476438Y-180146D1*
X-476278Y-181458D1*
X-476208Y-182770D1*
X-476180Y-184083D1*
X-476175Y-185395D1*
X-476217Y-186707D1*
X-476388Y-188020D1*
X-476753Y-189332D1*
X-477308Y-190644D1*
X-478075Y-191957D1*
X-479116Y-193269D1*
X-480472Y-194581D1*
X-482161Y-195894D1*
X-484038Y-197206D1*
X-487975Y-180146D2*
X-486936Y-181458D1*
X-486095Y-182770D1*
X-485776Y-184083D1*
X-487385Y-185395D1*
X-489287Y-186707D1*
X-499786Y-182770D2*
X-499781Y-184083D1*
X-499735Y-185395D1*
X-499568Y-186707D1*
X-499248Y-188020D1*
X-498860Y-189332D1*
X-498413Y-190644D1*
X-497753Y-191957D1*
X-496778Y-193269D1*
X-495455Y-194581D1*
X-493781Y-195894D1*
X-491912Y-197206D1*
X-490600Y-182770D2*
X-490092Y-184083D1*
X-488549Y-185395D1*
X-486663Y-186707D1*
X-512909Y-232639D2*
Y-233951D1*
Y-235264D1*
Y-236576D1*
Y-237888D1*
Y-239201D1*
Y-240513D1*
Y-241825D1*
Y-243138D1*
Y-244450D1*
X-498474D1*
Y-245762D1*
X-476164Y-232639D2*
Y-233951D1*
Y-235264D1*
Y-236576D1*
Y-237888D1*
Y-239201D1*
Y-240513D1*
Y-241825D1*
Y-243138D1*
Y-244450D1*
X-489287D1*
Y-245762D1*
X-512909Y-249699D2*
Y-251012D1*
Y-252324D1*
Y-253636D1*
Y-254949D1*
Y-256261D1*
Y-257573D1*
Y-258886D1*
X-476164Y-249699D2*
Y-251012D1*
Y-252324D1*
Y-253636D1*
Y-254949D1*
Y-256261D1*
Y-257573D1*
Y-258886D1*
X-502411Y-266760D2*
X-505087Y-268072D1*
X-507306Y-269385D1*
X-508973Y-270697D1*
X-510135Y-272009D1*
X-510922Y-273322D1*
X-511492Y-274634D1*
X-511998Y-275946D1*
X-512416Y-277259D1*
X-512672Y-278571D1*
X-512759Y-279883D1*
X-512652Y-281196D1*
X-512357Y-282508D1*
X-511984Y-283820D1*
X-511586Y-285133D1*
X-511100Y-286445D1*
X-510484Y-287757D1*
X-509643Y-289070D1*
X-508375Y-290382D1*
X-506488Y-291694D1*
X-503958Y-293007D1*
X-501098Y-294319D1*
X-476164Y-266760D2*
Y-268072D1*
Y-269385D1*
Y-270697D1*
Y-272009D1*
Y-273322D1*
Y-274634D1*
Y-275946D1*
Y-277259D1*
X-501098D2*
X-502098Y-278571D1*
X-502861Y-279883D1*
X-502766Y-281196D1*
X-501994Y-282508D1*
X-501098Y-283820D1*
X-476164D2*
Y-285133D1*
Y-286445D1*
Y-287757D1*
Y-289070D1*
Y-290382D1*
Y-291694D1*
Y-293007D1*
Y-294319D1*
X-512909Y-300881D2*
Y-302193D1*
Y-303505D1*
Y-304818D1*
Y-306130D1*
Y-307442D1*
Y-308755D1*
Y-310067D1*
Y-311379D1*
X-484038Y-300881D2*
X-481564Y-302193D1*
X-479671Y-303505D1*
X-478343Y-304818D1*
X-477417Y-306130D1*
X-476798Y-307442D1*
X-476450Y-308755D1*
X-476283Y-310067D1*
X-476210Y-311379D1*
X-476186Y-312692D1*
X-476226Y-314004D1*
X-476441Y-315316D1*
X-476972Y-316629D1*
X-477840Y-317941D1*
X-478928Y-319253D1*
X-480101Y-320566D1*
X-478997Y-321878D1*
X-478061Y-323190D1*
X-477307Y-324503D1*
X-476757Y-325815D1*
X-476436Y-327127D1*
X-476278Y-328440D1*
X-476208Y-329752D1*
X-476185Y-331064D1*
X-476221Y-332377D1*
X-476390Y-333689D1*
X-476759Y-335001D1*
X-477363Y-336314D1*
X-478324Y-337626D1*
X-479740Y-338938D1*
X-481413Y-340251D1*
X-485350Y-311379D2*
Y-312692D1*
Y-314004D1*
Y-315316D1*
X-512909D2*
Y-316629D1*
Y-317941D1*
Y-319253D1*
Y-320566D1*
Y-321878D1*
Y-323190D1*
Y-324503D1*
Y-325815D1*
X-487975D2*
X-486663Y-327127D1*
X-485350Y-328440D1*
X-486663Y-329752D1*
X-487975Y-331064D1*
X-512909D2*
Y-332377D1*
Y-333689D1*
Y-335001D1*
Y-336314D1*
Y-337626D1*
Y-338938D1*
Y-340251D1*
M02*
