G04 DipTrace 3.2.0.1*
G04 Верхний.gbr*
%MOIN*%
G04 #@! TF.FileFunction,Copper,L1,Top*
G04 #@! TF.Part,Single*
%ADD16C,0.011811*%
%ADD18C,0.015748*%
%ADD42C,0.035433*%
G04 #@! TA.AperFunction,CopperBalancing*
%ADD10C,0.009843*%
G04 #@! TA.AperFunction,Conductor*
%ADD17C,0.019685*%
G04 #@! TA.AperFunction,ViaPad*
%ADD19C,0.023622*%
G04 #@! TA.AperFunction,CopperBalancing*
%ADD20C,0.01378*%
%ADD22R,0.043307X0.03937*%
%ADD23R,0.051181X0.059055*%
G04 #@! TA.AperFunction,ComponentPad*
%ADD24C,0.062992*%
%ADD25C,0.062992*%
%ADD27R,0.031496X0.011811*%
%ADD28R,0.025591X0.05315*%
%ADD31R,0.11811X0.059055*%
%ADD32R,0.059055X0.03937*%
%ADD37R,0.051181X0.07874*%
G04 #@! TA.AperFunction,ViaPad*
%ADD40C,0.031496*%
%FSLAX26Y26*%
G04*
G70*
G90*
G75*
G01*
G04 Top*
%LPD*%
X337609Y225154D2*
D18*
X304287D1*
D10*
X303150Y224016D1*
X45276Y319875D2*
X107720D1*
X120353Y307243D1*
X107395Y294285D1*
X45276D1*
X120353Y307243D2*
D16*
X265125D1*
X301081Y271286D1*
Y224016D1*
X303150D1*
X84337Y-175202D2*
D18*
Y-96148D1*
D16*
X82677Y-94488D1*
X0Y94488D2*
Y-10573D1*
Y-94488D1*
Y-10573D2*
X71898D1*
X84751Y-23427D1*
Y-92415D1*
X82677Y-94488D1*
Y94488D2*
Y148753D1*
X94375Y160451D1*
X295297D1*
X384052Y71696D1*
Y-13160D1*
X488415Y-117522D1*
X557281D1*
X564961Y-109843D1*
X428017Y17471D2*
X530988D1*
X564781Y51264D1*
Y112025D1*
X564961Y112205D1*
X-45276Y319875D2*
D10*
X-160975D1*
X-236220Y244630D1*
Y226378D1*
X270908Y-110003D2*
D18*
Y-176848D1*
D16*
X272354Y-178294D1*
Y-201916D2*
Y-178294D1*
X-98573Y-174932D2*
D18*
Y-94488D1*
X-82677D1*
Y94488D2*
D16*
Y-94488D1*
X-229761Y-305319D2*
X-47445D1*
X-37402Y-295276D1*
X236220Y224016D2*
D19*
X-109794D1*
X-211118Y122692D1*
X-250563D1*
X-261923Y111332D1*
X-375765D1*
Y-58509D1*
X-205580Y-228694D1*
X10371D1*
X30392Y-248715D1*
Y-288266D1*
X37402Y-295276D1*
X45276Y268694D2*
D10*
X218190D1*
X229543Y257341D1*
Y224016D1*
X236220D1*
X-303150Y226378D2*
D18*
Y229409D1*
X-340514D1*
X-375765Y194159D1*
Y111332D1*
X-563386Y112205D2*
D19*
X-375765Y111332D1*
X37402Y-295276D2*
D17*
X85243D1*
X272354D1*
Y-296404D1*
X383087D1*
D16*
X392169Y-305487D1*
X82950Y-334875D2*
D18*
Y-297568D1*
D16*
X85243Y-295276D1*
X272354Y-272782D2*
Y-296404D1*
X-45276Y268694D2*
D10*
X-104461D1*
X-110762Y262392D1*
X-234647Y175890D2*
X-206920D1*
X-142604Y240206D1*
Y279604D1*
X-127923Y294285D1*
X-45276D1*
X-564961Y-109843D2*
D16*
X-387188D1*
X-295282Y-201748D1*
Y-303911D1*
X-296690Y-305319D1*
D40*
X392169Y-305487D3*
D19*
X-110762Y262392D3*
X337609Y225154D3*
X-234647Y175890D3*
X-582272Y337797D3*
X-551572Y337874D3*
X-582665Y306547D3*
X584874Y340469D3*
X586455Y311564D3*
X553772Y340247D3*
X565799Y-425961D3*
X582634Y-392744D3*
X532584Y-440975D3*
D40*
X270908Y-110003D3*
D19*
X84337Y-175202D3*
X-98573Y-174932D3*
X428017Y17471D3*
X82950Y-334875D3*
X-593657Y338486D2*
D20*
X-479907D1*
X-380344D2*
X-180713D1*
X83612D2*
X380318D1*
X479907D2*
X594601D1*
X-593657Y324837D2*
X-476139D1*
X-384085D2*
X-194358D1*
X83612D2*
X384085D1*
X476139D2*
X594601D1*
X-593657Y311189D2*
X-467150D1*
X-393101D2*
X-208003D1*
X83612D2*
X393102D1*
X467151D2*
X594601D1*
X-593685Y297541D2*
X-444731D1*
X-415492D2*
X-221648D1*
X83612D2*
X415493D1*
X444732D2*
X594601D1*
X-593685Y283892D2*
X-235293D1*
X241349D2*
X594601D1*
X-593685Y270244D2*
X-248965D1*
X253648D2*
X594601D1*
X-535148Y256596D2*
X-352257D1*
X-185896D2*
X-170136D1*
X347415D2*
X594601D1*
X-520749Y242948D2*
X-369509D1*
X-191979D2*
X-178210D1*
X347415D2*
X594601D1*
X-513726Y229299D2*
X-383154D1*
X347415D2*
X594601D1*
X-510980Y215651D2*
X-396799D1*
X347415D2*
X594601D1*
X-511869Y202003D2*
X-405169D1*
X347415D2*
X594601D1*
X-516579Y188354D2*
X-406245D1*
X-97353D2*
X191980D1*
X347415D2*
X594601D1*
X-526537Y174706D2*
X-406245D1*
X-345303D2*
X-269042D1*
X-111025D2*
X68879D1*
X320770D2*
X594601D1*
X-593739Y161058D2*
X-584552D1*
X-542199D2*
X-406245D1*
X-345303D2*
X-265543D1*
X-124669D2*
X57118D1*
X334442D2*
X543761D1*
X586160D2*
X594625D1*
X-522769Y147409D2*
X-406245D1*
X-345303D2*
X-273860D1*
X-138314D2*
X-130848D1*
X348087D2*
X524357D1*
X-151959Y133761D2*
X-135176D1*
X361732D2*
X515476D1*
X-165604Y120113D2*
X-139993D1*
X139941D2*
X295891D1*
X375377D2*
X511466D1*
X-179249Y106465D2*
X-139993D1*
X139995D2*
X309537D1*
X389022D2*
X511169D1*
X-195639Y92816D2*
X-139993D1*
X140075D2*
X323181D1*
X402667D2*
X514560D1*
X-253018Y79168D2*
X-139993D1*
X140129D2*
X336853D1*
X411495D2*
X522500D1*
X-593793Y65520D2*
X-589270D1*
X-537517D2*
X-410175D1*
X-341346D2*
X-139993D1*
X140182D2*
X350499D1*
X412543D2*
X536280D1*
X-593793Y51871D2*
X-410175D1*
X-341346D2*
X-139993D1*
X140236D2*
X355558D1*
X412543D2*
X525650D1*
X-593793Y38223D2*
X-410175D1*
X-341346D2*
X-139993D1*
X140290D2*
X355558D1*
X589955D2*
X594609D1*
X-593819Y24575D2*
X-410175D1*
X-341346D2*
X-139993D1*
X140344D2*
X355558D1*
X577844D2*
X594601D1*
X-593819Y10927D2*
X-410175D1*
X-341346D2*
X-139993D1*
X140398D2*
X355558D1*
X564172D2*
X594601D1*
X-593819Y-2722D2*
X-410175D1*
X-341346D2*
X-139993D1*
X140479D2*
X355558D1*
X550474D2*
X594601D1*
X-593846Y-16370D2*
X-410175D1*
X-341346D2*
X-139993D1*
X140533D2*
X355747D1*
X426996D2*
X594601D1*
X-593846Y-30018D2*
X-410175D1*
X-341346D2*
X-139993D1*
X140587D2*
X361425D1*
X440642D2*
X594601D1*
X-593846Y-43667D2*
X-410175D1*
X-341346D2*
X-139993D1*
X140640D2*
X374828D1*
X454286D2*
X594601D1*
X-593846Y-57315D2*
X-570793D1*
X-559129D2*
X-410175D1*
X-328860D2*
X-139993D1*
X140694D2*
X388472D1*
X467958D2*
X559129D1*
X570793D2*
X594601D1*
X-527990Y-70963D2*
X-407726D1*
X-315214D2*
X-139993D1*
X140748D2*
X402118D1*
X481602D2*
X527991D1*
X-301570Y-84612D2*
X-139993D1*
X140802D2*
X242657D1*
X299159D2*
X415762D1*
X495248D2*
X517306D1*
X-287924Y-98260D2*
X-139993D1*
X140856D2*
X234476D1*
X307340D2*
X429408D1*
X-274280Y-111908D2*
X-139993D1*
X140937D2*
X232619D1*
X309197D2*
X443052D1*
X-260634Y-125556D2*
X-138756D1*
X139537D2*
X171014D1*
X373681D2*
X456698D1*
X-519808Y-139205D2*
X-397552D1*
X-246990D2*
X-130870D1*
X130871D2*
X171014D1*
X373681D2*
X470747D1*
X-533104Y-152853D2*
X-383907D1*
X-233318D2*
X-130870D1*
X130871D2*
X171014D1*
X373681D2*
X533104D1*
X-532000Y-166501D2*
X-370262D1*
X-219673D2*
X-131892D1*
X-65245D2*
X171014D1*
X373681D2*
X535150D1*
X-518462Y-180150D2*
X-356618D1*
X-206028D2*
X-132566D1*
X-64572D2*
X171014D1*
X373681D2*
X521612D1*
X-511787Y-193798D2*
X-342972D1*
X-192383D2*
X-127075D1*
X-70089D2*
X171014D1*
X373681D2*
X514937D1*
X-509339Y-207446D2*
X-329328D1*
X37213D2*
X171014D1*
X373681D2*
X512488D1*
X-510496Y-221094D2*
X-323783D1*
X-266770D2*
X-261260D1*
X50858D2*
X176236D1*
X367383D2*
X513646D1*
X-515555Y-234743D2*
X-323783D1*
X-266770D2*
X-247619D1*
X61705D2*
X176290D1*
X367437D2*
X518706D1*
X-526052Y-248391D2*
X-323783D1*
X-266770D2*
X-233974D1*
X85604D2*
X176344D1*
X367491D2*
X529202D1*
X-593954Y-262039D2*
X-572138D1*
X-554634D2*
X-323783D1*
X-266770D2*
X-85602D1*
X85604D2*
X171014D1*
X373681D2*
X557783D1*
X575287D2*
X594601D1*
X-593954Y-275688D2*
X-340954D1*
X-185520D2*
X-85602D1*
X415424D2*
X594601D1*
X-593980Y-289336D2*
X-340954D1*
X426808D2*
X594573D1*
X-593980Y-302984D2*
X-457138D1*
X-403113D2*
X-340954D1*
X457112D2*
X594573D1*
X-593980Y-316633D2*
X-471537D1*
X-388688D2*
X-340954D1*
X471538D2*
X594573D1*
X-593980Y-330281D2*
X-478157D1*
X-382067D2*
X-340954D1*
X117038D2*
X171014D1*
X478157D2*
X594573D1*
X-594008Y-343929D2*
X-480283D1*
X-379967D2*
X-340954D1*
X-185520D2*
X-85602D1*
X116096D2*
X171014D1*
X373681D2*
X379969D1*
X480285D2*
X594573D1*
X-594008Y-357577D2*
X-478480D1*
X-381744D2*
X57576D1*
X108318D2*
X381744D1*
X478482D2*
X594573D1*
X-594008Y-371226D2*
X-472290D1*
X-387933D2*
X387934D1*
X472291D2*
X594573D1*
X-594008Y-384874D2*
X-458861D1*
X-401390D2*
X401391D1*
X458861D2*
X594573D1*
X-592635Y-398522D2*
X593255D1*
X-589163Y-412171D2*
X589407D1*
X-584050Y-425819D2*
X583270D1*
X-571751Y-439467D2*
X572236D1*
X-551215Y-453115D2*
X547152D1*
X254573Y264921D2*
X346024D1*
Y183110D1*
X310213D1*
X312913Y181079D1*
X338837Y155273D1*
X404680Y89312D1*
X407181Y85869D1*
X409114Y82076D1*
X410429Y78028D1*
X411094Y73824D1*
X411178Y45886D1*
X415377Y47988D1*
X420306Y49591D1*
X425425Y50400D1*
X430609D1*
X435728Y49591D1*
X440657Y47988D1*
X445276Y45635D1*
X446835Y44593D1*
X519764Y44597D1*
X537669Y62514D1*
X537655Y67115D1*
X533975Y69556D1*
X527685Y74929D1*
X522312Y81219D1*
X517990Y88272D1*
X514824Y95915D1*
X512894Y103958D1*
X512244Y112205D1*
X512894Y120451D1*
X514824Y128495D1*
X517990Y136138D1*
X522312Y143190D1*
X527685Y149480D1*
X533975Y154853D1*
X541028Y159176D1*
X548671Y162341D1*
X556714Y164272D1*
X564961Y164921D1*
X573207Y164272D1*
X581251Y162341D1*
X588894Y159176D1*
X595984Y154823D1*
X595991Y352140D1*
X478297Y352119D1*
X478898Y344488D1*
X478297Y336857D1*
X476510Y329415D1*
X473581Y322343D1*
X469581Y315816D1*
X464610Y309996D1*
X458790Y305025D1*
X452264Y301025D1*
X445192Y298096D1*
X437749Y296310D1*
X430118Y295709D1*
X422487Y296310D1*
X415045Y298096D1*
X407972Y301025D1*
X401446Y305025D1*
X395626Y309996D1*
X390655Y315816D1*
X386655Y322343D1*
X383726Y329415D1*
X381940Y336857D1*
X381339Y344488D1*
X381942Y352134D1*
X-381951Y352115D1*
X-381339Y344488D1*
X-381940Y336857D1*
X-383726Y329415D1*
X-386655Y322343D1*
X-390655Y315816D1*
X-395626Y309996D1*
X-401446Y305025D1*
X-407972Y301025D1*
X-415045Y298096D1*
X-422487Y296310D1*
X-430118Y295709D1*
X-437749Y296310D1*
X-445192Y298096D1*
X-452264Y301025D1*
X-458790Y305025D1*
X-464610Y309996D1*
X-469581Y315816D1*
X-473581Y322343D1*
X-476510Y329415D1*
X-478297Y336857D1*
X-478898Y344488D1*
X-478299Y352104D1*
X-595028Y352108D1*
X-595075Y255463D1*
X-590420Y258366D1*
X-585463Y260770D1*
X-580283Y262646D1*
X-574936Y263969D1*
X-569478Y264727D1*
X-563972Y264912D1*
X-558476Y264521D1*
X-553052Y263559D1*
X-547757Y262035D1*
X-542651Y259967D1*
X-537787Y257378D1*
X-533222Y254297D1*
X-529003Y250753D1*
X-525176Y246790D1*
X-521783Y242449D1*
X-518862Y237778D1*
X-516445Y232827D1*
X-514558Y227651D1*
X-513220Y222307D1*
X-512449Y216852D1*
X-512262Y210827D1*
X-512694Y205335D1*
X-513696Y199917D1*
X-515259Y194634D1*
X-517364Y189543D1*
X-519988Y184699D1*
X-523105Y180156D1*
X-526678Y175962D1*
X-530669Y172165D1*
X-535035Y168804D1*
X-539728Y165919D1*
X-544697Y163538D1*
X-547497Y162467D1*
X-543213Y160908D1*
X-535841Y157154D1*
X-529150Y152291D1*
X-523299Y146441D1*
X-522209Y145058D1*
X-404850Y144499D1*
X-404770Y196441D1*
X-404055Y200950D1*
X-402644Y205293D1*
X-400572Y209361D1*
X-397888Y213054D1*
X-371979Y239091D1*
X-359409Y251533D1*
X-355717Y254217D1*
X-351648Y256289D1*
X-347298Y257702D1*
X-346024Y261260D1*
Y267283D1*
X-250539D1*
X-177953Y339753D1*
X-174634Y342165D1*
X-170979Y344028D1*
X-167077Y345295D1*
X-163026Y345937D1*
X-119636Y346017D1*
X-82255D1*
X-82244Y347001D1*
X-8307D1*
Y342076D1*
X8319Y342080D1*
X8307Y347001D1*
X82244D1*
Y294839D1*
X220241Y294756D1*
X224293Y294114D1*
X228194Y292846D1*
X231849Y290984D1*
X235168Y288572D1*
X248029Y275827D1*
X250693Y272707D1*
X252836Y269210D1*
X254408Y265412D1*
X193346Y187551D2*
Y190996D1*
X-96181Y190915D1*
X-189665Y97575D1*
X-193860Y94528D1*
X-198478Y92175D1*
X-203407Y90572D1*
X-208526Y89762D1*
X-236874Y89660D1*
X-240470Y86215D1*
X-244664Y83168D1*
X-249282Y80815D1*
X-254211Y79213D1*
X-259331Y78402D1*
X-289482Y78301D1*
X-342743D1*
X-342664Y-44896D1*
X-191801Y-195663D1*
X-124276D1*
X-126738Y-192190D1*
X-129091Y-187572D1*
X-130693Y-182643D1*
X-131503Y-177524D1*
Y-172340D1*
X-130693Y-167220D1*
X-129091Y-162291D1*
X-127663Y-159325D1*
X-129488Y-155079D1*
Y-135836D1*
X-132391Y-133436D1*
X-134554Y-130904D1*
X-136294Y-128064D1*
X-137568Y-124988D1*
X-138345Y-121751D1*
X-138606Y-118430D1*
X-138541Y121976D1*
X-138020Y125265D1*
X-136991Y128432D1*
X-135479Y131399D1*
X-133522Y134093D1*
X-131168Y136448D1*
X-129853Y137483D1*
X-129488Y144134D1*
Y155079D1*
X56301Y155085D1*
X57615Y159134D1*
X59549Y162927D1*
X62050Y166370D1*
X75194Y179633D1*
X78430Y182396D1*
X82060Y184621D1*
X85993Y186249D1*
X90131Y187244D1*
X94375Y187577D1*
X193335D1*
X381476Y-340852D2*
X378022Y-339642D1*
X373398Y-337312D1*
X372315Y-338176D1*
Y-356995D1*
X172394D1*
Y-326341D1*
X114886Y-326339D1*
X115879Y-332283D1*
Y-337467D1*
X115070Y-342587D1*
X113467Y-347516D1*
X111114Y-352134D1*
X108067Y-356328D1*
X104403Y-359992D1*
X100209Y-363039D1*
X95591Y-365392D1*
X90661Y-366995D1*
X85542Y-367804D1*
X80358D1*
X75239Y-366995D1*
X70310Y-365392D1*
X65692Y-363039D1*
X61497Y-359992D1*
X57833Y-356328D1*
X54786Y-352134D1*
X52433Y-347516D1*
X51882Y-346024D1*
X-84213D1*
Y-332433D1*
X-186882Y-332445D1*
X-186887Y-346224D1*
X-339564D1*
Y-264413D1*
X-322420D1*
X-322408Y-212971D1*
X-398407Y-136986D1*
X-519735Y-136969D1*
X-522312Y-140828D1*
X-527685Y-147118D1*
X-533975Y-152491D1*
X-541028Y-156814D1*
X-547533Y-159559D1*
X-543213Y-161139D1*
X-535841Y-164894D1*
X-529150Y-169756D1*
X-523299Y-175606D1*
X-518437Y-182298D1*
X-514682Y-189669D1*
X-512126Y-197535D1*
X-510832Y-205706D1*
Y-213979D1*
X-512126Y-222150D1*
X-514682Y-230016D1*
X-518437Y-237387D1*
X-523299Y-244079D1*
X-529150Y-249929D1*
X-535841Y-254791D1*
X-543213Y-258546D1*
X-551079Y-261102D1*
X-559249Y-262396D1*
X-567522D1*
X-575693Y-261102D1*
X-583559Y-258546D1*
X-590930Y-254791D1*
X-595324Y-251740D1*
X-595399Y-392999D1*
X-587757Y-423210D1*
X-569341Y-443681D1*
X-550680Y-454197D1*
X-533244Y-457277D1*
X526147Y-457991D1*
X553600Y-452008D1*
X573419Y-439705D1*
X586291Y-423777D1*
X592848Y-406862D1*
X595961Y-392331D1*
X595966Y-253567D1*
X590469Y-256814D1*
X582825Y-259979D1*
X574782Y-261909D1*
X566535Y-262559D1*
X558289Y-261909D1*
X550245Y-259979D1*
X542602Y-256814D1*
X535550Y-252491D1*
X529260Y-247118D1*
X523887Y-240828D1*
X519564Y-233776D1*
X516399Y-226133D1*
X514469Y-218089D1*
X513819Y-209843D1*
X514469Y-201596D1*
X516399Y-193552D1*
X519564Y-185909D1*
X523887Y-178857D1*
X529260Y-172567D1*
X535550Y-167194D1*
X542602Y-162871D1*
X549108Y-160126D1*
X544787Y-158546D1*
X537416Y-154791D1*
X530724Y-149929D1*
X525391Y-144638D1*
X486286Y-144564D1*
X482083Y-143899D1*
X478034Y-142584D1*
X474241Y-140651D1*
X470798Y-138150D1*
X444874Y-112344D1*
X363425Y-30777D1*
X360924Y-27333D1*
X358991Y-23541D1*
X357676Y-19492D1*
X357010Y-15289D1*
X356927Y21289D1*
Y60448D1*
X284049Y133337D1*
X134114Y133325D1*
X136218Y130025D1*
X137504Y126953D1*
X138295Y123719D1*
X138571Y120400D1*
X139510Y-119549D1*
X138996Y-122839D1*
X137974Y-126008D1*
X136469Y-128978D1*
X134517Y-131676D1*
X132168Y-134035D1*
X130856Y-135073D1*
X129488Y-137244D1*
Y-155079D1*
X-69480D1*
X-69479Y-159268D1*
X-67159Y-164724D1*
X-65949Y-169765D1*
X-65542Y-174932D1*
X-65949Y-180098D1*
X-67159Y-185139D1*
X-69142Y-189928D1*
X-71850Y-194348D1*
X-72886Y-195660D1*
X12963Y-195764D1*
X18083Y-196575D1*
X23012Y-198177D1*
X27630Y-200530D1*
X31824Y-203576D1*
X53215Y-224824D1*
X57115Y-229299D1*
X59824Y-233719D1*
X61807Y-238508D1*
X63018Y-243558D1*
X66378Y-244528D1*
X84213D1*
Y-264201D1*
X172415Y-264213D1*
X172394Y-255499D1*
X177749D1*
X177598Y-219184D1*
X172394Y-219199D1*
Y-117703D1*
X234752D1*
X234054Y-112903D1*
Y-107102D1*
X234961Y-101373D1*
X236753Y-95856D1*
X239387Y-90686D1*
X242797Y-85993D1*
X246899Y-81891D1*
X251592Y-78482D1*
X256761Y-75848D1*
X262278Y-74055D1*
X268008Y-73148D1*
X273808D1*
X279538Y-74055D1*
X285055Y-75848D1*
X290224Y-78482D1*
X294917Y-81891D1*
X299020Y-85993D1*
X302429Y-90686D1*
X305063Y-95856D1*
X306856Y-101373D1*
X307762Y-107102D1*
Y-112903D1*
X307039Y-117710D1*
X372315Y-117703D1*
Y-219199D1*
X365991D1*
X366155Y-255513D1*
X372315Y-255499D1*
Y-274311D1*
X375386Y-272547D1*
X380745Y-270328D1*
X386386Y-268974D1*
X392169Y-268518D1*
X397953Y-268974D1*
X403593Y-270328D1*
X408953Y-272547D1*
X413899Y-275579D1*
X418310Y-279346D1*
X422077Y-283757D1*
X425109Y-288703D1*
X427328Y-294063D1*
X427806Y-295755D1*
X433945Y-295860D1*
X441505Y-297056D1*
X448785Y-299421D1*
X455605Y-302896D1*
X461798Y-307396D1*
X467210Y-312808D1*
X471710Y-319001D1*
X475185Y-325822D1*
X477550Y-333101D1*
X478747Y-340661D1*
Y-348315D1*
X477550Y-355875D1*
X475185Y-363155D1*
X471710Y-369975D1*
X467210Y-376168D1*
X461798Y-381580D1*
X455605Y-386080D1*
X448785Y-389555D1*
X441505Y-391920D1*
X433945Y-393117D1*
X426291D1*
X418731Y-391920D1*
X411451Y-389555D1*
X404631Y-386080D1*
X398438Y-381580D1*
X393026Y-376168D1*
X388526Y-369975D1*
X385051Y-363155D1*
X382686Y-355875D1*
X381490Y-348315D1*
X381480Y-340886D1*
X-84213Y-278176D2*
Y-261705D1*
X-208172Y-261625D1*
X-213291Y-260814D1*
X-218220Y-259211D1*
X-222839Y-256858D1*
X-227033Y-253812D1*
X-248424Y-232564D1*
X-268159Y-212829D1*
X-268156Y-264429D1*
X-186887Y-264413D1*
Y-278167D1*
X-84188Y-278193D1*
X-522509Y78971D2*
X-526110Y74929D1*
X-532400Y69556D1*
X-539453Y65234D1*
X-547096Y62068D1*
X-555139Y60138D1*
X-563386Y59488D1*
X-571633Y60138D1*
X-579676Y62068D1*
X-587319Y65234D1*
X-594371Y69556D1*
X-595172Y70186D1*
X-595236Y-66688D1*
X-588894Y-62871D1*
X-581251Y-59706D1*
X-573207Y-57776D1*
X-564961Y-57126D1*
X-556714Y-57776D1*
X-548671Y-59706D1*
X-541028Y-62871D1*
X-533975Y-67194D1*
X-527685Y-72567D1*
X-522312Y-78857D1*
X-519783Y-82707D1*
X-398287Y-82717D1*
X-402488Y-77925D1*
X-405197Y-73505D1*
X-407180Y-68717D1*
X-408390Y-63676D1*
X-408797Y-58499D1*
Y78451D1*
X-522459Y78983D1*
X-595121Y154262D2*
X-590930Y157154D1*
X-583559Y160908D1*
X-580814Y161921D1*
X-586252Y163979D1*
X-591169Y166465D1*
X-595117Y168970D1*
X-595126Y154269D1*
X-595299Y-167925D2*
X-590930Y-164894D1*
X-583559Y-161139D1*
X-580814Y-160126D1*
X-585134Y-158546D1*
X-592505Y-154791D1*
X-595287Y-152932D1*
X-595286Y-167881D1*
X582406Y-159588D2*
X586709Y-161139D1*
X594080Y-164894D1*
X595975Y-166161D1*
X595946Y-152491D1*
X588894Y-156814D1*
X582388Y-159559D1*
X515993Y-90382D2*
X517990Y-85909D1*
X522312Y-78857D1*
X527685Y-72567D1*
X533975Y-67194D1*
X541028Y-62871D1*
X548671Y-59706D1*
X556714Y-57776D1*
X564961Y-57126D1*
X573207Y-57776D1*
X581251Y-59706D1*
X588894Y-62871D1*
X595984Y-67224D1*
X595946Y69556D1*
X591899Y66917D1*
X591823Y49135D1*
X591157Y44932D1*
X589843Y40883D1*
X587909Y37091D1*
X585408Y33647D1*
X559602Y7723D1*
X548605Y-3156D1*
X545161Y-5657D1*
X541369Y-7591D1*
X537320Y-8906D1*
X533117Y-9571D1*
X496539Y-9655D1*
X446885D1*
X443013Y-11961D1*
X438224Y-13944D1*
X433184Y-15154D1*
X428017Y-15560D1*
X424610Y-15362D1*
X499661Y-90407D1*
X515946Y-90396D1*
X-279088Y185472D2*
X-343301D1*
X-346680Y182098D1*
X-346671Y144343D1*
X-275535Y144433D1*
X-272016Y147808D1*
X-267822Y150856D1*
X-263203Y153209D1*
X-259764Y154437D1*
X-262811Y158631D1*
X-265164Y163249D1*
X-266766Y168178D1*
X-267576Y173298D1*
Y178482D1*
X-266766Y183601D1*
X-266240Y185463D1*
X-279094Y185499D1*
X-193346Y250517D2*
Y226457D1*
X-168751Y251029D1*
X-168745Y275138D1*
X-193358Y250522D1*
X-381490Y-348315D2*
X-382686Y-355875D1*
X-385051Y-363155D1*
X-388526Y-369975D1*
X-393026Y-376168D1*
X-398438Y-381580D1*
X-404631Y-386080D1*
X-411451Y-389555D1*
X-418731Y-391920D1*
X-426291Y-393117D1*
X-433945D1*
X-441505Y-391920D1*
X-448785Y-389555D1*
X-455605Y-386080D1*
X-461798Y-381580D1*
X-467210Y-376168D1*
X-471710Y-369975D1*
X-475185Y-363155D1*
X-477550Y-355875D1*
X-478747Y-348315D1*
Y-340661D1*
X-477550Y-333101D1*
X-475185Y-325822D1*
X-471710Y-319001D1*
X-467210Y-312808D1*
X-461798Y-307396D1*
X-455605Y-302896D1*
X-448785Y-299421D1*
X-441505Y-297056D1*
X-433945Y-295860D1*
X-426291D1*
X-418731Y-297056D1*
X-411451Y-299421D1*
X-404631Y-302896D1*
X-398438Y-307396D1*
X-393026Y-312808D1*
X-388526Y-319001D1*
X-385051Y-325822D1*
X-382686Y-333101D1*
X-381490Y-340661D1*
Y-348315D1*
X303150Y264894D2*
D10*
Y224016D1*
X345997D1*
X-564961Y264894D2*
Y212205D1*
X-512272D1*
X45276Y346974D2*
Y319875D1*
X82218D1*
X0Y155051D2*
Y94488D1*
Y-94488D2*
Y-155052D1*
X82677Y-94488D2*
Y-155052D1*
D22*
X236220Y224016D3*
X303150D3*
D23*
X-37402Y-295276D3*
X37402D3*
D24*
X-563386Y112205D3*
D25*
X-564961Y212205D3*
D24*
X-563386Y-209843D3*
D25*
X-564961Y-109843D3*
D24*
X566535Y-209843D3*
D25*
X564961Y-109843D3*
D22*
X-303150Y226378D3*
X-236220D3*
X-296690Y-305319D3*
X-229761D3*
D27*
X45276Y268694D3*
Y294285D3*
Y319875D3*
X-45276D3*
Y294285D3*
Y268694D3*
D28*
X0Y294285D3*
D31*
X272354Y-296404D3*
Y-178294D3*
D32*
Y-272782D3*
Y-201916D3*
D24*
X564961Y112205D3*
D37*
X82677Y94488D3*
X0D3*
X-82677D3*
Y-94488D3*
X0D3*
X82677D3*
G04 Top Clear*
%LPC*%
D18*
X392169Y-305487D3*
D16*
X-110762Y262392D3*
X337609Y225154D3*
X-234647Y175890D3*
X-582272Y337797D3*
X-551572Y337874D3*
X-582665Y306547D3*
X584874Y340469D3*
X586455Y311564D3*
X553772Y340247D3*
X565799Y-425961D3*
X582634Y-392744D3*
X532584Y-440975D3*
D18*
X270908Y-110003D3*
D16*
X84337Y-175202D3*
X-98573Y-174932D3*
X428017Y17471D3*
X82950Y-334875D3*
D42*
X-563386Y112205D3*
X-564961Y212205D3*
X-563386Y-209843D3*
X-564961Y-109843D3*
X566535Y-209843D3*
X564961Y-109843D3*
Y112205D3*
M02*
