%TF.GenerationSoftware,Novarm,DipTrace,3.2.0.1*%
%TF.CreationDate,2019-10-13T00:02:00+02:00*%
%FSLAX35Y35*%
%MOMM*%
%TF.FileFunction,Copper,L1,Top*%
%TF.Part,Single*%
%TA.AperFunction,Conductor*%
%ADD10C,0.25*%
%ADD15C,0.4*%
%ADD16C,0.3*%
%ADD17C,0.35*%
%ADD19R,1.1X1.0*%
%ADD20R,1.0X1.1*%
%ADD21R,1.3X1.5*%
%TA.AperFunction,ComponentPad*%
%ADD22C,1.6*%
%ADD23C,1.6*%
%ADD24R,1.0X0.25*%
%TA.AperFunction,ComponentPad*%
%ADD26C,1.4*%
%TA.AperFunction,ViaPad*%
%ADD27C,0.6*%
%TA.AperFunction,CopperBalancing*%
%ADD42C,0.35*%
%ADD43C,0.25*%
G75*
G01*
%LPD*%
X-182367Y-176800D2*
D15*
X-314510D1*
X-402693Y-88617D1*
X-726967D1*
X609240Y565793D2*
X491827D1*
D10*
X488770Y562737D1*
X-802737Y547193D2*
D17*
Y732737D1*
D10*
X-798300Y737173D1*
X165000Y750000D2*
X368523D1*
Y773730D1*
Y799950D1*
X230050D1*
X230000Y800000D1*
X165000D1*
X609240Y565793D2*
Y715920D1*
X551430Y773730D1*
X368523D1*
X-583593Y-775510D2*
D16*
X-120510D1*
X-95000Y-750000D1*
X-1431000Y285000D2*
D15*
X-956293D1*
X-836953D1*
X-792197Y240243D1*
X-726967Y175013D1*
Y81383D1*
X-360733D1*
X-275557Y-3793D1*
X1773D1*
X182367Y176800D1*
X-956293Y285000D2*
Y-146763D1*
X-702530Y-400527D1*
X-31153D1*
X77197Y-508877D1*
Y-732197D1*
X95000Y-750000D1*
X-792197Y240243D2*
X-777160D1*
X-705767Y311637D1*
X-540893D1*
X-289793Y562737D1*
X318770D1*
X165000Y700000D2*
D10*
X289580D1*
X313137Y676443D1*
Y568370D1*
X318770Y562737D1*
X-800627Y916243D2*
D15*
X-927117D1*
X-956293Y887067D1*
Y285000D1*
X1435000Y-279000D2*
D10*
X1027403D1*
X404423Y343980D1*
X-15187D1*
X-176800Y182367D1*
X-165000Y800000D2*
X-383923D1*
X-414820Y830897D1*
X-165000Y700000D2*
X-342763D1*
X-596003Y446760D1*
X-165000Y750000D2*
X-505860D1*
X-615473D1*
X-628300Y737173D1*
X-630627Y916243D2*
X-541180D1*
X-505860Y880923D1*
Y750000D1*
X-1435000Y-279000D2*
D16*
X-964177D1*
X-750017Y-493160D1*
Y-771937D1*
X-753593Y-775510D1*
D27*
X-414820Y830897D3*
X609240Y565793D3*
X-802737Y547193D3*
X-596003Y446760D3*
X-1478970Y858003D3*
X-1400993Y858200D3*
X-1479970Y778630D3*
X1485580Y864790D3*
X1489597Y791373D3*
X1406580Y864227D3*
X1437130Y-1081940D3*
X1479890Y-997570D3*
X1352763Y-1120077D3*
X-1431407Y-1084030D3*
X-1469543Y-1008657D3*
X-1356717Y-1124710D3*
X-1507890Y859753D2*
D42*
X-1218963D1*
X272393D2*
X966007D1*
X1218963D2*
X1510287D1*
X-1507890Y825087D2*
X-1209393D1*
X272393D2*
X975577D1*
X1209393D2*
X1510287D1*
X-1507890Y790420D2*
X-1186560D1*
X272393D2*
X998480D1*
X1186563D2*
X1510287D1*
X-1507960Y755753D2*
X-1129617D1*
X-1055350D2*
X-1033710D1*
X329130D2*
X1055353D1*
X1129620D2*
X1510287D1*
X-1507960Y721087D2*
X-1033710D1*
X365770D2*
X1510287D1*
X-1507960Y686420D2*
X-1033710D1*
X382313D2*
X1510287D1*
X-1359277Y651753D2*
X-1033710D1*
X-515927D2*
X-488407D1*
X601200D2*
X1510287D1*
X-1322703Y617087D2*
X-1033710D1*
X-878917D2*
X-523063D1*
X601200D2*
X1510287D1*
X-1304863Y582420D2*
X-1033710D1*
X-878917D2*
X-557723D1*
X601200D2*
X1510287D1*
X-1297890Y547753D2*
X-1033710D1*
X-878917D2*
X-592380D1*
X601200D2*
X1510287D1*
X-1300147Y513087D2*
X-1033710D1*
X-878917D2*
X-650897D1*
X601200D2*
X1510287D1*
X-1312110Y478420D2*
X-1033710D1*
X-878917D2*
X-677213D1*
X-266073D2*
X206400D1*
X601200D2*
X1510287D1*
X-1337403Y443753D2*
X-1033710D1*
X-878917D2*
X-683367D1*
X-300733D2*
X1510287D1*
X-1508097Y409087D2*
X-1484763D1*
X-1377187D2*
X-1033710D1*
X-878917D2*
X-674480D1*
X-335460D2*
X-31697D1*
X420937D2*
X1510287D1*
X-1327833Y374420D2*
X-1033710D1*
X-878917D2*
X-748240D1*
X-370117D2*
X-82147D1*
X471387D2*
X1510287D1*
X-404777Y339753D2*
X-116803D1*
X506047D2*
X1510287D1*
X-439433Y305087D2*
X-197333D1*
X540703D2*
X1510287D1*
X-474090Y270420D2*
X-267470D1*
X8663D2*
X97707D1*
X266993D2*
X380577D1*
X575360D2*
X1510287D1*
X-673633Y235753D2*
X-292077D1*
X-25997D2*
X69883D1*
X294813D2*
X415237D1*
X610087D2*
X1510287D1*
X-1323183Y201087D2*
X-1033710D1*
X-878917D2*
X-861033D1*
X-654287D2*
X-302810D1*
X-50810D2*
X57377D1*
X307393D2*
X449893D1*
X644747D2*
X1510287D1*
X-1508233Y166420D2*
X-1496747D1*
X-1365293D2*
X-1033710D1*
X-878917D2*
X-834373D1*
X-619560D2*
X-303153D1*
X-50400D2*
X55393D1*
X309307D2*
X484553D1*
X679403D2*
X1510287D1*
X-1508233Y131753D2*
X-1033710D1*
X-878917D2*
X-834373D1*
X-60177D2*
X29280D1*
X301310D2*
X519280D1*
X714063D2*
X1510287D1*
X-1508233Y97087D2*
X-1033710D1*
X-878917D2*
X-834373D1*
X-83417D2*
X-5380D1*
X280733D2*
X553937D1*
X748720D2*
X1510287D1*
X-1508300Y62420D2*
X-1033710D1*
X-878917D2*
X-834373D1*
X233497D2*
X588597D1*
X783380D2*
X1510287D1*
X-1508300Y27753D2*
X-1033710D1*
X-878917D2*
X-834373D1*
X141347D2*
X623253D1*
X818037D2*
X1510287D1*
X-1508300Y-6913D2*
X-1033710D1*
X-878917D2*
X-834373D1*
X-619560D2*
X-380467D1*
X106690D2*
X657913D1*
X852697D2*
X1510287D1*
X-1508370Y-41580D2*
X-1033710D1*
X-878917D2*
X-834373D1*
X-619560D2*
X-345810D1*
X72030D2*
X692570D1*
X887353D2*
X1510287D1*
X-1508370Y-76247D2*
X-1033710D1*
X-878917D2*
X-834373D1*
X-619560D2*
X-293583D1*
X19803D2*
X727230D1*
X922080D2*
X1510287D1*
X-1508370Y-110913D2*
X-1033710D1*
X-878917D2*
X-834373D1*
X-619560D2*
X-290780D1*
X-73917D2*
X761887D1*
X956740D2*
X1510287D1*
X-1508370Y-145580D2*
X-1449813D1*
X-1420187D2*
X-1033710D1*
X-849453D2*
X-834353D1*
X-619560D2*
X-305750D1*
X-58947D2*
X796613D1*
X991397D2*
X1420187D1*
X1449813D2*
X1510287D1*
X-1341093Y-180247D2*
X-1025643D1*
X-619560D2*
X-309713D1*
X-55050D2*
X831270D1*
X1026053D2*
X1341097D1*
X-780137Y-214913D2*
X-303767D1*
X-60997D2*
X865930D1*
X-745480Y-249580D2*
X-286130D1*
X-78563D2*
X900587D1*
X-710820Y-284247D2*
X-247577D1*
X-117187D2*
X935247D1*
X-676163Y-318913D2*
X969903D1*
X-1320313Y-353580D2*
X-990507D1*
X29923D2*
X1320313D1*
X-1354083Y-388247D2*
X-955847D1*
X64580D2*
X1354083D1*
X-1351280Y-422913D2*
X-921190D1*
X99240D2*
X1359280D1*
X-1316893Y-457580D2*
X-886530D1*
X133897D2*
X1324893D1*
X-1299940Y-492247D2*
X-851873D1*
X-677597D2*
X-47420D1*
X152697D2*
X1307940D1*
X-1293720Y-526913D2*
X-822410D1*
X-677597D2*
X-12760D1*
X154610D2*
X1301720D1*
X-1296660Y-561580D2*
X-822410D1*
X-677597D2*
X-183D1*
X154610D2*
X1304660D1*
X-1309510Y-596247D2*
X-822410D1*
X-677597D2*
X-183D1*
X154610D2*
X1317513D1*
X-1336173Y-630913D2*
X-822410D1*
X-677597D2*
X-217430D1*
X217433D2*
X1344173D1*
X-1508643Y-665580D2*
X-1453230D1*
X-1408770D2*
X-822410D1*
X-677597D2*
X-217430D1*
X217433D2*
X1416770D1*
X1461230D2*
X1510287D1*
X-1508643Y-700247D2*
X-866023D1*
X-471220D2*
X-217430D1*
X217433D2*
X1510287D1*
X-1508710Y-734913D2*
X-866023D1*
X217433D2*
X1510217D1*
X-1508710Y-769580D2*
X-1161130D1*
X-1023907D2*
X-866023D1*
X217433D2*
X1023910D1*
X1161063D2*
X1510217D1*
X-1508710Y-804247D2*
X-1197703D1*
X-987267D2*
X-866023D1*
X217433D2*
X987267D1*
X1197707D2*
X1510217D1*
X-1508710Y-838913D2*
X-1214520D1*
X-970450D2*
X-866023D1*
X217433D2*
X970450D1*
X1214520D2*
X1510217D1*
X-1508780Y-873580D2*
X-1219920D1*
X-965117D2*
X-866023D1*
X-471220D2*
X-217430D1*
X217433D2*
X965120D1*
X1219923D2*
X1510217D1*
X-1508780Y-908247D2*
X-1215340D1*
X-969630D2*
X969630D1*
X1215343D2*
X1510217D1*
X-1508780Y-942913D2*
X-1199617D1*
X-985350D2*
X985353D1*
X1199620D2*
X1510217D1*
X-1508780Y-977580D2*
X-1165507D1*
X-1019530D2*
X1019533D1*
X1165507D2*
X1510217D1*
X-1505293Y-1012247D2*
X1506867D1*
X-1496473Y-1046913D2*
X1497093D1*
X-1483487Y-1081580D2*
X1481507D1*
X-1452247Y-1116247D2*
X1453480D1*
X-1400087Y-1150913D2*
X1389767D1*
X-737210Y633273D2*
X-882407D1*
X-882393Y358853D1*
X-831157Y358673D1*
X-819703Y356857D1*
X-808673Y353273D1*
X-798340Y348010D1*
X-788960Y341193D1*
X-784650Y337207D1*
X-753760Y367830D1*
X-744380Y374647D1*
X-734047Y379913D1*
X-723020Y383497D1*
X-711563Y385310D1*
X-653337Y385537D1*
X-659800Y392270D1*
X-667540Y402923D1*
X-673517Y414653D1*
X-677587Y427173D1*
X-679643Y440177D1*
Y453343D1*
X-677587Y466347D1*
X-673517Y478867D1*
X-667540Y490597D1*
X-659800Y501250D1*
X-650493Y510557D1*
X-639840Y518297D1*
X-628110Y524273D1*
X-615590Y528343D1*
X-606750Y529910D1*
X-453037Y683630D1*
X-519400Y683573D1*
Y633273D1*
X-737200Y633340D1*
X379470Y666637D2*
X597670D1*
Y458837D1*
X209870D1*
Y488847D1*
X-259210Y488837D1*
X-492900Y255443D1*
X-502280Y248627D1*
X-512613Y243363D1*
X-523643Y239780D1*
X-535097Y237963D1*
X-628393Y237737D1*
X-675220D1*
X-680147Y232747D1*
X-670773Y223007D1*
X-663957Y213627D1*
X-658693Y203293D1*
X-655103Y192243D1*
X-638367Y190283D1*
X-623067D1*
Y155350D1*
X-360733Y155283D1*
X-349173Y154373D1*
X-337897Y151667D1*
X-327183Y147230D1*
X-317297Y141170D1*
X-308477Y133640D1*
X-244913Y70077D1*
X-229277Y70107D1*
X-241537Y76723D1*
X-257267Y88153D1*
X-271013Y101900D1*
X-282443Y117630D1*
X-291270Y134953D1*
X-297277Y153443D1*
X-300317Y172647D1*
Y192087D1*
X-297277Y211290D1*
X-291270Y229780D1*
X-282443Y247103D1*
X-271013Y262833D1*
X-257267Y276580D1*
X-241537Y288010D1*
X-224213Y296837D1*
X-205723Y302843D1*
X-186520Y305883D1*
X-167080D1*
X-149850Y303237D1*
X-58310Y394470D1*
X-49880Y400597D1*
X-40597Y405327D1*
X-30687Y408547D1*
X-20397Y410177D1*
X89813Y410380D1*
X409633Y410177D1*
X419923Y408547D1*
X429833Y405327D1*
X439117Y400597D1*
X447547Y394470D1*
X525620Y316687D1*
X1054867Y-212560D1*
X1318683Y-212600D1*
X1326673Y-200297D1*
X1340320Y-184320D1*
X1356297Y-170673D1*
X1374210Y-159693D1*
X1393623Y-151653D1*
X1414053Y-146750D1*
X1435000Y-145100D1*
X1455947Y-146750D1*
X1476377Y-151653D1*
X1495790Y-159693D1*
X1513800Y-170750D1*
X1513817Y894437D1*
X1214873Y894383D1*
X1216400Y875000D1*
X1214873Y855617D1*
X1210337Y836713D1*
X1202897Y818750D1*
X1192737Y802173D1*
X1180110Y787390D1*
X1165327Y774763D1*
X1148750Y764603D1*
X1130787Y757163D1*
X1111883Y752627D1*
X1092500Y751100D1*
X1073117Y752627D1*
X1054213Y757163D1*
X1036250Y764603D1*
X1019673Y774763D1*
X1004890Y787390D1*
X992263Y802173D1*
X982103Y818750D1*
X974663Y836713D1*
X970127Y855617D1*
X968600Y875000D1*
X970133Y894420D1*
X-359983Y894383D1*
X-351023Y885387D1*
X-343283Y874733D1*
X-338870Y866393D1*
X-103400Y866400D1*
X-91953Y868500D1*
X101147Y868477D1*
X113600Y866400D1*
X268900D1*
Y766390D1*
X294790Y766197D1*
X305080Y764567D1*
X314990Y761347D1*
X324273Y756617D1*
X332703Y750490D1*
X360090Y723397D1*
X366857Y715473D1*
X372300Y706590D1*
X376287Y696963D1*
X378720Y686830D1*
X379537Y676443D1*
Y666667D1*
X-623067Y-27527D2*
Y-197517D1*
X-801033D1*
X-671873Y-326673D1*
X-25357Y-326853D1*
X-13900Y-328667D1*
X-2873Y-332253D1*
X7460Y-337517D1*
X16840Y-344333D1*
X82973Y-410143D1*
X133390Y-460883D1*
X140207Y-470263D1*
X145473Y-480597D1*
X149057Y-491623D1*
X150870Y-503080D1*
X151097Y-596377D1*
X151100Y-621100D1*
X213900D1*
Y-878900D1*
X-213900D1*
Y-844380D1*
X-474680Y-844410D1*
X-474693Y-879410D1*
X-862493D1*
Y-671610D1*
X-818947D1*
X-818917Y-521673D1*
X-992713Y-347903D1*
X-1320123Y-347900D1*
X-1326673Y-357703D1*
X-1340320Y-373680D1*
X-1356297Y-387327D1*
X-1374210Y-398307D1*
X-1390733Y-405280D1*
X-1379760Y-409293D1*
X-1361037Y-418830D1*
X-1344040Y-431180D1*
X-1329180Y-446040D1*
X-1316830Y-463037D1*
X-1307293Y-481760D1*
X-1300800Y-501740D1*
X-1297513Y-522493D1*
Y-543507D1*
X-1300800Y-564260D1*
X-1307293Y-584240D1*
X-1316830Y-602963D1*
X-1329180Y-619960D1*
X-1344040Y-634820D1*
X-1361037Y-647170D1*
X-1379760Y-656707D1*
X-1399740Y-663200D1*
X-1420493Y-666487D1*
X-1441507D1*
X-1462260Y-663200D1*
X-1482240Y-656707D1*
X-1500963Y-647170D1*
X-1512123Y-639420D1*
X-1512313Y-998217D1*
X-1492903Y-1074953D1*
X-1446127Y-1126950D1*
X-1398727Y-1153660D1*
X-1354440Y-1161483D1*
X1336413Y-1163297D1*
X1406143Y-1148100D1*
X1456483Y-1116850D1*
X1489180Y-1076393D1*
X1505833Y-1033430D1*
X1513740Y-996520D1*
X1513753Y-644060D1*
X1499790Y-652307D1*
X1480377Y-660347D1*
X1459947Y-665250D1*
X1439000Y-666900D1*
X1418053Y-665250D1*
X1397623Y-660347D1*
X1378210Y-652307D1*
X1360297Y-641327D1*
X1344320Y-627680D1*
X1330673Y-611703D1*
X1319693Y-593790D1*
X1311653Y-574377D1*
X1306750Y-553947D1*
X1305100Y-533000D1*
X1306750Y-512053D1*
X1311653Y-491623D1*
X1319693Y-472210D1*
X1330673Y-454297D1*
X1344320Y-438320D1*
X1360297Y-424673D1*
X1378210Y-413693D1*
X1394733Y-406720D1*
X1383760Y-402707D1*
X1365037Y-393170D1*
X1348040Y-380820D1*
X1333180Y-365960D1*
X1320830Y-348963D1*
X1318843Y-345417D1*
X1022193Y-345197D1*
X1011903Y-343567D1*
X1001993Y-340347D1*
X992710Y-335617D1*
X984280Y-329490D1*
X906207Y-251707D1*
X376960Y277540D1*
X254373Y277580D1*
X262833Y271013D1*
X276580Y257267D1*
X288010Y241537D1*
X296837Y224213D1*
X302843Y205723D1*
X305883Y186520D1*
Y167080D1*
X302843Y147877D1*
X296837Y129387D1*
X288010Y112063D1*
X276580Y96333D1*
X262833Y82587D1*
X247103Y71157D1*
X229780Y62330D1*
X211290Y56323D1*
X192087Y53283D1*
X172647D1*
X164307Y54270D1*
X49767Y-59987D1*
X40387Y-66803D1*
X30053Y-72067D1*
X19027Y-75653D1*
X7570Y-77467D1*
X-85727Y-77693D1*
X-107943D1*
X-96307Y-87663D1*
X-86807Y-97937D1*
X-78523Y-109213D1*
X-71567Y-121353D1*
X-66020Y-134200D1*
X-61960Y-147590D1*
X-59433Y-161353D1*
X-58467Y-176800D1*
X-59257Y-190770D1*
X-61617Y-204563D1*
X-65517Y-218000D1*
X-70907Y-230913D1*
X-77720Y-243137D1*
X-85867Y-254510D1*
X-95243Y-264897D1*
X-105733Y-274157D1*
X-117200Y-282177D1*
X-129497Y-288853D1*
X-142470Y-294100D1*
X-155950Y-297850D1*
X-169767Y-300057D1*
X-183743Y-300693D1*
X-197707Y-299747D1*
X-211470Y-297233D1*
X-224863Y-293183D1*
X-237717Y-287650D1*
X-249863Y-280703D1*
X-261147Y-272430D1*
X-271427Y-262937D1*
X-280570Y-252347D1*
X-288463Y-240790D1*
X-295000Y-228420D1*
X-300103Y-215390D1*
X-303703Y-201870D1*
X-305757Y-188027D1*
X-306237Y-174043D1*
X-305137Y-160093D1*
X-302470Y-146357D1*
X-298270Y-133010D1*
X-292593Y-120220D1*
X-285510Y-108153D1*
X-277113Y-96960D1*
X-267507Y-86787D1*
X-256717Y-77690D1*
X-281353Y-77467D1*
X-292807Y-75653D1*
X-303837Y-72067D1*
X-314170Y-66803D1*
X-323550Y-59987D1*
X-389683Y5823D1*
X-391377Y7513D1*
X-623027Y7483D1*
X-623133Y-27517D1*
X-830867Y-167670D2*
Y174347D1*
X-867607Y211140D1*
X-882413Y211100D1*
X-882393Y-116200D1*
X-830903Y-167643D1*
X-196400Y-621100D2*
X3277D1*
X3297Y-539490D1*
X-61727Y-474463D1*
X-683780Y-474427D1*
X-681963Y-482380D1*
X-681117Y-493160D1*
Y-671647D1*
X-474693Y-671610D1*
Y-706543D1*
X-213837Y-706610D1*
X-213900Y-621100D1*
X-196400D1*
X-1319457Y211110D2*
X-1329180Y198040D1*
X-1344040Y183180D1*
X-1361037Y170830D1*
X-1379760Y161293D1*
X-1399740Y154800D1*
X-1420493Y151513D1*
X-1441507D1*
X-1462260Y154800D1*
X-1482240Y161293D1*
X-1500963Y170830D1*
X-1511737Y178273D1*
X-1511900Y-169387D1*
X-1495790Y-159693D1*
X-1476377Y-151653D1*
X-1455947Y-146750D1*
X-1435000Y-145100D1*
X-1414053Y-146750D1*
X-1393623Y-151653D1*
X-1374210Y-159693D1*
X-1356297Y-170673D1*
X-1340320Y-184320D1*
X-1326673Y-200297D1*
X-1320250Y-210077D1*
X-997430Y-210100D1*
X-1012487Y-194757D1*
X-1019303Y-185377D1*
X-1024567Y-175043D1*
X-1028153Y-164017D1*
X-1029967Y-152560D1*
X-1030193Y-59263D1*
Y211097D1*
X-1319350Y211100D1*
X-1511607Y391827D2*
X-1500963Y399170D1*
X-1482240Y408707D1*
X-1475267Y411280D1*
X-1489080Y416507D1*
X-1501570Y422820D1*
X-1511597Y429183D1*
X-1511620Y391843D1*
X-1390690Y412647D2*
X-1379760Y408707D1*
X-1361037Y399170D1*
X-1344040Y386820D1*
X-1329180Y371960D1*
X-1319457Y358890D1*
X-1030210Y358900D1*
X-1030193Y767960D1*
X-1045087Y760530D1*
X-1063577Y754523D1*
X-1082780Y751483D1*
X-1102220D1*
X-1121423Y754523D1*
X-1139913Y760530D1*
X-1157237Y769357D1*
X-1172967Y780787D1*
X-1186713Y794533D1*
X-1198143Y810263D1*
X-1206970Y827587D1*
X-1212977Y846077D1*
X-1216017Y865280D1*
Y884720D1*
X-1214880Y894343D1*
X-1511370Y894353D1*
X-1511490Y648877D1*
X-1499667Y656250D1*
X-1487077Y662357D1*
X-1473920Y667120D1*
X-1460337Y670480D1*
X-1446473Y672407D1*
X-1432490Y672877D1*
X-1418530Y671883D1*
X-1404753Y669440D1*
X-1391303Y665570D1*
X-1378333Y660317D1*
X-1365980Y653740D1*
X-1354383Y645913D1*
X-1343667Y636913D1*
X-1333947Y626847D1*
X-1325330Y615820D1*
X-1317910Y603957D1*
X-1311770Y591380D1*
X-1306977Y578233D1*
X-1303580Y564660D1*
X-1301620Y550803D1*
X-1301147Y535500D1*
X-1302243Y521550D1*
X-1304787Y507790D1*
X-1308757Y494370D1*
X-1314103Y481440D1*
X-1320770Y469137D1*
X-1328687Y457597D1*
X-1337763Y446943D1*
X-1347900Y437300D1*
X-1358990Y428763D1*
X-1370910Y421433D1*
X-1383530Y415387D1*
X-1390643Y412667D1*
X-1512060Y-426530D2*
X-1500963Y-418830D1*
X-1482240Y-409293D1*
X-1475267Y-406720D1*
X-1486240Y-402707D1*
X-1504963Y-393170D1*
X-1512030Y-388447D1*
X-1512027Y-426417D1*
X1479310Y-405353D2*
X1490240Y-409293D1*
X1508963Y-418830D1*
X1513777Y-422050D1*
X1513703Y-387327D1*
X1495790Y-398307D1*
X1479267Y-405280D1*
X1216017Y-884720D2*
X1212977Y-903923D1*
X1206970Y-922413D1*
X1198143Y-939737D1*
X1186713Y-955467D1*
X1172967Y-969213D1*
X1157237Y-980643D1*
X1139913Y-989470D1*
X1121423Y-995477D1*
X1102220Y-998517D1*
X1082780D1*
X1063577Y-995477D1*
X1045087Y-989470D1*
X1027763Y-980643D1*
X1012033Y-969213D1*
X998287Y-955467D1*
X986857Y-939737D1*
X978030Y-922413D1*
X972023Y-903923D1*
X968983Y-884720D1*
Y-865280D1*
X972023Y-846077D1*
X978030Y-827587D1*
X986857Y-810263D1*
X998287Y-794533D1*
X1012033Y-780787D1*
X1027763Y-769357D1*
X1045087Y-760530D1*
X1063577Y-754523D1*
X1082780Y-751483D1*
X1102220D1*
X1121423Y-754523D1*
X1139913Y-760530D1*
X1157237Y-769357D1*
X1172967Y-780787D1*
X1186713Y-794533D1*
X1198143Y-810263D1*
X1206970Y-827587D1*
X1212977Y-846077D1*
X1216017Y-865280D1*
Y-884720D1*
X-968983D2*
X-972023Y-903923D1*
X-978030Y-922413D1*
X-986857Y-939737D1*
X-998287Y-955467D1*
X-1012033Y-969213D1*
X-1027763Y-980643D1*
X-1045087Y-989470D1*
X-1063577Y-995477D1*
X-1082780Y-998517D1*
X-1102220D1*
X-1121423Y-995477D1*
X-1139913Y-989470D1*
X-1157237Y-980643D1*
X-1172967Y-969213D1*
X-1186713Y-955467D1*
X-1198143Y-939737D1*
X-1206970Y-922413D1*
X-1212977Y-903923D1*
X-1216017Y-884720D1*
Y-865280D1*
X-1212977Y-846077D1*
X-1206970Y-827587D1*
X-1198143Y-810263D1*
X-1186713Y-794533D1*
X-1172967Y-780787D1*
X-1157237Y-769357D1*
X-1139913Y-760530D1*
X-1121423Y-754523D1*
X-1102220Y-751483D1*
X-1082780D1*
X-1063577Y-754523D1*
X-1045087Y-760530D1*
X-1027763Y-769357D1*
X-1012033Y-780787D1*
X-998287Y-794533D1*
X-986857Y-810263D1*
X-978030Y-827587D1*
X-972023Y-846077D1*
X-968983Y-865280D1*
Y-884720D1*
X59837Y158740D2*
X58467Y176800D1*
X59993Y196183D1*
X64530Y215087D1*
X71970Y233050D1*
X82130Y249627D1*
X94757Y264410D1*
X109540Y277037D1*
X110330Y277567D1*
X12383Y277580D1*
X-55870Y209393D1*
X-53283Y192087D1*
Y172647D1*
X-56323Y153443D1*
X-62330Y134953D1*
X-71157Y117630D1*
X-82587Y101900D1*
X-96333Y88153D1*
X-112063Y76723D1*
X-124590Y70110D1*
X-28847Y70107D1*
X59777Y158720D1*
X-798300Y737173D2*
D43*
Y633340D1*
X488770Y666567D2*
Y458903D1*
Y562737D2*
X597603D1*
X-726967Y-88617D2*
Y-197450D1*
X-830797Y-88617D2*
X-623133D1*
X-1435000Y672830D2*
Y539000D1*
X-1301170D1*
X165000Y866330D2*
Y800000D1*
X268833D1*
X-182367Y-176800D2*
Y-300630D1*
X-306197Y-176800D2*
X-58537D1*
D19*
X-798300Y737173D3*
X-628300D3*
X318770Y562737D3*
X488770D3*
D20*
X-726967Y-88617D3*
Y81383D3*
D21*
X-95000Y-750000D3*
X95000D3*
D22*
X-1431000Y285000D3*
D23*
X-1435000Y539000D3*
D22*
X-1431000Y-533000D3*
D23*
X-1435000Y-279000D3*
D22*
X1439000Y-533000D3*
D23*
X1435000Y-279000D3*
D19*
X-800627Y916243D3*
X-630627D3*
D24*
X165000Y750000D3*
X-165000D3*
Y700000D3*
Y800000D3*
X165000Y700000D3*
Y800000D3*
D26*
X182367Y176800D3*
X-182367Y-176800D3*
X-176800Y182367D3*
D19*
X-753593Y-775510D3*
X-583593D3*
M02*
