G04 DipTrace 3.2.0.1*
G04 Нижний.gbr*
%MOIN*%
G04 #@! TF.FileFunction,Copper,L2,Bot*
G04 #@! TF.Part,Single*
%ADD16C,0.011811*%
%ADD18C,0.015748*%
%ADD42C,0.035433*%
G04 #@! TA.AperFunction,CopperBalancing*
%ADD10C,0.009843*%
G04 #@! TA.AperFunction,Conductor*
%ADD15C,0.011024*%
%ADD17C,0.019685*%
G04 #@! TA.AperFunction,ViaPad*
%ADD19C,0.023622*%
G04 #@! TA.AperFunction,CopperBalancing*
%ADD20C,0.01378*%
%ADD22R,0.043307X0.03937*%
G04 #@! TA.AperFunction,ComponentPad*
%ADD24C,0.062992*%
%ADD25C,0.062992*%
%ADD29R,0.011024X0.033465*%
%ADD30R,0.011024X0.029528*%
%ADD33R,0.059055X0.051181*%
%ADD34R,0.03937X0.043307*%
%ADD39R,0.041339X0.025591*%
G04 #@! TA.AperFunction,ViaPad*
%ADD40C,0.031496*%
%FSLAX26Y26*%
G04*
G70*
G90*
G75*
G01*
G04 Bottom*
%LPD*%
X229570Y-244776D2*
D15*
Y-250512D1*
D10*
Y-305900D1*
D16*
X242773Y-319104D1*
X250638D1*
X257142D1*
D10*
X268940Y-307306D1*
Y-244776D1*
X333812Y-393696D2*
D16*
Y-400598D1*
D17*
X250638D1*
D18*
Y-319104D1*
X333812Y-393696D2*
D17*
Y-403144D1*
X458050D1*
X478840Y-382354D1*
Y-291299D1*
X438020Y-250479D1*
X427260D1*
Y-244016D1*
X250638Y-400598D2*
X162123D1*
Y-352257D1*
X165079D1*
X-564961Y212205D2*
D19*
X-212329D1*
D18*
Y293294D1*
X-191472Y314151D1*
X9033D1*
X98030Y225154D1*
X337609D1*
X-212329Y212205D2*
D17*
X-169399Y169274D1*
Y-14699D1*
X19428D1*
X84337Y-79609D1*
Y-175202D1*
X-169399Y-14699D2*
Y-401448D1*
X-134757Y-436088D1*
X129870D1*
X162123Y-403835D1*
Y-400598D1*
X4941Y-227018D2*
D16*
X97873D1*
X122430Y-202461D1*
Y-94541D1*
X234442Y17471D1*
X428017D1*
X4941Y-227018D2*
X7878D1*
Y-164379D1*
X8663Y-163594D1*
X249255Y-199500D2*
D15*
Y-178831D1*
D10*
Y-129098D1*
X268350Y-110003D1*
X270908D1*
X268940Y-199500D2*
Y-166846D1*
X273043Y-162743D1*
X337104D1*
X352961Y-178600D1*
X427260Y-177087D2*
D16*
X354474D1*
X352961Y-178600D1*
X-98573Y-174932D2*
D18*
Y-251458D1*
D16*
X-85610Y-264420D1*
X-100223Y-319059D2*
D18*
X-94776D1*
Y-273585D1*
D16*
X-85610Y-264420D1*
X-98573Y-174932D2*
X-69604D1*
X-58266Y-163594D1*
X229570Y-201469D2*
D15*
Y-178831D1*
D10*
Y-160811D1*
D16*
X223197Y-154438D1*
X177675D1*
D18*
X165079Y-167034D1*
Y-277454D1*
Y-288016D1*
X57331D1*
X43524Y-301822D1*
X4941D1*
X15829Y-372402D2*
Y-312710D1*
D16*
X4941Y-301822D1*
X15829Y-372402D2*
D18*
Y-378222D1*
X-92457D1*
D16*
X-100223Y-385988D1*
X392169Y-305487D2*
D17*
X359991D1*
D16*
X346585Y-318892D1*
X333812D1*
X342127D1*
Y-256362D1*
X352961Y-245529D1*
X82950Y-334875D2*
D18*
X82759Y-372402D1*
X566535Y-209843D2*
D16*
X564804D1*
X488923Y-133961D1*
Y49707D1*
X347951Y190678D1*
X73463D1*
X1749Y262392D1*
X-110762D1*
X-234647Y175890D2*
Y118896D1*
X-563386Y-209843D1*
D40*
X392169Y-305487D3*
D19*
X-110762Y262392D3*
X337609Y225154D3*
X-234647Y175890D3*
X-582272Y337797D3*
X-551572Y337874D3*
X-582665Y306547D3*
X584874Y340469D3*
X586455Y311564D3*
X553772Y340247D3*
X565799Y-425961D3*
X582634Y-392744D3*
X532584Y-440975D3*
D40*
X270908Y-110003D3*
D19*
X84337Y-175202D3*
X-98573Y-174932D3*
X428017Y17471D3*
X82950Y-334875D3*
X-595543Y343867D2*
D20*
X-480259D1*
X-379970D2*
X379966D1*
X480282D2*
X593172D1*
X-595543Y330219D2*
X-478133D1*
X-382096D2*
X382092D1*
X478129D2*
X593172D1*
X-595517Y316571D2*
X-471484D1*
X-388743D2*
X388740D1*
X471509D2*
X593199D1*
X-595490Y302923D2*
X-457033D1*
X-403222D2*
X403219D1*
X457029D2*
X593199D1*
X-595463Y289274D2*
X-131329D1*
X6745D2*
X593226D1*
X-595436Y275626D2*
X-142417D1*
X28249D2*
X593226D1*
X-595436Y261978D2*
X-583713D1*
X-546211D2*
X-145163D1*
X41894D2*
X593253D1*
X-525193Y248329D2*
X-142041D1*
X55539D2*
X593253D1*
X-515908Y234681D2*
X-130118D1*
X-91407D2*
X-10274D1*
X69211D2*
X593280D1*
X-511601Y221033D2*
X3370D1*
X82856D2*
X593280D1*
X-511091Y207385D2*
X-245979D1*
X-223308D2*
X17016D1*
X370988D2*
X593307D1*
X-514213Y193736D2*
X-263823D1*
X-205465D2*
X30660D1*
X384633D2*
X593307D1*
X-521774Y180088D2*
X-268802D1*
X-200513D2*
X44306D1*
X398278D2*
X593333D1*
X-537411Y166440D2*
X-267672D1*
X-201615D2*
X59915D1*
X411923D2*
X593333D1*
X-528369Y152791D2*
X-263150D1*
X-206138D2*
X346109D1*
X425568D2*
X529953D1*
X-516688Y139143D2*
X-263150D1*
X-206138D2*
X359755D1*
X439240D2*
X518273D1*
X-510983Y125495D2*
X-267780D1*
X-206138D2*
X373399D1*
X452885D2*
X512567D1*
X-509287Y111846D2*
X-281424D1*
X-207079D2*
X387045D1*
X466530D2*
X510871D1*
X-511198Y98198D2*
X-295096D1*
X-215610D2*
X400689D1*
X480175D2*
X512756D1*
X-517118Y84550D2*
X-308741D1*
X-229256D2*
X414335D1*
X493819D2*
X518703D1*
X-529256Y70902D2*
X-322386D1*
X-242900D2*
X427979D1*
X507465D2*
X530815D1*
X-595087Y57253D2*
X-336031D1*
X-256546D2*
X441625D1*
X516346D2*
X593441D1*
X-595087Y43605D2*
X-349676D1*
X-270190D2*
X225807D1*
X449601D2*
X455287D1*
X517423D2*
X593469D1*
X-595059Y29957D2*
X-363322D1*
X-283836D2*
X207184D1*
X517423D2*
X593469D1*
X-595033Y16308D2*
X-376966D1*
X-297508D2*
X193539D1*
X517423D2*
X593495D1*
X-595005Y2660D2*
X-390610D1*
X-311152D2*
X179894D1*
X517423D2*
X593522D1*
X-594979Y-10988D2*
X-404282D1*
X-324798D2*
X166249D1*
X245734D2*
X409866D1*
X446156D2*
X460409D1*
X517423D2*
X593522D1*
X-594951Y-24636D2*
X-417928D1*
X-338442D2*
X152604D1*
X232063D2*
X460409D1*
X517423D2*
X593549D1*
X-594951Y-38285D2*
X-431572D1*
X-352088D2*
X138959D1*
X218417D2*
X460409D1*
X517423D2*
X593549D1*
X-594925Y-51933D2*
X-445218D1*
X-365732D2*
X125287D1*
X204773D2*
X460409D1*
X517423D2*
X593576D1*
X-534936Y-65581D2*
X-458862D1*
X-379377D2*
X111642D1*
X191127D2*
X460409D1*
X517423D2*
X534959D1*
X-520672Y-79230D2*
X-472508D1*
X-393022D2*
X98671D1*
X177483D2*
X249034D1*
X292778D2*
X460409D1*
X-513673Y-92878D2*
X-486152D1*
X-406694D2*
X93987D1*
X163837D2*
X236761D1*
X305051D2*
X460409D1*
X-510983Y-106526D2*
X-499798D1*
X-420339D2*
X93933D1*
X150946D2*
X232724D1*
X309088D2*
X460409D1*
X-433984Y-120175D2*
X93933D1*
X150946D2*
X223304D1*
X307823D2*
X460409D1*
X-447629Y-133823D2*
X-102505D1*
X52902D2*
X93933D1*
X150946D2*
X155745D1*
X300556D2*
X460409D1*
X-461274Y-147471D2*
X-118303D1*
X52902D2*
X93933D1*
X-594736Y-161119D2*
X-584888D1*
X-474919D2*
X-129957D1*
X52902D2*
X93933D1*
X469543D2*
X476331D1*
X588042D2*
X593684D1*
X-488564Y-174768D2*
X-132971D1*
X52902D2*
X93933D1*
X469543D2*
X489987D1*
X-502209Y-188416D2*
X-130092D1*
X52902D2*
X93933D1*
X195541D2*
X201451D1*
X469543D2*
X503633D1*
X-509879Y-202064D2*
X-129042D1*
X195541D2*
X201451D1*
X297058D2*
X310665D1*
X469543D2*
X513025D1*
X-509610Y-215713D2*
X-129042D1*
X-68100D2*
X-38318D1*
X195541D2*
X201451D1*
X297058D2*
X310665D1*
X469543D2*
X512756D1*
X-513028Y-229361D2*
X-129042D1*
X-68100D2*
X-38318D1*
X195541D2*
X201451D1*
X297058D2*
X310665D1*
X469543D2*
X516201D1*
X-521021Y-243009D2*
X-129042D1*
X297058D2*
X310665D1*
X469543D2*
X524194D1*
X-594601Y-256657D2*
X-588984D1*
X-537761D2*
X-128881D1*
X48219D2*
X112961D1*
X297058D2*
X310665D1*
X469543D2*
X540933D1*
X-594575Y-270306D2*
X-128881D1*
X297058D2*
X310665D1*
X469543D2*
X593791D1*
X-594547Y-283954D2*
X-142499D1*
X217206D2*
X281680D1*
X469543D2*
X593791D1*
X-594521Y-297602D2*
X-444949D1*
X-415280D2*
X-142499D1*
X217206D2*
X281680D1*
X444945D2*
X593818D1*
X-594493Y-311251D2*
X-467206D1*
X-393049D2*
X-142499D1*
X-57927D2*
X-38318D1*
X217206D2*
X281680D1*
X467202D2*
X593845D1*
X-594493Y-324899D2*
X-476168D1*
X-384060D2*
X-142499D1*
X-57927D2*
X-38318D1*
X217206D2*
X281680D1*
X476164D2*
X593845D1*
X-594467Y-338547D2*
X-479908D1*
X-380319D2*
X-142499D1*
X-57927D2*
X-28413D1*
X217206D2*
X281680D1*
X479906D2*
X593871D1*
X-594440Y-352196D2*
X-479667D1*
X-380562D2*
X-142499D1*
X217206D2*
X281680D1*
X479663D2*
X593871D1*
X-594413Y-365844D2*
X-475361D1*
X-384895D2*
X-142499D1*
X217206D2*
X281680D1*
X475357D2*
X593899D1*
X-594386Y-379492D2*
X-465457D1*
X-394772D2*
X-142499D1*
X217206D2*
X281680D1*
X385951D2*
X394769D1*
X465480D2*
X593899D1*
X-594386Y-393140D2*
X-435017D1*
X-425205D2*
X-142499D1*
X217206D2*
X281680D1*
X385951D2*
X425207D1*
X435033D2*
X593656D1*
X-591427Y-406789D2*
X-142499D1*
X127021D2*
X281680D1*
X385951D2*
X591584D1*
X-586932Y-420437D2*
X-142499D1*
X-57927D2*
X281680D1*
X385951D2*
X587251D1*
X-576354Y-434085D2*
X281680D1*
X385951D2*
X577643D1*
X-560799Y-447734D2*
X561226D1*
X424094Y-286894D2*
X426324Y-291340D1*
X427806Y-295755D1*
X433945Y-295860D1*
X441505Y-297056D1*
X448785Y-299421D1*
X455605Y-302896D1*
X461798Y-307396D1*
X467210Y-312808D1*
X471710Y-319001D1*
X475185Y-325822D1*
X477550Y-333101D1*
X478747Y-340661D1*
Y-348315D1*
X477550Y-355875D1*
X475185Y-363155D1*
X471710Y-369975D1*
X467210Y-376168D1*
X461798Y-381580D1*
X455605Y-386080D1*
X448785Y-389555D1*
X441505Y-391920D1*
X433945Y-393117D1*
X426291D1*
X418731Y-391920D1*
X411451Y-389555D1*
X404631Y-386080D1*
X398438Y-381580D1*
X393026Y-376168D1*
X388526Y-369975D1*
X385051Y-363155D1*
X384560Y-361822D1*
Y-440507D1*
X283064D1*
Y-280739D1*
X215829Y-280760D1*
X215827Y-399068D1*
X125630D1*
X125633Y-413307D1*
X-27045D1*
Y-407306D1*
X-59339Y-407316D1*
X-59318Y-428862D1*
X-141129D1*
Y-276185D1*
X-127484D1*
X-127668Y-251458D1*
Y-190552D1*
X-129988Y-185139D1*
X-131198Y-180100D1*
X-131605Y-174932D1*
X-131198Y-169765D1*
X-129988Y-164724D1*
X-128004Y-159936D1*
X-125297Y-155517D1*
X-121930Y-151575D1*
X-117988Y-148209D1*
X-113570Y-145501D1*
X-108781Y-143517D1*
X-103740Y-142307D1*
X-101134Y-142001D1*
X-101140Y-122689D1*
X51537D1*
Y-199912D1*
X86622Y-199892D1*
X95306Y-191223D1*
X95388Y-92412D1*
X96054Y-88209D1*
X97369Y-84160D1*
X99302Y-80367D1*
X101803Y-76924D1*
X127609Y-51001D1*
X216825Y38098D1*
X220269Y40600D1*
X224062Y42533D1*
X228110Y43848D1*
X232314Y44513D1*
X268891Y44597D1*
X409189D1*
X413021Y46903D1*
X417810Y48886D1*
X422850Y50096D1*
X428017Y50503D1*
X433184Y50096D1*
X438224Y48886D1*
X443013Y46903D1*
X447433Y44194D1*
X451374Y40828D1*
X454740Y36887D1*
X457449Y32467D1*
X459432Y27678D1*
X460642Y22638D1*
X461049Y17471D1*
X460642Y12304D1*
X459432Y7264D1*
X457449Y2475D1*
X454740Y-1945D1*
X451374Y-5886D1*
X447433Y-9252D1*
X443013Y-11961D1*
X438224Y-13944D1*
X433184Y-15154D1*
X428017Y-15560D1*
X422850Y-15154D1*
X417810Y-13944D1*
X413021Y-11961D1*
X409199Y-9651D1*
X245681Y-9655D1*
X149546Y-105787D1*
X149556Y-141396D1*
X158780Y-132315D1*
X162472Y-129631D1*
X166541Y-127559D1*
X170883Y-126147D1*
X175392Y-125433D1*
X179957D1*
X184466Y-126147D1*
X188147Y-127315D1*
X223181Y-127312D1*
X223835Y-122996D1*
X225102Y-119094D1*
X226965Y-115440D1*
X229377Y-112121D1*
X234024Y-107360D1*
X234961Y-101373D1*
X236753Y-95856D1*
X239387Y-90686D1*
X242797Y-85993D1*
X246899Y-81891D1*
X251592Y-78482D1*
X256761Y-75848D1*
X262278Y-74055D1*
X268008Y-73148D1*
X273808D1*
X279538Y-74055D1*
X285055Y-75848D1*
X290224Y-78482D1*
X294917Y-81891D1*
X299020Y-85993D1*
X302429Y-90686D1*
X305063Y-95856D1*
X306856Y-101373D1*
X307762Y-107102D1*
Y-112903D1*
X306856Y-118633D1*
X305063Y-124150D1*
X302429Y-129319D1*
X299020Y-134012D1*
X296558Y-136597D1*
X312041Y-136601D1*
X312055Y-135726D1*
X386362D1*
X386354Y-134213D1*
X461793D1*
X461797Y38472D1*
X336699Y163568D1*
X71335Y163636D1*
X67131Y164302D1*
X63083Y165617D1*
X59290Y167550D1*
X55846Y170051D1*
X29923Y195857D1*
X-9490Y235269D1*
X-91936Y235266D1*
X-95766Y232961D1*
X-100555Y230978D1*
X-105596Y229768D1*
X-110762Y229361D1*
X-115929Y229768D1*
X-120970Y230978D1*
X-125759Y232961D1*
X-130178Y235669D1*
X-134119Y239035D1*
X-137486Y242976D1*
X-140194Y247396D1*
X-142177Y252185D1*
X-143387Y257226D1*
X-143794Y262392D1*
X-143387Y267559D1*
X-142177Y272600D1*
X-140194Y277388D1*
X-137486Y281808D1*
X-134119Y285749D1*
X-130178Y289115D1*
X-125759Y291824D1*
X-120970Y293807D1*
X-115929Y295017D1*
X-110762Y295424D1*
X-105596Y295017D1*
X-100555Y293807D1*
X-95766Y291824D1*
X-91945Y289514D1*
X3878Y289434D1*
X8081Y288769D1*
X12130Y287454D1*
X15923Y285521D1*
X19366Y283020D1*
X45290Y257214D1*
X84702Y217802D1*
X350080Y217720D1*
X354283Y217055D1*
X358332Y215740D1*
X362125Y213807D1*
X365568Y211306D1*
X391491Y185500D1*
X509550Y67324D1*
X512051Y63881D1*
X513984Y60088D1*
X515299Y56039D1*
X515965Y51836D1*
X516049Y15259D1*
Y-90160D1*
X517990Y-85909D1*
X522312Y-78857D1*
X527685Y-72567D1*
X533975Y-67194D1*
X541028Y-62871D1*
X548671Y-59706D1*
X556714Y-57776D1*
X564961Y-57126D1*
X573207Y-57776D1*
X581251Y-59706D1*
X588894Y-62871D1*
X594965Y-66538D1*
X594819Y68735D1*
X588894Y65234D1*
X581251Y62068D1*
X573207Y60138D1*
X564961Y59488D1*
X556714Y60138D1*
X548671Y62068D1*
X541028Y65234D1*
X533975Y69556D1*
X527685Y74929D1*
X522312Y81219D1*
X517990Y88272D1*
X514824Y95915D1*
X512894Y103958D1*
X512244Y112205D1*
X512894Y120451D1*
X514824Y128495D1*
X517990Y136138D1*
X522312Y143190D1*
X527685Y149480D1*
X533975Y154853D1*
X541028Y159176D1*
X548671Y162341D1*
X556714Y164272D1*
X564961Y164921D1*
X573207Y164272D1*
X581251Y162341D1*
X588894Y159176D1*
X594723Y155671D1*
X594522Y357512D1*
X477156Y357367D1*
X478297Y352119D1*
X478898Y344488D1*
X478297Y336857D1*
X476510Y329415D1*
X473581Y322343D1*
X469581Y315816D1*
X464610Y309996D1*
X458790Y305025D1*
X452264Y301025D1*
X445192Y298096D1*
X437749Y296310D1*
X430118Y295709D1*
X422487Y296310D1*
X415045Y298096D1*
X407972Y301025D1*
X401446Y305025D1*
X395626Y309996D1*
X390655Y315816D1*
X386655Y322343D1*
X383726Y329415D1*
X381940Y336857D1*
X381339Y344488D1*
X381940Y352119D1*
X383072Y357244D1*
X-382825Y356339D1*
X-381940Y352119D1*
X-381339Y344488D1*
X-381940Y336857D1*
X-383726Y329415D1*
X-386655Y322343D1*
X-390655Y315816D1*
X-395626Y309996D1*
X-401446Y305025D1*
X-407972Y301025D1*
X-415045Y298096D1*
X-422487Y296310D1*
X-430118Y295709D1*
X-437749Y296310D1*
X-445192Y298096D1*
X-452264Y301025D1*
X-458790Y305025D1*
X-464610Y309996D1*
X-469581Y315816D1*
X-473581Y322343D1*
X-476510Y329415D1*
X-478297Y336857D1*
X-478898Y344488D1*
X-478297Y352119D1*
X-477449Y356235D1*
X-596946Y356083D1*
X-596789Y254219D1*
X-591618Y257685D1*
X-586726Y260218D1*
X-581596Y262227D1*
X-576285Y263690D1*
X-570849Y264592D1*
X-565350Y264920D1*
X-559846Y264673D1*
X-554399Y263852D1*
X-549066Y262469D1*
X-543907Y260534D1*
X-538978Y258073D1*
X-534332Y255112D1*
X-530022Y251680D1*
X-526093Y247819D1*
X-522588Y243567D1*
X-519546Y238974D1*
X-517001Y234088D1*
X-514979Y228963D1*
X-513503Y223655D1*
X-512589Y218223D1*
X-512244Y212205D1*
X-512531Y206703D1*
X-513392Y201261D1*
X-514816Y195940D1*
X-516787Y190794D1*
X-519285Y185885D1*
X-522282Y181261D1*
X-525744Y176975D1*
X-529635Y173075D1*
X-533912Y169602D1*
X-538528Y166594D1*
X-543432Y164084D1*
X-547497Y162467D1*
X-543213Y160908D1*
X-535841Y157154D1*
X-529150Y152291D1*
X-523299Y146441D1*
X-518437Y139749D1*
X-514682Y132378D1*
X-512126Y124512D1*
X-510832Y116341D1*
Y108068D1*
X-512126Y99898D1*
X-514682Y92031D1*
X-518437Y84660D1*
X-523299Y77969D1*
X-529150Y72118D1*
X-535841Y67256D1*
X-543213Y63501D1*
X-551079Y60945D1*
X-559249Y59651D1*
X-567522D1*
X-575693Y60945D1*
X-583559Y63501D1*
X-590930Y67256D1*
X-596492Y71228D1*
X-596274Y-67446D1*
X-592505Y-64894D1*
X-585134Y-61139D1*
X-577268Y-58583D1*
X-569097Y-57289D1*
X-560824D1*
X-552654Y-58583D1*
X-544787Y-61139D1*
X-537416Y-64894D1*
X-530724Y-69756D1*
X-524874Y-75606D1*
X-520012Y-82298D1*
X-516257Y-89669D1*
X-513701Y-97535D1*
X-512407Y-105706D1*
Y-113979D1*
X-513615Y-121720D1*
X-261770Y130135D1*
X-261773Y157033D1*
X-264079Y160894D1*
X-266062Y165682D1*
X-267272Y170723D1*
X-267678Y175890D1*
X-267272Y181056D1*
X-266062Y186097D1*
X-264079Y190886D1*
X-261370Y195306D1*
X-258004Y199247D1*
X-254063Y202613D1*
X-249643Y205322D1*
X-244854Y207304D1*
X-239814Y208514D1*
X-234647Y208921D1*
X-229480Y208514D1*
X-224440Y207304D1*
X-219651Y205322D1*
X-215231Y202613D1*
X-211290Y199247D1*
X-207924Y195306D1*
X-205215Y190886D1*
X-203232Y186097D1*
X-202022Y181056D1*
X-201615Y175890D1*
X-202022Y170723D1*
X-203232Y165682D1*
X-205215Y160894D1*
X-207525Y157072D1*
X-207605Y116768D1*
X-208270Y112564D1*
X-209585Y108516D1*
X-211518Y104723D1*
X-214020Y101280D1*
X-239825Y75356D1*
X-512245Y-197064D1*
X-511319Y-201596D1*
X-510669Y-209843D1*
X-511319Y-218089D1*
X-513249Y-226133D1*
X-516415Y-233776D1*
X-520738Y-240828D1*
X-526110Y-247118D1*
X-532400Y-252491D1*
X-539453Y-256814D1*
X-547096Y-259979D1*
X-555139Y-261909D1*
X-563386Y-262559D1*
X-571633Y-261909D1*
X-579676Y-259979D1*
X-587319Y-256814D1*
X-594371Y-252491D1*
X-595984Y-251219D1*
X-595747Y-397854D1*
X-587508Y-422846D1*
X-568797Y-444385D1*
X-550630Y-453584D1*
X-533862Y-456995D1*
X526635Y-457214D1*
X558042Y-451010D1*
X576152Y-438066D1*
X588493Y-420862D1*
X593362Y-405521D1*
X595293Y-391251D1*
X595151Y-254115D1*
X590469Y-256814D1*
X582825Y-259979D1*
X574782Y-261909D1*
X566535Y-262559D1*
X558289Y-261909D1*
X550245Y-259979D1*
X542602Y-256814D1*
X535550Y-252491D1*
X529260Y-247118D1*
X523887Y-240828D1*
X519564Y-233776D1*
X516399Y-226133D1*
X514469Y-218089D1*
X513819Y-209843D1*
X514469Y-201596D1*
X515089Y-198471D1*
X468290Y-151571D1*
X468165Y-175551D1*
Y-286890D1*
X424119D1*
X-596619Y153081D2*
X-590930Y157154D1*
X-583559Y160908D1*
X-580814Y161921D1*
X-586252Y163979D1*
X-591169Y166465D1*
X-596651Y170081D1*
X-596627Y153134D1*
X-596112Y-168566D2*
X-590930Y-164894D1*
X-583559Y-161139D1*
X-580814Y-160126D1*
X-585134Y-158546D1*
X-592505Y-154791D1*
X-596136Y-152341D1*
X-596113Y-168531D1*
X582406Y-159588D2*
X586709Y-161139D1*
X594080Y-164894D1*
X595062Y-165550D1*
X595047Y-153138D1*
X588894Y-156814D1*
X582388Y-159559D1*
X-381490Y-348315D2*
X-382686Y-355875D1*
X-385051Y-363155D1*
X-388526Y-369975D1*
X-393026Y-376168D1*
X-398438Y-381580D1*
X-404631Y-386080D1*
X-411451Y-389555D1*
X-418731Y-391920D1*
X-426291Y-393117D1*
X-433945D1*
X-441505Y-391920D1*
X-448785Y-389555D1*
X-455605Y-386080D1*
X-461798Y-381580D1*
X-467210Y-376168D1*
X-471710Y-369975D1*
X-475185Y-363155D1*
X-477550Y-355875D1*
X-478747Y-348315D1*
Y-340661D1*
X-477550Y-333101D1*
X-475185Y-325822D1*
X-471710Y-319001D1*
X-467210Y-312808D1*
X-461798Y-307396D1*
X-455605Y-302896D1*
X-448785Y-299421D1*
X-441505Y-297056D1*
X-433945Y-295860D1*
X-426291D1*
X-418731Y-297056D1*
X-411451Y-299421D1*
X-404631Y-302896D1*
X-398438Y-307396D1*
X-393026Y-312808D1*
X-388526Y-319001D1*
X-385051Y-325822D1*
X-382686Y-333101D1*
X-381490Y-340661D1*
Y-348315D1*
X202837Y-230621D2*
Y-181580D1*
X194157Y-181564D1*
X194173Y-230630D1*
X202848Y-230643D1*
X295672Y-235484D2*
Y-272085D1*
X312050Y-272081D1*
X312055Y-188882D1*
X295684Y-188885D1*
X295646Y-235484D1*
X114331Y-324567D2*
Y-317108D1*
X111114Y-317617D1*
X113467Y-322235D1*
X114333Y-324583D1*
X132605Y-230643D2*
X135996D1*
X135984Y-227261D1*
X114331Y-258948D2*
Y-248559D1*
X110188Y-251188D1*
X106255Y-252816D1*
X102117Y-253811D1*
X97865Y-254144D1*
X46819D1*
X46831Y-260870D1*
X50538Y-259724D1*
X55047Y-259010D1*
X91780Y-258921D1*
X114306D1*
X46832Y-331496D2*
X50115D1*
X48067Y-330559D1*
X-27045Y-349119D2*
Y-335849D1*
X-36949Y-335837D1*
Y-267806D1*
X36390D1*
X40228Y-264478D1*
X44122Y-262092D1*
X46427Y-261034D1*
X-36949D1*
Y-204490D1*
X-69461Y-204500D1*
X-69479Y-230400D1*
X-43720Y-230404D1*
Y-298436D1*
X-59303D1*
X-59318Y-349115D1*
X-27031Y-349127D1*
X149549Y-141419D2*
X157101Y-133865D1*
X-564961Y264894D2*
D10*
Y212205D1*
X-512272D1*
X229570Y-244776D2*
Y-280734D1*
X268940Y-244776D2*
Y-280734D1*
Y-244776D2*
X295646D1*
X333812Y-393696D2*
Y-440480D1*
X283092Y-393696D2*
X384534D1*
X427260Y-244016D2*
Y-286864D1*
Y-244016D2*
X468139D1*
X165079Y-352257D2*
Y-399042D1*
Y-352257D2*
X215801D1*
D24*
X-563386Y112205D3*
D25*
X-564961Y212205D3*
D24*
X-563386Y-209843D3*
D25*
X-564961Y-109843D3*
D24*
X566535Y-209843D3*
D25*
X564961Y-109843D3*
D29*
X229570Y-201469D3*
D30*
X249255Y-244776D3*
Y-199500D3*
X229570Y-244776D3*
X268940D3*
Y-199500D3*
D33*
X333812Y-393696D3*
Y-318892D3*
D34*
X352961Y-178600D3*
Y-245529D3*
X427260Y-177087D3*
Y-244016D3*
D33*
X165079Y-352257D3*
Y-277454D3*
D22*
X15829Y-372402D3*
X82759D3*
D24*
X564961Y112205D3*
D39*
X4941Y-227018D3*
Y-301822D3*
X-85610Y-264420D3*
D34*
X-100223Y-385988D3*
Y-319059D3*
D22*
X8663Y-163594D3*
X-58266D3*
G04 Bottom Clear*
%LPC*%
D18*
X392169Y-305487D3*
D16*
X-110762Y262392D3*
X337609Y225154D3*
X-234647Y175890D3*
X-582272Y337797D3*
X-551572Y337874D3*
X-582665Y306547D3*
X584874Y340469D3*
X586455Y311564D3*
X553772Y340247D3*
X565799Y-425961D3*
X582634Y-392744D3*
X532584Y-440975D3*
D18*
X270908Y-110003D3*
D16*
X84337Y-175202D3*
X-98573Y-174932D3*
X428017Y17471D3*
X82950Y-334875D3*
D42*
X-563386Y112205D3*
X-564961Y212205D3*
X-563386Y-209843D3*
X-564961Y-109843D3*
X566535Y-209843D3*
X564961Y-109843D3*
Y112205D3*
M02*
