%TF.GenerationSoftware,Novarm,DipTrace,3.2.0.1*%
%TF.CreationDate,2019-10-13T00:02:01+02:00*%
%FSLAX35Y35*%
%MOMM*%
%TF.FileFunction,Copper,L2,Bot*%
%TF.Part,Single*%
%TA.AperFunction,CopperBalancing*%
%ADD10C,0.25*%
%TA.AperFunction,Conductor*%
%ADD15C,0.4*%
%ADD16C,0.3*%
%TA.AperFunction,CopperBalancing*%
%ADD17C,0.35*%
%TA.AperFunction,ComponentPad*%
%ADD22C,1.6*%
%ADD23C,1.6*%
%ADD26C,1.4*%
%TA.AperFunction,ViaPad*%
%ADD27C,0.6*%
G75*
G01*
%LPD*%
X-182367Y-176800D2*
D15*
X-42977D1*
X5743Y-128080D1*
Y276593D1*
X-264410Y546747D1*
X-539317D1*
X-804783D1*
X-1427253D1*
X-1435000Y539000D1*
X-539317Y546747D2*
Y858680D1*
X-491390Y906607D1*
X-85720D1*
X255093Y565793D1*
X609240D1*
X-802737Y547193D2*
D16*
X-804783Y546747D1*
X1439000Y-533000D2*
X1216723D1*
X-147173Y830897D1*
X-414820D1*
X-596003Y446760D2*
Y301997D1*
X-1431000Y-533000D1*
D27*
X-414820Y830897D3*
X609240Y565793D3*
X-802737Y547193D3*
X-596003Y446760D3*
X-1478970Y858003D3*
X-1400993Y858200D3*
X-1479970Y778630D3*
X1485580Y864790D3*
X1489597Y791373D3*
X1406580Y864227D3*
X1437130Y-1081940D3*
X1479890Y-997570D3*
X1352763Y-1120077D3*
X-1431407Y-1084030D3*
X-1469543Y-1008657D3*
X-1356717Y-1124710D3*
X-1512680Y873423D2*
D17*
X-1219857D1*
X-965123D2*
X-490667D1*
X-88757D2*
X965113D1*
X1219917D2*
X1506657D1*
X-1512680Y838757D2*
X-1214457D1*
X-970523D2*
X-501877D1*
X-54097D2*
X970513D1*
X1214447D2*
X1506657D1*
X-1512613Y804090D2*
X-1197570D1*
X-987407D2*
X-497843D1*
X-19440D2*
X987400D1*
X1197633D2*
X1506727D1*
X-1512543Y769423D2*
X-1160863D1*
X-1024183D2*
X-475423D1*
X15220D2*
X1024177D1*
X1160853D2*
X1506727D1*
X-1512477Y734757D2*
X-151947D1*
X49877D2*
X1506793D1*
X-1512407Y700090D2*
X-117287D1*
X84603D2*
X1506793D1*
X-1512407Y665423D2*
X-1482630D1*
X-1387377D2*
X-82630D1*
X119263D2*
X1506863D1*
X-1333990Y630757D2*
X-47973D1*
X153920D2*
X1506863D1*
X-1310407Y596090D2*
X-13313D1*
X188580D2*
X1506930D1*
X-1299467Y561423D2*
X21343D1*
X223237D2*
X1506930D1*
X-1298170Y526757D2*
X-624787D1*
X-567203D2*
X56003D1*
X257897D2*
X1507000D1*
X-1306100Y492090D2*
X-670110D1*
X-521880D2*
X90660D1*
X292553D2*
X1507000D1*
X-1325307Y457423D2*
X-682757D1*
X-509303D2*
X125387D1*
X327213D2*
X1507067D1*
X-1365023Y422757D2*
X-679887D1*
X-512103D2*
X160047D1*
X361940D2*
X1507067D1*
X-1342057Y388090D2*
X-668400D1*
X-523590D2*
X194703D1*
X396597D2*
X1507137D1*
X-1312387Y353423D2*
X-668400D1*
X-523590D2*
X229363D1*
X431253D2*
X1507137D1*
X-1297897Y318757D2*
X-680160D1*
X-523590D2*
X264020D1*
X465913D2*
X1507203D1*
X-1293590Y284090D2*
X-714817D1*
X-525980D2*
X-251067D1*
X-102563D2*
X116910D1*
X247847D2*
X298680D1*
X500570D2*
X1507203D1*
X-1298443Y249423D2*
X-749543D1*
X-547650D2*
X-284497D1*
X-69137D2*
X78493D1*
X286263D2*
X333337D1*
X535230D2*
X1507273D1*
X-1313480Y214757D2*
X-784203D1*
X-582310D2*
X-299877D1*
X-53687D2*
X60923D1*
X303833D2*
X367993D1*
X569887D2*
X1507273D1*
X-1344310Y180090D2*
X-818860D1*
X-616967D2*
X-304183D1*
X-49450D2*
X54977D1*
X309713D2*
X402720D1*
X604547D2*
X1507340D1*
X-1511520Y145423D2*
X-853520D1*
X-651627D2*
X-298577D1*
X-55053D2*
X59010D1*
X305747D2*
X437380D1*
X639273D2*
X1507340D1*
X-1511520Y110757D2*
X-888177D1*
X-686283D2*
X-281420D1*
X-72213D2*
X74050D1*
X290707D2*
X472037D1*
X673930D2*
X1507410D1*
X-1511450Y76090D2*
X-922837D1*
X-720943D2*
X-243957D1*
X-109603D2*
X106727D1*
X258033D2*
X506697D1*
X708590D2*
X1507410D1*
X-1511383Y41423D2*
X-957493D1*
X-755670D2*
X541353D1*
X743247D2*
X1507477D1*
X-1511313Y6757D2*
X-992150D1*
X-790327D2*
X576013D1*
X777907D2*
X1507547D1*
X-1511247Y-27910D2*
X-1026877D1*
X-824987D2*
X610670D1*
X812563D2*
X1507547D1*
X-1511247Y-62577D2*
X-1061537D1*
X-859643D2*
X-233840D1*
X-130863D2*
X645330D1*
X847220D2*
X1507613D1*
X-1511177Y-97243D2*
X-1096193D1*
X-894303D2*
X-280873D1*
X-83900D2*
X680057D1*
X881880D2*
X1507613D1*
X-1511110Y-131910D2*
X-1130853D1*
X-928960D2*
X-301380D1*
X-63393D2*
X714713D1*
X916607D2*
X1507683D1*
X-1358737Y-166577D2*
X-1165510D1*
X-963617D2*
X-309377D1*
X-55397D2*
X749373D1*
X951263D2*
X1358797D1*
X-1322507Y-201243D2*
X-1200170D1*
X-998277D2*
X-307327D1*
X-57377D2*
X784030D1*
X985923D2*
X1322497D1*
X-1304730Y-235910D2*
X-1234827D1*
X-1033003D2*
X-294750D1*
X-69957D2*
X818690D1*
X1020580D2*
X1304723D1*
X-1297897Y-270577D2*
X-1269487D1*
X-1067660D2*
X-266860D1*
X-97917D2*
X853347D1*
X1055240D2*
X1297887D1*
X-1102320Y-305243D2*
X888003D1*
X1089897D2*
X1300213D1*
X-1136977Y-339910D2*
X922663D1*
X1124557D2*
X1312243D1*
X-1171637Y-374577D2*
X957390D1*
X1159213D2*
X1337740D1*
X-1510630Y-409243D2*
X-1485617D1*
X-1206293D2*
X992047D1*
X1193873D2*
X1384363D1*
X1493627D2*
X1507957D1*
X-1240953Y-443910D2*
X1026707D1*
X1228600D2*
X1335553D1*
X-1275610Y-478577D2*
X1061363D1*
X-1295093Y-513243D2*
X1096023D1*
X-1294410Y-547910D2*
X1130680D1*
X-1303090Y-582577D2*
X1165407D1*
X-1323393Y-617243D2*
X1331453D1*
X-1510287Y-651910D2*
X-1496020D1*
X-1365913D2*
X1373970D1*
X-1510220Y-686577D2*
X1508230D1*
X-1510150Y-721243D2*
X1508230D1*
X-1510083Y-755910D2*
X-1130170D1*
X-1054810D2*
X1054800D1*
X1130160D2*
X1508297D1*
X-1510013Y-790577D2*
X-1186703D1*
X-998343D2*
X998337D1*
X1186693D2*
X1508367D1*
X-1510013Y-825243D2*
X-1209467D1*
X-975513D2*
X975503D1*
X1209457D2*
X1508367D1*
X-1509947Y-859910D2*
X-1218967D1*
X-966010D2*
X966003D1*
X1218960D2*
X1508433D1*
X-1509877Y-894577D2*
X-1218353D1*
X-966627D2*
X966687D1*
X1218343D2*
X1508433D1*
X-1509810Y-929243D2*
X-1207417D1*
X-977633D2*
X977623D1*
X1207407D2*
X1508503D1*
X-1509740Y-963910D2*
X-1182260D1*
X-1002720D2*
X1002713D1*
X1182320D2*
X1508503D1*
X-1509740Y-998577D2*
X-1104943D1*
X-1080020D2*
X1080027D1*
X1104983D2*
X1507887D1*
X-1502223Y-1033243D2*
X1502623D1*
X-1490807Y-1067910D2*
X1491617D1*
X-1463940Y-1102577D2*
X1467213D1*
X-1424430Y-1137243D2*
X1425513D1*
X-1297513Y274493D2*
X-1300800Y253740D1*
X-1307293Y233760D1*
X-1316830Y215037D1*
X-1329180Y198040D1*
X-1344040Y183180D1*
X-1361037Y170830D1*
X-1379760Y161293D1*
X-1399740Y154800D1*
X-1420493Y151513D1*
X-1441507D1*
X-1462260Y154800D1*
X-1482240Y161293D1*
X-1500963Y170830D1*
X-1515090Y180920D1*
X-1514537Y-171313D1*
X-1504963Y-164830D1*
X-1486240Y-155293D1*
X-1466260Y-148800D1*
X-1445507Y-145513D1*
X-1424493D1*
X-1403740Y-148800D1*
X-1383760Y-155293D1*
X-1365037Y-164830D1*
X-1348040Y-177180D1*
X-1333180Y-192040D1*
X-1320830Y-209037D1*
X-1311293Y-227760D1*
X-1304800Y-247740D1*
X-1301513Y-268493D1*
Y-289507D1*
X-1304583Y-309170D1*
X-664897Y330543D1*
X-664903Y398863D1*
X-670760Y408670D1*
X-675797Y420833D1*
X-678870Y433637D1*
X-679903Y446760D1*
X-678870Y459883D1*
X-675797Y472687D1*
X-670760Y484850D1*
X-663880Y496077D1*
X-655330Y506087D1*
X-645320Y514637D1*
X-634093Y521517D1*
X-621930Y526553D1*
X-609127Y529627D1*
X-596003Y530660D1*
X-582880Y529627D1*
X-570077Y526553D1*
X-557913Y521517D1*
X-546687Y514637D1*
X-536677Y506087D1*
X-528127Y496077D1*
X-521247Y484850D1*
X-516210Y472687D1*
X-513137Y459883D1*
X-512103Y446760D1*
X-513137Y433637D1*
X-516210Y420833D1*
X-521247Y408670D1*
X-527113Y398963D1*
X-527317Y296590D1*
X-529007Y285913D1*
X-532347Y275630D1*
X-537257Y265997D1*
X-543610Y257250D1*
X-609157Y191407D1*
X-1301107Y-500543D1*
X-1298750Y-512053D1*
X-1297100Y-533000D1*
X-1298750Y-553947D1*
X-1303653Y-574377D1*
X-1311693Y-593790D1*
X-1322673Y-611703D1*
X-1336320Y-627680D1*
X-1352297Y-641327D1*
X-1370210Y-652307D1*
X-1389623Y-660347D1*
X-1410053Y-665250D1*
X-1431000Y-666900D1*
X-1451947Y-665250D1*
X-1472377Y-660347D1*
X-1491790Y-652307D1*
X-1509703Y-641327D1*
X-1513800Y-638097D1*
X-1513197Y-1010550D1*
X-1492270Y-1074033D1*
X-1444743Y-1128737D1*
X-1398600Y-1152103D1*
X-1356010Y-1160767D1*
X1337653Y-1161323D1*
X1417427Y-1145567D1*
X1463427Y-1112687D1*
X1494773Y-1068990D1*
X1507140Y-1030023D1*
X1512043Y-993777D1*
X1511683Y-645453D1*
X1499790Y-652307D1*
X1480377Y-660347D1*
X1459947Y-665250D1*
X1439000Y-666900D1*
X1418053Y-665250D1*
X1397623Y-660347D1*
X1378210Y-652307D1*
X1360297Y-641327D1*
X1344320Y-627680D1*
X1330673Y-611703D1*
X1324250Y-601923D1*
X1211317Y-601687D1*
X1200640Y-599997D1*
X1190357Y-596657D1*
X1180723Y-591747D1*
X1171977Y-585393D1*
X1106133Y-519847D1*
X-175727Y762010D1*
X-366950Y761997D1*
X-376730Y756140D1*
X-388893Y751103D1*
X-401697Y748030D1*
X-414820Y746997D1*
X-427943Y748030D1*
X-440747Y751103D1*
X-452910Y756140D1*
X-464137Y763020D1*
X-474147Y771570D1*
X-482697Y781580D1*
X-489577Y792807D1*
X-494613Y804970D1*
X-497687Y817773D1*
X-498720Y830897D1*
X-497687Y844020D1*
X-494613Y856823D1*
X-489577Y868987D1*
X-482697Y880213D1*
X-474147Y890223D1*
X-464137Y898773D1*
X-452747Y905727D1*
X-972377Y905100D1*
X-970127Y894383D1*
X-968600Y875000D1*
X-970127Y855617D1*
X-974663Y836713D1*
X-982103Y818750D1*
X-992263Y802173D1*
X-1004890Y787390D1*
X-1019673Y774763D1*
X-1036250Y764603D1*
X-1054213Y757163D1*
X-1073117Y752627D1*
X-1092500Y751100D1*
X-1111883Y752627D1*
X-1130787Y757163D1*
X-1148750Y764603D1*
X-1165327Y774763D1*
X-1180110Y787390D1*
X-1192737Y802173D1*
X-1202897Y818750D1*
X-1210337Y836713D1*
X-1214873Y855617D1*
X-1216400Y875000D1*
X-1214873Y894383D1*
X-1212720Y904837D1*
X-1516243Y904450D1*
X-1515843Y645717D1*
X-1502710Y654520D1*
X-1490283Y660953D1*
X-1477253Y666057D1*
X-1463763Y669773D1*
X-1449957Y672063D1*
X-1435990Y672897D1*
X-1422010Y672270D1*
X-1408173Y670183D1*
X-1394627Y666670D1*
X-1381523Y661757D1*
X-1369003Y655507D1*
X-1357203Y647983D1*
X-1346257Y639267D1*
X-1336277Y629460D1*
X-1327373Y618660D1*
X-1319647Y606993D1*
X-1313183Y594583D1*
X-1308047Y581567D1*
X-1304297Y568083D1*
X-1301977Y554287D1*
X-1301100Y539000D1*
X-1301830Y525027D1*
X-1304017Y511203D1*
X-1307633Y497687D1*
X-1312640Y484617D1*
X-1318983Y472147D1*
X-1326597Y460403D1*
X-1335390Y449517D1*
X-1345273Y439610D1*
X-1356137Y430790D1*
X-1367860Y423150D1*
X-1380317Y416773D1*
X-1390643Y412667D1*
X-1379760Y408707D1*
X-1361037Y399170D1*
X-1344040Y386820D1*
X-1329180Y371960D1*
X-1316830Y354963D1*
X-1307293Y336240D1*
X-1300800Y316260D1*
X-1297513Y295507D1*
Y274493D1*
X-1515413Y388827D2*
X-1500963Y399170D1*
X-1482240Y408707D1*
X-1475267Y411280D1*
X-1489080Y416507D1*
X-1501570Y422820D1*
X-1515493Y432007D1*
X-1515433Y388960D1*
X-1514123Y-428157D2*
X-1500963Y-418830D1*
X-1482240Y-409293D1*
X-1475267Y-406720D1*
X-1486240Y-402707D1*
X-1504963Y-393170D1*
X-1514187Y-386947D1*
X-1514127Y-428070D1*
X1324250Y-464077D2*
X1330673Y-454297D1*
X1344320Y-438320D1*
X1360297Y-424673D1*
X1378210Y-413693D1*
X1394733Y-406720D1*
X1383760Y-402707D1*
X1365037Y-393170D1*
X1348040Y-380820D1*
X1333180Y-365960D1*
X1320830Y-348963D1*
X1311293Y-330240D1*
X1304800Y-310260D1*
X1301513Y-289507D1*
Y-268493D1*
X1304800Y-247740D1*
X1311293Y-227760D1*
X1320830Y-209037D1*
X1333180Y-192040D1*
X1348040Y-177180D1*
X1365037Y-164830D1*
X1383760Y-155293D1*
X1403740Y-148800D1*
X1424493Y-145513D1*
X1445507D1*
X1466260Y-148800D1*
X1486240Y-155293D1*
X1504963Y-164830D1*
X1511210Y-169007D1*
X1510087Y908080D1*
X1211977Y907713D1*
X1214873Y894383D1*
X1216400Y875000D1*
X1214873Y855617D1*
X1210337Y836713D1*
X1202897Y818750D1*
X1192737Y802173D1*
X1180110Y787390D1*
X1165327Y774763D1*
X1148750Y764603D1*
X1130787Y757163D1*
X1111883Y752627D1*
X1092500Y751100D1*
X1073117Y752627D1*
X1054213Y757163D1*
X1036250Y764603D1*
X1019673Y774763D1*
X1004890Y787390D1*
X992263Y802173D1*
X982103Y818750D1*
X974663Y836713D1*
X970127Y855617D1*
X968600Y875000D1*
X970127Y894383D1*
X973003Y907400D1*
X-376730Y905653D1*
X-367023Y899787D1*
X-141767Y899583D1*
X-131090Y897893D1*
X-120807Y894553D1*
X-111173Y889643D1*
X-102427Y883290D1*
X-36583Y817743D1*
X1245277Y-464113D1*
X1324253Y-464100D1*
X1479310Y-405353D2*
X1490240Y-409293D1*
X1508963Y-418830D1*
X1511457Y-420497D1*
X1511420Y-388970D1*
X1495790Y-398307D1*
X1479267Y-405280D1*
X1216017Y-884720D2*
X1212977Y-903923D1*
X1206970Y-922413D1*
X1198143Y-939737D1*
X1186713Y-955467D1*
X1172967Y-969213D1*
X1157237Y-980643D1*
X1139913Y-989470D1*
X1121423Y-995477D1*
X1102220Y-998517D1*
X1082780D1*
X1063577Y-995477D1*
X1045087Y-989470D1*
X1027763Y-980643D1*
X1012033Y-969213D1*
X998287Y-955467D1*
X986857Y-939737D1*
X978030Y-922413D1*
X972023Y-903923D1*
X968983Y-884720D1*
Y-865280D1*
X972023Y-846077D1*
X978030Y-827587D1*
X986857Y-810263D1*
X998287Y-794533D1*
X1012033Y-780787D1*
X1027763Y-769357D1*
X1045087Y-760530D1*
X1063577Y-754523D1*
X1082780Y-751483D1*
X1102220D1*
X1121423Y-754523D1*
X1139913Y-760530D1*
X1157237Y-769357D1*
X1172967Y-780787D1*
X1186713Y-794533D1*
X1198143Y-810263D1*
X1206970Y-827587D1*
X1212977Y-846077D1*
X1216017Y-865280D1*
Y-884720D1*
X-968983D2*
X-972023Y-903923D1*
X-978030Y-922413D1*
X-986857Y-939737D1*
X-998287Y-955467D1*
X-1012033Y-969213D1*
X-1027763Y-980643D1*
X-1045087Y-989470D1*
X-1063577Y-995477D1*
X-1082780Y-998517D1*
X-1102220D1*
X-1121423Y-995477D1*
X-1139913Y-989470D1*
X-1157237Y-980643D1*
X-1172967Y-969213D1*
X-1186713Y-955467D1*
X-1198143Y-939737D1*
X-1206970Y-922413D1*
X-1212977Y-903923D1*
X-1216017Y-884720D1*
Y-865280D1*
X-1212977Y-846077D1*
X-1206970Y-827587D1*
X-1198143Y-810263D1*
X-1186713Y-794533D1*
X-1172967Y-780787D1*
X-1157237Y-769357D1*
X-1139913Y-760530D1*
X-1121423Y-754523D1*
X-1102220Y-751483D1*
X-1082780D1*
X-1063577Y-754523D1*
X-1045087Y-760530D1*
X-1027763Y-769357D1*
X-1012033Y-780787D1*
X-998287Y-794533D1*
X-986857Y-810263D1*
X-978030Y-827587D1*
X-972023Y-846077D1*
X-968983Y-865280D1*
Y-884720D1*
X305883Y167080D2*
X302843Y147877D1*
X296837Y129387D1*
X288010Y112063D1*
X276580Y96333D1*
X262833Y82587D1*
X247103Y71157D1*
X229780Y62330D1*
X211290Y56323D1*
X192087Y53283D1*
X172647D1*
X153443Y56323D1*
X134953Y62330D1*
X117630Y71157D1*
X101900Y82587D1*
X88153Y96333D1*
X76723Y112063D1*
X67897Y129387D1*
X61890Y147877D1*
X58850Y167080D1*
Y186520D1*
X61890Y205723D1*
X67897Y224213D1*
X76723Y241537D1*
X88153Y257267D1*
X101900Y271013D1*
X117630Y282443D1*
X134953Y291270D1*
X153443Y297277D1*
X172647Y300317D1*
X192087D1*
X211290Y297277D1*
X229780Y291270D1*
X247103Y282443D1*
X262833Y271013D1*
X276580Y257267D1*
X288010Y241537D1*
X296837Y224213D1*
X302843Y205723D1*
X305883Y186520D1*
Y167080D1*
X-58517Y-180300D2*
X-59700Y-194243D1*
X-62450Y-207963D1*
X-66727Y-221283D1*
X-72480Y-234040D1*
X-79637Y-246063D1*
X-88100Y-257207D1*
X-97767Y-267323D1*
X-108513Y-276283D1*
X-120203Y-283977D1*
X-132683Y-290303D1*
X-145797Y-295180D1*
X-159380Y-298550D1*
X-173253Y-300363D1*
X-187243Y-300603D1*
X-201173Y-299263D1*
X-214860Y-296363D1*
X-228133Y-291937D1*
X-240823Y-286043D1*
X-252770Y-278753D1*
X-263817Y-270167D1*
X-273823Y-260387D1*
X-282667Y-249540D1*
X-290227Y-237770D1*
X-296413Y-225217D1*
X-301147Y-212050D1*
X-304363Y-198433D1*
X-306023Y-184537D1*
X-306110Y-170547D1*
X-304613Y-156633D1*
X-301560Y-142977D1*
X-296987Y-129753D1*
X-290953Y-117130D1*
X-283530Y-105267D1*
X-274820Y-94317D1*
X-264930Y-84417D1*
X-253987Y-75697D1*
X-242130Y-68267D1*
X-229513Y-62220D1*
X-216293Y-57637D1*
X-202640Y-54570D1*
X-188730Y-53063D1*
X-174737Y-53137D1*
X-160840Y-54783D1*
X-147220Y-57990D1*
X-134050Y-62710D1*
X-121493Y-68887D1*
X-109713Y-76437D1*
X-98860Y-85270D1*
X-89073Y-95270D1*
X-80473Y-106307D1*
X-73177Y-118247D1*
X-67270Y-130930D1*
X-62833Y-144200D1*
X-59920Y-157887D1*
X-58567Y-171813D1*
X-58517Y-180300D1*
X-53283Y172647D2*
X-56323Y153443D1*
X-62330Y134953D1*
X-71157Y117630D1*
X-82587Y101900D1*
X-96333Y88153D1*
X-112063Y76723D1*
X-129387Y67897D1*
X-147877Y61890D1*
X-167080Y58850D1*
X-186520D1*
X-205723Y61890D1*
X-224213Y67897D1*
X-241537Y76723D1*
X-257267Y88153D1*
X-271013Y101900D1*
X-282443Y117630D1*
X-291270Y134953D1*
X-297277Y153443D1*
X-300317Y172647D1*
Y192087D1*
X-297277Y211290D1*
X-291270Y229780D1*
X-282443Y247103D1*
X-271013Y262833D1*
X-257267Y276580D1*
X-241537Y288010D1*
X-224213Y296837D1*
X-205723Y302843D1*
X-186520Y305883D1*
X-167080D1*
X-147877Y302843D1*
X-129387Y296837D1*
X-112063Y288010D1*
X-96333Y276580D1*
X-82587Y262833D1*
X-71157Y247103D1*
X-62330Y229780D1*
X-56323Y211290D1*
X-53283Y192087D1*
Y172647D1*
X-1435000Y672830D2*
D10*
Y539000D1*
X-1301170D1*
X-182367Y-52970D2*
Y-300630D1*
X-306197Y-176800D2*
X-58537D1*
D22*
X-1431000Y285000D3*
D23*
X-1435000Y539000D3*
D22*
X-1431000Y-533000D3*
D23*
X-1435000Y-279000D3*
D22*
X1439000Y-533000D3*
D23*
X1435000Y-279000D3*
D26*
X182367Y176800D3*
X-182367Y-176800D3*
X-176800Y182367D3*
M02*
