G04 DipTrace 3.2.0.1*
G04 Нижний.gbr*
%MOIN*%
G04 #@! TF.FileFunction,Copper,L2,Bot*
G04 #@! TF.Part,Single*
%ADD16C,0.011811*%
%ADD18C,0.015748*%
%ADD41C,0.035433*%
G04 #@! TA.AperFunction,CopperBalancing*
%ADD10C,0.009843*%
G04 #@! TA.AperFunction,Conductor*
%ADD15C,0.011024*%
%ADD17C,0.019685*%
G04 #@! TA.AperFunction,ViaPad*
%ADD19C,0.023622*%
G04 #@! TA.AperFunction,CopperBalancing*
%ADD20C,0.01378*%
%ADD22R,0.043307X0.03937*%
G04 #@! TA.AperFunction,ComponentPad*
%ADD24C,0.062992*%
%ADD25C,0.062992*%
%ADD29R,0.011024X0.033465*%
%ADD30R,0.011024X0.029528*%
%ADD32R,0.059055X0.051181*%
%ADD33R,0.03937X0.043307*%
%ADD38R,0.041339X0.025591*%
G04 #@! TA.AperFunction,ViaPad*
%ADD39C,0.031496*%
%FSLAX26Y26*%
G04*
G70*
G90*
G75*
G01*
G04 Bottom*
%LPD*%
X229570Y-244776D2*
D15*
Y-250511D1*
D10*
Y-305900D1*
D16*
X242773Y-319104D1*
X250638D1*
X257142D1*
D10*
X268940Y-307306D1*
Y-244776D1*
X333812Y-393696D2*
D16*
Y-400598D1*
D17*
X250638D1*
D18*
Y-319104D1*
X333812Y-393696D2*
D17*
Y-403144D1*
X458050D1*
X478840Y-382355D1*
Y-291299D1*
X438020Y-250479D1*
X427260D1*
Y-244016D1*
X250638Y-400598D2*
X162123D1*
Y-352257D1*
X165079D1*
X-564961Y212205D2*
D19*
X-212329D1*
D18*
Y293294D1*
X-191472Y314151D1*
X9033D1*
X98030Y225154D1*
X337609D1*
X-212329Y212205D2*
D17*
X-169399Y169274D1*
Y11264D1*
X-143435Y-14700D1*
X19428D1*
X84337Y-79609D1*
Y-175202D1*
X-143435Y-14700D2*
Y-394427D1*
X-110250Y-427612D1*
X138346D1*
X162123Y-403835D1*
Y-400598D1*
X17031Y-202030D2*
D16*
X56965D1*
X73992Y-219057D1*
X105833D1*
X122430Y-202460D1*
Y-94540D1*
X234442Y17471D1*
X428017D1*
X249255Y-199500D2*
D15*
Y-178831D1*
D10*
Y-129098D1*
X268350Y-110003D1*
X270908D1*
X268940Y-199500D2*
Y-166847D1*
X273043Y-162743D1*
X337104D1*
X352961Y-178600D1*
X427260Y-177087D2*
D16*
X354474D1*
X352961Y-178600D1*
X-82057Y-175933D2*
D18*
Y-230895D1*
D16*
X-73520Y-239432D1*
X229570Y-201469D2*
D15*
Y-178831D1*
D10*
Y-160811D1*
D16*
X223196Y-154438D1*
X177675D1*
D18*
X165079Y-167034D1*
Y-277454D1*
X17031Y-276833D1*
X15830Y-372402D2*
Y-278035D1*
D16*
X17031Y-276833D1*
X392169Y-305487D2*
D17*
X359991D1*
D16*
X346585Y-318892D1*
X333812D1*
X342128D1*
Y-256362D1*
X352961Y-245529D1*
X82950Y-334875D2*
D18*
X82759Y-372402D1*
X566535Y-209843D2*
D16*
X564804D1*
X488923Y-133961D1*
Y49707D1*
X347951Y190678D1*
X73463D1*
X1749Y262392D1*
X-110762D1*
X-234647Y175890D2*
Y118896D1*
X-563386Y-209843D1*
D39*
X392169Y-305487D3*
D19*
X-110762Y262392D3*
X337609Y225154D3*
X-234647Y175890D3*
X-582272Y337797D3*
X-551572Y337874D3*
X-582665Y306547D3*
X584874Y340469D3*
X586455Y311564D3*
X553772Y340247D3*
X565799Y-425961D3*
X582634Y-392744D3*
X532584Y-440975D3*
D39*
X270908Y-110003D3*
D19*
X84337Y-175202D3*
X-82057Y-175933D3*
X428017Y17471D3*
X82950Y-334875D3*
X-595544Y343867D2*
D20*
X-480258D1*
X-379969D2*
X379966D1*
X480282D2*
X593172D1*
X-595544Y330219D2*
X-478132D1*
X-382096D2*
X382092D1*
X478129D2*
X593172D1*
X-595517Y316571D2*
X-471485D1*
X-388743D2*
X388740D1*
X471509D2*
X593199D1*
X-595490Y302923D2*
X-457032D1*
X-403222D2*
X403219D1*
X457029D2*
X593199D1*
X-595463Y289274D2*
X-131330D1*
X6772D2*
X593226D1*
X-595436Y275626D2*
X-142418D1*
X28249D2*
X593226D1*
X-595436Y261978D2*
X-583713D1*
X-546212D2*
X-145163D1*
X41894D2*
X593253D1*
X-525193Y248329D2*
X-142041D1*
X55539D2*
X593253D1*
X-515908Y234681D2*
X-130119D1*
X-91407D2*
X-10274D1*
X69211D2*
X593280D1*
X-511602Y221033D2*
X3371D1*
X82856D2*
X593280D1*
X-511090Y207385D2*
X-245980D1*
X-223308D2*
X17016D1*
X370988D2*
X593307D1*
X-514212Y193736D2*
X-263823D1*
X-205465D2*
X30661D1*
X384633D2*
X593307D1*
X-521775Y180088D2*
X-268802D1*
X-200513D2*
X44306D1*
X398278D2*
X593334D1*
X-537411Y166440D2*
X-267672D1*
X-201616D2*
X59915D1*
X411923D2*
X593334D1*
X-528368Y152791D2*
X-263150D1*
X-206137D2*
X346109D1*
X425568D2*
X529953D1*
X-516688Y139143D2*
X-263150D1*
X-206137D2*
X359754D1*
X439240D2*
X518273D1*
X-510983Y125495D2*
X-267779D1*
X-206137D2*
X373399D1*
X452885D2*
X512567D1*
X-509287Y111846D2*
X-281424D1*
X-207079D2*
X387044D1*
X466530D2*
X510872D1*
X-511198Y98198D2*
X-295096D1*
X-215611D2*
X400689D1*
X480175D2*
X512756D1*
X-517119Y84550D2*
X-308741D1*
X-229256D2*
X414334D1*
X493820D2*
X518703D1*
X-529257Y70902D2*
X-322386D1*
X-242901D2*
X427979D1*
X507465D2*
X530814D1*
X-595086Y57253D2*
X-336031D1*
X-256546D2*
X441624D1*
X516346D2*
X593441D1*
X-595086Y43605D2*
X-349676D1*
X-270191D2*
X225781D1*
X449601D2*
X455287D1*
X517422D2*
X593468D1*
X-595059Y29957D2*
X-363321D1*
X-283836D2*
X207184D1*
X517422D2*
X593468D1*
X-595032Y16308D2*
X-376966D1*
X-297508D2*
X193539D1*
X517422D2*
X593495D1*
X-595005Y2660D2*
X-390611D1*
X-311152D2*
X179894D1*
X517422D2*
X593522D1*
X-594978Y-10988D2*
X-404283D1*
X-324797D2*
X166249D1*
X245734D2*
X409867D1*
X446156D2*
X460410D1*
X517422D2*
X593522D1*
X-594978Y-24636D2*
X-417928D1*
X-338442D2*
X152604D1*
X232062D2*
X460410D1*
X517422D2*
X593549D1*
X-594952Y-38285D2*
X-431573D1*
X-352087D2*
X138959D1*
X218417D2*
X460410D1*
X517422D2*
X593549D1*
X-594925Y-51933D2*
X-445218D1*
X-365732D2*
X125287D1*
X204772D2*
X460410D1*
X517422D2*
X593576D1*
X-534935Y-65581D2*
X-458863D1*
X-379377D2*
X111642D1*
X191127D2*
X460410D1*
X517422D2*
X534959D1*
X-520671Y-79230D2*
X-472508D1*
X-393022D2*
X98670D1*
X177482D2*
X249034D1*
X292778D2*
X460410D1*
X-513674Y-92878D2*
X-486152D1*
X-406694D2*
X93987D1*
X163838D2*
X236761D1*
X305051D2*
X460410D1*
X-510983Y-106526D2*
X-499797D1*
X-420339D2*
X93933D1*
X150946D2*
X232724D1*
X309088D2*
X460410D1*
X-433984Y-120175D2*
X93933D1*
X150946D2*
X223305D1*
X307823D2*
X460410D1*
X-447629Y-133823D2*
X93933D1*
X150946D2*
X155745D1*
X300556D2*
X460410D1*
X-461274Y-147471D2*
X-100191D1*
X-63928D2*
X93933D1*
X-594736Y-161119D2*
X-584889D1*
X-474919D2*
X-112948D1*
X-51145D2*
X93933D1*
X469544D2*
X476331D1*
X588042D2*
X593683D1*
X-488564Y-174768D2*
X-116447D1*
X-47673D2*
X-26234D1*
X60303D2*
X93933D1*
X469544D2*
X489987D1*
X-502209Y-188416D2*
X-114024D1*
X-50095D2*
X-26234D1*
X83098D2*
X93933D1*
X195541D2*
X201451D1*
X469544D2*
X503632D1*
X-509879Y-202064D2*
X-112517D1*
X-51575D2*
X-26234D1*
X195541D2*
X201451D1*
X297058D2*
X310665D1*
X469544D2*
X513025D1*
X-509610Y-215713D2*
X-116797D1*
X195541D2*
X201451D1*
X297058D2*
X310665D1*
X469544D2*
X512756D1*
X-513028Y-229361D2*
X-116797D1*
X195541D2*
X201451D1*
X297058D2*
X310665D1*
X469544D2*
X516201D1*
X-521021Y-243009D2*
X-116797D1*
X297058D2*
X310665D1*
X469544D2*
X524194D1*
X-594602Y-256657D2*
X-588984D1*
X-537761D2*
X-116797D1*
X297058D2*
X310665D1*
X469544D2*
X540934D1*
X-594575Y-270306D2*
X-116797D1*
X297058D2*
X310665D1*
X469544D2*
X593791D1*
X-594548Y-283954D2*
X-26234D1*
X217206D2*
X281679D1*
X469544D2*
X593791D1*
X-594521Y-297602D2*
X-444948D1*
X-415279D2*
X-26234D1*
X217206D2*
X281679D1*
X444945D2*
X593818D1*
X-594521Y-311251D2*
X-467206D1*
X-393049D2*
X-14634D1*
X46308D2*
X58489D1*
X107401D2*
X112929D1*
X217206D2*
X281679D1*
X467202D2*
X593845D1*
X-594494Y-324899D2*
X-476168D1*
X-384060D2*
X-14634D1*
X217206D2*
X281679D1*
X476165D2*
X593845D1*
X-594467Y-338547D2*
X-479909D1*
X-380319D2*
X-28414D1*
X217206D2*
X281679D1*
X479905D2*
X593872D1*
X-594440Y-352196D2*
X-479666D1*
X-380561D2*
X-28414D1*
X217206D2*
X281679D1*
X479663D2*
X593872D1*
X-594413Y-365844D2*
X-475360D1*
X-384894D2*
X-28414D1*
X217206D2*
X281679D1*
X475357D2*
X593899D1*
X-594386Y-379492D2*
X-465456D1*
X-394772D2*
X-28414D1*
X217206D2*
X281679D1*
X385952D2*
X394768D1*
X465480D2*
X593899D1*
X-594386Y-393140D2*
X-435018D1*
X-425204D2*
X-28414D1*
X217206D2*
X281679D1*
X385952D2*
X425207D1*
X435033D2*
X593657D1*
X-591426Y-406789D2*
X-28414D1*
X127020D2*
X281679D1*
X385952D2*
X591584D1*
X-586931Y-420437D2*
X281679D1*
X385952D2*
X587251D1*
X-576355Y-434085D2*
X281679D1*
X385952D2*
X577643D1*
X-560799Y-447734D2*
X561226D1*
X424095Y-286893D2*
X426324Y-291340D1*
X427805Y-295755D1*
X433945Y-295859D1*
X441505Y-297056D1*
X448785Y-299422D1*
X455605Y-302897D1*
X461798Y-307396D1*
X467210Y-312808D1*
X471709Y-319001D1*
X475185Y-325821D1*
X477550Y-333101D1*
X478747Y-340661D1*
Y-348315D1*
X477550Y-355876D1*
X475185Y-363155D1*
X471709Y-369975D1*
X467210Y-376168D1*
X461798Y-381580D1*
X455605Y-386080D1*
X448785Y-389555D1*
X441505Y-391920D1*
X433945Y-393117D1*
X426291D1*
X418731Y-391920D1*
X411451Y-389555D1*
X404631Y-386080D1*
X398438Y-381580D1*
X393026Y-376168D1*
X388527Y-369975D1*
X385052Y-363155D1*
X384560Y-361822D1*
Y-440507D1*
X283064D1*
Y-280739D1*
X215830Y-280760D1*
X215827Y-399068D1*
X125630D1*
X125633Y-413308D1*
X-27044D1*
Y-331497D1*
X-13292D1*
X-13265Y-310851D1*
X-24858Y-310849D1*
Y-242818D1*
X58921D1*
Y-247904D1*
X114335Y-248147D1*
X114216Y-244855D1*
X110077Y-245849D1*
X105825Y-246183D1*
X71864Y-246100D1*
X67660Y-245434D1*
X63611Y-244118D1*
X59819Y-242186D1*
X56375Y-239684D1*
X52031Y-236046D1*
X-24859D1*
Y-168015D1*
X58921D1*
Y-174985D1*
X63298Y-175654D1*
X67346Y-176969D1*
X71138Y-178901D1*
X74582Y-181403D1*
X85224Y-191927D1*
X94581Y-191931D1*
X95304Y-188681D1*
X95388Y-92412D1*
X96054Y-88207D1*
X97369Y-84159D1*
X99302Y-80367D1*
X101804Y-76923D1*
X127608Y-51000D1*
X216825Y38098D1*
X220268Y40600D1*
X224061Y42533D1*
X228109Y43848D1*
X232313Y44514D1*
X268891Y44598D1*
X409189D1*
X413021Y46903D1*
X417809Y48886D1*
X422849Y50096D1*
X428017Y50503D1*
X433184Y50096D1*
X438224Y48886D1*
X443013Y46903D1*
X447432Y44195D1*
X451373Y40828D1*
X454740Y36887D1*
X457448Y32467D1*
X459431Y27679D1*
X460641Y22639D1*
X461048Y17471D1*
X460641Y12304D1*
X459431Y7264D1*
X457448Y2475D1*
X454740Y-1944D1*
X451373Y-5885D1*
X447432Y-9252D1*
X443013Y-11960D1*
X438224Y-13943D1*
X433184Y-15153D1*
X428017Y-15560D1*
X422849Y-15153D1*
X417809Y-13943D1*
X413021Y-11960D1*
X409199Y-9651D1*
X245680Y-9655D1*
X149545Y-105787D1*
X149556Y-141396D1*
X158779Y-132315D1*
X162473Y-129631D1*
X166541Y-127558D1*
X170883Y-126148D1*
X175392Y-125433D1*
X179958D1*
X184467Y-126148D1*
X188147Y-127314D1*
X223115Y-127312D1*
X223835Y-122995D1*
X225103Y-119094D1*
X226965Y-115439D1*
X229376Y-112120D1*
X234024Y-107359D1*
X234961Y-101372D1*
X236753Y-95855D1*
X239387Y-90687D1*
X242797Y-85994D1*
X246899Y-81892D1*
X251592Y-78482D1*
X256760Y-75848D1*
X262278Y-74056D1*
X268007Y-73148D1*
X273808D1*
X279538Y-74056D1*
X285055Y-75848D1*
X290224Y-78482D1*
X294917Y-81892D1*
X299019Y-85994D1*
X302428Y-90687D1*
X305062Y-95855D1*
X306855Y-101372D1*
X307762Y-107102D1*
Y-112903D1*
X306855Y-118633D1*
X305062Y-124150D1*
X302428Y-129319D1*
X299019Y-134012D1*
X296557Y-136597D1*
X312041Y-136601D1*
X312055Y-135726D1*
X386362D1*
X386355Y-134213D1*
X461792D1*
X461796Y38472D1*
X336700Y163568D1*
X71335Y163636D1*
X67131Y164302D1*
X63083Y165617D1*
X59290Y167550D1*
X55846Y170052D1*
X29923Y195856D1*
X-9489Y235268D1*
X-91935Y235266D1*
X-95766Y232961D1*
X-100555Y230978D1*
X-105595Y229768D1*
X-110762Y229361D1*
X-115930Y229768D1*
X-120970Y230978D1*
X-125758Y232961D1*
X-130178Y235669D1*
X-134119Y239036D1*
X-137486Y242977D1*
X-140194Y247396D1*
X-142177Y252185D1*
X-143387Y257225D1*
X-143794Y262392D1*
X-143387Y267560D1*
X-142177Y272600D1*
X-140194Y277388D1*
X-137486Y281808D1*
X-134119Y285749D1*
X-130178Y289115D1*
X-125758Y291824D1*
X-120970Y293807D1*
X-115930Y295017D1*
X-110762Y295424D1*
X-105595Y295017D1*
X-100555Y293807D1*
X-95766Y291824D1*
X-91945Y289515D1*
X3878Y289435D1*
X8082Y288769D1*
X12130Y287454D1*
X15923Y285521D1*
X19366Y283019D1*
X45289Y257214D1*
X84701Y217802D1*
X350080Y217721D1*
X354284Y217055D1*
X358332Y215740D1*
X362125Y213807D1*
X365568Y211305D1*
X391491Y185501D1*
X509549Y67324D1*
X512051Y63881D1*
X513984Y60088D1*
X515299Y56040D1*
X515965Y51836D1*
X516049Y15259D1*
Y-90160D1*
X517990Y-85910D1*
X522312Y-78857D1*
X527684Y-72566D1*
X533975Y-67194D1*
X541028Y-62872D1*
X548670Y-59706D1*
X556714Y-57775D1*
X564961Y-57126D1*
X573207Y-57775D1*
X581251Y-59706D1*
X588893Y-62872D1*
X594965Y-66538D1*
X594819Y68734D1*
X588893Y65234D1*
X581251Y62068D1*
X573207Y60137D1*
X564961Y59488D1*
X556714Y60137D1*
X548670Y62068D1*
X541028Y65234D1*
X533975Y69556D1*
X527684Y74929D1*
X522312Y81219D1*
X517990Y88272D1*
X514824Y95914D1*
X512893Y103958D1*
X512244Y112205D1*
X512893Y120451D1*
X514824Y128495D1*
X517990Y136138D1*
X522312Y143191D1*
X527684Y149481D1*
X533975Y154853D1*
X541028Y159176D1*
X548670Y162341D1*
X556714Y164272D1*
X564961Y164921D1*
X573207Y164272D1*
X581251Y162341D1*
X588893Y159176D1*
X594723Y155671D1*
X594523Y357512D1*
X477156Y357367D1*
X478297Y352119D1*
X478898Y344488D1*
X478297Y336857D1*
X476510Y329414D1*
X473581Y322343D1*
X469582Y315816D1*
X464610Y309996D1*
X458790Y305025D1*
X452264Y301025D1*
X445192Y298096D1*
X437749Y296309D1*
X430118Y295709D1*
X422487Y296309D1*
X415044Y298096D1*
X407973Y301025D1*
X401446Y305025D1*
X395626Y309996D1*
X390655Y315816D1*
X386655Y322343D1*
X383726Y329414D1*
X381939Y336857D1*
X381339Y344488D1*
X381939Y352119D1*
X383072Y357244D1*
X-382826Y356339D1*
X-381939Y352119D1*
X-381339Y344488D1*
X-381939Y336857D1*
X-383726Y329414D1*
X-386655Y322343D1*
X-390655Y315816D1*
X-395626Y309996D1*
X-401446Y305025D1*
X-407973Y301025D1*
X-415044Y298096D1*
X-422487Y296309D1*
X-430118Y295709D1*
X-437749Y296309D1*
X-445192Y298096D1*
X-452264Y301025D1*
X-458790Y305025D1*
X-464610Y309996D1*
X-469582Y315816D1*
X-473581Y322343D1*
X-476510Y329414D1*
X-478297Y336857D1*
X-478898Y344488D1*
X-478297Y352119D1*
X-477448Y356236D1*
X-596947Y356083D1*
X-596788Y254220D1*
X-591618Y257685D1*
X-586726Y260218D1*
X-581596Y262228D1*
X-576285Y263691D1*
X-570849Y264591D1*
X-565350Y264920D1*
X-559846Y264673D1*
X-554398Y263852D1*
X-549066Y262468D1*
X-543907Y260535D1*
X-538978Y258073D1*
X-534333Y255111D1*
X-530022Y251680D1*
X-526093Y247818D1*
X-522588Y243567D1*
X-519547Y238974D1*
X-517001Y234088D1*
X-514979Y228963D1*
X-513503Y223655D1*
X-512589Y218222D1*
X-512244Y212205D1*
X-512532Y206703D1*
X-513392Y201261D1*
X-514816Y195939D1*
X-516788Y190795D1*
X-519285Y185884D1*
X-522282Y181261D1*
X-525744Y176976D1*
X-529635Y173075D1*
X-533912Y169602D1*
X-538527Y166594D1*
X-543432Y164085D1*
X-547497Y162468D1*
X-543212Y160908D1*
X-535842Y157153D1*
X-529149Y152291D1*
X-523300Y146441D1*
X-518438Y139749D1*
X-514682Y132378D1*
X-512126Y124511D1*
X-510832Y116341D1*
Y108069D1*
X-512126Y99898D1*
X-514682Y92031D1*
X-518438Y84660D1*
X-523300Y77968D1*
X-529149Y72119D1*
X-535842Y67256D1*
X-543212Y63501D1*
X-551079Y60945D1*
X-559250Y59651D1*
X-567522D1*
X-575692Y60945D1*
X-583560Y63501D1*
X-590930Y67256D1*
X-596492Y71228D1*
X-596275Y-67446D1*
X-592505Y-64894D1*
X-585134Y-61139D1*
X-577267Y-58583D1*
X-569097Y-57288D1*
X-560825D1*
X-552654Y-58583D1*
X-544787Y-61139D1*
X-537416Y-64894D1*
X-530724Y-69757D1*
X-524875Y-75606D1*
X-520012Y-82298D1*
X-516257Y-89669D1*
X-513701Y-97536D1*
X-512407Y-105706D1*
Y-113979D1*
X-513615Y-121721D1*
X-261770Y130135D1*
X-261773Y157032D1*
X-264078Y160894D1*
X-266062Y165682D1*
X-267272Y170722D1*
X-267678Y175890D1*
X-267272Y181057D1*
X-266062Y186097D1*
X-264078Y190886D1*
X-261370Y195305D1*
X-258004Y199247D1*
X-254062Y202613D1*
X-249643Y205321D1*
X-244854Y207305D1*
X-239814Y208515D1*
X-234647Y208921D1*
X-229480Y208515D1*
X-224440Y207305D1*
X-219651Y205321D1*
X-215232Y202613D1*
X-211290Y199247D1*
X-207924Y195305D1*
X-205216Y190886D1*
X-203232Y186097D1*
X-202022Y181057D1*
X-201615Y175890D1*
X-202022Y170722D1*
X-203232Y165682D1*
X-205216Y160894D1*
X-207524Y157072D1*
X-207604Y116768D1*
X-208270Y112564D1*
X-209586Y108516D1*
X-211518Y104723D1*
X-214020Y101279D1*
X-239825Y75356D1*
X-512246Y-197065D1*
X-511318Y-201596D1*
X-510669Y-209843D1*
X-511318Y-218089D1*
X-513249Y-226133D1*
X-516415Y-233775D1*
X-520737Y-240829D1*
X-526110Y-247119D1*
X-532400Y-252491D1*
X-539453Y-256813D1*
X-547096Y-259979D1*
X-555139Y-261910D1*
X-563386Y-262559D1*
X-571633Y-261910D1*
X-579676Y-259979D1*
X-587319Y-256813D1*
X-594372Y-252491D1*
X-595984Y-251220D1*
X-595747Y-397855D1*
X-587508Y-422847D1*
X-568797Y-444385D1*
X-550631Y-453584D1*
X-533863Y-456995D1*
X526636Y-457214D1*
X558042Y-451011D1*
X576152Y-438065D1*
X588493Y-420863D1*
X593362Y-405521D1*
X595293Y-391250D1*
X595151Y-254115D1*
X590468Y-256813D1*
X582826Y-259979D1*
X574782Y-261910D1*
X566535Y-262559D1*
X558289Y-261910D1*
X550245Y-259979D1*
X542603Y-256813D1*
X535549Y-252491D1*
X529259Y-247119D1*
X523887Y-240829D1*
X519565Y-233775D1*
X516399Y-226133D1*
X514468Y-218089D1*
X513819Y-209843D1*
X514468Y-201596D1*
X515089Y-198472D1*
X468291Y-151571D1*
X468166Y-175551D1*
Y-286890D1*
X424119D1*
X-596619Y153081D2*
X-590930Y157153D1*
X-583560Y160908D1*
X-580814Y161921D1*
X-586252Y163979D1*
X-591169Y166465D1*
X-596651Y170081D1*
X-596627Y153134D1*
X-596111Y-168565D2*
X-590930Y-164894D1*
X-583560Y-161139D1*
X-580814Y-160126D1*
X-585134Y-158546D1*
X-592505Y-154791D1*
X-596137Y-152341D1*
X-596113Y-168531D1*
X582406Y-159588D2*
X586709Y-161139D1*
X594080Y-164894D1*
X595061Y-165550D1*
X595047Y-153137D1*
X588893Y-156813D1*
X582389Y-159559D1*
X-381489Y-348315D2*
X-382686Y-355876D1*
X-385052Y-363155D1*
X-388527Y-369975D1*
X-393026Y-376168D1*
X-398438Y-381580D1*
X-404631Y-386080D1*
X-411451Y-389555D1*
X-418731Y-391920D1*
X-426291Y-393117D1*
X-433945D1*
X-441505Y-391920D1*
X-448785Y-389555D1*
X-455605Y-386080D1*
X-461798Y-381580D1*
X-467210Y-376168D1*
X-471709Y-369975D1*
X-475185Y-363155D1*
X-477550Y-355876D1*
X-478747Y-348315D1*
Y-340661D1*
X-477550Y-333101D1*
X-475185Y-325821D1*
X-471709Y-319001D1*
X-467210Y-312808D1*
X-461798Y-307396D1*
X-455605Y-302897D1*
X-448785Y-299422D1*
X-441505Y-297056D1*
X-433945Y-295859D1*
X-426291D1*
X-418731Y-297056D1*
X-411451Y-299422D1*
X-404631Y-302897D1*
X-398438Y-307396D1*
X-393026Y-312808D1*
X-388527Y-319001D1*
X-385052Y-325821D1*
X-382686Y-333101D1*
X-381489Y-340661D1*
Y-348315D1*
X202837Y-230621D2*
Y-181580D1*
X194157Y-181564D1*
X194173Y-230630D1*
X202848Y-230643D1*
X295672Y-235484D2*
Y-272086D1*
X312050Y-272081D1*
X312055Y-188882D1*
X295685Y-188885D1*
X295645Y-235484D1*
X114331Y-324567D2*
Y-306335D1*
X99478Y-306274D1*
X104402Y-309757D1*
X108067Y-313422D1*
X111114Y-317616D1*
X113467Y-322234D1*
X114333Y-324582D1*
X132605Y-230643D2*
X135996D1*
X135984Y-227261D1*
X44948Y-331497D2*
X50116D1*
X50831Y-327164D1*
X52433Y-322234D1*
X54786Y-317616D1*
X57832Y-313422D1*
X61497Y-309757D1*
X65691Y-306711D1*
X66725Y-306132D1*
X58947Y-306104D1*
X58921Y-310849D1*
X44899D1*
X44924Y-331511D1*
X-49127Y-178525D2*
X-49938Y-183644D1*
X-51540Y-188574D1*
X-52967Y-191539D1*
X-52962Y-205403D1*
X-31630Y-205416D1*
Y-273448D1*
X-115410D1*
Y-205416D1*
X-111130D1*
X-111151Y-191575D1*
X-113472Y-186140D1*
X-114682Y-181100D1*
X-115088Y-175933D1*
X-114682Y-170766D1*
X-113472Y-165726D1*
X-111488Y-160937D1*
X-108780Y-156518D1*
X-105414Y-152576D1*
X-101472Y-149210D1*
X-97053Y-146502D1*
X-92264Y-144518D1*
X-87224Y-143308D1*
X-82057Y-142902D1*
X-76890Y-143308D1*
X-71850Y-144518D1*
X-67061Y-146502D1*
X-62641Y-149210D1*
X-58700Y-152576D1*
X-55334Y-156518D1*
X-52626Y-160937D1*
X-50642Y-165726D1*
X-49432Y-170766D1*
X-49025Y-175933D1*
X-49127Y-178525D1*
X149549Y-141418D2*
X157102Y-133865D1*
X-564961Y264894D2*
D10*
Y212205D1*
X-512271D1*
X229570Y-244776D2*
Y-280733D1*
X268940Y-244776D2*
Y-280733D1*
Y-244776D2*
X295645D1*
X333812Y-393696D2*
Y-440480D1*
X283091Y-393696D2*
X384534D1*
X427260Y-244016D2*
Y-286863D1*
Y-244016D2*
X468139D1*
X165079Y-352257D2*
Y-399042D1*
Y-352257D2*
X215800D1*
D24*
X-563386Y112205D3*
D25*
X-564961Y212205D3*
D24*
X-563386Y-209843D3*
D25*
X-564961Y-109843D3*
D24*
X566535Y-209843D3*
D25*
X564961Y-109843D3*
D29*
X229570Y-201469D3*
D30*
X249255Y-244776D3*
Y-199500D3*
X229570Y-244776D3*
X268940D3*
Y-199500D3*
D32*
X333812Y-393696D3*
Y-318892D3*
D33*
X352961Y-178600D3*
Y-245529D3*
X427260Y-177087D3*
Y-244016D3*
D32*
X165079Y-352257D3*
Y-277454D3*
D22*
X15830Y-372402D3*
X82759D3*
D24*
X564961Y112205D3*
D38*
X17031Y-202030D3*
Y-276833D3*
X-73520Y-239432D3*
G04 Bottom Clear*
%LPC*%
D18*
X392169Y-305487D3*
D16*
X-110762Y262392D3*
X337609Y225154D3*
X-234647Y175890D3*
X-582272Y337797D3*
X-551572Y337874D3*
X-582665Y306547D3*
X584874Y340469D3*
X586455Y311564D3*
X553772Y340247D3*
X565799Y-425961D3*
X582634Y-392744D3*
X532584Y-440975D3*
D18*
X270908Y-110003D3*
D16*
X84337Y-175202D3*
X-82057Y-175933D3*
X428017Y17471D3*
X82950Y-334875D3*
D41*
X-563386Y112205D3*
X-564961Y212205D3*
X-563386Y-209843D3*
X-564961Y-109843D3*
X566535Y-209843D3*
X564961Y-109843D3*
Y112205D3*
M02*
