G04 DipTrace 3.2.0.1*
G04 Нижний.gbr*
%MOIN*%
G04 #@! TF.FileFunction,Copper,L2,Bot*
G04 #@! TF.Part,Single*
%ADD16C,0.011811*%
%ADD27C,0.023622*%
%ADD29C,0.035433*%
G04 #@! TA.AperFunction,CopperBalancing*
%ADD10C,0.009843*%
G04 #@! TA.AperFunction,Conductor*
%ADD15C,0.015748*%
G04 #@! TA.AperFunction,CopperBalancing*
%ADD17C,0.01378*%
G04 #@! TA.AperFunction,ComponentPad*
%ADD22C,0.062992*%
%ADD23C,0.062992*%
%ADD26C,0.055118*%
%FSLAX26Y26*%
G04*
G70*
G90*
G75*
G01*
G04 Bottom*
%LPD*%
X-71798Y-69606D2*
D15*
X-16920D1*
X2261Y-50425D1*
Y108895D1*
X-104098Y215255D1*
X-212329D1*
X-316844D1*
X-561911D1*
X-564961Y212205D1*
X-212329Y215255D2*
Y338063D1*
X-193461Y356932D1*
X-33748D1*
X100430Y222753D1*
X239858D1*
X-316038Y215430D2*
D16*
X-316844Y215255D1*
X566535Y-209843D2*
X479025D1*
X-57942Y327125D1*
X-163315D1*
X-234647Y175890D2*
Y118896D1*
X-563386Y-209843D1*
D27*
X-163315Y327125D3*
X239858Y222753D3*
X-316038Y215430D3*
X-234647Y175890D3*
X-582272Y337797D3*
X-551572Y337874D3*
X-582665Y306547D3*
X584874Y340469D3*
X586455Y311564D3*
X553772Y340247D3*
X565799Y-425961D3*
X582634Y-392744D3*
X532584Y-440975D3*
X-563546Y-426783D3*
X-578560Y-397109D3*
X-534140Y-442799D3*
X-595544Y343867D2*
D17*
X-480258D1*
X-379969D2*
X-193176D1*
X-34943D2*
X379966D1*
X480282D2*
X593172D1*
X-595544Y330219D2*
X-478132D1*
X-382096D2*
X-197590D1*
X-21298D2*
X382092D1*
X478129D2*
X593172D1*
X-595517Y316571D2*
X-471485D1*
X-388743D2*
X-196002D1*
X-7653D2*
X388740D1*
X471509D2*
X593199D1*
X-595490Y302923D2*
X-457032D1*
X-403222D2*
X-187174D1*
X5992D2*
X403219D1*
X457029D2*
X593199D1*
X-595463Y289274D2*
X-59821D1*
X19637D2*
X593226D1*
X-595436Y275626D2*
X-46176D1*
X33309D2*
X593226D1*
X-595436Y261978D2*
X-583713D1*
X-546212D2*
X-32532D1*
X46954D2*
X593253D1*
X-525193Y248329D2*
X-18887D1*
X60599D2*
X593253D1*
X-515908Y234681D2*
X-5242D1*
X74244D2*
X593280D1*
X-511602Y221033D2*
X8403D1*
X87889D2*
X593280D1*
X-511090Y207385D2*
X-245980D1*
X-223308D2*
X22048D1*
X101534D2*
X593307D1*
X-514212Y193736D2*
X-263823D1*
X-205465D2*
X35693D1*
X115179D2*
X593307D1*
X-521775Y180088D2*
X-268802D1*
X-200513D2*
X49365D1*
X128824D2*
X593334D1*
X-537411Y166440D2*
X-267672D1*
X-201616D2*
X63010D1*
X142495D2*
X593334D1*
X-528368Y152791D2*
X-263150D1*
X-206137D2*
X76655D1*
X156140D2*
X593360D1*
X-516688Y139143D2*
X-263150D1*
X-206137D2*
X90300D1*
X169785D2*
X593360D1*
X-510983Y125495D2*
X-267779D1*
X-206137D2*
X103945D1*
X183430D2*
X593387D1*
X-509287Y111846D2*
X-281424D1*
X-207079D2*
X-98845D1*
X-40379D2*
X46028D1*
X97577D2*
X117590D1*
X197075D2*
X593387D1*
X-511198Y98198D2*
X-295096D1*
X-215611D2*
X-112006D1*
X-27219D2*
X30903D1*
X112703D2*
X131235D1*
X210720D2*
X593414D1*
X-517119Y84550D2*
X-308741D1*
X-229256D2*
X-118061D1*
X-21136D2*
X23986D1*
X119619D2*
X144880D1*
X224365D2*
X593414D1*
X-529257Y70902D2*
X-322386D1*
X-242901D2*
X-119757D1*
X-19468D2*
X21645D1*
X121934D2*
X158552D1*
X238010D2*
X593441D1*
X-595086Y57253D2*
X-336031D1*
X-256546D2*
X-117550D1*
X-21675D2*
X23233D1*
X120373D2*
X172197D1*
X251682D2*
X593441D1*
X-595086Y43605D2*
X-349676D1*
X-270191D2*
X-110795D1*
X-28430D2*
X29153D1*
X114452D2*
X185842D1*
X265327D2*
X593468D1*
X-595059Y29957D2*
X-363321D1*
X-283836D2*
X-96047D1*
X-43151D2*
X42018D1*
X101587D2*
X199487D1*
X278972D2*
X593468D1*
X-595032Y16308D2*
X-376966D1*
X-297508D2*
X213132D1*
X292617D2*
X593495D1*
X-595005Y2660D2*
X-390611D1*
X-311152D2*
X226777D1*
X306262D2*
X593522D1*
X-594978Y-10988D2*
X-404283D1*
X-324797D2*
X240422D1*
X319907D2*
X593522D1*
X-594978Y-24636D2*
X-417928D1*
X-338442D2*
X-92063D1*
X-51521D2*
X254067D1*
X333552D2*
X593549D1*
X-594952Y-38285D2*
X-431573D1*
X-352087D2*
X-110580D1*
X-33032D2*
X267738D1*
X347197D2*
X593549D1*
X-594925Y-51933D2*
X-445218D1*
X-365732D2*
X-118654D1*
X-24958D2*
X281383D1*
X360869D2*
X593576D1*
X-534935Y-65581D2*
X-458863D1*
X-379377D2*
X-121802D1*
X-21809D2*
X295028D1*
X374514D2*
X534959D1*
X-520671Y-79230D2*
X-472508D1*
X-393022D2*
X-120995D1*
X-22590D2*
X308673D1*
X388159D2*
X520668D1*
X-513674Y-92878D2*
X-486152D1*
X-406694D2*
X-116043D1*
X-27542D2*
X322318D1*
X401804D2*
X513671D1*
X-510983Y-106526D2*
X-499797D1*
X-420339D2*
X-105062D1*
X-38549D2*
X335963D1*
X415448D2*
X510979D1*
X-433984Y-120175D2*
X349608D1*
X429093D2*
X511894D1*
X-447629Y-133823D2*
X363253D1*
X442738D2*
X516631D1*
X-461274Y-147471D2*
X376925D1*
X456383D2*
X526670D1*
X-594736Y-161119D2*
X-584889D1*
X-474919D2*
X390570D1*
X470028D2*
X545024D1*
X588042D2*
X593683D1*
X-488564Y-174768D2*
X404215D1*
X483700D2*
X525808D1*
X-502209Y-188416D2*
X417860D1*
X-509879Y-202064D2*
X431505D1*
X-509610Y-215713D2*
X445150D1*
X-513028Y-229361D2*
X458822D1*
X-521021Y-243009D2*
X524194D1*
X-594602Y-256657D2*
X-588984D1*
X-537761D2*
X540934D1*
X-594575Y-270306D2*
X593791D1*
X-594548Y-283954D2*
X593791D1*
X-594521Y-297602D2*
X-444948D1*
X-415279D2*
X415276D1*
X444945D2*
X593818D1*
X-594494Y-311251D2*
X-467206D1*
X-393049D2*
X393046D1*
X467202D2*
X593845D1*
X-594494Y-324899D2*
X-476168D1*
X-384060D2*
X384057D1*
X476165D2*
X593845D1*
X-594467Y-338547D2*
X-479909D1*
X-380319D2*
X380316D1*
X479905D2*
X593872D1*
X-594440Y-352196D2*
X-479666D1*
X-380561D2*
X380585D1*
X479663D2*
X593872D1*
X-594413Y-365844D2*
X-475360D1*
X-384894D2*
X384891D1*
X475357D2*
X593899D1*
X-594386Y-379492D2*
X-465456D1*
X-394772D2*
X394768D1*
X465480D2*
X593899D1*
X-594386Y-393140D2*
X-435018D1*
X-425204D2*
X425207D1*
X435033D2*
X593657D1*
X-591426Y-406789D2*
X591584D1*
X-586931Y-420437D2*
X587251D1*
X-576355Y-434085D2*
X577643D1*
X-560799Y-447734D2*
X561226D1*
X-510832Y108069D2*
X-512126Y99898D1*
X-514682Y92031D1*
X-518438Y84660D1*
X-523300Y77968D1*
X-529149Y72119D1*
X-535842Y67256D1*
X-543212Y63501D1*
X-551079Y60945D1*
X-559250Y59651D1*
X-567522D1*
X-575692Y60945D1*
X-583560Y63501D1*
X-590930Y67256D1*
X-596492Y71228D1*
X-596275Y-67446D1*
X-592505Y-64894D1*
X-585134Y-61139D1*
X-577267Y-58583D1*
X-569097Y-57288D1*
X-560825D1*
X-552654Y-58583D1*
X-544787Y-61139D1*
X-537416Y-64894D1*
X-530724Y-69757D1*
X-524875Y-75606D1*
X-520012Y-82298D1*
X-516257Y-89669D1*
X-513701Y-97536D1*
X-512407Y-105706D1*
Y-113979D1*
X-513615Y-121721D1*
X-261770Y130135D1*
X-261773Y157032D1*
X-264078Y160894D1*
X-266062Y165682D1*
X-267272Y170722D1*
X-267678Y175890D1*
X-267272Y181057D1*
X-266062Y186097D1*
X-264078Y190886D1*
X-261370Y195305D1*
X-258004Y199247D1*
X-254062Y202613D1*
X-249643Y205321D1*
X-244854Y207305D1*
X-239814Y208515D1*
X-234647Y208921D1*
X-229480Y208515D1*
X-224440Y207305D1*
X-219651Y205321D1*
X-215232Y202613D1*
X-211290Y199247D1*
X-207924Y195305D1*
X-205216Y190886D1*
X-203232Y186097D1*
X-202022Y181057D1*
X-201615Y175890D1*
X-202022Y170722D1*
X-203232Y165682D1*
X-205216Y160894D1*
X-207524Y157072D1*
X-207605Y116768D1*
X-208270Y112564D1*
X-209586Y108516D1*
X-211518Y104723D1*
X-214020Y101279D1*
X-239825Y75356D1*
X-512246Y-197065D1*
X-511318Y-201596D1*
X-510669Y-209843D1*
X-511318Y-218089D1*
X-513249Y-226133D1*
X-516415Y-233775D1*
X-520737Y-240829D1*
X-526110Y-247119D1*
X-532400Y-252491D1*
X-539453Y-256813D1*
X-547096Y-259979D1*
X-555139Y-261910D1*
X-563386Y-262559D1*
X-571633Y-261910D1*
X-579676Y-259979D1*
X-587319Y-256813D1*
X-594372Y-252491D1*
X-595984Y-251220D1*
X-595747Y-397855D1*
X-587508Y-422847D1*
X-568797Y-444385D1*
X-550631Y-453584D1*
X-533863Y-456995D1*
X526636Y-457214D1*
X558042Y-451011D1*
X576152Y-438065D1*
X588493Y-420863D1*
X593362Y-405521D1*
X595293Y-391250D1*
X595151Y-254115D1*
X590468Y-256813D1*
X582826Y-259979D1*
X574782Y-261910D1*
X566535Y-262559D1*
X558289Y-261910D1*
X550245Y-259979D1*
X542603Y-256813D1*
X535549Y-252491D1*
X529259Y-247119D1*
X523887Y-240829D1*
X521358Y-236978D1*
X476897Y-236885D1*
X472692Y-236219D1*
X468644Y-234904D1*
X464852Y-232971D1*
X461408Y-230469D1*
X435485Y-204665D1*
X-69184Y300004D1*
X-144468Y299999D1*
X-148319Y297693D1*
X-153108Y295710D1*
X-158148Y294500D1*
X-163315Y294093D1*
X-168482Y294500D1*
X-173522Y295710D1*
X-178311Y297693D1*
X-182730Y300402D1*
X-186672Y303768D1*
X-190038Y307709D1*
X-192746Y312129D1*
X-194730Y316917D1*
X-195940Y321957D1*
X-196346Y327125D1*
X-195940Y332292D1*
X-194730Y337332D1*
X-192746Y342121D1*
X-190038Y346540D1*
X-186672Y350481D1*
X-182730Y353848D1*
X-178247Y356586D1*
X-382826Y356339D1*
X-381939Y352119D1*
X-381339Y344488D1*
X-381939Y336857D1*
X-383726Y329414D1*
X-386655Y322343D1*
X-390655Y315816D1*
X-395626Y309996D1*
X-401446Y305025D1*
X-407973Y301025D1*
X-415044Y298096D1*
X-422487Y296309D1*
X-430118Y295709D1*
X-437749Y296309D1*
X-445192Y298096D1*
X-452264Y301025D1*
X-458790Y305025D1*
X-464610Y309996D1*
X-469582Y315816D1*
X-473581Y322343D1*
X-476510Y329414D1*
X-478297Y336857D1*
X-478898Y344488D1*
X-478297Y352119D1*
X-477448Y356236D1*
X-596947Y356083D1*
X-596788Y254220D1*
X-591618Y257685D1*
X-586726Y260218D1*
X-581596Y262228D1*
X-576285Y263691D1*
X-570849Y264591D1*
X-565350Y264920D1*
X-559846Y264673D1*
X-554398Y263852D1*
X-549066Y262468D1*
X-543907Y260535D1*
X-538978Y258073D1*
X-534333Y255111D1*
X-530022Y251680D1*
X-526093Y247818D1*
X-522588Y243567D1*
X-519547Y238974D1*
X-517001Y234088D1*
X-514979Y228963D1*
X-513503Y223655D1*
X-512589Y218222D1*
X-512244Y212205D1*
X-512532Y206703D1*
X-513392Y201261D1*
X-514816Y195939D1*
X-516788Y190795D1*
X-519285Y185884D1*
X-522282Y181261D1*
X-525744Y176976D1*
X-529635Y173075D1*
X-533912Y169602D1*
X-538527Y166594D1*
X-543432Y164085D1*
X-547497Y162468D1*
X-543212Y160908D1*
X-535842Y157153D1*
X-529149Y152291D1*
X-523300Y146441D1*
X-518438Y139749D1*
X-514682Y132378D1*
X-512126Y124511D1*
X-510832Y116341D1*
Y108069D1*
X-596619Y153081D2*
X-590930Y157153D1*
X-583560Y160908D1*
X-580814Y161921D1*
X-586252Y163979D1*
X-591169Y166465D1*
X-596651Y170081D1*
X-596627Y153134D1*
X-596111Y-168565D2*
X-590930Y-164894D1*
X-583560Y-161139D1*
X-580814Y-160126D1*
X-585134Y-158546D1*
X-592505Y-154791D1*
X-596137Y-152341D1*
X-596113Y-168531D1*
X521358Y-182707D2*
X523887Y-178857D1*
X529259Y-172566D1*
X535549Y-167194D1*
X542603Y-162872D1*
X549107Y-160126D1*
X544787Y-158546D1*
X537416Y-154791D1*
X530724Y-149928D1*
X524875Y-144079D1*
X520012Y-137387D1*
X516257Y-130016D1*
X513701Y-122149D1*
X512407Y-113979D1*
Y-105706D1*
X513701Y-97536D1*
X516257Y-89669D1*
X520012Y-82298D1*
X524875Y-75606D1*
X530724Y-69757D1*
X537416Y-64894D1*
X544787Y-61139D1*
X552654Y-58583D1*
X560825Y-57288D1*
X569097D1*
X577267Y-58583D1*
X585134Y-61139D1*
X592505Y-64894D1*
X594965Y-66538D1*
X594523Y357512D1*
X477156Y357367D1*
X478297Y352119D1*
X478898Y344488D1*
X478297Y336857D1*
X476510Y329414D1*
X473581Y322343D1*
X469582Y315816D1*
X464610Y309996D1*
X458790Y305025D1*
X452264Y301025D1*
X445192Y298096D1*
X437749Y296309D1*
X430118Y295709D1*
X422487Y296309D1*
X415044Y298096D1*
X407973Y301025D1*
X401446Y305025D1*
X395626Y309996D1*
X390655Y315816D1*
X386655Y322343D1*
X383726Y329414D1*
X381939Y336857D1*
X381339Y344488D1*
X381939Y352119D1*
X383072Y357244D1*
X-148319Y356556D1*
X-144498Y354247D1*
X-55814Y354167D1*
X-51610Y353501D1*
X-47562Y352186D1*
X-43769Y350253D1*
X-40325Y347751D1*
X-14402Y321947D1*
X490267Y-182722D1*
X521359Y-182717D1*
X582406Y-159588D2*
X586709Y-161139D1*
X594080Y-164894D1*
X595061Y-165550D1*
X595047Y-153137D1*
X588893Y-156813D1*
X582389Y-159559D1*
X478747Y-348315D2*
X477550Y-355876D1*
X475185Y-363155D1*
X471709Y-369975D1*
X467210Y-376168D1*
X461798Y-381580D1*
X455605Y-386080D1*
X448785Y-389555D1*
X441505Y-391920D1*
X433945Y-393117D1*
X426291D1*
X418731Y-391920D1*
X411451Y-389555D1*
X404631Y-386080D1*
X398438Y-381580D1*
X393026Y-376168D1*
X388527Y-369975D1*
X385052Y-363155D1*
X382686Y-355876D1*
X381489Y-348315D1*
Y-340661D1*
X382686Y-333101D1*
X385052Y-325821D1*
X388527Y-319001D1*
X393026Y-312808D1*
X398438Y-307396D1*
X404631Y-302897D1*
X411451Y-299422D1*
X418731Y-297056D1*
X426291Y-295859D1*
X433945D1*
X441505Y-297056D1*
X448785Y-299422D1*
X455605Y-302897D1*
X461798Y-307396D1*
X467210Y-312808D1*
X471709Y-319001D1*
X475185Y-325821D1*
X477550Y-333101D1*
X478747Y-340661D1*
Y-348315D1*
X-381489D2*
X-382686Y-355876D1*
X-385052Y-363155D1*
X-388527Y-369975D1*
X-393026Y-376168D1*
X-398438Y-381580D1*
X-404631Y-386080D1*
X-411451Y-389555D1*
X-418731Y-391920D1*
X-426291Y-393117D1*
X-433945D1*
X-441505Y-391920D1*
X-448785Y-389555D1*
X-455605Y-386080D1*
X-461798Y-381580D1*
X-467210Y-376168D1*
X-471709Y-369975D1*
X-475185Y-363155D1*
X-477550Y-355876D1*
X-478747Y-348315D1*
Y-340661D1*
X-477550Y-333101D1*
X-475185Y-325821D1*
X-471709Y-319001D1*
X-467210Y-312808D1*
X-461798Y-307396D1*
X-455605Y-302897D1*
X-448785Y-299422D1*
X-441505Y-297056D1*
X-433945Y-295859D1*
X-426291D1*
X-418731Y-297056D1*
X-411451Y-299422D1*
X-404631Y-302897D1*
X-398438Y-307396D1*
X-393026Y-312808D1*
X-388527Y-319001D1*
X-385052Y-325821D1*
X-382686Y-333101D1*
X-381489Y-340661D1*
Y-348315D1*
X120427Y65779D2*
X119230Y58219D1*
X116864Y50939D1*
X113389Y44119D1*
X108890Y37927D1*
X103478Y32514D1*
X97285Y28015D1*
X90465Y24540D1*
X83185Y22175D1*
X75625Y20977D1*
X67971D1*
X60411Y22175D1*
X53131Y24540D1*
X46311Y28015D1*
X40118Y32514D1*
X34706Y37927D1*
X30207Y44119D1*
X26731Y50939D1*
X24366Y58219D1*
X23169Y65779D1*
Y73433D1*
X24366Y80994D1*
X26731Y88273D1*
X30207Y95094D1*
X34706Y101286D1*
X40118Y106699D1*
X46311Y111198D1*
X53131Y114673D1*
X60411Y117038D1*
X67971Y118235D1*
X75625D1*
X83185Y117038D1*
X90465Y114673D1*
X97285Y111198D1*
X103478Y106699D1*
X108890Y101286D1*
X113389Y95094D1*
X116864Y88273D1*
X119230Y80994D1*
X120427Y73433D1*
Y65779D1*
X-23038Y-70984D2*
X-23504Y-76473D1*
X-24586Y-81875D1*
X-26271Y-87120D1*
X-28536Y-92141D1*
X-31353Y-96876D1*
X-34685Y-101262D1*
X-38491Y-105245D1*
X-42722Y-108773D1*
X-47324Y-111802D1*
X-52237Y-114292D1*
X-57401Y-116213D1*
X-62748Y-117539D1*
X-68210Y-118254D1*
X-73718Y-118348D1*
X-79202Y-117821D1*
X-84591Y-116678D1*
X-89817Y-114936D1*
X-94813Y-112615D1*
X-99516Y-109746D1*
X-103865Y-106364D1*
X-107805Y-102514D1*
X-111286Y-98245D1*
X-114263Y-93610D1*
X-116699Y-88668D1*
X-118562Y-83484D1*
X-119828Y-78123D1*
X-120482Y-72653D1*
X-120515Y-67144D1*
X-119927Y-61667D1*
X-118725Y-56291D1*
X-116924Y-51084D1*
X-114548Y-46114D1*
X-111627Y-41444D1*
X-108197Y-37133D1*
X-104303Y-33236D1*
X-99995Y-29802D1*
X-95327Y-26877D1*
X-90359Y-24496D1*
X-85155Y-22691D1*
X-79780Y-21484D1*
X-74303Y-20891D1*
X-68794Y-20919D1*
X-63323Y-21569D1*
X-57961Y-22830D1*
X-52775Y-24689D1*
X-47832Y-27120D1*
X-43194Y-30093D1*
X-38921Y-33571D1*
X-35068Y-37507D1*
X-31683Y-41854D1*
X-28809Y-46554D1*
X-26484Y-51548D1*
X-24737Y-56772D1*
X-23590Y-62160D1*
X-23058Y-67644D1*
X-23038Y-70984D1*
X-20977Y67971D2*
X-22175Y60411D1*
X-24540Y53131D1*
X-28015Y46311D1*
X-32514Y40118D1*
X-37927Y34706D1*
X-44119Y30207D1*
X-50939Y26731D1*
X-58219Y24366D1*
X-65779Y23169D1*
X-73433D1*
X-80994Y24366D1*
X-88273Y26731D1*
X-95094Y30207D1*
X-101286Y34706D1*
X-106699Y40118D1*
X-111198Y46311D1*
X-114673Y53131D1*
X-117038Y60411D1*
X-118235Y67971D1*
Y75625D1*
X-117038Y83185D1*
X-114673Y90465D1*
X-111198Y97285D1*
X-106699Y103478D1*
X-101286Y108890D1*
X-95094Y113389D1*
X-88273Y116864D1*
X-80994Y119230D1*
X-73433Y120427D1*
X-65779D1*
X-58219Y119230D1*
X-50939Y116864D1*
X-44119Y113389D1*
X-37927Y108890D1*
X-32514Y103478D1*
X-28015Y97285D1*
X-24540Y90465D1*
X-22175Y83185D1*
X-20977Y75625D1*
Y67971D1*
X-564961Y264894D2*
D10*
Y212205D1*
X-512271D1*
X-71798Y-20854D2*
Y-118359D1*
X-120551Y-69606D2*
X-23045D1*
D22*
X-563386Y112205D3*
D23*
X-564961Y212205D3*
D22*
X-563386Y-209843D3*
D23*
X-564961Y-109843D3*
D22*
X566535Y-209843D3*
D23*
X564961Y-109843D3*
D26*
X71798Y69606D3*
X-71798Y-69606D3*
X-69606Y71798D3*
G04 Bottom Clear*
%LPC*%
D16*
X-163315Y327125D3*
X239858Y222753D3*
X-316038Y215430D3*
X-234647Y175890D3*
X-582272Y337797D3*
X-551572Y337874D3*
X-582665Y306547D3*
X584874Y340469D3*
X586455Y311564D3*
X553772Y340247D3*
X565799Y-425961D3*
X582634Y-392744D3*
X532584Y-440975D3*
X-563546Y-426783D3*
X-578560Y-397109D3*
X-534140Y-442799D3*
D29*
X-563386Y112205D3*
X-564961Y212205D3*
X-563386Y-209843D3*
X-564961Y-109843D3*
X566535Y-209843D3*
X564961Y-109843D3*
D27*
X71798Y69606D3*
X-71798Y-69606D3*
X-69606Y71798D3*
M02*
